<?xml version="1.0" encoding="UTF-8"?>
<svg width="139px" height="104px" viewBox="0 0 139 104" version="1.1" xmlns="http://www.w3.org/2000/svg" xmlns:xlink="http://www.w3.org/1999/xlink">
    <title>v-icon-04</title>
    <g id="Page-3" stroke="none" stroke-width="1" fill="none" fill-rule="evenodd">
        <g id="v-icon-04" transform="translate(0.732000, 0.311317)" fill-rule="nonzero">
            <path d="M117.015,46.5816835 L108.616,43.6226835 C106.208,42.7646835 103.576,42.7736835 101.174,43.6486835 C98.772,44.5246835 96.752,46.2106835 95.461,48.4176835 L90.083,56.7326835 C89.903,57.0026835 89.787,57.3106835 89.746,57.6326835 C89.705,57.9556835 89.739,58.2826835 89.846,58.5896835 C89.953,58.9026835 90.128,59.1866835 90.36,59.4226835 C90.592,59.6586835 90.874,59.8386835 91.185,59.9506835 L119.715,70.0146835 C119.946,70.0826835 120.186,70.1186835 120.427,70.1226835 C120.821,70.1196835 121.208,70.0156835 121.55,69.8206835 C121.825,69.6536835 122.059,69.4276835 122.235,69.1586835 C122.41,68.8886835 122.523,68.5836835 122.565,68.2656835 L123.924,58.6976835 C124.444,56.1836835 124.03,53.5656835 122.758,51.3346835 C121.486,49.1046835 119.444,47.4146835 117.015,46.5816835 Z M119.693,57.9416835 L118.656,65.0476835 L95.206,56.7756835 L99.18,50.6206835 C99.956,49.2716835 101.182,48.2386835 102.642,47.7016835 C104.103,47.1646835 105.706,47.1586835 107.171,47.6836835 L115.594,50.6416835 C117.048,51.1516835 118.267,52.1746835 119.021,53.5186835 C119.776,54.8616835 120.015,56.4346835 119.693,57.9416835 Z" id="Shape" fill="#200A52"></path>
            <path d="M130.939,69.8206835 L132.429,60.4256835 C133.345,55.9056835 132.585,51.2076835 130.293,47.2066835 C128.001,43.2056835 124.332,40.1736835 119.97,38.6776835 L111.569,35.7186835 C107.206,34.1706835 102.439,34.2006835 98.095,35.8026835 C93.752,37.4046835 90.108,40.4766835 87.794,44.4866835 L82.611,52.7586835 C77.612,52.5716835 72.737,54.3466835 69.029,57.7046835 C68.29,58.3856835 67.604,59.1216835 66.977,59.9076835 C66.066,60.9956835 65.269,62.1756835 64.601,63.4276835 C64.601,63.4496835 64.58,63.4706835 64.56,63.4926835 C64.524,63.5966835 64.481,63.6976835 64.431,63.7946835 C64.101,64.4336835 63.805,65.0896835 63.545,65.7606835 L60.586,73.6646835 C60.391,74.2066835 60.414,74.8026835 60.651,75.3276835 C60.773,75.5896835 60.947,75.8246835 61.162,76.0176835 C61.378,76.2106835 61.63,76.3576835 61.904,76.4506835 L68.208,78.6756835 C67.902,80.6736835 68.195,82.7176835 69.05,84.5496835 C69.656,85.8416835 70.515,86.9976835 71.576,87.9516835 C72.637,88.9046835 73.878,89.6356835 75.227,90.1006835 C77.556,90.9416835 80.102,90.9636835 82.445,90.1626835 C84.788,89.3616835 86.788,87.7856835 88.114,85.6946835 L104.871,91.6116835 C104.584,93.6126835 104.884,95.6536835 105.735,97.4866835 C106.337,98.7826835 107.194,99.9436835 108.255,100.901683 C109.316,101.858683 110.559,102.592683 111.91,103.058683 C113.091,103.466683 114.332,103.678683 115.581,103.684685 C117.414,103.685683 119.217,103.225683 120.824,102.345683 C122.432,101.466683 123.792,100.196683 124.78,98.6526835 L131.194,100.898683 C131.422,100.983683 131.663,101.027683 131.907,101.028683 C132.348,101.029683 132.779,100.895683 133.142,100.644683 C133.505,100.393683 133.782,100.037683 133.937,99.6246835 L136.894,91.7196835 C138.436,87.9216835 138.689,83.7216835 137.613,79.7646835 C136.538,75.8086835 134.193,72.3146835 130.939,69.8206835 Z M68.858,64.7446835 C69.068,64.3586835 69.298,63.9836835 69.549,63.6216835 C69.7,63.4056835 69.873,63.2116835 70.024,62.9956835 C70.305,62.6506835 70.564,62.3266835 70.845,62.0026835 C70.922,61.9356835 70.995,61.8636835 71.061,61.7866835 L71.903,62.0886835 C72.173,62.1776835 72.421,62.3216835 72.633,62.5116835 C72.845,62.7006835 73.016,62.9316835 73.134,63.1896835 C73.349,63.6596835 73.372,64.1936835 73.199,64.6806835 C73.1,64.9436835 72.947,65.1836835 72.75,65.3836835 C72.553,65.5846835 72.316,65.7426835 72.054,65.8466835 C71.522,66.0836835 70.919,66.1066835 70.37,65.9116835 L68.534,65.2636835 L68.858,64.7446835 Z M85.032,82.2816835 L85.032,82.3256835 C84.389,83.9046835 83.16,85.1736835 81.602,85.8666835 C80.043,86.5596835 78.277,86.6216835 76.674,86.0396835 C75.866,85.7636835 75.122,85.3266835 74.488,84.7546835 C73.854,84.1836835 73.342,83.4886835 72.983,82.7136835 C72.642,81.9886835 72.449,81.2016835 72.416,80.4006835 C72.383,79.5996835 72.509,78.8006835 72.789,78.0486835 C72.845,77.9156835 72.91,77.7856835 72.983,77.6606835 C73.066,77.4506835 73.168,77.2476835 73.285,77.0556835 C73.379,76.9066835 73.48,76.7626835 73.588,76.6236835 C73.698,76.4566835 73.821,76.2976835 73.955,76.1486835 C74.063,76.0186835 74.193,75.8896835 74.322,75.7596835 C74.478,75.6116835 74.644,75.4746835 74.819,75.3496835 C74.929,75.2496835 75.044,75.1556835 75.164,75.0686835 C75.461,74.8756835 75.771,74.7026835 76.091,74.5506835 C76.217,74.4906835 76.347,74.4396835 76.48,74.3986835 C76.698,74.3066835 76.922,74.2276835 77.149,74.1616835 C77.3,74.1186835 77.473,74.0966835 77.624,74.0536835 C77.84,74.0106835 78.056,73.9886835 78.272,73.9666835 C78.437,73.9416835 78.603,73.9276835 78.769,73.9236835 C78.978,73.9276835 79.187,73.9416835 79.395,73.9666835 C79.59,73.9706835 79.785,73.9856835 79.978,74.0106835 C80.236,74.0526835 80.489,74.1176835 80.734,74.2046835 C80.883,74.2176835 81.029,74.2536835 81.166,74.3126835 C82.383,74.7286835 83.445,75.5046835 84.212,76.5376835 C84.473,76.8676835 84.69,77.2306835 84.859,77.6166835 C85.202,78.3426835 85.394,79.1296835 85.424,79.9316835 C85.453,80.7336835 85.32,81.5336835 85.032,82.2816835 Z M121.719,95.2406835 C121.238,96.4656835 120.396,97.5156835 119.304,98.2526835 C118.213,98.9886835 116.924,99.3766835 115.607,99.3656835 C114.842,99.3646835 114.082,99.2326835 113.361,98.9766835 C112.555,98.6986835 111.811,98.2636835 111.174,97.6966835 C110.537,97.1296835 110.018,96.4416835 109.649,95.6726835 C109.306,94.9426835 109.114,94.1516835 109.084,93.3466835 C109.055,92.5416835 109.188,91.7386835 109.476,90.9856835 C109.498,90.8996835 109.562,90.8346835 109.584,90.7266835 C109.7,90.4746835 109.83,90.2296835 109.973,89.9926835 C110.054,89.8476835 110.148,89.7096835 110.253,89.5816835 C110.383,89.4086835 110.513,89.2366835 110.642,89.0856835 C110.772,88.9336835 110.88,88.8256835 110.988,88.7176835 C111.158,88.5456835 111.331,88.4156835 111.504,88.2646835 C111.612,88.1776835 111.72,88.0916835 111.849,88.0056835 C112.147,87.8116835 112.457,87.6386835 112.778,87.4866835 L113.102,87.3576835 C113.361,87.2706835 113.599,87.1626835 113.858,87.0986835 C113.988,87.0766835 114.117,87.0336835 114.247,87.0116835 C114.527,86.9686835 114.787,86.9256835 115.067,86.9036835 C115.174,86.8856835 115.283,86.8786835 115.391,86.8826835 C115.716,86.8646835 116.042,86.8786835 116.363,86.9256835 C116.45,86.9466835 116.536,86.9256835 116.601,86.9466835 C117.026,87.0146835 117.445,87.1156835 117.853,87.2496835 C118.651,87.5396835 119.39,87.9716835 120.035,88.5236835 C120.035,88.5296835 120.037,88.5346835 120.041,88.5386835 C120.045,88.5426835 120.051,88.5456835 120.056,88.5456835 C120.1,88.5886835 120.143,88.6536835 120.186,88.6966835 C120.749,89.2276835 121.21,89.8566835 121.547,90.5536835 C121.89,91.2856835 122.081,92.0786835 122.108,92.8866835 C122.148,93.6896835 122.016,94.4926835 121.719,95.2406835 Z M132.84,90.2086835 L130.637,96.1256835 L126.317,94.6136835 C126.396,94.0416835 126.432,93.4636835 126.425,92.8866835 C126.422,92.7196835 126.407,92.5536835 126.382,92.3896835 C126.361,91.9236835 126.296,91.4606835 126.188,91.0076835 C126.162,90.8326835 126.126,90.6596835 126.08,90.4886835 C125.933,89.8786835 125.723,89.2856835 125.454,88.7176835 C124.679,87.1036835 123.505,85.7136835 122.043,84.6796835 C121.201,84.0416835 120.27,83.5326835 119.279,83.1676835 C119.104,83.1346835 118.931,83.0916835 118.761,83.0376835 C118.286,82.8926835 117.803,82.7766835 117.314,82.6926835 C117.076,82.6496835 116.838,82.6496835 116.579,82.6276835 C116.147,82.5846835 115.715,82.5626835 115.283,82.5626835 L114.571,82.6276835 C114.139,82.6706835 113.707,82.7356835 113.275,82.8216835 C113.059,82.8656835 112.843,82.9296835 112.605,82.9946835 C112.185,83.1096835 111.774,83.2536835 111.374,83.4266835 C111.18,83.5126835 110.966,83.5776835 110.772,83.6856835 C110.364,83.8876835 109.968,84.1116835 109.584,84.3556835 C109.433,84.4636835 109.26,84.5716835 109.109,84.6796835 C108.691,84.9826835 108.3,85.3226835 107.943,85.6946835 C107.829,85.7816835 107.721,85.8756835 107.619,85.9756835 C107.159,86.4666835 106.741,86.9936835 106.366,87.5516835 L89.626,81.6556835 C89.705,81.1046835 89.741,80.5486835 89.734,79.9926835 C89.734,79.7766835 89.712,79.5606835 89.691,79.3446835 C89.656,78.9386835 89.598,78.5346835 89.518,78.1356835 C89.475,77.9196835 89.432,77.7246835 89.388,77.5086835 C89.233,76.9486835 89.038,76.4006835 88.805,75.8676835 C88.797,75.8596835 88.791,75.8486835 88.787,75.8376835 C88.783,75.8266835 88.782,75.8146835 88.784,75.8026835 C88.393,74.9826835 87.892,74.2206835 87.296,73.5356835 C86.059,72.0226835 84.43,70.8786835 82.587,70.2306835 C81.934,70.0046835 81.262,69.8386835 80.579,69.7336835 C80.406,69.7126835 80.233,69.7126835 80.061,69.6906835 C79.566,69.6366835 79.068,69.6156835 78.57,69.6256835 C78.333,69.6256835 78.117,69.6696835 77.879,69.6906835 C77.45,69.7236835 77.024,69.7886835 76.605,69.8856835 C76.367,69.9286835 76.132,69.9936835 75.894,70.0576835 C75.506,70.1656835 75.117,70.3176835 74.728,70.4686835 C74.5,70.5486835 74.276,70.6426835 74.059,70.7496835 C73.673,70.9436835 73.298,71.1606835 72.936,71.3966835 C72.763,71.5266835 72.568,71.6346835 72.396,71.7646835 C71.99,72.0586835 71.607,72.3826835 71.251,72.7356835 C71.143,72.8436835 71.035,72.9306835 70.927,73.0386835 C70.468,73.5296835 70.049,74.0566835 69.674,74.6146835 L65.398,73.1246835 L66.845,69.2586835 L68.94,69.9936835 C69.646,70.2496835 70.392,70.3806835 71.143,70.3816835 C72.458,70.3626835 73.738,69.9546835 74.822,69.2096835 C75.905,68.4636835 76.744,67.4136835 77.231,66.1916835 C77.532,65.4156835 77.669,64.5856835 77.636,63.7526835 C77.602,62.9206835 77.398,62.1046835 77.037,61.3546835 C76.564,60.3416835 75.826,59.4756835 74.901,58.8486835 C77.503,57.4036835 80.495,56.8136835 83.451,57.1646835 C83.862,57.2176835 84.279,57.1516835 84.654,56.9756835 C85.029,56.7996835 85.346,56.5206835 85.568,56.1706835 L91.526,46.6686835 C93.333,43.5236835 96.186,41.1116835 99.587,39.8526835 C102.989,38.5936835 106.724,38.5676835 110.143,39.7786835 L118.542,42.7376835 C121.928,43.8986835 124.773,46.2546835 126.546,49.3636835 C128.319,52.4726835 128.897,56.1216835 128.173,59.6266835 L126.445,70.4896835 C126.379,70.9106835 126.439,71.3416835 126.615,71.7296835 C126.792,72.1166835 127.078,72.4446835 127.438,72.6716835 C130.246,74.5026835 132.324,77.2596835 133.31,80.4626835 C134.297,83.6666835 134.131,87.1146835 132.84,90.2086835 Z" id="Shape" fill="#200A52"></path>
            <path d="M95.067,68.0226835 C96.191,68.4196835 97.426,67.8296835 97.823,66.7046835 C98.219,65.5796835 97.628,64.3456835 96.503,63.9496835 C95.378,63.5526835 94.144,64.1426835 93.747,65.2676835 C93.35,66.3926835 93.942,67.6266835 95.067,68.0226835 Z" id="Path" fill="#200A52"></path>
            <path d="M117.493,75.9336835 C118.617,76.3296835 119.852,75.7396835 120.249,74.6146835 C120.645,73.4896835 120.054,72.2566835 118.929,71.8596835 C117.804,71.4626835 116.57,72.0526835 116.173,73.1776835 C115.776,74.3026835 116.368,75.5366835 117.493,75.9336835 Z" id="Path" fill="#200A52"></path>
            <path d="M101.898,68.1486835 L98.222,77.9346835 C97.803,79.0506835 98.368,80.2946835 99.484,80.7136835 C100.6,81.1336835 101.845,80.5686835 102.264,79.4526835 L105.94,69.6666835 C106.359,68.5506835 105.794,67.3066835 104.678,66.8876835 C103.562,66.4676835 102.318,67.0326835 101.898,68.1486835 Z" id="Path" fill="#200A52"></path>
            <path d="M15.116,82.0866835 C13.834,82.0866835 12.581,82.4666835 11.516,83.1786835 C10.45,83.8906835 9.62,84.9026835 9.13,86.0866835 C8.639,87.2706835 8.511,88.5736835 8.761,89.8296835 C9.011,91.0866835 9.628,92.2416835 10.534,93.1476835 C11.44,94.0536835 12.595,94.6706835 13.852,94.9206835 C15.108,95.1706835 16.411,95.0426835 17.595,94.5516835 C18.779,94.0616835 19.791,93.2316835 20.503,92.1656835 C21.215,91.1006835 21.595,89.8476835 21.595,88.5656835 C21.59,86.8496835 20.905,85.2046835 19.691,83.9906835 C18.477,82.7766835 16.832,82.0916835 15.116,82.0866835 Z M15.116,90.7256835 C14.688,90.7256835 14.271,90.5996835 13.916,90.3616835 C13.561,90.1246835 13.284,89.7876835 13.12,89.3926835 C12.957,88.9976835 12.914,88.5636835 12.997,88.1446835 C13.081,87.7256835 13.286,87.3406835 13.588,87.0386835 C13.89,86.7366835 14.275,86.5316835 14.694,86.4476835 C15.113,86.3646835 15.547,86.4076835 15.942,86.5706835 C16.337,86.7346835 16.674,87.0106835 16.911,87.3666835 C17.149,87.7216835 17.275,88.1386835 17.275,88.5656835 C17.275,89.1386835 17.048,89.6886835 16.643,90.0936835 C16.238,90.4986835 15.688,90.7256835 15.116,90.7256835 Z" id="Shape" fill="#44E0B7"></path>
            <path d="M58.312,79.9276835 C57.739,79.9276835 57.19,79.6996835 56.785,79.2946835 C56.38,78.8896835 56.152,78.3406835 56.152,77.7676835 C56.152,77.1946835 56.38,76.6456835 56.785,76.2406835 C57.19,75.8356835 57.739,75.6086835 58.312,75.6086835 C58.885,75.6086835 59.434,75.3806835 59.839,74.9756835 C60.244,74.5706835 60.472,74.0216835 60.472,73.4486835 L60.472,12.5876835 C61.592,12.1916835 62.582,11.4946835 63.334,10.5736835 C64.085,9.65168349 64.568,8.54168349 64.73,7.36468349 C64.893,6.18668349 64.728,4.98768349 64.255,3.89768349 C63.781,2.80768349 63.017,1.86868349 62.045,1.18368349 C61.074,0.498683488 59.933,0.0946834879 58.747,0.0146834879 C57.561,-0.0653165121 56.376,0.182683488 55.321,0.731683488 C54.267,1.27968349 53.384,2.10768349 52.769,3.12468349 C52.153,4.14168349 51.83,5.30868349 51.833,6.49768349 C51.835,7.46268349 52.056,8.41568349 52.481,9.28368349 L52.457,9.28368349 L1.274,60.4896835 L-6.39488462e-14,60.4896835 L-6.39488462e-14,64.8096835 L43.194,64.8096835 L43.194,77.7676835 L36.715,77.7676835 C35.522,77.7676835 34.555,78.7346835 34.555,79.9276835 C34.555,81.1206835 35.522,82.0876835 36.715,82.0876835 L42.803,82.0876835 C42.355,83.3456835 41.531,84.4356835 40.441,85.2086835 C39.352,85.9816835 38.051,86.3996835 36.715,86.4066835 L30.085,86.4066835 C30.063,86.2336835 30.02,86.0826835 29.998,85.9096835 C29.977,85.7376835 29.912,85.4996835 29.869,85.3056835 C29.804,85.0246835 29.739,84.7656835 29.653,84.4846835 C29.609,84.3116835 29.566,84.1176835 29.501,83.9226835 C29.415,83.6426835 29.309,83.3836835 29.201,83.1026835 L29.007,82.5836835 C28.877,82.2816835 28.726,82.0006835 28.575,81.6986835 C28.51,81.5906835 28.445,81.4606835 28.381,81.3316835 C28.164,80.9236835 27.926,80.5266835 27.668,80.1436835 C27.603,80.0446835 27.531,79.9506835 27.452,79.8626835 C27.258,79.5816835 27.063,79.3016835 26.826,79.0206835 C26.718,78.8906835 26.61,78.7616835 26.48,78.6316835 C26.286,78.4156835 26.113,78.1996835 25.897,77.9836835 C25.767,77.8546835 25.616,77.7246835 25.487,77.5946835 C25.292,77.4006835 25.098,77.2276835 24.882,77.0336835 C24.731,76.9036835 24.579,76.7956835 24.407,76.6666835 C24.234,76.5366835 23.996,76.3426835 23.78,76.1916835 C23.608,76.0836835 23.435,75.9536835 23.262,75.8456835 C23.046,75.7156835 22.83,75.5646835 22.593,75.4356835 C22.42,75.3486835 22.225,75.2406835 22.053,75.1546835 C21.815,75.0246835 21.577,74.9166835 21.34,74.8086835 C21.145,74.7226835 20.973,74.6366835 20.778,74.5496835 C20.519,74.4636835 20.26,74.3556835 20.001,74.2686835 C19.806,74.2046835 19.634,74.1396835 19.439,74.0746835 C19.159,74.0096835 18.878,73.9236835 18.597,73.8586835 L18.036,73.7296835 C17.735,73.6646835 17.411,73.6426835 17.087,73.5996835 C16.915,73.5776835 16.763,73.5346835 16.612,73.5136835 C16.111,73.4696835 15.613,73.4486835 15.118,73.4486835 C14.622,73.4486835 14.126,73.4696835 13.628,73.5136835 C13.476,73.5346835 13.325,73.5776835 13.152,73.5996835 C12.828,73.6426835 12.504,73.6646835 12.202,73.7296835 L11.641,73.8586835 C11.36,73.9236835 11.079,74.0096835 10.798,74.0746835 C10.604,74.1396835 10.431,74.2046835 10.237,74.2686835 C9.978,74.3556835 9.718,74.4636835 9.459,74.5496835 C9.265,74.6366835 9.092,74.7226835 8.898,74.8086835 C8.66,74.9166835 8.423,75.0246835 8.185,75.1546835 C8.012,75.2406835 7.818,75.3486835 7.645,75.4356835 C7.408,75.5646835 7.192,75.7156835 6.976,75.8456835 C6.803,75.9536835 6.63,76.0836835 6.457,76.1916835 C6.241,76.3426835 6.025,76.5156835 5.833,76.6666835 C5.641,76.8176835 5.509,76.9036835 5.358,77.0336835 C5.142,77.2276835 4.948,77.4006835 4.753,77.5946835 C4.624,77.7246835 4.472,77.8546835 4.343,77.9836835 C4.127,78.1996835 3.954,78.4156835 3.76,78.6316835 C3.63,78.7616835 3.522,78.8906835 3.414,79.0206835 C3.177,79.3016835 2.982,79.5816835 2.788,79.8626835 C2.709,79.9506835 2.637,80.0446835 2.572,80.1436835 C2.314,80.5266835 2.076,80.9236835 1.859,81.3316835 C1.794,81.4606835 1.73,81.5906835 1.665,81.6986835 C1.514,82.0006835 1.362,82.2816835 1.233,82.5836835 L1.039,83.1026835 C0.931,83.3836835 0.823,83.6426835 0.736,83.9226835 C0.671,84.1176835 0.628,84.3116835 0.585,84.4846835 C0.499,84.7656835 0.434,85.0246835 0.369,85.3056835 C0.326,85.4996835 0.283,85.7156835 0.239,85.9096835 C0.196,86.1046835 0.175,86.2336835 0.153,86.4066835 L-6.39488462e-14,86.4066835 L-6.39488462e-14,90.7266835 L0.172,90.7266835 C0.687,94.3226835 2.481,97.6126835 5.226,99.9916835 C7.971,102.371683 11.482,103.681683 15.114,103.681683 C18.747,103.681683 22.258,102.371683 25.003,99.9916835 C27.747,97.6126835 29.542,94.3226835 30.056,90.7266835 L36.715,90.7266835 C39.579,90.7266835 42.326,89.5886835 44.351,87.5636835 C46.376,85.5386835 47.514,82.7916835 47.514,79.9276835 L47.514,62.6496835 C47.514,62.0766835 47.286,61.5276835 46.881,61.1226835 C46.476,60.7176835 45.927,60.4896835 45.354,60.4896835 L31.827,60.4896835 L56.152,18.8076835 L56.152,71.6556835 C55.033,72.0516835 54.043,72.7476835 53.292,73.6676835 C52.541,74.5886835 52.058,75.6966835 51.894,76.8736835 C51.731,78.0496835 51.894,79.2486835 52.366,80.3386835 C52.838,81.4286835 53.6,82.3676835 54.57,83.0536835 C55.54,83.7396835 56.679,84.1456835 57.864,84.2276835 C59.049,84.3106835 60.233,84.0656835 61.288,83.5196835 C62.343,82.9736835 63.228,82.1486835 63.846,81.1346835 C64.086,80.7396835 64.283,80.3216835 64.433,79.8886835 C64.824,78.7616835 63.824,77.7676835 62.631,77.7676835 L62.168,77.7676835 C61.231,77.7676835 60.502,78.6326835 59.839,79.2946835 C59.434,79.6996835 58.885,79.9276835 58.312,79.9276835 Z M15.118,99.3646835 C12.982,99.3646835 10.894,98.7316835 9.118,97.5456835 C7.343,96.3586835 5.958,94.6716835 5.141,92.6986835 C4.324,90.7256835 4.11,88.5546835 4.527,86.4596835 C4.943,84.3646835 5.972,82.4406835 7.482,80.9306835 C8.992,79.4206835 10.916,78.3916835 13.011,77.9756835 C15.106,77.5586835 17.277,77.7726835 19.25,78.5896835 C21.223,79.4076835 22.91,80.7916835 24.096,82.5666835 C25.283,84.3426835 25.916,86.4306835 25.916,88.5666835 C25.916,89.9846835 25.637,91.3886835 25.094,92.6986835 C24.552,94.0086835 23.756,95.1996835 22.753,96.2026835 C21.751,97.2046835 20.56,98.0006835 19.25,98.5426835 C17.94,99.0856835 16.536,99.3646835 15.118,99.3646835 Z M26.843,60.4896835 L7.362,60.4896835 L54.068,13.7756835 L26.843,60.4896835 Z M58.312,4.33768349 C58.739,4.33768349 59.157,4.46368349 59.512,4.70168349 C59.867,4.93868349 60.144,5.27568349 60.307,5.67068349 C60.471,6.06568349 60.514,6.49968349 60.43,6.91868349 C60.347,7.33768349 60.141,7.72268349 59.839,8.02468349 C59.537,8.32668349 59.152,8.53168349 58.733,8.61568349 C58.314,8.69868349 57.88,8.65568349 57.486,8.49268349 C57.091,8.32868349 56.754,8.05268349 56.516,7.69668349 C56.279,7.34168349 56.152,6.92468349 56.152,6.49768349 C56.152,5.92468349 56.38,5.37468349 56.785,4.96968349 C57.19,4.56468349 57.739,4.33768349 58.312,4.33768349 Z" id="Shape" fill="#44E0B7"></path>
        </g>
    </g>
</svg>