<?xml version="1.0" encoding="UTF-8"?>
<svg width="114px" height="114px" viewBox="0 0 114 114" version="1.1" xmlns="http://www.w3.org/2000/svg" xmlns:xlink="http://www.w3.org/1999/xlink">
    <title>v-icon-03</title>
    <g id="Page-3" stroke="none" stroke-width="1" fill="none" fill-rule="evenodd">
        <g id="v-icon-03" transform="translate(-0.001441, 0.000000)" fill-rule="nonzero">
            <path d="M27.7614406,14.25 L23.1614406,18.856 C22.4614406,19.552 22.4614406,20.68 23.1614406,21.375 C23.8514406,22.071 24.9814406,22.071 25.6814406,21.375 L30.2814406,16.769 C30.9814406,16.073 30.9814406,14.946 30.2814406,14.25 C29.5914406,13.554 28.4614406,13.554 27.7614406,14.25 Z" id="Path" fill="#44E0B7"></path>
            <path d="M34.2114406,19.963 L33.4714406,19.225 C32.9814406,18.733 32.1914406,18.733 31.6914406,19.225 C31.2014406,19.717 31.2014406,20.514 31.6914406,21.006 L32.4314406,21.744 C32.9214406,22.236 33.7214406,22.236 34.2114406,21.744 C34.7014406,21.252 34.7014406,20.455 34.2114406,19.963 Z" id="Path" fill="#44E0B7"></path>
            <path d="M36.6714406,14.25 L35.6314406,15.293 C34.9314406,15.988 34.9314406,17.116 35.6314406,17.812 C36.3214406,18.507 37.4514406,18.507 38.1414406,17.812 L39.1914406,16.769 C39.8814406,16.073 39.8814406,14.945 39.1914406,14.25 C38.4914406,13.554 37.3614406,13.554 36.6714406,14.25 Z" id="Path" fill="#44E0B7"></path>
            <path d="M7.12144057,40.969 C7.12144057,42.73 7.65144057,44.452 8.63144057,45.917 C9.60144057,47.381 11.0014406,48.523 12.6214406,49.197 C14.2514406,49.871 16.0414406,50.048 17.7714406,49.704 C19.5014406,49.36 21.0814406,48.512 22.3314406,47.266 C23.5714406,46.021 24.4214406,44.434 24.7714406,42.706 C25.1114406,40.979 24.9314406,39.188 24.2614406,37.56 C23.5914406,35.933 22.4414406,34.542 20.9814406,33.563 C19.5114406,32.585 17.7914406,32.062 16.0314406,32.062 C13.6714406,32.065 11.4114406,33.005 9.74144057,34.674 C8.07144057,36.344 7.13144057,38.608 7.12144057,40.969 Z M21.3814406,40.969 C21.3814406,42.026 21.0614406,43.059 20.4714406,43.938 C19.8914406,44.816 19.0514406,45.501 18.0814406,45.906 C17.1014406,46.31 16.0314406,46.416 14.9914406,46.21 C13.9514406,46.004 13.0014406,45.495 12.2514406,44.747 C11.5114406,44 11.0014406,43.048 10.7914406,42.011 C10.5814406,40.975 10.6914406,39.9 11.0914406,38.924 C11.5014406,37.947 12.1814406,37.113 13.0614406,36.526 C13.9414406,35.938 14.9714406,35.625 16.0314406,35.625 C17.4514406,35.625 18.8114406,36.188 19.8114406,37.19 C20.8114406,38.192 21.3814406,39.551 21.3814406,40.969 Z" id="Shape" fill="#44E0B7"></path>
            <path d="M48.0914406,49.875 C49.8614406,49.875 51.5814406,49.353 53.0414406,48.374 C54.5114406,47.395 55.6514406,46.004 56.3214406,44.377 C57.0014406,42.75 57.1714406,40.959 56.8314406,39.231 C56.4914406,37.504 55.6414406,35.917 54.3914406,34.671 C53.1514406,33.426 51.5614406,32.577 49.8314406,32.234 C48.1014406,31.89 46.3114406,32.066 44.6914406,32.74 C43.0614406,33.415 41.6714406,34.556 40.6914406,36.021 C39.7114406,37.485 39.1914406,39.207 39.1914406,40.969 C39.1914406,43.33 40.1314406,45.594 41.8014406,47.263 C43.4714406,48.933 45.7314406,49.872 48.0914406,49.875 Z M48.0914406,35.625 C49.1514406,35.625 50.1814406,35.938 51.0614406,36.526 C51.9414406,37.113 52.6314406,37.947 53.0314406,38.924 C53.4414406,39.9 53.5414406,40.975 53.3314406,42.011 C53.1314406,43.048 52.6214406,44 51.8714406,44.747 C51.1314406,45.495 50.1714406,46.004 49.1414406,46.21 C48.1014406,46.416 47.0314406,46.31 46.0514406,45.906 C45.0714406,45.501 44.2414406,44.816 43.6514406,43.938 C43.0614406,43.059 42.7514406,42.026 42.7514406,40.969 C42.7514406,39.552 43.3114406,38.192 44.3214406,37.19 C45.3214406,36.188 46.6814406,35.625 48.0914406,35.625 Z" id="Shape" fill="#44E0B7"></path>
            <path d="M33.8414406,35.625 L30.2814406,35.625 C29.3014406,35.625 28.5014406,36.422 28.5014406,37.406 C28.5014406,38.39 29.3014406,39.188 30.2814406,39.188 L33.8414406,39.188 C34.8314406,39.188 35.6214406,38.39 35.6214406,37.406 C35.6214406,36.422 34.8314406,35.625 33.8414406,35.625 Z" id="Path" fill="#44E0B7"></path>
            <path d="M33.8414406,42.75 L30.2814406,42.75 C29.3014406,42.75 28.5014406,43.547 28.5014406,44.531 C28.5014406,45.515 29.3014406,46.312 30.2814406,46.312 L33.8414406,46.312 C34.8314406,46.312 35.6214406,45.515 35.6214406,44.531 C35.6214406,43.547 34.8314406,42.75 33.8414406,42.75 Z" id="Path" fill="#44E0B7"></path>
            <path d="M49.4714406,27.852 C49.6314406,27.649 49.7514406,27.412 49.8214406,27.157 C49.8814406,26.902 49.8914406,26.636 49.8414406,26.379 L47.9114406,16.53 C47.3814406,11.168 43.5814406,7.125 39.0814406,7.125 L25.0514406,7.125 C20.5414406,7.125 16.7414406,11.168 16.2314406,16.368 L14.2814406,26.379 C14.2314406,26.636 14.2414406,26.902 14.3014406,27.157 C14.3714406,27.411 14.4914406,27.648 14.6614406,27.851 C14.8214406,28.054 15.0314406,28.217 15.2714406,28.329 C15.5114406,28.442 15.7714406,28.5 16.0314406,28.5 L48.0914406,28.5 C48.3614406,28.5 48.6114406,28.442 48.8514406,28.33 C49.0914406,28.217 49.3014406,28.054 49.4714406,27.852 Z M18.1914406,24.938 L19.7514406,16.884 C20.1014406,13.359 22.3814406,10.688 25.0514406,10.688 L39.0814406,10.688 C41.7514406,10.688 44.0214406,13.359 44.4014406,17.048 L45.9314406,24.938 L18.1914406,24.938 Z" id="Shape" fill="#44E0B7"></path>
            <path d="M53.4414406,56.065 C56.5614406,54.959 59.2614406,52.914 61.1814406,50.212 C63.0914406,47.509 64.1214406,44.28 64.1314406,40.969 L60.5614406,40.969 C60.5614406,44.275 59.2414406,47.444 56.9114406,49.781 C54.5714406,52.119 51.4014406,53.434 48.0914406,53.438 L16.0314406,53.438 C13.2714406,53.44 10.5814406,52.523 8.39144057,50.831 C6.20144057,49.138 4.64144057,46.766 3.95144057,44.088 C3.26144057,41.41 3.47144057,38.578 4.57144057,36.038 C5.66144057,33.497 7.57144057,31.393 9.99144057,30.055 C10.2314406,29.918 10.4414406,29.726 10.5914406,29.494 C10.7514406,29.262 10.8514406,28.997 10.8814406,28.721 L12.6614406,14.487 C13.0414406,11.471 14.5114406,8.697 16.7914406,6.686 C19.0714406,4.675 22.0014406,3.565 25.0414406,3.562 L39.0814406,3.562 C42.1214406,3.566 45.0514406,4.678 47.3314406,6.689 C49.6114406,8.701 51.0814406,11.474 51.4614406,14.489 L53.2414406,28.721 C53.2714406,28.997 53.3714406,29.262 53.5214406,29.494 C53.6814406,29.726 53.8914406,29.918 54.1314406,30.055 C54.9114406,30.495 55.6514406,31.018 56.3314406,31.615 L58.6914406,28.944 C58.0514406,28.382 57.3714406,27.871 56.6614406,27.415 L56.5814406,26.719 L57.0014406,26.719 C57.9814406,26.719 58.7814406,25.921 58.7814406,24.938 C58.7814406,23.954 57.9814406,23.156 57.0014406,23.156 L56.1314406,23.156 L55.6914406,19.594 L57.0014406,19.594 C57.9814406,19.594 58.7814406,18.796 58.7814406,17.812 C58.7814406,16.829 57.9814406,16.031 57.0014406,16.031 L55.2414406,16.031 L54.9914406,14.047 C54.5014406,10.171 52.6214406,6.605 49.6914406,4.019 C46.7614406,1.434 42.9914406,0.004 39.0814406,5.68434189e-14 L25.0414406,5.68434189e-14 C21.1414406,0.004 17.3714406,1.433 14.4414406,4.019 C11.5114406,6.604 9.62144057,10.169 9.13144057,14.045 L8.88144057,16.031 L5.34144057,16.031 C4.65144057,16.026 3.95144057,16.161 3.31144057,16.429 C2.66144057,16.696 2.08144057,17.09 1.59144057,17.588 C1.08144057,18.08 0.681440569,18.669 0.411440569,19.319 C0.141440569,19.97 0.00144056871,20.669 0.00144056871,21.375 C0.00144056871,22.792 0.561440569,24.151 1.57144057,25.154 C2.57144057,26.156 3.93144057,26.719 5.34144057,26.719 L7.55144057,26.719 L7.46144057,27.417 C4.92144057,29.024 2.88144057,31.315 1.58144057,34.027 C0.281440569,36.739 -0.238559431,39.763 0.101440569,42.752 C0.441440569,45.741 1.61144057,48.575 3.48144057,50.929 C5.35144057,53.284 7.85144057,55.063 10.6914406,56.065 L10.6914406,62.344 C10.6914406,63.761 11.2514406,65.12 12.2514406,66.122 C13.2514406,67.124 14.6114406,67.688 16.0314406,67.688 C17.4514406,67.688 18.8114406,67.124 19.8114406,66.122 C20.8114406,65.12 21.3814406,63.761 21.3814406,62.344 L21.3814406,57 L42.7514406,57 L42.7514406,62.344 C42.7514406,63.761 43.3114406,65.12 44.3214406,66.122 C45.3214406,67.124 46.6814406,67.688 48.0914406,67.688 C49.5114406,67.688 50.8714406,67.124 51.8714406,66.122 C52.8714406,65.12 53.4414406,63.761 53.4414406,62.344 L53.4414406,56.065 Z M3.56144057,21.375 C3.56144057,21.138 3.61144057,20.902 3.70144057,20.684 C3.80144057,20.466 3.93144057,20.27 4.11144057,20.107 C4.27144057,19.942 4.46144057,19.812 4.67144057,19.724 C4.89144057,19.636 5.11144057,19.591 5.34144057,19.594 L8.44144057,19.594 L7.99144057,23.156 L5.34144057,23.156 C4.87144057,23.156 4.42144057,22.969 4.08144057,22.635 C3.75144057,22.3 3.56144057,21.847 3.56144057,21.375 Z M17.8114406,62.344 C17.8114406,62.816 17.6214406,63.269 17.2914406,63.603 C16.9614406,63.937 16.5014406,64.125 16.0314406,64.125 C15.5614406,64.125 15.1114406,63.937 14.7714406,63.603 C14.4414406,63.269 14.2514406,62.816 14.2514406,62.344 L14.2514406,57 L17.8114406,57 L17.8114406,62.344 Z M49.8814406,62.344 C49.8814406,62.816 49.6914406,63.269 49.3514406,63.603 C49.0214406,63.937 48.5714406,64.125 48.0914406,64.125 C47.6214406,64.125 47.1714406,63.937 46.8314406,63.603 C46.5014406,63.269 46.3114406,62.816 46.3114406,62.344 L46.3114406,57 L49.8814406,57 L49.8814406,62.344 Z" id="Shape" fill="#44E0B7"></path>
            <path d="M97.9714406,53.437 L90.8414406,53.437 L90.8414406,44.62 C93.5114406,43.295 95.7614406,41.251 97.3414406,38.718 C98.9114406,36.185 99.7514406,33.263 99.7514406,30.281 L99.7514406,28.5 L101.531441,28.5 C102.951441,28.5 104.311441,27.937 105.311441,26.935 C106.311441,25.933 106.881441,24.573 106.881441,23.156 L106.881441,19.594 C106.881441,18.176 106.311441,16.817 105.311441,15.815 C104.311441,14.813 102.951441,14.25 101.531441,14.25 L99.6414406,14.25 C99.2014406,10.341 97.3214406,6.735 94.3914406,4.116 C91.4514406,1.498 87.6514406,0.051 83.7214406,0.051 C79.7814406,0.051 75.9914406,1.498 73.0514406,4.116 C70.1114406,6.735 68.2414406,10.341 67.7914406,14.25 L65.9114406,14.25 C64.4914406,14.25 63.1314406,14.813 62.1314406,15.815 C61.1314406,16.817 60.5614406,18.176 60.5614406,19.594 L60.5614406,30.281 C60.5714406,32.642 61.5014406,34.906 63.1714406,36.576 C64.8414406,38.245 67.1114406,39.185 69.4714406,39.187 L70.4014406,39.187 C71.9614406,41.504 74.0914406,43.376 76.5914406,44.62 L76.5914406,53.437 L69.4714406,53.437 C65.2214406,53.442 61.1414406,55.133 58.1414406,58.138 C55.1314406,61.143 53.4414406,65.218 53.4414406,69.469 L53.4414406,112.219 C53.4414406,112.691 53.6314406,113.144 53.9614406,113.478 C54.2914406,113.812 54.7514406,114 55.2214406,114 L112.221441,114 C112.691441,114 113.141441,113.812 113.481441,113.478 C113.811441,113.144 114.001441,112.691 114.001441,112.219 L114.001441,69.469 C114.001441,65.218 112.301441,61.143 109.301441,58.138 C106.291441,55.133 102.221441,53.442 97.9714406,53.437 Z M78.3814406,57 L90.1114406,57 L83.7214406,63.387 L77.3314406,57 L78.3814406,57 Z M103.311441,19.594 L103.311441,23.156 C103.311441,23.629 103.121441,24.082 102.791441,24.416 C102.461441,24.75 102.001441,24.937 101.531441,24.937 L99.7514406,24.937 L99.7514406,17.812 L101.531441,17.812 C102.001441,17.812 102.461441,18 102.791441,18.334 C103.121441,18.668 103.311441,19.121 103.311441,19.594 Z M83.7214406,3.562 C86.7214406,3.566 89.6114406,4.648 91.8814406,6.61 C94.1414406,8.572 95.6314406,11.284 96.0614406,14.25 L71.3814406,14.25 C71.8114406,11.284 73.2914406,8.572 75.5614406,6.61 C77.8314406,4.648 80.7214406,3.566 83.7214406,3.562 Z M64.1214406,19.594 C64.1214406,19.121 64.3114406,18.668 64.6514406,18.334 C64.9814406,18 65.4314406,17.812 65.9114406,17.812 L67.6914406,17.812 L67.6914406,24.937 L65.9114406,24.937 C65.4314406,24.937 64.9814406,24.75 64.6514406,24.416 C64.3114406,24.082 64.1214406,23.629 64.1214406,23.156 L64.1214406,19.594 Z M64.1214406,30.281 L64.1214406,28.172 C64.7014406,28.383 65.3014406,28.494 65.9114406,28.5 L67.6914406,28.5 L67.6914406,30.281 C67.6914406,32.071 68.0014406,33.848 68.5914406,35.536 C67.3514406,35.328 66.2114406,34.687 65.4014406,33.725 C64.5814406,32.763 64.1314406,31.543 64.1214406,30.281 Z M72.4714406,35.625 C71.6714406,33.957 71.2514406,32.131 71.2514406,30.281 L71.2514406,17.812 L96.1914406,17.812 L96.1914406,30.281 C96.1914406,32.735 95.4714406,35.136 94.1114406,37.18 C92.7514406,39.225 90.8214406,40.824 88.5614406,41.775 C86.3014406,42.726 83.8014406,42.988 81.3914406,42.528 C78.9814406,42.068 76.7614406,40.905 75.0114406,39.187 L81.9414406,39.187 C82.9214406,39.187 83.7214406,38.39 83.7214406,37.406 C83.7214406,36.422 82.9214406,35.625 81.9414406,35.625 L72.4714406,35.625 Z M80.1614406,46.312 L87.2814406,46.312 L87.2814406,53.437 L80.1614406,53.437 L80.1614406,46.312 Z M110.441441,110.437 L103.311441,110.437 L103.311441,74.812 L99.7514406,74.812 L99.7514406,110.437 L67.6914406,110.437 L67.6914406,74.812 L64.1214406,74.812 L64.1214406,110.437 L57.0014406,110.437 L57.0014406,69.469 C57.0014406,66.163 58.3214406,62.994 60.6614406,60.656 C62.9914406,58.319 66.1614406,57.004 69.4714406,57 L72.2914406,57 L82.4614406,67.165 C82.7914406,67.499 83.2514406,67.687 83.7214406,67.687 C84.1914406,67.687 84.6414406,67.499 84.9814406,67.165 L95.1414406,57 L97.9714406,57 C101.271441,57.004 104.441441,58.319 106.781441,60.656 C109.121441,62.994 110.431441,66.163 110.441441,69.469 L110.441441,110.437 Z" id="Shape" fill="#200A52"></path>
            <path d="M94.4114406,74.812 L89.0614406,74.812 C88.0814406,74.812 87.2814406,75.61 87.2814406,76.594 C87.2814406,77.578 88.0814406,78.375 89.0614406,78.375 L94.4114406,78.375 C95.3914406,78.375 96.1914406,77.578 96.1914406,76.594 C96.1914406,75.61 95.3914406,74.812 94.4114406,74.812 Z" id="Path" fill="#200A52"></path>
        </g>
    </g>
</svg>