<?xml version="1.0" encoding="UTF-8"?>
<svg width="114px" height="114px" viewBox="0 0 114 114" version="1.1" xmlns="http://www.w3.org/2000/svg" xmlns:xlink="http://www.w3.org/1999/xlink">
    <title>v-icon-05</title>
    <g id="Page-3" stroke="none" stroke-width="1" fill="none" fill-rule="evenodd">
        <g id="v-icon-05" fill-rule="nonzero">
            <g id="Group">
                <path d="M108.656,74.813 L103.776,74.813 C103.038,73.599 102.185,72.46 101.228,71.411 C101.884,70.83 102.409,70.117 102.768,69.319 C103.127,68.52 103.313,67.655 103.312,66.779 L103.312,59.69 C103.319,58.459 102.956,57.253 102.27,56.231 C101.584,55.208 100.607,54.415 99.465,53.954 C98.31,53.453 97.03,53.309 95.792,53.541 C94.554,53.773 93.414,54.369 92.518,55.255 C91.314,54.089 89.705,53.438 88.029,53.438 C86.354,53.438 84.744,54.089 83.541,55.255 L77.947,60.705 C76.807,60.598 75.792,60.563 74.812,60.563 C57.891,60.563 44.015,70.787 42.839,83.719 L33.844,83.719 C33.371,83.719 32.918,83.531 32.584,83.197 C32.25,82.863 32.062,82.41 32.062,81.938 L32.062,80.157 C32.062,79.684 32.25,79.231 32.584,78.897 C32.918,78.563 33.371,78.375 33.844,78.375 C34.828,78.375 35.625,77.578 35.625,76.594 C35.625,75.61 34.828,74.813 33.844,74.813 C32.428,74.817 31.071,75.381 30.07,76.383 C29.069,77.384 28.504,78.741 28.5,80.157 L28.5,81.938 C28.504,83.354 29.069,84.71 30.07,85.712 C31.071,86.713 32.428,87.277 33.844,87.282 L42.839,87.282 C43.516,94.977 48.699,101.906 57,106.216 L57,108.657 C57.004,110.072 57.569,111.429 58.57,112.43 C59.571,113.432 60.928,113.996 62.344,114 L65.906,114 C67.045,113.998 68.154,113.633 69.07,112.957 C69.986,112.281 70.663,111.329 71.001,110.242 C73.535,110.497 76.089,110.503 78.624,110.26 C78.967,111.343 79.646,112.289 80.561,112.961 C81.477,113.633 82.583,113.997 83.719,114 L87.281,114 C88.697,113.996 90.054,113.432 91.055,112.43 C92.056,111.429 92.621,110.072 92.625,108.657 L92.625,106.234 C97.198,103.972 101.061,100.496 103.793,96.188 L108.656,96.188 C110.072,96.184 111.429,95.619 112.43,94.618 C113.431,93.617 113.996,92.26 114,90.844 L114,80.157 C113.996,78.741 113.431,77.384 112.43,76.383 C111.429,75.381 110.072,74.817 108.656,74.813 Z M94.994,57.802 C95.392,57.411 95.899,57.147 96.448,57.046 C96.997,56.944 97.564,57.009 98.076,57.232 C98.572,57.423 98.998,57.76 99.297,58.199 C99.596,58.638 99.754,59.159 99.75,59.69 L99.75,66.779 C99.747,67.189 99.649,67.591 99.463,67.956 C99.278,68.321 99.01,68.638 98.681,68.881 C97.353,67.721 95.922,66.684 94.406,65.782 L94.406,59.69 C94.41,59.289 94.368,58.888 94.282,58.497 L94.994,57.802 Z M110.438,90.844 C110.438,91.316 110.25,91.77 109.916,92.104 C109.582,92.438 109.129,92.625 108.656,92.625 L102.76,92.625 C102.441,92.628 102.127,92.715 101.852,92.877 C101.577,93.04 101.349,93.273 101.193,93.552 C98.611,97.948 94.727,101.434 90.078,103.527 C89.772,103.668 89.514,103.894 89.334,104.178 C89.154,104.463 89.06,104.793 89.062,105.13 L89.062,108.657 C89.062,109.129 88.875,109.582 88.541,109.916 C88.207,110.25 87.754,110.438 87.281,110.438 L83.719,110.438 C83.246,110.438 82.793,110.25 82.459,109.916 C82.125,109.582 81.938,109.129 81.938,108.657 L81.938,108.282 C81.939,108.029 81.886,107.779 81.782,107.548 C81.677,107.317 81.524,107.112 81.332,106.947 C81.005,106.663 80.589,106.505 80.156,106.501 C80.073,106.499 79.989,106.505 79.907,106.519 C76.527,107.003 73.096,106.997 69.718,106.501 C69.464,106.471 69.206,106.494 68.961,106.567 C68.716,106.641 68.489,106.764 68.293,106.929 C68.101,107.098 67.947,107.306 67.843,107.54 C67.738,107.773 67.685,108.027 67.688,108.282 L67.688,108.657 C67.688,109.129 67.5,109.582 67.166,109.916 C66.832,110.25 66.379,110.438 65.906,110.438 L62.344,110.438 C61.871,110.438 61.418,110.25 61.084,109.916 C60.75,109.582 60.562,109.129 60.562,108.657 L60.562,105.112 C60.562,104.776 60.466,104.447 60.286,104.164 C60.106,103.88 59.85,103.653 59.547,103.509 C51.264,99.537 46.312,92.803 46.312,85.5 C46.312,73.815 58.852,64.286 74.385,64.143 L70.235,68.187 L68.4,69.968 L70.876,72.533 L72.711,70.752 L79.907,63.769 L80.049,63.627 L86.017,57.82 C86.425,57.421 86.943,57.153 87.504,57.048 C88.065,56.944 88.645,57.008 89.169,57.232 C89.465,57.355 89.737,57.53 89.971,57.748 C90.248,57.99 90.469,58.289 90.62,58.624 C90.77,58.959 90.847,59.323 90.844,59.69 L90.844,66.797 C90.844,66.971 90.826,67.144 90.79,67.314 C90.644,67.933 90.29,68.485 89.788,68.876 C89.287,69.268 88.666,69.477 88.029,69.469 L87.281,69.469 L87.281,73.032 L88.029,73.032 C89.203,73.034 90.354,72.714 91.359,72.108 C92.364,71.502 93.184,70.633 93.729,69.594 C95.214,70.556 96.582,71.685 97.808,72.96 C99.14,74.292 100.279,75.802 101.193,77.449 C101.344,77.729 101.567,77.962 101.84,78.126 C102.113,78.289 102.425,78.375 102.743,78.375 L108.656,78.375 C109.129,78.375 109.582,78.563 109.916,78.897 C110.25,79.231 110.438,79.684 110.438,80.157 L110.438,90.844 Z" id="Shape" fill="#44E0B7"></path>
                <path d="M78.535,18.133 L65.746,5.183 C65.241,4.671 64.639,4.265 63.975,3.986 C63.312,3.708 62.6,3.564 61.881,3.562 L26.719,3.562 L26.719,1.781 C26.719,1.309 26.531,0.856 26.197,0.522 C25.863,0.188 25.41,0 24.938,0 L0,0 L0,3.562 L14.25,3.562 L14.25,24.938 L0,24.938 L0,28.5 L24.938,28.5 C25.41,28.5 25.863,28.312 26.197,27.978 C26.531,27.644 26.719,27.191 26.719,26.719 L26.719,24.938 L31.332,24.938 L37.371,30.976 C35.085,33.805 33.84,37.332 33.844,40.969 C33.844,45.221 35.533,49.298 38.539,52.305 C41.546,55.311 45.623,57 49.875,57 C54.127,57 58.204,55.311 61.211,52.305 C64.217,49.298 65.906,45.221 65.906,40.969 C65.91,39.648 65.748,38.331 65.425,37.05 C66.807,36.999 68.118,36.426 69.095,35.447 L78.535,25.864 C79.547,24.832 80.114,23.444 80.114,21.998 C80.114,20.553 79.547,19.165 78.535,18.133 Z M23.156,24.938 L17.813,24.938 L17.813,3.562 L23.156,3.562 L23.156,24.938 Z M49.875,53.4380047 C47.56,53.44 45.29,52.798 43.32,51.583 C41.35,50.367 39.758,48.627 38.722,46.557 C37.686,44.487 37.248,42.169 37.456,39.864 C37.664,37.558 38.51,35.356 39.9,33.505 L40.755,34.36 C41.315,34.92 41.998,35.341 42.75,35.589 L42.75,40.969 C42.75,41.441 42.938,41.894 43.272,42.228 C43.606,42.562 44.059,42.75 44.531,42.75 L48.094,42.75 L48.094,46.312 L46.313,46.312 C46.313,45.329 45.515,44.531 44.531,44.531 C43.547,44.531 42.75,45.329 42.75,46.312 L42.75,48.094 C42.75,48.566 42.938,49.019 43.272,49.353 C43.606,49.687 44.059,49.875 44.531,49.875 L48.094,49.875 C48.094,50.859 48.891,51.656 49.875,51.656 C50.859,51.656 51.656,50.859 51.656,49.875 L55.219,49.875 C55.691,49.875 56.144,49.687 56.478,49.353 C56.812,49.019 57,48.566 57,48.094 L57,40.969 C57,40.496 56.812,40.043 56.478,39.709 C56.144,39.375 55.691,39.188 55.219,39.188 L51.656,39.188 L51.656,35.625 L53.438,35.625 C53.438,36.609 54.235,37.406 55.219,37.406 C56.203,37.406 57,36.609 57,35.625 L57,33.844 C57,33.371 56.812,32.918 56.478,32.584 C56.144,32.25 55.691,32.062 55.219,32.062 L51.656,32.062 L51.656,31.76 C51.656,30.943 50.994,30.281 50.178,30.281 C50.176,29.675 50.073,29.073 49.875,28.5 C51.918,28.504 53.929,29.008 55.733,29.968 C57.536,30.927 59.078,32.313 60.224,34.004 L60.384,34.271 C61.668,36.269 62.348,38.594 62.3440175,40.969 C62.34,44.275 61.025,47.444 58.688,49.781 C56.35,52.119 53.181,53.434 49.875,53.4380047 Z M48.094,35.625 L48.094,39.188 L46.313,39.188 L46.313,35.625 L48.094,35.625 Z M47.257,25.151 L44.531,22.426 L44.531,17.812 L61.649,17.812 L66.316,22.07 L61.079,27.396 C60.703,27.774 60.385,28.206 60.135,28.678 C58.37,27.196 56.305,26.114 54.082,25.505 C51.859,24.896 49.531,24.775 47.257,25.151 Z M51.656,46.312 L51.656,42.75 L53.438,42.75 L53.438,46.312 L51.656,46.312 Z M75.988,23.37 L66.548,32.935 C66.198,33.278 65.728,33.47 65.238,33.47 C64.749,33.47 64.279,33.278 63.929,32.935 L63.608,32.632 C63.516,32.534 63.432,32.426 63.359,32.312 C63.118,31.94 63.012,31.497 63.057,31.057 C63.103,30.616 63.297,30.204 63.608,29.889 L70.163,23.245 C70.331,23.077 70.461,22.877 70.547,22.656 C70.633,22.435 70.672,22.199 70.662,21.963 C70.661,21.721 70.609,21.483 70.511,21.262 C70.413,21.041 70.27,20.843 70.092,20.68 L63.537,14.713 C63.213,14.412 62.786,14.246 62.344,14.25 L42.75,14.25 C42.278,14.25 41.825,14.438 41.49,14.772 C41.156,15.106 40.969,15.559 40.969,16.031 L40.969,23.156 C40.972,23.628 41.157,24.081 41.485,24.421 L43.391,26.309 L46.099,29.017 C46.117,29.034 46.134,29.052 46.134,29.07 C46.451,29.407 46.624,29.853 46.617,30.315 C46.611,30.777 46.425,31.218 46.099,31.546 L45.796,31.849 C45.716,31.931 45.626,32.002 45.529,32.062 L44.531,32.062 C44.293,32.063 44.056,32.112 43.837,32.205 C43.622,32.132 43.426,32.01 43.267,31.849 L42.412,30.994 L39.882,28.447 L33.327,21.892 C32.988,21.563 32.535,21.379 32.063,21.375 L26.719,21.375 L26.719,7.125 L61.881,7.125 C62.129,7.125 62.374,7.173 62.604,7.268 C62.833,7.363 63.041,7.502 63.217,7.677 L75.988,20.627 C76.347,20.993 76.548,21.486 76.548,21.998 C76.548,22.511 76.347,23.004 75.988,23.37 Z" id="Shape" fill="#200A52"></path>
                <path d="M97.969,81.938 L96.188,81.938 C95.204,81.938 94.406,82.735 94.406,83.719 C94.406,84.703 95.204,85.5 96.187,85.5 L97.969,85.5 C98.953,85.5 99.75,84.703 99.75,83.719 C99.75,82.735 98.953,81.938 97.969,81.938 Z" id="Path" fill="#44E0B7"></path>
                <path d="M83.452,89.223 C83.632,88.591 83.722,87.938 83.719,87.281 C83.719,85.392 82.969,83.579 81.633,82.243 C80.296,80.907 78.484,80.156 76.594,80.156 C74.705,80.156 72.893,80.907 71.556,82.243 C70.22,83.579 69.469,85.392 69.469,87.281 C69.467,87.938 69.557,88.591 69.737,89.223 C68.635,89.461 67.606,89.957 66.733,90.67 C65.861,91.383 65.17,92.294 64.717,93.326 C64.264,94.358 64.063,95.483 64.13,96.608 C64.196,97.733 64.529,98.826 65.1,99.797 C65.671,100.769 66.464,101.591 67.415,102.197 C68.365,102.802 69.446,103.173 70.568,103.28 C71.69,103.387 72.821,103.226 73.869,102.81 C74.916,102.395 75.851,101.737 76.594,100.89 C77.338,101.737 78.272,102.395 79.32,102.81 C80.368,103.226 81.499,103.387 82.621,103.28 C83.743,103.173 84.824,102.802 85.774,102.197 C86.725,101.591 87.518,100.769 88.089,99.797 C88.66,98.826 88.993,97.733 89.059,96.608 C89.126,95.483 88.925,94.358 88.472,93.326 C88.019,92.294 87.328,91.383 86.456,90.67 C85.583,89.957 84.554,89.461 83.452,89.223 Z M71.251,99.75 C70.306,99.75 69.4,99.375 68.732,98.707 C68.064,98.038 67.688,97.132 67.688,96.188 C67.688,95.243 68.064,94.337 68.732,93.668 C69.4,93 70.306,92.625 71.251,92.625 C71.49,92.621 71.729,92.645 71.963,92.696 L71.981,92.696 C72.569,93.201 73.237,93.604 73.958,93.89 C74.51,94.528 74.813,95.344 74.813,96.188 C74.81,97.131 74.434,98.036 73.767,98.703 C73.099,99.371 72.195,99.747 71.251,99.75 Z M77.307,90.772 C76.837,90.867 76.352,90.867 75.882,90.772 L75.864,90.772 C75.276,90.268 74.608,89.864 73.887,89.579 C73.336,88.94 73.032,88.125 73.032,87.281 C73.032,86.336 73.407,85.43 74.075,84.762 C74.743,84.094 75.65,83.719 76.594,83.719 C77.539,83.719 78.445,84.094 79.114,84.762 C79.782,85.43 80.157,86.336 80.157,87.281 C80.157,88.125 79.853,88.94 79.302,89.579 C78.581,89.864 77.913,90.268 77.325,90.772 L77.307,90.772 Z M81.938,99.75 C80.994,99.747 80.09,99.371 79.422,98.703 C78.755,98.036 78.379,97.131 78.376,96.188 C78.376,95.344 78.679,94.528 79.231,93.89 C79.952,93.604 80.62,93.201 81.208,92.696 L81.226,92.696 C81.46,92.645 81.699,92.621 81.938,92.625 C82.883,92.625 83.789,93 84.457,93.668 C85.125,94.337 85.501,95.243 85.501,96.188 C85.501,97.132 85.125,98.038 84.457,98.707 C83.789,99.375 82.883,99.75 81.938,99.75 Z" id="Shape" fill="#44E0B7"></path>
            </g>
        </g>
    </g>
</svg>