<?xml version="1.0" encoding="UTF-8"?>
<svg width="45px" height="34px" viewBox="0 0 45 34" version="1.1" xmlns="http://www.w3.org/2000/svg" xmlns:xlink="http://www.w3.org/1999/xlink">
    <title>quote-left-icon</title>
    <g id="Page-2" stroke="none" stroke-width="1" fill="none" fill-rule="evenodd">
        <g id="quote-left-icon" fill="#44E0B7" fill-rule="nonzero">
            <path d="M9.63211,33.4627 C6.92308,33.4627 4.61539,32.5782 2.70903,30.8092 C0.90301,28.9419 0,26.6814 0,24.0279 C0,22.4554 0.301004,20.932 0.903011,19.4578 C1.60535,17.9836 2.65886,16.2146 4.06354,14.1507 L13.5452,0.735474 L19.5652,4.5684 L12.1906,15.6249 C13.9967,15.9198 15.602,16.8534 17.0067,18.4259 C18.4114,19.9001 19.1137,21.7674 19.1137,24.0279 C19.1137,26.6814 18.1605,28.9419 16.2542,30.8092 C14.4482,32.5782 12.2408,33.4627 9.63211,33.4627 Z M35.0669,33.4627 C32.3579,33.4627 30.0502,32.5782 28.1438,30.8092 C26.3378,28.9419 25.4348,26.6814 25.4348,24.0279 C25.4348,22.4554 25.7358,20.932 26.3378,19.4578 C27.0401,17.9836 28.0936,16.2146 29.4983,14.1507 L38.9799,0.735474 L45,4.5684 L37.6254,15.6249 C39.4314,15.9198 41.0368,16.8534 42.4415,18.4259 C43.8462,19.9001 44.5485,21.7674 44.5485,24.0279 C44.5485,26.6814 43.5953,28.9419 41.689,30.8092 C39.8829,32.5782 37.6756,33.4627 35.0669,33.4627 Z" id="Shape"></path>
        </g>
    </g>
</svg>