<?xml version="1.0" encoding="UTF-8"?>
<svg width="56px" height="70px" viewBox="0 0 56 70" version="1.1" xmlns="http://www.w3.org/2000/svg" xmlns:xlink="http://www.w3.org/1999/xlink">
    <title>pin-custom1</title>
    <g id="Page-3" stroke="none" stroke-width="1" fill="none" fill-rule="evenodd">
        <g id="pin-custom1" fill-rule="nonzero">
            <polygon id="Path" fill="#FFFFFF" points="16.5 5 30 3.5 36.5 3.5 48 12 52.5 21.5 52 37 27.5 65.5 10 44.5 3 31 5.5 17.5"></polygon>
            <path d="M28,70 L6.9113,45.1283 C6.7915,44.9855 6.0408,43.9995 6.0408,43.9995 C2.438,39.2542 0.4916,33.458 0.499972925,27.5 C0.499972925,20.2065 3.3973,13.2118 8.5546,8.0546 C13.7118,2.89731 20.7066,0 28,0 C35.2935,0 42.2882,2.89731 47.4455,8.0546 C52.6027,13.2118 55.5000311,20.2065 55.5000311,27.5 C55.509,33.4555 53.5639,39.2496 49.963,43.9932 L49.9593,43.9995 C49.9593,43.9995 49.2093,44.9855 49.0975,45.118 L28,70 Z M10.0313,40.9875 C10.0338,40.9893 10.6148,41.758 10.7478,41.9235 L28,62.2697 L45.275,41.8948 C45.3848,41.7568 45.9708,40.9825 45.972,40.9805 C48.9152,37.1032 50.5058,32.3678 50.5000158,27.5 C50.5000158,21.5326 48.1295,15.8097 43.9099,11.5901 C39.6904,7.3705 33.9674,5 28,5 C22.0327,5 16.3097,7.3705 12.0901,11.5901 C7.8706,15.8097 5.49998579,21.5326 5.49998579,27.5 C5.4945,32.3704 7.0862,37.1083 10.0313,40.9875 Z" id="Shape" fill="#44E0B7"></path>
            <path d="M33.8728,17 L41.3646,17 C42.8183,17 43.7276,18.5735 42.998,19.8312 L30.5135,41.4136 C29.7948,42.6604 27.9981,42.6713 27.2576,41.4353 L23.4464,35.0434 C23.098,34.4554 23.0925,33.7258 23.4355,33.1323 L32.2395,17.9365 C32.577,17.3593 33.1977,17 33.8728,17 Z" id="Path" fill="#44E0B7"></path>
            <path d="M19.0798,31.7114 C21.8853,31.7114 24.1596,29.4371 24.1596,26.6316 C24.1596,23.8261 21.8853,21.5518 19.0798,21.5518 C16.2743,21.5518 14,23.8261 14,26.6316 C14,29.4371 16.2743,31.7114 19.0798,31.7114 Z" id="Path" fill="#5132A2"></path>
        </g>
    </g>
</svg>