<svg width="144" height="114" viewBox="0 0 144 114" fill="none" xmlns="http://www.w3.org/2000/svg">
<path d="M71.0209 39.3753H121.938C124.092 39.3753 125.854 37.6128 125.854 35.4587V23.7087C125.854 21.5545 124.092 19.792 121.938 19.792H71.0209C68.8667 19.792 67.1042 21.5545 67.1042 23.7087V35.4587C67.1042 37.6128 68.8667 39.3753 71.0209 39.3753ZM71.0209 23.7087H121.938V35.4587H71.0209V23.7087Z" fill="#200A52"/>
<path d="M123.896 43.292H116.063C114.985 43.292 114.104 44.1732 114.104 45.2503C114.104 46.3274 114.985 47.2087 116.063 47.2087H123.896C124.973 47.2087 125.854 46.3274 125.854 45.2503C125.854 44.1732 124.973 43.292 123.896 43.292Z" fill="#200A52"/>
<path d="M108.229 43.292H100.396C99.3188 43.292 98.4375 44.1732 98.4375 45.2503C98.4375 46.3274 99.3188 47.2087 100.396 47.2087H108.229C109.306 47.2087 110.188 46.3274 110.188 45.2503C110.188 44.1732 109.306 43.292 108.229 43.292Z" fill="#200A52"/>
<path d="M92.5624 43.292H84.7291C83.652 43.292 82.7708 44.1732 82.7708 45.2503C82.7708 46.3274 83.652 47.2087 84.7291 47.2087H92.5624C93.6395 47.2087 94.5208 46.3274 94.5208 45.2503C94.5208 44.1732 93.6395 43.292 92.5624 43.292Z" fill="#200A52"/>
<path d="M69.0626 47.2087H76.8959C77.973 47.2087 78.8542 46.3274 78.8542 45.2503C78.8542 44.1732 77.973 43.292 76.8959 43.292H69.0626C67.9855 43.292 67.1042 44.1732 67.1042 45.2503C67.1042 46.3274 67.9855 47.2087 69.0626 47.2087Z" fill="#200A52"/>
<path d="M69.0626 62.875H76.8959C77.973 62.875 78.8542 61.9938 78.8542 60.9167V53.0833C78.8542 52.0063 77.973 51.125 76.8959 51.125H69.0626C67.9855 51.125 67.1042 52.0063 67.1042 53.0833V60.9167C67.1042 61.9938 67.9855 62.875 69.0626 62.875ZM71.0209 55.0417H74.9376V58.9583H71.0209V55.0417Z" fill="#200A52"/>
<path d="M92.5624 51.125H84.7291C83.652 51.125 82.7708 52.0063 82.7708 53.0833V60.9167C82.7708 61.9938 83.652 62.875 84.7291 62.875H92.5624C93.6395 62.875 94.5208 61.9938 94.5208 60.9167V53.0833C94.5208 52.0063 93.6395 51.125 92.5624 51.125ZM90.6041 58.9583H86.6874V55.0417H90.6041V58.9583Z" fill="#200A52"/>
<path d="M108.229 51.125H100.396C99.3188 51.125 98.4375 52.0063 98.4375 53.0833V60.9167C98.4375 61.9938 99.3188 62.875 100.396 62.875H108.229C109.306 62.875 110.188 61.9938 110.188 60.9167V53.0833C110.188 52.0063 109.306 51.125 108.229 51.125ZM106.271 58.9583H102.354V55.0417H106.271V58.9583Z" fill="#200A52"/>
<path d="M123.896 51.125H116.063C114.985 51.125 114.104 52.0062 114.104 53.0833V76.5833C114.104 77.6604 114.985 78.5417 116.063 78.5417H123.896C124.973 78.5417 125.854 77.6604 125.854 76.5833V53.0833C125.854 52.0062 124.973 51.125 123.896 51.125ZM121.938 74.625H118.021V55.0417H121.938V74.625Z" fill="#200A52"/>
<path d="M69.0626 78.542H76.8959C77.973 78.542 78.8542 77.6607 78.8542 76.5837V68.7503C78.8542 67.6732 77.973 66.792 76.8959 66.792H69.0626C67.9855 66.792 67.1042 67.6732 67.1042 68.7503V76.5837C67.1042 77.6607 67.9855 78.542 69.0626 78.542ZM71.0209 70.7087H74.9376V74.6253H71.0209V70.7087Z" fill="#200A52"/>
<path d="M92.5624 66.792H84.7291C83.652 66.792 82.7708 67.6732 82.7708 68.7503V76.5837C82.7708 77.6607 83.652 78.542 84.7291 78.542H92.5624C93.6395 78.542 94.5208 77.6607 94.5208 76.5837V68.7503C94.5208 67.6732 93.6395 66.792 92.5624 66.792ZM90.6041 74.6253H86.6874V70.7087H90.6041V74.6253Z" fill="#200A52"/>
<path d="M108.229 66.792H100.396C99.3188 66.792 98.4375 67.6732 98.4375 68.7503V76.5837C98.4375 77.6607 99.3188 78.542 100.396 78.542H108.229C109.306 78.542 110.188 77.6607 110.188 76.5837V68.7503C110.188 67.6732 109.306 66.792 108.229 66.792ZM106.271 74.6253H102.354V70.7087H106.271V74.6253Z" fill="#200A52"/>
<path d="M69.0626 94.208H76.8959C77.973 94.208 78.8542 93.3268 78.8542 92.2497V84.4163C78.8542 83.3393 77.973 82.458 76.8959 82.458H69.0626C67.9855 82.458 67.1042 83.3393 67.1042 84.4163V92.2497C67.1042 93.3268 67.9855 94.208 69.0626 94.208ZM71.0209 86.3747H74.9376V90.2913H71.0209V86.3747Z" fill="#200A52"/>
<path d="M92.5624 82.458H84.7291C83.652 82.458 82.7708 83.3393 82.7708 84.4163V92.2497C82.7708 93.3268 83.652 94.208 84.7291 94.208H92.5624C93.6395 94.208 94.5208 93.3268 94.5208 92.2497V84.4163C94.5208 83.3393 93.6395 82.458 92.5624 82.458ZM90.6041 90.2913H86.6874V86.3747H90.6041V90.2913Z" fill="#200A52"/>
<path d="M108.229 82.458H100.396C99.3188 82.458 98.4375 83.3393 98.4375 84.4163V92.2497C98.4375 93.3268 99.3188 94.208 100.396 94.208H108.229C109.306 94.208 110.188 93.3268 110.188 92.2497V84.4163C110.188 83.3393 109.306 82.458 108.229 82.458ZM106.271 90.2913H102.354V86.3747H106.271V90.2913Z" fill="#200A52"/>
<path d="M123.896 82.458H116.063C114.985 82.458 114.104 83.3393 114.104 84.4163V92.2497C114.104 93.3268 114.985 94.208 116.063 94.208H123.896C124.973 94.208 125.854 93.3268 125.854 92.2497V84.4163C125.854 83.3393 124.973 82.458 123.896 82.458ZM121.938 90.2913H118.021V86.3747H121.938V90.2913Z" fill="#200A52"/>
<path d="M65.1458 104H127.812C131.044 104 133.687 101.356 133.687 98.125V15.875C133.687 12.6438 131.044 10 127.812 10H65.1458C61.9145 10 59.2708 12.6438 59.2708 15.875V98.125C59.2708 101.356 61.9145 104 65.1458 104ZM63.1874 15.875C63.1874 14.7979 64.0687 13.9167 65.1458 13.9167H127.812C128.889 13.9167 129.771 14.7979 129.771 15.875V98.125C129.771 99.2021 128.889 100.083 127.812 100.083H65.1458C64.0687 100.083 63.1874 99.2021 63.1874 98.125V15.875Z" fill="#200A52"/>
<g clip-path="url(#clip0)">
<path d="M23.638 21.2376L23.638 21.2376C28.6128 16.3702 34.6407 13.9167 41.6152 13.9167C48.5899 13.9167 54.604 16.3706 59.5476 21.2425C64.4918 26.1151 66.9932 32.0523 66.9932 38.9466C66.9932 43.6479 65.7674 47.9997 63.3194 51.9597L63.3168 51.9638C60.8449 55.9405 57.4875 59.0286 53.2791 61.2093C53.2791 61.2094 53.279 61.2094 53.279 61.2094L52.378 59.4706C52.3632 59.4783 52.3467 59.4823 52.33 59.4823C52.314 59.4823 52.298 59.4861 52.2837 59.4932C47.7901 61.715 45.5433 65.2914 45.5433 70.2226C45.5433 70.5247 45.2984 70.7695 44.9963 70.7695H34.8031C34.501 70.7695 34.2561 70.5247 34.2561 70.2226C34.2561 65.8469 35.4163 61.8193 37.7367 58.1398L23.638 21.2376ZM23.638 21.2376L23.633 21.2425M23.638 21.2376L23.633 21.2425M36.0781 57.0986C38.5908 53.0796 42.0111 50.0021 46.3027 47.8883C48.2213 46.8971 49.5643 45.6721 50.4379 44.2493C51.3131 42.8237 51.7893 41.0821 51.7893 38.9466C51.7893 36.1581 50.8237 33.8244 48.8423 31.8385C46.8256 29.8822 44.452 28.9216 41.6152 28.9216C38.7354 28.9216 36.3658 29.8885 34.3881 31.8383L36.0781 57.0986ZM36.0781 57.0986C33.5607 61.0919 32.2978 65.4809 32.2978 70.2226C32.2978 71.6062 33.4194 72.7279 34.8031 72.7279H44.9963C46.38 72.7279 47.5016 71.6062 47.5016 70.2226C47.5016 68.0628 47.9902 66.3105 48.8867 64.8836C49.7576 63.4973 51.0861 62.3025 52.9763 61.3368L36.0781 57.0986ZM23.633 21.2425C18.6888 26.1151 16.1874 32.0523 16.1874 38.9466M23.633 21.2425L16.1874 38.9466M16.1874 38.9466V42.5573M16.1874 38.9466V42.5573M16.1874 42.5573C16.1874 44.7204 17.941 46.474 20.1041 46.474M16.1874 42.5573L20.1041 46.474M20.1041 46.474H27.4746M20.1041 46.474H27.4746M27.4746 46.474C29.6377 46.474 31.3913 44.7204 31.3913 42.5573M27.4746 46.474L31.3913 42.5573M31.3913 42.5573V38.9466M31.3913 42.5573V38.9466M31.3913 38.9466C31.3913 36.1625 32.3698 33.8286 34.3879 31.8385L31.3913 38.9466ZM32.1983 95.2908C32.1983 97.4539 33.9519 99.2074 36.115 99.2074H43.7839C45.947 99.2074 47.7005 97.4539 47.7005 95.2908V87.6219C47.7005 85.4588 45.947 83.7052 43.7839 83.7052H36.115C33.9519 83.7052 32.1983 85.4588 32.1983 87.6219V95.2908Z" stroke="#44E0B7" stroke-width="3.91667"/>
</g>
<defs>
<clipPath id="clip0">
<rect width="45.0417" height="90.0833" fill="white" transform="translate(10.3125 11.958)"/>
</clipPath>
</defs>
</svg>
