<svg width="114" height="114" viewBox="0 0 114 114" fill="none" xmlns="http://www.w3.org/2000/svg">
<path d="M27.7624 14.2496L23.1563 18.8557C22.4606 19.5513 22.4606 20.6791 23.1563 21.3748C23.8519 22.0704 24.9797 22.0704 25.6753 21.3748L30.2814 16.7687C30.9771 16.073 30.9771 14.9452 30.2814 14.2496C29.5858 13.554 28.458 13.554 27.7624 14.2496Z" fill="#44E0B7"/>
<path d="M34.213 19.9628L33.4749 19.2247C32.9831 18.7329 32.1858 18.7329 31.694 19.2247C31.2022 19.7165 31.2022 20.5139 31.694 21.0057L32.432 21.7438C32.9238 22.2356 33.7212 22.2356 34.213 21.7438C34.7048 21.252 34.7048 20.4546 34.213 19.9628Z" fill="#44E0B7"/>
<path d="M36.6684 14.2493L35.6255 15.2922C34.9299 15.9878 34.9299 17.1157 35.6255 17.8113C36.3211 18.5069 37.4489 18.5069 38.1446 17.8113L39.1875 16.7684C39.8831 16.0728 39.8831 14.945 39.1875 14.2493C38.4918 13.5537 37.364 13.5537 36.6684 14.2493Z" fill="#44E0B7"/>
<path d="M7.125 40.9688C7.125 42.7302 7.64734 44.4522 8.62597 45.9168C9.60461 47.3814 10.9956 48.523 12.623 49.1971C14.2504 49.8711 16.0411 50.0475 17.7688 49.7039C19.4964 49.3602 21.0834 48.512 22.3289 47.2664C23.5745 46.0209 24.4227 44.4339 24.7664 42.7063C25.11 40.9786 24.9336 39.1879 24.2596 37.5605C23.5855 35.9331 22.4439 34.5421 20.9793 33.5635C19.5147 32.5848 17.7927 32.0625 16.0313 32.0625C13.67 32.0653 11.4063 33.0046 9.7367 34.6742C8.06707 36.3438 7.12783 38.6075 7.125 40.9688ZM16.0313 35.625C17.0881 35.625 18.1213 35.9384 19.0001 36.5256C19.8789 37.1128 20.5638 37.9473 20.9682 38.9238C21.3727 39.9002 21.4785 40.9747 21.2723 42.0113C21.0661 43.0479 20.5572 44 19.8099 44.7474C19.0625 45.4947 18.1104 46.0036 17.0738 46.2098C16.0372 46.416 14.9627 46.3102 13.9863 45.9057C13.0098 45.5013 12.1753 44.8164 11.5881 43.9376C11.0009 43.0588 10.6875 42.0256 10.6875 40.9688C10.6875 39.5515 11.2505 38.1923 12.2526 37.1901C13.2548 36.188 14.614 35.625 16.0313 35.625Z" fill="#200A52"/>
<path d="M33.8438 35.625H30.2812C29.2975 35.625 28.5 36.4225 28.5 37.4062C28.5 38.39 29.2975 39.1875 30.2812 39.1875H33.8438C34.8275 39.1875 35.625 38.39 35.625 37.4062C35.625 36.4225 34.8275 35.625 33.8438 35.625Z" fill="#200A52"/>
<path d="M33.8438 42.75H30.2812C29.2975 42.75 28.5 43.5475 28.5 44.5312C28.5 45.515 29.2975 46.3125 30.2812 46.3125H33.8438C34.8275 46.3125 35.625 45.515 35.625 44.5312C35.625 43.5475 34.8275 42.75 33.8438 42.75Z" fill="#200A52"/>
<path d="M39.0767 7.125H25.0476C20.5428 7.125 16.7434 11.1684 16.2304 16.3679L14.2835 26.3785C14.2334 26.6364 14.2408 26.9021 14.3054 27.1567C14.37 27.4113 14.4901 27.6485 14.6571 27.8512C14.8241 28.054 15.0338 28.2173 15.2714 28.3294C15.5089 28.4416 15.7683 28.4998 16.0309 28.5H48.0934C48.3561 28.4998 48.6155 28.4416 48.853 28.3294C49.0905 28.2173 49.3003 28.054 49.4673 27.8512C49.6343 27.6485 49.7544 27.4113 49.819 27.1567C49.8835 26.9021 49.891 26.6364 49.8408 26.3785L47.9153 16.53C47.3809 11.1684 43.5815 7.125 39.0767 7.125ZM18.1898 24.9375L19.7502 16.8845C20.1047 13.3594 22.3811 10.6875 25.0476 10.6875H39.0767C41.7486 10.6875 44.0197 13.3594 44.3973 17.0483L45.9328 24.9375H18.1898Z" fill="#44E0B7"/>
<path d="M46.3126 62.3438V53.4375H16.0313C13.2654 53.4402 10.5771 52.5231 8.38945 50.8306C6.20181 49.1381 4.63903 46.7662 3.94705 44.0882C3.25506 41.4102 3.47315 38.5782 4.567 36.0377C5.66084 33.4973 7.56834 31.3926 9.98933 30.055C10.2318 29.9178 10.4386 29.7256 10.5933 29.4939C10.748 29.2622 10.8462 28.9974 10.88 28.7209L12.6612 14.4869C13.0423 11.4709 14.5102 8.69742 16.7899 6.68631C19.0696 4.6752 22.0045 3.56453 25.0445 3.5625H39.0807C42.1197 3.56632 45.0531 4.67801 47.3313 6.68933C49.6095 8.70064 51.0763 11.4736 51.4568 14.4887L52.7928 25.1584C52.8466 25.5891 53.0558 25.9854 53.3812 26.2727C53.7066 26.56 54.1257 26.7186 54.5598 26.7188H58.7813C60.1986 26.7188 61.5578 26.1558 62.5599 25.1536C63.5621 24.1515 64.1251 22.7922 64.1251 21.375C64.118 19.9599 63.5528 18.6048 62.5522 17.6042C61.5515 16.6035 60.1964 16.0383 58.7813 16.0312H55.2402L54.9908 14.0469C54.5023 10.1705 52.6169 6.60531 49.688 4.01942C46.7591 1.43353 42.9878 0.00444859 39.0807 0L25.0445 0C21.1376 0.00439362 17.3665 1.43322 14.4377 4.01875C11.5088 6.60428 9.62327 10.1691 9.13433 14.0452L8.88495 16.0312H5.34383C4.64558 16.026 3.95339 16.1611 3.30836 16.4285C2.66334 16.6959 2.07863 17.0903 1.58895 17.5881C1.08278 18.0798 0.681129 18.6687 0.408102 19.3194C0.135074 19.9701 -0.00370924 20.6693 7.5369e-05 21.375C7.5369e-05 22.7922 0.563076 24.1515 1.56522 25.1536C2.56737 26.1558 3.92657 26.7188 5.34383 26.7188H7.54901L7.45995 27.417C4.91745 29.0245 2.87887 31.3152 1.5775 34.0272C0.27614 36.7391 -0.235431 39.7627 0.101339 42.7518C0.43811 45.7409 1.60961 48.5748 3.48178 50.9292C5.35395 53.2836 7.85114 55.0634 10.6876 56.0648V62.3438C10.6876 63.761 11.2506 65.1202 12.2527 66.1224C13.2549 67.1245 14.6141 67.6875 16.0313 67.6875C17.4486 67.6875 18.8078 67.1245 19.8099 66.1224C20.8121 65.1202 21.3751 63.761 21.3751 62.3438V57H42.7501V62.3438C42.7518 63.2819 42.9994 64.2032 43.4682 65.0158C43.937 65.8284 44.6107 66.5039 45.422 66.975L47.2032 63.8917C46.9316 63.7349 46.7063 63.5092 46.5499 63.2374C46.3935 62.9656 46.3116 62.6573 46.3126 62.3438ZM58.7813 19.5938C59.0188 19.593 59.2538 19.641 59.472 19.7347C59.6901 19.8285 59.8867 19.966 60.0496 20.1388C60.2141 20.2996 60.3443 20.492 60.4325 20.7045C60.5206 20.9169 60.5649 21.145 60.5626 21.375C60.5626 21.8474 60.3749 22.3005 60.0409 22.6345C59.7068 22.9686 59.2537 23.1562 58.7813 23.1562H56.1326L55.6873 19.5938H58.7813ZM3.56258 21.375C3.56181 21.1376 3.60978 20.9025 3.70354 20.6843C3.7973 20.4662 3.93483 20.2696 4.10764 20.1068C4.26842 19.9423 4.46083 19.812 4.67328 19.7239C4.88573 19.6357 5.11382 19.5914 5.34383 19.5938H8.43786L7.99254 23.1562H5.34383C4.87141 23.1562 4.41834 22.9686 4.08429 22.6345C3.75024 22.3005 3.56258 21.8474 3.56258 21.375ZM17.8126 62.3438C17.8126 62.8162 17.6249 63.2692 17.2909 63.6033C16.9568 63.9373 16.5037 64.125 16.0313 64.125C15.5589 64.125 15.1058 63.9373 14.7718 63.6033C14.4377 63.2692 14.2501 62.8162 14.2501 62.3438V57H17.8126V62.3438Z" fill="#200A52"/>
<path d="M112.219 28.5H92.625V26.7188C92.625 26.2463 92.4373 25.7933 92.1033 25.4592C91.7692 25.1252 91.3162 24.9375 90.8438 24.9375H73.0312C72.5588 24.9375 72.1058 25.1252 71.7717 25.4592C71.4377 25.7933 71.25 26.2463 71.25 26.7188V28.5H51.6562C51.1838 28.5 50.7308 28.6877 50.3967 29.0217C50.0627 29.3558 49.875 29.8088 49.875 30.2812V112.219C49.875 112.691 50.0627 113.144 50.3967 113.478C50.7308 113.812 51.1838 114 51.6562 114H112.219C112.691 114 113.144 113.812 113.478 113.478C113.812 113.144 114 112.691 114 112.219V30.2812C114 29.8088 113.812 29.3558 113.478 29.0217C113.144 28.6877 112.691 28.5 112.219 28.5ZM74.8125 28.5H89.0625V32.0625H74.8125V28.5ZM71.25 32.0625V33.8438C71.25 34.3162 71.4377 34.7692 71.7717 35.1033C72.1058 35.4373 72.5588 35.625 73.0312 35.625H90.8438C91.3162 35.625 91.7692 35.4373 92.1033 35.1033C92.4373 34.7692 92.625 34.3162 92.625 33.8438V32.0625H103.312V103.312H60.5625V32.0625H71.25ZM110.438 110.438H53.4375V32.0625H57V105.094C57 105.566 57.1877 106.019 57.5217 106.353C57.8558 106.687 58.3088 106.875 58.7812 106.875H105.094C105.566 106.875 106.019 106.687 106.353 106.353C106.687 106.019 106.875 105.566 106.875 105.094V32.0625H110.438V110.438Z" fill="#200A52"/>
<path d="M46.3124 35.9452V32.2402C44.2991 32.6491 42.489 33.7413 41.1888 35.332C39.8887 36.9227 39.1785 38.9139 39.1785 40.9684C39.1785 43.0228 39.8887 45.014 41.1888 46.6047C42.489 48.1954 44.2991 49.2877 46.3124 49.6965V45.9915C45.2711 45.6268 44.369 44.9475 43.7307 44.0476C43.0924 43.1477 42.7495 42.0716 42.7495 40.9684C42.7495 39.8651 43.0924 38.7891 43.7307 37.8892C44.369 36.9893 45.2711 36.31 46.3124 35.9452Z" fill="#200A52"/>
<path d="M94.4062 39.1875H69.4688C68.485 39.1875 67.6875 39.985 67.6875 40.9688C67.6875 41.9525 68.485 42.75 69.4688 42.75H94.4062C95.39 42.75 96.1875 41.9525 96.1875 40.9688C96.1875 39.985 95.39 39.1875 94.4062 39.1875Z" fill="#44E0B7"/>
<path d="M65.9062 57H73.0312C73.5037 57 73.9567 56.8123 74.2908 56.4783C74.6248 56.1442 74.8125 55.6912 74.8125 55.2188V48.0938C74.8125 47.6213 74.6248 47.1683 74.2908 46.8342C73.9567 46.5002 73.5037 46.3125 73.0312 46.3125H65.9062C65.4338 46.3125 64.9808 46.5002 64.6467 46.8342C64.3127 47.1683 64.125 47.6213 64.125 48.0938V55.2188C64.125 55.6912 64.3127 56.1442 64.6467 56.4783C64.9808 56.8123 65.4338 57 65.9062 57ZM67.6875 49.875H71.25V53.4375H67.6875V49.875Z" fill="#44E0B7"/>
<path d="M97.9688 46.3125H80.1562C79.1725 46.3125 78.375 47.11 78.375 48.0938C78.375 49.0775 79.1725 49.875 80.1562 49.875H97.9688C98.9525 49.875 99.75 49.0775 99.75 48.0938C99.75 47.11 98.9525 46.3125 97.9688 46.3125Z" fill="#200A52"/>
<path d="M97.9688 53.4375H80.1562C79.1725 53.4375 78.375 54.235 78.375 55.2188C78.375 56.2025 79.1725 57 80.1562 57H97.9688C98.9525 57 99.75 56.2025 99.75 55.2188C99.75 54.235 98.9525 53.4375 97.9688 53.4375Z" fill="#200A52"/>
<path d="M65.9062 71.25H73.0312C73.5037 71.25 73.9567 71.0623 74.2908 70.7283C74.6248 70.3942 74.8125 69.9412 74.8125 69.4688V62.3438C74.8125 61.8713 74.6248 61.4183 74.2908 61.0842C73.9567 60.7502 73.5037 60.5625 73.0312 60.5625H65.9062C65.4338 60.5625 64.9808 60.7502 64.6467 61.0842C64.3127 61.4183 64.125 61.8713 64.125 62.3438V69.4688C64.125 69.9412 64.3127 70.3942 64.6467 70.7283C64.9808 71.0623 65.4338 71.25 65.9062 71.25ZM67.6875 64.125H71.25V67.6875H67.6875V64.125Z" fill="#44E0B7"/>
<path d="M97.9688 60.5625H80.1562C79.1725 60.5625 78.375 61.36 78.375 62.3438C78.375 63.3275 79.1725 64.125 80.1562 64.125H97.9688C98.9525 64.125 99.75 63.3275 99.75 62.3438C99.75 61.36 98.9525 60.5625 97.9688 60.5625Z" fill="#200A52"/>
<path d="M97.9688 67.6875H80.1562C79.1725 67.6875 78.375 68.485 78.375 69.4688C78.375 70.4525 79.1725 71.25 80.1562 71.25H97.9688C98.9525 71.25 99.75 70.4525 99.75 69.4688C99.75 68.485 98.9525 67.6875 97.9688 67.6875Z" fill="#200A52"/>
<path d="M65.9062 85.5H73.0312C73.5037 85.5 73.9567 85.3123 74.2908 84.9783C74.6248 84.6442 74.8125 84.1912 74.8125 83.7188V76.5938C74.8125 76.1213 74.6248 75.6683 74.2908 75.3342C73.9567 75.0002 73.5037 74.8125 73.0312 74.8125H65.9062C65.4338 74.8125 64.9808 75.0002 64.6467 75.3342C64.3127 75.6683 64.125 76.1213 64.125 76.5938V83.7188C64.125 84.1912 64.3127 84.6442 64.6467 84.9783C64.9808 85.3123 65.4338 85.5 65.9062 85.5ZM67.6875 78.375H71.25V81.9375H67.6875V78.375Z" fill="#44E0B7"/>
<path d="M97.9688 74.8125H80.1562C79.1725 74.8125 78.375 75.61 78.375 76.5938C78.375 77.5775 79.1725 78.375 80.1562 78.375H97.9688C98.9525 78.375 99.75 77.5775 99.75 76.5938C99.75 75.61 98.9525 74.8125 97.9688 74.8125Z" fill="#200A52"/>
<path d="M97.9688 81.9375H80.1562C79.1725 81.9375 78.375 82.735 78.375 83.7188C78.375 84.7025 79.1725 85.5 80.1562 85.5H97.9688C98.9525 85.5 99.75 84.7025 99.75 83.7188C99.75 82.735 98.9525 81.9375 97.9688 81.9375Z" fill="#200A52"/>
<path d="M65.9062 99.75H73.0312C73.5037 99.75 73.9567 99.5623 74.2908 99.2283C74.6248 98.8942 74.8125 98.4412 74.8125 97.9688V90.8438C74.8125 90.3713 74.6248 89.9183 74.2908 89.5842C73.9567 89.2502 73.5037 89.0625 73.0312 89.0625H65.9062C65.4338 89.0625 64.9808 89.2502 64.6467 89.5842C64.3127 89.9183 64.125 90.3713 64.125 90.8438V97.9688C64.125 98.4412 64.3127 98.8942 64.6467 99.2283C64.9808 99.5623 65.4338 99.75 65.9062 99.75ZM67.6875 92.625H71.25V96.1875H67.6875V92.625Z" fill="#44E0B7"/>
<path d="M97.9688 89.0625H80.1562C79.1725 89.0625 78.375 89.86 78.375 90.8438C78.375 91.8275 79.1725 92.625 80.1562 92.625H97.9688C98.9525 92.625 99.75 91.8275 99.75 90.8438C99.75 89.86 98.9525 89.0625 97.9688 89.0625Z" fill="#200A52"/>
<path d="M97.9688 96.1875H80.1562C79.1725 96.1875 78.375 96.985 78.375 97.9688C78.375 98.9525 79.1725 99.75 80.1562 99.75H97.9688C98.9525 99.75 99.75 98.9525 99.75 97.9688C99.75 96.985 98.9525 96.1875 97.9688 96.1875Z" fill="#200A52"/>
</svg>
