<?xml version="1.0" encoding="UTF-8"?>
<svg width="861px" height="487px" viewBox="0 0 861 487" version="1.1" xmlns="http://www.w3.org/2000/svg" xmlns:xlink="http://www.w3.org/1999/xlink">
    <title>auto-refinance-banner02</title>
    <g id="Page-3" stroke="none" stroke-width="1" fill="none" fill-rule="evenodd">
        <g id="auto-refinance-banner02">
            <polygon id="Path" fill="#F4F4F4" fill-rule="nonzero" points="335.094 205.953 379.137 205.953 379.137 241.976 335.094 241.976"></polygon>
            <polygon id="Path" stroke="#000000" stroke-width="0.565931" points="335.094 205.953 379.137 205.953 379.137 241.976 335.094 241.976"></polygon>
            <polygon id="Path" fill="#FFFFFF" fill-rule="nonzero" points="352.965 205.954 361.266 205.954 361.266 216.169 352.965 216.169"></polygon>
            <polygon id="Path" stroke="#000000" stroke-width="0.565931" points="352.965 205.954 361.266 205.954 361.266 216.169 352.965 216.169"></polygon>
            <polygon id="Path" fill="#F4F4F4" fill-rule="nonzero" points="379.136 205.851 423.179 205.851 423.179 241.873 379.136 241.873"></polygon>
            <polygon id="Path" stroke="#000000" stroke-width="0.565931" points="379.136 205.851 423.179 205.851 423.179 241.873 379.136 241.873"></polygon>
            <polygon id="Path" fill="#FFFFFF" fill-rule="nonzero" points="397.008 205.851 405.308 205.851 405.308 216.066 397.008 216.066"></polygon>
            <polygon id="Path" stroke="#000000" stroke-width="0.565931" points="397.008 205.851 405.308 205.851 405.308 216.066 397.008 216.066"></polygon>
            <polygon id="Path" fill="#FFFFFF" fill-rule="nonzero" points="361.195 170.012 369.496 170.012 369.496 180.227 361.195 180.227"></polygon>
            <path d="M127.799,75.6014 L153.816,75.6014 C153.986,75.6014 154.124,75.4643 154.124,75.2952 C154.124,75.1261 153.986,74.989 153.816,74.989 L127.799,74.989 C127.629,74.989 127.491,75.1261 127.491,75.2952 C127.491,75.4643 127.629,75.6014 127.799,75.6014 Z" id="Path" fill="#000000" fill-rule="nonzero"></path>
            <path d="M154.586,74.8115 C152.904,72.7048 151.043,70.3715 150.92,67.5605 C150.821,65.2885 151.998,62.8449 154.506,62.6 C155.643,62.4289 156.781,62.9012 157.458,63.8248 L157.988,63.5186 C155.227,59.7645 157.729,54.2221 161.685,52.4951 C164.3,51.4525 167.21,51.4067 169.857,52.3665 C172.573,53.3268 175.015,54.9257 176.974,57.027 C179.231,59.4849 181.247,62.1507 182.995,64.9884 C183.079,65.1106 183.239,65.1567 183.376,65.0988 C183.514,65.0409 183.591,64.895 183.562,64.7495 C183.405,63.606 183.875,62.4665 184.794,61.761 C185.704,60.9791 186.919,60.6461 188.103,60.8546 C190.673,61.3078 192.417,63.5921 193.237,65.9009 C193.729,67.3976 194.088,68.9346 194.309,70.494 C194.377,70.8615 194.882,70.7267 194.925,70.4144 C195.073,69.0487 196.669,68.4853 197.871,68.5771 C199.535,68.6874 200.878,70.0531 202.073,71.0697 C204.561,73.2235 207.702,74.4889 210.997,74.6646 C212.837,74.7608 214.679,74.5008 216.419,73.899 C216.789,73.7704 216.628722,73.1764 216.253,73.2866 C212.907,74.4349 209.248,74.2818 206.011,72.8579 C205.238,72.52 204.5,72.1099 203.805,71.6331 C203.055,71.0907 202.335,70.508 201.648,69.8877 C200.459,68.8895 199.072,67.8729 197.433,67.9464 C195.973,68.0137 194.475,68.8589 194.309,70.396 L194.925,70.3103 C194.408,67.3584 193.81,64.1555 191.542,61.9876 C190.596,61.0493 189.379,60.4283 188.06,60.2115 C186.788,60.0322 185.497,60.3922 184.505,61.2037 C183.363,62.0616 182.786,63.4719 183.001,64.8782 L183.562,64.6454 C180.234,59.593 176.574,54.1548 170.621,51.9317 C167.871,50.8159 164.81,50.7181 161.994,51.6561 C159.73,52.5087 157.912,54.2366 156.953,56.4452 C155.905,58.8091 155.85,61.6507 157.433,63.7942 C157.661,64.1065 158.179,63.8248 157.963,63.488 C156.675,61.4731 153.613,61.4976 151.937,63.0103 C149.811,64.921 149.989,68.2097 151.055,70.5981 C151.881,72.2535 152.916,73.7971 154.137,75.1912 C154.383,75.4974 154.814,75.0626 154.568,74.7564 L154.586,74.8115 Z" id="Path" fill="#000000" fill-rule="nonzero"></path>
            <path d="M267.539,241.560999 L488.096,241.560999 C494.725,241.560999 500.875,244.989 504.328,250.612 L554.181,331.812 L622.885,353.216 C633.503,356.527 640.538,366.538 640.011,377.584 L636.892,442.439 L171.111,442.439 L171.111,400.856 C171.111,364.611 183.806,329.496 207.019,301.541 L250.014,249.767 C254.33,244.569 260.758,241.560999 267.539,241.560999 L267.539,241.560999 Z" id="Path" fill="#E9E9E9" fill-rule="nonzero"></path>
            <path d="M624.629,386.881 L624.629,397.58 C624.629,403.367 629.35,408.058 635.173,408.058 L638.532,408.058 L639.998,377.584 C639.998,377.192 639.998,376.794 639.998,376.402 L635.149,376.402 C629.335,376.416 624.629,381.103 624.629,386.881 L624.629,386.881 Z" id="Path" fill="#CCCCCC" fill-rule="nonzero"></path>
            <path d="M624.629,386.881 L624.629,397.58 C624.629,403.367 629.35,408.058 635.173,408.058" id="Path" stroke="#000000" stroke-width="0.565931"></path>
            <path d="M181.612,406.704 L181.612,391.566 C181.612,388.183 178.853,385.441 175.449,385.441 L171.881,385.441 C171.368,390.545 171.109,395.681 171.105,400.85 L171.105,412.829074 L175.419,412.829074 C177.058,412.837 178.634,412.195 179.796,411.046 C180.958,409.896 181.612,408.334 181.612,406.704 Z" id="Path" fill="#CCCCCC" fill-rule="nonzero"></path>
            <path d="M554.169,331.812 L508.05,256.693 L378.468,256.693 L378.468,314.291 C378.468,318.937 380.323,323.394 383.628,326.68 C386.934,329.966 391.417,331.812 396.093,331.812 L554.169,331.812 Z" id="Path" fill="#F4F4F4" fill-rule="nonzero"></path>
            <path d="M547.544,331.813 L540.353,320.103 C536.768,314.268 531.356,309.763 524.947,307.279 L518.908,304.934 C518.374,304.723 517.777,304.733 517.251,304.964 C516.725,305.194 516.314,305.624 516.11,306.159 C515.552,307.333 515.978,308.738 517.096,309.41 C519.037,310.703 517.86,313.661 516.936,315.375 C516.783,315.659 516.491,315.84 516.168,315.853 C515.845,315.865 515.539,315.707 515.365,315.437 L504.383,298.448 C504.173,298.122 503.776,297.965 503.398,298.058 C503.019,298.15 502.741,298.472 502.707,298.859 C502.69,299.056 502.737,299.254 502.843,299.422 L514.49,318.015 C514.688,318.329 514.673,318.732 514.453,319.032 C511.52,323.016 509.04,327.311 507.058,331.837 L547.544,331.813 Z" id="Path" fill="#CCCCCC" fill-rule="nonzero"></path>
            <path d="M504.765,302.49 L514.477,317.99 C514.675,318.305 514.661,318.707 514.44,319.007 C511.508,322.991 509.028,327.286 507.045,331.812 L547.514,331.812 L540.353,320.103 C536.768,314.268 531.356,309.763 524.947,307.279 L518.908,304.933 C518.374,304.722 517.777,304.733 517.251,304.963 C516.725,305.194 516.314,305.624 516.11,306.158 C515.552,307.333 515.978,308.737 517.096,309.41 C519.037,310.702 517.86,313.66 516.936,315.375 C516.783,315.658 516.491,315.84 516.168,315.853 C515.845,315.865 515.539,315.707 515.365,315.436 L504.383,298.448" id="Path" stroke="#000000" stroke-width="0.565931"></path>
            <path d="M413.976,311.559 C414.29,305.435 413.852,301.112 413.242,298.154 C412.544,294.93 409.671,292.632 406.353,292.641948 L397.984,292.641948 C395.378,292.632 392.982,294.062 391.766,296.353 C387.705,304.149 384.791,317.506 383.17,326.227 C386.506,329.81 391.198,331.844 396.111,331.836024 L415.658,331.836024 C414.214,325.179 413.648,318.362 413.976,311.559 Z" id="Path" fill="#CCCCCC" fill-rule="nonzero"></path>
            <path d="M362.150002,314.291 L362.150002,256.693 L244.264,256.693 L207.019,301.54 C199.293,310.841 192.676,320.999 187.299,331.812004 L344.513,331.812004 C349.191,331.815 353.678,329.971 356.986,326.684 C360.294,323.398 362.152,318.939 362.150002,314.291 Z" id="Path" fill="#F4F4F4" fill-rule="nonzero"></path>
            <path d="M267.435,292.617783 L259.072,292.617783 C256.466,292.605 254.068,294.036 252.855,296.329 C247.752,306.128 244.461,324.678 243.278,331.812 L272.858,331.812 C273.99,325.109 274.737,318.347 275.095,311.56 C275.409,305.435 274.971,301.112 274.361,298.154 C273.67,294.907 270.774,292.592 267.435,292.617783 Z" id="Path" fill="#CCCCCC" fill-rule="nonzero"></path>
            <path d="M413.976,311.559 C414.29,305.435 413.852,301.111 413.242,298.153 C412.544,294.93 409.671,292.631 406.353,292.641948 L397.984,292.641948 C395.378,292.632 392.982,294.062 391.766,296.353 C387.705,304.149 384.791,317.506 383.17,326.227 C386.506,329.81 391.198,331.844 396.111,331.836024 L415.658,331.836024 C414.214,325.178 413.648,318.362 413.976,311.559 L413.976,311.559 Z" id="Path" stroke="#000000" stroke-width="0.565931"></path>
            <path d="M267.435,292.616799 L259.072,292.616799 C256.466,292.605 254.068,294.036 252.855,296.329 C247.752,306.127 244.461,324.677 243.278,331.812 L272.858,331.812 C273.99,325.109 274.737,318.347 275.095,311.559 C275.409,305.435 274.971,301.112 274.361,298.154 C273.67,294.907 270.774,292.592 267.435,292.616799 L267.435,292.616799 Z" id="Path" stroke="#000000" stroke-width="0.565931"></path>
            <path d="M554.169,331.812 L508.05,256.693 L378.467998,256.693 L378.467998,314.291 C378.466,318.937 380.322,323.394 383.628,326.68 C386.933,329.966 391.417,331.812 396.092,331.812 L554.169,331.812 Z" id="Path" stroke="#000000" stroke-width="0.565931"></path>
            <path d="M362.150002,314.291 L362.150002,256.693 L244.264,256.693 L207.019,301.541 C199.293,310.842 192.676,321 187.299,331.812006 L344.513,331.812006 C349.191,331.816 353.678,329.971 356.986,326.684 C360.294,323.398 362.152,318.94 362.150002,314.291 L362.150002,314.291 Z" id="Path" stroke="#000000" stroke-width="0.565931"></path>
            <path d="M171.111,437.577 L637.127,437.577 L637.127,448.306 C637.127,451.35 634.644,453.818 631.58,453.818 L179.264,453.818 C174.775,453.818 171.135,450.201 171.135,445.74 L171.135,437.577 L171.111,437.577 Z" id="Path" fill="#F4F4F4" fill-rule="nonzero"></path>
            <path d="M622.873,353.216 L554.169,331.812 L504.316,250.612 C500.865,244.993 494.72,241.564 488.096,241.560999 L267.539,241.560999 C260.758,241.560999 254.33,244.569 250.014,249.767 L207.019,301.541 C183.806,329.496 171.111,364.611 171.111,400.856 L171.111,445.74 C171.111,450.201 174.75,453.818 179.239,453.818 L631.556,453.818 C634.619,453.818 637.102,451.35 637.102,448.306 L637.102,437.576 L639.986,377.56 C640.503,366.525 633.476,356.529 622.873,353.216 L622.873,353.216 Z" id="Path" stroke="#000000" stroke-width="0.565931"></path>
            <path d="M295.036,441.949 L275.316,441.949 C275.064,423.209 259.706,408.149 240.847,408.149 C221.989,408.149 206.63,423.209 206.378,441.949 L186.659,441.949 C186.975,412.431 211.144,388.668 240.847,388.668 C270.551,388.668 294.719,412.431 295.036,441.949 Z" id="Path" fill="#F4F4F4" fill-rule="nonzero"></path>
            <ellipse id="Oval" stroke="#000000" stroke-width="0.565931" fill="#000000" fill-rule="nonzero" cx="240.85" cy="441.949" rx="44.3258" ry="44.0511"></ellipse>
            <ellipse id="Oval" fill="#CCCCCC" fill-rule="nonzero" cx="240.85" cy="441.949" rx="22.166" ry="22.0286"></ellipse>
            <ellipse id="Oval" fill="#E9E9E9" fill-rule="nonzero" cx="240.85" cy="441.949" rx="15.5106" ry="15.4145"></ellipse>
            <path d="M622.103,441.949 L602.383,441.949 C602.131,423.209 586.773,408.149 567.914,408.149 C549.056,408.149 533.697,423.209 533.445,441.949 L513.726,441.949 C514.042,412.431 538.21,388.668 567.914,388.668 C597.618,388.668 621.786,412.431 622.103,441.949 Z" id="Path" fill="#F4F4F4" fill-rule="nonzero"></path>
            <ellipse id="Oval" stroke="#000000" stroke-width="0.565931" fill="#000000" fill-rule="nonzero" cx="567.918" cy="441.949" rx="44.3259" ry="44.0511"></ellipse>
            <ellipse id="Oval" fill="#CCCCCC" fill-rule="nonzero" cx="567.917" cy="441.949" rx="22.166" ry="22.0286"></ellipse>
            <ellipse id="Oval" fill="#E9E9E9" fill-rule="nonzero" cx="567.917" cy="441.949" rx="15.5107" ry="15.4145"></ellipse>
            <rect id="Rectangle" fill="#FFFFFF" fill-rule="nonzero" x="274.737" y="349.664" width="15.0177" height="4.78907" rx="1.61856"></rect>
            <line x1="287.992" y1="354.454" x2="276.5" y2="354.454" id="Path" stroke="#000000" stroke-width="0.565931"></line>
            <rect id="Rectangle" fill="#FFFFFF" fill-rule="nonzero" x="394.798" y="349.664" width="15.0177" height="4.78907" rx="1.61856"></rect>
            <line x1="408.054" y1="354.454" x2="396.555" y2="354.454" id="Path" stroke="#000000" stroke-width="0.565931"></line>
            <path d="M439.574,271.281 C439.488,271.312 439.408,271.36 439.34,271.422 C439.291,271.466 439.249,271.518 439.217,271.575 C439.146,271.704 439.116,271.851 439.13,271.998 C439.129,272.192 439.22,272.377 439.377,272.494 C439.494,272.564 439.642,272.564 439.759,272.494 C439.873,272.422 439.941,272.297 439.938,272.163 C439.931,272.082 439.919,272.003 439.901,271.924 L439.858,271.722 C439.826,271.601 439.724,271.511 439.599,271.495 C439.474,271.479 439.352,271.539 439.291,271.648 C439.263,271.726 439.263,271.81 439.291,271.887 C439.319,271.996 439.342,272.107 439.358,272.218 L439.358,272.102 L439.358,272.028 L439.408,271.967 L439.469,271.918 L439.543,271.887 L439.623,271.887 L439.704,271.887 L439.771,271.918 L439.833,271.967 L439.882,272.028 C439.87,272.013 439.859,271.997 439.851,271.979 L439.882,272.053 C439.862,272.001 439.848,271.948 439.839,271.893 L439.839,271.973 C439.833,271.932 439.833,271.891 439.839,271.851 L439.839,271.93 C439.847,271.893 439.857,271.856 439.87,271.82 L439.839,271.893 C439.853,271.864 439.87,271.835 439.888,271.808 L439.839,271.869 C439.857,271.847 439.877,271.829 439.901,271.814 L439.839,271.857 L439.907,271.82 L439.833,271.82 C439.871,271.809 439.907,271.79 439.938,271.765 C439.971,271.743 439.998,271.713 440.018,271.679 C440.048,271.602 440.048,271.517 440.018,271.44 C439.997,271.363 439.946,271.297 439.876,271.256 C439.806,271.213 439.721,271.202 439.642,271.226 L439.574,271.281 Z" id="Path" fill="#000000" fill-rule="nonzero"></path>
            <path d="M430.743,274.968 C429.969,274.862 429.242,274.537 428.648,274.031 C427.973,273.492 427.532,272.716 427.416,271.863 C427.362,271.48 427.478,271.093 427.733,270.801 C427.988,270.509 428.358,270.34 428.747,270.338 C429.533,270.387 430.221,270.877 430.522,271.6 C430.694,271.949 431.23,271.643 431.052,271.288 C430.723,270.585 430.116,270.048 429.375,269.806 C428.655,269.591 427.875,269.78 427.336,270.302 C426.103,271.606 427.182,273.627 428.352,274.589 C429.043,275.147 429.878,275.502 430.762,275.611 C430.928,275.611 431.064,275.458 431.07,275.305 C431.064,275.139 430.929,275.005 430.762,274.999 L430.743,274.968 Z" id="Path" fill="#000000" fill-rule="nonzero"></path>
            <path d="M428.482,271.845 C428.617,271.677 428.857,271.635 429.042,271.747 C429.249,271.871 429.424,272.041 429.554,272.243 C429.854,272.636 430.079,273.08 430.219,273.553 C430.234,273.59 430.274,273.61 430.312,273.601 C430.351,273.592 430.377,273.556 430.374,273.517 C430.205,272.954 429.926,272.429 429.554,271.973 C429.406,271.759 429.188,271.601 428.938,271.526 C428.72,271.48 428.495,271.566 428.365,271.747 C428.309,271.832 428.439,271.906 428.494,271.826 L428.482,271.845 Z" id="Path" fill="#000000" fill-rule="nonzero"></path>
            <path d="M429.302,272.586 C429.307,272.541 429.331,272.5 429.369,272.475 C429.41,272.445 429.461,272.432 429.511,272.439 C429.634,272.461 429.743,272.532 429.813,272.635 C429.845,272.661 429.892,272.661 429.924,272.635 C429.954,272.604 429.954,272.555 429.924,272.524 C429.82,272.389 429.664,272.302 429.493,272.286 C429.332,272.279 429.189,272.387 429.154,272.543 C429.148,272.562 429.15,272.582 429.159,272.599 C429.168,272.616 429.184,272.629 429.203,272.635 C429.244,272.647 429.287,272.625 429.302,272.586 Z" id="Path" fill="#000000" fill-rule="nonzero"></path>
            <path d="M438.705,269.867 C438.783,269.779 438.867,269.697 438.958,269.622 C438.958,269.622 438.958,269.622 439.001,269.591 L439.075,269.536 L439.235,269.444 L439.383,269.37 L439.42,269.37 L439.506,269.34 C439.62,269.3 439.738,269.271 439.857,269.254 C439.935,269.233 440.001,269.182 440.042,269.113 C440.072,269.039 440.072,268.955 440.042,268.881 C440.023,268.802 439.971,268.736 439.9,268.697 C439.825,268.667 439.741,268.667 439.666,268.697 C439.124,268.781 438.629,269.052 438.267,269.462 C438.149,269.583 438.149,269.776 438.267,269.897 C438.387,270.014 438.579,270.014 438.699,269.897 L438.705,269.867 Z" id="Path" fill="#000000" fill-rule="nonzero"></path>
            <path d="M439.913,262.659 C440.979,265.721 442.07,268.52 442.544,271.79 C442.729,272.842 443.089,273.856 443.61,274.791 C443.707,274.924 443.742,275.091 443.707,275.251 C443.671,275.411 443.569,275.549 443.425,275.63 L443.376,275.63 C443.063,275.805 442.867,276.13 442.858,276.487 C442.784,279.09 443.555,281.613 441.521,283.224 C439.229,285.061 435.642,283.763 433.227,282.231" id="Path" stroke="#000000" stroke-width="0.565931"></path>
            <path d="M424.747,283.156 C425.364,281.625 425.567,279.916 425.98,278.318 C426.097,277.556 426.428,276.843 426.935,276.26 C427.169,276.068 427.393,275.863 427.607,275.648 C427.852,275.339 428.011,274.972 428.069,274.582 C428.143,274.203061 427.551,274.037 427.453,274.423 C427.408,274.795 427.236,275.141 426.966,275.403 C426.721,275.594 426.486,275.799 426.263,276.015 C425.81,276.647 425.503,277.371 425.364,278.134 C424.951,279.733 424.747,281.441 424.131,282.966 C423.977,283.328 424.575,283.487 424.747,283.132 L424.747,283.156 Z" id="Path" fill="#000000" fill-rule="nonzero"></path>
            <path d="M357.38,260.043 C357.415,260.034 357.438,260.002 357.438,259.967 C357.438,259.931 357.415,259.9 357.38,259.89 C357.346,259.9 357.322,259.931 357.322,259.967 C357.322,260.002 357.346,260.034 357.38,260.043 Z" id="Path" fill="#000000" fill-rule="nonzero"></path>
            <path d="M357.38,260.043 C357.415,260.034 357.438,260.002 357.438,259.967 C357.438,259.931 357.415,259.9 357.38,259.89 C357.346,259.9 357.322,259.931 357.322,259.967 C357.322,260.002 357.346,260.034 357.38,260.043 Z" id="Path" fill="#000000" fill-rule="nonzero"></path>
            <path d="M297.273,271.281 C297.186,271.312 297.107,271.36 297.039,271.422 C296.991,271.468 296.949,271.519 296.915,271.575 C296.847,271.705 296.818,271.852 296.829,271.998 C296.833,272.191 296.923,272.373 297.076,272.494 C297.195,272.564 297.344,272.564 297.464,272.494 C297.574,272.42 297.639,272.295 297.636,272.163 C297.633,272.082 297.621,272.002 297.599,271.924 L297.556,271.722 C297.535,271.645 297.484,271.579 297.415,271.538 C297.268,271.455 297.081,271.504 296.995,271.649 C296.955,271.721 296.944,271.807 296.965,271.888 C296.965,271.998 297.014,272.108 297.032,272.218 L297.032,272.132 L297.032,272.188 L297.032,272.102 L297.063,272.028 L297.113,271.967 L297.174,271.918 L297.248,271.888 L297.334,271.888 L297.415,271.888 L297.488,271.918 L297.55,271.967 L297.599,272.028 C297.587,272.013 297.577,271.997 297.569,271.979 L297.599,272.053 C297.581,272.001 297.569,271.948 297.562,271.894 L297.562,271.973 C297.559,271.932 297.559,271.892 297.562,271.851 L297.562,271.973 C297.557,271.937 297.557,271.9 297.562,271.863 L297.562,271.937 L297.612,271.851 L297.569,271.912 C297.586,271.891 297.607,271.872 297.63,271.857 L297.562,271.9 L297.63,271.863 L297.556,271.863 C297.594,271.851 297.63,271.832 297.661,271.808 C297.691,271.782 297.718,271.754 297.741,271.722 C297.768,271.645 297.768,271.561 297.741,271.483 C297.718,271.407 297.668,271.341 297.599,271.3 C297.527,271.256 297.44,271.245 297.359,271.269 L297.273,271.281 Z" id="Path" fill="#000000" fill-rule="nonzero"></path>
            <path d="M288.436,274.968 C287.662,274.861 286.935,274.536 286.341,274.031 C285.667,273.49 285.226,272.715 285.108,271.863 C285.055,271.48 285.171,271.092 285.426,270.8 C285.681,270.508 286.05,270.34 286.439,270.338 C287.225,270.385 287.915,270.875 288.214,271.6 C288.393,271.949 288.923,271.642 288.744,271.287 C288.418,270.585 287.813,270.048 287.074,269.805 C286.352,269.589 285.569,269.779 285.028,270.301 C283.796,271.606 284.874,273.627 286.045,274.588 C286.737,275.145 287.571,275.499 288.454,275.611 C288.621,275.611 288.762,275.458 288.762,275.305 C288.759,275.137 288.623,275.002 288.454,274.998 L288.436,274.968 Z" id="Path" fill="#000000" fill-rule="nonzero"></path>
            <path d="M286.181,271.845 C286.318,271.679 286.556,271.637 286.742,271.747 C286.949,271.869 287.125,272.039 287.253,272.243 C287.555,272.636 287.782,273.08 287.925,273.553 C287.925,273.651 288.103,273.608 288.073,273.516 C287.906,272.958 287.628,272.439 287.253,271.992 C287.105,271.777 286.888,271.619 286.637,271.544 C286.417,271.496 286.188,271.582 286.058,271.765 C286.002,271.851 286.138,271.924 286.187,271.845 L286.181,271.845 Z" id="Path" fill="#000000" fill-rule="nonzero"></path>
            <path d="M287,272.585 C287.005,272.541 287.03,272.5 287.068,272.475 C287.109,272.445 287.159,272.432 287.21,272.438 C287.334,272.461 287.445,272.531 287.518,272.634 C287.549,272.655 287.591,272.651 287.618,272.624 C287.645,272.597 287.649,272.556 287.629,272.524 C287.523,272.387 287.364,272.3 287.191,272.285 C287.031,272.281 286.89,272.388 286.852,272.543 C286.844,272.583 286.868,272.623 286.908,272.634 C286.926,272.64 286.947,272.638 286.964,272.629 C286.981,272.62 286.994,272.604 287,272.585 Z" id="Path" fill="#000000" fill-rule="nonzero"></path>
            <path d="M296.41,269.867 C296.487,269.777 296.571,269.695 296.663,269.622 L296.7,269.591 C296.7,269.591 296.651,269.628 296.7,269.591 L296.774,269.536 L296.928,269.444 L297.082,269.37 L297.125,269.37 L297.205,269.34 C297.321,269.299 297.441,269.27 297.563,269.254 C297.639,269.233 297.703,269.182 297.741,269.113 C297.785,269.044 297.796,268.959 297.772,268.881 C297.755,268.803 297.706,268.736 297.637,268.697 C297.559,268.666 297.473,268.666 297.396,268.697 C296.854,268.781 296.359,269.052 295.997,269.462 C295.877,269.582 295.877,269.777 295.997,269.897 C296.118,270.017 296.314,270.017 296.435,269.897 L296.41,269.867 Z" id="Path" fill="#000000" fill-rule="nonzero"></path>
            <path d="M297.618,262.659 C298.684,265.721 299.769,268.52 300.249,271.79 C300.438,272.841 300.798,273.855 301.315,274.791 C301.412,274.924 301.447,275.091 301.412,275.251 C301.377,275.411 301.274,275.549 301.131,275.63 L301.087,275.63 C300.771,275.802 300.572,276.129 300.564,276.487 C300.496,279.09 301.266,281.613 299.226,283.224 C296.934,285.061 293.021,284.24 290.599,282.703" id="Path" stroke="#000000" stroke-width="0.565931"></path>
            <path d="M298.173,276.175 C298.041,276.138 297.912,276.095 297.784,276.046 L297.741,276.046 L297.649,276.003 L297.452,275.905 C297.331,275.842 297.213,275.773 297.1,275.697 L296.934,275.58 L296.842,275.513 C296.722,275.395 296.529,275.395 296.41,275.513 C296.291,275.631 296.291,275.823 296.41,275.942 C296.886,276.344 297.443,276.641 298.043,276.811 C298.122,276.834 298.206,276.825 298.278,276.786 C298.349,276.747 298.402,276.681 298.425,276.603 C298.465,276.44 298.371,276.274 298.21,276.224 L298.173,276.175 Z" id="Path" fill="#000000" fill-rule="nonzero"></path>
            <path d="M291.912,283.505 C291.824,283.764 291.76,284.03 291.721,284.301 C291.647,284.705 291.591,285.103 291.53,285.526 C291.431,286.199 291.357,286.879 291.24,287.553 C291.166,287.939 291.764,288.104 291.856,287.718 C291.98,287.045 292.047,286.365 292.146,285.691 C292.208,285.287 292.269,284.883 292.343,284.466 C292.382,284.196 292.446,283.929 292.534,283.67 C292.578,283.506 292.482,283.338 292.319,283.29 C292.154,283.25 291.987,283.344 291.937,283.505 L291.912,283.505 Z" id="Path" fill="#000000" fill-rule="nonzero"></path>
            <path d="M282.027,286.58 C282.524,285.269 282.926,283.924 283.229,282.556 C283.559,281.115 283.996,279.701 284.535,278.324 C285.086,277.131 285.5,275.88 285.768,274.595 C285.836,274.209 285.244,274.043 285.152,274.435 C284.831,275.866 284.356,277.258 283.734,278.588 C283.446,279.346 283.204,280.121 283.007,280.909 C282.73,281.913 282.471,282.923 282.2,283.934 C282.006,284.728 281.763,285.509 281.473,286.273 C281.319,286.629 281.849,286.941 282.003,286.58 L282.027,286.58 Z" id="Path" fill="#000000" fill-rule="nonzero"></path>
            <path d="M290.962,283.07 C290.962,283.07 291.289,284.785 291.579,284.908 C291.868,285.03 292.09,284.075 292.09,284.075 L291.677,283.297" id="Path" fill="#000000" fill-rule="nonzero"></path>
            <path d="M287.999,270.748 C287.999,270.748 288.153,272.469 289.151,272.481 C290.149,272.493 294.974,267.582 295.313,264.667 C295.313,264.667 298.53,269.156 303.448,267.208 L303.448,264.318 C303.448,264.318 301.79,264.618 301.414,264.318 C301.414,264.318 303.263,263.816 303.694,263.019 L299.029,256.687 C299.029,256.687 296.872,259.48 293.859,259.137 C290.846,258.794 289.04,259.786 288.892,260.882 C286.787,260.657 284.666,261.124 282.853,262.211 C280.105,264.005 276.426,271.789 278.971,275.684 C281.516,279.579 282.323,281.557 283.056,281.955 C283.79,282.353 287.253,274.606 286.612,274.606 C285.971,274.606 283.531,271.887 285.201,270.534 C285.583,270.155 286.112,269.961 286.649,270.002 C287.187,270.043 287.68,270.316 287.999,270.748 Z" id="Path" fill="#000000" fill-rule="nonzero"></path>
            <path d="M443.382,275.648 C443.382,275.648 447.252,283.12 443.142,285.361 C439.032,287.602 430.743,286.586 432.45,277.4 C432.45,277.4 431.427,272.157 430.059,270.963 C428.691,269.769 427.323,270.351 427.083,271.821 C426.843,273.29 428.784,274.754 428.784,274.754 C428.784,274.754 427.372,277.951 426.374,278.631 C425.943,279.011 425.324,279.096 424.805,278.845 C424.287,278.594 423.972,278.057 424.008,277.485 C423.94,276.089 420.877,273.394 420.631,270.136 C420.631,270.136 418.32,271.618 418.419,268.979 C418.517,266.339 421.333,266.186 421.333,266.186 C421.333,266.186 418.573,267.411 418.973,265.341 C419.374,263.271 424.193,263.443 424.193,263.443 C424.193,263.443 423.792,263.094 423.841,261.048 C423.891,259.003 425.838,257.692 427.058,256.957 C429.708,255.365 428.907,260.099 428.907,260.099 C428.907,260.099 428.611,257.037 434.385,255.726 C440.159,254.416 442.902,256.51 443.703,258.255 C444.504,260.001 438.631,259.156 438.871,259.052 C439.112,258.948 444.676,256.112 445.379,258.807 C446.081,261.501 442.359,264.588 437.793,265.543 C437.793,265.543 439.093,266.045 437.793,267.338 C437.338,267.755 436.823,268.102 436.265,268.366 C434.156,269.425 433.13,271.848 433.843,274.086 C434.25,275.311 434.773,276.316 435.39,276.101 C436.949,275.526 438.07,272.653 443.382,275.648 Z" id="Path" fill="#000000" fill-rule="nonzero"></path>
            <path d="M442.44,261.979 C442.587,261.979 444.997,262.077 444.794,264.373 C444.59,266.67 441.595,267.619 441.595,267.619 C441.595,267.619 440.868,263.694 440.363,263.173" id="Path" fill="#000000" fill-rule="nonzero"></path>
            <path d="M435.84,286.671 C436.368,285.642 436.839,284.585 437.251,283.505 C437.295,283.336 437.193,283.163 437.023,283.119 C436.853,283.075 436.679,283.177 436.635,283.346 C436.241,284.374 435.79,285.38 435.285,286.359 C435.1,286.708 435.63,287.02 435.815,286.671 L435.84,286.671 Z" id="Path" fill="#000000" fill-rule="nonzero"></path>
            <path d="M415.165,331.819 C414.549,325.37 413.994,318.872 414.444,312.393 C414.643,309.161 415.163,305.957 415.997,302.827 C416.736,300.126 418.098,297.689 419.294,295.172 C420.409,292.808 421.531,290.211 421.376,287.541 C421.29,286.102 420.711,284.479 421.771,283.254 L421.839,283.187 C421.802,283.187 421.839,283.187 421.839,283.187 L421.937,283.187 C422.092,283.196 422.246,283.212 422.399,283.236 C423.689,283.462 424.964,283.758 426.22,284.124 C427.915,284.583 429.603,285.085 431.273,285.618 C432.678,286.059 434.089,286.518 435.464,287.057 C435.843,287.198 436.212,287.366 436.567,287.56 L436.634,287.602 C436.69,287.633 436.634,287.602 436.634,287.602 L436.678,287.639 C436.662,287.583 436.639,287.53 436.61,287.48 C436.591,287.596 436.591,287.713 436.61,287.829 L436.61,289.287 C436.61,289.456 436.748,289.593 436.918,289.593 C437.088,289.593 437.226,289.456 437.226,289.287 C437.263,288.675 437.263,288.061 437.226,287.449 C437.183,287.125 436.807,286.972 436.542,286.837 C435.366,286.317 434.16,285.868 432.931,285.49 C429.765,284.389 426.537,283.475 423.262,282.752 C422.831,282.65 422.392,282.584 421.95,282.556 C421.266,282.556 420.883,283.26 420.68,283.836 C420.187,285.288 420.803,286.837 420.742,288.313 C420.651,289.669 420.345,291.002 419.836,292.263 C418.825,294.964 417.328,297.456 416.225,300.114 C415.119,303.099 414.42,306.217 414.148,309.386 C413.328,316.031 413.766,322.749 414.358,329.388 C414.425,330.202 414.505,331.01 414.579,331.837 C414.616,332.229 415.233,332.229 415.196,331.837 L415.165,331.819 Z" id="Path" fill="#000000" fill-rule="nonzero"></path>
            <path d="M427.773,288.809 C427.773,288.809 438.921,285.416 450.364,298.687 C461.808,311.958 465.425,311.811 465.425,311.811 C465.425,311.811 484.288,296.758 485.896,296.678 C487.505,296.598 493.02,301.449 491.966,306.121 C491.966,306.121 479.678,321.952 470.244,326.882 C460.809,331.812 436.967,312.754 436.967,312.754" id="Path" stroke="#000000" stroke-width="0.565931"></path>
            <path d="M450.944,322.191 C450.944,322.191 450.328,327.636 450.944,329.332 C451.56,331.028 451.776,331.831 451.776,331.831" id="Path" stroke="#000000" stroke-width="0.565931"></path>
            <path d="M497.864,294.633 L496.915,295.417 C496.86,295.475 496.829,295.551 496.828,295.631 C496.825,295.713 496.856,295.793 496.915,295.851 C496.973,295.909 497.054,295.941 497.137,295.937 C497.211,295.933 497.282,295.905 497.34,295.857 L498.289,295.074 C498.349,295.016 498.383,294.936 498.381,294.853 C498.378,294.773 498.345,294.696 498.289,294.639 C498.232,294.582 498.154,294.549 498.073,294.547 C497.991,294.553 497.913,294.585 497.851,294.639 L497.864,294.633 Z" id="Path" fill="#000000" fill-rule="nonzero"></path>
            <path d="M440.474,276.175 C440.342,276.139 440.212,276.096 440.085,276.046 L440.036,276.046 L439.944,276.003 L439.747,275.905 C439.624,275.845 439.506,275.776 439.395,275.697 L439.229,275.581 L439.143,275.513 C439.068,275.425 438.95,275.386 438.837,275.413 C438.725,275.439 438.636,275.525 438.608,275.637 C438.58,275.749 438.618,275.866 438.705,275.942 C439.183,276.344 439.742,276.641 440.344,276.811 C440.423,276.834 440.507,276.825 440.579,276.786 C440.65,276.747 440.703,276.681 440.726,276.603 C440.767,276.44 440.672,276.274 440.511,276.224 L440.474,276.175 Z" id="Path" fill="#FFFFFF" fill-rule="nonzero"></path>
            <path d="M280.862,267.717 C280.862,267.717 282.021,256.883 271.804,256.4 C261.587,255.916 255.775,253.374 255.775,253.374 C255.775,253.374 254.198,261.017 255.159,263.363 C257.047,263.681 258.957,263.855 260.872,263.883 L255.4,265.108 C255.4,265.108 256.632,270.773 260.268,274.527 C260.268,274.527 267.928,267.043 273.4,267.405 C278.872,267.766 280.918,270.185 280.918,270.185" id="Path" fill="#000000" fill-rule="nonzero"></path>
            <path d="M280.906,288.35 C280.906,288.35 275.514,301.253 274.743,314.285 C273.973,327.318 272.895,331.813 272.895,331.813" id="Path" stroke="#000000" stroke-width="0.565931"></path>
            <path d="M280.252,286.427 C280.524,286.218 291.56,286.555 293.372,288.944 L292.756,292.073 C292.756,292.073 302.616,294.731 304.735,307.102 C306.855,319.473 312.364,331.813 312.364,331.813" id="Path" stroke="#000000" stroke-width="0.565931"></path>
            <path d="M281.762,309.092 C281.59,309.895 285.028,310.697 284.782,315.884 C284.535,321.071 284.782,331.807 284.782,331.807" id="Path" stroke="#000000" stroke-width="0.565931"></path>
            <path d="M499.215,282.575 C499.466,281.484 500.553,280.801 501.645,281.049 L502.001,281.13 C503.092,281.378 503.773,282.463 503.522,283.553 L496.934,312.183 C496.684,313.274 495.596,313.957 494.505,313.709 L494.149,313.628 C493.057,313.38 492.376,312.295 492.627,311.204 L499.215,282.575 Z" id="Path" fill="#000000" fill-rule="nonzero"></path>
            <path d="M496.829,292.183 C496.829,292.183 494.931,294.48 496.976,294.284 C499.022,294.088 501.906,293.132 501.906,293.592 C501.906,294.051 503.533,303.905 499.441,303.666 C495.35,303.427 493.513,304.144 493.513,304.144" id="Path" fill="#F4F4F4" fill-rule="nonzero"></path>
            <path d="M487.887,297.848 C488.836,297.337 489.674,296.644 490.352,295.808 C491.11,294.969 491.831,294.1 492.638,293.304 C494.197,291.773 496.335,290.419 498.628,291.001 C498.798,291.047 498.973,290.947 499.019,290.777 C499.065,290.608 498.964,290.434 498.794,290.389 C496.539,289.819 494.326,290.921 492.687,292.397 C491.817,293.222 490.994,294.095 490.222,295.012 C489.504,295.947 488.6,296.724 487.566,297.297 C487.209,297.468 487.523,297.995 487.88,297.829 L487.887,297.848 Z" id="Path" fill="#000000" fill-rule="nonzero"></path>
            <path d="M496.181,294.688 L500.033,294.168 C501.183,294.087 502.312,293.816 503.373,293.365 C503.724,293.188 503.416,292.661 503.059,292.839 C501.998,293.269 500.874,293.526 499.731,293.598 L496.033,294.1 C495.645,294.155 495.812,294.743 496.2,294.713 L496.181,294.688 Z" id="Path" fill="#000000" fill-rule="nonzero"></path>
            <path d="M501.259,302.22 C499.755,302.992 498.011,303.12 496.366,303.347 C494.918,303.549 493.174,303.549 492.052,304.572 C491.757,304.829 492.188,305.264 492.484,305.001 C493.076,304.554 493.783,304.285 494.523,304.223 C495.343,304.094 496.169,303.99 496.988,303.88 C498.578,303.766 500.137,303.385 501.598,302.753 C501.949,302.569 501.635,302.043 501.284,302.22 L501.259,302.22 Z" id="Path" fill="#000000" fill-rule="nonzero"></path>
            <path d="M500.994,300.334 L501.992,300.083 C502.072,300.062 502.14,300.009 502.18,299.938 C502.221,299.867 502.231,299.782 502.208,299.703 C502.16,299.544 501.995,299.449 501.832,299.489 L500.828,299.74 C500.664,299.788 500.568,299.956 500.612,300.12 C500.663,300.28 500.83,300.374 500.994,300.334 Z" id="Path" fill="#000000" fill-rule="nonzero"></path>
            <path d="M501.259,297.297 C501.456,297.276 501.651,297.233 501.838,297.168 C502.025,297.103 502.205,297.019 502.374,296.917 C502.47,296.861 502.529,296.759 502.528013,296.649 C502.527,296.538 502.467,296.437 502.371,296.382 C502.274,296.328 502.156,296.328 502.06,296.384 C501.952,296.453 501.839,296.512 501.721,296.562 L501.795,296.562 C501.598,296.643 501.39,296.698 501.179,296.727 L501.259,296.727 C501.178,296.732 501.102,296.764 501.043,296.819 C500.985,296.877 500.952,296.955 500.952,297.036 C500.952,297.118 500.985,297.196 501.043,297.254 C501.1,297.312 501.178,297.343 501.259,297.34 L501.259,297.297 Z" id="Path" fill="#000000" fill-rule="nonzero"></path>
            <path d="M404.904,275.274 L407.493,275.274 C407.936,275.274 408.36,275.449 408.674,275.76 C408.987,276.072 409.163,276.494 409.163,276.934 L409.163,286.732 C409.163,287.173 408.987,287.595 408.674,287.906 C408.36,288.217 407.936,288.392 407.493,288.392 L400.221,288.392 C397.869,288.392 395.963,286.497 395.963,284.16 C395.976,279.258 399.972,275.288 404.904,275.274 Z" id="Path" fill="#CCCCCC" fill-rule="nonzero"></path>
            <path d="M404.904,275.274 L407.493,275.274 C407.936,275.274 408.36,275.449 408.674,275.76 C408.987,276.072 409.163,276.494 409.163,276.934 L409.163,286.732 C409.163,287.173 408.987,287.595 408.674,287.906 C408.36,288.217 407.936,288.392 407.493,288.392 L400.221,288.392 C397.869,288.392 395.963,286.497 395.963,284.16 C395.976,279.258 399.972,275.288 404.904,275.274 L404.904,275.274 Z" id="Path" stroke="#000000" stroke-width="0.565931"></path>
            <line x1="403.087" y1="291.975" x2="403.087" y2="288.582" id="Path" stroke="#000000" stroke-width="0.565931"></line>
            <path d="M265.999,275.274 L268.587,275.274 C269.509,275.274 270.257,276.017 270.257,276.934 L270.257,286.732 C270.257,287.649 269.509,288.392 268.587,288.392 L261.322,288.392 C258.97,288.392 257.063,286.497 257.063,284.16 C257.077,279.261 261.069,275.291 265.999,275.274 L265.999,275.274 Z" id="Path" fill="#CCCCCC" fill-rule="nonzero"></path>
            <path d="M265.999,275.274 L268.587,275.274 C269.509,275.274 270.257,276.017 270.257,276.934 L270.257,286.732 C270.257,287.649 269.509,288.392 268.587,288.392 L261.322,288.392 C258.97,288.392 257.063,286.497 257.063,284.16 C257.077,279.261 261.069,275.291 265.999,275.274 L265.999,275.274 Z" id="Path" stroke="#000000" stroke-width="0.565931"></path>
            <line x1="264.156" y1="291.975" x2="264.156" y2="288.582" id="Path" stroke="#000000" stroke-width="0.565931"></line>
            <path d="M451.775,322.638 C451.775,322.424 446.291,319.368 446.291,319.368 C446.291,319.368 438.723,331.812 437.922,331.812 L447.893,331.812 C447.893,331.812 451.954,324.065 451.775,322.638 Z" id="Path" fill="#000000" fill-rule="nonzero"></path>
            <path d="M274.331,298.154 C274.331,298.154 276.487,298.405 277.492,299.103 C277.886,299.379 277.245,299.532 277.245,299.532 L275.397,308.436 L274.965,301.369 L274.331,298.154 Z" id="Path" fill="#000000" fill-rule="nonzero"></path>
            <path d="M283.722,311.4 C283.722,311.4 283.383,321.683 282.68,324.077 C281.978,326.472 275.55,331.812 275.55,331.812 L283.278,331.812 C283.278,331.812 285.336,332.706 285.04,331.114 C284.745,329.522 285.712,312.337 283.722,311.4 L283.722,311.4 Z" id="Path" fill="#000000" fill-rule="nonzero"></path>
            <path d="M305.321,310.078 C305.321,310.078 303.355,315.547 301.426,317.243 C301.426,317.243 301.704,331.708 301.901,331.329 C302.098,330.949 308.026,318.064 308.125,316.367 C308.223,314.671 307.441,308.504 305.321,310.078 Z" id="Path" fill="#000000" fill-rule="nonzero"></path>
            <path d="M438.385,313.856 C438.385,313.856 443.549,321.07 444.849,325.259 C446.149,329.448 450.944,329.314 450.944,329.314 L450.666,324.524 C450.666,324.524 449.113,320.96 447.702,320.164 C446.291,319.368 438.385,313.856 438.385,313.856 Z" id="Path" fill="#000000" fill-rule="nonzero"></path>
            <polygon id="Path" fill="#000000" fill-rule="nonzero" points="332.24 237.88 337.86 237.88 337.86 243.465 332.24 243.465"></polygon>
            <polyline id="Path" stroke="#000000" stroke-width="0.565931" points="335.05 240.673 335.05 226.875 323.311 226.875"></polyline>
            <polygon id="Path" fill="#000000" fill-rule="nonzero" points="425.957 243.466 420.336 243.466 420.336 237.88 425.957 237.88"></polygon>
            <polyline id="Path" stroke="#000000" stroke-width="0.565931" points="423.147 240.673 423.147 226.875 434.88 226.875"></polyline>
            <path d="M465.117,312.025 C465.441,312.195 465.794,312.303 466.158,312.344 C466.324,312.353 466.491,312.353 466.657,312.344 L466.898,312.344 C466.935,312.344 466.941,312.344 466.898,312.344 L466.965,312.344 L467.095,312.387 C467.258,312.43 467.426,312.334 467.471,312.172 C467.514,312.008 467.419,311.84 467.255,311.793 C466.923,311.71 466.58,311.679 466.238,311.701 L466.121,311.701 L466.053,311.701 L465.819,311.646 C465.676,311.605 465.538,311.55 465.406,311.48 C465.311,311.411 465.185,311.403 465.081,311.457 C464.977,311.512 464.913,311.621 464.917,311.737 C464.921,311.854 464.991,311.959 465.098,312.007 L465.117,312.025 Z" id="Path" fill="#000000" fill-rule="nonzero"></path>
            <path d="M301.167,313.752 L301.303,321.377 C301.277,323.834 301.43,326.29 301.759,328.726 C301.827,329.112 302.418,328.946 302.375,328.561 C302.051,326.125 301.905,323.668 301.938,321.212 L301.802,313.74 C301.802,313.571 301.664,313.434 301.494,313.434 C301.324,313.434 301.186,313.571 301.186,313.74 L301.167,313.752 Z" id="Path" fill="#000000" fill-rule="nonzero"></path>
            <path d="M279.501,294.474 C280.345,294.719 281.011,295.367 281.275,296.201 C281.65,297.085 281.676,298.078 281.349,298.981 C280.97,299.66 280.401,300.216 279.71,300.579 C278.989,301.151 278.05,301.375 277.147,301.192 C277.048,301.161 277.011,301.308 277.103,301.339 C278.023,301.547 278.988,301.34 279.741,300.775 C280.636,300.393 281.323,299.648 281.628,298.729 C281.933,297.809 281.827,296.804 281.337,295.968 C281.021,295.181 280.357,294.584 279.538,294.351 C279.498,294.348 279.462,294.374 279.453,294.412 C279.444,294.45 279.464,294.489 279.501,294.504 L279.501,294.474 Z" id="Path" fill="#000000" fill-rule="nonzero"></path>
            <path d="M281.497,289.268 C282.617,289.674 283.855,289.621 284.936,289.121 C285.821,288.672 286.395,287.786 286.439,286.8 C286.439,286.702 286.291,286.702 286.285,286.8 C286.237,287.757 285.664,288.61 284.794,289.023 C283.76,289.468 282.593,289.503 281.534,289.121 C281.442,289.09 281.399,289.237 281.497,289.268 Z" id="Path" fill="#000000" fill-rule="nonzero"></path>
            <path d="M290.285,296.47 C288.72,296.519 287.475,298.111 287.413,299.593 C287.351,301.179 288.732,302.563 290.001,303.323 C291.294,304.192 292.977,304.237 294.315,303.439 C295.558,302.576 295.984,300.942 295.319,299.587 C294.91,298.678 294.314,297.864 293.569,297.198 C292.974,296.544 292.07,296.259 291.203,296.451 C291.111,296.451 291.148,296.629 291.246,296.598 C292.83,296.151 294.204,297.897 294.9,299.091 C295.646,300.377 295.763,302.073 294.518,303.102 C293.408,303.955 291.903,304.1 290.648,303.476 C289.284,302.897 288.216,301.792 287.69,300.414 C287.222,298.791 288.547,296.684 290.309,296.629 C290.344,296.619 290.368,296.588 290.368,296.552 C290.368,296.517 290.344,296.486 290.309,296.476 L290.285,296.47 Z" id="Path" fill="#000000" fill-rule="nonzero"></path>
            <path d="M302.973,302.423 C302.124,302.974 301.4,303.696 300.847,304.542 C300.391,305.404 300.298,306.41 300.588,307.34 C300.837,308.201 301.324,308.975 301.993,309.576 C302.322,309.878 302.694,310.132 303.096,310.329 C303.626,310.586 304.218,310.684 304.729,310.978 C304.809,311.027 304.889,310.892 304.803,310.843 C304.386,310.642 303.953,310.474 303.509,310.341 C303.077,310.174 302.673,309.94 302.313,309.649 C301.619,309.09 301.097,308.347 300.81,307.506 C300.46,306.56 300.524,305.511 300.988,304.615 C301.531,303.797 302.236,303.097 303.059,302.557 C303.139,302.496 303.059,302.361 302.985,302.423 L302.973,302.423 Z" id="Path" fill="#000000" fill-rule="nonzero"></path>
            <path d="M285.078,313.813 C286.236,313.293 287.641,314.052 288.491,314.83 C289.359,315.571 289.77,316.711 289.576,317.831 C289.206,319.821 286.655,322.552 284.467,321.297 C284.444,321.284 284.416,321.284 284.393,321.297 C284.37,321.311 284.356,321.335 284.356,321.362 C284.356,321.388 284.37,321.412 284.394,321.426 C286.242,322.491 288.325,320.77 289.212,319.227 C289.717,318.411 289.891,317.435 289.699,316.496 C289.45,315.614 288.893,314.85 288.128,314.34 C287.253,313.728 286.057,313.201 284.997,313.679 C284.911,313.721 284.997,313.856 285.078,313.813 Z" id="Path" fill="#000000" fill-rule="nonzero"></path>
            <path d="M298.08,316.679 C296.492,316.635 295.054,317.604 294.506,319.086 C294.173,319.79 294.034,320.571 294.106,321.346 C294.249,322.081 294.696,322.723 295.338,323.116 C296.571,324.053 298.259,324.916 299.806,324.175 C301.106,323.563 301.574,321.971 301.587,320.635 C301.663,319.018 300.949,317.462 299.67,316.459 C299.59,316.404 299.51,316.538 299.59,316.594 C300.666,317.416 301.327,318.664 301.402,320.011 C301.519,321.236 301.297,322.718 300.348,323.612 C299.153,324.739 297.396,324.285 296.152,323.495 C295.476,323.146 294.903,322.629 294.488,321.995 C294.185,321.248 294.185,320.414 294.488,319.668 C294.987,318.082 296.336,316.679 298.111,316.832 C298.21,316.832 298.21,316.692 298.111,316.679 L298.08,316.679 Z" id="Path" fill="#000000" fill-rule="nonzero"></path>
            <path d="M284.671,329.173 C285.237,328.816 285.899,328.639 286.569,328.664 C287.239,328.612 287.914,328.655 288.572,328.793 C289.237,329.01 289.803,329.455 290.168,330.048 C290.58,330.624 290.95,331.23 291.338,331.825 C291.394,331.904 291.523,331.825 291.468,331.745 C291.036,331.077 290.63,330.379 290.143,329.748 C289.769,329.224 289.232,328.836 288.615,328.646 C287.927,328.499 287.22,328.456 286.519,328.517 C285.84,328.494 285.169,328.678 284.597,329.044 C284.517,329.099 284.597,329.234 284.671,329.173 Z" id="Path" fill="#000000" fill-rule="nonzero"></path>
            <path d="M298.654,331.549 C299.111,330.803 299.762,330.194 300.539,329.785 C300.625,329.742 300.539,329.608 300.459,329.657 C299.658,330.083 298.989,330.718 298.524,331.494 C298.502,331.529 298.513,331.576 298.549,331.598 C298.584,331.62 298.631,331.609 298.654,331.573 L298.654,331.549 Z" id="Path" fill="#000000" fill-rule="nonzero"></path>
            <path d="M308.421,323.845 C307.41,325.174 306.652,326.839 307.084,328.536 C307.402,329.995 308.768,330.987 310.263,330.845 C310.362,330.845 310.319,330.685 310.226,330.698 C308.649,330.918 307.404,329.62 307.145,328.162 C306.893,326.607 307.614,325.1 308.532,323.924 C308.593,323.845 308.458,323.765 308.402,323.845 L308.421,323.845 Z" id="Path" fill="#000000" fill-rule="nonzero"></path>
            <path d="M275.372,313.66 C277.758,314.186 279.397,316.37 279.223,318.793 C279.1,319.989 278.549,321.102 277.67,321.928 C276.66,322.871 275.285,323.208 273.973,323.514 C273.874,323.514 273.917,323.686 274.016,323.667 C275.158,323.465 276.252,323.049 277.239,322.443 C278.019,321.895 278.628,321.139 278.995,320.262 C279.736,318.525 279.408,316.52 278.151,315.106 C277.436,314.29 276.477,313.724 275.415,313.489 C275.316,313.489 275.273,313.618 275.372,313.636 L275.372,313.66 Z" id="Path" fill="#000000" fill-rule="nonzero"></path>
            <path d="M274.577,331.53 C274.934,330.06 275.711,328.517 277.245,327.984 C278.78,327.452 280.326,328.284 281.473,329.27 C281.547,329.332 281.657,329.228 281.577,329.16 C280.413,328.137 278.78,327.323 277.202,327.837 C275.625,328.352 274.799,329.962 274.423,331.512 C274.423,331.61 274.552,331.653 274.577,331.555 L274.577,331.53 Z" id="Path" fill="#000000" fill-rule="nonzero"></path>
            <path d="M481.201,311.339 C481.035,311.529 480.932,311.764 480.905,312.013 C480.908,312.225 481.039,312.414 481.238,312.491 C481.459,312.57 481.638,312.411 481.731,312.215 C481.861,311.984 481.915,311.719 481.885,311.456 C481.847,311.214 481.643,311.033 481.398,311.021 C481.363,311.031 481.34,311.062 481.34,311.098 C481.34,311.133 481.363,311.164 481.398,311.174 C481.562,311.182 481.7,311.301 481.731,311.462 C481.771,311.671 481.738,311.887 481.638,312.074 C481.583,312.209 481.49,312.423 481.311,312.374 C481.162,312.329 481.06,312.193 481.059,312.038 C481.084,311.809 481.181,311.595 481.336,311.425 C481.392,311.346 481.262,311.272 481.201,311.352 L481.201,311.339 Z" id="Path" fill="#000000" fill-rule="nonzero"></path>
            <path d="M484.683,308.002 C484.517,308.191 484.414,308.426 484.387,308.675 C484.389,308.886 484.521,309.074 484.719,309.147 C484.941,309.233 485.12,309.074 485.213,308.878 C485.341,308.646 485.397,308.382 485.373,308.118 C485.329,307.877 485.126,307.696 484.88,307.677 C484.781,307.677 484.781,307.836 484.88,307.83 C485.044,307.844 485.18,307.963 485.213,308.124 C485.252,308.333 485.22,308.549 485.12,308.737 C485.065,308.871 484.972,309.086 484.793,309.037 C484.644,308.991 484.542,308.855 484.541,308.7 C484.566,308.472 484.663,308.257 484.818,308.088 C484.874,308.008 484.744,307.934 484.683,308.014 L484.683,308.002 Z" id="Path" fill="#000000" fill-rule="nonzero"></path>
            <path d="M488.164,304.664 C487.998,304.854 487.895,305.089 487.868,305.338 C487.87,305.549 488.002,305.736 488.201,305.81 C488.423,305.895 488.601,305.73 488.694,305.54 C488.826,305.31 488.882,305.044 488.854,304.781 C488.812,304.538 488.608,304.356 488.361,304.34 C488.327,304.35 488.303,304.381 488.303,304.416 C488.303,304.452 488.327,304.483 488.361,304.493 C488.526,304.506 488.661,304.626 488.694,304.787 C488.734,304.996 488.701,305.211 488.601,305.399 C488.546,305.534 488.454,305.742 488.275,305.699 C488.126,305.654 488.023,305.518 488.022,305.363 C488.047,305.134 488.144,304.92 488.3,304.75 C488.355,304.671 488.226,304.597 488.164,304.677 L488.164,304.664 Z" id="Path" fill="#000000" fill-rule="nonzero"></path>
            <line x1="335.826" y1="229.955" x2="423.147" y2="229.955" id="Path" stroke="#000000" stroke-width="0.565931"></line>
            <line x1="335.826" y1="235.693" x2="423.147" y2="235.693" id="Path" stroke="#000000" stroke-width="0.565931"></line>
            <line x1="370.864" y1="347.686" x2="370.864" y2="453.817" id="Path" stroke="#000000" stroke-width="0.565931"></line>
            <path d="M157.215,285.771 L210.753,285.771 C210.788,285.761 210.811,285.73 210.811,285.694 C210.811,285.659 210.788,285.628 210.753,285.618 L157.215,285.618 C157.18,285.628 157.157,285.659 157.157,285.694 C157.157,285.73 157.18,285.761 157.215,285.771 Z" id="Path" fill="#000000" fill-rule="nonzero"></path>
            <path d="M182.912,300.671 L191.748,300.671 C191.783,300.661 191.807,300.63 191.807,300.594 C191.807,300.559 191.783,300.528 191.748,300.518 L182.912,300.518 C182.877,300.528 182.854,300.559 182.854,300.594 C182.854,300.63 182.877,300.661 182.912,300.671 Z" id="Path" fill="#000000" fill-rule="nonzero"></path>
            <path d="M354.164,391.449 L480.048,391.449 C480.083,391.44 480.106,391.408 480.106,391.373 C480.106,391.337 480.083,391.306 480.048,391.296 L354.164,391.296 C354.129,391.306 354.105,391.337 354.105,391.373 C354.105,391.408 354.129,391.44 354.164,391.449 Z" id="Path" fill="#000000" fill-rule="nonzero"></path>
            <path d="M335.498,415.394 L413.76,415.394 C413.793,415.404 413.828,415.391 413.847,415.364 C413.867,415.336 413.867,415.299 413.847,415.272 C413.828,415.244 413.793,415.232 413.76,415.241 L335.498,415.241 C335.465,415.232 335.43,415.244 335.411,415.272 C335.391,415.299 335.391,415.336 335.411,415.364 C335.43,415.391 335.465,415.404 335.498,415.394 Z" id="Path" fill="#000000" fill-rule="nonzero"></path>
            <path d="M162.034,369.305 L210.821,369.305 C210.855,369.295 210.879,369.264 210.879,369.228 C210.879,369.193 210.855,369.161 210.821,369.152 L162.034,369.152 C161.999,369.161 161.976,369.193 161.976,369.228 C161.976,369.264 161.999,369.295 162.034,369.305 Z" id="Path" fill="#000000" fill-rule="nonzero"></path>
            <path d="M455.966,304.787 C455.966,304.787 458.899,306.839 461.709,306.447 C464.519,306.055 480.048,294.394 480.048,294.394 C480.308,294.12 480.67,293.964 481.05,293.964 C481.429,293.964 481.791,294.12 482.051,294.394 C482.844,295.357 483.488,296.433 483.961,297.585" id="Path" stroke="#000000" stroke-width="0.565931"></path>
            <path d="M493.137,288.129 C491.027,288.716 489.008,289.588 487.135,290.719 C485.415,291.68 483.825,292.852 482.402,294.21 C482.119,294.486 482.556,294.92 482.84,294.639 C484.227,293.323 485.773,292.183 487.443,291.246 C489.271,290.141 491.243,289.29 493.304,288.717 C493.414,288.687 493.5,288.601 493.529,288.492 C493.558,288.382 493.526,288.266 493.446,288.186 C493.365,288.106 493.247,288.075 493.137,288.104 L493.137,288.129 Z" id="Path" fill="#000000" fill-rule="nonzero"></path>
            <path d="M487.202,293.91 C487.824,293.804 488.463,293.867 489.051,294.094 C489.359,294.198 489.667,294.314 489.957,294.443 C490.13,294.51 490.432,294.608 490.512,294.798 L491.072,294.565 L491.042,294.504 C490.957,294.357 490.768,294.306 490.62,294.391 C490.471,294.475 490.42,294.663 490.506,294.81 L490.542,294.871 C490.709,295.165 491.245,294.963 491.103,294.639 C490.975,294.341 490.734,294.105 490.432,293.983 C490.08,293.818 489.711,293.677 489.347,293.549 C488.612,293.257 487.808,293.179 487.03,293.322 C486.642,293.408 486.808,294.002 487.19,293.934 L487.202,293.91 Z" id="Path" fill="#000000" fill-rule="nonzero"></path>
            <path d="M490.678,291.834 C490.765,291.882 490.848,291.937 490.925,291.999 L490.863,291.95 C491.013,292.066 491.148,292.199 491.264,292.348 L491.221,292.287 C491.32,292.422 491.406,292.565 491.479,292.716 C491.518,292.785 491.582,292.835 491.658,292.857 C491.739,292.878 491.825,292.867 491.898,292.826 C491.968,292.786 492.019,292.72 492.04,292.642 C492.068,292.567 492.068,292.485 492.04,292.41 C491.823,291.945 491.466,291.559 491.017,291.307 C490.922,291.239 490.796,291.23 490.692,291.284 C490.588,291.339 490.524,291.448 490.528,291.564 C490.532,291.681 490.602,291.786 490.709,291.834 L490.678,291.834 Z" id="Path" fill="#000000" fill-rule="nonzero"></path>
            <path d="M368.894,160.967 C363.575,160.724 358.449,159.534 353.518,157.396 L353.518,145.3 C356.336,146.733 359.397,147.935 362.7,148.907 C366.004,149.854 368.906,150.328 371.408,150.328 C373.473,150.328 374.979,150.085 375.926,149.599 C376.898,149.089 377.384,148.251 377.384,147.085 C377.384,146.283 377.032,145.603 376.327,145.045 C375.647,144.486 374.493,143.854 372.866,143.15 C371.263,142.446 369.089,141.595 366.344,140.6 C363.259,139.458 360.769,138.183 358.874,136.774 C356.98,135.341 355.595,133.75 354.721,132.001 C353.871,130.228 353.446,128.029 353.446,125.406 C353.446,121.398 354.733,118.265 357.308,116.006 C359.883,113.747 363.745,112.35 368.894,111.815 L368.894,106.824 L376.436,106.824 L376.436,111.743 C381.27,112.01 386.14,113.2 391.047,115.313 L386.711,125.697 C381.635,123.414 377.056,122.272 372.975,122.272 C371.032,122.272 369.659,122.515 368.858,123.001 C368.081,123.463 367.692,124.155 367.692,125.078 C367.692,125.88 367.971,126.548 368.53,127.082 C369.113,127.592 370.109,128.175 371.518,128.831 C372.926,129.462 374.882,130.203 377.384,131.053 C382.46,132.851 386.104,134.903 388.314,137.211 C390.525,139.494 391.63,142.446 391.63,146.065 C391.63,150.146 390.33,153.461 387.731,156.012 C385.157,158.562 381.392,160.141 376.436,160.748 L376.436,167.78 L368.894,167.78 L368.894,160.967 Z" id="Path" fill="#44E0B7" fill-rule="nonzero"></path>
            <path d="M235.907,208.784 C235.907,210.17 234.784,211.293 233.399,211.293 C232.013,211.293 230.89,210.17 230.89,208.784 L235.907,208.784 Z M312.609,146.822 L287.094,160.529 L287.981,131.579 L312.609,146.822 Z M230.89,208.784 C230.89,194.803 231.414,183.678 232.997,174.898 C234.582,166.11 237.27,159.423 241.79,154.542 C246.336,149.633 252.469,146.834 260.358,145.294 C268.203,143.762 277.996,143.435 290.077,143.623 L289.999,148.639 C277.963,148.452 268.617,148.793 261.32,150.217 C254.067,151.633 249.056,154.08 245.471,157.951 C241.86,161.85 239.433,167.479 237.934,175.788 C236.434,184.105 235.907,194.859 235.907,208.784 L230.89,208.784 Z" id="Shape" fill="#CCCCCC" fill-rule="nonzero"></path>
            <path d="M434.036,144.799 C432.653,144.865 431.478,143.796 431.412,142.413 C431.346,141.029 432.414,139.854 433.798,139.788 L434.036,144.799 Z M499.578,218.467 L484.672,193.633 L513.632,193.141 L499.578,218.467 Z M433.798,139.788 C447.763,139.123 458.901,139.116 467.746,140.28 C476.6,141.445 483.406,143.812 488.497,148.095 C493.617,152.402 496.704,158.395 498.618,166.202 C500.522,173.965 501.314,183.731 501.701,195.807 L496.687,195.968 C496.301,183.937 495.516,174.617 493.746,167.397 C491.987,160.22 489.305,155.33 485.267,151.934 C481.201,148.513 475.463,146.355 467.092,145.254 C458.713,144.151 447.946,144.136 434.036,144.799 L433.798,139.788 Z" id="Shape" fill="#CCCCCC" fill-rule="nonzero"></path>
            <path d="M446.043,22.6562 C452.269,23.0651 465.218,23.3923 467.21,21.4293 C469.096,19.5711 478.569,19.0321 483.799,18.9799 C484.303,18.9748 484.742,18.6513 484.9,18.1736 C488.319,7.84548 497.051,-7.36295 507.313,6.5147 C507.801,7.17473 508.817,7.19193 509.372,6.58629 C514.461,1.02305 526.647,-3.14699 527.712,10.3485 L527.712,13.887 C527.712,14.885 528.943,15.4566 529.8,14.9466 C537.919,10.12 550.85,13.692 543.233,24.6461 C542.649,25.4869 543.259,26.7168 544.28,26.6472 L566.821,25.1103" id="Path" stroke="#181A1D" stroke-width="0.575133" stroke-linejoin="round"></path>
            <path d="M0.7017,383.351 L47.4909,383.351 L47.4909,340.93 L84.7449,340.93 L84.7449,160.315 L120.013,160.315 C130.056,160.315 139.687,164.309 146.787,171.412 L156.611,181.236 L156.611,246.055 L183.183,246.055 L183.183,254.645" id="Path" stroke="#181A1D" stroke-width="1.15027"></path>
            <path d="M860.835,383.209 L837.272,383.209 L837.272,406.213 L797.068,406.213 L797.068,254.674 L763.824,254.674 L763.824,186.655 L746.181,169.011 L724.729,169.011 L724.729,119.483999 L689.355,119.483999 C653.695,119.478 624.761,148.343 624.681,184.003 C624.623,210.286 624.643,234.784 624.932,235.604 L624.932,306.346 L596.849,306.346" id="Path" stroke="#181A1D" stroke-width="1.15027"></path>
        </g>
    </g>
</svg>