<?xml version="1.0" encoding="UTF-8"?>
<svg width="510px" height="591px" viewBox="0 0 510 591" version="1.1" xmlns="http://www.w3.org/2000/svg" xmlns:xlink="http://www.w3.org/1999/xlink">
    <title>bg-pattern-01</title>
    <g id="bg-pattern-01" stroke="none" stroke-width="1" fill="none" fill-rule="evenodd">
        <g id="Group" opacity="0.5" transform="translate(0.000000, 28.000000)" fill="#6B29D1" fill-rule="nonzero">
            <g opacity="0.12" transform="translate(6.000000, 115.000000)" id="Path">
                <path d="M211.407,70.21 C209.281,72.28 209.418,75.52 211.714,77.45 C214.009,79.38 217.602,79.27 219.698,77.2 C221.824,75.14 221.688,71.92 219.393,69.99 C217.096,68.04 213.534,68.15 211.407,70.21 Z"></path>
                <path d="M184.313,47.56 C182.187,49.62 182.324,52.87 184.62,54.8 C186.915,56.72 190.508,56.61 192.635,54.55 C194.761,52.48 194.624,49.24 192.328,47.31 C190.033,45.38 186.44,45.49 184.313,47.56 Z"></path>
                <path d="M157.218,24.88 C155.091,26.94 155.229,30.19 157.523,32.09 C159.819,34.02 163.412,33.9 165.507,31.84 C167.634,29.77 167.497,26.53 165.202,24.63 C162.937,22.7 159.345,22.81 157.218,24.88 Z"></path>
                <path d="M130.154,2.22 C128.028,4.29 128.165,7.53 130.459,9.43 C132.754,11.33 136.348,11.25 138.444,9.19 C140.57,7.12 140.433,3.88 138.139,1.97 C135.844,0.07 132.281,0.16 130.154,2.22 Z"></path>
                <path d="M186.206,94.6 C184.08,96.66 184.217,99.91 186.511,101.81 C188.807,103.74 192.4,103.63 194.496,101.56 C196.622,99.5 196.486,96.28 194.191,94.35 C191.926,92.42 188.333,92.53 186.206,94.6 Z"></path>
                <path d="M159.141,71.91 C157.015,73.98 157.152,77.22 159.447,79.13 C161.742,81.05 165.304,80.94 167.431,78.88 C169.557,76.81 169.421,73.6 167.126,71.67 C164.83,69.74 161.237,69.85 159.141,71.91 Z"></path>
                <path d="M132.047,49.26 C129.921,51.33 130.058,54.57 132.354,56.5 C134.649,58.43 138.211,58.32 140.338,56.25 C142.464,54.19 142.327,50.94 140.032,49.01 C137.736,47.09 134.174,47.2 132.047,49.26 Z"></path>
                <path d="M104.952,26.58 C102.8253,28.65 102.9626,31.89 105.258,33.82 C107.554,35.75 111.147,35.64 113.242,33.57 C115.338,31.51 115.232,28.26 112.936,26.33 C110.671,24.4 107.078,24.51 104.952,26.58 Z"></path>
                <path d="M77.8884,3.92 C75.7619,5.99 75.8992,9.24 78.1935,11.14 C80.489,13.06 84.0512,12.95 86.1778,10.89 C88.3043,8.82 88.167,5.58 85.8726,3.68 C83.5771,1.75 80.0149,1.86 77.8884,3.92 Z"></path>
                <path d="M161.034,118.95 C158.908,121.02 159.045,124.26 161.34,126.19 C163.636,128.12 167.229,128.01 169.355,125.94 C171.482,123.88 171.345,120.63 169.049,118.71 C166.723,116.78 163.13,116.89 161.034,118.95 Z"></path>
                <path d="M133.94,96.3 C131.814,98.37 131.951,101.61 134.245,103.51 C136.541,105.44 140.134,105.33 142.23,103.26 C144.356,101.2 144.22,97.98 141.925,96.05 C139.66,94.12 136.067,94.23 133.94,96.3 Z"></path>
                <path d="M106.845,73.62 C104.718,75.68 104.856,78.93 107.15,80.83 C109.446,82.76 113.038,82.65 115.165,80.58 C117.292,78.52 117.155,75.3 114.86,73.37 C112.564,71.44 108.971,71.55 106.845,73.62 Z"></path>
                <path d="M79.7815,50.96 C77.6549,53.03 77.7922,56.27 80.0878,58.2 C82.3833,60.13 85.9455,60.02 88.072,57.96 C90.1985,55.89 90.0624,52.67 87.7669,50.75 C85.4702,48.79 81.908,48.9 79.7815,50.96 Z"></path>
                <path d="M52.686,28.28 C50.5595,30.35 50.6968,33.59 52.9923,35.52 C55.2878,37.45 58.85,37.34 60.9765,35.28 C63.103,33.21 62.9657,29.96 60.6702,28.04 C58.4054,26.11 54.8125,26.22 52.686,28.28 Z"></path>
                <path d="M135.833,143.34 C133.706,145.4 133.844,148.65 136.139,150.58 C138.435,152.51 141.997,152.4 144.124,150.33 C146.25,148.27 146.114,145.05 143.818,143.12 C141.552,141.16 137.959,141.27 135.833,143.34 Z"></path>
                <path d="M108.737,120.66 C106.611,122.72 106.748,125.97 109.044,127.9 C111.339,129.83 114.902,129.72 117.028,127.65 C119.155,125.58 119.017,122.34 116.722,120.41 C114.458,118.51 110.865,118.62 108.737,120.66 Z"></path>
                <path d="M81.6743,98 C79.5478,100.07 79.6851,103.31 81.9795,105.22 C84.275,107.14 87.8679,107.03 89.9945,104.97 C92.121,102.9 91.9837,99.66 89.6893,97.76 C87.3631,95.83 83.8009,95.94 81.6743,98 Z"></path>
                <path d="M54.5789,75.32 C52.4524,77.39 52.5897,80.63 54.884,82.53 C57.1796,84.46 60.7418,84.35 62.8683,82.29 C64.9948,80.22 64.8575,76.98 62.5632,75.08 C60.2984,73.15 56.7055,73.26 54.5789,75.32 Z"></path>
                <path d="M27.5153,52.67 C25.3887,54.73 25.526,57.98 27.8204,59.88 C30.1159,61.81 33.7088,61.7 35.8046,59.63 C37.9312,57.57 37.795,54.35 35.4995,52.42 C33.204,50.49 29.6418,50.6 27.5153,52.67 Z"></path>
                <path d="M110.662,167.72 C108.536,169.79 108.673,173.03 110.967,174.94 C113.263,176.86 116.856,176.75 118.952,174.69 C121.078,172.62 120.941,169.38 118.646,167.48 C116.351,165.55 112.758,165.66 110.662,167.72 Z"></path>
                <path d="M83.5672,145.04 C81.4406,147.11 81.578,150.35 83.8723,152.25 C86.1678,154.18 89.7607,154.07 91.8566,152.01 C93.9831,149.94 93.847,146.72 91.5514,144.8 C89.2559,142.87 85.6937,142.98 83.5672,145.04 Z"></path>
                <path d="M56.4717,122.36 C54.3452,124.43 54.4825,127.67 56.7769,129.57 C59.0724,131.5 62.6653,131.39 64.7612,129.33 C66.8877,127.26 66.7516,124.04 64.456,122.12 C62.1924,120.21 58.5995,120.32 56.4717,122.36 Z"></path>
                <path d="M29.4084,99.71 C27.2819,101.77 27.4192,105.02 29.7147,106.95 C32.0102,108.87 35.6031,108.76 37.6989,106.7 C39.8255,104.63 39.6882,101.39 37.3927,99.46 C35.0971,97.53 31.535,97.64 29.4084,99.71 Z"></path>
                <path d="M2.31294,77.03 C0.18641,79.09 0.32371,82.34 2.61923,84.26 C4.914744,86.19 8.50763,86.08 10.60345,84.02 C12.72998,81.95 12.59268,78.71 10.29716,76.78 C8.03235,74.85 4.439468,74.96 2.31294,77.03 Z"></path>
                <path d="M85.4596,192.08 C83.333,194.15 83.4703,197.39 85.7659,199.32 C88.0614,201.25 91.6543,201.14 93.7501,199.07 C95.8459,197.01 95.7393,193.76 93.4438,191.84 C91.179,189.91 87.5861,190.02 85.4596,192.08 Z"></path>
                <path d="M58.3659,169.43 C56.2393,171.49 56.3766,174.74 58.6722,176.67 C60.9677,178.6 64.5606,178.49 66.6871,176.42 C68.8136,174.35 68.6763,171.11 66.3808,169.18 C64.0853,167.25 60.4924,167.36 58.3659,169.43 Z"></path>
                <path d="M31.3013,146.75 C29.1748,148.81 29.3121,152.06 31.6064,153.96 C33.902,155.89 37.4642,155.78 39.5907,153.71 C41.7173,151.65 41.5811,148.43 39.2856,146.5 C36.9901,144.57 33.4279,144.68 31.3013,146.75 Z"></path>
                <path d="M4.206854,124.09 C2.08031,126.16 2.21762,129.4 4.511974,131.3 C6.8075,133.23 10.40041,133.12 12.49624,131.06 C14.6228,128.99 14.4866,125.77 12.19112,123.85 C9.9263,121.92 6.33339,122.03 4.206854,124.09 Z"></path>
                <path d="M60.2583,216.47 C58.1318,218.53 58.2691,221.78 60.5634,223.68 C62.8589,225.61 66.4518,225.5 68.5477,223.43 C70.6742,221.37 70.5381,218.15 68.2426,216.22 C65.9777,214.29 62.3848,214.4 60.2583,216.47 Z"></path>
                <path d="M33.1939,193.79 C31.0674,195.85 31.2047,199.1 33.5002,201.03 C35.7958,202.95 39.3887,202.84 41.4845,200.78 C43.611,198.71 43.4749,195.5 41.1794,193.57 C38.8827,191.61 35.3205,191.72 33.1939,193.79 Z"></path>
                <path d="M6.09946,171.13 C3.9729319,173.2 4.110237,176.44 6.40576,178.37 C8.70127,180.3 12.29416,180.19 14.39,178.12 C16.5165,176.06 16.3792,172.81 14.0837,170.89 C11.81888,168.96 8.22599,169.07 6.09946,171.13 Z"></path>
                <path d="M35.0868,240.83 C32.9602,242.89 33.0975,246.14 35.3919,248.04 C37.6875,249.97 41.2804,249.85 43.407,247.79 C45.5335,245.72 45.3962,242.48 43.1019,240.58 C40.7768,238.68 37.2145,238.79 35.0868,240.83 Z"></path>
                <path d="M7.99241,218.17 C5.86587,220.24 6.00317,223.48 8.29753,225.38 C10.59306,227.31 14.186,227.2 16.2818,225.14 C18.4083,223.07 18.2722,219.85 15.9767,217.92 C13.71185,216 10.11895,216.11 7.99241,218.17 Z"></path>
                <path d="M9.88552,265.21 C7.75899,267.28 7.89629,270.52 10.19181,272.45 C12.48733,274.38 16.0495,274.27 18.176,272.2 C20.3026,270.14 20.1664,266.92 17.8709,264.99 C15.6049,263.03 12.01205,263.15 9.88552,265.21 Z"></path>
            </g>
            <g opacity="0.12" transform="translate(6.000000, 91.000000)" id="Path">
                <path d="M236.43,70 C234.304,72.06 234.441,75.31 236.737,77.24 C239.032,79.16 242.625,79.05 244.721,76.99 C246.847,74.92 246.711,71.71 244.416,69.78 C242.119,67.82 238.557,67.93 236.43,70 Z"></path>
                <path d="M209.336,47.34 C207.21,49.41 207.347,52.65 209.643,54.58 C211.938,56.51 215.531,56.4 217.658,54.33 C219.784,52.27 219.647,49.02 217.351,47.1 C215.056,45.17 211.463,45.28 209.336,47.34 Z"></path>
                <path d="M182.241,24.66 C180.115,26.73 180.252,29.97 182.546,31.87 C184.842,33.8 188.435,33.69 190.53,31.63 C192.657,29.56 192.52,26.32 190.225,24.42 C187.96,22.49 184.368,22.6 182.241,24.66 Z"></path>
                <path d="M155.177,2.01 C153.051,4.07 153.188,7.32 155.482,9.22 C157.777,11.12 161.371,11.04 163.467,8.97 C165.593,6.91 165.456,3.66 163.162,1.76 C160.867,-0.14 157.304,-0.06 155.177,2.01 Z"></path>
                <path d="M211.229,94.38 C209.103,96.45 209.24,99.69 211.534,101.59 C213.83,103.52 217.423,103.41 219.519,101.35 C221.645,99.28 221.509,96.06 219.214,94.14 C216.949,92.21 213.356,92.32 211.229,94.38 Z"></path>
                <path d="M184.165,71.7 C182.038,73.77 182.175,77.01 184.47,78.91 C186.765,80.84 190.327,80.73 192.454,78.66 C194.58,76.6 194.444,73.38 192.149,71.45 C189.853,69.53 186.26,69.64 184.165,71.7 Z"></path>
                <path d="M157.07,49.05 C154.944,51.11 155.081,54.36 157.377,56.29 C159.672,58.21 163.234,58.1 165.361,56.04 C167.487,53.97 167.35,50.73 165.055,48.8 C162.759,46.87 159.197,46.98 157.07,49.05 Z"></path>
                <path d="M129.975,26.37 C127.848,28.43 127.986,31.68 130.281,33.6 C132.577,35.53 136.17,35.42 138.265,33.36 C140.361,31.29 140.255,28.05 137.959,26.12 C135.694,24.19 132.101,24.3 129.975,26.37 Z"></path>
                <path d="M102.9114,3.71 C100.7848,5.78 100.9221,9.02 103.2165,10.92 C105.512,12.85 109.074,12.74 111.201,10.68 C113.327,8.61 113.19,5.37 110.896,3.46 C108.6,1.54 105.038,1.65 102.9114,3.71 Z"></path>
                <path d="M186.057,118.74 C183.931,120.81 184.068,124.05 186.363,125.98 C188.659,127.91 192.252,127.8 194.378,125.73 C196.505,123.67 196.368,120.42 194.072,118.49 C191.746,116.56 188.153,116.68 186.057,118.74 Z"></path>
                <path d="M158.963,96.09 C156.837,98.15 156.974,101.4 159.268,103.3 C161.564,105.23 165.157,105.12 167.253,103.05 C169.379,100.99 169.243,97.77 166.948,95.84 C164.683,93.91 161.09,94.02 158.963,96.09 Z"></path>
                <path d="M131.868,73.41 C129.741,75.47 129.879,78.72 132.173,80.62 C134.468,82.54 138.061,82.43 140.188,80.37 C142.315,78.3 142.178,75.09 139.883,73.16 C137.587,71.23 133.994,71.34 131.868,73.41 Z"></path>
                <path d="M104.804,50.75 C102.678,52.82 102.8153,56.06 105.111,57.99 C107.406,59.92 110.968,59.81 113.095,57.74 C115.222,55.68 115.085,52.46 112.79,50.53 C110.493,48.58 106.931,48.69 104.804,50.75 Z"></path>
                <path d="M77.709,28.07 C75.5825,30.13 75.7198,33.38 78.0153,35.31 C80.3108,37.24 83.873,37.13 85.9996,35.06 C88.1261,33 87.9888,29.75 85.6933,27.82 C83.4285,25.89 79.8356,26 77.709,28.07 Z"></path>
                <path d="M160.856,143.13 C158.729,145.19 158.867,148.44 161.162,150.36 C163.458,152.29 167.02,152.18 169.146,150.12 C171.273,148.05 171.137,144.84 168.841,142.91 C166.575,140.95 162.982,141.06 160.856,143.13 Z"></path>
                <path d="M133.76,120.44 C131.634,122.51 131.771,125.75 134.067,127.68 C136.362,129.61 139.925,129.5 142.051,127.44 C144.178,125.37 144.04,122.13 141.745,120.2 C139.481,118.3 135.888,118.41 133.76,120.44 Z"></path>
                <path d="M106.697,97.79 C104.571,99.86 104.708,103.1 107.003,105 C109.298,106.93 112.891,106.82 115.018,104.75 C117.144,102.69 117.007,99.44 114.712,97.54 C112.386,95.61 108.824,95.72 106.697,97.79 Z"></path>
                <path d="M79.6019,75.11 C77.4754,77.17 77.6127,80.42 79.9071,82.32 C82.2026,84.25 85.7648,84.14 87.8913,82.07 C90.0179,80.01 89.8805,76.76 87.5862,74.86 C85.3214,72.93 81.7285,73.04 79.6019,75.11 Z"></path>
                <path d="M52.5383,52.45 C50.4118,54.52 50.5491,57.76 52.8434,59.67 C55.1389,61.59 58.7319,61.48 60.8277,59.42 C62.9542,57.35 62.8181,54.14 60.5226,52.21 C58.227,50.28 54.6648,50.39 52.5383,52.45 Z"></path>
                <path d="M135.685,167.51 C133.559,169.58 133.696,172.82 135.99,174.72 C138.286,176.65 141.879,176.54 143.975,174.47 C146.101,172.41 145.964,169.16 143.67,167.26 C141.374,165.34 137.781,165.45 135.685,167.51 Z"></path>
                <path d="M108.59,144.83 C106.464,146.89 106.601,150.14 108.895,152.04 C111.191,153.97 114.784,153.86 116.88,151.79 C119.006,149.73 118.87,146.51 116.575,144.58 C114.279,142.65 110.717,142.76 108.59,144.83 Z"></path>
                <path d="M81.4948,122.15 C79.3682,124.21 79.5055,127.46 81.7999,129.36 C84.0954,131.29 87.6883,131.18 89.7842,129.11 C91.9107,127.05 91.7746,123.83 89.479,121.9 C87.2154,120 83.6225,120.11 81.4948,122.15 Z"></path>
                <path d="M54.4314,99.49 C52.3049,101.56 52.4422,104.8 54.7377,106.73 C57.0332,108.66 60.6261,108.55 62.7219,106.49 C64.8485,104.42 64.7112,101.18 62.4156,99.25 C60.1201,97.32 56.5579,97.43 54.4314,99.49 Z"></path>
                <path d="M27.3359,76.81 C25.2094,78.88 25.3467,82.12 27.6422,84.05 C29.9377,85.98 33.5306,85.87 35.6264,83.8 C37.753,81.74 37.6157,78.49 35.3202,76.57 C33.0553,74.64 29.4625,74.75 27.3359,76.81 Z"></path>
                <path d="M110.483,191.87 C108.356,193.93 108.493,197.18 110.789,199.11 C113.084,201.04 116.677,200.93 118.773,198.86 C120.869,196.8 120.762,193.55 118.467,191.62 C116.202,189.69 112.609,189.8 110.483,191.87 Z"></path>
                <path d="M83.3889,169.22 C81.2624,171.28 81.3997,174.53 83.6952,176.45 C85.9908,178.38 89.5837,178.27 91.7102,176.21 C93.8367,174.14 93.6994,170.9 91.4039,168.97 C89.1084,167.04 85.5155,167.15 83.3889,169.22 Z"></path>
                <path d="M56.3244,146.53 C54.1979,148.6 54.3352,151.84 56.6295,153.74 C58.9251,155.67 62.4872,155.56 64.6138,153.5 C66.7403,151.43 66.6042,148.21 64.3087,146.29 C62.0131,144.36 58.4509,144.47 56.3244,146.53 Z"></path>
                <path d="M29.2299,123.88 C27.1034,125.94 27.2407,129.19 29.535,131.09 C31.8306,133.02 35.4235,132.91 37.5193,130.84 C39.6458,128.78 39.5097,125.56 37.2142,123.63 C34.9494,121.7 31.3565,121.81 29.2299,123.88 Z"></path>
                <path d="M2.16536,101.2 C0.03882,103.26 0.17612,106.51 2.47166,108.44 C4.767187,110.36 8.36012,110.25 10.48666,108.19 C12.6132,106.12 12.47708,102.91 10.18154,100.98 C7.85413,99.02 4.261195,99.13 2.16536,101.2 Z"></path>
                <path d="M85.2814,216.25 C83.1548,218.32 83.2921,221.57 85.5865,223.47 C87.882,225.39 91.4749,225.28 93.5707,223.22 C95.6973,221.15 95.5612,217.94 93.2656,216.01 C91.0008,214.08 87.4079,214.19 85.2814,216.25 Z"></path>
                <path d="M58.217,193.57 C56.0904,195.64 56.2277,198.88 58.5233,200.81 C60.8188,202.74 64.4117,202.63 66.5075,200.56 C68.634,198.5 68.4979,195.28 66.2024,193.35 C63.9057,191.4 60.3435,191.51 58.217,193.57 Z"></path>
                <path d="M31.1225,170.92 C28.996,172.98 29.1333,176.23 31.4288,178.16 C33.7243,180.09 37.3172,179.98 39.413,177.91 C41.5395,175.85 41.4022,172.6 39.1067,170.67 C36.8419,168.74 33.249,168.85 31.1225,170.92 Z"></path>
                <path d="M4.0582764,148.24 C1.93173,150.3 2.06903,153.55 4.363399,155.45 C6.65894,157.38 10.25189,157.27 12.37844,155.2 C14.505,153.13 14.3677,149.89 12.07331,147.99 C9.74707,146.06 6.18483,146.17 4.0582764,148.24 Z"></path>
                <path d="M60.1099,240.61 C57.9833,242.68 58.1206,245.92 60.415,247.82 C62.7105,249.75 66.3035,249.64 68.4301,247.58 C70.5566,245.51 70.4193,242.26 68.1249,240.36 C65.7999,238.46 62.2376,238.57 60.1099,240.61 Z"></path>
                <path d="M33.0154,217.96 C30.8889,220.02 31.0262,223.27 33.3205,225.17 C35.6161,227.1 39.209,226.99 41.3048,224.92 C43.4314,222.86 43.2952,219.64 40.9997,217.71 C38.7349,215.78 35.142,215.89 33.0154,217.96 Z"></path>
                <path d="M5.95101,195.28 C3.824459,197.34 3.9617645,200.59 6.25613,202.49 C8.55167,204.42 12.14462,204.3 14.2712,202.24 C16.3977,200.17 16.2616,196.96 13.96605,195.03 C11.6398,193.1 8.07756,193.21 5.95101,195.28 Z"></path>
                <path d="M34.9086,265 C32.782,267.06 32.9193,270.31 35.2148,272.24 C37.5104,274.17 41.0725,274.05 43.1991,271.99 C45.3256,269.92 45.1895,266.71 42.894,264.78 C40.628,262.82 37.0351,262.93 34.9086,265 Z"></path>
                <path d="M7.84381,242.32 C5.71728,244.38 5.85458,247.63 8.15011,249.55 C10.44563,251.48 14.0386,251.37 16.1344,249.31 C18.2609,247.24 18.1236,244 15.8281,242.07 C13.53376,240.17 9.97153,240.28 7.84381,242.32 Z"></path>
            </g>
            <g opacity="0.12" transform="translate(0.000000, 24.000000)" id="Path">
                <path d="M35.4004,8.88 C33.2739,10.94 29.681,11.05 27.3854,9.13 C25.0899,7.2 24.9526,3.95 27.0803,1.91 C29.2069,-0.15 32.769,-0.26 35.0646,1.67 C37.3908,3.6 37.527,6.81 35.4004,8.88 Z"></path>
                <path d="M62.4654,31.56 C60.3388,33.62 56.746,33.74 54.4504,31.81 C52.1549,29.88 52.0176,26.63 54.1441,24.57 C56.2707,22.5 59.8636,22.39 62.1591,24.32 C64.4546,26.25 64.5919,29.49 62.4654,31.56 Z"></path>
                <path d="M89.5606,54.24 C87.434,56.31 83.8412,56.42 81.5764,54.49 C79.2808,52.56 79.1435,49.31 81.2712,47.28 C83.3978,45.21 86.9906,45.1 89.2555,47.03 C91.5498,48.93 91.6871,52.18 89.5606,54.24 Z"></path>
                <path d="M116.624,76.9 C114.497,78.96 110.905,79.07 108.6397,77.14 C106.3749,75.21 106.2069,71.97 108.3346,69.93 C110.461,67.87 114.054,67.75 116.319,69.68 C118.584,71.61 118.75,74.83 116.624,76.9 Z"></path>
                <path d="M10.199304,33.26 C8.07276,35.33 4.47981,35.44 2.21499,33.51 C-0.0805,31.58 -0.2178,28.34 1.90987,26.3 C4.03641,24.23 7.59866,24.12 9.894186,26.05 C12.18854,27.95 12.32584,31.2 10.199304,33.26 Z"></path>
                <path d="M37.2938,55.92 C35.1672,57.98 31.5743,58.09 29.3094,56.16 C27.0139,54.23 26.8778,51.02 29.0043,48.95 C31.1309,46.89 34.6931,46.78 36.9886,48.71 C39.2842,50.63 39.4215,53.88 37.2938,55.92 Z"></path>
                <path d="M64.358,78.6 C62.2314,80.66 58.6385,80.78 56.343,78.85 C54.0474,76.92 53.9113,73.7 56.0379,71.64 C58.1644,69.57 61.7573,69.46 64.0528,71.39 C66.3484,73.32 66.4845,76.53 64.358,78.6 Z"></path>
                <path d="M91.4533,101.28 C89.3268,103.35 85.7339,103.46 83.4383,101.53 C81.1428,99.6 81.0055,96.35 83.1332,94.32 C85.2609,92.28 88.8527,92.14 91.1482,94.07 C93.4426,95.97 93.5799,99.21 91.4533,101.28 Z"></path>
                <path d="M118.517,123.93 C116.39,126 112.797,126.11 110.532,124.18 C108.2369,122.25 108.1008,119.04 110.227,116.97 C112.354,114.9 115.947,114.79 118.212,116.72 C120.507,118.65 120.643,121.87 118.517,123.93 Z"></path>
                <path d="M12.0921,80.3 C9.965563,82.37 6.37261,82.48 4.10779,80.55 C1.81226,78.62 1.67495,75.38 3.80267,73.34 C5.92921,71.27 9.491454,71.16 11.78698,73.09 C14.08134,74.99 14.21865,78.24 12.0921,80.3 Z"></path>
                <path d="M39.1876,102.98 C37.0611,105.05 33.4681,105.16 31.2033,103.23 C28.9078,101.3 28.7705,98.06 30.897,95.99 C33.0235,93.93 36.5858,93.82 38.8813,95.74 C41.1768,97.67 41.3141,100.92 39.1876,102.98 Z"></path>
                <path d="M66.2508,125.64 C64.1242,127.7 60.5313,127.81 58.2358,125.89 C55.9402,123.96 55.8041,120.74 57.9306,118.67 C60.0572,116.61 63.6195,116.5 65.915,118.43 C68.2412,120.36 68.3773,123.57 66.2508,125.64 Z"></path>
                <path d="M93.3461,148.32 C91.2196,150.38 87.6267,150.5 85.3312,148.57 C83.0356,146.64 82.8995,143.42 85.026,141.36 C87.1526,139.29 90.7455,139.18 93.041,141.11 C95.3354,143.01 95.4727,146.25 93.3461,148.32 Z"></path>
                <path d="M13.98496,127.34 C11.85843,129.41 8.2655,129.52 6.00069,127.59 C3.70517,125.66 3.56787,122.41 5.6944,120.35 C7.82093,118.28 11.41386,118.17 13.67867,120.1 C15.97536,122.06 16.11149,125.28 13.98496,127.34 Z"></path>
                <path d="M41.0803,150.02 C38.9537,152.09 35.3608,152.2 33.096,150.27 C30.8004,148.34 30.6643,145.12 32.7909,143.06 C34.9174,140.99 38.5103,140.88 40.7752,142.81 C43.0695,144.71 43.2068,147.96 41.0803,150.02 Z"></path>
                <path d="M68.1435,172.68 C66.017,174.74 62.4241,174.85 60.1593,172.92 C57.8638,171 57.7265,167.75 59.8542,165.71 C61.9808,163.65 65.5429,163.54 67.8384,165.47 C70.134,167.39 70.2701,170.61 68.1435,172.68 Z"></path>
                <path d="M15.87759,174.38 C13.75104,176.45 10.15814,176.56 7.8626,174.63 C5.56706,172.7 5.42976,169.46 7.55748,167.42 C9.68403,165.35 13.27693,165.24 15.57247,167.17 C17.86801,169.1 18.00414,172.32 15.87759,174.38 Z"></path>
                <path d="M42.9731,197.06 C40.8466,199.13 37.2537,199.24 34.9581,197.31 C32.6626,195.38 32.5253,192.14 34.653,190.1 C36.7796,188.03 40.3725,187.92 42.668,189.85 C44.9624,191.75 45.0997,195 42.9731,197.06 Z"></path>
                <path d="M17.77054,221.42 C15.644,223.49 12.05112,223.6 9.755593,221.67 C7.46006,219.74 7.32276,216.49 9.449301,214.43 C11.57584,212.36 15.13799,212.25 17.43351,214.18 C19.76092,216.14 19.89826,219.38 17.77054,221.42 Z"></path>
            </g>
            <g opacity="0.12" id="Path">
                <path d="M60.4235,8.66 C58.2969,10.73 54.704,10.84 52.4085,8.91 C50.113,6.98 49.9757,3.74 52.1034,1.7 C54.2299,-0.36 57.7921,-0.47 60.0876,1.45 C62.4139,3.38 62.55,6.6 60.4235,8.66 Z"></path>
                <path d="M87.4884,31.35 C85.3618,33.41 81.7689,33.52 79.4734,31.59 C77.1779,29.67 77.0406,26.42 79.1671,24.36 C81.2937,22.29 84.8865,22.18 87.1821,24.11 C89.4776,26.04 89.6149,29.28 87.4884,31.35 Z"></path>
                <path d="M114.584,54.03 C112.457,56.09 108.8643,56.2 106.5995,54.27 C104.3039,52.35 104.1666,49.1 106.2944,47.06 C108.4209,45 112.014,44.89 114.279,46.82 C116.573,48.72 116.71,51.96 114.584,54.03 Z"></path>
                <path d="M141.647,76.68 C139.521,78.75 135.928,78.86 133.663,76.93 C131.398,75 131.23,71.76 133.358,69.72 C135.484,67.65 139.077,67.54 141.342,69.47 C143.607,71.4 143.774,74.62 141.647,76.68 Z"></path>
                <path d="M35.2223,33.05 C33.0958,35.12 29.5028,35.23 27.238,33.3 C24.9425,31.37 24.8052,28.12 26.9329,26.09 C29.0594,24.02 32.6217,23.91 34.9172,25.84 C37.2116,27.74 37.3489,30.98 35.2223,33.05 Z"></path>
                <path d="M62.3168,55.7 C60.1902,57.77 56.5973,57.88 54.3325,55.95 C52.0369,54.02 51.9008,50.8 54.0273,48.74 C56.1539,46.67 59.7161,46.56 62.0117,48.49 C64.3072,50.42 64.4445,53.67 62.3168,55.7 Z"></path>
                <path d="M89.381,78.39 C87.2545,80.45 83.6616,80.56 81.366,78.63 C79.0705,76.7 78.9344,73.49 81.0609,71.42 C83.1875,69.36 86.7804,69.25 89.0759,71.17 C91.3715,73.1 91.5076,76.32 89.381,78.39 Z"></path>
                <path d="M116.476,101.07 C114.35,103.13 110.757,103.24 108.4615,101.31 C106.1659,99.39 106.0286,96.14 108.1563,94.1 C110.284,92.07 113.876,91.93 116.171,93.86 C118.466,95.76 118.603,99 116.476,101.07 Z"></path>
                <path d="M143.54,123.72 C141.413,125.79 137.82,125.9 135.556,123.97 C133.26,122.04 133.124,118.82 135.25,116.76 C137.377,114.69 140.97,114.58 143.235,116.51 C145.53,118.44 145.666,121.66 143.54,123.72 Z"></path>
                <path d="M10.0505728,57.41 C7.92403,59.47 4.33105,59.58 2.03552,57.65 C-0.26,55.73 -0.3973,52.48 1.72923,50.42 C3.85577,48.35 7.44875,48.24 9.744282,50.17 C12.04098,52.12 12.17829,55.37 10.0505728,57.41 Z"></path>
                <path d="M37.1151,80.09 C34.9886,82.15 31.3956,82.27 29.1308,80.34 C26.8353,78.41 26.698,75.16 28.8257,73.13 C30.9522,71.06 34.5145,70.95 36.81,72.88 C39.1044,74.78 39.2417,78.02 37.1151,80.09 Z"></path>
                <path d="M64.2106,102.77 C62.0841,104.84 58.4911,104.95 56.2263,103.02 C53.9308,101.09 53.7935,97.84 55.92,95.78 C58.0466,93.71 61.6088,93.6 63.9043,95.53 C66.1998,97.46 66.3371,100.7 64.2106,102.77 Z"></path>
                <path d="M91.2738,125.42 C89.1473,127.49 85.5544,127.6 83.2589,125.67 C80.9633,123.74 80.8272,120.53 82.9538,118.46 C85.0803,116.4 88.6426,116.29 90.9381,118.21 C93.2643,120.14 93.4004,123.36 91.2738,125.42 Z"></path>
                <path d="M118.369,148.11 C116.243,150.17 112.65,150.28 110.354,148.35 C108.0587,146.43 107.9225,143.21 110.049,141.14 C112.176,139.08 115.769,138.97 118.064,140.89 C120.358,142.8 120.496,146.04 118.369,148.11 Z"></path>
                <path d="M11.94468,104.47 C9.818136,106.54 6.22515,106.65 3.92962,104.72 C1.63409,102.79 1.49796,99.58 3.6245,97.51 C5.75104,95.45 9.344028,95.33 11.63956,97.26 C13.90321,99.16 14.04051,102.41 11.94468,104.47 Z"></path>
                <path d="M39.008,127.13 C36.8815,129.19 33.2886,129.3 31.0237,127.38 C28.7282,125.45 28.5909,122.2 30.7175,120.14 C32.844,118.07 36.4369,117.96 38.7017,119.89 C40.9984,121.85 41.1346,125.06 39.008,127.13 Z"></path>
                <path d="M66.1033,149.81 C63.9768,151.87 60.3838,151.99 58.119,150.06 C55.8235,148.13 55.6873,144.91 57.8139,142.85 C59.9404,140.78 63.5334,140.67 65.7982,142.6 C68.0926,144.5 68.2299,147.74 66.1033,149.81 Z"></path>
                <path d="M93.1665,172.46 C91.04,174.53 87.4471,174.64 85.1823,172.71 C82.8868,170.78 82.7495,167.54 84.8772,165.5 C87.0037,163.43 90.5659,163.32 92.8614,165.25 C95.1569,167.18 95.2931,170.4 93.1665,172.46 Z"></path>
                <path d="M13.8374,151.51 C11.71087,153.58 8.11793,153.69 5.85312,151.76 C3.5576,149.83 3.4203,146.59 5.548,144.55 C7.67454,142.48 11.23677,142.37 13.53229,144.3 C15.79593,146.2 15.93323,149.45 13.8374,151.51 Z"></path>
                <path d="M40.9006,174.17 C38.7741,176.23 35.1812,176.34 32.8856,174.42 C30.5901,172.49 30.4528,169.24 32.5805,167.2 C34.7071,165.14 38.3,165.03 40.5955,166.96 C42.8911,168.89 43.0272,172.1 40.9006,174.17 Z"></path>
                <path d="M67.9962,196.85 C65.8696,198.91 62.2767,199.03 59.9812,197.1 C57.6856,195.17 57.5483,191.92 59.676,189.89 C61.8026,187.82 65.3955,187.71 67.691,189.64 C69.9854,191.54 70.1227,194.78 67.9962,196.85 Z"></path>
                <path d="M15.69947,198.55 C13.57293,200.62 9.9799761,200.73 7.71516,198.8 C5.41963,196.87 5.28232,193.63 7.41004,191.59 C9.53658,189.52 13.09882,189.41 15.39435,191.34 C17.68871,193.24 17.82601,196.49 15.69947,198.55 Z"></path>
                <path d="M42.7936,221.21 C40.667,223.27 37.0742,223.38 34.7786,221.45 C32.4831,219.53 32.3458,216.28 34.4723,214.22 C36.5989,212.15 40.161,212.04 42.4566,213.97 C44.784,215.92 44.9213,219.17 42.7936,221.21 Z"></path>
                <path d="M17.59229,245.59 C15.46575,247.66 11.8728,247.77 9.607981,245.84 C7.31245,243.91 7.17515,240.67 9.302863,238.63 C11.4294,236.56 14.99165,236.45 17.28717,238.38 C19.58153,240.28 19.71883,243.53 17.59229,245.59 Z"></path>
            </g>
        </g>
        <path d="M410.495139,377.31849 C397.507771,365.628453 376.47508,365.628453 363.488713,377.31849 L349.391887,390.01853 C336.40452,401.708566 315.372828,401.708566 302.385461,390.01853 C289.399095,378.318493 289.399095,359.378433 302.385461,347.688397 L454.260225,210.927967 C467.246592,199.237931 467.246592,180.297871 454.260225,168.607835 C441.272858,156.927798 420.240166,156.907798 407.253799,168.607835 L192.712138,361.768441 C179.725771,373.438478 158.693079,373.438478 145.706712,361.768441 C132.720346,350.078404 132.720346,331.138345 145.706712,319.438308 L222.471436,250.318091 C235.457803,238.628054 235.457803,219.687995 222.471436,208.017958 C209.484069,196.317922 188.451377,196.317922 175.46501,208.017958 L148.607911,232.198034 C135.620544,243.868071 114.588853,243.868071 101.601686,232.198034 C88.6150188,220.507998 88.6150188,201.567938 101.601686,189.867901 L186.864721,113.09766 C199.852089,101.397624 199.852089,82.4675642 186.864721,70.7675275 C173.878355,59.0774908 152.845663,59.0774908 139.859296,70.7675275 L-333.260225,496.868865 C-346.246592,508.568902 -346.246592,527.498961 -333.260225,539.198998 C-320.273858,550.889034 -299.241166,550.889034 -286.253799,539.198998 L-222.680527,481.948818 C-209.69416,470.258781 -188.661468,470.278781 -175.675101,481.948818 C-162.687734,493.648855 -162.687734,512.588914 -175.675101,524.278951 L-301.59814,637.649307 C-314.584507,649.339343 -314.584507,668.279403 -301.59814,679.96944 C-288.611774,691.669476 -267.579082,691.669476 -254.591714,679.96944 L-184.966941,617.279243 C-171.980575,605.589206 -150.947883,605.589206 -137.961516,617.279243 C-124.974149,628.96928 -124.974149,647.909339 -137.961516,659.609376 L-145.258532,666.159396 C-158.245899,677.849433 -158.245899,696.789492 -145.258532,708.479529 C-132.272165,720.179566 -111.239473,720.179566 -98.2531061,708.479529 L23.4320813,598.909185 C36.4188482,587.219148 57.4514402,587.219148 70.4154977,598.909185 C83.4021645,610.609222 83.4021645,629.549281 70.4154977,641.239318 L-113.619456,806.929838 C-126.605823,818.629875 -126.605823,837.559934 -113.619456,849.239971 C-100.63309,860.910008 -79.6001977,860.930008 -66.6362402,849.239971 L410.495139,419.648623 C423.458496,407.968586 423.458496,389.018526 410.495139,377.31849 Z" id="Path" fill="#F7F5FB" fill-rule="nonzero" opacity="0.8"></path>
        <path d="M394.449046,93.2914729 L377.672576,93.2914729 C374.638544,93.2914729 372.158241,90.7821705 372.158241,87.7186047 C372.158241,84.6550388 374.638544,82.1457364 377.672576,82.1457364 L385.714107,82.1457364 C388.116589,82.1457364 390.082075,80.1604651 390.082075,77.7317829 L390.082075,75.4139535 C390.082075,72.9852713 388.116589,71 385.714107,71 L337.919876,71 C335.516396,71 333.551908,72.9852713 333.551908,75.4139535 L333.551908,77.7317829 C333.551908,80.1604651 335.516396,82.1457364 337.919876,82.1457364 L347.340241,82.1457364 C350.373275,82.1457364 352.853578,84.6550388 352.853578,87.7186047 C352.853578,90.7821705 350.373275,93.2914729 347.340241,93.2914729 L316.550954,93.2914729 C312.948229,93.2914729 310,96.2643411 310,99.9023256 L310,103.37907 C310,107.017054 312.948229,110 316.550954,110 L394.449046,110 C398.052769,110 401,107.017054 401,103.37907 L401,99.9023256 C401,96.2643411 398.052769,93.2914729 394.449046,93.2914729 Z" id="Path" fill="#F3EFF9"></path>
        <path d="M477.618476,135.336634 L462.285142,135.336634 C459.876205,135.336634 457.904619,133.386139 457.904619,131 C457.904619,128.613861 459.876205,126.663366 462.284142,126.663366 L463.381024,126.663366 C465.789961,126.663366 467.761547,124.712871 467.761547,122.326733 C467.761547,119.950495 465.789961,118 463.381024,118 L445.856928,118 C443.44699,118 441.475404,119.950495 441.475404,122.326733 C441.475404,124.712871 443.44699,126.663366 445.856928,126.663366 L446.95281,126.663366 C449.361747,126.663366 451.333333,128.613861 451.333333,131 C451.333333,133.386139 449.361747,135.336634 446.951809,135.336634 L442.570285,135.336634 L442.571286,135.336634 L440.380523,135.336634 C437.970585,135.336634 436,137.287129 436,139.663366 C436,142.049505 437.970585,144 440.380523,144 L477.618476,144 C480.028414,144 482,142.049505 482,139.663366 C482,137.287129 480.028414,135.336634 477.618476,135.336634 Z" id="Path" fill="#F3EFF9"></path>
    </g>
</svg>