<?xml version="1.0" encoding="UTF-8"?>
<svg width="429px" height="777px" viewBox="0 0 429 777" version="1.1" xmlns="http://www.w3.org/2000/svg" xmlns:xlink="http://www.w3.org/1999/xlink">
    <title>bg-pattern-01</title>
    <g id="bg-pattern-01" stroke="none" stroke-width="1" fill="none" fill-rule="evenodd">
        <g id="Group" opacity="0.5" transform="translate(-81.000000, 13.000000)" fill="#6B29D1" fill-rule="nonzero">
            <g opacity="0.12" transform="translate(6.000000, 115.000000)" id="Path">
                <path d="M211.407,70.21 C209.281,72.28 209.418,75.52 211.714,77.45 C214.009,79.38 217.602,79.27 219.698,77.2 C221.824,75.14 221.688,71.92 219.393,69.99 C217.096,68.04 213.534,68.15 211.407,70.21 Z"></path>
                <path d="M184.313,47.56 C182.187,49.62 182.324,52.87 184.62,54.8 C186.915,56.72 190.508,56.61 192.635,54.55 C194.761,52.48 194.624,49.24 192.328,47.31 C190.033,45.38 186.44,45.49 184.313,47.56 Z"></path>
                <path d="M157.218,24.88 C155.091,26.94 155.229,30.19 157.523,32.09 C159.819,34.02 163.412,33.9 165.507,31.84 C167.634,29.77 167.497,26.53 165.202,24.63 C162.937,22.7 159.345,22.81 157.218,24.88 Z"></path>
                <path d="M130.154,2.22 C128.028,4.29 128.165,7.53 130.459,9.43 C132.754,11.33 136.348,11.25 138.444,9.19 C140.57,7.12 140.433,3.88 138.139,1.97 C135.844,0.07 132.281,0.16 130.154,2.22 Z"></path>
                <path d="M186.206,94.6 C184.08,96.66 184.217,99.91 186.511,101.81 C188.807,103.74 192.4,103.63 194.496,101.56 C196.622,99.5 196.486,96.28 194.191,94.35 C191.926,92.42 188.333,92.53 186.206,94.6 Z"></path>
                <path d="M159.141,71.91 C157.015,73.98 157.152,77.22 159.447,79.13 C161.742,81.05 165.304,80.94 167.431,78.88 C169.557,76.81 169.421,73.6 167.126,71.67 C164.83,69.74 161.237,69.85 159.141,71.91 Z"></path>
                <path d="M132.047,49.26 C129.921,51.33 130.058,54.57 132.354,56.5 C134.649,58.43 138.211,58.32 140.338,56.25 C142.464,54.19 142.327,50.94 140.032,49.01 C137.736,47.09 134.174,47.2 132.047,49.26 Z"></path>
                <path d="M104.952,26.58 C102.8253,28.65 102.9626,31.89 105.258,33.82 C107.554,35.75 111.147,35.64 113.242,33.57 C115.338,31.51 115.232,28.26 112.936,26.33 C110.671,24.4 107.078,24.51 104.952,26.58 Z"></path>
                <path d="M77.8884,3.92 C75.7619,5.99 75.8992,9.24 78.1935,11.14 C80.489,13.06 84.0512,12.95 86.1778,10.89 C88.3043,8.82 88.167,5.58 85.8726,3.68 C83.5771,1.75 80.0149,1.86 77.8884,3.92 Z"></path>
                <path d="M161.034,118.95 C158.908,121.02 159.045,124.26 161.34,126.19 C163.636,128.12 167.229,128.01 169.355,125.94 C171.482,123.88 171.345,120.63 169.049,118.71 C166.723,116.78 163.13,116.89 161.034,118.95 Z"></path>
                <path d="M133.94,96.3 C131.814,98.37 131.951,101.61 134.245,103.51 C136.541,105.44 140.134,105.33 142.23,103.26 C144.356,101.2 144.22,97.98 141.925,96.05 C139.66,94.12 136.067,94.23 133.94,96.3 Z"></path>
                <path d="M106.845,73.62 C104.718,75.68 104.856,78.93 107.15,80.83 C109.446,82.76 113.038,82.65 115.165,80.58 C117.292,78.52 117.155,75.3 114.86,73.37 C112.564,71.44 108.971,71.55 106.845,73.62 Z"></path>
                <path d="M79.7815,50.96 C77.6549,53.03 77.7922,56.27 80.0878,58.2 C82.3833,60.13 85.9455,60.02 88.072,57.96 C90.1985,55.89 90.0624,52.67 87.7669,50.75 C85.4702,48.79 81.908,48.9 79.7815,50.96 Z"></path>
                <path d="M135.833,143.34 C133.706,145.4 133.844,148.65 136.139,150.58 C138.435,152.51 141.997,152.4 144.124,150.33 C146.25,148.27 146.114,145.05 143.818,143.12 C141.552,141.16 137.959,141.27 135.833,143.34 Z"></path>
                <path d="M108.737,120.66 C106.611,122.72 106.748,125.97 109.044,127.9 C111.339,129.83 114.902,129.72 117.028,127.65 C119.155,125.58 119.017,122.34 116.722,120.41 C114.458,118.51 110.865,118.62 108.737,120.66 Z"></path>
                <path d="M81.6743,98 C79.5478,100.07 79.6851,103.31 81.9795,105.22 C84.275,107.14 87.8679,107.03 89.9945,104.97 C92.121,102.9 91.9837,99.66 89.6893,97.76 C87.3631,95.83 83.8009,95.94 81.6743,98 Z"></path>
                <path d="M110.662,167.72 C108.536,169.79 108.673,173.03 110.967,174.94 C113.263,176.86 116.856,176.75 118.952,174.69 C121.078,172.62 120.941,169.38 118.646,167.48 C116.351,165.55 112.758,165.66 110.662,167.72 Z"></path>
                <path d="M83.5672,145.04 C81.4406,147.11 81.578,150.35 83.8723,152.25 C86.1678,154.18 89.7607,154.07 91.8566,152.01 C93.9831,149.94 93.847,146.72 91.5514,144.8 C89.2559,142.87 85.6937,142.98 83.5672,145.04 Z"></path>
                <path d="M85.4596,192.08 C83.333,194.15 83.4703,197.39 85.7659,199.32 C88.0614,201.25 91.6543,201.14 93.7501,199.07 C95.8459,197.01 95.7393,193.76 93.4438,191.84 C91.179,189.91 87.5861,190.02 85.4596,192.08 Z"></path>
            </g>
            <g opacity="0.12" transform="translate(6.000000, 91.000000)" id="Path">
                <path d="M236.43,70 C234.304,72.06 234.441,75.31 236.737,77.24 C239.032,79.16 242.625,79.05 244.721,76.99 C246.847,74.92 246.711,71.71 244.416,69.78 C242.119,67.82 238.557,67.93 236.43,70 Z"></path>
                <path d="M209.336,47.34 C207.21,49.41 207.347,52.65 209.643,54.58 C211.938,56.51 215.531,56.4 217.658,54.33 C219.784,52.27 219.647,49.02 217.351,47.1 C215.056,45.17 211.463,45.28 209.336,47.34 Z"></path>
                <path d="M182.241,24.66 C180.115,26.73 180.252,29.97 182.546,31.87 C184.842,33.8 188.435,33.69 190.53,31.63 C192.657,29.56 192.52,26.32 190.225,24.42 C187.96,22.49 184.368,22.6 182.241,24.66 Z"></path>
                <path d="M155.177,2.01 C153.051,4.07 153.188,7.32 155.482,9.22 C157.777,11.12 161.371,11.04 163.467,8.97 C165.593,6.91 165.456,3.66 163.162,1.76 C160.867,-0.14 157.304,-0.06 155.177,2.01 Z"></path>
                <path d="M211.229,94.38 C209.103,96.45 209.24,99.69 211.534,101.59 C213.83,103.52 217.423,103.41 219.519,101.35 C221.645,99.28 221.509,96.06 219.214,94.14 C216.949,92.21 213.356,92.32 211.229,94.38 Z"></path>
                <path d="M184.165,71.7 C182.038,73.77 182.175,77.01 184.47,78.91 C186.765,80.84 190.327,80.73 192.454,78.66 C194.58,76.6 194.444,73.38 192.149,71.45 C189.853,69.53 186.26,69.64 184.165,71.7 Z"></path>
                <path d="M157.07,49.05 C154.944,51.11 155.081,54.36 157.377,56.29 C159.672,58.21 163.234,58.1 165.361,56.04 C167.487,53.97 167.35,50.73 165.055,48.8 C162.759,46.87 159.197,46.98 157.07,49.05 Z"></path>
                <path d="M129.975,26.37 C127.848,28.43 127.986,31.68 130.281,33.6 C132.577,35.53 136.17,35.42 138.265,33.36 C140.361,31.29 140.255,28.05 137.959,26.12 C135.694,24.19 132.101,24.3 129.975,26.37 Z"></path>
                <path d="M102.9114,3.71 C100.7848,5.78 100.9221,9.02 103.2165,10.92 C105.512,12.85 109.074,12.74 111.201,10.68 C113.327,8.61 113.19,5.37 110.896,3.46 C108.6,1.54 105.038,1.65 102.9114,3.71 Z"></path>
                <path d="M186.057,118.74 C183.931,120.81 184.068,124.05 186.363,125.98 C188.659,127.91 192.252,127.8 194.378,125.73 C196.505,123.67 196.368,120.42 194.072,118.49 C191.746,116.56 188.153,116.68 186.057,118.74 Z"></path>
                <path d="M158.963,96.09 C156.837,98.15 156.974,101.4 159.268,103.3 C161.564,105.23 165.157,105.12 167.253,103.05 C169.379,100.99 169.243,97.77 166.948,95.84 C164.683,93.91 161.09,94.02 158.963,96.09 Z"></path>
                <path d="M131.868,73.41 C129.741,75.47 129.879,78.72 132.173,80.62 C134.468,82.54 138.061,82.43 140.188,80.37 C142.315,78.3 142.178,75.09 139.883,73.16 C137.587,71.23 133.994,71.34 131.868,73.41 Z"></path>
                <path d="M104.804,50.75 C102.678,52.82 102.8153,56.06 105.111,57.99 C107.406,59.92 110.968,59.81 113.095,57.74 C115.222,55.68 115.085,52.46 112.79,50.53 C110.493,48.58 106.931,48.69 104.804,50.75 Z"></path>
                <path d="M77.709,28.07 C75.5825,30.13 75.7198,33.38 78.0153,35.31 C80.3108,37.24 83.873,37.13 85.9996,35.06 C88.1261,33 87.9888,29.75 85.6933,27.82 C83.4285,25.89 79.8356,26 77.709,28.07 Z"></path>
                <path d="M160.856,143.13 C158.729,145.19 158.867,148.44 161.162,150.36 C163.458,152.29 167.02,152.18 169.146,150.12 C171.273,148.05 171.137,144.84 168.841,142.91 C166.575,140.95 162.982,141.06 160.856,143.13 Z"></path>
                <path d="M133.76,120.44 C131.634,122.51 131.771,125.75 134.067,127.68 C136.362,129.61 139.925,129.5 142.051,127.44 C144.178,125.37 144.04,122.13 141.745,120.2 C139.481,118.3 135.888,118.41 133.76,120.44 Z"></path>
                <path d="M106.697,97.79 C104.571,99.86 104.708,103.1 107.003,105 C109.298,106.93 112.891,106.82 115.018,104.75 C117.144,102.69 117.007,99.44 114.712,97.54 C112.386,95.61 108.824,95.72 106.697,97.79 Z"></path>
                <path d="M79.6019,75.11 C77.4754,77.17 77.6127,80.42 79.9071,82.32 C82.2026,84.25 85.7648,84.14 87.8913,82.07 C90.0179,80.01 89.8805,76.76 87.5862,74.86 C85.3214,72.93 81.7285,73.04 79.6019,75.11 Z"></path>
                <path d="M135.685,167.51 C133.559,169.58 133.696,172.82 135.99,174.72 C138.286,176.65 141.879,176.54 143.975,174.47 C146.101,172.41 145.964,169.16 143.67,167.26 C141.374,165.34 137.781,165.45 135.685,167.51 Z"></path>
                <path d="M108.59,144.83 C106.464,146.89 106.601,150.14 108.895,152.04 C111.191,153.97 114.784,153.86 116.88,151.79 C119.006,149.73 118.87,146.51 116.575,144.58 C114.279,142.65 110.717,142.76 108.59,144.83 Z"></path>
                <path d="M81.4948,122.15 C79.3682,124.21 79.5055,127.46 81.7999,129.36 C84.0954,131.29 87.6883,131.18 89.7842,129.11 C91.9107,127.05 91.7746,123.83 89.479,121.9 C87.2154,120 83.6225,120.11 81.4948,122.15 Z"></path>
                <path d="M110.483,191.87 C108.356,193.93 108.493,197.18 110.789,199.11 C113.084,201.04 116.677,200.93 118.773,198.86 C120.869,196.8 120.762,193.55 118.467,191.62 C116.202,189.69 112.609,189.8 110.483,191.87 Z"></path>
                <path d="M83.3889,169.22 C81.2624,171.28 81.3997,174.53 83.6952,176.45 C85.9908,178.38 89.5837,178.27 91.7102,176.21 C93.8367,174.14 93.6994,170.9 91.4039,168.97 C89.1084,167.04 85.5155,167.15 83.3889,169.22 Z"></path>
                <path d="M85.2814,216.25 C83.1548,218.32 83.2921,221.57 85.5865,223.47 C87.882,225.39 91.4749,225.28 93.5707,223.22 C95.6973,221.15 95.5612,217.94 93.2656,216.01 C91.0008,214.08 87.4079,214.19 85.2814,216.25 Z"></path>
            </g>
            <g opacity="0.12" transform="translate(0.000000, 24.000000)" id="Path">
                <path d="M89.5606,54.24 C87.434,56.31 83.8412,56.42 81.5764,54.49 C79.2808,52.56 79.1435,49.31 81.2712,47.28 C83.3978,45.21 86.9906,45.1 89.2555,47.03 C91.5498,48.93 91.6871,52.18 89.5606,54.24 Z"></path>
                <path d="M116.624,76.9 C114.497,78.96 110.905,79.07 108.6397,77.14 C106.3749,75.21 106.2069,71.97 108.3346,69.93 C110.461,67.87 114.054,67.75 116.319,69.68 C118.584,71.61 118.75,74.83 116.624,76.9 Z"></path>
                <path d="M91.4533,101.28 C89.3268,103.35 85.7339,103.46 83.4383,101.53 C81.1428,99.6 81.0055,96.35 83.1332,94.32 C85.2609,92.28 88.8527,92.14 91.1482,94.07 C93.4426,95.97 93.5799,99.21 91.4533,101.28 Z"></path>
                <path d="M118.517,123.93 C116.39,126 112.797,126.11 110.532,124.18 C108.2369,122.25 108.1008,119.04 110.227,116.97 C112.354,114.9 115.947,114.79 118.212,116.72 C120.507,118.65 120.643,121.87 118.517,123.93 Z"></path>
                <path d="M93.3461,148.32 C91.2196,150.38 87.6267,150.5 85.3312,148.57 C83.0356,146.64 82.8995,143.42 85.026,141.36 C87.1526,139.29 90.7455,139.18 93.041,141.11 C95.3354,143.01 95.4727,146.25 93.3461,148.32 Z"></path>
            </g>
            <g opacity="0.12" id="Path">
                <path d="M87.4884,31.35 C85.3618,33.41 81.7689,33.52 79.4734,31.59 C77.1779,29.67 77.0406,26.42 79.1671,24.36 C81.2937,22.29 84.8865,22.18 87.1821,24.11 C89.4776,26.04 89.6149,29.28 87.4884,31.35 Z"></path>
                <path d="M114.584,54.03 C112.457,56.09 108.8643,56.2 106.5995,54.27 C104.3039,52.35 104.1666,49.1 106.2944,47.06 C108.4209,45 112.014,44.89 114.279,46.82 C116.573,48.72 116.71,51.96 114.584,54.03 Z"></path>
                <path d="M141.647,76.68 C139.521,78.75 135.928,78.86 133.663,76.93 C131.398,75 131.23,71.76 133.358,69.72 C135.484,67.65 139.077,67.54 141.342,69.47 C143.607,71.4 143.774,74.62 141.647,76.68 Z"></path>
                <path d="M89.381,78.39 C87.2545,80.45 83.6616,80.56 81.366,78.63 C79.0705,76.7 78.9344,73.49 81.0609,71.42 C83.1875,69.36 86.7804,69.25 89.0759,71.17 C91.3715,73.1 91.5076,76.32 89.381,78.39 Z"></path>
                <path d="M116.476,101.07 C114.35,103.13 110.757,103.24 108.4615,101.31 C106.1659,99.39 106.0286,96.14 108.1563,94.1 C110.284,92.07 113.876,91.93 116.171,93.86 C118.466,95.76 118.603,99 116.476,101.07 Z"></path>
                <path d="M143.54,123.72 C141.413,125.79 137.82,125.9 135.556,123.97 C133.26,122.04 133.124,118.82 135.25,116.76 C137.377,114.69 140.97,114.58 143.235,116.51 C145.53,118.44 145.666,121.66 143.54,123.72 Z"></path>
                <path d="M91.2738,125.42 C89.1473,127.49 85.5544,127.6 83.2589,125.67 C80.9633,123.74 80.8272,120.53 82.9538,118.46 C85.0803,116.4 88.6426,116.29 90.9381,118.21 C93.2643,120.14 93.4004,123.36 91.2738,125.42 Z"></path>
                <path d="M118.369,148.11 C116.243,150.17 112.65,150.28 110.354,148.35 C108.0587,146.43 107.9225,143.21 110.049,141.14 C112.176,139.08 115.769,138.97 118.064,140.89 C120.358,142.8 120.496,146.04 118.369,148.11 Z"></path>
                <path d="M93.1665,172.46 C91.04,174.53 87.4471,174.64 85.1823,172.71 C82.8868,170.78 82.7495,167.54 84.8772,165.5 C87.0037,163.43 90.5659,163.32 92.8614,165.25 C95.1569,167.18 95.2931,170.4 93.1665,172.46 Z"></path>
            </g>
        </g>
        <path d="M329.495139,362.31849 C316.507771,350.628453 295.47508,350.628453 282.488713,362.31849 L268.391887,375.01853 C255.40452,386.708566 234.372828,386.708566 221.385461,375.01853 C208.399095,363.318493 208.399095,344.378433 221.385461,332.688397 L373.260225,195.927967 C386.246592,184.237931 386.246592,165.297871 373.260225,153.607835 C360.272858,141.927798 339.240166,141.907798 326.253799,153.607835 L111.712138,346.768441 C98.7257711,358.438478 77.6930792,358.438478 64.7067124,346.768441 C51.7203457,335.078404 51.7203457,316.138345 64.7067124,304.438308 L141.471436,235.318091 C154.457803,223.628054 154.457803,204.687995 141.471436,193.017958 C128.484069,181.317922 107.451377,181.317922 94.4650103,193.017958 L67.6079114,217.198034 C54.6205442,228.868071 33.5888527,228.868071 20.6016856,217.198034 C7.61501878,205.507998 7.61501878,186.567938 20.6016856,174.867901 L105.864721,98.0976604 C118.852089,86.3976237 118.852089,67.4675642 105.864721,55.7675275 C92.8783546,44.0774908 71.8456627,44.0774908 58.8592959,55.7675275 L-414.260225,481.868865 C-427.246592,493.568902 -427.246592,512.498961 -414.260225,524.198998 C-401.273858,535.889034 -380.241166,535.889034 -367.253799,524.198998 L-303.680527,466.948818 C-290.69416,455.258781 -269.661468,455.278781 -256.675101,466.948818 C-243.687734,478.648855 -243.687734,497.588914 -256.675101,509.278951 L-382.59814,622.649307 C-395.584507,634.339343 -395.584507,653.279403 -382.59814,664.96944 C-369.611774,676.669476 -348.579082,676.669476 -335.591714,664.96944 L-265.966941,602.279243 C-252.980575,590.589206 -231.947883,590.589206 -218.961516,602.279243 C-205.974149,613.96928 -205.974149,632.909339 -218.961516,644.609376 L-226.258532,651.159396 C-239.245899,662.849433 -239.245899,681.789492 -226.258532,693.479529 C-213.272165,705.179566 -192.239473,705.179566 -179.253106,693.479529 L-57.5679187,583.909185 C-44.5811518,572.219148 -23.5485598,572.219148 -10.5845023,583.909185 C2.40216453,595.609222 2.40216453,614.549281 -10.5845023,626.239318 L-194.619456,791.929838 C-207.605823,803.629875 -207.605823,822.559934 -194.619456,834.239971 C-181.63309,845.910008 -160.600198,845.930008 -147.63624,834.239971 L329.495139,404.648623 C342.458496,392.968586 342.458496,374.018526 329.495139,362.31849 Z" id="Path" fill="#F7F5FB" fill-rule="nonzero" opacity="0.8"></path>
        <path d="M313.449046,78.2914729 L296.672576,78.2914729 C293.638544,78.2914729 291.158241,75.7821705 291.158241,72.7186047 C291.158241,69.6550388 293.638544,67.1457364 296.672576,67.1457364 L304.714107,67.1457364 C307.116589,67.1457364 309.082075,65.1604651 309.082075,62.7317829 L309.082075,60.4139535 C309.082075,57.9852713 307.116589,56 304.714107,56 L256.919876,56 C254.516396,56 252.551908,57.9852713 252.551908,60.4139535 L252.551908,62.7317829 C252.551908,65.1604651 254.516396,67.1457364 256.919876,67.1457364 L266.340241,67.1457364 C269.373275,67.1457364 271.853578,69.6550388 271.853578,72.7186047 C271.853578,75.7821705 269.373275,78.2914729 266.340241,78.2914729 L235.550954,78.2914729 C231.948229,78.2914729 229,81.2643411 229,84.9023256 L229,88.3790698 C229,92.0170543 231.948229,95 235.550954,95 L313.449046,95 C317.052769,95 320,92.0170543 320,88.3790698 L320,84.9023256 C320,81.2643411 317.052769,78.2914729 313.449046,78.2914729 Z" id="Path" fill="#F3EFF9"></path>
        <path d="M396.618476,120.336634 L381.285142,120.336634 C378.876205,120.336634 376.904619,118.386139 376.904619,116 C376.904619,113.613861 378.876205,111.663366 381.284142,111.663366 L382.381024,111.663366 C384.789961,111.663366 386.761547,109.712871 386.761547,107.326733 C386.761547,104.950495 384.789961,103 382.381024,103 L364.856928,103 C362.44699,103 360.475404,104.950495 360.475404,107.326733 C360.475404,109.712871 362.44699,111.663366 364.856928,111.663366 L365.95281,111.663366 C368.361747,111.663366 370.333333,113.613861 370.333333,116 C370.333333,118.386139 368.361747,120.336634 365.951809,120.336634 L361.570285,120.336634 L361.571286,120.336634 L359.380523,120.336634 C356.970585,120.336634 355,122.287129 355,124.663366 C355,127.049505 356.970585,129 359.380523,129 L396.618476,129 C399.028414,129 401,127.049505 401,124.663366 C401,122.287129 399.028414,120.336634 396.618476,120.336634 Z" id="Path" fill="#F3EFF9"></path>
    </g>
</svg>