<?xml version="1.0" encoding="UTF-8"?>
<svg width="375px" height="243px" viewBox="0 0 375 243" version="1.1" xmlns="http://www.w3.org/2000/svg" xmlns:xlink="http://www.w3.org/1999/xlink">
    <title>home-banner-mobile</title>
    <defs>
        <rect id="path-1" x="0" y="0" width="375" height="375"></rect>
    </defs>
    <g id="Page-2" stroke="none" stroke-width="1" fill="none" fill-rule="evenodd">
        <g id="home-banner-mobile" transform="translate(0.000000, -65.000000)">
            <mask id="mask-2" fill="white">
                <use xlink:href="#path-1"></use>
            </mask>
            <g id="Mask"></g>
            <g mask="url(#mask-2)">
                <g transform="translate(-11.000000, 66.000000)">
                    <line x1="0" y1="197" x2="60" y2="197" id="Path" stroke="#EFEDF3" stroke-width="5.08857" fill="none" stroke-linecap="round" stroke-dasharray="31.8"></line>
                    <line x1="380.156" y1="196.883" x2="456.485" y2="196.883" id="Path" stroke="#EFEDF3" stroke-width="5.08857" fill="none" stroke-linecap="round" stroke-dasharray="31.8"></line>
                    <line x1="8" y1="128" x2="60" y2="128" id="Path" stroke="#000000" stroke-width="0.654053" fill="none" opacity="0.5" stroke-linecap="round"></line>
                    <line x1="324.182" y1="128.188" x2="411.96" y2="128.187" id="Path" stroke="#000000" stroke-width="0.636071" fill="none" opacity="0.5" stroke-linecap="round"></line>
                    <line x1="287.926" y1="196.883" x2="352.806" y2="196.883" id="Path" stroke="#EFEDF3" stroke-width="5.08857" fill="none" stroke-linecap="round" stroke-dasharray="31.8"></line>
                    <polygon id="Path" stroke="none" fill="#F4F4F4" fill-rule="nonzero" points="241.11 67.859 213.934 67.859 213.934 90.225 241.11 90.225"></polygon>
                    <polygon id="Path" stroke="#000000" stroke-width="0.388003" fill="none" points="241.11 67.859 213.934 67.859 213.934 90.225 241.11 90.225"></polygon>
                    <polygon id="Path" stroke="none" fill="#FFFFFF" fill-rule="nonzero" points="230.083 67.859 224.961 67.859 224.961 74.202 230.083 74.202"></polygon>
                    <polygon id="Path" stroke="#000000" stroke-width="0.388003" fill="none" points="230.083 67.859 224.961 67.859 224.961 74.202 230.083 74.202"></polygon>
                    <polygon id="Path" stroke="none" fill="#F4F4F4" fill-rule="nonzero" points="213.934 67.797 186.758 67.797 186.758 90.163 213.934 90.163"></polygon>
                    <polygon id="Path" stroke="#000000" stroke-width="0.388003" fill="none" points="213.934 67.797 186.758 67.797 186.758 90.163 213.934 90.163"></polygon>
                    <polygon id="Path" stroke="none" fill="#FFFFFF" fill-rule="nonzero" points="202.907 67.797 197.785 67.797 197.785 74.139 202.907 74.139"></polygon>
                    <polygon id="Path" stroke="#000000" stroke-width="0.388003" fill="none" points="202.907 67.797 197.785 67.797 197.785 74.139 202.907 74.139"></polygon>
                    <polygon id="Path" stroke="none" fill="#F4F4F4" fill-rule="nonzero" points="227.524 45.543 200.348 45.543 200.348 67.909 227.524 67.909"></polygon>
                    <polygon id="Path" stroke="#000000" stroke-width="0.388003" fill="none" points="227.524 45.543 200.348 45.543 200.348 67.909 227.524 67.909"></polygon>
                    <polygon id="Path" stroke="none" fill="#FFFFFF" fill-rule="nonzero" points="216.497 45.543 211.375 45.543 211.375 51.885 216.497 51.885"></polygon>
                    <polygon id="Path" stroke="#000000" stroke-width="0.388003" fill="none" points="216.497 45.543 211.375 45.543 211.375 51.885 216.497 51.885"></polygon>
                    <path d="M257.388,31.3099 L241.334,31.3099 C241.229,31.3099 241.144,31.2248 241.144,31.1198 C241.144,31.0148 241.229,30.9297 241.334,30.9297 L257.388,30.9297 C257.493,30.9297 257.578,31.0148 257.578,31.1198 C257.578,31.2248 257.493,31.3099 257.388,31.3099 Z" id="Path" stroke="none" fill="#000000" fill-rule="nonzero"></path>
                    <path d="M178.807,59.353 L164.567,59.353 C164.462,59.353 164.377,59.268 164.377,59.163 C164.377,59.058 164.462,58.973 164.567,58.973 L178.807,58.973 C178.912,58.973 178.997,59.058 178.997,59.163 C178.997,59.268 178.912,59.353 178.807,59.353 Z" id="Path" stroke="none" fill="#000000" fill-rule="nonzero"></path>
                    <path d="M299.945,68.009 L292.755,68.009 C292.65,68.009 292.565,67.924 292.565,67.819 C292.565,67.714 292.65,67.629 292.755,67.629 L299.945,67.629 C300.05,67.629 300.135,67.714 300.135,67.819 C300.135,67.924 300.05,68.009 299.945,68.009 Z" id="Path" stroke="none" fill="#000000" fill-rule="nonzero"></path>
                    <path d="M274.286,89.9689996 L138.193,89.9689996 C134.103,89.9689996 130.308,92.097 128.178,95.589 L97.4162,146.005 L55.0228,159.295 C48.4714,161.351 44.1305,167.566 44.4558,174.425 L46.3799,214.692 L333.787,214.692 L333.787,188.874 C333.787,166.37 325.954,144.567 311.63,127.21 L285.1,95.064 C282.437,91.836 278.471,89.9689996 274.286,89.9689996 L274.286,89.9689996 Z" id="Path" stroke="none" fill="#E9E9E9" fill-rule="nonzero"></path>
                    <path d="M53.9467,180.193 L53.9467,186.836 C53.9467,190.429 51.0339,193.342 47.4408,193.342 L45.3684,193.342 L44.4634,174.421 C44.4634,174.178 44.4634,173.931 44.4634,173.688 L47.456,173.688 C51.0432,173.696 53.9467,176.606 53.9467,180.193 L53.9467,180.193 Z" id="Path" stroke="none" fill="#CCCCCC" fill-rule="nonzero"></path>
                    <path d="M53.9467,180.195 L53.9467,186.838 C53.9467,190.431 51.0339,193.344 47.4408,193.344" id="Path" stroke="#000000" stroke-width="0.388003" fill="none"></path>
                    <path d="M327.308,192.503 L327.308,183.103 C327.308,181.003 329.01,179.301 331.11,179.301 L333.312,179.301 C333.628,182.469 333.788,185.658 333.791,188.868 L333.791,196.305047 L331.129,196.305047 C330.117,196.31 329.145,195.912 328.428,195.198 C327.711,194.485 327.308,193.515 327.308,192.503 Z" id="Path" stroke="none" fill="#CCCCCC" fill-rule="nonzero"></path>
                    <path d="M97.4238,146.004 L125.881,99.363 L205.839001,99.363 L205.839001,135.125 C205.839001,138.01 204.694,140.777 202.655,142.817 C200.615,144.858 197.849,146.004 194.964,146.004 L97.4238,146.004 Z" id="Path" stroke="none" fill="#F4F4F4" fill-rule="nonzero"></path>
                    <path d="M101.5114,146.006 L105.9488,138.736 C108.161,135.113 111.5,132.315 115.455,130.773 L119.181,129.317 C119.511,129.186 119.879,129.193 120.204,129.336 C120.528,129.479 120.782,129.746 120.908,130.077 C121.252,130.807 120.989,131.679 120.299,132.097 C119.101,132.899 119.828,134.735 120.398,135.8 C120.492,135.976 120.673,136.089 120.872,136.097 C121.071,136.104 121.26,136.006 121.368,135.838 L128.144,125.29 C128.274,125.088 128.518,124.99 128.752,125.048 C128.986,125.105 129.157,125.305 129.178,125.545 C129.189,125.668 129.159,125.79 129.094,125.895 L121.908,137.439 C121.785,137.634 121.794,137.884 121.93,138.07 C123.74,140.544 125.27,143.211 126.493,146.021 L101.5114,146.006 Z" id="Path" stroke="none" fill="#CCCCCC" fill-rule="nonzero"></path>
                    <path d="M127.908,127.799 L121.915,137.423 C121.793,137.618 121.802,137.868 121.938,138.054 C123.747,140.528 125.278,143.194 126.501,146.005 L101.5304,146.005 L105.9488,138.734 C108.161,135.112 111.5,132.314 115.455,130.772 L119.181,129.316 C119.511,129.185 119.879,129.191 120.204,129.334 C120.528,129.477 120.782,129.745 120.908,130.076 C121.252,130.806 120.989,131.678 120.299,132.095 C119.101,132.898 119.828,134.734 120.398,135.799 C120.492,135.975 120.673,136.088 120.872,136.095 C121.071,136.103 121.26,136.005 121.368,135.837 L128.144,125.289" id="Path" stroke="#000000" stroke-width="0.388003" fill="none"></path>
                    <path d="M183.929,133.429 C183.735,129.627 184.005,126.942 184.382,125.106 C184.813,123.104 186.585,121.677 188.633,121.68397 L193.796,121.68397 C195.405,121.678 196.883,122.566 197.633,123.988 C200.139,128.828 201.937,137.122 202.938,142.536 C200.879,144.761 197.984,146.024 194.952,146.019015 L182.891,146.019015 C183.782,141.885 184.131,137.653 183.929,133.429 Z" id="Path" stroke="none" fill="#CCCCCC" fill-rule="nonzero"></path>
                    <path d="M215.907999,135.125 L215.907999,99.363 L288.648,99.363 L311.63,127.209 C316.397,132.983 320.48,139.29 323.798,146.004003 L226.79,146.004003 C223.904,146.006 221.135,144.861 219.094,142.82 C217.053,140.78 215.907999,138.011 215.907999,135.125 Z" id="Path" stroke="none" fill="#F4F4F4" fill-rule="nonzero"></path>
                    <path d="M274.351,121.667868 L279.511,121.667868 C281.12,121.66 282.599,122.549 283.348,123.972 C286.496,130.056 288.526,141.574 289.257,146.004 L271.005,146.004 C270.306,141.842 269.845,137.643 269.625,133.429 C269.431,129.627 269.701,126.942 270.077,125.105 C270.504,123.089 272.29,121.652 274.351,121.667868 Z" id="Path" stroke="none" fill="#CCCCCC" fill-rule="nonzero"></path>
                    <path d="M183.929,133.429 C183.735,129.627 184.005,126.942 184.382,125.106 C184.813,123.104 186.585,121.677 188.633,121.68397 L193.796,121.68397 C195.405,121.678 196.883,122.566 197.633,123.988 C200.139,128.828 201.937,137.122 202.938,142.536 C200.879,144.761 197.984,146.024 194.952,146.019015 L182.891,146.019015 C183.782,141.885 184.131,137.653 183.929,133.429 L183.929,133.429 Z" id="Path" stroke="#000000" stroke-width="0.388003" fill="none"></path>
                    <path d="M274.351,121.667868 L279.511,121.667868 C281.12,121.66 282.599,122.549 283.348,123.972 C286.496,130.056 288.526,141.574 289.257,146.004 L271.005,146.004 C270.306,141.842 269.845,137.643 269.625,133.429 C269.431,129.627 269.701,126.942 270.077,125.105 C270.504,123.089 272.29,121.652 274.351,121.667868 L274.351,121.667868 Z" id="Path" stroke="#000000" stroke-width="0.388003" fill="none"></path>
                    <path d="M97.4238,146.004 L125.881,99.363 L205.839001,99.363 L205.839001,135.125 C205.839001,138.01 204.694,140.777 202.655,142.817 C200.615,144.858 197.849,146.004 194.964,146.004 L97.4238,146.004 Z" id="Path" stroke="#000000" stroke-width="0.388003" fill="none"></path>
                    <path d="M215.907999,135.125 L215.907999,99.363 L288.648,99.363 L311.63,127.209 C316.397,132.983 320.48,139.29 323.798,146.004003 L226.79,146.004003 C223.904,146.006 221.135,144.861 219.094,142.82 C217.053,140.78 215.907999,138.011 215.907999,135.125 L215.907999,135.125 Z" id="Path" stroke="#000000" stroke-width="0.388003" fill="none"></path>
                    <path d="M333.787,211.672 L46.2354,211.672 L46.2354,218.334 C46.2354,220.224 47.7675,221.756 49.6576,221.756 L328.756,221.756 C331.526,221.756 333.772,219.51 333.772,216.741 L333.772,211.672 L333.787,211.672 Z" id="Path" stroke="none" fill="#F4F4F4" fill-rule="nonzero"></path>
                    <path d="M55.0304,159.295 L97.4237,146.005 L128.185,95.589 C130.315,92.1 134.106,89.971 138.193,89.9689996 L274.286,89.9689996 C278.471,89.9689996 282.437,91.836 285.1,95.064 L311.63,127.21 C325.954,144.567 333.787,166.37 333.787,188.874 L333.787,216.742 C333.787,219.512 331.541,221.757 328.771,221.757 L49.6728,221.757 C47.7827,221.757 46.2506,220.225 46.2506,218.335 L46.2506,211.673 L44.4711,174.409 C44.1518,167.558 48.4877,161.352 55.0304,159.295 L55.0304,159.295 Z" id="Path" stroke="#000000" stroke-width="0.388003" fill="none"></path>
                    <path d="M257.32,214.387 L269.488,214.387 C269.643,202.751 279.12,193.4 290.757,193.4 C302.393,193.4 311.87,202.751 312.026,214.387 L324.193,214.387 C323.998,196.059 309.085,181.305 290.757,181.305 C272.428,181.305 257.515,196.059 257.32,214.387 Z" id="Path" stroke="none" fill="#F4F4F4" fill-rule="nonzero"></path>
                    <circle id="Oval" stroke="#000000" stroke-width="0.388003" fill="#000000" fill-rule="nonzero" transform="translate(290.755000, 214.386000) scale(-1, 1) translate(-290.755000, -214.386000) " cx="290.755" cy="214.386" r="27.3509"></circle>
                    <circle id="Oval" stroke="none" fill="#CCCCCC" fill-rule="nonzero" transform="translate(290.755000, 214.388000) scale(-1, 1) translate(-290.755000, -214.388000) " cx="290.755" cy="214.388" r="13.6774"></circle>
                    <circle id="Oval" stroke="none" fill="#E9E9E9" fill-rule="nonzero" transform="translate(290.755000, 214.387000) scale(-1, 1) translate(-290.755000, -214.387000) " cx="290.755" cy="214.387" r="9.57073"></circle>
                    <path d="M55.5057,214.387 L67.6735,214.387 C67.8291,202.751 77.3058,193.4 88.9424,193.4 C100.5791,193.4 110.056,202.751 110.211,214.387 L122.379,214.387 C122.184,196.059 107.271,181.305 88.9424,181.305 C70.6139,181.305 55.7012,196.059 55.5057,214.387 Z" id="Path" stroke="none" fill="#F4F4F4" fill-rule="nonzero"></path>
                    <circle id="Oval" stroke="#000000" stroke-width="0.388003" fill="#000000" fill-rule="nonzero" transform="translate(88.940500, 214.386000) scale(-1, 1) translate(-88.940500, -214.386000) " cx="88.9405" cy="214.386" r="27.3509"></circle>
                    <circle id="Oval" stroke="none" fill="#CCCCCC" fill-rule="nonzero" transform="translate(88.940500, 214.388000) scale(-1, 1) translate(-88.940500, -214.388000) " cx="88.9405" cy="214.388" r="13.6774"></circle>
                    <circle id="Oval" stroke="none" fill="#E9E9E9" fill-rule="nonzero" transform="translate(88.940500, 214.387000) scale(-1, 1) translate(-88.940500, -214.387000) " cx="88.9405" cy="214.387" r="9.57073"></circle>
                    <rect id="Rectangle" stroke="none" fill="#FFFFFF" fill-rule="nonzero" transform="translate(265.211735, 158.572750) scale(-1, 1) translate(-265.211735, -158.572750) " x="260.57847" y="157.086" width="9.26653" height="2.9735" rx="1.10969"></rect>
                    <line x1="261.666" y1="160.061" x2="268.758" y2="160.061" id="Path" stroke="#000000" stroke-width="0.388003" fill="none"></line>
                    <rect id="Rectangle" stroke="none" fill="#FFFFFF" fill-rule="nonzero" transform="translate(191.128735, 158.572750) scale(-1, 1) translate(-191.128735, -158.572750) " x="186.49547" y="157.086" width="9.26653" height="2.9735" rx="1.10969"></rect>
                    <line x1="187.583" y1="160.061" x2="194.679" y2="160.061" id="Path" stroke="#000000" stroke-width="0.388003" fill="none"></line>
                    <path d="M168.134,108.421 C168.187,108.44 168.236,108.47 168.278,108.508 C168.309,108.536 168.334,108.568 168.354,108.603 C168.398,108.684 168.416,108.775 168.408,108.866 C168.409,108.987 168.352,109.101 168.255,109.174 C168.183,109.218 168.092,109.218 168.02,109.174 C167.949,109.13 167.907,109.052 167.909,108.968 C167.913,108.919 167.921,108.869 167.932,108.82 L167.959,108.695 C167.978,108.62 168.041,108.564 168.118,108.554 C168.195,108.544 168.271,108.581 168.309,108.649 C168.326,108.697 168.326,108.749 168.309,108.797 C168.291,108.865 168.277,108.934 168.267,109.003 L168.267,108.93 L168.267,108.885 L168.236,108.847 L168.198,108.816 L168.153,108.797 L168.103,108.797 L168.054,108.797 L168.012,108.816 L167.974,108.847 L167.944,108.885 C167.951,108.876 167.958,108.865 167.963,108.854 L167.944,108.9 C167.956,108.868 167.965,108.835 167.97,108.801 L167.97,108.851 C167.974,108.825 167.974,108.8 167.97,108.775 L167.97,108.824 C167.966,108.801 167.959,108.778 167.951,108.755 L167.97,108.801 C167.962,108.783 167.951,108.765 167.94,108.748 L167.97,108.786 C167.96,108.773 167.947,108.761 167.932,108.752 L167.97,108.778 L167.928,108.755 L167.974,108.755 C167.95,108.749 167.928,108.737 167.909,108.721 C167.889,108.707 167.872,108.689 167.86,108.668 C167.841,108.62 167.841,108.567 167.86,108.52 C167.873,108.472 167.905,108.431 167.947,108.406 C167.991,108.379 168.043,108.372 168.092,108.387 L168.134,108.421 Z" id="Path" stroke="none" fill="#000000" fill-rule="nonzero"></path>
                    <path d="M173.583,110.709 C174.061,110.643 174.509,110.441 174.876,110.127 C175.292,109.792 175.565,109.31 175.636,108.781 C175.669,108.543 175.598,108.303 175.44,108.121 C175.283,107.94 175.055,107.835 174.815,107.834 C174.33,107.864 173.905,108.168 173.72,108.617 C173.613,108.834 173.282,108.644 173.393,108.423 C173.595,107.987 173.97,107.654 174.427,107.503 C174.871,107.37 175.353,107.488 175.685,107.811 C176.446,108.621 175.781,109.876 175.058,110.473 C174.632,110.82 174.117,111.04 173.571,111.108 C173.469,111.108 173.385,111.013 173.381,110.918 C173.385,110.815 173.468,110.732 173.571,110.728 L173.583,110.709 Z" id="Path" stroke="none" fill="#000000" fill-rule="nonzero"></path>
                    <path d="M174.978,108.772 C174.895,108.667 174.746,108.641 174.632,108.711 C174.505,108.788 174.397,108.894 174.317,109.019 C174.131,109.263 173.992,109.539 173.906,109.833 C173.897,109.855 173.872,109.868 173.849,109.862 C173.825,109.856 173.809,109.834 173.811,109.81 C173.915,109.46 174.087,109.135 174.317,108.852 C174.408,108.719 174.542,108.621 174.697,108.574 C174.831,108.545 174.97,108.599 175.05,108.711 C175.085,108.764 175.005,108.81 174.971,108.76 L174.978,108.772 Z" id="Path" stroke="none" fill="#000000" fill-rule="nonzero"></path>
                    <path d="M174.472,109.231 C174.469,109.203 174.454,109.178 174.431,109.162 C174.406,109.143 174.374,109.135 174.343,109.139 C174.267,109.153 174.2,109.197 174.157,109.261 C174.137,109.278 174.108,109.278 174.088,109.261 C174.07,109.242 174.07,109.212 174.088,109.193 C174.153,109.108 174.249,109.055 174.355,109.044 C174.454,109.04 174.542,109.107 174.564,109.204 C174.567,109.216 174.566,109.228 174.56,109.239 C174.555,109.25 174.545,109.258 174.533,109.261 C174.508,109.269 174.481,109.255 174.472,109.231 Z" id="Path" stroke="none" fill="#000000" fill-rule="nonzero"></path>
                    <path d="M168.67,107.541 C168.622,107.487 168.57,107.436 168.514,107.389 C168.514,107.389 168.514,107.389 168.487,107.37 L168.442,107.336 L168.343,107.279 L168.252,107.233 L168.229,107.233 L168.176,107.214 C168.105,107.189 168.033,107.171 167.959,107.161 C167.911,107.148 167.87,107.116 167.845,107.073 C167.826,107.027 167.826,106.975 167.845,106.929 C167.857,106.88 167.888,106.839 167.932,106.815 C167.979,106.796 168.03,106.796 168.077,106.815 C168.411,106.867 168.717,107.035 168.94,107.29 C169.013,107.365 169.013,107.485 168.94,107.56 C168.866,107.632 168.748,107.632 168.674,107.56 L168.67,107.541 Z" id="Path" stroke="none" fill="#000000" fill-rule="nonzero"></path>
                    <path d="M167.925,103.066 C167.267,104.968 166.594,106.705 166.301,108.736 C166.187,109.389 165.965,110.019 165.643,110.599 C165.584,110.682 165.562,110.786 165.584,110.885 C165.605,110.985 165.669,111.07 165.757,111.12 L165.788,111.12 C165.981,111.229 166.102,111.431 166.107,111.652 C166.153,113.268 165.677,114.835 166.932,115.835 C168.347,116.976 170.56,116.17 172.05,115.219" id="Path" stroke="#000000" stroke-width="0.388003" fill="none"></path>
                    <path d="M177.282,115.793 C176.902,114.843 176.777,113.782 176.522,112.789 C176.45,112.316 176.245,111.874 175.933,111.512 C175.788,111.392 175.65,111.265 175.518,111.131 C175.367,110.94 175.269,110.711 175.233,110.47 C175.187,110.234 175.552,110.131 175.613,110.371 C175.641,110.602 175.747,110.817 175.914,110.979 C176.065,111.098 176.21,111.225 176.347,111.36 C176.627,111.752 176.816,112.201 176.902,112.675 C177.157,113.668 177.282,114.729 177.663,115.675 C177.758,115.9 177.389,115.999 177.282,115.778 L177.282,115.793 Z" id="Path" stroke="none" fill="#000000" fill-rule="nonzero"></path>
                    <path d="M218.851,101.445 C218.829,101.439 218.815,101.419 218.815,101.397 C218.815,101.375 218.829,101.356 218.851,101.35 C218.872,101.356 218.887,101.375 218.887,101.397 C218.887,101.419 218.872,101.439 218.851,101.445 Z" id="Path" stroke="none" fill="#000000" fill-rule="nonzero"></path>
                    <path d="M218.851,101.445 C218.829,101.439 218.815,101.419 218.815,101.397 C218.815,101.375 218.829,101.356 218.851,101.35 C218.872,101.356 218.887,101.375 218.887,101.397 C218.887,101.419 218.872,101.439 218.851,101.445 Z" id="Path" stroke="none" fill="#000000" fill-rule="nonzero"></path>
                    <path d="M255.94,108.421 C255.993,108.441 256.042,108.471 256.084,108.509 C256.114,108.537 256.139,108.569 256.16,108.604 C256.202,108.685 256.221,108.776 256.213,108.866 C256.211,108.986 256.155,109.099 256.061,109.174 C255.987,109.218 255.896,109.218 255.822,109.174 C255.754,109.128 255.714,109.051 255.715,108.969 C255.717,108.919 255.725,108.869 255.738,108.821 L255.765,108.695 C255.778,108.647 255.809,108.606 255.852,108.581 C255.943,108.529 256.058,108.56 256.111,108.65 C256.136,108.695 256.143,108.748 256.13,108.798 C256.13,108.866 256.099,108.935 256.088,109.003 L256.088,108.95 L256.088,108.984 L256.088,108.931 L256.069,108.885 L256.038,108.847 L256,108.817 L255.955,108.798 L255.902,108.798 L255.852,108.798 L255.807,108.817 L255.769,108.847 L255.738,108.885 C255.746,108.876 255.752,108.866 255.757,108.855 L255.738,108.9 C255.749,108.868 255.757,108.835 255.761,108.802 L255.761,108.851 C255.763,108.826 255.763,108.8 255.761,108.775 L255.761,108.851 C255.764,108.828 255.764,108.805 255.761,108.783 L255.761,108.828 L255.73,108.775 L255.757,108.813 C255.746,108.8 255.733,108.788 255.719,108.779 L255.761,108.805 L255.719,108.783 L255.765,108.783 C255.741,108.775 255.719,108.763 255.7,108.748 C255.682,108.733 255.665,108.715 255.651,108.695 C255.634,108.647 255.634,108.595 255.651,108.547 C255.665,108.499 255.696,108.459 255.738,108.433 C255.783,108.406 255.836,108.399 255.886,108.414 L255.94,108.421 Z" id="Path" stroke="none" fill="#000000" fill-rule="nonzero"></path>
                    <path d="M261.392,110.709 C261.87,110.643 262.319,110.441 262.685,110.127 C263.101,109.792 263.373,109.31 263.446,108.781 C263.479,108.543 263.407,108.303 263.25,108.122 C263.092,107.94 262.864,107.835 262.624,107.834 C262.139,107.864 261.714,108.168 261.529,108.618 C261.419,108.835 261.092,108.644 261.202,108.424 C261.403,107.988 261.777,107.654 262.233,107.504 C262.678,107.37 263.161,107.487 263.495,107.812 C264.256,108.622 263.59,109.876 262.868,110.473 C262.441,110.819 261.926,111.039 261.381,111.108 C261.278,111.108 261.191,111.013 261.191,110.918 C261.193,110.814 261.277,110.73 261.381,110.728 L261.392,110.709 Z" id="Path" stroke="none" fill="#000000" fill-rule="nonzero"></path>
                    <path d="M262.784,108.769 C262.699,108.666 262.553,108.64 262.438,108.708 C262.31,108.784 262.202,108.89 262.122,109.016 C261.936,109.26 261.796,109.536 261.708,109.83 C261.708,109.891 261.598,109.864 261.617,109.807 C261.719,109.46 261.891,109.138 262.122,108.86 C262.214,108.727 262.348,108.629 262.503,108.583 C262.638,108.552 262.779,108.606 262.86,108.719 C262.894,108.773 262.811,108.818 262.78,108.769 L262.784,108.769 Z" id="Path" stroke="none" fill="#000000" fill-rule="nonzero"></path>
                    <path d="M262.278,109.229 C262.275,109.201 262.26,109.176 262.236,109.16 C262.211,109.142 262.18,109.134 262.149,109.138 C262.072,109.152 262.004,109.195 261.959,109.259 C261.939,109.272 261.913,109.27 261.897,109.253 C261.88,109.236 261.878,109.21 261.89,109.191 C261.955,109.106 262.054,109.052 262.16,109.043 C262.259,109.04 262.346,109.106 262.37,109.202 C262.375,109.227 262.36,109.252 262.335,109.259 C262.324,109.263 262.311,109.262 262.301,109.256 C262.29,109.25 262.282,109.241 262.278,109.229 Z" id="Path" stroke="none" fill="#000000" fill-rule="nonzero"></path>
                    <path d="M256.472,107.541 C256.425,107.486 256.373,107.435 256.316,107.389 L256.293,107.37 C256.293,107.37 256.324,107.393 256.293,107.37 L256.248,107.336 L256.153,107.279 L256.058,107.233 L256.031,107.233 L255.981,107.214 C255.91,107.189 255.836,107.171 255.761,107.161 C255.714,107.148 255.674,107.116 255.651,107.073 C255.624,107.03 255.617,106.978 255.632,106.929 C255.642,106.881 255.673,106.839 255.715,106.815 C255.763,106.796 255.816,106.796 255.864,106.815 C256.198,106.867 256.504,107.035 256.727,107.29 C256.801,107.365 256.801,107.486 256.727,107.56 C256.652,107.635 256.531,107.635 256.457,107.56 L256.472,107.541 Z" id="Path" stroke="none" fill="#000000" fill-rule="nonzero"></path>
                    <path d="M255.727,103.066 C255.069,104.968 254.4,106.705 254.103,108.736 C253.987,109.389 253.765,110.018 253.445,110.599 C253.386,110.682 253.364,110.786 253.386,110.885 C253.407,110.985 253.471,111.07 253.559,111.12 L253.586,111.12 C253.781,111.227 253.904,111.43 253.909,111.652 C253.951,113.268 253.476,114.835 254.734,115.835 C256.149,116.976 258.563,116.466 260.058,115.512" id="Path" stroke="#000000" stroke-width="0.388003" fill="none"></path>
                    <path d="M255.384,111.458 C255.466,111.435 255.545,111.409 255.624,111.378 L255.651,111.378 L255.708,111.352 L255.829,111.291 C255.904,111.252 255.976,111.209 256.046,111.161 L256.149,111.089 L256.206,111.047 C256.279,110.974 256.398,110.974 256.472,111.047 C256.545,111.121 256.545,111.24 256.472,111.313 C256.179,111.563 255.835,111.747 255.464,111.853 C255.416,111.868 255.364,111.862 255.32,111.838 C255.275,111.813 255.243,111.773 255.229,111.724 C255.204,111.623 255.262,111.52 255.362,111.488 L255.384,111.458 Z" id="Path" stroke="none" fill="#000000" fill-rule="nonzero"></path>
                    <path d="M259.248,116.01 C259.302,116.171 259.342,116.336 259.366,116.504 C259.411,116.755 259.445,117.002 259.483,117.265 C259.544,117.683 259.59,118.105 259.662,118.523 C259.708,118.763 259.339,118.866 259.282,118.626 C259.206,118.208 259.164,117.786 259.103,117.367 C259.065,117.116 259.027,116.865 258.982,116.607 C258.958,116.439 258.918,116.273 258.864,116.113 C258.837,116.011 258.896,115.906 258.997,115.877 C259.098,115.852 259.201,115.91 259.233,116.01 L259.248,116.01 Z" id="Path" stroke="none" fill="#000000" fill-rule="nonzero"></path>
                    <path d="M265.347,117.918 C265.04,117.104 264.792,116.269 264.605,115.42 C264.401,114.525 264.132,113.647 263.799,112.792 C263.459,112.051 263.204,111.275 263.039,110.476 C262.997,110.237 263.362,110.134 263.419,110.378 C263.617,111.266 263.91,112.13 264.294,112.956 C264.471,113.427 264.621,113.908 264.742,114.397 C264.913,115.02 265.073,115.648 265.24,116.275 C265.36,116.768 265.51,117.253 265.689,117.728 C265.784,117.948 265.457,118.142 265.362,117.918 L265.347,117.918 Z" id="Path" stroke="none" fill="#000000" fill-rule="nonzero"></path>
                    <path d="M259.833,115.742 C259.833,115.742 259.632,116.807 259.453,116.883 C259.274,116.959 259.137,116.366 259.137,116.366 L259.392,115.883" id="Path" stroke="none" fill="#000000" fill-rule="nonzero"></path>
                    <path d="M261.662,108.09 C261.662,108.09 261.567,109.158 260.951,109.166 C260.335,109.173 257.358,106.124 257.149,104.314 C257.149,104.314 255.164,107.101 252.13,105.892 L252.13,104.097 C252.13,104.097 253.152,104.284 253.384,104.097 C253.384,104.097 252.244,103.785 251.977,103.291 L254.856,99.359 C254.856,99.359 256.187,101.093 258.046,100.88 C259.906,100.667 261.02,101.283 261.111,101.964 C262.41,101.824 263.719,102.114 264.837,102.789 C266.533,103.903 268.803,108.736 267.233,111.155 C265.662,113.573 265.164,114.801 264.712,115.048 C264.259,115.295 262.122,110.485 262.518,110.485 C262.913,110.485 264.419,108.797 263.389,107.957 C263.153,107.722 262.827,107.601 262.495,107.627 C262.163,107.652 261.859,107.821 261.662,108.09 Z" id="Path" stroke="none" fill="#000000" fill-rule="nonzero"></path>
                    <path d="M165.784,111.132 C165.784,111.132 163.396,115.771 165.932,117.163 C168.468,118.554 173.583,117.923 172.529,112.22 C172.529,112.22 173.161,108.965 174.005,108.223 C174.849,107.482 175.693,107.843 175.841,108.756 C175.99,109.668 174.792,110.577 174.792,110.577 C174.792,110.577 175.663,112.562 176.279,112.984 C176.545,113.22 176.927,113.273 177.247,113.117 C177.567,112.961 177.761,112.628 177.739,112.273 C177.781,111.406 179.67,109.733 179.823,107.71 C179.823,107.71 181.248,108.63 181.188,106.991 C181.127,105.352 179.389,105.257 179.389,105.257 C179.389,105.257 181.093,106.018 180.845,104.733 C180.598,103.447 177.625,103.554 177.625,103.554 C177.625,103.554 177.872,103.337 177.841,102.067 C177.811,100.797 176.609,99.983 175.857,99.527 C174.222,98.538 174.716,101.478 174.716,101.478 C174.716,101.478 174.898,99.576 171.335,98.763 C167.773,97.949 166.081,99.249 165.586,100.333 C165.092,101.417 168.716,100.892 168.567,100.827 C168.419,100.763 164.985,99.002 164.552,100.675 C164.118,102.348 166.415,104.265 169.233,104.858 C169.233,104.858 168.43,105.17 169.233,105.972 C169.513,106.231 169.831,106.447 170.176,106.611 C171.477,107.268 172.11,108.772 171.67,110.162 C171.419,110.923 171.096,111.547 170.716,111.413 C169.754,111.056 169.062,109.273 165.784,111.132 Z" id="Path" stroke="none" fill="#000000" fill-rule="nonzero"></path>
                    <path d="M166.366,102.645 C166.274,102.645 164.788,102.705 164.913,104.131 C165.039,105.557 166.887,106.147 166.887,106.147 C166.887,106.147 167.335,103.709 167.647,103.386" id="Path" stroke="none" fill="#000000" fill-rule="nonzero"></path>
                    <path d="M170.438,117.977 C170.112,117.338 169.822,116.682 169.567,116.012 C169.54,115.907 169.603,115.799 169.708,115.772 C169.813,115.745 169.92,115.808 169.948,115.913 C170.191,116.551 170.469,117.176 170.78,117.783 C170.894,118 170.567,118.194 170.453,117.977 L170.438,117.977 Z" id="Path" stroke="none" fill="#000000" fill-rule="nonzero"></path>
                    <path d="M183.195,146.009 C183.576,142.005 183.918,137.97 183.64,133.947 C183.517,131.941 183.196,129.951 182.682,128.008 C182.226,126.331 181.385,124.818 180.648,123.255 C179.959,121.787 179.267,120.175 179.362,118.517 C179.416,117.623 179.773,116.616 179.119,115.855 L179.077,115.814 C179.1,115.814 179.077,115.814 179.077,115.814 L179.016,115.814 C178.921,115.819 178.826,115.829 178.731,115.844 C177.936,115.984 177.149,116.168 176.374,116.395 C175.328,116.68 174.286,116.992 173.256,117.323 C172.389,117.597 171.518,117.882 170.67,118.217 C170.436,118.304 170.209,118.408 169.989,118.528 L169.948,118.555 C169.913,118.574 169.948,118.555 169.948,118.555 L169.921,118.578 C169.931,118.543 169.945,118.51 169.963,118.479 C169.974,118.551 169.974,118.624 169.963,118.696 L169.963,119.601 C169.963,119.706 169.878,119.791 169.773,119.791 C169.668,119.791 169.583,119.706 169.583,119.601 C169.56,119.221 169.56,118.84 169.583,118.46 C169.609,118.258 169.841,118.163 170.005,118.08 C170.73,117.757 171.474,117.478 172.233,117.243 C174.186,116.56 176.178,115.992 178.199,115.544 C178.465,115.48 178.736,115.439 179.009,115.422 C179.431,115.422 179.667,115.859 179.792,116.217 C180.096,117.118 179.716,118.08 179.754,118.996 C179.81,119.838 179.999,120.666 180.313,121.449 C180.937,123.126 181.861,124.673 182.541,126.323 C183.224,128.177 183.655,130.113 183.823,132.08 C184.328,136.206 184.058,140.377 183.693,144.499 C183.652,145.005 183.602,145.507 183.556,146.02 C183.534,146.263 183.153,146.263 183.176,146.02 L183.195,146.009 Z" id="Path" stroke="none" fill="#000000" fill-rule="nonzero"></path>
                    <path d="M175.415,119.304 C175.415,119.304 168.537,117.197 161.476,125.437 C154.415,133.677 152.183,133.586 152.183,133.586 C152.183,133.586 140.543,124.239 139.551,124.19 C138.559,124.14 135.155,127.152 135.806,130.053 C135.806,130.053 143.388,139.882 149.209,142.943 C155.031,146.004 169.742,134.171 169.742,134.171" id="Path" stroke="#000000" stroke-width="0.388003" fill="none"></path>
                    <path d="M161.118,140.031 C161.118,140.031 161.499,143.412 161.118,144.465 C160.738,145.518 160.605,146.016 160.605,146.016" id="Path" stroke="#000000" stroke-width="0.388003" fill="none"></path>
                    <path d="M132.167,122.92 L132.752,123.407 C132.786,123.443 132.805,123.491 132.805,123.54 C132.808,123.591 132.788,123.641 132.752,123.677 C132.716,123.713 132.666,123.733 132.615,123.73 C132.569,123.728 132.525,123.71 132.49,123.681 L131.904,123.194 C131.867,123.158 131.846,123.109 131.847,123.057 C131.849,123.007 131.869,122.96 131.904,122.924 C131.94,122.889 131.987,122.868 132.037,122.867 C132.088,122.871 132.136,122.891 132.174,122.924 L132.167,122.92 Z" id="Path" stroke="none" fill="#000000" fill-rule="nonzero"></path>
                    <path d="M167.579,111.459 C167.66,111.437 167.74,111.41 167.818,111.379 L167.849,111.379 L167.906,111.352 L168.027,111.291 C168.103,111.254 168.175,111.211 168.244,111.162 L168.347,111.09 L168.4,111.048 C168.446,110.993 168.519,110.969 168.588,110.985 C168.658,111.002 168.713,111.055 168.73,111.125 C168.747,111.194 168.724,111.267 168.67,111.314 C168.375,111.564 168.03,111.748 167.659,111.854 C167.61,111.868 167.558,111.862 167.514,111.838 C167.47,111.814 167.437,111.773 167.423,111.725 C167.398,111.623 167.456,111.52 167.556,111.489 L167.579,111.459 Z" id="Path" stroke="none" fill="#FFFFFF" fill-rule="nonzero"></path>
                    <path d="M266.066,106.206 C266.066,106.206 265.351,99.48 271.655,99.179 C277.96,98.879 281.545,97.301 281.545,97.301 C281.545,97.301 282.519,102.046 281.925,103.503 C280.761,103.7 279.582,103.808 278.401,103.826 L281.777,104.586 C281.777,104.586 281.017,108.103 278.773,110.434 C278.773,110.434 274.047,105.788 270.67,106.012 C267.294,106.237 266.031,107.738 266.031,107.738" id="Path" stroke="none" fill="#000000" fill-rule="nonzero"></path>
                    <path d="M266.039,119.02 C266.039,119.02 269.366,127.031 269.841,135.123 C270.317,143.214 270.982,146.005 270.982,146.005" id="Path" stroke="#000000" stroke-width="0.388003" fill="none"></path>
                    <path d="M266.442,117.825 C266.275,117.696 259.464,117.905 258.347,119.388 L258.727,121.331 C258.727,121.331 252.643,122.981 251.335,130.662 C250.027,138.343 246.627,146.005 246.627,146.005" id="Path" stroke="#000000" stroke-width="0.388003" fill="none"></path>
                    <path d="M265.51,131.898 C265.617,132.397 263.495,132.895 263.647,136.115 C263.799,139.336 263.647,146.002 263.647,146.002" id="Path" stroke="#000000" stroke-width="0.388003" fill="none"></path>
                    <path d="M131.356,115.536 C131.189,114.802 130.458,114.343 129.724,114.511 C128.99,114.679 128.531,115.41 128.699,116.144 L132.716,133.714 C132.884,134.448 133.615,134.907 134.349,134.739 C135.083,134.571 135.542,133.84 135.374,133.106 L131.356,115.536 Z" id="Path" stroke="none" fill="#000000" fill-rule="nonzero"></path>
                    <path d="M132.805,121.398 C132.805,121.398 133.977,122.824 132.714,122.703 C131.452,122.581 129.672,121.988 129.672,122.273 C129.672,122.558 128.668,128.676 131.193,128.528 C133.718,128.38 134.851,128.825 134.851,128.825" id="Path" stroke="none" fill="#F4F4F4" fill-rule="nonzero"></path>
                    <path d="M138.323,124.914 C137.737,124.597 137.22,124.166 136.802,123.647 C136.334,123.127 135.889,122.587 135.391,122.092 C134.429,121.142 133.11,120.301 131.695,120.663 C131.59,120.691 131.482,120.629 131.454,120.524 C131.425,120.419 131.487,120.311 131.592,120.282 C132.984,119.929 134.349,120.613 135.361,121.529 C135.898,122.042 136.405,122.584 136.882,123.153 C137.325,123.733 137.883,124.216 138.52,124.571 C138.741,124.678 138.547,125.005 138.327,124.902 L138.323,124.914 Z" id="Path" stroke="none" fill="#000000" fill-rule="nonzero"></path>
                    <path d="M133.205,122.952 L130.828,122.629 C130.118,122.579 129.422,122.411 128.767,122.131 C128.55,122.02 128.741,121.693 128.961,121.804 C129.615,122.071 130.309,122.23 131.014,122.275 L133.296,122.587 C133.535,122.621 133.433,122.986 133.193,122.967 L133.205,122.952 Z" id="Path" stroke="none" fill="#000000" fill-rule="nonzero"></path>
                    <path d="M130.071,127.632 C130.999,128.111 132.075,128.191 133.091,128.331 C133.984,128.457 135.06,128.457 135.752,129.092 C135.935,129.252 135.669,129.522 135.486,129.358 C135.121,129.081 134.684,128.914 134.228,128.875 C133.722,128.795 133.212,128.731 132.707,128.662 C131.726,128.591 130.764,128.355 129.862,127.963 C129.646,127.849 129.84,127.521 130.056,127.632 L130.071,127.632 Z" id="Path" stroke="none" fill="#000000" fill-rule="nonzero"></path>
                    <path d="M130.235,126.46 L129.619,126.304 C129.57,126.291 129.528,126.258 129.503,126.214 C129.478,126.17 129.472,126.117 129.486,126.068 C129.515,125.969 129.617,125.911 129.718,125.935 L130.338,126.091 C130.439,126.121 130.498,126.225 130.471,126.327 C130.44,126.427 130.336,126.485 130.235,126.46 Z" id="Path" stroke="none" fill="#000000" fill-rule="nonzero"></path>
                    <path d="M130.071,124.573 C129.95,124.56 129.83,124.534 129.714,124.494 C129.599,124.453 129.488,124.401 129.383,124.338 C129.324,124.303 129.288,124.239 129.288,124.171 C129.289,124.102 129.326,124.039 129.385,124.006 C129.445,123.972 129.518,123.972 129.577,124.007 C129.644,124.05 129.714,124.086 129.786,124.117 L129.741,124.117 C129.863,124.167 129.99,124.202 130.121,124.22 L130.071,124.22 C130.121,124.223 130.168,124.243 130.205,124.277 C130.241,124.312 130.261,124.361 130.261,124.412 C130.261,124.462 130.241,124.511 130.205,124.547 C130.17,124.583 130.121,124.602 130.071,124.6 L130.071,124.573 Z" id="Path" stroke="none" fill="#000000" fill-rule="nonzero"></path>
                    <path d="M189.526,110.898 L187.929,110.898 C187.656,110.898 187.394,111.007 187.201,111.2 C187.007,111.394 186.899,111.656 186.899,111.929 L186.899,118.013 C186.899,118.286 187.007,118.548 187.201,118.741 C187.394,118.935 187.656,119.043 187.929,119.043 L192.416,119.043 C193.867,119.043 195.044,117.867 195.044,116.416 C195.035,113.372 192.57,110.907 189.526,110.898 Z" id="Path" stroke="none" fill="#CCCCCC" fill-rule="nonzero"></path>
                    <path d="M189.526,110.898 L187.929,110.898 C187.656,110.898 187.394,111.007 187.201,111.2 C187.007,111.394 186.899,111.656 186.899,111.929 L186.899,118.013 C186.899,118.286 187.007,118.548 187.201,118.741 C187.394,118.935 187.656,119.043 187.929,119.043 L192.416,119.043 C193.867,119.043 195.044,117.867 195.044,116.416 C195.035,113.372 192.57,110.907 189.526,110.898 L189.526,110.898 Z" id="Path" stroke="#000000" stroke-width="0.388003" fill="none"></path>
                    <line x1="190.648" y1="121.271" x2="190.648" y2="119.164" id="Path" stroke="#000000" stroke-width="0.388003" fill="none"></line>
                    <path d="M275.237,110.898 L273.64,110.898 C273.071,110.898 272.61,111.36 272.61,111.929 L272.61,118.013 C272.61,118.582 273.071,119.043 273.64,119.043 L278.123,119.043 C279.574,119.043 280.751,117.867 280.751,116.416 C280.742,113.374 278.279,110.909 275.237,110.898 L275.237,110.898 Z" id="Path" stroke="none" fill="#CCCCCC" fill-rule="nonzero"></path>
                    <path d="M275.237,110.898 L273.64,110.898 C273.071,110.898 272.61,111.36 272.61,111.929 L272.61,118.013 C272.61,118.582 273.071,119.043 273.64,119.043 L278.123,119.043 C279.574,119.043 280.751,117.867 280.751,116.416 C280.742,113.374 278.279,110.909 275.237,110.898 L275.237,110.898 Z" id="Path" stroke="#000000" stroke-width="0.388003" fill="none"></path>
                    <line x1="276.374" y1="121.271" x2="276.374" y2="119.164" id="Path" stroke="#000000" stroke-width="0.388003" fill="none"></line>
                    <path d="M160.605,140.308 C160.605,140.175 163.989,138.277 163.989,138.277 C163.989,138.277 168.659,146.004 169.153,146.004 L163.001,146.004 C163.001,146.004 160.495,141.194 160.605,140.308 Z" id="Path" stroke="none" fill="#000000" fill-rule="nonzero"></path>
                    <path d="M270.096,125.105 C270.096,125.105 268.765,125.261 268.145,125.695 C267.902,125.866 268.298,125.961 268.298,125.961 L269.438,131.49 L269.704,127.102 L270.096,125.105 Z" id="Path" stroke="none" fill="#000000" fill-rule="nonzero"></path>
                    <path d="M264.301,133.328 C264.301,133.328 264.51,139.712 264.944,141.199 C265.377,142.686 269.343,146.002 269.343,146.002 L264.575,146.002 C264.575,146.002 263.305,146.557 263.487,145.568 C263.67,144.58 263.073,133.91 264.301,133.328 L264.301,133.328 Z" id="Path" stroke="none" fill="#000000" fill-rule="nonzero"></path>
                    <path d="M250.974,132.51 C250.974,132.51 252.187,135.905 253.377,136.959 C253.377,136.959 253.206,145.94 253.084,145.704 C252.962,145.468 249.304,137.468 249.244,136.415 C249.183,135.362 249.666,131.532 250.974,132.51 Z" id="Path" stroke="none" fill="#000000" fill-rule="nonzero"></path>
                    <path d="M168.868,134.855 C168.868,134.855 165.681,139.335 164.879,141.936 C164.077,144.536 161.118,144.453 161.118,144.453 L161.289,141.479 C161.289,141.479 162.248,139.266 163.118,138.772 C163.989,138.278 168.868,134.855 168.868,134.855 Z" id="Path" stroke="none" fill="#000000" fill-rule="nonzero"></path>
                    <polygon id="Path" stroke="none" fill="#000000" fill-rule="nonzero" points="239.224 87.684 235.756 87.684 235.756 91.151 239.224 91.151"></polygon>
                    <polyline id="Path" stroke="#000000" stroke-width="0.388003" fill="none" points="237.49 89.415 237.49 80.848 244.734 80.848"></polyline>
                    <polygon id="Path" stroke="none" fill="#000000" fill-rule="nonzero" points="181.397 91.148 184.865 91.148 184.865 87.681 181.397 87.681"></polygon>
                    <polyline id="Path" stroke="#000000" stroke-width="0.388003" fill="none" points="183.131 89.415 183.131 80.848 175.891 80.848"></polyline>
                    <path d="M152.373,133.719 C152.173,133.824 151.955,133.891 151.73,133.916 C151.628,133.922 151.525,133.922 151.422,133.916 L151.274,133.916 C151.251,133.916 151.247,133.916 151.274,133.916 L151.232,133.916 L151.152,133.943 C151.051,133.97 150.948,133.91 150.92,133.81 C150.893,133.708 150.952,133.604 151.053,133.574 C151.258,133.523 151.47,133.503 151.681,133.517 L151.753,133.517 L151.795,133.517 L151.939,133.483 C152.028,133.458 152.113,133.423 152.194,133.38 C152.253,133.337 152.331,133.332 152.395,133.366 C152.459,133.4 152.498,133.467 152.496,133.54 C152.494,133.612 152.45,133.677 152.384,133.707 L152.373,133.719 Z" id="Path" stroke="none" fill="#000000" fill-rule="nonzero"></path>
                    <path d="M253.536,134.791 L253.453,139.526 C253.469,141.051 253.375,142.576 253.171,144.088 C253.13,144.328 252.765,144.225 252.791,143.986 C252.991,142.473 253.081,140.948 253.061,139.423 L253.145,134.784 C253.145,134.679 253.23,134.594 253.335,134.594 C253.44,134.594 253.525,134.679 253.525,134.784 L253.536,134.791 Z" id="Path" stroke="none" fill="#000000" fill-rule="nonzero"></path>
                    <path d="M266.906,122.818 C266.385,122.971 265.974,123.373 265.811,123.891 C265.58,124.44 265.563,125.056 265.765,125.617 C265.999,126.039 266.35,126.384 266.777,126.609 C267.221,126.964 267.801,127.104 268.358,126.99 C268.419,126.971 268.442,127.062 268.385,127.081 C267.817,127.21 267.222,127.082 266.758,126.731 C266.205,126.494 265.781,126.031 265.593,125.46 C265.405,124.89 265.47,124.266 265.773,123.746 C265.968,123.258 266.378,122.887 266.883,122.742 C266.907,122.74 266.93,122.756 266.935,122.78 C266.941,122.804 266.929,122.828 266.906,122.837 L266.906,122.818 Z" id="Path" stroke="none" fill="#000000" fill-rule="nonzero"></path>
                    <path d="M265.674,119.59 C264.983,119.842 264.219,119.809 263.552,119.498 C263.006,119.22 262.652,118.67 262.624,118.057 C262.624,117.997 262.716,117.997 262.719,118.057 C262.749,118.652 263.103,119.181 263.64,119.438 C264.278,119.714 264.997,119.736 265.651,119.498 C265.708,119.479 265.735,119.571 265.674,119.59 Z" id="Path" stroke="none" fill="#000000" fill-rule="nonzero"></path>
                    <path d="M260.252,124.06 C261.217,124.09 261.985,125.079 262.024,125.999 C262.062,126.984 261.21,127.843 260.426,128.315 C259.629,128.855 258.591,128.883 257.765,128.387 C256.998,127.851 256.735,126.836 257.145,125.995 C257.397,125.431 257.765,124.926 258.225,124.512 C258.592,124.106 259.15,123.929 259.685,124.048 C259.742,124.048 259.719,124.159 259.658,124.14 C258.681,123.862 257.833,124.946 257.404,125.687 C256.943,126.486 256.871,127.539 257.639,128.178 C258.325,128.707 259.253,128.798 260.027,128.41 C260.869,128.051 261.528,127.364 261.852,126.509 C262.141,125.501 261.324,124.193 260.236,124.159 C260.215,124.153 260.201,124.133 260.201,124.111 C260.201,124.089 260.215,124.07 260.236,124.064 L260.252,124.06 Z" id="Path" stroke="none" fill="#000000" fill-rule="nonzero"></path>
                    <path d="M252.422,127.756 C252.946,128.098 253.393,128.547 253.734,129.071 C254.016,129.607 254.073,130.232 253.894,130.809 C253.74,131.344 253.44,131.824 253.027,132.197 C252.824,132.385 252.594,132.542 252.346,132.665 C252.019,132.824 251.654,132.885 251.339,133.068 C251.289,133.098 251.24,133.015 251.293,132.984 C251.55,132.859 251.817,132.755 252.092,132.672 C252.358,132.568 252.607,132.423 252.829,132.243 C253.258,131.895 253.58,131.434 253.757,130.912 C253.973,130.324 253.933,129.674 253.647,129.117 C253.312,128.609 252.877,128.174 252.369,127.839 C252.32,127.801 252.369,127.718 252.415,127.756 L252.422,127.756 Z" id="Path" stroke="none" fill="#000000" fill-rule="nonzero"></path>
                    <path d="M263.465,134.828 C262.75,134.504 261.883,134.976 261.358,135.459 C260.823,135.919 260.569,136.627 260.689,137.322 C260.917,138.558 262.491,140.254 263.841,139.474 C263.855,139.466 263.873,139.466 263.887,139.474 C263.901,139.483 263.91,139.498 263.91,139.514 C263.91,139.531 263.901,139.546 263.887,139.554 C262.746,140.216 261.461,139.147 260.913,138.189 C260.602,137.682 260.495,137.076 260.613,136.493 C260.766,135.946 261.11,135.471 261.582,135.155 C262.122,134.774 262.86,134.447 263.514,134.744 C263.567,134.771 263.514,134.854 263.465,134.828 Z" id="Path" stroke="none" fill="#000000" fill-rule="nonzero"></path>
                    <path d="M255.442,136.606 C256.421,136.579 257.309,137.18 257.647,138.1 C257.853,138.538 257.938,139.022 257.894,139.503 C257.806,139.96 257.53,140.359 257.134,140.602 C256.373,141.184 255.331,141.72 254.377,141.26 C253.575,140.88 253.286,139.891 253.278,139.062 C253.231,138.058 253.671,137.092 254.461,136.469 C254.51,136.435 254.559,136.518 254.51,136.553 C253.846,137.064 253.438,137.838 253.392,138.674 C253.32,139.435 253.457,140.355 254.042,140.91 C254.78,141.61 255.864,141.329 256.632,140.838 C257.049,140.621 257.402,140.3 257.658,139.906 C257.845,139.443 257.845,138.925 257.658,138.461 C257.35,137.477 256.518,136.606 255.423,136.701 C255.362,136.701 255.362,136.613 255.423,136.606 L255.442,136.606 Z" id="Path" stroke="none" fill="#000000" fill-rule="nonzero"></path>
                    <path d="M263.716,144.365 C263.366,144.144 262.958,144.034 262.544,144.05 C262.131,144.017 261.715,144.044 261.309,144.129 C260.898,144.264 260.549,144.54 260.324,144.909 C260.069,145.266 259.841,145.643 259.601,146.012 C259.567,146.061 259.487,146.012 259.522,145.962 C259.788,145.548 260.039,145.114 260.339,144.723 C260.57,144.397 260.901,144.156 261.282,144.038 C261.707,143.947 262.142,143.92 262.575,143.958 C262.994,143.944 263.408,144.058 263.761,144.285 C263.811,144.32 263.761,144.403 263.716,144.365 Z" id="Path" stroke="none" fill="#000000" fill-rule="nonzero"></path>
                    <path d="M255.088,145.842 C254.806,145.379 254.404,145 253.924,144.747 C253.871,144.72 253.924,144.636 253.974,144.667 C254.468,144.932 254.881,145.326 255.168,145.807 C255.181,145.83 255.175,145.858 255.153,145.872 C255.13,145.886 255.102,145.879 255.088,145.857 L255.088,145.842 Z" id="Path" stroke="none" fill="#000000" fill-rule="nonzero"></path>
                    <path d="M249.061,141.056 C249.685,141.881 250.152,142.915 249.886,143.968 C249.69,144.874 248.847,145.49 247.924,145.402 C247.863,145.402 247.89,145.303 247.947,145.311 C248.92,145.447 249.688,144.641 249.848,143.736 C250.004,142.771 249.559,141.835 248.993,141.105 C248.955,141.056 249.038,141.006 249.072,141.056 L249.061,141.056 Z" id="Path" stroke="none" fill="#000000" fill-rule="nonzero"></path>
                    <path d="M269.453,134.731 C267.981,135.058 266.97,136.413 267.077,137.918 C267.153,138.661 267.493,139.352 268.035,139.865 C268.659,140.45 269.507,140.659 270.317,140.85 C270.377,140.85 270.350989,140.956 270.29,140.945 C269.585,140.819 268.91,140.561 268.301,140.184 C267.82,139.844 267.444,139.375 267.218,138.83 C266.76,137.752 266.963,136.507 267.739,135.629 C268.18,135.123 268.771,134.771 269.427,134.625 C269.488,134.625 269.514,134.705 269.453,134.716 L269.453,134.731 Z" id="Path" stroke="none" fill="#000000" fill-rule="nonzero"></path>
                    <path d="M269.944,145.829 C269.723,144.916 269.244,143.958 268.298,143.627 C267.351,143.296 266.396,143.814 265.689,144.426 C265.643,144.464 265.575,144.399 265.624,144.357 C266.343,143.722 267.351,143.217 268.324,143.536 C269.298,143.855 269.807,144.855 270.039,145.817 C270.039,145.878 269.959,145.905 269.944,145.844 L269.944,145.829 Z" id="Path" stroke="none" fill="#000000" fill-rule="nonzero"></path>
                    <path d="M142.448,133.291 C142.551,133.409 142.614,133.555 142.631,133.71 C142.629,133.841 142.548,133.958 142.426,134.006 C142.289,134.056 142.178,133.957 142.121,133.835 C142.041,133.692 142.008,133.527 142.026,133.364 C142.05,133.214 142.175,133.101 142.327,133.094 C142.348,133.1 142.363,133.119 142.363,133.141 C142.363,133.163 142.348,133.183 142.327,133.189 C142.225,133.194 142.141,133.268 142.121,133.368 C142.096,133.497 142.117,133.631 142.178,133.748 C142.213,133.831 142.27,133.965 142.38,133.934 C142.472,133.906 142.535,133.821 142.536,133.725 C142.52,133.583 142.461,133.45 142.365,133.345 C142.331,133.295 142.41,133.25 142.448,133.299 L142.448,133.291 Z" id="Path" stroke="none" fill="#000000" fill-rule="nonzero"></path>
                    <path d="M140.3,131.221 C140.402,131.339 140.466,131.485 140.483,131.639 C140.481,131.77 140.4,131.886 140.277,131.932 C140.14,131.985 140.03,131.886 139.973,131.765 C139.893,131.621 139.859,131.457 139.874,131.293 C139.901,131.143 140.026,131.031 140.178,131.02 C140.239,131.02 140.239,131.118 140.178,131.115 C140.077,131.123 139.993,131.197 139.973,131.297 C139.948,131.427 139.968,131.561 140.03,131.677 C140.064,131.761 140.121,131.894 140.232,131.864 C140.324,131.835 140.387,131.751 140.387,131.655 C140.372,131.513 140.312,131.38 140.216,131.274 C140.182,131.225 140.262,131.179 140.3,131.229 L140.3,131.221 Z" id="Path" stroke="none" fill="#000000" fill-rule="nonzero"></path>
                    <path d="M138.152,129.147 C138.254,129.264 138.318,129.41 138.334,129.565 C138.333,129.696 138.251,129.812 138.129,129.858 C137.992,129.911 137.882,129.808 137.825,129.691 C137.743,129.548 137.709,129.383 137.726,129.219 C137.752,129.069 137.877,128.955 138.03,128.945 C138.051,128.951 138.066,128.971 138.066,128.993 C138.066,129.015 138.051,129.034 138.03,129.04 C137.928,129.049 137.845,129.123 137.825,129.223 C137.8,129.352 137.82,129.487 137.882,129.603 C137.916,129.687 137.973,129.816 138.083,129.789 C138.175,129.761 138.238,129.677 138.239,129.58 C138.224,129.439 138.164,129.306 138.068,129.2 C138.034,129.151 138.114,129.105 138.152,129.154 L138.152,129.147 Z" id="Path" stroke="none" fill="#000000" fill-rule="nonzero"></path>
                    <line x1="237.011" y1="82.76" x2="183.131" y2="82.76" id="Path" stroke="#000000" stroke-width="0.388003" fill="none"></line>
                    <line x1="237.011" y1="86.323" x2="183.131" y2="86.323" id="Path" stroke="#000000" stroke-width="0.388003" fill="none"></line>
                    <line x1="210.531" y1="155.859" x2="210.531" y2="221.756" id="Path" stroke="#000000" stroke-width="0.388003" fill="none"></line>
                    <rect id="Rectangle" stroke="none" fill="#9FF3DD" fill-rule="nonzero" transform="translate(322.729700, 145.105300) scale(-1, 1) translate(-322.729700, -145.105300) " x="314.1514" y="136.527" width="17.1566" height="17.1566" rx="8.57829"></rect>
                    <path d="M254.141,171.211 L243.521,182.238 C243.307,182.462 242.99,182.556 242.688,182.485 C242.386,182.413 242.145,182.188 242.053,181.892 L237.665,167.788 C237.572,167.493 237.643,167.17 237.851,166.94 C238.059,166.71 238.373,166.608 238.677,166.67 L253.689,169.754 C253.998,169.82 254.247,170.048 254.341,170.35 C254.435,170.652 254.358,170.981 254.141,171.211 Z" id="Path" stroke="none" fill="#7F61CD" fill-rule="nonzero"></path>
                    <path d="M296.029,82.32 L262.084,82.32 C262.063,82.314 262.049,82.294 262.049,82.272 C262.049,82.25 262.063,82.231 262.084,82.225 L296.029,82.225 C296.05,82.231 296.065,82.25 296.065,82.272 C296.065,82.294 296.05,82.314 296.029,82.32 Z" id="Path" stroke="none" fill="#000000" fill-rule="nonzero"></path>
                    <path d="M161.742,79.347 L148.738,79.347 C148.717,79.353 148.696,79.345 148.684,79.328 C148.672,79.311 148.672,79.288 148.684,79.271 C148.696,79.254 148.717,79.246 148.738,79.252 L161.742,79.252 C161.763,79.258 161.778,79.277 161.778,79.299 C161.778,79.322 161.763,79.341 161.742,79.347 Z" id="Path" stroke="none" fill="#000000" fill-rule="nonzero"></path>
                    <path d="M220.836,183.031 L143.159,183.031 C143.138,183.025 143.124,183.005 143.124,182.983 C143.124,182.961 143.138,182.942 143.159,182.936 L220.836,182.936 C220.857,182.942 220.871,182.961 220.871,182.983 C220.871,183.005 220.857,183.025 220.836,183.031 Z" id="Path" stroke="none" fill="#000000" fill-rule="nonzero"></path>
                    <path d="M232.353,197.898 L184.062,197.898 C184.042,197.904 184.02,197.896 184.008,197.879 C183.996,197.862 183.996,197.839 184.008,197.822 C184.02,197.805 184.042,197.797 184.062,197.803 L232.353,197.803 C232.373,197.797 232.395,197.805 232.407,197.822 C232.419,197.839 232.419,197.862 232.407,197.879 C232.395,197.896 232.373,197.904 232.353,197.898 Z" id="Path" stroke="none" fill="#000000" fill-rule="nonzero"></path>
                    <path d="M339.388,169.281 L309.284,169.281 C309.263,169.275 309.248,169.255 309.248,169.233 C309.248,169.211 309.263,169.192 309.284,169.186 L339.388,169.186 C339.409,169.192 339.424,169.211 339.424,169.233 C339.424,169.255 339.409,169.275 339.388,169.281 Z" id="Path" stroke="none" fill="#000000" fill-rule="nonzero"></path>
                    <path d="M158.019,129.224 C158.019,129.224 156.209,130.498 154.476,130.254 C152.742,130.011 143.159,122.771 143.159,122.771 C142.999,122.601 142.776,122.504 142.542,122.504 C142.308,122.504 142.084,122.601 141.924,122.771 C141.434,123.369 141.037,124.037 140.745,124.752" id="Path" stroke="#000000" stroke-width="0.388003" fill="none"></path>
                    <path d="M135.083,118.881 C136.385,119.246 137.631,119.787 138.787,120.49 C139.848,121.086 140.829,121.814 141.707,122.657 C141.882,122.828 141.612,123.098 141.437,122.923 C140.581,122.106 139.627,121.399 138.596,120.817 C137.468,120.131 136.252,119.603 134.98,119.246 C134.912,119.228 134.859,119.175 134.841,119.107 C134.823,119.039 134.843,118.966 134.893,118.917 C134.943,118.867 135.015,118.848 135.083,118.866 L135.083,118.881 Z" id="Path" stroke="none" fill="#000000" fill-rule="nonzero"></path>
                    <path d="M138.745,122.471 C138.361,122.405 137.967,122.444 137.604,122.585 C137.414,122.649 137.224,122.722 137.045,122.802 C136.939,122.843 136.752,122.904 136.703,123.022 L136.357,122.878 L136.376,122.84 C136.428,122.748 136.545,122.717 136.636,122.769 C136.728,122.822 136.759,122.938 136.707,123.03 L136.684,123.068 C136.581,123.25 136.25,123.125 136.338,122.923 C136.417,122.738 136.566,122.592 136.752,122.516 C136.969,122.414 137.197,122.326 137.422,122.246 C137.875,122.066 138.371,122.017 138.851,122.106 C139.091,122.159 138.988,122.528 138.752,122.486 L138.745,122.471 Z" id="Path" stroke="none" fill="#000000" fill-rule="nonzero"></path>
                    <path d="M136.6,121.184 C136.547,121.213 136.496,121.248 136.448,121.286 L136.486,121.256 C136.394,121.328 136.311,121.411 136.239,121.503 L136.266,121.465 C136.204,121.549 136.151,121.638 136.106,121.731 C136.082,121.774 136.043,121.805 135.996,121.819 C135.946,121.832 135.893,121.825 135.847,121.8 C135.804,121.775 135.773,121.734 135.76,121.686 C135.743,121.639 135.743,121.588 135.76,121.541 C135.894,121.253 136.114,121.013 136.391,120.857 C136.45,120.814 136.528,120.808 136.592,120.842 C136.656,120.876 136.695,120.944 136.693,121.016 C136.691,121.089 136.647,121.154 136.581,121.184 L136.6,121.184 Z" id="Path" stroke="none" fill="#000000" fill-rule="nonzero"></path>
                    <path d="M325.7,73.027 L333.772,73.027 C335.338,73.027 336.317,74.725 335.531,76.081 L322.081,99.362 C321.307,100.707 319.371,100.719 318.573,99.386 L314.467,92.491 C314.092,91.856 314.086,91.07 314.456,90.429 L323.941,74.038 C324.304,73.415 324.973,73.027 325.7,73.027 Z" id="Path" stroke="none" fill="#44E0B7" fill-rule="nonzero"></path>
                    <rect id="Rectangle" stroke="none" fill="#5635AC" fill-rule="nonzero" x="216.863" y="212.324" width="16.1469" height="16.1469" rx="8.07345"></rect>
                    <line x1="81.3802" y1="118.184" x2="55.3013" y2="118.184" id="Path" stroke="#000000" stroke-width="0.636071" fill="none" opacity="0.5" stroke-linecap="round"></line>
                    <line x1="101.7345" y1="118.184" x2="87.1048" y2="118.184" id="Path" stroke="#000000" stroke-width="0.636071" fill="none" opacity="0.5" stroke-linecap="round"></line>
                    <path d="M113.429,19.6684 L104.8244,19.6684 C105.2162,15.6567 97.5358,12.1728 94.7014,16.6297 C96.8358,10.6285 90.1316,4.427 84.5783,11.0585 C81.0353,6.1628 73.5384,-1.9421 66.863,0.4229 C60.7078,2.6037 61.4641,8.8639 62.3077,11.0585 C59.6082,10.2144 55.3991,11.0585 55.3991,15.2742 C55.3991,20.5409 60.2831,21.019 60.7892,21.1878 L37.0001,21.1878" id="Path" stroke="#181A1D" stroke-width="0.6" fill="none" stroke-linejoin="round"></path>
                    <path d="M287,38.265 C289.852,38.453 295.785,38.602 296.698,37.703 C297.562,36.852 301.902,36.605 304.299,36.581 C304.529,36.578 304.731,36.43 304.803,36.211 C306.37,31.4794 310.37,24.5114 315.072,30.8697 C315.295,31.1721 315.761,31.18 316.015,30.9025 C318.347,28.3536 323.93,26.443 324.418,32.6262 L324.418,34.2474 C324.418,34.7047 324.982,34.9665 325.375,34.7329 C329.094,32.5215 335.019,34.1581 331.529,39.177 C331.261,39.562 331.541,40.126 332.009,40.094 L342.336,39.39" id="Path" stroke="#181A1D" stroke-width="0.527013" fill="none" stroke-linejoin="round"></path>
                </g>
            </g>
        </g>
    </g>
</svg>