<?xml version="1.0" encoding="UTF-8"?>
<svg width="276px" height="38px" viewBox="0 0 276 38" version="1.1" xmlns="http://www.w3.org/2000/svg" xmlns:xlink="http://www.w3.org/1999/xlink">
    <title>logo-white</title>
    <g id="Page-1" stroke="none" stroke-width="1" fill="none" fill-rule="evenodd">
        <g id="logo-white" fill-rule="nonzero">
            <path d="M69.2195,30.2993 L64.8932,30.2993 L64.8932,28.5277 C63.1058,29.8485 61.1049,30.505 58.9062,30.505 C56.0589,30.505 53.6309,29.4768 51.6141,27.4284 C49.5973,25.3879 48.5928,22.9202 48.5928,20.0256 C48.5928,17.1309 49.5973,14.6633 51.6141,12.6227 C53.6309,10.5743 56.0589,9.54614 58.9062,9.54614 C61.1049,9.54614 63.0979,10.2026 64.8932,11.5076 L64.8932,9.75178 L69.2195,9.75178 L69.2195,30.2993 Z M58.9141,26.1787 C60.5512,26.1787 61.9669,25.5856 63.1454,24.3913 C64.3159,23.1892 64.9011,21.7339 64.9011,20.0256 C64.9011,18.3251 64.3159,16.8699 63.1454,15.6598 C61.9669,14.4655 60.5512,13.8724 58.9141,13.8724 C57.2611,13.8724 55.8454,14.4655 54.667,15.6598 C53.5122,16.862 52.9348,18.3172 52.9348,20.0256 C52.9348,21.726 53.5122,23.1812 54.667,24.3913 C55.8375,25.5777 57.2532,26.1787 58.9141,26.1787 Z" id="Shape" fill="#FFFFFF"></path>
            <path d="M90.3206,30.2995 L86.0893,30.2995 L86.0893,28.8996 C84.6104,29.9594 82.9969,30.4814 81.2411,30.4814 C78.7419,30.4814 76.6065,29.4849 74.827,27.4839 C73.0632,25.4671 72.1775,23.047 72.1775,20.2155 L72.1775,9.75195 L76.3929,9.75195 L76.3929,20.2076 C76.3929,21.8764 76.8674,23.2921 77.8323,24.4785 C78.7735,25.6569 79.9124,26.2501 81.2411,26.2501 C82.5857,26.2501 83.7245,25.6569 84.6736,24.4785 C85.6148,23.308 86.0893,21.8923 86.0893,20.2314 L86.0893,9.75195 L90.3206,9.75195 L90.3206,30.2995 Z" id="Path" fill="#FFFFFF"></path>
            <polygon id="Path" fill="#FFFFFF" points="99.155 9.7516 101.931 9.7516 101.931 13.9829 99.155 13.9829 99.155 30.2992 94.9237 30.2992 94.9237 13.9829 92.1635 13.9829 92.1635 9.7516 94.9237 9.7516 94.9237 3.07642 99.155 3.07642"></polygon>
            <path d="M113.431,9.54614 C116.262,9.54614 118.698,10.5743 120.723,12.6227 C122.74,14.6633 123.744,17.1309 123.744,20.0256 C123.744,22.9202 122.74,25.3879 120.723,27.4284 C118.698,29.4768 116.27,30.505 113.431,30.505 C110.583,30.505 108.155,29.4768 106.139,27.4284 C104.122,25.3879 103.117,22.9202 103.117,20.0256 C103.117,17.1309 104.122,14.6633 106.139,12.6227 C108.155,10.5743 110.583,9.54614 113.431,9.54614 Z M113.431,26.1787 C115.068,26.1787 116.484,25.5856 117.662,24.3913 C118.833,23.1892 119.418,21.7339 119.418,20.0256 C119.418,18.3251 118.833,16.8699 117.662,15.6598 C116.484,14.4655 115.068,13.8724 113.431,13.8724 C111.778,13.8724 110.362,14.4655 109.184,15.6598 C108.029,16.862 107.452,18.3172 107.452,20.0256 C107.452,21.726 108.029,23.1812 109.184,24.3913 C110.362,25.5777 111.778,26.1787 113.431,26.1787 Z" id="Shape" fill="#FFFFFF"></path>
            <path d="M153.237,30.2993 L148.91,30.2993 L148.91,28.5277 C147.123,29.8485 145.122,30.505 142.923,30.505 C140.076,30.505 137.648,29.4768 135.631,27.4284 C133.614,25.3879 132.61,22.9202 132.61,20.0256 C132.61,17.1309 133.614,14.6633 135.631,12.6227 C137.648,10.5743 140.076,9.54614 142.923,9.54614 C145.122,9.54614 147.115,10.2026 148.91,11.5076 L148.91,9.75178 L153.237,9.75178 L153.237,30.2993 Z M142.931,26.1787 C144.568,26.1787 145.984,25.5856 147.163,24.3913 C148.333,23.1892 148.918,21.7339 148.918,20.0256 C148.918,18.3251 148.333,16.8699 147.163,15.6598 C145.984,14.4655 144.568,13.8724 142.931,13.8724 C141.278,13.8724 139.863,14.4655 138.684,15.6598 C137.529,16.862 136.952,18.3172 136.952,20.0256 C136.952,21.726 137.529,23.1812 138.684,24.3913 C139.863,25.5777 141.278,26.1787 142.931,26.1787 Z" id="Shape" fill="#FFFFFF"></path>
            <path d="M166.508,9.47485 C169.339,9.47485 171.767,10.503 173.8,12.5673 C175.817,14.6078 176.821,17.0675 176.821,19.9464 C176.821,22.841 175.817,25.3087 173.8,27.3492 C171.775,29.3976 169.347,30.4258 166.508,30.4258 C164.293,30.4258 162.292,29.7693 160.505,28.4485 L160.505,37.1959 L156.195,37.1959 L156.195,9.75167 L160.505,9.75167 L160.505,11.4284 C162.292,10.1234 164.293,9.47485 166.508,9.47485 Z M166.508,26.1233 C168.145,26.1233 169.553,25.5222 170.723,24.3121 C171.902,23.11 172.495,21.6547 172.495,19.9464 C172.495,18.2538 171.902,16.8065 170.723,15.6043 C169.553,14.4022 168.153,13.7932 166.508,13.7932 C164.839,13.7932 163.423,14.3942 162.261,15.6043 C161.09,16.8065 160.505,18.2617 160.505,19.9464 C160.505,21.6468 161.09,23.102 162.261,24.3121 C163.423,25.5143 164.847,26.1233 166.508,26.1233 Z" id="Shape" fill="#FFFFFF"></path>
            <path d="M189.626,9.47485 C192.457,9.47485 194.885,10.503 196.918,12.5673 C198.935,14.6078 199.939,17.0675 199.939,19.9464 C199.939,22.841 198.935,25.3087 196.918,27.3492 C194.893,29.3976 192.465,30.4258 189.626,30.4258 C187.411,30.4258 185.41,29.7693 183.623,28.4485 L183.623,37.1959 L179.313,37.1959 L179.313,9.75167 L183.623,9.75167 L183.623,11.4284 C185.41,10.1234 187.411,9.47485 189.626,9.47485 Z M189.626,26.1233 C191.263,26.1233 192.671,25.5222 193.841,24.3121 C195.02,23.11 195.613,21.6547 195.613,19.9464 C195.613,18.2538 195.02,16.8065 193.841,15.6043 C192.671,14.4022 191.271,13.7932 189.626,13.7932 C187.957,13.7932 186.541,14.3942 185.379,15.6043 C184.208,16.8065 183.623,18.2617 183.623,19.9464 C183.623,21.6468 184.208,23.102 185.379,24.3121 C186.541,25.5143 187.957,26.1233 189.626,26.1233 Z" id="Shape" fill="#FFFFFF"></path>
            <path d="M206.662,11.4682 C208.244,10.3214 209.984,9.75195 211.898,9.75195 L214.025,9.75195 L214.025,13.9833 L211.898,13.9833 C210.458,13.9833 209.216,14.5764 208.188,15.7549 C207.168,16.9333 206.662,18.349 206.662,20.002 L206.662,30.2916 L202.431,30.2916 L202.431,9.75195 L206.662,9.75195 L206.662,11.4682 Z" id="Path" fill="#FFFFFF"></path>
            <path d="M224.963,9.54614 C227.795,9.54614 230.231,10.5743 232.255,12.6227 C234.272,14.6633 235.277,17.1309 235.277,20.0256 C235.277,22.9202 234.272,25.3879 232.255,27.4284 C230.231,29.4768 227.803,30.505 224.963,30.505 C222.116,30.505 219.688,29.4768 217.671,27.4284 C215.654,25.3879 214.65,22.9202 214.65,20.0256 C214.65,17.1309 215.654,14.6633 217.671,12.6227 C219.688,10.5743 222.116,9.54614 224.963,9.54614 Z M224.963,26.1787 C226.6,26.1787 228.016,25.5856 229.195,24.3913 C230.365,23.1892 230.95,21.7339 230.95,20.0256 C230.95,18.3251 230.365,16.8699 229.195,15.6598 C228.016,14.4655 226.6,13.8724 224.963,13.8724 C223.31,13.8724 221.895,14.4655 220.716,15.6598 C219.561,16.862 218.984,18.3172 218.984,20.0256 C218.984,21.726 219.561,23.1812 220.716,24.3913 C221.895,25.5777 223.31,26.1787 224.963,26.1787 Z" id="Shape" fill="#FFFFFF"></path>
            <polygon id="Path" fill="#FFFFFF" points="244.237 30.2995 235.435 9.75195 240.038 9.75195 245.329 22.09 250.604 9.75195 255.207 9.75195 246.428 30.2995"></polygon>
            <path d="M274.244,25.8624 C273.39,27.1832 272.267,28.243 270.891,29.0497 C269.285,30.0225 267.553,30.505 265.687,30.505 C262.839,30.505 260.411,29.4768 258.395,27.4284 C256.378,25.3879 255.373,22.9202 255.373,20.0256 C255.373,17.1309 256.378,14.6633 258.395,12.6227 C260.411,10.5743 262.839,9.54614 265.687,9.54614 C268.518,9.54614 270.954,10.5743 272.979,12.6227 C274.996,14.6633 276,17.1309 276,20.0256 L276,21.7972 L260.079,21.7972 C260.427,23.1496 261.147,24.241 262.238,25.0636 C263.267,25.807 264.421,26.1787 265.687,26.1787 C267.759,26.1787 269.364,25.3483 270.495,23.6953 L274.244,25.8624 Z M271.302,17.8585 C270.867,16.6801 270.147,15.7231 269.143,14.9875 C268.115,14.2441 266.96,13.8724 265.695,13.8724 C264.429,13.8724 263.274,14.2441 262.246,14.9875 C261.242,15.7231 260.522,16.6801 260.087,17.8585 L271.302,17.8585 Z" id="Shape" fill="#FFFFFF"></path>
            <path d="M28.8678,0 L39.7506,0 C41.8623,0 43.1831,2.2857 42.1233,4.11267 L23.9879,35.4639 C22.9439,37.2751 20.334,37.2909 19.2584,35.4955 L13.7221,26.2104 C13.2159,25.3562 13.208,24.2964 13.7062,23.4343 L26.4951,1.36035 C26.9855,0.521993 27.8871,0 28.8678,0 Z" id="Path" fill="#44E0B7"></path>
            <path d="M7.37905,21.3702 C11.4544,21.3702 14.7581,18.0665 14.7581,13.9911 C14.7581,9.91579 11.4544,6.61206 7.37905,6.61206 C3.3037,6.61206 0,9.91579 0,13.9911 C0,18.0665 3.3037,21.3702 7.37905,21.3702 Z" id="Path" fill="#FFFFFF"></path>
        </g>
    </g>
</svg>