<?xml version="1.0" encoding="UTF-8"?>
<svg width="193px" height="149px" viewBox="0 0 193 149" version="1.1" xmlns="http://www.w3.org/2000/svg" xmlns:xlink="http://www.w3.org/1999/xlink">
    <title>icon-06</title>
    <g id="Page-2" stroke="none" stroke-width="1" fill="none" fill-rule="evenodd">
        <g id="icon-06" transform="translate(0.000000, 2.000000)">
            <path d="M85.3784843,48.2828542 L68.4189895,48.2828542 C65.3436411,48.2828542 62.8392857,45.7802875 62.8392857,42.7171458 C62.8392857,39.6540041 65.3436411,37.1414271 68.4189895,37.1414271 L76.5431185,37.1414271 C78.9773519,37.1414271 80.9608014,35.1593943 80.9608014,32.7268994 L80.9608014,30.4145277 C80.9608014,27.9820329 78.9773519,26 76.5431185,26 L28.2290941,26 C25.7948606,26 23.8114111,27.9820329 23.8114111,30.4145277 L23.8114111,32.7268994 C23.8114111,35.1593943 25.7948606,37.1414271 28.2290941,37.1414271 L37.7456446,37.1414271 C40.8109756,37.1414271 43.3253484,39.6540041 43.3253484,42.7171458 C43.3253484,45.7802875 40.8109756,48.2828542 37.7456446,48.2828542 L6.62151568,48.2828542 C2.97517422,48.2828542 0,51.2659138 0,54.8996407 L0,58.3832136 C0,62.0169405 2.97517422,65 6.62151568,65 L85.3784843,65 C89.0148084,65 92,62.0169405 92,58.3832136 L92,54.8996407 C92,51.2659138 89.0148084,48.2828542 85.3784843,48.2828542 Z" id="Path" fill="#F3EFF9"></path>
            <path d="M188.616681,122.330057 L173.289974,122.330057 C170.874676,122.330057 168.906655,120.383743 168.906655,117.995085 C168.906655,115.616257 170.874676,113.669943 173.280035,113.669943 L174.383319,113.669943 C176.788678,113.669943 178.766638,111.7138 178.766638,109.334972 C178.766638,106.956144 176.788678,105 174.383319,105 L156.859983,105 C154.444685,105 152.476664,106.956144 152.476664,109.334972 C152.476664,111.7138 154.444685,113.669943 156.859983,113.669943 L157.953328,113.669943 C160.358686,113.669943 162.336646,115.616257 162.336646,117.995085 C162.336646,120.383743 160.358686,122.330057 157.953328,122.330057 L153.570009,122.330057 L153.570009,122.330057 L151.383319,122.330057 C148.968021,122.330057 147,124.2862 147,126.665028 C147,129.043856 148.968021,131 151.383319,131 L188.616681,131 C191.031979,131 193,129.043856 193,126.665028 C193,124.2862 191.031979,122.330057 188.616681,122.330057 Z" id="Path" fill="#F3EFF9"></path>
            <path d="M34,76.636754 C34,66.6870733 41.8136915,58.490861 51.7483851,58.0299494 L161,53 L161,144 L52.5987868,144 C42.3239326,144 34,135.66351 34,125.373156 L34,76.636754 Z" id="Path" stroke="#320170" stroke-width="3.4" fill="#C4B5D9" fill-rule="nonzero" stroke-linecap="round" stroke-linejoin="round"></path>
            <path d="M41,62 C41,52.61 48.641841,45 58.0610879,45 L153.508787,45 C157.646025,45 161,48.34 161,52.46 C161,57.73 156.712134,62 151.430126,62 L41,62 Z" id="Path" stroke="#320170" stroke-width="3.4" fill="#8D72B5" fill-rule="nonzero" stroke-linecap="round" stroke-linejoin="round"></path>
            <rect id="Rectangle" stroke="#320170" stroke-width="3.4" fill="#F0EAF8" fill-rule="nonzero" x="20" y="84" width="52" height="33" rx="16.5"></rect>
            <rect id="Rectangle" stroke="#320170" stroke-width="3.4" x="46" y="95" width="13" height="13" rx="6.26703"></rect>
            <g id="Group" transform="translate(71.000000, 7.000000)">
                <rect id="Rectangle" stroke="#000000" stroke-width="3.18681" fill="#FFFFFF" fill-rule="nonzero" transform="translate(34.981750, 63.865000) rotate(90.000000) translate(-34.981750, -63.865000) " x="-28.22325" y="29.60675" width="126.41" height="68.5165" rx="12.2161"></rect>
                <rect id="Rectangle" fill="#E9F7EF" fill-rule="nonzero" transform="translate(34.983100, 63.864000) rotate(90.000000) translate(-34.983100, -63.864000) " x="-22.9109" y="34.9171" width="115.788" height="57.8938" rx="10.6227"></rect>
                <rect id="Rectangle" fill="#44E0B7" fill-rule="nonzero" transform="translate(52.249780, 14.468150) rotate(90.000000) translate(-52.249780, -14.468150) " x="43.75163" y="9.68793" width="16.9963" height="9.56044" rx="4.78022"></rect>
                <rect id="Rectangle" stroke="#320170" stroke-width="2.65568" transform="translate(18.256250, 23.765200) rotate(90.000000) translate(-18.256250, -23.765200) " x="1.79105" y="15.00145" width="32.9304" height="17.5275" rx="8.76374"></rect>
            </g>
            <g id="Group" transform="translate(48.000000, 0.000000)">
                <rect id="Rectangle" stroke="#000000" stroke-width="3.18681" fill="#FFFFFF" fill-rule="nonzero" transform="translate(62.233985, 72.456261) rotate(60.000000) translate(-62.233985, -72.456261) " x="-0.971014789" y="38.1980106" width="126.41" height="68.5165" rx="12.2161"></rect>
                <rect id="Rectangle" fill="#E9F7EF" fill-rule="nonzero" transform="translate(62.238249, 72.461125) rotate(60.000000) translate(-62.238249, -72.461125) " x="4.34424924" y="43.5142247" width="115.788" height="57.8938" rx="10.6227"></rect>
                <rect id="Rectangle" fill="#44E0B7" fill-rule="nonzero" transform="translate(52.479283, 21.049724) rotate(60.000000) translate(-52.479283, -21.049724) " x="43.981133" y="16.2695038" width="16.9963" height="9.56044" rx="4.78022"></rect>
                <rect id="Rectangle" stroke="#44E0B7" stroke-width="2.65568" transform="translate(27.692970, 46.101156) rotate(60.000000) translate(-27.692970, -46.101156) " x="11.2277699" y="37.3374065" width="32.9304" height="17.5275" rx="8.76374"></rect>
            </g>
        </g>
    </g>
</svg>