<?xml version="1.0" encoding="UTF-8"?>
<svg width="172px" height="148px" viewBox="0 0 172 148" version="1.1" xmlns="http://www.w3.org/2000/svg" xmlns:xlink="http://www.w3.org/1999/xlink">
    <title>icon-04</title>
    <g id="Page-2" stroke="none" stroke-width="1" fill="none" fill-rule="evenodd">
        <g id="icon-04" transform="translate(0.000000, 2.000000)">
            <path d="M84.4490456,70.2914729 L67.6725762,70.2914729 C64.6385444,70.2914729 62.158241,67.7821705 62.158241,64.7186047 C62.158241,61.6550388 64.6385444,59.1457364 67.6725762,59.1457364 L75.7141072,59.1457364 C78.1165894,59.1457364 80.0820752,57.1604651 80.0820752,54.7317829 L80.0820752,52.4139535 C80.0820752,49.9852713 78.1165894,48 75.7141072,48 L27.9198763,48 C25.5163964,48 23.5519083,49.9852713 23.5519083,52.4139535 L23.5519083,54.7317829 C23.5519083,57.1604651 25.5163964,59.1457364 27.9198763,59.1457364 L37.3402405,59.1457364 C40.3732746,59.1457364 42.853578,61.6550388 42.853578,64.7186047 C42.853578,67.7821705 40.3732746,70.2914729 37.3402405,70.2914729 L6.5509544,70.2914729 C2.94822879,70.2914729 0,73.2643411 0,76.9023256 L0,80.3790698 C0,84.0170543 2.94822879,87 6.5509544,87 L84.4490456,87 C88.0527689,87 91,84.0170543 91,80.3790698 L91,76.9023256 C91,73.2643411 88.0527689,70.2914729 84.4490456,70.2914729 Z" id="Path" fill="#F3EFF9"></path>
            <path d="M167.618476,112.336634 L152.285142,112.336634 C149.876205,112.336634 147.904619,110.386139 147.904619,108 C147.904619,105.613861 149.876205,103.663366 152.284142,103.663366 L153.381024,103.663366 C155.789961,103.663366 157.761547,101.712871 157.761547,99.3267327 C157.761547,96.950495 155.789961,95 153.381024,95 L135.856928,95 C133.44699,95 131.475404,96.950495 131.475404,99.3267327 C131.475404,101.712871 133.44699,103.663366 135.856928,103.663366 L136.95281,103.663366 C139.361747,103.663366 141.333333,105.613861 141.333333,108 C141.333333,110.386139 139.361747,112.336634 136.951809,112.336634 L132.570285,112.336634 L132.571286,112.336634 L130.380523,112.336634 C127.970585,112.336634 126,114.287129 126,116.663366 C126,119.049505 127.970585,121 130.380523,121 L167.618476,121 C170.028414,121 172,119.049505 172,116.663366 C172,114.287129 170.028414,112.336634 167.618476,112.336634 Z" id="Path" fill="#F3EFF9"></path>
            <path d="M132.655983,143 L55.3440171,143 C52.9447111,143 51,141.038465 51,138.626577 L51,32.3734227 C51,29.9615351 52.9447111,28 55.3440171,28 L132.655983,28 C135.055289,28 137,29.9615351 137,32.3734227 L137,138.626577 C137,141.038465 135.055289,143 132.655983,143 Z" id="Path" fill="#E7E1EF"></path>
            <path d="M51,43.2411452 L51,33.3734227 C51,30.9615351 52.9447111,29 55.3440171,29 L132.655983,29 C135.055289,29 137,30.9615351 137,33.3734227 L137,139.636585 C137,142.048473 135.055289,144 132.655983,144 L55.3440171,144 C52.9447111,144 51,142.048473 51,139.636585 L51,65.6987207" id="Path" stroke="#320170" stroke-width="3.37671" stroke-linecap="round"></path>
            <line x1="50.5" y1="58" x2="50.5" y2="49" id="Path" stroke="#320170" stroke-width="3.37671" stroke-linecap="round"></line>
            <path d="M130.800718,139 L58.2002872,139 C56.9850532,139 56,138.02056 56,136.811251 L56,36.1887493 C56,34.9794403 56.9850532,34 58.2002872,34 L130.800718,34 C132.014947,34 133,34.9794403 133,36.1887493 L133,136.811251 C133,138.02056 132.014947,139 130.800718,139 Z" id="Path" fill="#FFFFFF"></path>
            <path d="M112.056189,22.9036545 L103.30234,22.9036545 C101.901364,22.9036545 100.36439,20.6710963 100.018396,19.6345515 C98.9244151,16.3654485 100.324391,15.269103 100.324391,15.269103 C102.14636,13.6744186 103.30234,11.3421927 103.30234,8.73089701 C103.30234,3.56810631 99.3254082,0.0697674419 93.9995,0 C88.6745918,0.0697674419 84.6976604,3.56810631 84.6976604,8.73089701 C84.6976604,11.3421927 85.8536405,13.6744186 87.675609,15.269103 C87.675609,15.269103 89.0755849,16.3654485 87.9806038,19.6345515 C87.6356097,20.6710963 86.0986362,22.9036545 84.6976604,22.9036545 L75.9428113,22.9036545 C65.5469906,22.9036545 65,36 65,36 L123,36 C123,36 122.453009,22.9036545 112.056189,22.9036545 Z" id="Path" fill="#C5B5D9"></path>
            <path d="M112.056189,22.9036545 L103.30234,22.9036545 C101.901364,22.9036545 100.36439,20.6710963 100.018396,19.6345515 C98.9244151,16.3654485 100.324391,15.269103 100.324391,15.269103 C102.14636,13.6744186 103.30234,11.3421927 103.30234,8.73089701 C103.30234,3.56810631 99.3254082,0.0697674419 93.9995,0 C88.6745918,0.0697674419 84.6976604,3.56810631 84.6976604,8.73089701 C84.6976604,11.3421927 85.8536405,13.6744186 87.675609,15.269103 C87.675609,15.269103 89.0755849,16.3654485 87.9806038,19.6345515 C87.6356097,20.6710963 86.0986362,22.9036545 84.6976604,22.9036545 L75.9428113,22.9036545 C65.5469906,22.9036545 65,36 65,36 L123,36 C123,36 122.453009,22.9036545 112.056189,22.9036545 Z" id="Path" stroke="#320170" stroke-width="3.37671" stroke-linecap="round"></path>
            <path d="M109.374567,55 L86.6254331,55 C85.7315439,55 85,54.325228 85,53.5045593 C85,52.674772 85.7315439,52 86.6254331,52 L109.374567,52 C110.268456,52 111,52.674772 111,53.5045593 C111,54.325228 110.268456,55 109.374567,55 Z" id="Path" fill="#3F3F3F"></path>
            <path d="M123.313078,55 L117.68795,55 C116.75968,55 116,54.325228 116,53.5045593 C116,52.674772 116.75968,52 117.68795,52 L123.313078,52 C124.241348,52 125,52.674772 125,53.5045593 C125,54.325228 124.241348,55 123.313078,55 Z" id="Path" fill="#3F3F3F"></path>
            <path d="M109.374567,77 L86.6254331,77 C85.7315439,77 85,76.3323171 85,75.5 C85,74.6768293 85.7315439,74 86.6254331,74 L109.374567,74 C110.268456,74 111,74.6768293 111,75.5 C111,76.3323171 110.268456,77 109.374567,77 Z" id="Path" fill="#3F3F3F"></path>
            <path d="M123.313078,77 L117.68795,77 C116.75968,77 116,76.3323171 116,75.5 C116,74.6768293 116.75968,74 117.68795,74 L123.313078,74 C124.241348,74 125,74.6768293 125,75.5 C125,76.3323171 124.241348,77 123.313078,77 Z" id="Path" fill="#3F3F3F"></path>
            <path d="M109.374567,99 L86.6254331,99 C85.7315439,99 85,98.3231707 85,97.5 C85,96.6768293 85.7315439,96 86.6254331,96 L109.374567,96 C110.268456,96 111,96.6768293 111,97.5 C111,98.3231707 110.268456,99 109.374567,99 Z" id="Path" fill="#3F3F3F"></path>
            <path d="M123.313078,99 L117.68795,99 C116.75968,99 116,98.3231707 116,97.5 C116,96.6768293 116.75968,96 117.68795,96 L123.313078,96 C124.241348,96 125,96.6768293 125,97.5 C125,98.3231707 124.241348,99 123.313078,99 Z" id="Path" fill="#3F3F3F"></path>
            <path d="M109.374567,121 L86.6254331,121 C85.7315439,121 85,120.323171 85,119.5 C85,118.667683 85.7315439,118 86.6254331,118 L109.374567,118 C110.268456,118 111,118.667683 111,119.5 C111,120.323171 110.268456,121 109.374567,121 Z" id="Path" fill="#3F3F3F"></path>
            <path d="M123.313078,121 L117.68795,121 C116.75968,121 116,120.323171 116,119.5 C116,118.667683 116.75968,118 117.68795,118 L123.313078,118 C124.241348,118 125,118.667683 125,119.5 C125,120.323171 124.241348,121 123.313078,121 Z" id="Path" fill="#3F3F3F"></path>
            <path d="M76.962992,61 L68.036029,61 C66.3598982,61 65,59.6399217 65,57.9569472 L65,49.0430528 C65,47.3600783 66.3598982,46 68.036029,46 L76.962992,46 C78.6401018,46 80,47.3600783 80,49.0430528 L80,57.9569472 C80,59.6399217 78.6401018,61 76.962992,61 Z" id="Path" fill="#D4F4EC"></path>
            <path d="M74.7286812,49 L77.3404939,49 C77.8481339,49 78.1645724,49.5641693 77.9102744,50.0018869 L73.5566159,57.6668078 C73.306142,58.1045253 72.679957,58.1142524 72.421835,57.6765348 L71.0929844,55.4004035 C70.9706155,55.1961353 70.9687035,54.9335048 71.0891604,54.7292366 L74.1589007,49.3307199 C74.2764896,49.1264517 74.4925473,49 74.7286812,49 Z" id="Path" fill="#44E0B7" fill-rule="nonzero"></path>
            <path d="M69,55 C70.1041554,55 71,54.1051213 71,53.0053908 C71,51.8948787 70.1041554,51 69,51 C67.8947652,51 67,51.8948787 67,53.0053908 C67,54.1051213 67.8947652,55 69,55 Z" id="Path" fill="#5132A2" fill-rule="nonzero"></path>
            <path d="M76.962992,83 L68.036029,83 C66.3598982,83 65,81.6390339 65,79.964752 L65,71.035248 C65,69.3609661 66.3598982,68 68.036029,68 L76.962992,68 C78.6401018,68 80,69.3609661 80,71.035248 L80,79.964752 C80,81.6390339 78.6401018,83 76.962992,83 Z" id="Path" fill="#D4F4EC"></path>
            <path d="M74.7286812,71 L77.3404939,71 C77.8481339,71 78.1645724,71.5547445 77.9102744,72.0024331 L73.5566159,79.6715328 C73.306142,80.1094891 72.679957,80.1094891 72.421835,79.6715328 L71.0929844,77.4038929 C70.9706155,77.1995134 70.9687035,76.9367397 71.0891604,76.7226277 L74.1589007,71.3309002 C74.2764896,71.1265207 74.4925473,71 74.7286812,71 Z" id="Path" fill="#44E0B7" fill-rule="nonzero"></path>
            <path d="M76.962992,105 L68.036029,105 C66.3598982,105 65,103.639034 65,101.964752 L65,93.035248 C65,91.3609661 66.3598982,90 68.036029,90 L76.962992,90 C78.6401018,90 80,91.3609661 80,93.035248 L80,101.964752 C80,103.639034 78.6401018,105 76.962992,105 Z" id="Path" fill="#D4F4EC"></path>
            <path d="M69,77 C70.1041554,77 71,76.1051213 71,74.9946092 C71,73.8948787 70.1041554,73 69,73 C67.8947652,73 67,73.8948787 67,74.9946092 C67,76.1051213 67.8947652,77 69,77 Z" id="Path" fill="#5132A2" fill-rule="nonzero"></path>
            <path d="M74.7286812,93 L77.3404939,93 C77.8481339,93 78.1645724,93.5548189 77.9102744,94.0025675 L73.5566159,101.662962 C73.306142,102.11071 72.679957,102.11071 72.421835,101.672695 L71.0929844,99.4047515 C70.9706155,99.2003446 70.9687035,98.9375356 71.0891604,98.723395 L74.1589007,93.3309446 C74.2764896,93.1265376 74.4925473,93 74.7286812,93 Z" id="Path" fill="#44E0B7" fill-rule="nonzero"></path>
            <path d="M76.962992,127 L68.036029,127 C66.3598982,127 65,125.639034 65,123.964752 L65,115.035248 C65,113.360966 66.3598982,112 68.036029,112 L76.962992,112 C78.6401018,112 80,113.360966 80,115.035248 L80,123.964752 C80,125.639034 78.6401018,127 76.962992,127 Z" id="Path" fill="#D4F4EC"></path>
            <polygon id="Path" fill="#C5B5D9" points="132 139 119 139 132 126"></polygon>
            <path d="M74.7286812,115 L77.3404939,115 C77.8481339,115 78.1645724,115.554819 77.9102744,116.002567 L73.5566159,123.662962 C73.306142,124.11071 72.679957,124.11071 72.421835,123.672695 L71.0929844,121.404752 C70.9706155,121.200345 70.9687035,120.937536 71.0891604,120.723395 L74.1589007,115.330945 C74.2764896,115.126538 74.4925473,115 74.7286812,115 Z" id="Path" fill="#44E0B7" fill-rule="nonzero"></path>
            <path d="M69,98 C70.1041554,98 71,97.1051213 71,95.9946092 C71,94.8948787 70.1041554,94 69,94 C67.8947652,94 67,94.8948787 67,95.9946092 C67,97.1051213 67.8947652,98 69,98 Z" id="Path" fill="#5132A2" fill-rule="nonzero"></path>
            <polygon id="Path" fill="#F3EFF9" points="119 139 119 126 132 126"></polygon>
            <path d="M69,120 C70.1041554,120 71,119.113514 71,118 C71,116.897297 70.1041554,116 69,116 C67.8947652,116 67,116.897297 67,118 C67,119.113514 67.8947652,120 69,120 Z" id="Path" fill="#5132A2" fill-rule="nonzero"></path>
        </g>
    </g>
</svg>