<?xml version="1.0" encoding="UTF-8"?>
<svg width="176px" height="148px" viewBox="0 0 176 148" version="1.1" xmlns="http://www.w3.org/2000/svg" xmlns:xlink="http://www.w3.org/1999/xlink">
    <title>icon-03</title>
    <g id="Page-2" stroke="none" stroke-width="1" fill="none" fill-rule="evenodd">
        <g id="icon-03" transform="translate(0.000000, 2.000000)">
            <path d="M111.327445,70 L36.3552906,70 C32.2924643,70 28.3997564,71.6064603 25.5277584,74.4701505 C22.6657675,77.3338407 21.0446397,81.2152883 21.0446397,85.2563842 C21.0446397,87.2719432 21.4449182,89.2575681 22.2154542,91.1134788 C22.9959972,92.9693895 24.1267838,94.6556739 25.5577793,96.072552 C26.9787678,97.4894301 28.6799513,98.6169457 30.5412461,99.3852528 C32.4125479,100.143582 34.4039332,100.532725 36.4253394,100.522746 L37.2359032,100.522746 C39.3473721,100.522746 41.3687783,101.3609 42.8598155,102.847624 C44.3508528,104.334348 45.1914375,106.349907 45.1914375,108.455268 C45.1914375,110.550651 44.3508528,112.576188 42.8598155,114.062912 C41.3687783,115.549636 39.3473721,116.377812 37.2359032,116.377812 L6.31439262,116.377812 C5.48381483,116.377812 4.663244,116.547438 3.89270797,116.866734 C3.12217195,117.176053 2.43169161,117.645019 1.84128089,118.233722 C1.25087017,118.822425 0.790549948,119.520886 0.470327184,120.289193 C0.160111382,121.047522 0,121.875698 0,122.703873 C0,124.370201 0.66045945,125.976662 1.85128785,127.154067 C3.03210929,128.341451 4.64323007,129 6.31439262,129 L80.4059346,129 C81.3766098,129 82.3072572,128.610857 82.9977376,127.932352 C83.6882179,127.243869 84.0784894,126.315914 84.0784894,125.348047 L84.0784894,123.711652 C84.0784894,123.232708 84.168552,122.753763 84.3586843,122.31473 C84.5388096,121.86572 84.8089976,121.466599 85.1592412,121.117369 C85.4994779,120.778116 85.9097633,120.50871 86.3500696,120.329105 C86.8003829,120.149501 87.280717,120.059699 87.7610512,120.059699 L104.082405,120.059699 C105.063087,120.049721 105.993735,119.660578 106.684215,118.972095 C107.364688,118.283612 107.75496,117.355657 107.75496,116.377812 L107.75496,104.1747 C107.75496,103.226788 108.125218,102.308811 108.795684,101.620328 C109.46615,100.941823 110.376784,100.542703 111.327445,100.522746 C112.29812,100.522746 113.238775,100.133604 113.919248,99.4550989 C114.609729,98.7666159 115,97.8386606 115,96.8707932 L115,73.6719094 C115,73.1929647 114.909937,72.71402 114.719805,72.2650093 C114.53968,71.8259767 114.269492,71.4168781 113.929255,71.0776256 C113.589018,70.7383731 113.18874,70.4589887 112.738427,70.2793844 C112.288113,70.0898021 111.817786,70 111.327445,70 Z" id="Path" fill="#F2EFF8" fill-rule="nonzero"></path>
            <path d="M154.519677,11 L123.470232,11 C120.997982,11 119,13.0135593 119,15.4949153 C119,17.9864407 120.997982,20 123.470232,20 L154.519677,20 C156.991927,20 159,17.9864407 159,15.4949153 C159,13.0135593 156.991927,11 154.519677,11 Z" id="Path" fill="#F2EFF8" fill-rule="nonzero"></path>
            <path d="M143.421778,27 L102.56814,27 C97.2849941,27 93,31.252238 93,36.4949974 C93,41.747762 97.2849941,46 102.56814,46 L143.421778,46 C148.715006,46 153,41.747762 153,36.4949974 C153,31.252238 148.715006,27 143.421778,27 Z" id="Path" fill="#F2EFF8" fill-rule="nonzero"></path>
            <path d="M171.588905,24 L166.421053,24 C163.981508,24 162,26.0135593 162,28.5050847 C162,30.9864407 163.981508,33 166.421053,33 L171.588905,33 C174.02845,33 176,30.9864407 176,28.5050847 C176,26.0135593 174.02845,24 171.588905,24 Z" id="Path" fill="#F2EFF8" fill-rule="nonzero"></path>
            <rect id="Rectangle" stroke="#320170" stroke-width="3.4" fill="#C4B5D9" fill-rule="nonzero" x="49" y="0" width="85" height="123" rx="42.5"></rect>
            <rect id="Rectangle" stroke="#320170" stroke-width="3.4" fill="#44E0B7" fill-rule="nonzero" x="124" y="47" width="15" height="29" rx="7.45049"></rect>
            <path d="M91.4783419,35 C86.4406148,47.3423138 67.9292035,49.0258094 60,48.318542 L60,69.3572561 L61.4010247,80.225266 L68.0484397,92.4978492 L83.0821301,103.365859 L83.0821301,110.020149 L76.7924235,110.020149 L78.1934482,114.233869 L85.178699,121.246774 L99.1690731,123 L105.468716,114.233869 L106.512032,110.020149 L100.91787,110.020149 L101.971122,101.254019 L112.106195,94.5997283 L120.502406,84.4290242 L124,66.3787639 L123.304456,52.5322617 C104.276355,53.6479511 94.1611551,39.9110256 91.4783419,35 Z" id="Path" fill="#F7F0FC" fill-rule="nonzero"></path>
            <rect id="Rectangle" stroke="#320170" stroke-width="3.4" fill="#44E0B7" fill-rule="nonzero" x="44" y="47" width="15" height="29" rx="7.45049"></rect>
            <path d="M123,52 C109.782824,52 91,42.9463786 91,27" id="Path" stroke="#320170" stroke-width="3.4" stroke-linecap="round"></path>
            <path d="M51,115.041773 C51,111.152884 54.1932403,108 58.11952,108 L71.5050208,108 L92,108 L112.494979,108 L125.88048,108 C129.80676,108 133,111.152884 133,115.041773 L133,135.958227 C133,139.847116 129.80676,143 125.88048,143 L58.11952,143 C54.1932403,143 51,139.847116 51,135.958227 L51,115.041773 Z" id="Path" fill="#8E72B5" fill-rule="nonzero"></path>
            <path d="M117.626255,143.495798 L107.373745,143.495798 M97.1212344,143.495798 L92,143.495798 L58.11952,143.495798 C54.1932403,143.495798 51,140.29916 51,136.346218 L51,115.14958 C51,111.196639 54.1932403,108 58.11952,108 L71.5050208,108 L92,108 L112.494979,108 L125.88048,108 C129.80676,108 133,111.196639 133,115.14958 L133,138.342857 C133,141.186555 130.700465,143.495798 127.868724,143.495798 L127.868724,143.495798" id="Shape" stroke="#320170" stroke-width="3.4" stroke-linecap="round"></path>
            <path d="M82,43 C74.0271839,50.5504385 59.0390959,48.0941566 49,45.0548662" id="Path" stroke="#320170" stroke-width="3.4" stroke-linecap="round"></path>
            <path d="M83,109 L83,101.619665 C75.340035,98.5736535 60,87.9875163 60,69.9910831 C60,51.9946499 60,41.8679111 60,39.061586 C60.1206294,36.125431 61.9903846,29.214481 68.4943182,25" id="Path" stroke="#320170" stroke-width="3.4" stroke-linecap="round"></path>
            <path d="M101,109 L101,101.619665 C108.663314,98.5736535 124,87.9875163 124,69.9910831 C124,51.9946499 124,41.8679111 124,39.061586 C123.889375,36.125431 122.018802,29.214481 115.512024,25" id="Path" stroke="#320170" stroke-width="3.4" stroke-linecap="round"></path>
            <path d="M132,78 L132,78 C132,81.3123028 129.189017,84 125.724777,84 L101,84" id="Path" stroke="#320170" stroke-width="3.4"></path>
            <rect id="Rectangle" stroke="#320170" stroke-width="3.4" fill="#D4F4EC" fill-rule="nonzero" x="84" y="79" width="16" height="9" rx="4.5"></rect>
            <path d="M91.5,118 C95.6414835,118 99,114.003433 99,109.090129 L99,106 L84,106 L84,109.090129 C84,114.003433 87.3585165,118 91.5,118 Z" id="Path" fill="#F7F0FC" fill-rule="nonzero"></path>
            <path d="M101,109 C101,113.97 96.9675978,118 92,118 C87.0324022,118 83,113.97 83,109" id="Path" stroke="#320170" stroke-width="3.4"></path>
        </g>
    </g>
</svg>