<?xml version="1.0" encoding="UTF-8"?>
<svg width="938px" height="502px" viewBox="0 0 938 502" version="1.1" xmlns="http://www.w3.org/2000/svg" xmlns:xlink="http://www.w3.org/1999/xlink">
    <title>auto-lease-purchase-banner02</title>
    <defs>
        <rect id="path-1" x="0" y="0" width="938" height="502"></rect>
        <path d="M5.54,24.2 C5.54,24.2 5.89,24.016 6.5,23.805 C7.11,23.587 8,23.334 9.06,23.221 C10.13,23.113 11.39,23.115 12.76,23.397 C14.15,23.649 15.59,24.336 17.22,25.038 C20.49,26.443 24.45,28.168 28.97,30.218 C31.22,31.254 33.62,32.356 36.15,33.518 C38.66,34.718 41.3,35.979 44.06,37.295 C49.57,39.962 55.5,42.915 61.77,46.072 C68.03,49.229 74.65,52.537 81.5,55.919 C84.94,57.583 88.44,59.276 91.98,60.989 L92.65,61.31 L92.81,61.39 C92.53,61.288 92.78,61.382 92.74,61.368 L92.83,61.403 L93.17,61.544 L94.54,62.11 C95.28,62.31 95.93,62.627 96.8,62.737 C97.63,62.942 98.48,62.952 99.32,63.015 C100.27,63.036 101.3,63.021 102.29,63.027 C110.29,63.03 118.42,63.033 126.55,63.038 C134.68,63.036 142.81,63.035 150.81,63.033 C154.81,63.031 158.78,63.03 162.7,63.028 C164.66,63.027 166.61,63.025 168.54,63.025 L168.91,63.025 L169,63.025 C168.55,63.044 168.92,63.027 168.85,63.03 L169.03,63.018 L169.75,62.969 L170.47,62.919 C170.69,62.895 170.77,62.838 170.92,62.806 C171.21,62.708 171.45,62.733 171.79,62.58 C172.12,62.45 172.44,62.327 172.77,62.211 C174.03,61.592 175.13,60.694 175.98,59.616 C176.17,59.33 176.39,59.062 176.58,58.775 C176.73,58.465 176.88,58.159 177.04,57.856 L177.17,57.622 L177.3,57.302 L177.57,56.664 L178.1,55.393 C179.53,52.014 180.92,48.707 182.28,45.489 C184.99,39.05 187.55,32.964 189.86,27.321 C190.44,25.912 191.01,24.532 191.57,23.184 C191.85,22.51 192.12,21.844 192.39,21.185 C192.52,20.883 192.94,19.756 192.92,19.532 C192.97,19.34 193.02,19.13 193.04,18.861 C193.06,18.613 193.11,18.366 193.09,18.119 C193.11,17.626 193.06,17.139 192.99,16.665 C192.83,15.716 192.5,14.822 192.03,14.048 C191.1,12.485 189.72,11.386 188.26,10.85 C188.08,10.788 187.89,10.727 187.71,10.665 C187.55,10.603 187.24,10.525 187.01,10.456 C186.51,10.315 186.03,10.178 185.56,10.043 C184.61,9.774 183.71,9.518 182.86,9.274 C179.44,8.286 176.74,7.576 174.9,7.062 C173.06,6.567 172.08,6.304 172.08,6.304 L173.95,0.09 C173.95,0.09 174.91,0.412 176.72,1.015 C178.54,1.599 181.18,2.499 184.58,3.561 C185.42,3.829 186.32,4.113 187.25,4.41 C187.72,4.558 188.2,4.71 188.69,4.865 C188.95,4.953 189.14,5 189.47,5.121 C189.79,5.238 190.1,5.356 190.42,5.475 C192.94,6.517 195.37,8.46 196.94,11.196 C198.52,13.929 199.19,17.352 198.34,20.94 L198.16,21.649 L197.98,22.157 L197.81,22.656 L197.66,23.045 L197.56,23.293 C197.29,23.953 197.02,24.621 196.75,25.298 C196.2,26.65 195.64,28.033 195.07,29.445 C192.77,35.09 190.34,41.231 187.76,47.725 C186.48,50.973 185.16,54.309 183.81,57.72 L183.3,59.002 L183.05,59.646 L182.92,59.968 L182.73,60.357 L181.95,61.932 C181.65,62.431 181.3,62.908 180.96,63.394 C179.53,65.275 177.66,66.842 175.5,67.919 L173.81,68.592 C173.27,68.825 172.54,68.94 171.9,69.093 C171.59,69.156 171.21,69.244 170.95,69.275 L170.23,69.334 L169.51,69.393 L169.33,69.408 C169.19,69.414 169.51,69.405 169,69.424 L168.91,69.424 L168.54,69.424 C166.61,69.422 164.66,69.421 162.7,69.421 C158.78,69.419 154.81,69.418 150.81,69.416 C142.81,69.415 134.68,69.414 126.55,69.411 C118.42,69.415 110.29,69.419 102.29,69.422 C101.28,69.421 100.28,69.419 99.27,69.418 C98.13,69.388 96.99,69.357 95.86,69.207 C94.75,69.121 93.5,68.853 92.32,68.623 L90.89,68.24 L90.54,68.145 L90.45,68.12 C90.35,68.087 90.54,68.162 90.2,68.038 L90.02,67.984 L89.32,67.767 C85.56,66.614 81.84,65.474 78.19,64.354 C70.86,62.166 63.76,60.09 57.02,58.14 C50.29,56.191 43.93,54.316 38.08,52.526 C35.16,51.613 32.37,50.74 29.71,49.91 C27.07,49.04 24.56,48.216 22.2,47.442 C17.5,45.871 13.42,44.439 10.07,43.244 C8.39,42.647 6.87,42.174 5.69,41.416 C4.49,40.688 3.56,39.831 2.86,39.027 C2.15,38.217 1.67,37.43 1.37,36.853 C1.07,36.281 0.94,35.912 0.94,35.912 L5.54,24.2 Z" id="path-3"></path>
    </defs>
    <g id="Page-3" stroke="none" stroke-width="1" fill="none" fill-rule="evenodd">
        <g id="Group-3">
            <mask id="mask-2" fill="white">
                <use xlink:href="#path-1"></use>
            </mask>
            <g id="Mask" fill-rule="nonzero"></g>
            <g mask="url(#mask-2)">
                <g transform="translate(0.000000, 26.053424)">
                    <path d="M0,274.944576 L67.005,274.944576 C69.65,270.535576 76.527,260.132576 82.874,253.784576 C90.809,245.849576 96.099,238.796576 110.205,233.506576 C124.312,228.217576 137.536,216.755576 142.826,186.779576 L144.589,133.881576 L163.986,133.881576 L172.802,138.289576 L181.618,133.881576 L225.7,133.881576 L225.7,194.714576 C227.758,200.592576 234.517,214.110576 245.097,221.163576 C248.035,219.400576 253.913,205.823576 253.913,165.620576 L275.954,165.620576 C274.191,189.130576 282.126,239.678576 327.971,253.784576 L339.24,244.358576 C357.39,229.186576 380.32,220.937576 403.97,221.073576 L419.5,221.163576 M618.03,214.992576 C627.14,207.645576 651,198.241576 673.57,219.400576 C696.14,240.560576 717.07,239.384576 724.71,236.151576 C732.35,230.861576 752.22,210.407576 770.56,170.910576 L792.6,170.910576 L792.6,135.644576 C796.71,136.526576 805.64,135.820576 808.47,125.946576 L872.83,125.946576 L872.83,186.779576 C879.88,190.306576 893.99,200.357576 893.99,212.347576 C893.99,224.337576 915.73,236.151576 926.61,240.560576 C932.78,238.208576 948.82,231.214576 963.64,222.045576 C978.45,212.876576 992.14,219.400576 997.14,223.808576 C1008.6,235.857576 1034.87,259.074576 1048.27,255.547576 C1061.67,252.021576 1085.01,267.009576 1095,274.944576" id="Shape" stroke="#000000" stroke-width="1.1" fill="none"></path>
                    <path d="M437.75,129.981576 L467.53,129.981576 C467.57,129.969576 467.6,129.929576 467.6,129.884576 C467.6,129.839576 467.57,129.800576 467.53,129.787576 L437.75,129.787576 C437.71,129.800576 437.68,129.839576 437.68,129.884576 C437.68,129.929576 437.71,129.969576 437.75,129.981576 Z" id="Path" stroke="none" fill="#000000" fill-rule="nonzero"></path>
                    <path d="M546.12,154.893576 L578.08,154.893576 C578.12,154.881576 578.15,154.841576 578.15,154.796576 C578.15,154.751576 578.12,154.712576 578.08,154.699576 L546.12,154.699576 C546.08,154.712576 546.05,154.751576 546.05,154.796576 C546.05,154.841576 546.08,154.881576 546.12,154.893576 Z" id="Path" stroke="none" fill="#000000" fill-rule="nonzero"></path>
                    <path d="M330.626,344.664576 C330.669,344.652576 330.699,344.612576 330.699,344.567576 C330.699,344.522576 330.669,344.483576 330.626,344.471576 C330.582,344.483576 330.553,344.522576 330.553,344.567576 C330.553,344.612576 330.582,344.652576 330.626,344.664576 Z" id="Path" stroke="none" fill="#000000" fill-rule="nonzero"></path>
                    <path d="M628.96,296.041576 L619.94,296.041576 L619.94,309.209576 L635.43,306.165576 C635.45,306.125576 635.46,306.086576 635.48,306.049576 C636.46,303.844576 636.25,301.298576 634.93,299.280576 C633.62,297.262576 631.37,296.044576 628.96,296.041576 L628.96,296.041576 Z" id="Path" stroke="none" fill="#000000" fill-rule="nonzero"></path>
                    <path d="M640.32,286.038576 L648.61,286.038576 C648.99,286.041576 649.33,285.781576 649.42,285.410576 C651.19,277.239576 650.16,268.811576 648.39,260.653576 C648.29,260.284576 647.96,260.025576 647.58,260.024576 L636.11,260.024576 C627.18,260.024576 619.94,267.265576 619.94,276.196576 L619.94,297.408576 L632.51,294.938576 C634.35,290.978576 631.36,286.384576 640.32,286.038576 Z" id="Path" stroke="none" fill="#E9E9E9" fill-rule="nonzero"></path>
                    <path d="M641.97,260.627576 C641.88,260.258576 641.55,259.999576 641.17,259.998576 L636.77,259.998576 C636.43,262.481576 636.26,264.984576 636.26,267.490576 C636.26,274.957576 638.73,281.625576 640.98,286.056602 L642.24,286.056602 C642.62,286.059576 642.96,285.799576 643.05,285.428576 C644.78,277.226576 643.74,268.785576 641.97,260.627576 Z" id="Path" stroke="none" fill="#F4F4F4" fill-rule="nonzero"></path>
                    <path d="M647.37,286.037602 L648.63,286.037602 C649.01,286.040576 649.35,285.780576 649.44,285.409576 C651.21,277.238576 650.18,268.810576 648.4,260.652576 C648.31,260.283576 647.98,260.024576 647.6,260.023576 L643.2,260.023576 C642.86,262.506576 642.69,265.009576 642.7,267.515576" id="Path" stroke="#000000" stroke-width="0.641332" fill="none"></path>
                    <path d="M640.32,286.038576 L648.61,286.038576 C648.99,286.041576 649.33,285.781576 649.42,285.410576 C651.19,277.239576 650.16,268.811576 648.39,260.653576 C648.29,260.284576 647.96,260.025576 647.58,260.024576 L636.11,260.024576 C627.18,260.024576 619.94,267.265576 619.94,276.196576 L619.94,297.408576 L632.51,294.938576 C634.35,290.978576 631.36,286.384576 640.32,286.038576 L640.32,286.038576 Z" id="Path" stroke="#000000" stroke-width="0.641332" fill="none"></path>
                    <g id="Clipped" stroke="none" stroke-width="1" fill="none" fill-rule="evenodd" transform="translate(406.000000, 326.946576)">
                        <mask id="mask-4" fill="white">
                            <use xlink:href="#path-3"></use>
                        </mask>
                        <g id="Path"></g>
                        <path d="M5.54,24.2 C5.54,24.2 5.89,24.016 6.5,23.805 C7.11,23.587 8,23.334 9.06,23.221 C10.13,23.113 11.39,23.115 12.76,23.397 C14.15,23.649 15.59,24.336 17.22,25.038 C20.49,26.443 24.45,28.168 28.97,30.218 C31.22,31.254 33.62,32.356 36.15,33.518 C38.66,34.718 41.3,35.979 44.06,37.295 C49.57,39.962 55.5,42.915 61.77,46.072 C68.03,49.229 74.65,52.537 81.5,55.919 C84.94,57.583 88.44,59.276 91.98,60.989 L92.65,61.31 L92.81,61.39 C92.53,61.288 92.78,61.382 92.74,61.368 L92.83,61.403 L93.17,61.544 L94.54,62.11 C95.28,62.31 95.93,62.627 96.8,62.737 C97.63,62.942 98.48,62.952 99.32,63.015 C100.27,63.036 101.3,63.021 102.29,63.027 C110.29,63.03 118.42,63.033 126.55,63.038 C134.68,63.036 142.81,63.035 150.81,63.033 C154.81,63.031 158.78,63.03 162.7,63.028 C164.66,63.027 166.61,63.025 168.54,63.025 L168.91,63.025 L169,63.025 C168.55,63.044 168.92,63.027 168.85,63.03 L169.03,63.018 L169.75,62.969 L170.47,62.919 C170.69,62.895 170.77,62.838 170.92,62.806 C171.21,62.708 171.45,62.733 171.79,62.58 C172.12,62.45 172.44,62.327 172.77,62.211 C174.03,61.592 175.13,60.694 175.98,59.616 C176.17,59.33 176.39,59.062 176.58,58.775 C176.73,58.465 176.88,58.159 177.04,57.856 L177.17,57.622 L177.3,57.302 L177.57,56.664 L178.1,55.393 C179.53,52.014 180.92,48.707 182.28,45.489 C184.99,39.05 187.55,32.964 189.86,27.321 C190.44,25.912 191.01,24.532 191.57,23.184 C191.85,22.51 192.12,21.844 192.39,21.185 C192.52,20.883 192.94,19.756 192.92,19.532 C192.97,19.34 193.02,19.13 193.04,18.861 C193.06,18.613 193.11,18.366 193.09,18.119 C193.11,17.626 193.06,17.139 192.99,16.665 C192.83,15.716 192.5,14.822 192.03,14.048 C191.1,12.485 189.72,11.386 188.26,10.85 C188.08,10.788 187.89,10.727 187.71,10.665 C187.55,10.603 187.24,10.525 187.01,10.456 C186.51,10.315 186.03,10.178 185.56,10.043 C184.61,9.774 183.71,9.518 182.86,9.274 C179.44,8.286 176.74,7.576 174.9,7.062 C173.06,6.567 172.08,6.304 172.08,6.304 L173.95,0.09 C173.95,0.09 174.91,0.412 176.72,1.015 C178.54,1.599 181.18,2.499 184.58,3.561 C185.42,3.829 186.32,4.113 187.25,4.41 C187.72,4.558 188.2,4.71 188.69,4.865 C188.95,4.953 189.14,5 189.47,5.121 C189.79,5.238 190.1,5.356 190.42,5.475 C192.94,6.517 195.37,8.46 196.94,11.196 C198.52,13.929 199.19,17.352 198.34,20.94 L198.16,21.649 L197.98,22.157 L197.81,22.656 L197.66,23.045 L197.56,23.293 C197.29,23.953 197.02,24.621 196.75,25.298 C196.2,26.65 195.64,28.033 195.07,29.445 C192.77,35.09 190.34,41.231 187.76,47.725 C186.48,50.973 185.16,54.309 183.81,57.72 L183.3,59.002 L183.05,59.646 L182.92,59.968 L182.73,60.357 L181.95,61.932 C181.65,62.431 181.3,62.908 180.96,63.394 C179.53,65.275 177.66,66.842 175.5,67.919 L173.81,68.592 C173.27,68.825 172.54,68.94 171.9,69.093 C171.59,69.156 171.21,69.244 170.95,69.275 L170.23,69.334 L169.51,69.393 L169.33,69.408 C169.19,69.414 169.51,69.405 169,69.424 L168.91,69.424 L168.54,69.424 C166.61,69.422 164.66,69.421 162.7,69.421 C158.78,69.419 154.81,69.418 150.81,69.416 C142.81,69.415 134.68,69.414 126.55,69.411 C118.42,69.415 110.29,69.419 102.29,69.422 C101.28,69.421 100.28,69.419 99.27,69.418 C98.13,69.388 96.99,69.357 95.86,69.207 C94.75,69.121 93.5,68.853 92.32,68.623 L90.89,68.24 L90.54,68.145 L90.45,68.12 C90.35,68.087 90.54,68.162 90.2,68.038 L90.02,67.984 L89.32,67.767 C85.56,66.614 81.84,65.474 78.19,64.354 C70.86,62.166 63.76,60.09 57.02,58.14 C50.29,56.191 43.93,54.316 38.08,52.526 C35.16,51.613 32.37,50.74 29.71,49.91 C27.07,49.04 24.56,48.216 22.2,47.442 C17.5,45.871 13.42,44.439 10.07,43.244 C8.39,42.647 6.87,42.174 5.69,41.416 C4.49,40.688 3.56,39.831 2.86,39.027 C2.15,38.217 1.67,37.43 1.37,36.853 C1.07,36.281 0.94,35.912 0.94,35.912 L5.54,24.2 Z" id="Path" stroke="#000000" stroke-width="1.58077" fill="#B7B7B7" fill-rule="nonzero" mask="url(#mask-4)"></path>
                    </g>
                    <path d="M670.97,337.276576 C691.75,337.276576 708.66,354.185576 708.66,374.969576 C708.66,395.753576 691.75,412.661576 670.97,412.661576 C650.18,412.661576 633.28,395.753576 633.28,374.969576 C633.28,354.185576 650.18,337.276576 670.97,337.276576 Z M670.97,319.938576 C640.58,319.938576 615.94,344.576576 615.94,374.969576 C615.94,405.361576 640.58,430.000576 670.97,430.000576 C701.36,430.000576 726,405.361576 726,374.969576 C726,344.576576 701.36,319.938576 670.97,319.938576 Z" id="Shape" stroke="none" fill="#000000" fill-rule="nonzero"></path>
                    <path d="M670.97,341.799576 C689.26,341.799576 704.14,356.679576 704.14,374.968576 C704.14,393.258576 689.26,408.138576 670.97,408.138576 C652.68,408.138576 637.8,393.258576 637.8,374.968576 C637.8,356.679576 652.68,341.799576 670.97,341.799576 Z M670.97,337.276576 C650.18,337.276576 633.28,354.184576 633.28,374.968576 C633.28,395.752576 650.18,412.661576 670.97,412.661576 C691.75,412.661576 708.66,395.752576 708.66,374.968576 C708.66,354.184576 691.75,337.276576 670.97,337.276576 Z" id="Shape" stroke="none" fill="#E3E3E3" fill-rule="nonzero"></path>
                    <path d="M680.21,384.305576 C685.31,379.201576 685.31,370.925576 680.21,365.821576 C675.1,360.717576 666.83,360.717576 661.73,365.821576 C656.62,370.925576 656.62,379.201576 661.73,384.305576 C666.83,389.409576 675.1,389.409576 680.21,384.305576 Z" id="Path" stroke="none" fill="#1A1A1A" fill-rule="nonzero"></path>
                    <path d="M625.21,336.276576 C625.21,336.276576 631.14,328.225576 642.82,322.199576 C654.51,316.173576 664.85,315.641576 664.85,315.641576 C664.85,315.641576 664.38,318.091576 662.24,319.937576 C660.1,321.784576 655.77,322.126576 647.66,325.958576 C639.54,329.791576 632.52,335.600576 632.52,335.600576 C632.52,335.600576 633.34,335.522576 629.98,336.275576 C626.62,337.030576 625.21,336.276576 625.21,336.276576 Z" id="Path" stroke="none" fill="#CCCCCC" fill-rule="nonzero"></path>
                    <polygon id="Path" stroke="#000000" stroke-width="0.790385" fill="#EAEAE8" fill-rule="nonzero" points="618.89 262.156576 618.71 261.803576 618.36 261.980576 613.01 264.669576 612.66 264.846576 612.83 265.199576 668.87 376.705576 669.04 377.058576 669.4 376.880576 674.75 374.191576 675.1 374.014576 674.92 373.661576"></polygon>
                    <path d="M669.08,381.234576 C669.08,381.234576 661.98,367.006576 654.87,352.778576 C651.31,345.664576 647.76,338.549576 645.09,333.214576 C644.97,333.065576 645.02,332.833576 644.95,332.665576 C644.84,332.515576 644.7,332.385576 644.57,332.249576 C644.3,331.985576 644,331.747576 643.72,331.508576 C643.14,331.039576 642.72,330.531576 642.41,330.007576 C641.73,328.992576 641.2,328.078576 640.79,327.313576 C639.95,325.784576 639.64,324.828576 639.64,324.828576 L650.6,319.304576 C650.6,319.304576 651.18,320.124576 651.91,321.702576 C652.28,322.489576 652.7,323.462576 653.12,324.610576 C653.35,325.169576 653.51,325.811576 653.54,326.557576 C653.57,326.925576 653.58,327.309576 653.63,327.682576 C653.67,327.865576 653.69,328.056576 653.74,328.232576 C653.83,328.390576 654.05,328.488576 654.1,328.672576 C656.8,333.988576 660.41,341.076576 664.02,348.163576 C671.23,362.339576 678.44,376.516576 678.44,376.516576 L669.08,381.234576 Z" id="Path" stroke="none" fill="#1C1C1C" fill-rule="nonzero"></path>
                    <path d="M467.82,311.949576 L501.78,390.017576 L575.68,390.017576 L605.5,319.199576 C600.16,311.963576 598.42,309.601576 593.09,302.366576 L525.6,305.871576 L467.82,311.949576 Z" id="Path" stroke="none" fill="#F4F4F4" fill-rule="nonzero"></path>
                    <path d="M424.64,357.088576 C434.55,357.088576 442.61,365.151576 442.61,375.062576 C442.61,384.973576 434.55,393.036576 424.64,393.036576 C414.73,393.036576 406.66,384.973576 406.66,375.062576 C406.66,365.151576 414.73,357.088576 424.64,357.088576 Z M424.64,350.512576 C411.1,350.512576 400.09,361.524576 400.09,375.061576 C400.09,388.597576 411.1,399.609576 424.64,399.609576 C438.17,399.609576 449.19,388.597576 449.19,375.061576 C449.19,361.524576 438.17,350.512576 424.64,350.512576 Z" id="Shape" stroke="none" fill="#C3C4C0" fill-rule="nonzero"></path>
                    <path d="M423.71,337.276576 C444.49,337.276576 461.4,354.185576 461.4,374.969576 C461.4,395.753576 444.49,412.662576 423.71,412.662576 C402.92,412.662576 386.01,395.753576 386.01,374.969576 C386.01,354.185576 402.92,337.276576 423.71,337.276576 Z M423.71,319.938576 C393.32,319.938576 368.68,344.576576 368.68,374.969576 C368.68,405.361576 393.32,430.000576 423.71,430.000576 C454.1,430.000576 478.74,405.361576 478.74,374.969576 C478.74,344.576576 454.1,319.938576 423.71,319.938576 Z" id="Shape" stroke="none" fill="#000000" fill-rule="nonzero"></path>
                    <path d="M423.71,341.799576 C442,341.799576 456.88,356.679576 456.88,374.969576 C456.88,393.259576 442,408.138576 423.71,408.138576 C405.42,408.138576 390.54,393.259576 390.54,374.969576 C390.54,356.679576 405.42,341.799576 423.71,341.799576 Z M423.71,337.276576 C402.92,337.276576 386.01,354.185576 386.01,374.969576 C386.01,395.753576 402.92,412.662576 423.71,412.662576 C444.49,412.662576 461.4,395.753576 461.4,374.969576 C461.4,354.185576 444.49,337.276576 423.71,337.276576 Z" id="Shape" stroke="none" fill="#E3E3E3" fill-rule="nonzero"></path>
                    <path d="M423.71,371.200576 C425.78,371.200576 427.48,372.890576 427.48,374.969576 C427.48,377.047576 425.78,378.738576 423.71,378.738576 C421.63,378.738576 419.94,377.047576 419.94,374.969576 C419.94,372.890576 421.63,371.200576 423.71,371.200576 Z M423.71,355.368576 C412.9,355.368576 404.11,364.161576 404.11,374.969576 C404.11,385.776576 412.9,394.569576 423.71,394.569576 C434.51,394.569576 443.31,385.777576 443.31,374.969576 C443.31,364.161576 434.51,355.368576 423.71,355.368576 Z" id="Shape" stroke="none" fill="#CCCCCC" fill-rule="nonzero"></path>
                    <path d="M425.42,395.823576 C419.45,395.823576 405.42,394.085576 403.2,378.037576 C402.45,372.568576 403.54,367.885576 406.46,364.119576 C411.99,356.979576 422.02,355.735576 422.44,355.686576 L422.52,355.677576 L422.6,355.680576 L486.76,357.216576 L488.01,359.640576 L422.63,357.943576 C421.74,358.066576 412.95,359.427576 408.24,365.515576 C405.72,368.780576 404.77,372.890576 405.44,377.728576 C407.89,395.508576 426.17,393.651576 427.72,393.459576 L495.13,374.052576 L495.75,376.227576 L428.18,395.680576 L428.1,395.689576 C428.06,395.696576 427.03,395.823576 425.42,395.823576 Z" id="Path" stroke="none" fill="#000000" fill-rule="nonzero"></path>
                    <polygon id="Path" stroke="none" fill="#777C7F" fill-rule="nonzero" points="520.78 320.210576 519.75 327.679576 545.31 331.179576 546.33 323.710576"></polygon>
                    <path d="M581.76,327.442576 L545.83,327.442576 L545.83,318.623576 C545.83,313.106576 550.3,308.634576 555.82,308.634576 L571.77,308.634576 C577.29,308.634576 581.76,313.106576 581.76,318.623576 L581.76,327.442576 Z" id="Path" stroke="none" fill="#000000" fill-rule="nonzero"></path>
                    <path d="M423.72,303.565576 L423.72,303.565576 L423.73,303.564576 L423.71,303.170576 L423.73,303.564576 L423.73,303.564576 L423.73,303.564576 L423.74,303.564576 L423.75,303.563576 L423.82,303.559576 C423.88,303.556576 423.97,303.552576 424.09,303.546576 C424.32,303.534576 424.66,303.518576 425.07,303.501576 C425.91,303.465576 427.06,303.422576 428.33,303.394576 C430.89,303.337576 433.92,303.337576 435.88,303.560576 L423.72,303.565576 Z M423.72,303.565576 L423.72,303.565576 L423.72,303.565576 L423.71,303.565576 L423.68,303.567576 C423.64,303.568576 423.6,303.570576 423.54,303.573576 C423.41,303.579576 423.23,303.589576 422.99,303.606576 C422.51,303.640576 421.8,303.701576 420.91,303.806576 C419.12,304.016576 416.59,304.406576 413.6,305.124576 M423.72,303.565576 L435.88,303.560576 C437.83,303.785576 442.38,304.906576 446.47,305.983576 C448.5,306.519576 450.42,307.041576 451.82,307.429576 C452.52,307.623576 453.1,307.784576 453.5,307.896576 C453.57,307.915576 453.63,307.933576 453.69,307.949576 L452.15,311.534576 C452.15,311.538576 452.15,311.543576 452.14,311.548576 C452.13,311.571576 452.11,311.607576 452.07,311.653576 C452.01,311.746576 451.91,311.880576 451.78,312.037576 C451.51,312.351576 451.1,312.753576 450.53,313.102576 C449.42,313.793576 447.68,314.303576 445.18,313.452576 L445.06,313.826576 L445.18,313.452576 C440.26,311.776576 434.55,310.822576 429.24,309.936576 C428.87,309.874576 428.51,309.813576 428.14,309.752576 C425.29,309.273576 421.29,309.275576 417.65,309.393576 C415.88,309.450576 414.2,309.535576 412.77,309.606576 C411.23,309.684576 409.98,309.746576 409.2,309.746576 C407.8,309.746576 406.71,309.180576 405.96,308.603576 C405.6,308.326576 405.32,308.049576 405.13,307.837576 C405.16,307.824576 405.19,307.811576 405.22,307.796576 C405.59,307.635576 406.14,307.405576 406.89,307.129576 C408.38,306.577576 410.61,305.843576 413.6,305.124576 M413.6,305.124576 L413.51,304.740576 L413.6,305.124576 Z" id="Shape" stroke="#000000" stroke-width="0.790385" fill="#CCCCCC" fill-rule="nonzero"></path>
                    <path d="M445.05,310.497576 L443.8,314.294576 C443.8,314.294576 451.04,315.032576 459.14,319.937576 C467.24,324.843576 478.74,339.920576 478.74,339.920576 L464.8,311.796576 L445.05,310.497576 Z" id="Path" stroke="none" fill="#333333" fill-rule="nonzero"></path>
                    <polygon id="Path" stroke="none" fill="#222222" fill-rule="nonzero" points="602.94 278.200576 607.62 276.139576 605.99 272.756576 621.76 264.508576 623.67 268.115576 614.47 272.921576 628 301.851576 637.26 297.492576 638.84 301.096576 622.6 308.635576 618.77 301.096576 595.46 308.635576 600.99 282.236576"></polygon>
                    <path d="M604.35,280.561576 C604.37,280.589576 604.38,280.613576 604.4,280.633576 L604.41,280.738576 C604.43,280.861576 604.46,281.044576 604.49,281.278576 C604.56,281.746576 604.66,282.420576 604.77,283.244576 C604.98,284.894576 605.23,287.141576 605.4,289.534576 C605.57,291.929576 605.66,294.462576 605.53,296.686576 C605.4,298.929576 605.06,300.789576 604.43,301.890576 C603.1,304.192576 600.84,305.790576 598.89,306.818576 C597.91,307.329576 597.02,307.694576 596.37,307.931576 C596.05,308.049576 595.79,308.135576 595.61,308.191576 C595.52,308.219576 595.45,308.240576 595.4,308.254576 C595.4,308.255576 595.39,308.257576 595.39,308.259576 L521.66,308.259576 C521.64,308.120576 521.6,307.935576 521.56,307.707576 C521.46,307.155576 521.34,306.357576 521.26,305.380576 C521.1,303.425576 521.11,300.761576 521.73,297.919576 L521.73,297.917576 C522.46,294.556576 523.75,291.488576 527.33,287.955576 L527.33,287.954576 C528.23,287.054576 529.21,286.156576 530.39,285.217576 C532.56,283.493576 535.24,281.644576 538.61,279.586576 C551.37,271.835576 569.37,269.072576 583.37,269.319576 L583.37,269.319576 C588.21,269.401576 592.2,270.782576 595.37,272.611576 L595.37,272.615576 L595.38,272.619576 C596.39,273.145576 597.32,273.752576 598.17,274.400576 L598.17,274.400576 L598.18,274.405576 C600.26,275.912576 601.83,277.491576 602.88,278.692576 C603.4,279.292576 603.79,279.797576 604.05,280.151576 C604.19,280.328576 604.28,280.467576 604.35,280.561576 Z" id="Path" stroke="#000000" stroke-width="0.790385" fill="#E9E9E9" fill-rule="nonzero"></path>
                    <path d="M551.18,308.212576 L584.2,308.212576 C584.68,308.210576 585.15,308.010576 585.48,307.658576 C585.81,307.306576 585.98,306.834576 585.95,306.354576 C584.95,292.701576 573.45,282.129576 559.59,282.129576 L551.18,308.212576 Z" id="Path" stroke="none" fill="#CCCCCC" fill-rule="nonzero"></path>
                    <path d="M555.99,287.602576 C557.09,287.149576 557.61,285.894576 557.15,284.800576 C556.7,283.706576 555.45,283.187576 554.35,283.640576 C553.26,284.093576 552.74,285.347576 553.19,286.441576 C553.65,287.535576 554.9,288.055576 555.99,287.602576 Z" id="Path" stroke="none" fill="#ED5A5A" fill-rule="nonzero"></path>
                    <path d="M555.99,299.128576 C557.09,298.675576 557.61,297.421576 557.15,296.327576 C556.7,295.233576 555.45,294.713576 554.35,295.166576 C553.26,295.619576 552.74,296.874576 553.19,297.968576 C553.65,299.062576 554.9,299.581576 555.99,299.128576 Z" id="Path" stroke="none" fill="#ED5A5A" fill-rule="nonzero"></path>
                    <path d="M543.18,298.342576 C544.02,297.505576 544.02,296.147576 543.18,295.310576 C542.35,294.473576 540.99,294.473576 540.15,295.310576 C539.31,296.147576 539.31,297.505576 540.15,298.342576 C540.99,299.179576 542.35,299.179576 543.18,298.342576 Z" id="Path" stroke="none" fill="#ED5A5A" fill-rule="nonzero"></path>
                    <path d="M528.35,299.692576 C529.54,299.692576 530.5,298.732576 530.5,297.548576 C530.5,296.364576 529.54,295.404576 528.35,295.404576 C527.17,295.404576 526.21,296.364576 526.21,297.548576 C526.21,298.732576 527.17,299.692576 528.35,299.692576 Z" id="Path" stroke="none" fill="#ED5A5A" fill-rule="nonzero"></path>
                    <path d="M523.72,304.741576 L557.14,304.741576 C557.14,304.741576 561.03,304.490576 562.66,299.464576 C564.3,294.438576 562.66,285.643576 562.66,285.643576 C562.66,285.643576 562.16,282.377576 558.39,282.251576 C554.62,282.125576 551.07,282.879576 548.95,283.507576 C546.83,284.135576 536.28,287.904576 530.25,292.050576 C524.22,296.195576 523.47,297.201576 522.96,299.589576 C522.46,301.976576 523.72,304.741576 523.72,304.741576 Z" id="Path" stroke="none" fill="#222222" fill-rule="nonzero"></path>
                    <polygon id="Path" stroke="none" fill="#777C7F" fill-rule="nonzero" points="526.4 315.647576 523.96 331.670576 534.58 333.284576 537.02 317.261576"></polygon>
                    <path d="M535.03,331.921576 C536.28,336.352576 532.51,340.327576 528.12,339.450576 C525.83,338.992576 523.99,337.155576 523.53,334.863576 C522.65,330.472576 526.63,326.701576 531.06,327.947576 C532.97,328.484576 534.5,330.012576 535.03,331.921576 Z" id="Path" stroke="none" fill="#B0B1AC" fill-rule="nonzero"></path>
                    <polygon id="Path" stroke="none" fill="#000000" fill-rule="nonzero" points="538.31 321.960576 537.18 330.634576 540.92 331.122576 542.05 322.447576"></polygon>
                    <polygon id="Path" stroke="none" fill="#CCCCCC" fill-rule="nonzero" points="455.81 313.811576 431.91 364.490576 433.96 365.454576 457.85 314.776576"></polygon>
                    <polygon id="Path" stroke="none" fill="#222222" fill-rule="nonzero" points="441.67 339.008576 431.75 361.225576 437.22 363.666576 447.14 341.450576"></polygon>
                    <path d="M458.96,317.502576 C460.29,316.179576 460.29,314.033576 458.96,312.710576 C457.64,311.386576 455.49,311.386576 454.17,312.710576 C452.85,314.033576 452.85,316.179576 454.17,317.502576 C455.49,318.826576 457.64,318.826576 458.96,317.502576 Z" id="Path" stroke="none" fill="#B0B1AC" fill-rule="nonzero"></path>
                    <path d="M435.34,367.373576 C436.66,366.050576 436.66,363.904576 435.34,362.581576 C434.01,361.257576 431.87,361.257576 430.54,362.581576 C429.22,363.904576 429.22,366.050576 430.54,367.373576 C431.87,368.697576 434.01,368.697576 435.34,367.373576 Z" id="Path" stroke="none" fill="#B0B1AC" fill-rule="nonzero"></path>
                    <polygon id="Path" stroke="none" fill="#222222" fill-rule="nonzero" points="448.79 315.196576 446.33 320.408576 458.6 326.198576 461.06 320.986576"></polygon>
                    <polygon id="Path" stroke="none" fill="#222222" fill-rule="nonzero" points="431.62 351.909576 429.16 357.121576 441.43 362.911576 443.89 357.699576"></polygon>
                    <path d="M442.85,356.608576 C442.79,356.608576 442.74,356.603576 442.68,356.588576 L432.76,354.282576 C432.36,354.188576 432.1,353.783576 432.2,353.378576 C432.29,352.973576 432.7,352.716576 433.1,352.815576 L443.02,355.121576 C443.43,355.215576 443.68,355.620576 443.58,356.026576 C443.5,356.374576 443.19,356.608576 442.85,356.608576 Z" id="Path" stroke="none" fill="#222222" fill-rule="nonzero"></path>
                    <path d="M444.4,353.246576 C444.35,353.246576 444.29,353.241576 444.23,353.227576 L434.31,350.921576 C433.91,350.827576 433.66,350.421576 433.75,350.016576 C433.85,349.611576 434.25,349.355576 434.66,349.453576 L444.57,351.759576 C444.98,351.854576 445.23,352.259576 445.14,352.664576 C445.06,353.011576 444.75,353.246576 444.4,353.246576 Z" id="Path" stroke="none" fill="#222222" fill-rule="nonzero"></path>
                    <path d="M445.96,349.884576 C445.9,349.884576 445.84,349.879576 445.79,349.864576 L435.87,347.558576 C435.46,347.464576 435.21,347.059576 435.3,346.654576 C435.4,346.248576 435.8,345.991576 436.21,346.091576 L446.13,348.397576 C446.53,348.491576 446.78,348.896576 446.69,349.302576 C446.61,349.650576 446.3,349.884576 445.96,349.884576 Z" id="Path" stroke="none" fill="#222222" fill-rule="nonzero"></path>
                    <path d="M447.51,346.522576 C447.46,346.522576 447.4,346.517576 447.34,346.503576 L437.42,344.198576 C437.02,344.103576 436.77,343.698576 436.86,343.293576 C436.95,342.887576 437.36,342.632576 437.76,342.730576 L447.68,345.035576 C448.09,345.129576 448.34,345.535576 448.24,345.940576 C448.16,346.287576 447.85,346.522576 447.51,346.522576 Z" id="Path" stroke="none" fill="#222222" fill-rule="nonzero"></path>
                    <path d="M449.06,343.159576 C449.01,343.159576 448.95,343.154576 448.89,343.140576 L438.98,340.835576 C438.57,340.741576 438.32,340.336576 438.41,339.930576 C438.51,339.524576 438.91,339.267576 439.32,339.368576 L449.23,341.672576 C449.64,341.767576 449.89,342.172576 449.8,342.577576 C449.72,342.925576 449.41,343.159576 449.06,343.159576 Z" id="Path" stroke="none" fill="#222222" fill-rule="nonzero"></path>
                    <path d="M450.62,339.798576 C450.56,339.798576 450.5,339.793576 450.45,339.778576 L440.53,337.473576 C440.12,337.379576 439.87,336.974576 439.97,336.569576 C440.06,336.164576 440.47,335.908576 440.87,336.006576 L450.79,338.311576 C451.19,338.405576 451.44,338.810576 451.35,339.216576 C451.27,339.563576 450.96,339.798576 450.62,339.798576 Z" id="Path" stroke="none" fill="#222222" fill-rule="nonzero"></path>
                    <path d="M452.17,336.435576 C452.11,336.435576 452.06,336.430576 452,336.416576 L442.08,334.111576 C441.68,334.017576 441.42,333.611576 441.52,333.206576 C441.61,332.801576 442.02,332.544576 442.42,332.643576 L452.34,334.948576 C452.75,335.043576 453,335.448576 452.9,335.853576 C452.82,336.201576 452.51,336.435576 452.17,336.435576 Z" id="Path" stroke="none" fill="#222222" fill-rule="nonzero"></path>
                    <path d="M453.72,333.075576 C453.67,333.075576 453.61,333.069576 453.55,333.055576 L443.63,330.749576 C443.23,330.655576 442.98,330.250576 443.07,329.844576 C443.17,329.439576 443.57,329.181576 443.98,329.282576 L453.89,331.588576 C454.3,331.682576 454.55,332.087576 454.46,332.492576 C454.38,332.839576 454.07,333.075576 453.72,333.075576 Z" id="Path" stroke="none" fill="#222222" fill-rule="nonzero"></path>
                    <path d="M455.28,329.712576 C455.22,329.712576 455.16,329.707576 455.1,329.692576 L445.19,327.386576 C444.78,327.292576 444.53,326.887576 444.62,326.482576 C444.72,326.077576 445.13,325.820576 445.53,325.919576 L455.45,328.225576 C455.85,328.319576 456.1,328.724576 456.01,329.130576 C455.93,329.478576 455.62,329.712576 455.28,329.712576 Z" id="Path" stroke="none" fill="#222222" fill-rule="nonzero"></path>
                    <path d="M456.83,326.350576 C456.77,326.350576 456.72,326.345576 456.66,326.331576 L446.74,324.025576 C446.34,323.930576 446.08,323.525576 446.18,323.120576 C446.27,322.714576 446.68,322.458576 447.08,322.557576 L457,324.863576 C457.4,324.958576 457.66,325.363576 457.56,325.768576 C457.48,326.115576 457.17,326.350576 456.83,326.350576 Z" id="Path" stroke="none" fill="#222222" fill-rule="nonzero"></path>
                    <polygon id="Path" stroke="none" fill="#CCCCCC" fill-rule="nonzero" points="612.3 257.374576 603.5 261.896576 605.99 265.163576 611.29 268.917576 614.47 267.375576 614.47 261.143576"></polygon>
                    <path d="M610.79,265.784576 C609.58,265.784576 608.49,264.947576 608.21,263.718576 C607.03,258.435576 604.71,252.917576 603.39,252.222576 C601.95,252.230576 601.14,252.364576 600.74,252.466576 L600.67,252.600576 L582.86,260.776576 C581.54,261.385576 579.97,260.804576 579.36,259.479576 C578.75,258.154576 579.33,256.588576 580.66,255.980576 L597.21,248.383576 C598.98,246.944576 602.28,246.944576 603.5,246.944576 C609.06,246.944576 612.07,256.735576 613.37,262.571576 C613.68,263.993576 612.79,265.401576 611.36,265.719576 C611.17,265.763576 610.98,265.784576 610.79,265.784576 Z" id="Path" stroke="none" fill="#1A1A1A" fill-rule="nonzero"></path>
                    <path d="M589.91,269.269576 C589.62,269.269576 589.33,269.159576 589.11,268.938576 L587.84,267.666576 L588.17,266.952576 C588.26,266.742576 590.55,261.788576 593.73,259.142576 C596.66,256.702576 602.74,255.516576 604.03,255.288576 L606.32,253.827576 L602.99,248.042576 C602.68,247.500576 602.87,246.809576 603.41,246.497576 C603.95,246.188576 604.64,246.372576 604.95,246.914576 L609.36,254.574576 L604.85,257.441576 L604.62,257.479576 C604.56,257.490576 597.92,258.595576 595.18,260.879576 C593.04,262.658576 591.28,265.803576 590.57,267.197576 L590.71,267.338576 C591.15,267.780576 591.15,268.496576 590.71,268.938576 C590.49,269.160576 590.2,269.269576 589.91,269.269576 Z" id="Path" stroke="none" fill="#B0B1AC" fill-rule="nonzero"></path>
                    <path d="M598.98,255.254576 C601.55,255.254576 603.64,253.165576 603.64,250.589576 C603.64,248.013576 601.55,245.925576 598.98,245.925576 C596.4,245.925576 594.31,248.013576 594.31,250.589576 C594.31,253.165576 596.4,255.254576 598.98,255.254576 Z" id="Path" stroke="none" fill="#231717" fill-rule="nonzero"></path>
                    <path d="M579.66,262.526576 C578.37,262.526576 577.13,261.779576 576.57,260.520576 C575.8,258.810576 576.57,256.803576 578.27,256.037576 L597.34,247.494576 C599.05,246.726576 601.06,247.492576 601.82,249.202576 C602.59,250.911576 601.82,252.918576 600.11,253.685576 L581.05,262.228576 C580.6,262.429576 580.13,262.526576 579.66,262.526576 Z" id="Path" stroke="none" fill="#000000" fill-rule="nonzero"></path>
                    <path d="M579.11,261.783576 C580.57,261.783576 581.76,260.596576 581.76,259.132576 C581.76,257.668576 580.57,256.481576 579.11,256.481576 C577.64,256.481576 576.46,257.668576 576.46,259.132576 C576.46,260.596576 577.64,261.783576 579.11,261.783576 Z" id="Path" stroke="none" fill="#231717" fill-rule="nonzero"></path>
                    <path d="M519.63,298.184576 L519.63,297.953576 L517.94,296.761576 C517.94,296.761576 491.56,297.892576 481.19,297.892576 C466.68,297.892576 450.66,294.877576 445.05,293.998576 C439.45,293.118576 439.35,291.861576 434.28,291.296576 C429.21,290.731576 429.37,291.296576 429.37,291.296576 L427.72,293.268576 C457.28,302.657576 489.24,304.367576 519.63,298.184576 Z" id="Path" stroke="none" fill="#000000" fill-rule="nonzero"></path>
                    <path d="M519.63,298.184576 C489.24,304.368576 457.28,302.657576 427.72,293.269576 L424.64,296.951576 C424.64,296.951576 429.55,301.286576 433.49,303.736576 C434.48,304.348576 435.57,304.890576 436.66,305.359576 C439.77,306.704576 443.09,307.528576 446.46,307.922576 C452.43,308.621576 465.85,310.019576 482.7,310.709576 C505.69,311.651576 515.11,311.840576 517.75,311.651576 C520.39,311.463576 519.63,309.390576 519.63,309.390576 L519.63,298.184576 Z" id="Path" stroke="none" fill="#CCCCCC" fill-rule="nonzero"></path>
                    <path d="M520.28,315.242576 C520.28,315.242576 519.83,335.093576 516.06,338.360576 C512.29,341.628576 510.28,341.011576 510.28,341.011576 L487.16,341.011576 C487.16,341.011576 482.89,340.371576 481.13,338.611576 C479.37,336.853576 476.61,329.565576 474.85,325.795576 C473.09,322.026576 472.22,317.000576 472.22,317.000576 C472.22,317.000576 471.83,315.869576 473.72,314.613576 C475.6,313.357576 483.39,313.985576 483.39,313.985576 C483.39,313.985576 496.71,314.613576 498.85,314.738576 C500.98,314.863576 516.81,315.367576 518.07,314.864576 C519.33,314.361576 520.28,314.487576 520.28,314.487576 L520.28,315.242576 Z" id="Path" stroke="none" fill="#222222" fill-rule="nonzero"></path>
                    <path d="M518.29,315.988576 C518.29,315.988576 517.9,333.150576 514.64,335.974576 C511.38,338.798576 509.64,338.266576 509.64,338.266576 L489.66,338.266576 C489.66,338.266576 485.96,337.712576 484.44,336.191576 C482.92,334.670576 480.53,328.370576 479.01,325.112576 C477.49,321.853576 476.74,317.508576 476.74,317.508576 C476.74,317.508576 476.41,316.530576 478.04,315.444576 C479.67,314.358576 486.4,314.901576 486.4,314.901576 C486.4,314.901576 497.91,315.444576 499.76,315.552576 C501.61,315.661576 515.29,316.096576 516.38,315.661576 C517.46,315.226576 518.28,315.334576 518.28,315.334576 L518.28,315.988576 L518.29,315.988576 Z" id="Path" stroke="none" fill="#E9E9E9" fill-rule="nonzero"></path>
                    <path d="M674.51,375.273576 C674.85,373.839576 673.96,372.401576 672.52,372.062576 C671.09,371.723576 669.65,372.612576 669.31,374.046576 C668.97,375.481576 669.86,376.919576 671.3,377.258576 C672.73,377.597576 674.17,376.708576 674.51,375.273576 Z" id="Path" stroke="none" fill="#EAEBED" fill-rule="nonzero"></path>
                    <polygon id="Path" stroke="none" fill="#000000" fill-rule="nonzero" points="545.83 327.442576 581.61 327.442576 573.35 353.310576 548.95 353.310576"></polygon>
                    <path d="M466.6,314.930576 L501.38,389.622576 L503.75,390.412576 L574.89,390.412576 C575.84,390.412576 576.71,389.836576 577.07,388.951576 L605.71,320.068576 L597.02,308.212576 L520.35,308.212576" id="Path" stroke="#000000" stroke-width="0.790385" fill="none"></path>
                    <path d="M488.34,310.978576 C471.22,310.715576 434.51,307.659576 424.71,297.542576 L424.32,297.146576 L428.27,293.195576" id="Path" stroke="#000000" stroke-width="0.790385" fill="none"></path>
                    <path d="M448.05,285.103576 C447.4,282.970576 447.12,280.745576 447.2,278.519576 C447.2,278.023576 446.43,278.023576 446.43,278.519576 C446.34,280.816576 446.64,283.112576 447.3,285.312576 C447.36,285.526576 447.58,285.653576 447.79,285.595576 C448.01,285.537576 448.14,285.317576 448.08,285.103576 L448.05,285.103576 Z" id="Path" stroke="none" fill="#000000" fill-rule="nonzero"></path>
                    <path d="M454.1,285.103576 C453.45,282.971576 453.16,280.746576 453.25,278.519576 C453.25,278.023576 452.48,278.023576 452.48,278.519576 C452.39,280.816576 452.68,283.111576 453.34,285.312576 C453.4,285.526576 453.62,285.653576 453.84,285.595576 C454.05,285.537576 454.18,285.317576 454.12,285.103576 L454.1,285.103576 Z" id="Path" stroke="none" fill="#000000" fill-rule="nonzero"></path>
                    <path d="M460.14,285.103576 C459.49,282.970576 459.21,280.745576 459.29,278.519576 C459.29,278.023576 458.52,278.023576 458.52,278.519576 C458.43,280.816576 458.73,283.112576 459.39,285.312576 C459.45,285.526576 459.67,285.653576 459.89,285.595576 C460.1,285.537576 460.23,285.317576 460.17,285.103576 L460.14,285.103576 Z" id="Path" stroke="none" fill="#000000" fill-rule="nonzero"></path>
                    <path d="M466.18,285.103576 C465.54,282.970576 465.25,280.745576 465.33,278.519576 C465.33,278.023576 464.56,278.023576 464.56,278.519576 C464.47,280.816576 464.77,283.112576 465.44,285.312576 C465.49,285.526576 465.71,285.653576 465.93,285.595576 C466.14,285.537576 466.27,285.317576 466.21,285.103576 L466.18,285.103576 Z" id="Path" stroke="none" fill="#000000" fill-rule="nonzero"></path>
                    <path d="M472.23,285.103576 C471.58,282.971576 471.3,280.746576 471.38,278.519576 C471.38,278.023576 470.61,278.023576 470.61,278.519576 C470.52,280.816576 470.81,283.111576 471.48,285.312576 C471.53,285.526576 471.76,285.653576 471.97,285.595576 C472.18,285.537576 472.31,285.317576 472.25,285.103576 L472.23,285.103576 Z" id="Path" stroke="none" fill="#000000" fill-rule="nonzero"></path>
                    <path d="M488.79,260.658576 C489.17,262.566576 490.53,264.134576 492.36,264.786576 C505.22,269.348576 552.85,288.217576 559.16,303.670576 C565.88,320.137576 539.87,376.367576 535.64,385.894576 C535.33,386.571576 535.45,387.365576 535.94,387.924576 L536.45,388.512576 C536.94,389.075576 537.06,389.873576 536.75,390.554576 C536.44,391.235576 535.76,391.673576 535.02,391.673576 L516.33,391.673576 C515.72,391.669576 515.15,391.381576 514.8,390.894576 C514.44,390.407576 514.33,389.780576 514.51,389.202576 C516.56,382.649576 518.03,376.387576 519.26,364.567576 C522.15,336.682576 530.48,318.867576 530.48,318.867576 C530.48,318.867576 446.37,309.510576 443.34,276.846576 C442.8,270.791576 444.09,264.711576 447.05,259.403576" id="Path" stroke="none" fill="#FFFFFF" fill-rule="nonzero"></path>
                    <path d="M500.98,161.357576 C500.87,161.396576 500.78,161.457576 500.69,161.535576 C500.63,161.591576 500.58,161.660576 500.54,161.736576 C500.45,161.899576 500.41,162.086576 500.43,162.271576 C500.43,162.515576 500.55,162.744576 500.74,162.890576 C500.89,162.983576 501.07,162.983576 501.22,162.890576 C501.36,162.800576 501.45,162.641576 501.45,162.472576 C501.44,162.372576 501.42,162.273576 501.39,162.178576 L501.34,161.914576 C501.31,161.817576 501.25,161.735576 501.16,161.690576 C501.07,161.636576 500.96,161.619576 500.86,161.643576 C500.77,161.672576 500.69,161.736576 500.63,161.822576 C500.59,161.915576 500.57,162.021576 500.59,162.124576 C500.63,162.261576 500.66,162.401576 500.68,162.542576 L500.68,162.441576 C500.69,162.461576 500.69,162.483576 500.68,162.503576 L500.68,162.395576 L500.72,162.302576 L500.78,162.224576 L500.86,162.162576 L500.95,162.124576 L501.05,162.124576 L501.15,162.124576 L501.24,162.162576 L501.32,162.224576 L501.38,162.302576 C501.38,162.281576 501.38,162.260576 501.38,162.240576 L501.38,162.333576 C501.35,162.269576 501.34,162.201576 501.33,162.131576 L501.33,162.240576 C501.32,162.186576 501.32,162.131576 501.33,162.077576 L501.33,162.178576 C501.32,162.132576 501.32,162.085576 501.33,162.038576 L501.33,162.131576 C501.35,162.095576 501.37,162.061576 501.39,162.031576 L501.33,162.108576 L501.41,162.031576 L501.33,162.093576 L501.41,162.038576 L501.32,162.077576 C501.37,162.063576 501.41,162.040576 501.45,162.007576 C501.49,161.979576 501.53,161.942576 501.55,161.899576 C501.59,161.802576 501.59,161.694576 501.55,161.597576 C501.53,161.499576 501.46,161.416576 501.38,161.365576 C501.29,161.309576 501.18,161.295576 501.07,161.326576 L500.98,161.357576 Z" id="Path" stroke="none" fill="#000000" fill-rule="nonzero"></path>
                    <path d="M489.88,166.027576 C488.91,165.890576 488,165.476576 487.26,164.835576 C486.41,164.154576 485.85,163.172576 485.71,162.093576 C485.64,161.608576 485.79,161.119576 486.11,160.751576 C486.43,160.382576 486.9,160.169576 487.39,160.164576 C488.37,160.223576 489.24,160.844576 489.61,161.759576 C489.83,162.209576 490.5,161.814576 490.28,161.364576 C489.86,160.480576 489.1,159.804576 488.18,159.490576 C487.27,159.221576 486.29,159.461576 485.61,160.117576 C484.06,161.767576 485.42,164.323576 486.88,165.539576 C487.76,166.236576 488.8,166.683576 489.91,166.833576 C490.12,166.829576 490.3,166.658576 490.3,166.446576 C490.3,166.232576 490.13,166.058576 489.91,166.058576 L489.88,166.027576 Z" id="Path" stroke="none" fill="#000000" fill-rule="nonzero"></path>
                    <path d="M487.05,162.069576 C487.21,161.858576 487.51,161.805576 487.74,161.945576 C488.01,162.100576 488.23,162.315576 488.39,162.573576 C488.77,163.074576 489.05,163.638576 489.23,164.238576 C489.23,164.354576 489.46,164.300576 489.42,164.184576 C489.21,163.482576 488.86,162.828576 488.39,162.263576 C488.21,161.991576 487.93,161.790576 487.62,161.690576 C487.34,161.628576 487.06,161.738576 486.89,161.968576 C486.87,162.014576 486.89,162.065576 486.93,162.090576 C486.98,162.114576 487.03,162.106576 487.06,162.069576 L487.05,162.069576 Z" id="Path" stroke="none" fill="#000000" fill-rule="nonzero"></path>
                    <path d="M488.08,163.030576 C488.08,162.972576 488.11,162.920576 488.16,162.891576 C488.21,162.860576 488.27,162.844576 488.33,162.844576 C488.49,162.871576 488.63,162.960576 488.72,163.092576 C488.76,163.129576 488.82,163.129576 488.86,163.092576 C488.89,163.052576 488.89,162.993576 488.86,162.953576 C488.73,162.781576 488.53,162.671576 488.32,162.651576 C488.11,162.641576 487.93,162.777576 487.88,162.976576 C487.88,163.001576 487.88,163.027576 487.89,163.049576 C487.91,163.071576 487.93,163.087576 487.95,163.092576 C488,163.104576 488.06,163.078576 488.08,163.030576 Z" id="Path" stroke="none" fill="#000000" fill-rule="nonzero"></path>
                    <path d="M499.9,159.568576 C499.99,159.457576 500.1,159.353576 500.21,159.258576 L500.26,159.258576 C500.26,159.258576 500.21,159.304576 500.26,159.258576 L500.35,159.196576 L500.55,159.072576 L500.74,158.979576 L500.79,158.979576 L500.9,158.940576 C501.04,158.891576 501.19,158.855576 501.34,158.832576 C501.43,158.804576 501.52,158.740576 501.57,158.654576 C501.62,158.564576 501.63,158.459576 501.61,158.359576 C501.58,158.262576 501.52,158.180576 501.43,158.127576 C501.34,158.080576 501.23,158.066576 501.13,158.088576 C500.45,158.198576 499.83,158.540576 499.37,159.056576 C499.22,159.208576 499.22,159.454576 499.37,159.606576 C499.52,159.758576 499.77,159.758576 499.92,159.606576 L499.9,159.568576 Z" id="Path" stroke="none" fill="#000000" fill-rule="nonzero"></path>
                    <path d="M501.41,150.451576 C502.75,154.324576 504.13,157.871576 504.72,162.000576 C504.95,163.330576 505.4,164.612576 506.05,165.795576 C506.29,166.153576 506.19,166.630576 505.83,166.864576 L505.77,166.864576 C505.37,167.078576 505.12,167.490576 505.12,167.941576 C505.02,171.233576 505.99,174.432576 503.43,176.461576 C500.55,178.785576 495.63,177.747576 492.58,175.811576" id="Path" stroke="#000000" stroke-width="0.790385" fill="none"></path>
                    <path d="M502.11,167.546576 C501.95,167.499576 501.79,167.445576 501.63,167.383576 L501.57,167.383576 L501.45,167.329576 L501.21,167.205576 C501.06,167.129576 500.91,167.041576 500.77,166.941576 C500.7,166.899576 500.63,166.849576 500.56,166.794576 C500.56,166.794576 500.5,166.748576 500.56,166.794576 L500.45,166.701576 C500.3,166.553576 500.06,166.553576 499.9,166.701576 C499.76,166.852576 499.76,167.093576 499.9,167.243576 C500.5,167.755576 501.21,168.133576 501.96,168.351576 C502.17,168.405576 502.38,168.285576 502.44,168.080576 C502.49,167.873576 502.37,167.663576 502.17,167.600576 L502.11,167.546576 Z" id="Path" stroke="none" fill="#000000" fill-rule="nonzero"></path>
                    <path d="M480.21,176.236576 C485.01,178.305576 490.12,179.574576 495.33,179.993576 C495.82,179.993576 495.82,179.219576 495.33,179.219576 C490.26,178.807576 485.29,177.575576 480.61,175.570576 C480.16,175.377576 479.77,176.043576 480.22,176.236576 L480.21,176.236576 Z" id="Path" stroke="none" fill="#000000" fill-rule="nonzero"></path>
                    <path d="M494.25,176.825576 C493.95,177.549576 493.73,178.302576 493.59,179.071576 C493.55,179.209576 493.59,179.357576 493.69,179.459576 C493.8,179.560576 493.94,179.600576 494.08,179.563576 C494.22,179.527576 494.33,179.419576 494.37,179.280576 C494.51,178.508576 494.73,177.753576 495.02,177.026576 C495.06,176.922576 495.05,176.808576 495,176.712576 C494.94,176.616576 494.85,176.547576 494.75,176.523576 C494.54,176.468576 494.33,176.589576 494.27,176.794576 L494.25,176.825576 Z" id="Path" stroke="none" fill="#000000" fill-rule="nonzero"></path>
                    <path d="M482.35,176.468576 L484.77,170.837576 C485.57,169.152576 486.17,167.379576 486.57,165.555576 C486.65,165.067576 485.91,164.858576 485.79,165.346576 C485.39,167.169576 484.79,168.941576 483.99,170.628576 L481.67,176.050576 C481.48,176.507576 482.14,176.902576 482.34,176.445576 L482.35,176.468576 Z" id="Path" stroke="none" fill="#000000" fill-rule="nonzero"></path>
                    <path d="M496.29,181.100576 C497.1,182.792576 497.08,184.760576 496.25,186.437576 C495.39,188.219576 494.01,189.702576 492.31,190.697576 C490.49,191.744576 488.59,192.623576 486.62,193.323576 L479.8,195.988576 L466.17,201.332576 C461.73,203.067576 457.32,204.911576 452.77,206.336576 C447.84,207.885576 442.7,208.799576 437.93,210.767576 C437.47,210.953576 437.67,211.704576 438.13,211.541576 C442.53,209.737576 447.21,208.807576 451.76,207.475576 C456.5,206.096576 461.05,204.191576 465.66,202.386576 L479.74,196.871576 L486.83,194.098576 C488.81,193.394576 490.73,192.518576 492.56,191.480576 C494.5,190.380576 496.05,188.705576 497,186.685576 C497.91,184.806576 497.91,182.616576 497,180.736576 C496.77,180.295576 496.09,180.690576 496.33,181.131576 L496.29,181.100576 Z" id="Path" stroke="none" fill="#000000" fill-rule="nonzero"></path>
                    <path d="M486.06,180.163576 C485.02,181.266576 483.71,182.069576 482.25,182.487576 C480.53,183.115576 478.79,183.680576 477.04,184.238576 C473.49,185.369576 469.93,186.461576 466.37,187.553576 C459.29,189.722576 452.17,191.836576 444.99,193.672576 C442.98,194.183576 440.96,194.679576 438.93,195.144576 C437.06,195.570576 435.06,195.818576 433.29,196.693576 C432.85,196.918576 433.24,197.584576 433.69,197.359576 C435.23,196.585576 437.15,196.352576 438.86,195.965576 C440.57,195.578576 442.48,195.113576 444.28,194.656576 C447.89,193.750576 451.48,192.766576 455.06,191.743576 C462.24,189.683576 469.39,187.475576 476.53,185.221576 C478.51,184.594576 480.5,183.951576 482.45,183.239576 C484.04,182.785576 485.48,181.910576 486.61,180.706576 C486.93,180.318576 486.38,179.768576 486.06,180.156576 L486.06,180.163576 Z" id="Path" stroke="none" fill="#000000" fill-rule="nonzero"></path>
                    <path d="M430.73,199.629576 L433.26,199.125576 C433.46,199.068576 433.58,198.858576 433.53,198.653576 C433.47,198.450576 433.26,198.331576 433.05,198.381576 L430.53,198.885576 C430.43,198.912576 430.34,198.977576 430.29,199.066576 C430.25,199.155576 430.23,199.260576 430.26,199.357576 C430.32,199.562576 430.53,199.683576 430.73,199.629576 Z" id="Path" stroke="none" fill="#000000" fill-rule="nonzero"></path>
                    <path d="M431.5,202.448576 C432.42,202.153576 433.32,201.798576 434.2,201.387576 C434.38,201.276576 434.44,201.039576 434.34,200.852576 C434.22,200.672576 433.99,200.611576 433.8,200.713576 C432.99,201.099576 432.15,201.427576 431.29,201.697576 C431.09,201.760576 430.97,201.970576 431.02,202.177576 C431.08,202.380576 431.29,202.499576 431.5,202.448576 Z" id="Path" stroke="none" fill="#000000" fill-rule="nonzero"></path>
                    <path d="M432.36,205.182576 C433.12,204.702576 433.97,204.383576 434.86,204.245576 C434.96,204.218576 435.04,204.152576 435.09,204.061576 C435.14,203.971576 435.15,203.864576 435.13,203.765576 C435.1,203.667576 435.03,203.584576 434.95,203.534576 C434.86,203.485576 434.75,203.473576 434.65,203.501576 C433.7,203.654576 432.79,203.999576 431.97,204.516576 C431.79,204.624576 431.73,204.859576 431.83,205.043576 C431.88,205.132576 431.97,205.198576 432.07,205.224576 C432.17,205.250576 432.27,205.235576 432.36,205.182576 Z" id="Path" stroke="none" fill="#000000" fill-rule="nonzero"></path>
                    <path d="M433.03,208.218576 C433.82,207.778576 434.66,207.455576 435.54,207.258576 C435.76,207.200576 435.88,206.980576 435.83,206.766576 C435.77,206.552576 435.55,206.426576 435.34,206.483576 C434.39,206.703576 433.49,207.052576 432.64,207.521576 C432.46,207.632576 432.39,207.869576 432.5,208.056576 C432.61,208.235576 432.84,208.297576 433.03,208.195576 L433.03,208.218576 Z" id="Path" stroke="none" fill="#000000" fill-rule="nonzero"></path>
                    <path d="M434.45,211.147576 C435.26,210.586576 436.14,210.138576 437.07,209.814576 C437.27,209.748576 437.39,209.540576 437.34,209.334576 C437.28,209.128576 437.07,209.008576 436.86,209.063576 C435.87,209.410576 434.93,209.886576 434.06,210.480576 C433.94,210.550576 433.86,210.679576 433.86,210.819576 C433.86,210.959576 433.94,211.088576 434.06,211.156576 C434.18,211.224576 434.33,211.220576 434.45,211.147576 Z" id="Path" stroke="none" fill="#000000" fill-rule="nonzero"></path>
                    <path d="M482.82,174.463576 C482.09,174.091576 481.31,173.830576 480.5,173.688576 C479.76,173.517576 478.98,173.541576 478.25,173.758576 C477.63,174.089576 477.17,174.664576 476.98,175.346576 C476.67,176.043576 476.41,176.756576 476.15,177.468576 C475.67,178.957576 475,180.378576 474.16,181.697576 C473.94,182.001576 473.7,182.293576 473.45,182.573576 C473.2,182.795576 473.02,183.099576 472.96,183.432576 C472.96,183.737576 473.08,184.029576 473.3,184.246576 C473.6,184.633576 473.91,185.020576 474.22,185.392576 C474.53,185.764576 475.07,185.229576 474.77,184.842576 L474.07,183.982576 C473.94,183.820576 473.72,183.618576 473.78,183.378576 C473.84,183.138576 474.06,183.061576 474.15,182.944576 C474.54,182.500576 474.9,182.021576 475.2,181.511576 C475.82,180.429576 476.34,179.294576 476.75,178.119576 C476.98,177.530576 477.19,176.941576 477.42,176.361576 C477.58,175.732576 477.87,175.147576 478.29,174.649576 C478.79,174.207576 479.71,174.347576 480.32,174.440576 C481.06,174.549576 481.79,174.777576 482.46,175.113576 C482.91,175.330576 483.3,174.664576 482.86,174.440576 L482.82,174.463576 Z" id="Path" stroke="none" fill="#000000" fill-rule="nonzero"></path>
                    <path d="M484.06,203.889576 C484.06,203.889576 490.14,234.818576 505.04,246.955576 C519.93,259.093576 571.31,256.438576 571.06,257.197576 C570.81,257.956576 573.83,249.118576 571.06,244.804576 C571.06,244.804576 536.46,236.026576 528.13,235.019576 C519.8,234.012576 519.23,233.625576 519.23,233.625576 C519.23,233.625576 509.01,204.191576 506.2,195.996576 C503.4,187.801576 500,186.391576 496.29,187.142576" id="Path" stroke="#000000" stroke-width="0.790385" fill="none"></path>
                    <path d="M468.36,200.589576 C466.49,204.833576 464.39,208.985576 462.23,213.098576 C459.78,217.746576 457.22,222.393576 454.64,226.963576 C452.05,231.533576 449.41,236.134576 446.78,240.712576 C444.41,244.825576 442.05,248.930576 439.74,253.105576 C439.27,253.973576 438.28,255.189576 439.03,256.149576 C439.46,256.601576 439.97,256.966576 440.53,257.226576 C441.14,257.583576 441.77,257.909576 442.41,258.202576 C444.95,259.333576 447.63,260.132576 450.38,260.580576 C453.16,261.075576 455.98,261.354576 458.79,261.579576 C461.76,261.842576 464.74,262.082576 467.72,262.206576 C472.24,262.432576 476.77,262.368576 481.28,262.013576 C484.77,261.718576 488.25,261.192576 491.67,260.595576 C495.09,259.999576 498.77,259.348576 502.34,258.891576 C503.37,258.759576 504.7,258.798576 505.24,257.737576 C505.78,256.676576 505.24,255.700576 504.88,254.716576 C504.11,252.346576 503.51,249.929576 502.95,247.505576 C502.68,246.359576 502.44,245.181576 502.22,244.050576 C502.13,243.562576 501.38,243.771576 501.45,244.259576 C501.9,246.661576 502.47,249.046576 503.1,251.409576 C503.4,252.524576 503.72,253.640576 504.06,254.747576 C504.33,255.591576 505.21,257.148576 504.17,257.768576 C503.66,257.979576 503.1,258.087576 502.55,258.086576 L501.07,258.279576 C500.15,258.403576 499.24,258.543576 498.33,258.682576 C496.64,258.945576 494.96,259.232576 493.28,259.526576 C490.01,260.100576 486.73,260.665576 483.42,261.029576 C479.34,261.459576 475.24,261.629576 471.14,261.540576 C465.57,261.440576 460,261.014576 454.48,260.386576 C451.72,260.111576 448.99,259.593576 446.33,258.837576 C445,258.455576 443.7,257.968576 442.45,257.381576 C441.87,257.094576 441.28,256.792576 440.73,256.459576 C440.46,256.296576 440.17,256.141576 439.91,255.956576 C439.73,255.860576 439.59,255.693576 439.53,255.494576 C439.47,255.294576 439.49,255.078576 439.59,254.894576 C440.01,253.934576 440.62,253.020576 441.14,252.106576 L442.76,249.240576 C443.92,247.187576 445.08,245.150576 446.26,243.105576 C448.8,238.682576 451.35,234.260576 453.86,229.821576 C458.73,221.254576 463.58,212.641576 467.75,203.710576 C468.17,202.812576 468.59,201.906576 468.99,200.992576 C469.19,200.542576 468.52,200.147576 468.32,200.604576 L468.36,200.589576 Z" id="Path" stroke="none" fill="#000000" fill-rule="nonzero"></path>
                    <path d="M493.06,176.275576 C493.06,176.275576 493.46,178.436576 493.83,178.599576 C494.2,178.761576 494.48,177.545576 494.48,177.545576 L493.96,176.569576" id="Path" stroke="none" fill="#000000" fill-rule="nonzero"></path>
                    <path d="M485.85,211.139576 C484.63,219.067576 485.51,227.175576 488.39,234.663576 C493.18,246.521576 503.76,252.222576 503.76,252.222576 L502.36,246.614576 C502.36,246.614576 501.8,242.865576 500.28,242.021576 C498.77,241.177576 486.3,218.536576 485.85,211.139576 Z" id="Path" stroke="none" fill="#000000" fill-rule="nonzero"></path>
                    <path d="M488.79,260.658576 C489.17,262.566576 490.53,264.134576 492.36,264.786576 C505.22,269.348576 552.85,288.217576 559.16,303.670576 C565.88,320.137576 539.87,376.367576 535.64,385.894576 C535.33,386.571576 535.45,387.365576 535.94,387.924576 L536.45,388.512576 C536.94,389.075576 537.06,389.873576 536.75,390.554576 C536.44,391.235576 535.76,391.673579 535.02,391.673579 L516.27,391.673579 C515.67,391.673579 515.11,391.393576 514.75,390.915576 C514.39,390.437576 514.27,389.816576 514.44,389.240576 C516.45,382.269576 522.14,361.999576 523.58,350.031576 C527.61,316.376576 530.47,318.898576 530.47,318.898576 C530.47,318.898576 446.37,309.541576 443.34,276.877576 C442.79,270.811576 444.08,264.720576 447.05,259.403576" id="Path" stroke="#000000" stroke-width="0.790385" fill="none"></path>
                    <path d="M503.34,314.134576 C502.34,313.584576 527.32,325.645576 527.32,325.645576 L530.48,318.898576 C530.48,318.898576 506.87,316.055576 503.34,314.134576 Z" id="Path" stroke="none" fill="#000000" fill-rule="nonzero"></path>
                    <path d="M490.31,263.701576 C489.28,262.470576 489.1,260.208576 487.6,260.804576 C486.09,261.401576 467.39,263.128576 455.06,260.804576 L448.26,259.743576 C447.84,259.553576 447.36,259.560576 446.94,259.764576 C446.53,259.968576 446.22,260.347576 446.12,260.797576 L445.11,263.120576 C445.11,263.120576 472.17,275.390576 495.3,265.901576 C495.26,265.924576 491.34,264.933576 490.31,263.701576 Z" id="Path" stroke="none" fill="#000000" fill-rule="nonzero"></path>
                    <path d="M483.33,195.012576 L470.49,200.047576 C469.05,200.498576 467.97,201.678576 467.63,203.145576 L464.54,209.442576 C464.54,209.442576 489.39,194.989576 493.030074,190.659565 C493.06,190.651576 483.9,194.795576 483.33,195.012576 Z" id="Path" stroke="none" fill="#000000" fill-rule="nonzero"></path>
                    <path d="M571.56,247.063576 C576.21,247.892576 588.76,249.086576 593.37,249.923576 C593.85,250.016576 594.06,249.265576 593.57,249.148576 C588.92,248.304576 576.37,247.110576 571.77,246.289576 C571.28,246.196576 571.07,246.947576 571.56,247.063576 Z" id="Path" stroke="none" fill="#000000" fill-rule="nonzero"></path>
                    <path d="M571.38,256.134576 C573.54,255.741576 575.77,256.272576 577.52,257.598576 C578.29,258.219576 579.14,258.739576 580.04,259.147576 C581.1,259.550576 581.91,259.147576 582.74,258.473576 C583.13,258.163576 582.58,257.621576 582.19,257.923576 C581.81,258.322576 581.28,258.546576 580.72,258.543576 C580.2,258.421576 579.71,258.194576 579.28,257.877576 C578.45,257.335576 577.73,256.661576 576.83,256.188576 C575.11,255.280576 573.13,254.987576 571.22,255.359576 C570.72,255.452576 570.93,256.196576 571.42,256.134576 L571.38,256.134576 Z" id="Path" stroke="none" fill="#000000" fill-rule="nonzero"></path>
                    <path d="M528.12,319.045576 L536.99,320.029576 C537.49,320.083576 537.48,319.308576 536.99,319.254576 L528.12,318.270576 C527.63,318.216576 527.63,318.991576 528.12,319.045576 Z" id="Path" stroke="none" fill="#000000" fill-rule="nonzero"></path>
                    <path d="M521.79,363.649576 C524.53,363.432576 527.21,364.338576 529.88,364.532576 C531.13,364.625576 532.48,364.532576 533.63,365.136576 C534.59,365.601576 535.47,366.639576 535.18,367.778576 C535.14,367.944576 535.21,368.118576 535.36,368.203576 C535.51,368.289576 535.7,368.267576 535.82,368.149576 L538.34,365.562576 L537.96,365.663576 L543.92,366.902576 C544.41,367.003576 544.61,366.252576 544.13,366.128576 L539.01,365.067576 C538.67,364.936576 538.32,364.875576 537.96,364.888576 C537.66,364.974576 537.34,365.454576 537.13,365.663576 L535.3,367.638576 L535.95,368.010576 C536.17,366.854576 535.71,365.672576 534.76,364.974576 C533.68,364.232576 532.39,363.842576 531.07,363.858576 C529.52,363.756576 527.96,363.567576 526.43,363.293576 C524.9,362.968576 523.34,362.838576 521.78,362.905576 C521.29,362.905576 521.28,363.680576 521.78,363.680576 L521.79,363.649576 Z" id="Path" stroke="none" fill="#000000" fill-rule="nonzero"></path>
                    <path d="M520.21,235.476576 C520,234.718576 519.76,233.970576 519.48,233.237576 C519.41,233.034576 519.2,232.916576 519,232.966576 C518.9,232.995576 518.82,233.062576 518.77,233.152576 C518.72,233.242576 518.71,233.348576 518.73,233.446576 C519.01,234.179576 519.25,234.927576 519.45,235.685576 C519.51,235.899576 519.73,236.025576 519.95,235.968576 C520.16,235.910576 520.29,235.690576 520.23,235.476576 L520.21,235.476576 Z" id="Path" stroke="none" fill="#000000" fill-rule="nonzero"></path>
                    <path d="M508.29,202.084576 C508.29,202.084576 522.75,211.914576 524.72,212.417576 C526.69,212.921576 556.67,204.145576 558.29,204.586576 C559.92,205.028576 563.54,213.881576 560.62,216.422576 C557.7,218.962576 530.77,237.389576 517.24,227.932576" id="Path" stroke="#000000" stroke-width="0.790385" fill="none"></path>
                    <path d="M508.96,204.020576 C508.96,204.020576 516.6,222.610576 522.78,226.344576 C528.96,230.077576 532.65,229.969576 532.65,229.969576 C532.65,229.969576 525.24,231.518576 521.63,229.969576 C518.02,228.419576 517.34,228.234576 516.21,224.903576" id="Path" stroke="none" fill="#000000" fill-rule="nonzero"></path>
                    <path d="M559.41,205.601576 C561.09,204.847576 562.77,204.119576 564.47,203.416576 C565.92,202.726576 567.44,202.206576 569,201.867576 C570.82,201.698576 572.65,201.633576 574.47,201.674576 C574.97,201.674576 574.97,200.899576 574.47,200.899576 C572.6,200.859576 570.72,200.931576 568.85,201.116576 C567.21,201.468576 565.61,202.014576 564.09,202.742576 C562.39,203.445576 560.7,204.175576 559.02,204.935576 C558.56,205.136576 558.96,205.810576 559.41,205.601576 Z" id="Path" stroke="none" fill="#000000" fill-rule="nonzero"></path>
                    <path d="M562,212.928576 C562.86,212.362576 563.81,211.975576 564.82,211.789576 C565.86,211.595576 566.96,211.789576 567.92,211.394576 C569.76,210.712576 570.64,208.815576 570.72,206.956576 C570.72,206.460576 569.95,206.460576 569.95,206.956576 C569.86,208.846576 568.8,210.658576 566.77,210.829576 C565.87,210.859576 564.97,210.960576 564.08,211.131576 C563.19,211.358576 562.34,211.732576 561.57,212.238576 C561.16,212.509576 561.57,213.183576 561.96,212.904576 L562,212.928576 Z" id="Path" stroke="none" fill="#000000" fill-rule="nonzero"></path>
                    <path d="M569.65,204.299576 C570.29,204.373576 570.87,204.696576 571.26,205.198576 C571.43,205.421576 571.54,205.690576 571.56,205.972576 C571.59,206.240576 571.49,206.505576 571.3,206.693576 C570.93,207.041576 571.48,207.591576 571.85,207.243576 C572.46,206.569576 572.5,205.546576 571.92,204.834576 C571.38,204.105576 570.56,203.640576 569.65,203.556576 C569.44,203.560576 569.27,203.731576 569.27,203.943576 C569.28,204.153576 569.44,204.322576 569.65,204.330576 L569.65,204.299576 Z" id="Path" stroke="none" fill="#000000" fill-rule="nonzero"></path>
                    <path d="M437.91,210.403576 L441.18,195.020576 L441.02,195.066576 C443.44,197.150576 446.52,198.079576 449.39,199.342576 C452.57,200.882576 455.55,202.813576 458.25,205.089576 C458.27,205.112576 458.31,205.121576 458.34,205.113576 C458.37,205.105576 458.4,205.082576 458.41,205.050576 C460.12,199.458576 462.14,193.965576 464.47,188.598576 L464.34,188.637576 C469.28,191.487576 474.29,194.206576 479.37,196.793576 C479.41,196.826576 479.46,196.826576 479.5,196.793576 C482.04,192.362576 483.71,187.485576 484.42,182.425576 L484.27,182.487576 C487.57,184.811576 490.76,187.320576 493.99,189.752576 C494.01,189.768576 494.04,189.770576 494.07,189.758576 C494.1,189.746576 494.12,189.720576 494.13,189.690576 C494.78,186.321576 495.4,182.316576 492.82,179.567576 C492.73,179.474576 492.59,179.613576 492.68,179.706576 C495.21,182.402576 494.57,186.352576 493.94,189.644576 L494.09,189.582576 C490.86,187.150576 487.67,184.656576 484.37,182.316576 C484.35,182.301576 484.32,182.299576 484.29,182.311576 C484.26,182.323576 484.24,182.349576 484.23,182.378576 C483.53,187.409576 481.86,192.257576 479.33,196.662576 L479.46,196.662576 C474.38,194.080576 469.37,191.358576 464.43,188.498576 C464.38,188.474576 464.32,188.491576 464.3,188.536576 C461.96,193.915576 459.94,199.420576 458.22,205.027576 L458.39,204.981576 C455.77,202.754576 452.89,200.851576 449.82,199.311576 C446.88,197.978576 443.69,197.072576 441.2,194.927576 C441.17,194.904576 441.14,194.896576 441.1,194.906576 C441.07,194.915576 441.05,194.940576 441.04,194.973576 L437.76,210.348576 C437.76,210.472576 437.92,210.519576 437.95,210.403576 L437.91,210.403576 Z" id="Path" stroke="none" fill="#000000" fill-rule="nonzero"></path>
                    <path d="M473.68,183.610576 C476.89,181.503576 480.05,179.309576 483.16,177.026576 L483.01,176.972576 C483.59,178.492576 484,180.071576 484.23,181.681576 C484.23,181.805576 484.44,181.751576 484.42,181.627576 C484.19,180.017576 483.78,178.438576 483.2,176.918576 C483.19,176.889576 483.17,176.866576 483.14,176.855576 C483.11,176.845576 483.08,176.848576 483.06,176.863576 C479.96,179.141576 476.8,181.335576 473.58,183.447576 C473.48,183.517576 473.58,183.680576 473.68,183.610576 Z" id="Path" stroke="none" fill="#000000" fill-rule="nonzero"></path>
                    <path d="M479.5,247.629576 C482.2,245.999576 484.79,244.187576 487.25,242.207576 C488.49,241.205576 489.69,240.172576 490.85,239.109576 C491.44,238.566576 492.02,238.001576 492.59,237.435576 C492.93,237.095576 493.37,236.661576 493.14,236.188576 C493.09,236.080576 492.92,236.188576 492.97,236.289576 C493.2,236.731576 492.54,237.219576 492.27,237.482576 L491.5,238.257576 C491,238.737576 490.49,239.201576 489.95,239.666576 C488.88,240.634576 487.77,241.564576 486.64,242.462576 C484.34,244.282576 481.93,245.954576 479.42,247.466576 C479.38,247.498576 479.38,247.547576 479.4,247.587576 C479.42,247.627576 479.47,247.647576 479.51,247.637576 L479.5,247.629576 Z" id="Path" stroke="none" fill="#000000" fill-rule="nonzero"></path>
                    <path d="M497.46,238.636576 C498.95,238.009576 500.6,237.868576 502.17,238.234576 C503.51,238.464576 504.81,238.878576 506.04,239.465576 C508.59,240.605576 510.52,242.807576 511.31,245.491576 C511.71,247.244576 511.88,249.040576 511.82,250.836576 C511.83,250.879576 511.87,250.909576 511.91,250.909576 C511.96,250.909576 512,250.879576 512.01,250.836576 C512.01,247.738576 511.82,244.461576 509.69,241.967576 C507.75,239.895576 505.18,238.532576 502.38,238.094576 C500.71,237.687576 498.95,237.826576 497.36,238.489576 C497.26,238.543576 497.36,238.714576 497.46,238.660576 L497.46,238.636576 Z" id="Path" stroke="none" fill="#000000" fill-rule="nonzero"></path>
                    <path d="M517.32,223.245576 C519.94,222.398576 522.8,222.707576 525.18,224.096576 C527.56,225.484576 529.23,227.819576 529.79,230.518576 C529.79,230.635576 530,230.588576 529.98,230.464576 C529.41,227.715576 527.71,225.336576 525.28,223.923576 C522.85,222.510576 519.94,222.196576 517.27,223.059576 C517.15,223.098576 517.2,223.284576 517.32,223.245576 Z" id="Path" stroke="none" fill="#000000" fill-rule="nonzero"></path>
                    <path d="M472.49,284.189576 C475.84,281.115576 478.33,277.220576 479.72,272.888576 C479.72,272.764576 479.57,272.718576 479.53,272.834576 C478.16,277.136576 475.68,281.004576 472.35,284.058576 C472.26,284.135576 472.4,284.275576 472.49,284.189576 Z" id="Path" stroke="none" fill="#000000" fill-rule="nonzero"></path>
                    <path d="M539.24,376.949576 C538.21,376.375576 537.08,376.024576 535.91,375.919576 C535.88,375.920576 535.85,375.935576 535.83,375.959576 C535.81,375.983576 535.81,376.013576 535.81,376.043576 L537.56,380.303576 L537.7,380.194576 L534.13,378.645576 C534.06,378.645576 533.95,378.645576 533.99,378.754576 C534.71,380.480576 535.55,382.154576 536.5,383.765576 L536.61,383.626576 C535.82,383.421576 535.01,383.311576 534.2,383.300576 C533.88,383.300576 533.29,383.192576 533.3,383.664576 C533.36,383.969576 533.49,384.258576 533.66,384.516576 C533.85,384.865576 534.04,385.206576 534.26,385.539576 C534.66,386.157576 535.11,386.742576 535.61,387.289576 C535.69,387.382576 535.83,387.243576 535.75,387.150576 C534.98,386.303576 534.32,385.361576 533.79,384.346576 C533.68,384.137576 533.34,383.680576 533.64,383.502576 C533.95,383.447576 534.26,383.447576 534.57,383.502576 C535.24,383.535576 535.91,383.639576 536.56,383.812576 C536.6,383.825576 536.64,383.813576 536.66,383.781576 C536.69,383.749576 536.69,383.705576 536.67,383.672576 C535.73,382.071576 534.89,380.410576 534.17,378.699576 L534.03,378.816576 L537.6,380.365576 C537.67,380.365576 537.78,380.365576 537.75,380.249576 L536,375.988576 L535.91,376.112576 C537.04,376.215576 538.14,376.558576 539.14,377.119576 C539.18,377.136576 539.23,377.118576 539.26,377.076576 C539.28,377.034576 539.27,376.981576 539.24,376.949576 Z" id="Path" stroke="none" fill="#000000" fill-rule="nonzero"></path>
                    <path d="M476.4,277.218576 C475.77,277.069576 475.12,277.003576 474.47,277.024576 C474.15,277.039576 473.84,277.072576 473.53,277.125576 C473.3,277.135576 473.11,277.312576 473.08,277.543576 C473.1,278.169576 473.26,278.782576 473.56,279.332576 L474.34,281.315576 C474.38,281.424576 474.57,281.377576 474.52,281.261576 L473.86,279.619576 C473.61,279.098576 473.41,278.553576 473.27,277.992576 C473.25,277.839576 473.25,277.681576 473.27,277.528576 C473.31,277.334576 473.53,277.319576 473.68,277.295576 C473.99,277.249576 474.3,277.223576 474.61,277.218576 C475.2,277.206576 475.79,277.269576 476.37,277.404576 C476.42,277.404576 476.46,277.374576 476.47,277.331576 C476.48,277.288576 476.46,277.242576 476.43,277.218576 L476.4,277.218576 Z" id="Path" stroke="none" fill="#000000" fill-rule="nonzero"></path>
                    <path d="M506.43,136.504576 L510.81,132.128576 C510.9,132.043576 510.76,131.903576 510.67,131.988576 L506.29,136.365576 C506.21,136.458576 506.35,136.589576 506.43,136.504576 Z" id="Path" stroke="none" fill="#000000" fill-rule="nonzero"></path>
                    <path d="M500.07,133.437576 L501.04,130.393576 C501.05,130.341576 501.02,130.289576 500.97,130.274576 C500.92,130.260576 500.87,130.288576 500.85,130.339576 L499.89,133.383576 C499.85,133.499576 500.03,133.553576 500.07,133.437576 Z" id="Path" stroke="none" fill="#000000" fill-rule="nonzero"></path>
                    <path d="M512.47,141.919576 L515.5,140.540576 C515.6,140.493576 515.5,140.323576 515.39,140.377576 L512.38,141.748576 C512.27,141.802576 512.38,141.965576 512.47,141.919576 Z" id="Path" stroke="none" fill="#000000" fill-rule="nonzero"></path>
                    <path d="M515.12,152.344576 L517.44,152.344576 C517.48,152.332576 517.51,152.293576 517.51,152.248576 C517.51,152.203576 517.48,152.163576 517.44,152.151576 L515.12,152.151576 C515.07,152.163576 515.04,152.203576 515.04,152.248576 C515.04,152.293576 515.07,152.332576 515.12,152.344576 Z" id="Path" stroke="none" fill="#000000" fill-rule="nonzero"></path>
                    <path d="M494.55,158.991576 L494.8,172.139576 C493.91,175.184576 491.38,174.859576 490.23,174.316576 L481.87,170.627576 C477.43,168.668576 472.84,166.072576 471.19,161.502576 C469.25,156.102576 471.32,151.426576 473.01,148.409576 C473.67,147.218576 474.45,146.094576 475.39,145.107576 C478.66,141.686576 482.45,139.464576 486.79,139.361576 C500.83,139.028576 505.85,149.104576 506.85,155.238576 C506.96,155.936576 506.4,156.534576 505.69,156.523576 C503.77,156.491576 500.82,156.411576 498.44,156.242576 C495.41,156.027576 494.58,157.985576 494.55,158.991576 Z" id="Path" stroke="#000000" stroke-width="0.845385" fill="#FFFFFF" fill-rule="nonzero"></path>
                    <path d="M472.43,149.624576 L471.09,152.888576 L470.42,156.805576 L471.09,162.027576 L474.45,165.944576 L482.5,171.167576 C478.74,166.466576 472.88,151.800576 473.78,147.013576 L472.43,149.624576 Z" id="Path" stroke="none" fill="#000000" fill-rule="nonzero"></path>
                    <path d="M190.256,274.534576 C194.166,279.300576 200.155,283.989576 208.192,284.711576 L208.192,321.946576 L208.192,324.096576 L210.342,324.096576 L230.433,324.096576 L232.583,324.096576 L232.583,321.946576 L232.583,257.015576 L234.293,256.740576 C244.159,255.149576 252.247,248.060576 255.12,238.488576 C255.849,236.057576 256.22,233.532576 256.22,230.993576 L256.22,211.318576 C256.22,206.786576 252.545,203.111576 248.013,203.111576 C243.481,203.111576 239.806,206.786576 239.806,211.318576 L239.806,229.484576 L239.806,231.550576 C239.806,235.987576 236.723,239.704576 232.583,240.676576 L232.583,196.992576 C232.583,190.256576 227.123,184.796576 220.387,184.796576 C213.652,184.796576 208.192,190.256576 208.192,196.992576 L208.192,268.077576 C207.808,267.966576 207.426,267.829576 207.048,267.668576 C203.643,266.222576 202.15,262.001576 202.15,257.067576 L202.15,218.260576 C202.15,213.483576 198.277,209.610576 193.5,209.610576 C188.723,209.610576 184.85,213.483576 184.85,218.260576 L184.85,255.301576 C184.85,261.777576 185.721,269.007576 190.256,274.534576 Z" id="Path" stroke="#FFFFFF" stroke-width="4.29936" fill="#F4F4F4" fill-rule="nonzero"></path>
                    <path d="M230.433,321.946576 L230.433,255.185576 L233.951,254.617576 C243.003,253.157576 250.425,246.653576 253.061,237.871576 L253.061,237.871576 C253.73,235.640576 254.07,233.323576 254.07,230.993576 L254.07,211.318576 C254.07,207.973576 251.358,205.261576 248.013,205.261576 L248.013,205.261576 C244.668,205.261576 241.956,207.973576 241.956,211.318576 L241.956,229.484576 L241.956,231.550576 C241.956,237.914576 236.797,243.073576 230.433,243.073576 L230.433,243.073576 L230.433,196.992576 C230.433,191.444576 225.935,186.946576 220.387,186.946576 L220.387,186.946576 C214.839,186.946576 210.342,191.444576 210.342,196.992576 L210.342,270.546576 C208.887,270.546576 207.489,270.192576 206.207,269.647576 C201.518,267.655576 200,262.162576 200,257.067576 L200,218.260576 C200,214.670576 197.09,211.760576 193.5,211.760576 L193.5,211.760576 C189.91,211.760576 187,214.670576 187,218.260576 L187,255.301576 C187,261.668576 187.879,268.248576 191.918,273.170576 C195.932,278.062576 202.087,282.657576 210.342,282.657576 L210.342,321.946576" id="Path" stroke="#000000" stroke-width="1" fill="none"></path>
                    <path d="M774.92,233.067576 L774.92,194.260576 C774.92,189.483576 778.79,185.610576 783.57,185.610576 C788.35,185.610576 792.22,189.483576 792.22,194.260576 L792.22,231.301576 C792.22,237.777576 791.35,245.007576 786.81,250.534576 C782.9,255.300576 776.92,259.989576 768.88,260.711576 L768.88,287.900576 C768.88,294.636576 763.42,300.096576 756.68,300.096576 C749.95,300.096576 744.49,294.636576 744.49,287.900576 L744.49,233.015576 L742.78,232.740576 C732.91,231.149576 724.82,224.060576 721.95,214.488576 C721.22,212.057576 720.85,209.532576 720.85,206.993576 L720.85,187.318576 C720.85,182.786576 724.52,179.111576 729.06,179.111576 C733.59,179.111576 737.26,182.786576 737.26,187.318576 L737.26,205.484576 L737.26,207.550576 C737.26,211.987576 740.35,215.704576 744.49,216.676576 L744.49,172.992576 C744.49,166.256576 749.95,160.796576 756.68,160.796576 C763.42,160.796576 768.88,166.256576 768.88,172.992576 L768.88,244.077576 C769.26,243.966576 769.64,243.829576 770.02,243.668576 L770.86,245.647576 L770.02,243.668576 C773.43,242.222576 774.92,238.001576 774.92,233.067576 Z" id="Path" stroke="#FFFFFF" stroke-width="4.29936" fill="#FFFFFF" fill-rule="nonzero"></path>
                    <path d="M746.64,297.946576 L746.64,231.185576 L743.12,230.617576 C734.07,229.157576 726.65,222.653576 724.01,213.871576 L724.01,213.871576 C723.34,211.640576 723,209.323576 723,206.993576 L723,187.318576 C723,183.973576 725.71,181.261576 729.06,181.261576 L729.06,181.261576 C732.4,181.261576 735.11,183.973576 735.11,187.318576 L735.11,205.484576 L735.11,207.550576 C735.11,213.914576 740.27,219.073576 746.64,219.073576 L746.64,219.073576 L746.64,172.992576 C746.64,167.444576 751.13,162.946576 756.68,162.946576 L756.68,162.946576 C762.23,162.946576 766.73,167.444576 766.73,172.992576 L766.73,246.546576 C768.18,246.546576 769.58,246.192576 770.86,245.647576 C775.55,243.655576 777.07,238.162576 777.07,233.067576 L777.07,194.260576 C777.07,190.670576 779.98,187.760576 783.57,187.760576 L783.57,187.760576 C787.16,187.760576 790.07,190.670576 790.07,194.260576 L790.07,231.301576 C790.07,237.668576 789.19,244.248576 785.15,249.170576 C781.14,254.062576 774.98,258.657576 766.73,258.657576 L766.73,297.946576" id="Path" stroke="#000000" stroke-width="1" fill="none"></path>
                    <path d="M861.87,302.322576 C859.51,305.208576 855.89,308.112576 851.03,308.792576 L851.03,330.946576 L851.03,333.096576 L848.89,333.096576 L836.53,333.096576 L834.38,333.096576 L834.38,330.946576 L834.38,289.900576 L834.38,282.454576 L834.38,254.122576 C834.38,249.524576 838.11,245.796576 842.71,245.796576 C847.31,245.796576 851.03,249.524576 851.03,254.122576 L851.03,296.574576 C852.35,295.715576 853.09,293.739576 853.09,291.058576 L853.09,267.198576 C853.09,263.804576 855.85,261.052576 859.24,261.052576 C862.63,261.052576 865.39,263.804576 865.39,267.198576 L865.39,289.972576 C865.39,293.995576 864.85,298.691576 861.87,302.322576 Z" id="Path" stroke="#FFFFFF" stroke-width="4.29936" fill="#F4F4F4" fill-rule="nonzero"></path>
                    <path d="M836.53,330.946576 L836.53,289.900576 L836.53,282.454576 L836.53,254.122576 C836.53,250.711576 839.3,247.946576 842.71,247.946576 L842.71,247.946576 C846.12,247.946576 848.89,250.711576 848.89,254.122576 L848.89,299.344576 C849.78,299.344576 850.64,299.127576 851.43,298.792576 C854.31,297.567576 855.24,294.190576 855.24,291.058576 L855.24,267.198576 C855.24,264.991576 857.03,263.202576 859.24,263.202576 L859.24,263.202576 C861.45,263.202576 863.24,264.991576 863.24,267.198576 L863.24,289.972576 C863.24,293.886576 862.7,297.932576 860.21,300.958576 C857.74,303.966576 853.96,306.791576 848.89,306.791576 L848.89,330.946576" id="Path" stroke="#000000" stroke-width="1" fill="none"></path>
                    <path d="M296.49,90.1265763 L337.885,90.1265763 C338.16,90.1265763 338.38,89.9085763 338.38,89.6395763 C338.38,89.3705763 338.16,89.1525763 337.885,89.1525763 L296.49,89.1525763 C296.219,89.1525763 296,89.3705763 296,89.6395763 C296,89.9085763 296.219,90.1265763 296.49,90.1265763 Z" id="Path" stroke="none" fill="#000000" fill-rule="nonzero"></path>
                    <path d="M339.05,88.8695763 C336.376,85.5165763 333.417,81.8035763 333.221,77.3305763 C333.064,73.7145763 334.936,69.8265763 338.92,69.4465763 C340.73,69.1745763 342.54,69.9255763 343.62,71.3955763 L344.46,70.9085763 C340.07,64.9335763 344.05,56.1135763 350.34,53.3655763 C354.5,51.7055763 359.13,51.6325763 363.35,53.1615763 C367.66,54.6935763 371.55,57.2375763 374.66,60.5775763 C378.25,64.4915763 381.46,68.7335763 384.24,73.2475763 C384.37,73.4485763 384.62,73.5285763 384.84,73.4365763 C385.06,73.3455763 385.19,73.1085763 385.13,72.8765763 C384.89,71.0545763 385.63,69.2395763 387.09,68.1115763 C388.54,66.8655763 390.47,66.3355763 392.35,66.6685763 C396.44,67.3895763 399.21,71.0255763 400.51,74.6995763 C401.29,77.0805763 401.87,79.5265763 402.22,82.0085763 C402.33,82.5935763 403.13,82.3785763 403.2,81.8815763 C403.45,79.7085763 405.99,78.8115763 407.89,78.9585763 C410.54,79.1335763 412.68,81.3065763 414.58,82.9245763 C418.52,86.3475763 423.5,88.3645763 428.73,88.6555763 C431.66,88.8085763 434.59,88.3945763 437.37,87.4365763 C437.95,87.2325763 437.7,86.2865763 437.1,86.4625763 C431.78,88.2895763 425.96,88.0455763 420.81,85.7805763 C419.58,85.2405763 418.4,84.5875763 417.29,83.8305763 C416.1,82.9675763 414.96,82.0405763 413.87,81.0535763 C411.98,79.4645763 409.78,77.8475763 407.17,77.9635763 C404.85,78.0715763 402.47,79.4165763 402.19,81.8625763 L403.17,81.7255763 C402.35,77.0285763 401.4,71.9315763 397.78,68.4915763 C396.28,66.9945763 394.35,66.0025763 392.26,65.6555763 C390.23,65.3695763 388.18,65.9425763 386.6,67.2335763 C384.78,68.5965763 383.86,70.8435763 384.21,73.0815763 L385.1,72.7115763 C379.81,64.6705763 373.99,56.0165763 364.52,52.4785763 C360.16,50.7155763 355.31,50.5595763 350.85,52.0405763 C347.25,53.3965763 344.36,56.1465763 342.83,59.6615763 C341.17,63.4335763 341.08,67.9455763 343.6,71.3565763 C343.96,71.8535763 344.78,71.4055763 344.44,70.8695763 C342.38,67.6625763 337.513,67.7015763 334.857,70.1085763 C331.476,73.1495763 331.751,78.3835763 333.446,82.1835763 C334.766,84.8145763 336.412,87.2695763 338.35,89.4935763 C338.74,89.9805763 339.43,89.2885763 339.04,88.8015763 L339.05,88.8695763 Z" id="Path" stroke="none" fill="#000000" fill-rule="nonzero"></path>
                    <path d="M611.58,121.858576 L641.58,121.858576 C641.85,121.858576 642.07,121.640576 642.07,121.371576 C642.07,121.102576 641.85,120.884576 641.58,120.884576 L611.58,120.884576 C611.31,120.884576 611.09,121.102576 611.09,121.371576 C611.09,121.640576 611.31,121.858576 611.58,121.858576 Z" id="Path" stroke="none" fill="#000000" fill-rule="nonzero"></path>
                    <path d="M641.23,121.176576 C639.69,119.184576 639.6,116.438576 641.01,114.354576 C641.72,113.378576 642.82,112.752576 644.03,112.633576 C645.24,112.514576 646.44,112.913576 647.33,113.730576 C647.45,113.850576 647.63,113.897576 647.8,113.853576 C647.97,113.809576 648.1,113.681576 648.14,113.516576 C648.47,111.810576 648.78,109.764576 650.1,108.487576 C651.08,107.513576 652.99,107.376576 653.67,108.789576 C653.92,109.286576 654.73,108.935576 654.57,108.409576 C652.97,103.117576 652.11,95.3115763 657.81,92.0365763 C658.82,91.4155763 660.01,91.1455763 661.19,91.2665763 C662.62,91.5645763 663.91,92.3335763 664.85,93.4495763 C666.96,95.6725763 668.82,98.1205763 670.38,100.749576 C672.22,103.774576 673.73,106.990576 674.87,110.339576 C675.04,110.836576 675.85,110.787576 675.85,110.212576 C675.83,109.062576 676.29,107.955576 677.11,107.145576 C677.93,106.334576 679.04,105.890576 680.2,105.914576 C683.14,105.817576 684.98,108.555576 685.99,110.953576 C686.65,112.631576 687.16,114.367576 687.5,116.138576 C687.63,116.703576 688.43,116.527576 688.48,116.011576 C688.63,114.382576 689.76,113.007576 691.33,112.541576 C692.91,111.996576 694.64,112.725576 695.34,114.227576 C695.88,115.202576 696.21,116.313576 696.75,117.307576 C697.25,118.244576 698,119.026576 698.92,119.568576 C700.82,120.699576 703.22,120.845576 705.37,121.069576 C708.54,121.398576 711.73,121.519576 714.92,121.429576 C715.55,121.429576 715.55,120.455576 714.92,120.455576 C711.89,120.536576 708.86,120.432576 705.85,120.143576 C703.54,119.919576 700.66,119.841576 698.79,118.301576 C696.92,116.761576 696.95,113.984576 695.16,112.385576 C693.93,111.343576 692.2,111.086576 690.72,111.723576 C688.9,112.410576 687.64,114.082576 687.5,116.011576 L688.48,115.874576 C687.77,112.561576 686.8,108.779576 684.14,106.440576 C682.03,104.544576 678.84,104.469576 676.64,106.265576 C675.45,107.219576 674.8,108.692576 674.9,110.212576 L675.88,110.085576 C673.76,103.637576 670.25,97.7275763 665.6,92.7675763 C664.58,91.5735763 663.21,90.7275763 661.68,90.3505763 C660.46,90.1465763 659.21,90.3125763 658.09,90.8285763 C655.5,92.0905763 653.61,94.4335763 652.94,97.2215763 C651.96,100.983576 652.57,105.018576 653.68,108.672576 L654.58,108.292576 C654.15,107.518576 653.4,106.968576 652.53,106.782576 C651.65,106.595576 650.74,106.790576 650.03,107.318576 C648.13,108.575576 647.66,111.167576 647.28,113.224576 L648.1,113.009576 C647.03,112.020576 645.6,111.520576 644.14,111.629576 C642.68,111.738576 641.33,112.446576 640.42,113.584576 C638.62,116.061576 638.7,119.425576 640.61,121.819576 C641.02,122.297576 641.71,121.605576 641.3,121.127576 L641.23,121.176576 Z" id="Path" stroke="none" fill="#000000" fill-rule="nonzero"></path>
                    <path d="M488.37,29.8395763 L516.75,29.8395763 C517.02,29.8395763 517.24,29.6205763 517.24,29.3515763 C517.24,29.0825763 517.02,28.8645763 516.75,28.8645763 L488.37,28.8645763 C488.1,28.8645763 487.88,29.0825763 487.88,29.3515763 C487.88,29.6205763 488.1,29.8395763 488.37,29.8395763 Z" id="Path" stroke="none" fill="#000000" fill-rule="nonzero"></path>
                    <path d="M515.89,28.2315763 C512.69,25.5665763 511.69,21.0875763 513.46,17.3255763 C515.25,13.5835763 519.55,12.1505763 523.44,13.1935763 C525.63,13.7545763 527.51,15.1555763 528.67,17.0915763 C528.94,17.5595763 529.76,17.2475763 529.56,16.7215763 C527.76,11.9555763 529.71,6.36157635 533.66,3.24257635 C535.66,1.63257635 538.18,0.81357635 540.75,0.94257635 C543.44,1.15157635 546,2.23757635 548.02,4.03257635 C550.3,5.95057635 551.74,8.67757635 552.04,11.6345763 C552,11.9035763 552.19,12.1515763 552.46,12.1895763 C552.73,12.2275763 552.98,12.0395763 553.02,11.7705763 C553.64,9.34457635 554.67,7.03957635 556.05,4.94857635 C557.48,2.90957635 559.83,1.69957635 562.33,1.71257635 C564.84,1.84357635 567.25,2.77957635 569.19,4.38357635 C571.27,6.13757635 572.99,8.27957635 574.24,10.6885763 C575.69,13.2035763 576.93,15.8445763 578.49,18.2905763 C579.83,20.3855763 581.66,22.7535763 584.26,23.2905763 C585.48,23.4995763 586.73,23.2715763 587.8,22.6465763 C588.43,22.2745763 589.12,22.0045763 589.84,21.8475763 C590.71,21.7405763 591.59,21.7995763 592.43,22.0235763 C593.96,22.3835763 595.45,22.9095763 596.97,23.3285763 C598.49,23.7485763 600.06,24.1375763 601.62,24.4795763 C608.66,26.0425763 615.86,26.7945763 623.07,26.7205763 C623.34,26.7205763 623.56,26.5025763 623.56,26.2335763 C623.56,25.9645763 623.34,25.7455763 623.07,25.7455763 C616.39,25.8395763 609.73,25.2155763 603.19,23.8845763 C599.98,23.2315763 596.85,22.3545763 593.71,21.4385763 C592.3,20.9275763 590.78,20.7805763 589.29,21.0095763 C587.87,21.3115763 586.72,22.4515763 585.21,22.4715763 C582.35,22.5295763 580.31,19.5475763 578.99,17.4135763 C577.43,14.8795763 576.17,12.1795763 574.65,9.61657635 C573.33,7.23657635 571.55,5.13757635 569.42,3.43757635 C567.46,1.92057635 565.1,1.00357635 562.62,0.79657635 C559.92,0.66557635 557.32,1.82857635 555.62,3.92557635 C553.81,6.10857635 552.88,8.86657635 552.04,11.5365763 L553.02,11.6635763 C552.57,5.91357635 547.67,1.05957635 542.02,0.14357635 C536.36,-0.77242365 531.06,2.79457635 528.91,7.98957635 C527.68,10.8355763 527.58,14.0375763 528.62,16.9555763 L529.51,16.5845763 C527.29,12.7455763 522.27,11.0785763 518.06,12.2875763 C513.58,13.5735763 511.2,18.0765763 511.72,22.5495763 C511.98,25.0565763 513.23,27.3575763 515.2,28.9425763 C515.69,29.3225763 516.39,28.6405763 515.89,28.2505763 L515.89,28.2315763 Z" id="Path" stroke="none" fill="#000000" fill-rule="nonzero"></path>
                </g>
            </g>
        </g>
    </g>
</svg>