<?xml version="1.0" encoding="UTF-8"?>
<svg width="550px" height="469px" viewBox="0 0 550 469" version="1.1" xmlns="http://www.w3.org/2000/svg" xmlns:xlink="http://www.w3.org/1999/xlink">
    <title>join-our-team</title>
    <g id="Page-3" stroke="none" stroke-width="1" fill="none" fill-rule="evenodd">
        <g id="join-our-team">
            <polygon id="Path" fill="#F4F4F4" fill-rule="nonzero" points="0.4835 83.9014 155.45 83.9014 155.45 392.247 0.4835 392.247"></polygon>
            <circle id="Oval" fill="#000000" fill-rule="nonzero" cx="77.97" cy="180.064" r="56.7543"></circle>
            <circle id="Oval" fill="#FFFFFF" fill-rule="nonzero" cx="77.97" cy="175.746" r="56.7543"></circle>
            <polygon id="Path" stroke="#000000" stroke-width="0.714" points="0.4834 83.9023 155.45 83.9023 155.45 392.248 0.4834 392.248"></polygon>
            <circle id="Oval" stroke="#000000" stroke-width="0.714" cx="77.97" cy="175.746" r="56.7543"></circle>
            <line x1="46.742" y1="263.163" x2="109.199" y2="263.163" id="Path" stroke="#000000" stroke-width="0.714"></line>
            <line x1="46.742" y1="275.777" x2="109.199" y2="275.777" id="Path" stroke="#000000" stroke-width="0.714"></line>
            <line x1="46.742" y1="288.401" x2="109.199" y2="288.401" id="Path" stroke="#000000" stroke-width="0.714"></line>
            <line x1="54.439" y1="301.018" x2="101.495" y2="301.018" id="Path" stroke="#000000" stroke-width="0.714"></line>
            <polygon id="Path" fill="#000000" fill-rule="nonzero" points="45.287 321.261 46.511 323.745 49.247 324.144 47.267 326.075 47.736 328.804 45.287 327.516 42.83 328.804 43.299 326.075 41.319 324.144 44.062 323.745"></polygon>
            <polygon id="Path" fill="#000000" fill-rule="nonzero" points="61.625 321.261 62.849 323.745 65.592 324.144 63.605 326.075 64.074 328.804 61.625 327.516 59.176 328.804 59.645 326.075 57.665 324.144 60.4 323.745"></polygon>
            <polygon id="Path" fill="#CCCCCC" fill-rule="nonzero" points="77.97 321.263 79.195 323.747 81.931 324.146 79.951 326.077 80.419 328.806 77.97 327.518 75.521 328.806 75.99 326.077 74.003 324.146 76.746 323.747"></polygon>
            <polygon id="Path" fill="#CCCCCC" fill-rule="nonzero" points="94.316 321.263 95.54 323.747 98.276 324.146 96.296 326.077 96.765 328.806 94.316 327.518 91.867 328.806 92.329 326.077 90.348 324.146 93.091 323.747"></polygon>
            <polygon id="Path" fill="#CCCCCC" fill-rule="nonzero" points="110.654 321.263 111.879 323.747 114.622 324.146 112.642 326.077 113.103 328.806 110.654 327.518 108.205 328.806 108.674 326.077 106.694 324.146 109.43 323.747"></polygon>
            <path d="M65.312,162.802 C65.508,162.662 65.725,162.865 65.823,163.005 C65.877,163.086 65.922,163.172 65.956,163.263 C66.064,163.508 66.135,163.767 66.166,164.033 C66.166,164.138 66.348,164.145 66.341,164.033 C66.292,163.606 65.921,162.165 65.222,162.634 C65.131,162.697 65.222,162.851 65.312,162.788 L65.312,162.802 Z" id="Path" fill="#000000" fill-rule="nonzero"></path>
            <path d="M65.746,163.369 L66.026,163.453 C66.089,163.544 66.243,163.453 66.173,163.362 C66.103,163.271 65.809,163.026 65.62,163.243 C65.55,163.327 65.676,163.453 65.746,163.369 Z" id="Path" fill="#000000" fill-rule="nonzero"></path>
            <path d="M90.719,162.648 C90.02,162.166 89.649,163.607 89.6,164.048 C89.6,164.16 89.761,164.153 89.775,164.048 C89.81,163.754 90.111,162.453 90.628,162.816 C90.719,162.879 90.81,162.725 90.719,162.662 L90.719,162.648 Z" id="Path" fill="#000000" fill-rule="nonzero"></path>
            <path d="M90.314,163.23 C90.125,163.013 89.894,163.153 89.761,163.349 C89.628,163.544 89.852,163.53 89.915,163.439 L90.195,163.356 C90.265,163.439 90.39,163.314 90.314,163.23 Z" id="Path" fill="#000000" fill-rule="nonzero"></path>
            <path d="M72.583,162.375 C72.359,162.514 72.213,162.749 72.187,163.01 C72.161,163.272 72.258,163.531 72.45,163.711 C72.616,163.877 72.885,163.877 73.051,163.711 C73.261,163.459 73.1,163.159 73.009,162.893 C72.862,162.473 72.184,162.655 72.31,163.082 C72.367,163.225 72.414,163.372 72.45,163.522 L72.485,163.257 L72.443,163.32 L72.751,163.152 C72.883,163.271 72.925,163.285 72.876,163.152 C72.858,163.125 72.852,163.092 72.858,163.06 C72.865,163.029 72.884,163.001 72.911,162.984 C73.289,162.739 72.911,162.137 72.555,162.375 L72.583,162.375 Z" id="Path" fill="#000000" fill-rule="nonzero"></path>
            <path d="M83.155,162.375 C82.932,162.513 82.786,162.748 82.76,163.01 C82.733,163.272 82.831,163.531 83.022,163.711 C83.101,163.79 83.208,163.835 83.32,163.835 C83.431,163.835 83.538,163.79 83.617,163.711 C83.834,163.459 83.673,163.158 83.575,162.892 C83.428,162.473 82.757,162.654 82.876,163.081 C82.933,163.225 82.979,163.372 83.015,163.522 L83.078,163.228 L83.043,163.291 L83.344,163.123 C83.477,163.242 83.526,163.256 83.47,163.123 C83.436,163.067 83.451,162.994 83.505,162.955 C83.883,162.71 83.505,162.109 83.155,162.347 L83.155,162.375 Z" id="Path" fill="#000000" fill-rule="nonzero"></path>
            <path d="M77.544,162.809 C77.628,164.272 77.67,165.741 77.691,167.204 C77.691,167.397 77.847,167.554 78.04,167.554 C78.234,167.554 78.39,167.397 78.39,167.204 C78.39,165.741 78.327,164.272 78.243,162.809 C78.243,162.362 77.544,162.362 77.544,162.809 Z" id="Path" fill="#000000" fill-rule="nonzero"></path>
            <path d="M71.554,160.234 C72.039,160.016 72.58,159.957 73.1,160.066 C73.541,160.157 73.73,159.486 73.289,159.367 C72.582,159.215 71.845,159.299 71.19,159.605 C70.784,159.794 71.141,160.395 71.547,160.206 L71.554,160.234 Z" id="Path" fill="#000000" fill-rule="nonzero"></path>
            <path d="M84.674,159.632 C84.019,159.324 83.281,159.241 82.575,159.394 C82.134,159.485 82.316,160.157 82.757,160.094 C83.279,159.984 83.823,160.043 84.31,160.262 C84.716,160.451 85.073,159.849 84.66,159.66 L84.674,159.632 Z" id="Path" fill="#000000" fill-rule="nonzero"></path>
            <path d="M75.703,169.162 C76.556,169.582 77.496,169.79 78.446,169.771 C78.639,169.771 78.796,169.614 78.796,169.421 C78.796,169.228 78.639,169.071 78.446,169.071 C77.619,169.096 76.798,168.921 76.053,168.56 C75.654,168.364 75.297,168.966 75.703,169.162 Z" id="Path" fill="#000000" fill-rule="nonzero"></path>
            <path d="M67.468,152.845 C67.125,155.832 66.768,158.82 66.509,161.822 L67.16,161.647 C66.334,160.36 64.676,159.275 63.78,161.115 C62.814,163.11 63.899,165.314 65.62,166.405 C66.25,166.804 66.257,166.608 66.432,167.392 C66.524,168.102 66.571,168.817 66.572,169.533 C66.628,170.518 66.781,171.495 67.027,172.451 C67.549,174.215 68.614,175.77 70.071,176.894 C74.203,180.197 79.958,180.566 84.478,177.818 C86.208,176.869 87.596,175.4 88.445,173.619 C89.376,171.583 89.082,169.498 89.488,167.364 C89.684,166.307 90.887,166.153 91.587,165.265 C92.324,164.307 92.62,163.081 92.399,161.892 C91.923,159.415 89.887,159.835 88.753,161.605 L89.411,161.78 C89.18,158.778 88.795,155.79 88.452,152.803 C88.396,152.355 87.697,152.355 87.753,152.803 C88.095,155.79 88.452,158.778 88.711,161.78 C88.71,161.938 88.814,162.078 88.967,162.12 C89.119,162.163 89.281,162.098 89.362,161.962 C90.852,159.632 92.119,161.766 91.664,163.55 C91.322,164.799 90.337,165.769 89.082,166.09 C88.931,166.133 88.826,166.27 88.823,166.426 C88.725,169.141 88.76,172.143 87.158,174.473 C85.255,177.272 81.245,179.042 77.949,179.042 C74.654,179.042 70.777,177.293 68.853,174.62 C67.153,172.276 67.188,169.197 67.083,166.426 C67.078,166.272 66.977,166.138 66.831,166.09 C65.575,165.772 64.588,164.801 64.249,163.55 C63.794,161.766 65.061,159.632 66.551,161.962 C66.632,162.098 66.794,162.163 66.946,162.12 C67.098,162.078 67.203,161.938 67.202,161.78 C67.433,158.778 67.817,155.79 68.16,152.803 C68.216,152.355 67.517,152.355 67.461,152.803 L67.468,152.845 Z" id="Path" fill="#000000" fill-rule="nonzero"></path>
            <path d="M69.686,176.524 L69.532,181.051 C69.583,182.47 69.51,183.891 69.315,185.298 C68.734,187.95 64.823,189.349 62.535,190.273 C58.182,192.036 53.571,193.072 49.24,194.835 C45.706,196.284 41.697,198.138 40.759,202.189 C39.612,207.185 39.738,212.769 39.829,217.863 C39.829,218.311 40.528,218.311 40.528,217.863 C40.48,215.064 40.528,212.265 40.696,209.466 C40.85,206.842 40.815,203.806 41.739,201.315 C42.663,198.824 45.371,197.389 47.687,196.27 C50.003,195.208 52.393,194.314 54.838,193.597 C59.127,192.246 63.549,191.022 67.433,188.636 C68.776,187.796 69.791,186.977 70.085,185.347 C70.581,182.548 70.33,179.385 70.428,176.517 C70.428,176.069 69.728,176.069 69.728,176.517 L69.686,176.524 Z" id="Path" fill="#000000" fill-rule="nonzero"></path>
            <path d="M85.555,176.524 C85.646,179.323 85.555,182.261 85.87,185.06 C86.073,186.859 87.088,187.733 88.55,188.643 C92.406,191.029 96.828,192.253 101.145,193.604 C103.578,194.332 105.959,195.227 108.268,196.284 C110.584,197.396 113.299,198.782 114.223,201.329 C115.098,203.743 115.084,206.612 115.245,209.145 C115.426,212.046 115.487,214.955 115.426,217.87 C115.426,218.063 115.583,218.22 115.776,218.22 C115.97,218.22 116.126,218.063 116.126,217.87 C116.217,212.776 116.357,207.185 115.196,202.196 C114.258,198.145 110.256,196.291 106.715,194.842 C102.377,193.058 97.766,192.043 93.42,190.28 C91.356,189.448 87.536,188.125 86.724,185.83 C86.269,184.549 86.479,182.751 86.43,181.408 L86.269,176.51 C86.269,176.062 85.569,176.062 85.569,176.51 L85.555,176.524 Z" id="Path" fill="#000000" fill-rule="nonzero"></path>
            <path d="M71.379,177.377 C71.379,177.377 78.152,183.191 86.143,183.674 L85.94,177.741 C85.94,177.741 86.43,176.11 84.499,177.44 C82.568,178.769 79.643,179.693 77.97,179.462 C76.298,179.231 71.379,177.377 71.379,177.377 Z" id="Path" fill="#000000" fill-rule="nonzero"></path>
            <rect id="Rectangle" fill="#CCCCCC" fill-rule="nonzero" x="48.687" y="348.971" width="58.5666" height="15.8067" rx="1.6779"></rect>
            <polygon id="Path" fill="#F4F4F4" fill-rule="nonzero" points="394.146 83.9014 549.113 83.9014 549.113 392.247 394.146 392.247"></polygon>
            <circle id="Oval" fill="#000000" fill-rule="nonzero" cx="471.633" cy="180.064" r="56.7543"></circle>
            <circle id="Oval" fill="#FFFFFF" fill-rule="nonzero" cx="471.633" cy="175.746" r="56.7543"></circle>
            <polygon id="Path" stroke="#000000" stroke-width="0.714" points="394.146 83.9023 549.113 83.9023 549.113 392.248 394.146 392.248"></polygon>
            <circle id="Oval" stroke="#000000" stroke-width="0.714" cx="471.633" cy="175.746" r="56.7543"></circle>
            <line x1="440.404" y1="263.163" x2="502.861" y2="263.163" id="Path" stroke="#000000" stroke-width="0.714"></line>
            <line x1="440.404" y1="275.777" x2="502.861" y2="275.777" id="Path" stroke="#000000" stroke-width="0.714"></line>
            <line x1="440.404" y1="288.401" x2="502.861" y2="288.401" id="Path" stroke="#000000" stroke-width="0.714"></line>
            <line x1="448.108" y1="301.018" x2="495.164" y2="301.018" id="Path" stroke="#000000" stroke-width="0.714"></line>
            <polygon id="Path" fill="#000000" fill-rule="nonzero" points="438.949 321.261 440.173 323.745 442.909 324.144 440.929 326.075 441.398 328.804 438.949 327.516 436.5 328.804 436.962 326.075 434.982 324.144 437.724 323.745"></polygon>
            <polygon id="Path" fill="#000000" fill-rule="nonzero" points="455.287 321.261 456.519 323.745 459.255 324.144 457.275 326.075 457.743 328.804 455.287 327.516 452.838 328.804 453.307 326.075 451.327 324.144 454.063 323.745"></polygon>
            <polygon id="Path" fill="#000000" fill-rule="nonzero" points="471.633 321.261 472.857 323.745 475.6 324.144 473.613 326.075 474.082 328.804 471.633 327.516 469.184 328.804 469.653 326.075 467.672 324.144 470.408 323.745"></polygon>
            <polygon id="Path" fill="#CCCCCC" fill-rule="nonzero" points="487.978 321.261 489.203 323.745 491.939 324.144 489.959 326.075 490.427 328.804 487.978 327.516 485.529 328.804 485.998 326.075 484.011 324.144 486.754 323.745"></polygon>
            <polygon id="Path" fill="#CCCCCC" fill-rule="nonzero" points="504.317 321.261 505.541 323.745 508.284 324.144 506.304 326.075 506.773 328.804 504.317 327.516 501.868 328.804 502.337 326.075 500.356 324.144 503.092 323.745"></polygon>
            <path d="M458.975,162.802 C459.171,162.662 459.388,162.865 459.486,163.005 C459.539,163.087 459.586,163.174 459.626,163.263 C459.728,163.509 459.797,163.768 459.829,164.033 C459.829,164.138 460.018,164.145 460.004,164.033 C459.955,163.606 459.584,162.165 458.884,162.634 C458.793,162.697 458.884,162.851 458.975,162.788 L458.975,162.802 Z" id="Path" fill="#000000" fill-rule="nonzero"></path>
            <path d="M459.409,163.369 L459.689,163.453 C459.752,163.544 459.906,163.453 459.843,163.362 C459.78,163.271 459.472,163.026 459.29,163.243 C459.213,163.327 459.339,163.453 459.409,163.369 Z" id="Path" fill="#000000" fill-rule="nonzero"></path>
            <path d="M484.382,162.648 C483.682,162.166 483.311,163.607 483.262,164.048 C483.262,164.16 483.43,164.153 483.437,164.048 C483.472,163.754 483.773,162.453 484.291,162.816 C484.389,162.879 484.473,162.725 484.382,162.662 L484.382,162.648 Z" id="Path" fill="#000000" fill-rule="nonzero"></path>
            <path d="M484.018,163.23 C483.829,163.013 483.591,163.153 483.465,163.349 C483.339,163.544 483.549,163.53 483.612,163.439 L483.892,163.356 C483.962,163.439 484.088,163.314 484.018,163.23 Z" id="Path" fill="#000000" fill-rule="nonzero"></path>
            <path d="M466.28,162.375 C466.055,162.513 465.908,162.747 465.88,163.009 C465.853,163.271 465.949,163.53 466.14,163.711 C466.307,163.877 466.575,163.877 466.742,163.711 C466.952,163.459 466.791,163.159 466.7,162.893 C466.553,162.473 465.874,162.655 466,163.082 C466.057,163.225 466.104,163.372 466.14,163.522 L466.14,163.257 L466.14,163.32 L466.441,163.152 C466.574,163.271 466.616,163.285 466.567,163.152 C466.521,163.105 466.521,163.03 466.567,162.984 C466.945,162.739 466.567,162.137 466.217,162.375 L466.28,162.375 Z" id="Path" fill="#000000" fill-rule="nonzero"></path>
            <path d="M476.818,162.375 C476.594,162.514 476.448,162.749 476.422,163.01 C476.396,163.272 476.493,163.531 476.685,163.711 C476.764,163.79 476.871,163.835 476.982,163.835 C477.094,163.835 477.201,163.79 477.28,163.711 C477.497,163.459 477.336,163.159 477.28,162.893 C477.133,162.473 476.454,162.655 476.58,163.082 C476.64,163.224 476.687,163.371 476.72,163.522 L476.755,163.257 L476.72,163.32 L477.021,163.152 C477.161,163.271 477.203,163.285 477.154,163.152 C477.105,163.019 477.154,163.04 477.154,162.984 C477.539,162.739 477.154,162.137 476.804,162.375 L476.818,162.375 Z" id="Path" fill="#000000" fill-rule="nonzero"></path>
            <path d="M471.213,162.809 C471.29,164.272 471.339,165.741 471.36,167.204 C471.36,167.397 471.517,167.554 471.71,167.554 C471.903,167.554 472.06,167.397 472.06,167.204 C472.06,165.741 471.99,164.272 471.913,162.809 C471.913,162.362 471.213,162.362 471.213,162.809 Z" id="Path" fill="#000000" fill-rule="nonzero"></path>
            <path d="M465.217,160.233 C465.703,160.014 466.247,159.955 466.77,160.066 C467.204,160.156 467.393,159.485 466.952,159.366 C466.245,159.213 465.507,159.296 464.853,159.604 C464.44,159.793 464.797,160.394 465.203,160.205 L465.217,160.233 Z" id="Path" fill="#000000" fill-rule="nonzero"></path>
            <path d="M478.343,159.633 C477.688,159.327 476.951,159.243 476.244,159.395 C475.803,159.486 475.992,160.158 476.433,160.095 C476.953,159.985 477.495,160.044 477.979,160.263 C478.385,160.452 478.742,159.85 478.336,159.661 L478.343,159.633 Z" id="Path" fill="#000000" fill-rule="nonzero"></path>
            <path d="M469.366,169.162 C470.218,169.582 471.159,169.79 472.109,169.771 C472.302,169.771 472.459,169.614 472.459,169.421 C472.459,169.228 472.302,169.071 472.109,169.071 C471.284,169.096 470.465,168.92 469.723,168.56 C469.317,168.364 468.96,168.966 469.366,169.162 Z" id="Path" fill="#000000" fill-rule="nonzero"></path>
            <path d="M461.13,152.846 C460.787,155.834 460.43,158.821 460.171,161.823 L460.829,161.648 C460.004,160.361 458.338,159.276 457.443,161.116 C456.477,163.111 457.562,165.315 459.283,166.406 C459.913,166.805 459.927,166.609 460.095,167.393 C460.184,168.101 460.229,168.814 460.227,169.527 C460.287,170.512 460.44,171.489 460.682,172.445 C461.205,174.211 462.273,175.766 463.733,176.888 C467.869,180.201 473.636,180.57 478.161,177.812 C479.888,176.859 481.275,175.392 482.129,173.613 C483.059,171.577 482.758,169.492 483.164,167.358 C483.367,166.301 484.564,166.147 485.263,165.259 C486.001,164.301 486.296,163.075 486.075,161.886 C485.599,159.409 483.57,159.829 482.437,161.599 L483.087,161.774 C482.856,158.772 482.472,155.785 482.129,152.797 C482.073,152.349 481.373,152.349 481.429,152.797 C481.772,155.785 482.129,158.772 482.388,161.774 C482.396,161.927 482.501,162.057 482.648,162.098 C482.795,162.139 482.952,162.082 483.038,161.956 C484.529,159.626 485.795,161.76 485.34,163.545 C485.001,164.795 484.014,165.766 482.758,166.084 C482.609,166.128 482.507,166.265 482.507,166.42 C482.402,169.135 482.437,172.137 480.834,174.467 C478.931,177.266 474.929,179.036 471.626,179.036 C468.323,179.036 464.461,177.287 462.53,174.614 C460.829,172.27 460.871,169.191 460.766,166.42 C460.763,166.264 460.658,166.127 460.507,166.084 C459.253,165.763 458.267,164.794 457.925,163.545 C457.471,161.76 458.737,159.626 460.227,161.956 C460.308,162.092 460.47,162.157 460.623,162.115 C460.775,162.072 460.88,161.932 460.878,161.774 C461.109,158.772 461.494,155.785 461.837,152.797 C461.893,152.349 461.193,152.349 461.137,152.797 L461.13,152.846 Z" id="Path" fill="#000000" fill-rule="nonzero"></path>
            <path d="M464.048,177.224 C463.997,178.689 463.943,180.151 463.887,181.611 C463.831,182.906 464.02,184.599 463.593,185.809 C462.795,188.105 458.947,189.413 456.897,190.225 C452.489,191.96 447.8,192.94 443.413,194.647 C439.957,195.983 435.674,197.775 434.548,201.644 C433.848,204.016 433.848,206.675 433.666,209.124 C433.484,212.026 433.424,214.934 433.484,217.85 C433.484,218.043 433.641,218.199 433.834,218.199 C434.027,218.199 434.184,218.043 434.184,217.85 C434.128,214.939 434.184,212.028 434.366,209.124 C434.534,206.472 434.457,203.309 435.59,200.86 C436.724,198.411 439.39,197.173 441.664,196.13 C444.005,195.111 446.413,194.253 448.871,193.562 C453.104,192.282 457.478,191.134 461.326,188.881 C462.809,188.014 464.125,187.139 464.405,185.341 C464.839,182.731 464.657,179.855 464.748,177.21 C464.748,176.762 464.048,176.762 464.048,177.21 L464.048,177.224 Z" id="Path" fill="#000000" fill-rule="nonzero"></path>
            <path d="M478.518,177.223 C478.609,179.861 478.399,182.758 478.861,185.354 C479.169,187.068 480.26,187.901 481.716,188.762 C485.613,191.099 490.077,192.26 494.395,193.576 C496.762,194.248 499.085,195.069 501.35,196.032 C503.526,197.004 506.248,198.271 507.473,200.419 C508.872,202.889 508.732,206.388 508.872,209.137 C509.061,212.041 509.11,214.952 509.061,217.863 C509.061,218.311 509.761,218.311 509.761,217.863 C509.81,214.952 509.761,212.041 509.572,209.137 C509.526,206.713 509.254,204.298 508.76,201.923 C507.724,197.879 503.393,196.039 499.832,194.66 C495.493,192.988 490.931,192.015 486.6,190.336 C484.501,189.524 480.463,188.174 479.645,185.823 C479.204,184.563 479.407,182.933 479.358,181.624 C479.302,180.162 479.239,178.7 479.19,177.237 C479.19,176.789 478.49,176.789 478.49,177.237 L478.518,177.223 Z" id="Path" fill="#000000" fill-rule="nonzero"></path>
            <path d="M465.042,177.377 C465.042,177.377 471.815,183.192 479.169,183.674 L478.973,177.258 C478.973,177.258 480.092,176.11 478.161,177.44 C476.23,178.769 473.305,179.693 471.633,179.462 C469.961,179.231 465.042,177.377 465.042,177.377 L465.042,177.377 Z" id="Path" fill="#000000" fill-rule="nonzero"></path>
            <path d="M458.02,63.8028 C465.54,56.2827 477.733,56.2827 485.253,63.8028 C492.773,71.3228 492.773,83.5152 485.253,91.035 C477.733,98.555 465.54,98.555 458.02,91.035 C450.5,83.5152 450.5,71.3228 458.02,63.8028 Z" id="Path" fill="#9F87DF" fill-rule="nonzero"></path>
            <rect id="Rectangle" fill="#CCCCCC" fill-rule="nonzero" x="442.35" y="348.971" width="58.5666" height="15.8067" rx="1.6779"></rect>
            <polygon id="Path" fill="#E9E9E9" fill-rule="nonzero" points="180.598 41.8623 368.403 41.8623 368.403 415.534 180.598 415.534"></polygon>
            <circle id="Oval" fill="#000000" fill-rule="nonzero" cx="274.494" cy="158.401" r="68.7755"></circle>
            <circle id="Oval" fill="#FFFFFF" fill-rule="nonzero" cx="274.494" cy="153.174" r="68.7755"></circle>
            <polygon id="Path" stroke="#000000" stroke-width="0.714" points="180.598 41.8623 368.403 41.8623 368.403 415.534 180.598 415.534"></polygon>
            <circle id="Oval" stroke="#000000" stroke-width="0.714" cx="274.494" cy="153.174" r="68.7755"></circle>
            <line x1="236.646" y1="259.111" x2="312.342" y2="259.111" id="Path" stroke="#000000" stroke-width="0.714"></line>
            <line x1="236.646" y1="274.402" x2="312.342" y2="274.402" id="Path" stroke="#000000" stroke-width="0.714"></line>
            <line x1="236.646" y1="289.697" x2="312.342" y2="289.697" id="Path" stroke="#000000" stroke-width="0.714"></line>
            <line x1="245.98" y1="304.986" x2="303.007" y2="304.986" id="Path" stroke="#000000" stroke-width="0.714"></line>
            <polygon id="Path" fill="#000000" fill-rule="nonzero" points="234.883 329.518 236.366 332.526 239.69 333.009 237.283 335.353 237.849 338.656 234.883 337.096 231.916 338.656 232.483 335.353 230.083 333.009 233.399 332.526"></polygon>
            <polygon id="Path" fill="#000000" fill-rule="nonzero" points="254.692 329.518 256.175 332.526 259.492 333.009 257.092 335.353 257.659 338.656 254.692 337.096 251.725 338.656 252.292 335.353 249.885 333.009 253.208 332.526"></polygon>
            <polygon id="Path" fill="#000000" fill-rule="nonzero" points="274.494 329.518 275.984 332.526 279.301 333.009 276.901 335.353 277.467 338.656 274.494 337.096 271.527 338.656 272.094 335.353 269.694 333.009 273.01 332.526"></polygon>
            <polygon id="Path" fill="#000000" fill-rule="nonzero" points="294.303 329.518 295.786 332.526 299.103 333.009 296.703 335.353 297.27 338.656 294.303 337.096 291.336 338.656 291.903 335.353 289.496 333.009 292.819 332.526"></polygon>
            <polygon id="Path" fill="#000000" fill-rule="nonzero" points="314.105 329.518 315.595 332.526 318.912 333.009 316.512 335.353 317.079 338.656 314.105 337.096 311.138 338.656 311.705 335.353 309.305 333.009 312.621 332.526"></polygon>
            <path d="M259.142,137.465 C259.786,136.996 260.164,138.606 260.206,138.976 C260.206,139.088 260.394,139.088 260.38,138.976 C260.331,138.508 259.877,136.716 259.058,137.311 C258.967,137.381 259.058,137.535 259.142,137.465 Z" id="Path" fill="#000000" fill-rule="nonzero"></path>
            <path d="M259.688,138.137 L260.038,138.263 C260.1,138.354 260.254,138.263 260.191,138.172 C260.031,137.941 259.737,137.773 259.534,138.053 C259.464,138.144 259.618,138.228 259.688,138.137 Z" id="Path" fill="#000000" fill-rule="nonzero"></path>
            <path d="M289.936,137.339 C289.118,136.745 288.663,138.536 288.614,139.005 C288.614,139.117 288.775,139.117 288.789,139.005 C288.789,138.627 289.209,137.032 289.846,137.493 C289.936,137.563 290.027,137.409 289.936,137.339 Z" id="Path" fill="#000000" fill-rule="nonzero"></path>
            <path d="M289.496,138.039 C289.286,137.759 288.999,137.927 288.838,138.158 C288.775,138.256 288.929,138.34 288.992,138.249 L289.342,138.123 C289.412,138.214 289.559,138.123 289.496,138.039 Z" id="Path" fill="#000000" fill-rule="nonzero"></path>
            <path d="M268.042,137.031 C267.784,137.189 267.617,137.462 267.594,137.763 C267.57,138.065 267.693,138.36 267.923,138.557 C268.019,138.63 268.14,138.661 268.259,138.642 C268.378,138.624 268.484,138.557 268.553,138.459 C268.735,138.186 268.553,137.857 268.448,137.584 C268.301,137.157 267.623,137.339 267.748,137.766 C267.821,137.919 267.87,138.081 267.895,138.249 L268,137.997 L267.958,138.046 L268.21,137.948 C268.343,138.06 268.364,138.032 268.266,137.871 C268.232,137.78 268.275,137.678 268.364,137.64 C268.532,137.543 268.59,137.329 268.494,137.161 C268.397,136.992 268.182,136.935 268.014,137.031 L268.042,137.031 Z" id="Path" fill="#000000" fill-rule="nonzero"></path>
            <path d="M280.812,137.032 C280.555,137.191 280.389,137.464 280.367,137.766 C280.345,138.068 280.469,138.362 280.7,138.557 C280.795,138.63 280.915,138.661 281.033,138.642 C281.151,138.624 281.256,138.558 281.323,138.459 C281.505,138.186 281.323,137.858 281.225,137.585 C281.071,137.158 280.399,137.34 280.525,137.767 C280.603,137.918 280.655,138.081 280.679,138.249 L280.784,137.998 L280.742,138.046 L280.987,137.949 C281.127,138.06 281.148,138.032 281.05,137.872 C281.03,137.828 281.029,137.778 281.047,137.734 C281.066,137.69 281.103,137.656 281.148,137.641 C281.316,137.542 281.373,137.326 281.274,137.158 C281.175,136.99 280.959,136.933 280.791,137.032 L280.812,137.032 Z" id="Path" fill="#000000" fill-rule="nonzero"></path>
            <path d="M274.06,137.493 C274.149,139.27 274.207,141.045 274.235,142.818 C274.235,143.011 274.392,143.168 274.585,143.168 C274.778,143.168 274.935,143.011 274.935,142.818 C274.907,141.05 274.848,139.275 274.76,137.493 C274.76,137.045 274.06,137.045 274.06,137.493 Z" id="Path" fill="#000000" fill-rule="nonzero"></path>
            <path d="M266.685,134.31 C267.29,134.035 267.966,133.962 268.616,134.1 C269.057,134.191 269.246,133.519 268.805,133.4 C267.971,133.222 267.101,133.32 266.328,133.68 C265.922,133.869 266.279,134.471 266.685,134.282 L266.685,134.31 Z" id="Path" fill="#000000" fill-rule="nonzero"></path>
            <path d="M282.589,133.708 C281.816,133.348 280.947,133.25 280.112,133.429 C279.672,133.519 279.861,134.191 280.294,134.128 C280.946,133.99 281.625,134.063 282.233,134.338 C282.638,134.527 282.995,133.925 282.589,133.736 L282.589,133.708 Z" id="Path" fill="#000000" fill-rule="nonzero"></path>
            <path d="M271.786,145.135 C272.812,145.624 273.939,145.864 275.075,145.835 C275.522,145.835 275.522,145.135 275.075,145.135 C274.061,145.157 273.056,144.939 272.143,144.498 C271.737,144.302 271.38,144.911 271.786,145.107 L271.786,145.135 Z" id="Path" fill="#000000" fill-rule="nonzero"></path>
            <path d="M261.843,125.445 C261.423,129.069 260.961,132.694 260.681,136.332 L261.332,136.157 C260.317,134.485 258.183,133.358 257.26,135.744 C256.833,136.937 256.875,138.248 257.379,139.411 C257.619,139.969 257.958,140.478 258.379,140.915 C258.911,141.461 259.688,141.615 260.212,142.105 C260.975,142.805 260.688,144.981 260.793,146.03 C260.87,147.233 261.081,148.423 261.423,149.578 C262.097,151.546 263.333,153.273 264.978,154.546 C267.336,156.358 270.126,157.523 273.073,157.926 C276.271,158.317 279.567,157.226 282.331,155.672 C284.323,154.589 285.952,152.941 287.012,150.935 C288.096,148.745 288.222,146.275 288.362,143.882 C288.418,142.959 288.236,142.483 289.062,142 C289.799,141.641 290.456,141.136 290.993,140.517 C291.781,139.508 292.151,138.236 292.029,136.962 C291.938,135.926 291.462,134.394 290.209,134.296 C289.097,134.205 288.201,135.325 287.69,136.157 L288.341,136.332 C288.068,132.694 287.599,129.069 287.18,125.445 C287.131,125.004 286.431,124.997 286.48,125.445 C286.9,129.069 287.369,132.694 287.641,136.332 C287.649,136.488 287.756,136.621 287.906,136.661 C288.057,136.701 288.216,136.639 288.299,136.507 C288.81,135.667 289.895,134.275 291,135.723 C291.469,136.332 291.392,137.48 291.266,138.158 C290.955,139.839 289.701,141.189 288.047,141.622 C287.895,141.663 287.789,141.801 287.788,141.958 C287.662,145.282 287.704,148.955 285.689,151.803 C283.345,155.155 278.51,157.31 274.494,157.317 C270.477,157.324 265.642,155.148 263.298,151.803 C261.311,148.962 261.353,145.282 261.199,141.958 C261.198,141.801 261.092,141.663 260.94,141.622 C259.277,141.205 258.016,139.848 257.721,138.158 C257.63,137.564 257.498,136.192 257.98,135.723 L259.471,135.192 C259.989,135.511 260.41,135.966 260.688,136.507 C260.768,136.642 260.928,136.707 261.08,136.667 C261.232,136.626 261.337,136.489 261.339,136.332 C261.619,132.694 262.081,129.069 262.501,125.445 C262.557,124.997 261.857,125.004 261.801,125.445 L261.843,125.445 Z" id="Path" fill="#000000" fill-rule="nonzero"></path>
            <path d="M265.23,154.832 C265.174,156.462 265.111,158.085 265.048,159.73 C264.985,161.374 265.153,163.354 264.775,165.027 C264.11,168.021 259.345,169.701 256.791,170.729 C251.564,172.828 246.022,174.025 240.76,176.019 C236.457,177.643 230.964,179.847 229.607,184.682 C228.823,187.481 228.76,190.531 228.578,193.4 C228.34,197.004 228.27,200.621 228.333,204.239 C228.333,204.432 228.49,204.589 228.683,204.589 C228.876,204.589 229.033,204.432 229.033,204.239 C228.97,200.621 229.033,197.011 229.278,193.4 C229.481,190.209 229.383,186.403 230.803,183.436 C232.133,180.707 235.338,179.154 237.961,177.936 C240.66,176.738 243.438,175.726 246.274,174.907 C251.445,173.318 256.77,171.94 261.521,169.239 C263.515,168.105 265.244,166.979 265.544,164.565 C265.95,161.388 265.817,158.043 265.929,154.846 C265.929,154.398 265.23,154.398 265.23,154.846 L265.23,154.832 Z" id="Path" fill="#000000" fill-rule="nonzero"></path>
            <path d="M283.058,154.833 C283.17,158.031 283.058,161.376 283.443,164.552 C283.751,166.973 285.479,168.093 287.467,169.226 C292.204,171.927 297.55,173.306 302.72,174.894 C305.557,175.715 308.334,176.727 311.033,177.924 C313.657,179.142 316.862,180.723 318.184,183.424 C319.584,186.363 319.507,190.19 319.717,193.388 C319.955,196.991 320.025,200.609 319.955,204.226 C319.955,204.42 320.111,204.576 320.304,204.576 C320.498,204.576 320.654,204.42 320.654,204.226 C320.724,200.609 320.654,196.998 320.416,193.388 C320.227,190.519 320.172,187.447 319.388,184.669 C317.988,179.834 312.531,177.63 308.234,176.007 C302.965,174.013 297.431,172.823 292.204,170.717 C289.636,169.681 284.892,168.037 284.213,165.014 C283.842,163.342 284.01,161.425 283.94,159.717 C283.87,158.01 283.814,156.464 283.758,154.819 C283.758,154.371 283.058,154.371 283.058,154.819 L283.058,154.833 Z" id="Path" fill="#000000" fill-rule="nonzero"></path>
            <path d="M265.831,155.148 C265.831,155.148 274.046,162.201 283.73,162.747 L283.485,155.532 C283.485,155.532 284.073,153.552 281.736,155.162 C279.399,156.771 275.844,157.897 273.822,157.611 C271.8,157.324 265.831,155.148 265.831,155.148 L265.831,155.148 Z" id="Path" fill="#000000" fill-rule="nonzero"></path>
            <rect id="Rectangle" fill="#CCCCCC" fill-rule="nonzero" x="239.011" y="363.097" width="70.9726" height="19.1513" rx="2.0349"></rect>
            <path d="M265.663,130.986 C270.099,129.95 276.803,127.69 279.35,123.184 C279.35,123.184 278.65,129.845 276.845,131.763 C279.742,130.737 281.745,128.078 281.932,125.01 C281.932,125.01 285.171,134.149 287.956,136.304 L290.055,134.603 C290.055,134.603 293.302,119.762 283.387,118.398 C283.387,118.398 275.69,111.1 264.817,116.999 C252.746,123.583 258.89,134.575 258.89,134.575 C258.89,134.575 260.919,135.485 260.772,136.08 L261.395,136.038 C261.5,133.578 263.255,131.5 265.663,130.986 Z" id="Path" fill="#000000" fill-rule="nonzero"></path>
            <path d="M259.1,122.093 C259.1,122.093 254.797,127.362 252.145,142.182 C249.549,156.701 245.847,159.675 244.448,164.335 C243.048,168.995 244.063,173.186 248.534,173.83 C248.534,173.83 244.448,180.177 252.655,183.136 C252.655,183.136 262.347,187.013 264.285,175.957 C265.443,169.731 265.871,163.39 265.558,157.065 C265.558,157.065 266.104,154.672 264.509,153.643 C262.913,152.615 261.759,150.215 261.486,148.577 C261.213,146.94 260.905,142.846 260.905,142.846 C260.905,142.846 261.115,142.189 260.275,141.762 C259.436,141.335 256.777,139.383 257.33,137.333 C257.882,135.282 258.771,134.492 259.59,134.037 C260.408,133.582 260.289,131.133 260.289,131.133" id="Path" fill="#000000" fill-rule="nonzero"></path>
            <path d="M286.424,119.413 C286.424,119.413 292.288,122.093 293.197,133.275 C294.023,143.344 297.172,156.806 299.103,161.963 C301.034,167.12 304.757,178.483 295.457,180.814 C283.408,183.822 282.653,165.916 282.408,160.445 C282.163,154.973 283.408,154.847 283.408,154.847 C283.938,154.502 284.437,154.111 284.899,153.678 L286.417,151.698 C286.417,151.698 288.082,147.346 287.893,145.534 C287.796,144.336 287.867,143.13 288.103,141.951 C288.103,141.951 290.517,141.706 291.014,139.852 C291.511,137.998 291.882,137.053 291.427,135.94 C290.972,134.828 288.369,134.282 288.166,135.318 C287.963,136.353 288.313,130.679 288.313,130.679" id="Path" fill="#000000" fill-rule="nonzero"></path>
            <path d="M460.521,161.829 C460.521,161.829 460.241,155.615 463.271,154.419 C464.615,153.88 469.128,153.481 472.053,153.677 C473.168,153.74 474.155,152.958 474.348,151.858 L474.712,149.808 L475.327,154.209 C475.327,154.209 479.526,154.552 480.925,156.189 C482.325,157.826 482.661,161.087 482.661,161.087 L484.473,160.429 C484.473,160.429 486.719,152.6 482.556,148.149 C477.105,142.328 466.462,141.152 460.64,147.142 C458.583,149.241 457.701,152.257 457.499,155.133 C457.436,156.007 457.114,160.129 458.345,160.541 C459.109,160.901 459.838,161.333 460.521,161.829 Z" id="Path" fill="#000000" fill-rule="nonzero"></path>
            <path d="M482.576,148.143 C482.576,148.143 480.183,137.773 487.705,135.492 C495.227,133.211 501.84,142.49 498.425,152.544 C497.715,154.412 497.548,156.442 497.942,158.401 C498.411,160.332 499.797,161.774 500.881,163.369 C502.616,165.815 503.28,168.862 502.721,171.808 C502.351,173.809 501.322,175.796 499.426,176.51 C498.774,176.736 498.327,177.339 498.299,178.028 L498.299,178.126 C497.984,181.891 493.401,183.283 490.525,181.401 C486.39,178.693 486.061,172.836 486.607,168.428 C486.845,166.483 487.307,164.573 487.544,162.62 C487.792,160.194 487.85,157.751 487.719,155.315 C487.621,153.307 487.139,147.786 483.843,149.935" id="Path" fill="#000000" fill-rule="nonzero"></path>
            <path d="M66.859,161.83 C66.859,161.83 67.195,151.747 71.673,152.425 C76.151,153.104 82.924,152.6 85.052,150.774 C85.052,150.774 86.08,153.398 88.228,153.755 L89.082,161.83 C89.082,161.83 89.551,160.857 90.188,160.647 L90.824,160.43 C90.824,160.43 93.56,148.346 86.871,147.282 C86.871,147.282 79.503,139.396 72.289,143.196 C65.075,146.995 64.354,151.914 64.459,154.65 C64.557,156.588 64.774,158.519 65.11,160.43 L66.859,161.83 Z" id="Path" fill="#000000" fill-rule="nonzero"></path>
            <path d="M62.877,191.308 C67.685,194.751 73.373,197.298 79.391,197.256 C84.739,197.321 89.85,195.049 93.385,191.035 C93.672,190.699 93.182,190.195 92.888,190.545 C89.36,194.544 84.224,196.75 78.894,196.556 C73.177,196.43 67.838,193.981 63.262,190.699 C62.898,190.44 62.563,191.042 62.912,191.308 L62.877,191.308 Z" id="Path" fill="#000000" fill-rule="nonzero"></path>
            <path d="M241.418,176.467 C242.167,181.736 245.833,185.977 249.78,189.314 C253.916,192.798 258.749,195.355 263.956,196.815 C275.595,199.971 288.026,198.073 298.193,191.588 C300.583,190.06 302.68,188.117 304.386,185.851 C306.366,183.129 307.493,179.987 308.584,176.824 C308.724,176.397 308.052,176.216 307.884,176.635 C306.03,182.17 303.616,186.872 298.788,190.35 C294.253,193.454 289.131,195.597 283.737,196.647 C272.94,198.928 261.395,196.962 252.397,190.427 C247.688,187.012 242.971,182.226 242.118,176.251 C242.055,175.803 241.383,175.992 241.418,176.432 L241.418,176.467 Z" id="Path" fill="#000000" fill-rule="nonzero"></path>
            <path d="M459.395,190.126 C462.544,195.406 466.907,199.858 472.123,203.113 C472.259,203.193 472.432,203.17 472.542,203.057 C476.678,198.935 481.541,194.954 483.738,189.363 C483.899,188.943 483.227,188.761 483.038,189.174 C481.839,191.951 480.13,194.479 478,196.626 C477.007,197.711 475.957,198.725 474.901,199.782 L473.774,200.874 C473.487,201.153 472.752,202.161 472.375,202.238 C471.5,202.427 469.653,200.629 468.981,200.09 C467.813,199.162 466.706,198.162 465.664,197.095 C463.517,194.868 461.626,192.409 460.024,189.762 C459.787,189.384 459.185,189.762 459.416,190.119 L459.395,190.126 Z" id="Path" fill="#000000" fill-rule="nonzero"></path>
            <path d="M64.774,230.289 C63.332,221.095 69.161,211.173 78.257,208.598 C83.701,207.051 88.753,209.703 91.552,214.419 C94.54,219.38 94.393,225.489 93.987,231.066 C93.987,231.178 94.148,231.178 94.162,231.066 C94.596,225.132 94.694,218.569 91.153,213.468 C88.354,209.409 83.757,207.079 78.817,208.269 C69.287,210.564 63.115,220.864 64.592,230.359 C64.592,230.471 64.781,230.422 64.767,230.31 L64.774,230.289 Z" id="Path" fill="#000000" fill-rule="nonzero"></path>
            <path d="M68.482,231.711 C68.228,227.691 69.037,223.675 70.826,220.067 C71.672,218.272 72.831,216.642 74.248,215.253 C76.151,213.504 78.481,213.112 80.979,212.916 C90.076,212.216 90.642,225.588 90.488,231.92 C90.488,232.032 90.656,232.032 90.663,231.92 C90.817,225.518 90.216,212.027 80.979,212.741 C78.88,212.902 76.781,213.154 74.99,214.42 C73.504,215.578 72.274,217.031 71.379,218.689 C69.087,222.629 68.018,227.161 68.307,231.711 C68.307,231.822 68.489,231.822 68.482,231.711 Z" id="Path" fill="#000000" fill-rule="nonzero"></path>
            <path d="M72.331,232.838 C71.833,229.845 72.235,226.772 73.485,224.008 C74.584,221.573 76.424,218.739 79.132,217.962 C86.241,215.919 87.109,228.878 86.409,233.09 C86.409,233.202 86.556,233.251 86.577,233.139 C87.155,229.268 86.717,225.314 85.304,221.664 C84.415,219.425 82.47,217.332 79.86,217.626 C76.9,217.948 74.787,220.964 73.562,223.399 C72.108,226.335 71.618,229.656 72.163,232.887 C72.163,232.999 72.352,232.95 72.331,232.838 Z" id="Path" fill="#000000" fill-rule="nonzero"></path>
            <path d="M75.416,232.607 C75.493,230.41 76.116,224.273 79.321,224.21 C82.889,224.147 82.952,230.809 82.708,233.055 C82.708,233.167 82.875,233.167 82.882,233.055 C83.141,230.704 83.029,224 79.321,224.035 C75.941,224.07 75.318,230.333 75.242,232.607 C75.242,232.719 75.409,232.719 75.416,232.607 Z" id="Path" fill="#000000" fill-rule="nonzero"></path>
            <path d="M78.362,230.402 C78.636,230.122 78.923,229.856 79.223,229.605 C79.377,229.493 79.384,229.381 79.573,229.472 C79.762,229.563 79.692,230.123 79.713,230.214 C79.862,231.156 79.949,232.107 79.972,233.061 C79.983,233.1 80.018,233.127 80.059,233.127 C80.1,233.127 80.135,233.1 80.147,233.061 C80.113,231.739 79.956,230.422 79.678,229.129 C79.669,229.099 79.645,229.076 79.616,229.068 C79.586,229.059 79.554,229.067 79.531,229.087 L78.236,230.276 C78.152,230.353 78.278,230.479 78.362,230.402 Z" id="Path" fill="#000000" fill-rule="nonzero"></path>
            <path d="M229.432,202.106 C231.734,201.323 233.28,204.513 233.812,206.193 C234.292,207.783 234.35,209.471 233.98,211.091 C233.968,211.137 233.997,211.184 234.043,211.196 C234.089,211.207 234.136,211.179 234.148,211.133 C234.661,208.939 234.383,206.635 233.364,204.625 C232.623,203.177 231.265,201.281 229.383,201.91 C229.278,201.945 229.32,202.113 229.432,202.078 L229.432,202.106 Z" id="Path" fill="#000000" fill-rule="nonzero"></path>
            <path d="M234.162,179.932 C233.35,185.243 241.341,187.272 245.05,185.404 C245.155,185.355 245.05,185.201 244.966,185.25 C242.977,186.228 240.661,186.295 238.619,185.432 C236.429,184.564 233.924,182.633 234.33,179.974 C234.33,179.869 234.176,179.82 234.162,179.932 Z" id="Path" fill="#000000" fill-rule="nonzero"></path>
            <path d="M244.567,210.208 C242.811,207.836 242.985,204.345 245.434,202.511 C247.883,200.678 251.291,201.35 253.446,203.491 C255.301,205.331 255.503,209.572 254.146,211.748 C252.585,214.027 249.522,214.701 247.149,213.287 C247.051,213.231 246.96,213.385 247.058,213.441 C249.376,214.822 252.356,214.292 254.055,212.196 C255.741,209.998 255.706,205.275 253.6,203.372 C251.284,201.273 248.051,200.314 245.358,202.351 C242.839,204.247 242.636,207.857 244.448,210.292 C244.511,210.383 244.665,210.292 244.595,210.208 L244.567,210.208 Z" id="Path" fill="#000000" fill-rule="nonzero"></path>
            <path d="M263.277,221.37 C262.76,219.194 262.256,216.647 264.117,214.925 C265.654,213.646 267.761,213.293 269.631,214.002 C273.542,215.261 275.047,218.697 274.662,222.573 C274.662,222.685 274.83,222.685 274.837,222.573 C275.264,218.235 273.164,214.261 268.539,213.554 C266.734,213.214 264.882,213.83 263.641,215.184 C262.151,216.968 262.634,219.347 263.123,221.419 C263.123,221.531 263.312,221.482 263.291,221.37 L263.277,221.37 Z" id="Path" fill="#000000" fill-rule="nonzero"></path>
            <path d="M268.504,198.404 C269.116,201.048 270.837,203.299 273.227,204.583 C275.618,205.867 278.446,206.058 280.987,205.108 C281.092,205.066 281.05,204.898 280.945,204.94 C278.448,205.877 275.668,205.691 273.318,204.43 C270.968,203.169 269.277,200.954 268.679,198.355 C268.679,198.243 268.483,198.292 268.504,198.404 Z" id="Path" fill="#000000" fill-rule="nonzero"></path>
            <path d="M283.569,201.413 C283.802,200.739 283.865,200.018 283.751,199.314 C283.751,199.202 283.562,199.244 283.583,199.356 C283.688,200.032 283.625,200.724 283.401,201.371 C283.366,201.476 283.534,201.525 283.569,201.42 L283.569,201.413 Z" id="Path" fill="#000000" fill-rule="nonzero"></path>
            <path d="M287.698,219.955 C286.403,217.394 287.858,213.84 290.035,212.153 C293.106,209.76 298.193,213.749 297.417,217.282 C297.405,217.329 297.433,217.376 297.48,217.387 C297.526,217.399 297.573,217.371 297.585,217.324 C297.945,215.674 297.328,213.963 295.996,212.923 C294.751,211.867 292.631,210.824 290.979,211.377 C287.935,212.461 286.137,217.247 287.551,220.046 C287.6,220.144 287.754,220.046 287.698,219.955 Z" id="Path" fill="#000000" fill-rule="nonzero"></path>
            <path d="M303.994,192.835 C301.377,193.724 299.649,196.718 300.607,199.419 C301.7,202.083 304.729,203.376 307.409,202.323 C310.207,201.12 312.419,196.69 311.831,193.724 C311.355,191.31 307.108,190.309 305.582,192.233 C305.512,192.317 305.631,192.443 305.701,192.359 C306.653,191.163 308.423,191.394 309.732,191.792 C311.971,192.492 311.831,194.864 311.362,196.69 C310.704,199.07 309.13,201.826 306.534,202.421 C304.197,202.96 301.384,201.533 300.705,199.167 C300.036,196.56 301.492,193.878 304.043,193.017 C304.148,192.975 304.106,192.807 303.994,192.842 L303.994,192.835 Z" id="Path" fill="#000000" fill-rule="nonzero"></path>
            <path d="M307.765,180.925 C309.802,182.423 312.069,180.925 313.741,179.61 C313.832,179.54 313.741,179.421 313.615,179.491 C312.006,180.751 309.823,182.227 307.849,180.779 C307.758,180.709 307.675,180.862 307.765,180.925 Z" id="Path" fill="#000000" fill-rule="nonzero"></path>
            <path d="M318.513,201.56 C316.599,203.09 315.383,205.327 315.141,207.766 C315.141,207.878 315.301,207.878 315.315,207.766 C315.559,205.376 316.755,203.185 318.632,201.686 C318.723,201.616 318.632,201.49 318.513,201.56 Z" id="Path" fill="#000000" fill-rule="nonzero"></path>
            <path d="M434.555,203.862 C458.513,207.543 483.332,209.187 506.969,202.701 C507.015,202.689 507.043,202.642 507.032,202.596 C507.02,202.549 506.973,202.521 506.927,202.533 C483.311,209.005 458.527,207.368 434.597,203.694 C434.492,203.694 434.443,203.848 434.555,203.862 Z" id="Path" fill="#000000" fill-rule="nonzero"></path>
            <path d="M436.143,214.938 C442.314,217.038 448.738,217.989 455.238,218.584 C461.536,219.158 467.833,219.564 474.18,219.578 C486.292,219.578 498.537,218.017 509.502,212.58 C509.607,212.531 509.502,212.378 509.418,212.426 C498.292,217.919 485.844,219.459 473.564,219.382 C467.553,219.34 461.543,218.955 455.56,218.416 C448.997,217.828 442.447,216.898 436.192,214.75 C436.087,214.715 436.038,214.883 436.143,214.917 L436.143,214.938 Z" id="Path" fill="#000000" fill-rule="nonzero"></path>
            <path d="M445.533,227.444 C462.916,231.501 481.024,231.273 498.299,226.779 C498.346,226.767 498.374,226.72 498.362,226.674 C498.351,226.628 498.304,226.599 498.257,226.611 C481.012,231.098 462.935,231.326 445.582,227.276 C445.4696,227.276 445.421,227.416 445.533,227.444 Z" id="Path" fill="#000000" fill-rule="nonzero"></path>
            <circle id="Oval" stroke="#000000" stroke-width="5.712" cx="274.494" cy="157.009" r="137.327"></circle>
            <line x1="274.494" y1="294.336" x2="274.494" y2="399.441" id="Path" stroke="#000000" stroke-width="5.712"></line>
            <polygon id="Path" stroke="#000000" stroke-width="5.712" fill="#000000" fill-rule="nonzero" points="270.009 399.44 278.979 399.44 278.979 465.193 270.009 465.193"></polygon>
            <path d="M103.136,72.001 L76.1,101.178 C75.555,101.771 74.748,102.019 73.98,101.831 C73.212,101.643 72.597,101.046 72.364,100.262 L61.193,62.9462 C60.957,62.1637 61.137,61.31 61.666,60.702 C62.196,60.094 62.995,59.8225 63.768,59.9883 L101.984,68.1477 C102.771,68.3225 103.406,68.9252 103.645,69.724 C103.884,70.5228 103.689,71.3934 103.136,72.001 Z" id="Path" fill="#5230A2" fill-rule="nonzero"></path>
            <path d="M278.947,0.4727 L299.57,0.4727 C303.572,0.4727 306.075,4.7569 304.067,8.1814 L269.699,66.9455 C267.721,70.3403 262.775,70.3699 260.737,67.0048 L250.245,49.6009 C249.286,47.9998 249.271,46.0134 250.215,44.3975 L274.451,3.0225 C275.38,1.4511 277.088,0.4727 278.947,0.4727 Z" id="Path" fill="#44E0B7" fill-rule="nonzero"></path>
        </g>
    </g>
</svg>