<?xml version="1.0" encoding="UTF-8"?>
<svg width="1098px" height="596px" viewBox="0 0 1098 596" version="1.1" xmlns="http://www.w3.org/2000/svg" xmlns:xlink="http://www.w3.org/1999/xlink">
    <title>page-not-found-bg</title>
    <g id="Page-3" stroke="none" stroke-width="1" fill="none" fill-rule="evenodd">
        <g id="page-not-found-bg" transform="translate(1.000000, 1.000000)">
            <line x1="19" y1="498" x2="248" y2="498" id="Path" stroke="#BDBEBF" stroke-width="1.11281" stroke-linecap="round"></line>
            <line x1="685" y1="498" x2="723" y2="498" id="Path" stroke="#BDBEBF" stroke-width="1.11281" stroke-linecap="round"></line>
            <line x1="732" y1="498" x2="1026" y2="498" id="Path" stroke="#BDBEBF" stroke-width="1.11281" stroke-linecap="round"></line>
            <path d="M703.067,197.072 C568.974,197.072 517.456,123.985 424.65,143.669 L424.65,330.645 L296.385,330.645 L296.385,196.978 L264.499,196.978 L264.499,96.9199 L103.792,96.9199 L103.792,340.279 L2,340.279 L2,427.423 L2,456.356" id="Path" stroke="#232529" stroke-width="1.11281"></path>
            <rect id="Rectangle" fill="#FFFFFF" fill-rule="nonzero" x="377.044" y="307.242" width="112.393" height="11.1281"></rect>
            <rect id="Rectangle" fill="#FFFFFF" fill-rule="nonzero" x="306.163" y="326.16" width="112.393" height="6.67683"></rect>
            <path d="M345.486,317.488 L538.493,317.488 C544.294,317.488 549.676,320.507 552.697,325.459 L596.324,396.959 L656.446,415.806 C665.737,418.722 671.893,427.537 671.432,437.264 L668.703,494.371 L261.103,494.371 L261.103,457.755 C261.103,425.84 272.212,394.92 292.525,370.304 L330.15,324.714 C333.927,320.137 339.552,317.488 345.486,317.488 L345.486,317.488 Z" id="Path" fill="#E9E9E9" fill-rule="nonzero"></path>
            <path d="M657.97,445.449 L657.97,454.87 C657.97,459.966 662.101,464.097 667.197,464.097 L670.136,464.097 L671.419,437.263 C671.419,436.918 671.419,436.568 671.419,436.223 L667.175,436.223 C662.088,436.235 657.97,440.362 657.97,445.449 L657.97,445.449 Z" id="Path" fill="#CCCCCC" fill-rule="nonzero"></path>
            <path d="M657.97,445.449 L657.97,454.87 C657.97,459.966 662.101,464.097 667.197,464.097" id="Path" stroke="#000000" stroke-width="0.550266"></path>
            <path d="M270.288,462.903 L270.288,449.572 C270.288,446.594 267.874,444.18 264.896,444.18 L261.773,444.18 C261.324,448.674 261.098,453.196 261.094,457.747 L261.094,468.295084 L264.869,468.295084 C266.304,468.303 267.682,467.738 268.699,466.726 C269.717,465.713 270.288,464.338 270.288,462.903 Z" id="Path" fill="#CCCCCC" fill-rule="nonzero"></path>
            <path d="M596.309,396.958 L555.951,330.812 L442.555,330.812 L442.555,381.53 C442.555,385.621 444.178,389.546 447.07,392.439 C449.963,395.333 453.887,396.958 457.978,396.958 L596.309,396.958 Z" id="Path" fill="#F4F4F4" fill-rule="nonzero"></path>
            <path d="M590.511,396.957 L584.218,386.646 C581.081,381.508 576.345,377.541 570.736,375.354 L565.451,373.289 C564.984,373.103 564.462,373.113 564.001,373.315 C563.541,373.518 563.181,373.897 563.003,374.367 C562.514,375.402 562.887,376.639 563.866,377.231 C565.565,378.369 564.535,380.973 563.726,382.483 C563.592,382.733 563.336,382.893 563.054,382.904 C562.771,382.915 562.503,382.775 562.351,382.537 L552.741,367.578 C552.557,367.291 552.21,367.152 551.878,367.234 C551.547,367.316 551.304,367.599 551.274,367.939 C551.259,368.113 551.3,368.287 551.393,368.436 L561.585,384.808 C561.758,385.084 561.745,385.439 561.552,385.703 C558.986,389.211 556.816,392.993 555.081,396.979 L590.511,396.957 Z" id="Path" fill="#CCCCCC" fill-rule="nonzero"></path>
            <path d="M553.079,371.137 L561.578,384.786 C561.751,385.063 561.738,385.417 561.545,385.681 C558.979,389.19 556.809,392.971 555.074,396.957 L590.488,396.957 L584.221,386.646 C581.084,381.508 576.348,377.541 570.74,375.354 L565.455,373.289 C564.988,373.103 564.465,373.113 564.005,373.315 C563.545,373.518 563.185,373.897 563.007,374.367 C562.518,375.402 562.891,376.639 563.87,377.231 C565.568,378.369 564.538,380.973 563.729,382.483 C563.596,382.733 563.34,382.893 563.057,382.904 C562.775,382.915 562.507,382.775 562.354,382.537 L552.745,367.578" id="Path" stroke="#000000" stroke-width="0.550266"></path>
            <path d="M473.625,379.123 C473.9,373.73 473.517,369.923 472.983,367.318 C472.372,364.48 469.858,362.456 466.954,362.464952 L459.631,362.464952 C457.351,362.456 455.254,363.716 454.19,365.733 C450.636,372.598 448.086,384.359 446.667,392.038 C449.587,395.193 453.693,396.984 457.992,396.978015 L475.097,396.978015 C473.834,391.115 473.339,385.113 473.625,379.123 Z" id="Path" fill="#CCCCCC" fill-rule="nonzero"></path>
            <path d="M428.275,381.53 L428.275,330.812 L325.114,330.812 L292.521,370.303 C285.76,378.493 279.97,387.437 275.265,396.958004 L412.841,396.958004 C416.934,396.961 420.861,395.337 423.756,392.443 C426.651,389.549 428.275,385.623 428.275,381.53 Z" id="Path" fill="#F4F4F4" fill-rule="nonzero"></path>
            <path d="M345.389,362.444824 L338.071,362.444824 C335.79,362.435 333.692,363.694 332.63,365.713 C328.165,374.342 325.285,390.676 324.25,396.958 L350.135,396.958 C351.126,391.056 351.779,385.102 352.092,379.125 C352.367,373.732 351.984,369.925 351.45,367.32 C350.845,364.461 348.311,362.423 345.389,362.444824 Z" id="Path" fill="#CCCCCC" fill-rule="nonzero"></path>
            <path d="M473.629,379.123 C473.904,373.73 473.521,369.923 472.987,367.318 C472.376,364.48 469.862,362.456 466.958,362.464952 L459.635,362.464952 C457.354,362.456 455.258,363.716 454.194,365.733 C450.64,372.598 448.089,384.359 446.671,392.038 C449.591,395.193 453.696,396.984 457.995,396.978015 L475.101,396.978015 C473.837,391.115 473.342,385.113 473.629,379.123 L473.629,379.123 Z" id="Path" stroke="#000000" stroke-width="0.550266"></path>
            <path d="M345.393,362.441807 L338.075,362.441807 C335.794,362.431 333.696,363.691 332.634,365.71 C328.169,374.338 325.289,390.672 324.254,396.954 L350.138,396.954 C351.129,391.052 351.783,385.098 352.096,379.121 C352.371,373.728 351.988,369.921 351.454,367.317 C350.849,364.457 348.315,362.419 345.393,362.441807 L345.393,362.441807 Z" id="Path" stroke="#000000" stroke-width="0.550266"></path>
            <path d="M596.313,396.954 L555.955,330.809 L442.558998,330.809 L442.558998,381.526 C442.557,385.617 444.182,389.542 447.074,392.435 C449.967,395.329 453.89,396.954 457.982,396.954 L596.313,396.954 Z" id="Path" stroke="#000000" stroke-width="0.550266"></path>
            <path d="M261.103,490.09 L668.908,490.09 L668.908,499.538 C668.908,502.218 666.735,504.391 664.055,504.391 L268.237,504.391 C264.309,504.391 261.124,501.207 261.124,497.278 L261.124,490.09 L261.103,490.09 Z" id="Path" fill="#F4F4F4" fill-rule="nonzero"></path>
            <path d="M323.072,474.883 C306.786,474.883 293.583,487.837 293.583,503.816 L352.561,503.816 C352.561,487.837 339.359,474.883 323.072,474.883 Z" id="Path" fill="#898A8D" fill-rule="nonzero"></path>
            <path d="M595.709,474.883 C579.423,474.883 566.22,487.837 566.22,503.816 L625.199,503.816 C625.199,487.837 611.996,474.883 595.709,474.883 Z" id="Path" fill="#898A8D" fill-rule="nonzero"></path>
            <circle id="Oval" fill="#000000" fill-rule="nonzero" cx="323.072" cy="504.374" r="6.12043"></circle>
            <circle id="Oval" fill="#000000" fill-rule="nonzero" cx="595.709" cy="504.374" r="6.12043"></circle>
            <rect id="Rectangle" fill="#FFFFFF" fill-rule="nonzero" x="351.783" y="412.676" width="13.1418" height="4.21702" rx="1.57376"></rect>
            <line x1="363.379" y1="416.895" x2="353.322" y2="416.895" id="Path" stroke="#000000" stroke-width="0.550266"></line>
            <rect id="Rectangle" fill="#FFFFFF" fill-rule="nonzero" x="456.843" y="412.676" width="13.1418" height="4.21702" rx="1.57376"></rect>
            <line x1="468.445" y1="416.895" x2="458.382" y2="416.895" id="Path" stroke="#000000" stroke-width="0.550266"></line>
            <path d="M424.103,333.763 C424.133,333.754 424.153,333.727 424.153,333.695 C424.153,333.664 424.133,333.637 424.103,333.628 C424.073,333.637 424.052,333.664 424.052,333.695 C424.052,333.727 424.073,333.754 424.103,333.763 Z" id="Path" fill="#000000" fill-rule="nonzero"></path>
            <path d="M424.103,333.763 C424.133,333.754 424.153,333.727 424.153,333.695 C424.153,333.664 424.133,333.637 424.103,333.628 C424.073,333.637 424.052,333.664 424.052,333.695 C424.052,333.727 424.073,333.754 424.103,333.763 Z" id="Path" fill="#000000" fill-rule="nonzero"></path>
            <path d="M553.596,353.748 C553.834,352.707 554.871,352.056 555.911,352.294 C556.952,352.532 557.603,353.569 557.365,354.61 L551.667,379.528 C551.429,380.568 550.393,381.219 549.352,380.981 C548.311,380.743 547.66,379.707 547.898,378.666 L553.596,353.748 Z" id="Path" fill="#000000" fill-rule="nonzero"></path>
            <path d="M465.69,347.172 L467.954,347.172 C468.342,347.172 468.714,347.326 468.988,347.6 C469.262,347.874 469.416,348.246 469.416,348.633 L469.416,357.261 C469.416,357.649 469.262,358.021 468.988,358.295 C468.714,358.569 468.342,358.723 467.954,358.723 L461.591,358.723 C459.533,358.723 457.865,357.055 457.865,354.997 C457.877,350.68 461.373,347.184 465.69,347.172 Z" id="Path" fill="#CCCCCC" fill-rule="nonzero"></path>
            <path d="M465.69,347.172 L467.954,347.172 C468.342,347.172 468.714,347.326 468.988,347.6 C469.262,347.874 469.416,348.246 469.416,348.633 L469.416,357.261 C469.416,357.649 469.262,358.021 468.988,358.295 C468.714,358.569 468.342,358.723 467.954,358.723 L461.591,358.723 C459.533,358.723 457.865,357.055 457.865,354.997 C457.877,350.68 461.373,347.184 465.69,347.172 L465.69,347.172 Z" id="Path" stroke="#000000" stroke-width="0.550266"></path>
            <line x1="464.098" y1="361.878" x2="464.098" y2="358.891" id="Path" stroke="#000000" stroke-width="0.550266"></line>
            <path d="M344.132,347.172 L346.397,347.172 C347.204,347.172 347.858,347.826 347.858,348.633 L347.858,357.261 C347.858,358.069 347.204,358.723 346.397,358.723 L340.039,358.723 C337.981,358.723 336.313,357.055 336.313,354.997 C336.325,350.682 339.818,347.187 344.132,347.172 L344.132,347.172 Z" id="Path" fill="#CCCCCC" fill-rule="nonzero"></path>
            <path d="M344.132,347.172 L346.397,347.172 C347.204,347.172 347.858,347.826 347.858,348.633 L347.858,357.261 C347.858,358.069 347.204,358.723 346.397,358.723 L340.039,358.723 C337.981,358.723 336.313,357.055 336.313,354.997 C336.325,350.682 339.818,347.187 344.132,347.172 L344.132,347.172 Z" id="Path" stroke="#000000" stroke-width="0.550266"></path>
            <line x1="342.525" y1="361.878" x2="342.525" y2="358.891" id="Path" stroke="#000000" stroke-width="0.550266"></line>
            <line x1="435.9" y1="410.934" x2="435.9" y2="504.388" id="Path" stroke="#000000" stroke-width="0.550266"></line>
            <path d="M421.289,449.828 L531.449,449.828 C531.479,449.811 531.5,449.754 531.5,449.689 C531.5,449.625 531.479,449.568 531.449,449.55 L421.289,449.55 C421.259,449.568 421.238,449.625 421.238,449.689 C421.238,449.754 421.259,449.811 421.289,449.828 Z" id="Path" fill="#000000" fill-rule="nonzero"></path>
            <path d="M404.957,470.914 L473.443,470.914 C473.472,470.931 473.502,470.909 473.52,470.859 C473.537,470.809 473.537,470.742 473.52,470.692 C473.502,470.641 473.472,470.619 473.443,470.636 L404.957,470.636 C404.928,470.619 404.898,470.641 404.88,470.692 C404.863,470.742 404.863,470.809 404.88,470.859 C404.898,470.909 404.928,470.931 404.957,470.914 Z" id="Path" fill="#000000" fill-rule="nonzero"></path>
            <path d="M349.224,504.374 C349.224,489.931 337.516,478.223 323.073,478.223 C308.63,478.223 296.922,489.931 296.922,504.374" id="Path" stroke="#232529" stroke-width="1.11281"></path>
            <path d="M621.861,504.374 C621.861,489.931 610.153,478.223 595.71,478.223 C581.267,478.223 569.559,489.931 569.559,504.374" id="Path" stroke="#232529" stroke-width="1.11281"></path>
            <path d="M647.251,354.209 L594.977,399.127 C592.666,401.114 593.489,404.874 596.419,405.713 C597.657,406.068 598.991,405.776 599.969,404.936 L646.639,364.833 C648.646,363.109 651.6,363.074 653.646,364.751 L658.671,368.871 C660.11,370.05 662.188,370.026 663.599,368.813 C665.397,367.269 665.376,364.479 663.555,362.961 L653.002,354.166 C651.332,352.774 648.9,352.792 647.251,354.209 Z" id="Path" fill="#E9E9E9" fill-rule="nonzero"></path>
            <polygon id="Path" stroke="#000000" stroke-width="0.545274" fill="#232529" fill-rule="nonzero" points="571.933 516.731 568.719 516.731 568.719 511.155 620.476 511.155 620.476 516.731 617.262 516.731 616.989 516.731 616.989 517.003 616.989 523.124 616.989 529.244 616.989 529.517 617.262 529.517 620.476 529.517 620.476 535.092 568.719 535.092 568.719 529.517 571.933 529.517 572.206 529.517 572.206 529.244 572.206 523.124 572.206 517.003 572.206 516.731"></polygon>
            <rect id="Rectangle" stroke="#000000" stroke-width="0.545274" fill="#FFFFFF" fill-rule="nonzero" x="597.651" y="516.718" width="12.8084" height="11.6956" rx="1.95297"></rect>
            <rect id="Rectangle" stroke="#000000" stroke-width="0.545274" fill="#FFFFFF" fill-rule="nonzero" x="578.733" y="516.718" width="12.8084" height="11.6956" rx="1.95297"></rect>
            <polygon id="Path" stroke="#000000" stroke-width="0.545274" fill="#232529" fill-rule="nonzero" points="300.407 516.731 297.193 516.731 297.193 511.155 348.949 511.155 348.949 516.731 345.735 516.731 345.462 516.731 345.462 517.003 345.462 523.124 345.462 529.244 345.462 529.517 345.735 529.517 348.949 529.517 348.949 535.092 297.193 535.092 297.193 529.517 300.407 529.517 300.679 529.517 300.679 529.244 300.679 523.124 300.679 517.003 300.679 516.731"></polygon>
            <rect id="Rectangle" stroke="#000000" stroke-width="0.545274" fill="#FFFFFF" fill-rule="nonzero" x="326.126" y="516.718" width="12.8084" height="11.6956" rx="1.95297"></rect>
            <rect id="Rectangle" stroke="#000000" stroke-width="0.545274" fill="#FFFFFF" fill-rule="nonzero" x="307.208" y="516.718" width="12.8084" height="11.6956" rx="1.95297"></rect>
            <path d="M702.511,197.073 C702.511,197.38 702.76,197.629 703.067,197.629 C703.374,197.629 703.624,197.38 703.624,197.073 L702.511,197.073 Z M703.067,61.3105 L703.067,60.7541 L702.511,60.7541 L702.511,61.3105 L703.067,61.3105 Z M869.982,61.3105 L870.538,61.3105 L870.538,60.7541 L869.982,60.7541 L869.982,61.3105 Z M869.982,143.904 L869.425,143.904 L869.425,144.461 L869.982,144.461 L869.982,143.904 Z M905.762,143.904 L906.156,143.511 L905.993,143.348 L905.762,143.348 L905.762,143.904 Z M935.191,173.327 L935.747,173.327 L935.747,173.097 L935.584,172.934 L935.191,173.327 Z M935.191,309.015 L934.634,309.015 L934.634,309.571 L935.191,309.571 L935.191,309.015 Z M990.638,309.015 L991.194,309.015 L991.194,308.458 L990.638,308.458 L990.638,309.015 Z M990.638,469.71 L990.081,469.71 L990.081,470.266 L990.638,470.266 L990.638,469.71 Z M1057.7,469.71 L1057.7,470.266 L1058.25,470.266 L1058.25,469.71 L1057.7,469.71 Z M1057.7,431.347 L1057.7,430.791 L1057.14,430.791 L1057.14,431.347 L1057.7,431.347 Z M703.624,197.073 L703.624,61.3105 L702.511,61.3105 L702.511,197.073 L703.624,197.073 Z M703.067,61.8669 L869.982,61.8669 L869.982,60.7541 L703.067,60.7541 L703.067,61.8669 Z M869.425,61.3105 L869.425,143.904 L870.538,143.904 L870.538,61.3105 L869.425,61.3105 Z M869.982,144.461 L905.762,144.461 L905.762,143.348 L869.982,143.348 L869.982,144.461 Z M905.369,144.298 L934.797,173.721 L935.584,172.934 L906.156,143.511 L905.369,144.298 Z M934.634,173.327 L934.634,309.015 L935.747,309.015 L935.747,173.327 L934.634,173.327 Z M935.191,309.571 L990.638,309.571 L990.638,308.458 L935.191,308.458 L935.191,309.571 Z M990.081,309.015 L990.081,469.71 L991.194,469.71 L991.194,309.015 L990.081,309.015 Z M990.638,470.266 L1057.7,470.266 L1057.7,469.154 L990.638,469.154 L990.638,470.266 Z M1058.25,469.71 L1058.25,431.347 L1057.14,431.347 L1057.14,469.71 L1058.25,469.71 Z M1057.7,431.904 L1097,431.904 L1097,430.791 L1057.7,430.791 L1057.7,431.904 Z" id="Shape" fill="#232529" fill-rule="nonzero"></path>
            <line x1="686" y1="470" x2="979" y2="470" id="Path" stroke="#BDBEBF" stroke-width="1.11281" stroke-linecap="round"></line>
            <line x1="233" y1="470" x2="247" y2="470" id="Path" stroke="#BDBEBF" stroke-width="1.11281" stroke-linecap="round"></line>
            <line x1="0" y1="470" x2="227" y2="470" id="Path" stroke="#BDBEBF" stroke-width="1.11281" stroke-linecap="round"></line>
            <line x1="12.0153" y1="589.891" x2="1010.2" y2="589.891" id="Path" stroke="#EFEDF3" stroke-width="8.90244" stroke-linecap="round" stroke-dasharray="55.64"></line>
            <path d="M346.926,56.2947 L337.404,56.2947 C337.838,51.87 329.339,48.0275 326.203,52.9431 C328.564,46.3242 321.146,39.4843 315.001,46.7985 C311.08,41.3987 302.785,32.4596 295.398,35.068 C288.587,37.4733 289.423,44.3779 290.357,46.7985 C287.37,45.8675 282.712,46.7985 282.712,51.4481 C282.712,57.257 288.117,57.7843 288.677,57.9705 L262.353,57.9705" id="Path" stroke="#181A1D" stroke-linejoin="round"></path>
            <path d="M859.973,21.1043 C865.996,21.5 878.523,21.8165 880.451,19.9174 C882.275,18.1197 891.439,17.5983 896.499,17.5477 C896.986,17.5429 897.411,17.2299 897.564,16.7677 C900.872,6.77595 909.32,-7.93718 919.247,5.48852 C919.719,6.12705 920.703,6.14369 921.239,5.55778 C926.163,0.17571 937.951,-3.85852 938.982,9.1974 L938.982,12.6207 C938.982,13.5862 940.172,14.1392 941.002,13.6458 C948.856,8.9764 961.366,12.4321 953.998,23.0295 C953.432,23.8428 954.022,25.0327 955.011,24.9653 L976.817,23.4785" id="Path" stroke="#181A1D" stroke-linejoin="round"></path>
            <path d="M636.344,107.922 C632.845,108.15 625.567,108.333 624.447,107.236 C623.427,106.237 618.459,105.92 615.466,105.872 C614.98,105.864 614.553,105.551 614.394,105.091 C612.451,99.48 607.813,91.6983 602.34,98.3484 C601.837,98.9597 600.842,98.9861 600.26,98.4499 C597.176,95.6105 591.01,93.9045 590.443,101.043 L590.443,101.97 C590.443,102.934 589.223,103.521 588.337,103.141 C584.065,101.31 578.427,103.081 581.119,108.068 C581.591,108.94 580.991,110.143 580.001,110.075 L568.463,109.293" id="Path" stroke="#181A1D" stroke-linejoin="round"></path>
            <polygon id="Path" stroke="#FFFFFF" stroke-width="16.6921" fill="#E9EAEA" fill-rule="nonzero" points="74.3326 350.839 74.3326 309.465 161.225 309.465 180.201 331.186 161.225 350.839"></polygon>
            <line x1="115.706" y1="469.709" x2="115.706" y2="300.562" id="Path" stroke="#000000" stroke-width="0.556403"></line>
            <polygon id="Path" stroke="#000000" stroke-width="0.556403" fill="#E9EAEA" fill-rule="nonzero" points="74.3326 350.839 74.3326 309.465 161.225 309.465 180.201 331.186 161.225 350.839"></polygon>
            <path d="M87.7414,331.745 L141.235,331.745 C141.249,331.726 141.259,331.663 141.259,331.593 C141.259,331.522 141.249,331.46 141.235,331.441 L87.7414,331.441 C87.7268,331.46 87.7167,331.522 87.7167,331.593 C87.7167,331.663 87.7268,331.726 87.7414,331.745 Z" id="Path" fill="#000000" fill-rule="nonzero"></path>
            <path d="M144.917,331.745 L152.211,331.745 C152.213,331.726 152.214,331.663 152.214,331.593 C152.214,331.522 152.213,331.46 152.211,331.441 L144.917,331.441 C144.915,331.46 144.913,331.522 144.913,331.593 C144.913,331.663 144.915,331.726 144.917,331.745 Z" id="Path" fill="#000000" fill-rule="nonzero"></path>
            <rect id="Rectangle" stroke="#000000" stroke-width="0.445122" fill="#D3D3D4" fill-rule="nonzero" x="894.158" y="432.933" width="42.1031" height="15.1799"></rect>
            <rect id="Rectangle" stroke="#000000" stroke-width="0.445122" fill="#FFFFFF" fill-rule="nonzero" x="912.189" y="397.598" width="6.04528" height="6.04528" rx="1.70052"></rect>
            <path d="M902.33,413.841 C902.33,406.596 908.204,400.723 915.449,400.723 C922.694,400.723 928.568,406.596 928.568,413.841 L928.568,478.643 L902.33,478.643 L902.33,413.841 Z" id="Path" stroke="#000000" stroke-width="0.445122" fill="#E9EAEA" fill-rule="nonzero"></path>
            <path d="M920.626,415.992 L920.626,408 C920.61,407.998 920.559,407.996 920.501,407.996 C920.443,407.996 920.392,407.998 920.376,408 L920.376,415.992 C920.392,415.995 920.443,415.996 920.501,415.996 C920.559,415.996 920.61,415.995 920.626,415.992 Z" id="Path" fill="#65676A" fill-rule="nonzero"></path>
            <path d="M915.626,413.992 L915.626,406 C915.61,405.998 915.559,405.996 915.501,405.996 C915.443,405.996 915.392,405.998 915.376,406 L915.376,413.992 C915.392,413.995 915.443,413.996 915.501,413.996 C915.559,413.996 915.61,413.995 915.626,413.992 Z" id="Path" fill="#65676A" fill-rule="nonzero"></path>
            <path d="M910.626,414.993 L910.626,408.999 C910.61,408.997 910.559,408.996 910.501,408.996 C910.443,408.996 910.392,408.997 910.376,408.999 L910.376,414.993 C910.392,414.995 910.443,414.996 910.501,414.996 C910.559,414.996 910.61,414.995 910.626,414.993 Z" id="Path" fill="#65676A" fill-rule="nonzero"></path>
            <rect id="Rectangle" stroke="#000000" stroke-width="0.445122" fill="#D3D3D4" fill-rule="nonzero" x="898.244" y="419.953" width="33.93" height="6.04528" rx="1.21975"></rect>
            <path d="M898.244,468.29 C898.244,467.351 899.005,466.59 899.945,466.59 L930.474,466.59 C931.413,466.59 932.174,467.351 932.174,468.29 L932.174,472.635 L898.244,472.635 L898.244,468.29 Z" id="Path" stroke="#000000" stroke-width="0.445122" fill="#D3D3D4" fill-rule="nonzero"></path>
            <path d="M893.675,474.298 C893.675,473.359 894.437,472.598 895.376,472.598 L935.04,472.598 C935.979,472.598 936.74,473.359 936.74,474.298 L936.74,478.643 L893.675,478.643 L893.675,474.298 Z" id="Path" stroke="#000000" stroke-width="0.445122" fill="#BDBEBF" fill-rule="nonzero"></path>
            <rect id="Rectangle" stroke="#000000" stroke-width="0.445122" fill="#BDBEBF" fill-rule="nonzero" x="934.302" y="431.012" width="3.16066" height="19.0261" rx="0.73898"></rect>
            <rect id="Rectangle" stroke="#000000" stroke-width="0.445122" fill="#BDBEBF" fill-rule="nonzero" x="892.954" y="431.012" width="3.16066" height="19.0261" rx="0.73898"></rect>
            <rect id="Rectangle" stroke="#000000" stroke-width="0.445122" fill="#D3D3D4" fill-rule="nonzero" x="908.82" y="433.894" width="13.2568" height="13.2568" rx="6.6284"></rect>
            <rect id="Rectangle" stroke="#000000" stroke-width="0.445122" fill="#FFFFFF" fill-rule="nonzero" x="911.706" y="436.781" width="7.48759" height="7.48759" rx="3.743795"></rect>
            <path d="M864.034,276.331 L864.952,278.201 C864.982,278.261 865.076,278.201 865.046,278.145 L864.129,276.271 C864.099,276.211 864.004,276.271 864.034,276.327 L864.034,276.331 Z" id="Path" fill="#000000" fill-rule="nonzero"></path>
            <path d="M772.702,290.919 C771.334,293.178 770.434,295.73 769.649,298.243 C769.036,300.203 768.667,302.407 769.683,304.302 C771.6,307.87 776.545,307.514 779.079,304.851 C779.272,304.649 778.967,304.349 778.779,304.546 C776.141,307.33 770.73,307.3 769.636,303.011 C769.173,301.185 769.739,299.281 770.331,297.548 C771.086,295.34 771.858,293.14 773.075,291.116 C773.217,290.88 772.848,290.687 772.702,290.901 L772.702,290.919 Z" id="Path" fill="#000000" fill-rule="nonzero"></path>
            <path d="M776.766,298.502 C776.814,298.57 776.766,298.604 776.694,298.63 L776.861,298.609 L776.814,298.609 L776.968,298.819 C776.968,298.857 777.083,298.724 777.083,298.729 C777.276,298.527 776.972,298.227 776.779,298.424 C776.672,298.54 776.527,298.643 776.539,298.819 C776.544,298.914 776.607,298.996 776.698,299.024 C777.096,299.149 777.328,298.596 777.126,298.3 C776.925,298.005 776.604,298.3 776.754,298.519 L776.766,298.502 Z" id="Path" fill="#000000" fill-rule="nonzero"></path>
            <path d="M772.154,297.125 C772.197,297.198 772.154,297.232 772.082,297.258 L772.244,297.232 L772.197,297.232 L772.356,297.438 C772.356,297.48 772.471,297.348 772.467,297.348 C772.66,297.151 772.356,296.846 772.167,297.048 C772.056,297.159 771.914,297.266 771.927,297.438 C771.929,297.534 771.994,297.617 772.086,297.643 C772.48,297.767 772.711,297.215 772.514,296.923 C772.317,296.632 771.996,296.923 772.146,297.138 L772.154,297.125 Z" id="Path" fill="#000000" fill-rule="nonzero"></path>
            <path d="M781.158,301.297 C782.487,301.19 784.494,300.118 784.16,298.484 C784.027,297.897 783.529,297.465 782.929,297.416 C782.189,297.358 781.482,297.73 781.111,298.372 C780.957,298.6 781.33,298.801 781.484,298.587 C781.771,298.085 782.324,297.797 782.899,297.849 C783.727,297.974 783.92,298.801 783.555,299.466 C783.038,300.301 782.14,300.827 781.158,300.868 C780.884,300.89 780.879,301.318 781.158,301.297 Z" id="Path" fill="#000000" fill-rule="nonzero"></path>
            <path d="M783.051,298.816 C782.497,298.105 781.674,299.498 781.507,299.91 C781.481,299.974 781.584,300 781.61,299.936 C781.747,299.61 782.506,298.289 782.956,298.868 C782.999,298.924 783.089,298.868 783.051,298.816 Z" id="Path" fill="#000000" fill-rule="nonzero"></path>
            <path d="M782.446,299.312 C782.365,299.03 782.048,299.124 781.885,299.27 C781.833,299.317 781.911,299.39 781.962,299.347 C782.013,299.304 782.275,299.107 782.339,299.347 C782.349,299.375 782.378,299.39 782.407,299.382 C782.435,299.374 782.453,299.346 782.446,299.317 L782.446,299.312 Z" id="Path" fill="#000000" fill-rule="nonzero"></path>
            <path d="M781.589,301.113 C781.446,304.358 781.501,307.609 781.752,310.847 C781.778,311.117 782.207,311.122 782.181,310.847 C781.929,307.609 781.875,304.358 782.018,301.113 C782.018,300.994 781.922,300.898 781.804,300.898 C781.685,300.898 781.589,300.994 781.589,301.113 Z" id="Path" fill="#000000" fill-rule="nonzero"></path>
            <path d="M773.739,306.863 C773.808,308.535 773.937,310.216 773.881,311.893 C773.881,312.167 774.31,312.167 774.31,311.893 C774.365,310.216 774.237,308.535 774.168,306.863 C774.168,306.744 774.072,306.648 773.954,306.648 C773.835,306.648 773.739,306.744 773.739,306.863 Z" id="Path" fill="#000000" fill-rule="nonzero"></path>
            <path d="M774.354,297.306 C773.935,298.068 773.589,298.868 773.321,299.695 C773.235,299.96 773.646,300.072 773.749,299.81 C774.006,299.018 774.34,298.253 774.744,297.525 C774.783,297.458 774.784,297.376 774.746,297.309 C774.707,297.241 774.636,297.2 774.559,297.199 C774.482,297.199 774.41,297.239 774.371,297.306 L774.354,297.306 Z" id="Path" fill="#000000" fill-rule="nonzero"></path>
            <path d="M778.707,296.51 C778.444,296.216 778.094,296.013 777.708,295.931 C777.438,295.875 777.322,296.287 777.592,296.36 C777.907,296.421 778.192,296.586 778.403,296.827 C778.587,297.033 778.891,296.729 778.707,296.523 L778.707,296.51 Z" id="Path" fill="#000000" fill-rule="nonzero"></path>
            <path d="M773.762,295.275 C773.495,294.986 773.144,294.789 772.758,294.713 C772.488,294.653 772.377,295.065 772.647,295.142 C772.952,295.196 773.231,295.346 773.445,295.571 C773.629,295.776 773.929,295.472 773.749,295.266 L773.762,295.275 Z" id="Path" fill="#000000" fill-rule="nonzero"></path>
            <path d="M778.93,304.699 C778.93,304.699 776.987,309.133 774.093,310.6 L774.054,309.275 L773.938,306.522 C773.938,306.522 773.677,306.406 774.389,306.556 C776.048,306.903 778.347,305.325 778.93,304.699 Z" id="Path" fill="#000000" fill-rule="nonzero"></path>
            <path d="M771.096,292.017 C772.777,292.446 778.48,293.732 780.732,291.888 C780.732,291.888 777.837,294.5 776.748,294.684 C776.748,294.684 779.956,295.709 781.161,293.102 C781.161,293.102 779.874,296.177 781.739,297.978 C781.739,297.978 782.97,297.48 783.343,297.755 C783.716,298.029 784.317,298.642 783.854,299.346 C783.501,299.834 783.065,300.258 782.567,300.598 L782.276,300.829 C782.276,300.829 781.821,300.949 781.8,301.738 C781.778,302.528 780.985,315.967 778.926,323.137 C776.868,330.306 779.844,333.857 787.297,331.893 C792.49,330.512 792.387,325.585 791.654,322.249 C791.306,320.625 792.025,318.958 793.446,318.098 C794.861,317.167 795.436,315.478 795.286,313.836 C794.75,308.042 788.575,304.693 788.039,298.874 C787.537,293.389 785.895,291.104 783.751,290.023 C783.287,289.781 782.888,289.433 782.584,289.007 C781.522,287.623 779.864,286.827 778.12,286.863 C774.978,286.726 772.078,288.543 770.83,291.43 C770.779,291.542 770.779,291.671 770.83,291.784 C770.881,291.896 770.978,291.981 771.096,292.017 Z" id="Path" fill="#000000" fill-rule="nonzero"></path>
            <path d="M771.418,291.332 C771.281,291.379 770.08,293.558 770.518,296.358 C770.518,296.358 772.906,289.844 774.54,289.887" id="Path" fill="#000000" fill-rule="nonzero"></path>
            <path d="M774.177,301.277 C774.551,301.055 775.002,300.999 775.42,301.123 C775.539,301.154 775.66,301.083 775.69,300.964 C775.721,300.846 775.65,300.725 775.532,300.694 C775.004,300.538 774.435,300.61 773.962,300.892 C773.873,300.956 773.848,301.078 773.903,301.173 C773.958,301.268 774.076,301.306 774.177,301.26 L774.177,301.277 Z" id="Path" fill="#000000" fill-rule="nonzero"></path>
            <path d="M768.231,314.754 C768.231,314.754 762.455,324.698 765.229,334.325 C767.065,340.642 767.373,343.459 767.373,344.651 C767.376,345.148 767.715,345.581 768.197,345.702 C771.983,346.667 785.714,348.618 797.395,341.045" id="Path" stroke="#000000" stroke-width="0.437572"></path>
            <path d="M792.656,312.798 C792.656,312.798 800.898,311.259 804.235,320.83 C807.571,330.401 810.898,337.983 812.245,346.538 C813.021,351.469 809.732,369.6 808.553,375.805 C808.305,377.122 808.144,378.454 808.072,379.793 C807.98,381.941 807.728,384.08 807.318,386.191 C806.572,389.544 807.318,390.518 807.318,390.518" id="Path" stroke="#000000" stroke-width="0.437572"></path>
            <path d="M794.195,333.617 L799.98,346.992 C800.384,347.92 800.519,348.942 800.37,349.942 C799.724,354.45 799.559,359.014 799.877,363.557 C800.237,368.613 800.28,373.66 800.28,375.993 C800.278,376.816 799.96,377.606 799.392,378.202 C798.2,379.441 796.185,381.829 795.962,383.974" id="Path" stroke="#000000" stroke-width="0.437572"></path>
            <path d="M798.392,384.196 C797.934,386.636 797.535,389.136 798.431,391.525 C798.53,391.782 798.946,391.671 798.86,391.413 C797.976,389.089 798.371,386.696 798.817,384.308 C798.868,384.038 798.457,383.922 798.388,384.196 L798.392,384.196 Z" id="Path" fill="#000000" fill-rule="nonzero"></path>
            <path d="M800.555,388.524 C800.465,389.505 800.658,390.492 801.113,391.367 C801.237,391.611 801.606,391.393 801.481,391.148 C801.066,390.34 800.893,389.428 800.984,388.524 C801.01,388.245 800.581,388.249 800.555,388.524 Z" id="Path" fill="#000000" fill-rule="nonzero"></path>
            <path d="M803.325,388.511 C803.463,389.327 803.707,390.121 804.05,390.874 C804.166,391.122 804.535,390.904 804.419,390.655 C804.096,389.935 803.867,389.177 803.737,388.399 C803.694,388.125 803.278,388.241 803.308,388.511 L803.325,388.511 Z" id="Path" fill="#000000" fill-rule="nonzero"></path>
            <path d="M800.194,370.159 L785.828,372.514 C784.281,372.768 783.221,374.212 783.44,375.764 L786.793,399.482 C786.903,400.25 787.317,400.942 787.942,401.402 C788.567,401.861 789.35,402.05 790.116,401.926 L823.136,396.527 C824.699,396.273 825.764,394.804 825.52,393.238 L822.625,374.645 C822.497,373.817 822.015,373.086 821.304,372.642 L814.589,368.435 C813.951,368.036 813.181,367.902 812.445,368.062 L809.872,368.616" id="Path" stroke="#000000" stroke-width="0.437572"></path>
            <path d="M812.593,370.769 C812.85,372.201 813.052,373.659 813.374,375.083 C813.549,375.864 813.832,376.747 814.553,377.193 C815.41,377.737 816.482,377.36 817.362,377.047 C818.735,376.555 820.078,375.983 821.384,375.332 C821.633,375.212 821.414,374.839 821.169,374.963 C820.127,375.473 819.068,375.945 817.983,376.352 C816.898,376.76 815.205,377.605 814.295,376.352 C813.789,375.641 813.712,374.611 813.566,373.779 L813.005,370.658 C812.958,370.388 812.546,370.503 812.576,370.773 L812.593,370.769 Z" id="Path" fill="#000000" fill-rule="nonzero"></path>
            <path d="M792.993,334.529 C797.702,331.878 801.93,328.453 805.501,324.396 C805.681,324.191 805.377,323.886 805.197,324.092 C801.647,328.122 797.442,331.524 792.761,334.156 C792.521,334.294 792.74,334.662 792.98,334.529 L792.993,334.529 Z" id="Path" fill="#000000" fill-rule="nonzero"></path>
            <path d="M769.75,346.235 C770.13,347.266 770.351,348.349 770.406,349.447 C770.329,350.543 770.087,351.621 769.69,352.646 C769.608,352.912 770.02,353.023 770.119,352.762 C770.525,351.699 770.77,350.582 770.848,349.447 C770.793,348.311 770.566,347.191 770.174,346.124 C770.093,345.858 769.681,345.974 769.746,346.235 L769.75,346.235 Z" id="Path" fill="#000000" fill-rule="nonzero"></path>
            <path d="M776.013,350.412 C775.953,350.672 776.031,350.944 776.219,351.133 C776.281,351.193 776.373,351.211 776.453,351.177 C776.532,351.143 776.584,351.065 776.583,350.978 C776.653,350.353 776.574,349.719 776.352,349.13 C776.258,348.873 775.842,348.984 775.923,349.246 C776.128,349.793 776.201,350.381 776.138,350.961 L776.506,350.811 C776.417,350.737 776.38,350.618 776.412,350.507 C776.463,350.236 776.047,350.121 775.983,350.395 L776.013,350.412 Z" id="Path" fill="#000000" fill-rule="nonzero"></path>
            <path d="M795.265,342.229 C795.41,345.346 795.883,348.439 796.676,351.457 C796.707,351.576 796.828,351.647 796.946,351.616 C797.064,351.585 797.135,351.464 797.105,351.346 C796.324,348.364 795.857,345.308 795.711,342.229 C795.711,341.955 795.282,341.955 795.282,342.229 L795.265,342.229 Z" id="Path" fill="#000000" fill-rule="nonzero"></path>
            <path d="M769.031,352.603 C769.031,352.603 776.677,356.642 797.634,351.23" id="Path" stroke="#000000" stroke-width="0.437572"></path>
            <path d="M771.883,310.577 C771.214,312.584 770.764,314.801 771.78,316.782 C772.596,318.29 773.956,319.429 775.584,319.968 C779.306,321.281 783.144,319.076 785.189,315.993 C785.344,315.762 784.971,315.564 784.821,315.774 C782.934,318.618 779.452,320.702 775.983,319.634 C774.396,319.168 773.052,318.104 772.235,316.666 C771.206,314.758 771.664,312.614 772.312,310.663 C772.398,310.401 771.986,310.29 771.883,310.551 L771.883,310.577 Z" id="Path" fill="#000000" fill-rule="nonzero"></path>
            <path d="M764.898,324.246 C759.916,321.016 755.25,317.323 750.961,313.217 C747.337,309.701 742.608,305.168 743.993,299.585 C744.932,295.794 747.295,292.273 749.464,289.087 C751.797,285.657 754.361,282.415 756.969,279.203 C758.289,277.578 759.623,275.957 760.944,274.331 C762.136,272.865 763.517,271.381 764.409,269.704 C765.931,266.844 764.28,263.499 765.987,260.699" id="Path" stroke="#000000" stroke-width="0.437572"></path>
            <path d="M773.154,267.023 C773.102,268.923 772.349,270.736 771.04,272.114 C770.279,272.896 769.714,273.847 769.389,274.888 C768.059,279 764.826,288.709 762.528,293.121 C759.547,298.803 757.052,300.84 757.052,300.84 C760.474,303.161 764.098,305.17 767.879,306.844 C774.783,309.798 774.11,310.579 774.11,310.579" id="Path" stroke="#000000" stroke-width="0.437572"></path>
            <path d="M755.109,302.212 C756.066,301.791 756.945,301.211 757.708,300.497 C757.909,300.308 757.605,300.004 757.403,300.192 C756.665,300.879 755.815,301.436 754.89,301.839 C754.637,301.946 754.856,302.319 755.109,302.208 L755.109,302.212 Z" id="Path" fill="#000000" fill-rule="nonzero"></path>
            <path d="M761.063,321.253 C761.043,318.565 761.365,315.885 762.019,313.277 C762.65,310.79 763.469,307.775 765.257,305.863 C765.445,305.661 765.141,305.357 764.952,305.558 C763.198,307.437 762.354,310.348 761.706,312.78 C760.975,315.544 760.615,318.394 760.634,321.253 C760.634,321.372 760.73,321.468 760.848,321.468 C760.967,321.468 761.063,321.372 761.063,321.253 Z" id="Path" fill="#000000" fill-rule="nonzero"></path>
            <path d="M769.328,352.707 C769.328,352.707 751.163,391.378 742.784,419.148 C734.846,445.508 729.387,476.207 728.843,479.265 C728.815,479.429 728.733,479.58 728.611,479.694 L724.323,483.643 C724.107,483.854 724.039,484.175 724.151,484.456 C724.262,484.737 724.531,484.924 724.833,484.929 L743.054,484.929 C743.459,484.957 743.813,484.656 743.852,484.252 C744.014,481.439 745.104,470.603 752.394,458.677 C759.564,446.94 764.456,433.921 764.692,424.86 C764.785,422.05 765.546,419.303 766.913,416.846 C771.03,409.316 779.259,394.118 782.192,387.66" id="Path" fill="#FFFFFF"></path>
            <path d="M769.328,352.707 C769.328,352.707 751.163,391.378 742.784,419.148 C734.846,445.508 729.387,476.207 728.843,479.265 C728.815,479.429 728.733,479.58 728.611,479.694 L724.323,483.643 C724.107,483.854 724.039,484.175 724.151,484.456 C724.262,484.737 724.531,484.924 724.833,484.929 L743.054,484.929 C743.459,484.957 743.813,484.656 743.852,484.252 C744.014,481.439 745.104,470.603 752.394,458.677 C759.564,446.94 764.456,433.921 764.692,424.86 C764.785,422.05 765.546,419.303 766.913,416.846 C771.03,409.316 779.259,394.118 782.192,387.66" id="Path" stroke="#000000" stroke-width="0.437572"></path>
            <path d="M767.967,259.599 C767.459,260.353 767.155,261.226 767.084,262.133 C767.084,262.412 767.513,262.408 767.513,262.133 C767.581,261.301 767.866,260.501 768.341,259.813 C768.495,259.586 768.122,259.385 767.967,259.599 Z" id="Path" fill="#000000" fill-rule="nonzero"></path>
            <path d="M770.285,258.991 C769.542,259.665 769.12,260.622 769.123,261.624 C769.123,261.743 769.219,261.839 769.337,261.839 C769.456,261.839 769.552,261.743 769.552,261.624 C769.548,260.736 769.924,259.889 770.585,259.296 C770.791,259.107 770.486,258.807 770.285,258.991 Z" id="Path" fill="#000000" fill-rule="nonzero"></path>
            <path d="M771.722,259.979 C770.932,261.339 770.677,262.944 771.006,264.482 C771.062,264.752 771.474,264.636 771.435,264.366 C771.131,262.94 771.371,261.451 772.108,260.193 C772.146,260.127 772.146,260.045 772.108,259.978 C772.069,259.912 771.998,259.871 771.921,259.871 C771.844,259.871 771.773,259.912 771.735,259.979 L771.722,259.979 Z" id="Path" fill="#000000" fill-rule="nonzero"></path>
            <path d="M771.955,263.526 C771.599,264.22 771.282,265.005 770.69,265.528 C770.25,265.907 769.907,266.387 769.691,266.926 C769.588,267.179 770.004,267.291 770.12,267.038 C770.411,266.317 770.977,265.996 771.406,265.412 C771.761,264.884 772.069,264.326 772.328,263.744 C772.457,263.496 772.084,263.281 771.959,263.526 L771.955,263.526 Z" id="Path" fill="#000000" fill-rule="nonzero"></path>
            <path d="M776.617,373.988 C782.191,379.49 781.806,387.312 784.786,404.636 C787.68,421.463 809.735,471.133 813.727,478.933 C813.907,479.29 813.86,479.718 813.607,480.027 L810.914,483.299 C810.666,483.597 810.613,484.013 810.778,484.364 C810.944,484.715 811.298,484.937005 811.686,484.937005 L828.212,484.937005 C828.52,484.937005 828.812,484.797 829.002,484.555 C829.192,484.313 829.26,483.997 829.186,483.698 C827.998,478.843 823.718,461.086 822.972,454.538 C821.356,440.387 817.441,428.719 810.592,418.311 C809.888,417.238 809.498,415.988 809.469,414.705 L809.121,398.8" id="Path" fill="#FFFFFF"></path>
            <path d="M776.617,373.988 C782.191,379.49 781.806,387.312 784.786,404.636 C787.68,421.463 809.735,471.133 813.727,478.933 C813.907,479.29 813.86,479.718 813.607,480.027 L810.914,483.299 C810.666,483.597 810.613,484.013 810.778,484.364 C810.944,484.715 811.298,484.937005 811.686,484.937005 L828.212,484.937005 C828.52,484.937005 828.812,484.797 829.002,484.555 C829.192,484.313 829.26,483.997 829.186,483.698 C827.998,478.843 823.718,461.086 822.972,454.538 C821.356,440.387 817.441,428.719 810.592,418.311 C809.888,417.238 809.498,415.988 809.469,414.705 L809.121,398.8" id="Path" stroke="#000000" stroke-width="0.437572"></path>
            <path d="M797.252,351.207 C797.252,351.207 799.344,354.029 799.773,356.52" id="Path" stroke="#000000" stroke-width="0.437572"></path>
            <path d="M764.009,307.146 C766.724,308.087 769.289,309.414 771.625,311.087 C771.681,311.13 771.732,311.035 771.676,310.997 C769.334,309.316 766.76,307.984 764.035,307.043 C763.97,307.017 763.945,307.124 764.009,307.146 Z" id="Path" fill="#000000" fill-rule="nonzero"></path>
            <path d="M763.038,309.597 C765.246,310.226 767.293,311.321 769.042,312.809 C769.093,312.851 769.17,312.774 769.119,312.731 C767.352,311.232 765.284,310.128 763.055,309.494 C763.037,309.489 763.017,309.495 763.004,309.508 C762.991,309.522 762.986,309.542 762.991,309.56 C762.997,309.578 763.011,309.592 763.03,309.597 L763.038,309.597 Z" id="Path" fill="#000000" fill-rule="nonzero"></path>
            <path d="M769.535,313.202 C769.558,313.208 769.582,313.2 769.596,313.18 C769.609,313.161 769.609,313.135 769.596,313.116 C769.582,313.096 769.558,313.088 769.535,313.094 C769.511,313.101 769.494,313.123 769.494,313.148 C769.494,313.173 769.511,313.195 769.535,313.202 Z" id="Path" fill="#000000" fill-rule="nonzero"></path>
            <path d="M762.115,312.294 C764.178,312.817 765.975,314.074 767.763,315.155 C767.788,315.169 767.819,315.16 767.834,315.135 C767.848,315.11 767.839,315.079 767.814,315.065 C766.005,313.975 764.216,312.715 762.145,312.191 C762.077,312.191 762.047,312.277 762.115,312.294 Z" id="Path" fill="#000000" fill-rule="nonzero"></path>
            <path d="M761.293,315.232 C763.312,315.764 764.779,316.909 766.357,318.213 C766.413,318.26 766.486,318.183 766.434,318.14 C764.848,316.828 763.351,315.661 761.323,315.138 C761.294,315.132 761.265,315.149 761.257,315.177 C761.249,315.206 761.265,315.236 761.293,315.245 L761.293,315.232 Z" id="Path" fill="#000000" fill-rule="nonzero"></path>
            <path d="M761.117,318.51 C762.443,319.403 763.83,320.201 765.268,320.898 C765.333,320.928 765.384,320.834 765.324,320.804 C763.886,320.107 762.499,319.31 761.173,318.42 C761.117,318.381 761.061,318.471 761.117,318.51 Z" id="Path" fill="#000000" fill-rule="nonzero"></path>
            <path d="M771.096,314.031 C768.6,318.517 766.534,323.491 766.688,328.714 C766.769,331.471 767.473,334.207 767.974,336.905 L769.72,345.91 C769.72,345.978 769.835,345.948 769.823,345.88 L768.236,337.732 C767.687,334.898 766.95,332.016 766.791,329.13 C766.516,323.795 768.626,318.697 771.165,314.121 C771.18,314.096 771.173,314.064 771.148,314.048 C771.123,314.033 771.09,314.041 771.075,314.066 L771.096,314.031 Z" id="Path" fill="#000000" fill-rule="nonzero"></path>
            <path d="M772.232,317.578 C766.657,326.386 771.738,336.995 772.528,346.343 C772.528,346.412 772.639,346.412 772.635,346.343 C771.846,336.999 766.734,326.425 772.326,317.613 C772.365,317.557 772.27,317.501 772.232,317.561 L772.232,317.578 Z" id="Path" fill="#000000" fill-rule="nonzero"></path>
            <path d="M774.564,319.661 C771.214,328.392 774.688,337.598 775.563,346.436 C775.563,346.505 775.678,346.505 775.67,346.436 C774.812,337.598 771.317,328.426 774.666,319.691 C774.692,319.626 774.589,319.596 774.564,319.661 Z" id="Path" fill="#000000" fill-rule="nonzero"></path>
            <path d="M777.515,320.505 C775.929,329.219 778.296,337.928 778.935,346.616 C778.935,346.685 779.046,346.685 779.042,346.616 C778.403,337.937 776.04,329.24 777.618,320.531 C777.618,320.462 777.528,320.437 777.515,320.505 Z" id="Path" fill="#000000" fill-rule="nonzero"></path>
            <path d="M780.208,319.755 C780.911,328.541 781.335,337.336 781.756,346.153 C781.762,346.177 781.784,346.193 781.809,346.193 C781.834,346.193 781.856,346.177 781.863,346.153 C781.434,337.349 781.005,328.541 780.315,319.755 C780.315,319.686 780.203,319.686 780.208,319.755 Z" id="Path" fill="#000000" fill-rule="nonzero"></path>
            <path d="M785.02,319.887 C785.9,328.395 786.073,336.961 785.534,345.497 C785.534,345.565 785.637,345.565 785.641,345.497 C786.18,336.961 786.008,328.395 785.127,319.887 C785.127,319.819 785.015,319.819 785.02,319.887 Z" id="Path" fill="#000000" fill-rule="nonzero"></path>
            <path d="M788.161,324.339 C789.855,327.25 789.846,330.646 789.812,333.914 C789.775,337.559 789.737,341.203 789.7,344.845 C789.707,344.869 789.729,344.885 789.754,344.885 C789.779,344.885 789.801,344.869 789.808,344.845 C789.846,340.951 789.902,337.053 789.928,333.159 C789.928,330.115 789.825,326.984 788.255,324.283 C788.221,324.223 788.127,324.283 788.161,324.339 Z" id="Path" fill="#000000" fill-rule="nonzero"></path>
            <path d="M793.169,334.591 C793.206,337.539 793.186,340.487 793.109,343.438 C793.109,343.506 793.212,343.506 793.216,343.438 C793.293,340.487 793.313,337.539 793.276,334.591 C793.269,334.567 793.248,334.551 793.223,334.551 C793.198,334.551 793.176,334.567 793.169,334.591 Z" id="Path" fill="#000000" fill-rule="nonzero"></path>
            <path d="M796.131,338.499 L795.587,342.312 C795.587,342.376 795.681,342.406 795.69,342.337 L796.234,338.534 C796.234,338.465 796.144,338.435 796.131,338.504 L796.131,338.499 Z" id="Path" fill="#000000" fill-rule="nonzero"></path>
            <path d="M790.511,327.348 C791.16,329.592 792.035,331.764 793.123,333.831 C793.153,333.896 793.243,333.831 793.213,333.78 C792.13,331.713 791.26,329.542 790.614,327.301 C790.614,327.232 790.494,327.262 790.511,327.331 L790.511,327.348 Z" id="Path" fill="#000000" fill-rule="nonzero"></path>
            <path d="M791.453,323.078 C792.854,326.246 794.199,329.441 795.488,332.663 C795.514,332.727 795.617,332.701 795.591,332.637 C794.302,329.406 792.954,326.203 791.547,323.027 C791.517,322.963 791.427,323.027 791.453,323.078 Z" id="Path" fill="#000000" fill-rule="nonzero"></path>
            <path d="M791.354,319.237 C793.07,320.476 794.073,322.354 794.918,324.258 C795.91,326.511 796.782,328.816 797.529,331.162 C797.551,331.226 797.658,331.201 797.636,331.132 C796.855,328.672 795.936,326.259 794.883,323.902 C794.06,322.08 793.074,320.33 791.419,319.142 C791.363,319.104 791.307,319.194 791.363,319.237 L791.354,319.237 Z" id="Path" fill="#000000" fill-rule="nonzero"></path>
            <path d="M793.418,317.012 C795.596,317.664 796.947,320.541 797.933,322.428 C798.995,324.481 799.816,326.649 800.382,328.89 C800.382,328.919 800.405,328.942 800.433,328.942 C800.461,328.942 800.484,328.919 800.484,328.89 C800.549,328.637 800.557,328.732 800.463,328.492 C800.437,328.427 800.334,328.453 800.36,328.517 C799.931,327.411 799.678,326.099 799.211,324.941 C798.761,323.835 798.245,322.757 797.667,321.712 C796.707,319.997 795.497,317.522 793.443,316.909 C793.379,316.888 793.349,316.991 793.418,317.012 Z" id="Path" fill="#000000" fill-rule="nonzero"></path>
            <path d="M794.693,314.604 C797.411,314.565 799.521,317.606 800.67,319.75 C801.231,320.809 801.733,321.898 802.171,323.013 C802.557,323.987 802.81,325.303 803.389,326.165 C803.428,326.225 803.522,326.165 803.483,326.114 C803.055,325.475 802.849,324.463 802.574,323.751 C802.354,323.179 802.127,322.617 801.892,322.066 C801.398,320.844 800.8,319.668 800.104,318.549 C798.951,316.748 797.03,314.458 794.693,314.493 C794.669,314.499 794.652,314.521 794.652,314.546 C794.652,314.571 794.669,314.593 794.693,314.6 L794.693,314.604 Z" id="Path" fill="#000000" fill-rule="nonzero"></path>
            <path d="M750.844,415.391 C751.418,415.871 752.099,416.208 752.829,416.373 C752.854,416.373 752.876,416.357 752.883,416.333 C752.89,416.309 752.88,416.283 752.859,416.27 C752.145,416.113 751.48,415.785 750.921,415.314 C750.869,415.271 750.792,415.344 750.844,415.391 Z" id="Path" fill="#000000" fill-rule="nonzero"></path>
            <path d="M751.723,413.997 C752.165,413.958 752.603,414.114 752.919,414.426 C752.971,414.473 753.048,414.396 752.997,414.349 C752.657,414.013 752.186,413.845 751.71,413.89 C751.641,413.89 751.637,414.006 751.71,413.997 L751.723,413.997 Z" id="Path" fill="#000000" fill-rule="nonzero"></path>
            <path d="M753.958,412.745 C753.982,412.738 753.998,412.716 753.998,412.691 C753.998,412.666 753.982,412.644 753.958,412.637 C753.934,412.644 753.918,412.666 753.918,412.691 C753.918,412.716 753.934,412.738 753.958,412.745 Z" id="Path" fill="#000000" fill-rule="nonzero"></path>
            <path d="M753.26,412.471 C753.535,412.437 753.799,412.591 753.903,412.848 C753.929,412.908 754.031,412.882 754.006,412.818 C753.889,412.515 753.583,412.328 753.26,412.364 C753.192,412.364 753.192,412.475 753.26,412.471 Z" id="Path" fill="#000000" fill-rule="nonzero"></path>
            <path d="M796.164,419.892 L797.421,419.609 C797.439,419.604 797.454,419.59 797.459,419.572 C797.464,419.554 797.459,419.534 797.446,419.521 C797.433,419.507 797.414,419.502 797.395,419.506 L796.139,419.789 C796.07,419.789 796.1,419.905 796.164,419.892 Z" id="Path" fill="#000000" fill-rule="nonzero"></path>
            <path d="M794.341,418.176 L796.164,417.494 C796.228,417.468 796.202,417.365 796.138,417.391 L794.316,418.073 C794.251,418.094 794.277,418.197 794.341,418.176 Z" id="Path" fill="#000000" fill-rule="nonzero"></path>
            <path d="M793.67,415.267 L795.63,414.44 C795.694,414.414 795.63,414.32 795.578,414.35 L793.618,415.177 C793.554,415.203 793.618,415.297 793.67,415.267 Z" id="Path" fill="#000000" fill-rule="nonzero"></path>
            <path d="M733.104,457.595 L740.047,458.719 C741.166,458.899 742.289,459.07 743.409,459.263 C744.149,459.349 744.765,459.872 744.969,460.588 C745.072,460.85 744.944,460.961 745.094,461.227 C745.104,461.24 745.119,461.247 745.135,461.247 C745.151,461.247 745.166,461.24 745.175,461.227 C745.355,461.076 745.501,460.889 745.604,460.678 C746.003,459.945 746.749,459.731 747.577,459.885 L751.029,460.524 C751.097,460.524 751.127,460.434 751.059,460.421 L747.808,459.816 C747.354,459.735 746.642,459.46 746.174,459.688 C745.707,459.915 745.746,460.674 745.403,460.833 C745.06,460.991 745.094,459.949 744.871,459.692 C744.489,459.263 743.752,459.199 743.228,459.113 C742.109,458.924 740.986,458.749 739.862,458.569 L733.13,457.492 C733.060876,457.492 733.031,457.582 733.1,457.595 L733.104,457.595 Z" id="Path" fill="#000000" fill-rule="nonzero"></path>
            <path d="M806.099,461.524 C808.089,460.864 810.1,460.238 812.128,459.714 C813.122,459.381 814.151,459.162 815.194,459.063 C816.687,459.02 817.484,459.856 818.23,461.027 C818.245,461.044 818.268,461.051 818.29,461.045 C818.311,461.038 818.327,461.019 818.329,460.997 C818.411,459.942 817.639,458.981 819.225,458.342 C820.028,458.082 820.846,457.868 821.674,457.703 C822.013,457.617 823.423,457.502 822.96,456.846 C822.942,456.833 822.918,456.833 822.9,456.846 C822.707,456.884 822.639,456.983 822.737,457.159 C822.772,457.219 822.862,457.159 822.832,457.103 C822.965,457.352 819.98,458.068 819.757,458.128 C819.281,458.252 818.604,458.329 818.248,458.715 C817.892,459.101 818.02,459.629 818.123,460.13 C818.308,461.022 818.123,460.679 817.772,460.208 C817.578,459.946 817.35,459.713 817.094,459.513 C815.808,458.557 814.092,459.127 812.682,459.487 C810.452,460.059 808.245,460.715 806.061,461.455 C805.996,461.455 806.022,461.58 806.091,461.558 L806.099,461.524 Z" id="Path" fill="#000000" fill-rule="nonzero"></path>
            <path d="M792.531,360.149 C793.697,361.873 795.479,363.085 797.51,363.537 C797.578,363.537 797.604,363.447 797.54,363.434 C795.535,362.989 793.777,361.794 792.626,360.093 C792.587,360.038 792.493,360.093 792.531,360.149 Z" id="Path" fill="#000000" fill-rule="nonzero"></path>
            <path d="M793.86,361.607 C794.22,361.532 794.584,361.476 794.949,361.44 C795.091,361.418 795.235,361.407 795.378,361.406 C795.631,361.406 795.627,361.406 795.687,361.646 C795.767,362.106 795.892,362.557 796.06,362.992 C796.086,363.057 796.18,362.992 796.15,362.941 C795.92,362.436 795.793,361.891 795.777,361.337 C795.777,361.311 795.751,361.281 795.721,361.286 C795.084,361.303 794.45,361.376 793.826,361.504 C793.757,361.504 793.787,361.62 793.856,361.607 L793.86,361.607 Z" id="Path" fill="#000000" fill-rule="nonzero"></path>
            <path d="M769.057,364.746 C769.966,364.459 770.567,363.782 771.201,363.104 C771.836,362.427 772.677,361.663 773.135,360.746 C773.17,360.686 773.075,360.63 773.045,360.69 C772.574,361.485 771.989,362.208 771.309,362.834 C770.64,363.546 769.996,364.339 769.032,364.644 C768.963,364.644 768.993,364.768 769.057,364.746 Z" id="Path" fill="#000000" fill-rule="nonzero"></path>
            <path d="M770.32,363.865 L770.268,362.797 C770.243,362.595 770.233,362.392 770.238,362.188 C770.264,361.948 770.238,361.978 770.487,362.06 C771.033,362.307 771.646,362.364 772.228,362.223 C772.292,362.223 772.262,362.103 772.198,362.12 C771.503,362.33 770.83,362.085 770.183,361.828 C770.152,361.828 770.114,361.828 770.114,361.88 L770.213,363.865 C770.213,363.934 770.324,363.934 770.32,363.865 Z" id="Path" fill="#000000" fill-rule="nonzero"></path>
            <path d="M770.779,346.342 C770.779,346.342 776.405,349.078 784.741,348.915 C793.078,348.752 795.916,347.17 795.916,347.17 C795.916,347.17 795.689,344.597 795.642,344.443 C795.595,344.288 795.861,341.39 794.673,342.655 C794.244,343.083 790.573,345.077 783.905,346.364 C779.951,347.106 770.779,346.342 770.779,346.342 L770.779,346.342 Z" id="Path" fill="#000000" fill-rule="nonzero"></path>
            <path d="M777.9,375.434 C777.9,375.434 778.389,385.588 776.614,391.806 C774.838,398.024 775.37,401.09 775.37,401.09 L780.567,391 C780.567,391 782.557,388.08 781.97,386.484 C781.382,384.889 780.374,377.342 777.9,375.434 Z" id="Path" fill="#000000" fill-rule="nonzero"></path>
            <path d="M790.114,401.915 C790.114,401.915 790.35,407.023 792.026,407.722 C793.703,408.42 809.265,405.41 809.265,405.41 L809.192,402.271 L809.154,400.384 C809.154,400.384 810.264,398.618 807.807,399.021 L790.114,401.915 Z" id="Path" fill="#000000" fill-rule="nonzero"></path>
            <path d="M782.785,353.888 C782.927,353.858 792.991,352.082 796.383,356.966 C799.775,361.851 799.989,365.354 799.981,365.213 C799.972,365.071 799.719,358.879 799.723,358.506 C799.728,358.133 799.882,355.44 799.046,354.321 C798.553,353.668 798.161,352.946 797.884,352.177 C797.884,352.177 797.579,351.019 796.169,351.641" id="Path" fill="#000000" fill-rule="nonzero"></path>
            <path d="M793.285,334.114 C793.285,334.114 792.667,334.453 793.504,335.465 C794.337,336.399 795.22,337.286 796.149,338.124 L794.812,335.036 L794.336,333.93 C794.336,333.93 793.366,333.634 793.285,334.114 Z" id="Path" fill="#000000" fill-rule="nonzero"></path>
            <path d="M767.512,316.152 C765.533,318.088 764.06,320.481 763.224,323.121 L763.85,323.549 C763.85,323.549 764.901,324.943 765.098,322.898" id="Path" fill="#000000" fill-rule="nonzero"></path>
            <path d="M761.281,272.841 C759.36,274.753 763.661,276.52 764.845,277.009 C765.632,277.342 766.451,277.597 767.289,277.768 C767.718,277.849 768.67,278.12 769.052,277.931 C769.643,277.639 769.266,277.198 768.854,276.915 C768.799,276.876 768.747,276.966 768.803,277.005 C769.049,277.642 768.971,277.917 768.571,277.828 C768.272,277.812 767.974,277.779 767.679,277.729 C767.319,277.669 766.963,277.592 766.607,277.498 C765.845,277.289 765.101,277.02 764.382,276.692 C763.224,276.168 759.643,274.62 761.358,272.914 C761.379,272.892 761.378,272.859 761.356,272.839 C761.335,272.819 761.301,272.82 761.281,272.841 Z" id="Path" fill="#000000" fill-rule="nonzero"></path>
            <path d="M761.747,272.62 C761.771,272.613 761.788,272.591 761.788,272.566 C761.788,272.541 761.771,272.519 761.747,272.512 C761.724,272.519 761.707,272.541 761.707,272.566 C761.707,272.591 761.724,272.613 761.747,272.62 Z" id="Path" fill="#000000" fill-rule="nonzero"></path>
            <path d="M760.182,274.454 C759.325,274.578 759.179,275.5 759.569,276.169 C760.311,277.455 762.142,278.394 763.347,279.145 C764.162,279.647 764.981,280.165 765.839,280.59 C766.383,280.86 767.125,281.268 767.725,281.255 C768.553,281.255 768.733,280.418 768.253,279.861 C768.21,279.805 768.133,279.882 768.18,279.934 C767.983,280.952 767.574,281.293 766.954,280.959 L766.246,280.667 C765.89,280.504 765.543,280.32 765.204,280.127 C764.539,279.758 763.887,279.355 763.24,278.956 C762.592,278.557 761.992,278.167 761.396,277.725 C761.057,277.472 760.723,277.207 760.405,276.924 C760.278,276.817 760.156,276.704 760.041,276.585 C759.372,276.036 759.429,275.36 760.213,274.557 C760.277,274.557 760.251,274.445 760.182,274.454 Z" id="Path" fill="#000000" fill-rule="nonzero"></path>
            <path d="M768.227,279.604 C768.251,279.597 768.267,279.575 768.267,279.55 C768.267,279.525 768.251,279.504 768.227,279.497 C768.204,279.49 768.18,279.499 768.166,279.518 C768.152,279.537 768.152,279.563 768.166,279.583 C768.18,279.602 768.204,279.61 768.227,279.604 Z" id="Path" fill="#000000" fill-rule="nonzero"></path>
            <path d="M758.717,276.148 C756.745,277.94 761.256,280.998 762.512,281.769 C763.537,282.4 765.235,283.485 766.522,283.373 C767.324,283.3 767.945,282.648 767.439,281.894 C767.401,281.838 767.306,281.894 767.345,281.945 C768.374,283.48 765.818,283.21 765.201,282.983 C764.772,282.82 764.351,282.635 763.94,282.43 C763.261,282.099 762.606,281.721 761.981,281.298 C760.861,280.539 757.118,277.743 758.794,276.22 C758.846,276.178 758.769,276.1 758.717,276.148 Z" id="Path" fill="#000000" fill-rule="nonzero"></path>
            <path d="M735.857,466.668 C736.653,466.629 737.449,466.733 738.207,466.977 C738.276,466.977 738.302,466.895 738.237,466.874 C737.469,466.629 736.663,466.523 735.857,466.561 C735.833,466.568 735.817,466.59 735.817,466.615 C735.817,466.639 735.833,466.661 735.857,466.668 Z" id="Path" fill="#000000" fill-rule="nonzero"></path>
            <path d="M735.999,469.311 L737.118,469.452 C737.187,469.452 737.182,469.353 737.118,469.345 L735.999,469.203 C735.93,469.203 735.93,469.302 735.999,469.311 Z" id="Path" fill="#000000" fill-rule="nonzero"></path>
            <path d="M735.83,471.555 C736.104,471.688 736.411,471.736 736.712,471.692 C736.781,471.692 736.751,471.581 736.682,471.589 C736.41,471.627 736.132,471.582 735.885,471.461 C735.825,471.431 735.77,471.525 735.83,471.555 Z" id="Path" fill="#000000" fill-rule="nonzero"></path>
            <path d="M813.566,467.228 C814.209,466.832 814.911,466.542 815.646,466.37 C815.71,466.37 815.684,466.25 815.616,466.263 C814.874,466.437 814.163,466.727 813.51,467.12 C813.455,467.159 813.51,467.249 813.566,467.215 L813.566,467.228 Z" id="Path" fill="#000000" fill-rule="nonzero"></path>
            <path d="M814.944,469.73 L816.342,469.301 C816.411,469.301 816.381,469.176 816.316,469.198 L814.918,469.627 C814.89,469.634 814.873,469.663 814.88,469.691 C814.887,469.719 814.916,469.737 814.944,469.73 Z" id="Path" fill="#000000" fill-rule="nonzero"></path>
            <path d="M816.107,472.264 L816.655,471.836 C816.707,471.793 816.655,471.716 816.578,471.759 L816.03,472.187 C815.978,472.23 816.055,472.307 816.107,472.264 Z" id="Path" fill="#000000" fill-rule="nonzero"></path>
            <path d="M778.658,278.167 L779.778,274.535 C779.799,274.47 779.696,274.44 779.675,274.505 L778.556,278.137 C778.556,278.205 778.641,278.231 778.658,278.167 Z" id="Path" fill="#000000" fill-rule="nonzero"></path>
            <path d="M784.774,282.351 L787.591,277.887 C787.6,277.862 787.59,277.834 787.567,277.82 C787.544,277.807 787.514,277.811 787.497,277.832 L784.697,282.3 C784.662,282.356 784.752,282.411 784.791,282.351 L784.774,282.351 Z" id="Path" fill="#000000" fill-rule="nonzero"></path>
            <path d="M790.938,287.125 C792.543,285.763 794.047,284.285 795.436,282.704 C795.483,282.652 795.406,282.575 795.359,282.626 C793.971,284.216 792.468,285.701 790.861,287.069 C790.809,287.116 790.861,287.189 790.938,287.146 L790.938,287.125 Z" id="Path" fill="#000000" fill-rule="nonzero"></path>
            <path d="M796.241,294.412 L801.014,291.937 C801.074,291.907 801.014,291.813 800.958,291.847 L796.168,294.317 C796.108,294.347 796.168,294.442 796.224,294.412 L796.241,294.412 Z" id="Path" fill="#000000" fill-rule="nonzero"></path>
            <path d="M842.564,241.859 C843.33,241.093 844.571,241.093 845.336,241.859 L852.425,248.947 C853.19,249.713 853.19,250.954 852.425,251.72 L845.336,258.808 C844.571,259.574 843.33,259.574 842.564,258.808 L835.476,251.72 C834.71,250.954 834.71,249.713 835.476,248.947 L842.564,241.859 Z" id="Path" fill="#44E0B7" fill-rule="nonzero"></path>
            <circle id="Oval" fill="#82E9CE" fill-rule="nonzero" cx="723.813" cy="268.879" r="8.42203"></circle>
            <polygon id="Path" fill="#8F8FEF" fill-rule="nonzero" points="735.992 356.439 742.368 350.062 740.035 341.348 731.326 339.016 724.945 345.392 727.282 354.102"></polygon>
            <path d="M818.579,264.956 L806.494,278.764 C806.245,279.049 806.167,279.445 806.289,279.803 C806.411,280.161 806.715,280.427 807.086,280.501 L825.097,284.064 C825.468,284.138 825.851,284.008 826.1,283.723 C826.35,283.438 826.428,283.042 826.306,282.683 L820.388,265.312 C820.268,264.949 819.962,264.68 819.587,264.606 C819.212,264.532 818.827,264.666 818.579,264.956 Z" id="Path" fill="#5230A2" fill-rule="nonzero"></path>
            <path d="M739.529,259.47 L739.807,259.192 C739.859,259.14 739.782,259.067 739.73,259.115 L739.451,259.393 C739.404,259.445 739.481,259.518 739.529,259.47 Z" id="Path" fill="#000000" fill-rule="nonzero"></path>
            <path d="M828.327,244.967 C828.349,244.974 828.374,244.965 828.387,244.946 C828.401,244.927 828.401,244.901 828.387,244.881 C828.374,244.862 828.349,244.854 828.327,244.86 C828.303,244.867 828.286,244.889 828.286,244.914 C828.286,244.939 828.303,244.96 828.327,244.967 Z" id="Path" fill="#000000" fill-rule="nonzero"></path>
        </g>
    </g>
</svg>