<?xml version="1.0" encoding="UTF-8"?>
<svg width="538px" height="484px" viewBox="0 0 538 484" version="1.1" xmlns="http://www.w3.org/2000/svg" xmlns:xlink="http://www.w3.org/1999/xlink">
    <title>why-auto-approve-bg</title>
    <g id="Page-3" stroke="none" stroke-width="1" fill="none" fill-rule="evenodd">
        <g id="why-auto-approve-bg" transform="translate(1.000000, 1.000000)">
            <polygon id="Path" fill="#CCCCCC" fill-rule="nonzero" points="147.517 0.072 208.769 0.072 208.769 107.401 147.517 107.401"></polygon>
            <path d="M206.959,342.656 L96.529,342.656 L96.529,205.853 L151.743,205.853 C168.459,205.856 183.529,195.124 189.929,178.661 C196.319,162.198 192.789,143.247 180.969,130.645 C169.159,118.043 151.38,114.272 135.938,121.091 C120.496,127.91 110.428,143.975 110.428,161.795 L-5.68434189e-14,161.795 C-5.68434189e-14,72.582 68.068,1.36424205e-12 151.743,1.36424205e-12 C235.419,1.36424205e-12 303.489,72.582 303.489,161.795 C303.489,230.256 263.419,288.952 206.959,312.5 L206.959,342.656 Z" id="Path" fill="#CCCCCC" fill-rule="nonzero"></path>
            <path d="M184.219,93.075 C156.012,93.075 133.139,102.918 133.139,115.053 C133.197,117.365 133.965,119.593 135.326,121.395 C153.526,112.937 174.799,119.512 185.929,137.039 C213.369,136.654 235.339,126.968 235.339,115.061 C235.309,102.918 212.439,93.075 184.219,93.075 Z" id="Path" fill="#000000" fill-rule="nonzero"></path>
            <polygon id="Path" fill="#CCCCCC" fill-rule="nonzero" points="96.529 374.007 206.959 374.007 206.959 482.035 96.529 482.035"></polygon>
            <path d="M262.169,342.656 L151.743,342.656 L151.743,205.853 L206.959,205.853 C223.669,205.856 238.739,195.124 245.139,178.661 C251.539,162.198 247.999,143.247 236.189,130.645 C224.369,118.043 206.599,114.272 191.149,121.091 C175.709,127.91 165.639,143.975 165.639,161.795 L55.214,161.795 C55.214,72.582 123.289,1.36424205e-12 206.959,1.36424205e-12 C290.619,1.36424205e-12 358.709,72.582 358.709,161.795 C358.709,230.256 318.629,288.952 262.169,312.5 L262.169,342.656 Z" id="Path" fill="#E9E9E9" fill-rule="nonzero"></path>
            <path d="M248.279,161.795 C248.479,145.916 240.649,131.152 227.779,123.151 C214.919,115.149 199.009,115.149 186.139,123.151 C173.279,131.152 165.439,145.916 165.639,161.795" id="Path" stroke="#000000" stroke-width="0.751209"></path>
            <polygon id="Path" fill="#E9E9E9" fill-rule="nonzero" points="151.743 374.007 262.169 374.007 262.169 482.035 151.743 482.035"></polygon>
            <path d="M206.959,1.36424205e-12 C205.569,1.36424205e-12 204.169,1.36424205e-12 202.779,0.071 L155.939,0.071 C154.547,0.024 153.156,1.36424205e-12 151.757,1.36424205e-12 C150.359,1.36424205e-12 148.967,1.36424205e-12 147.583,0.071 L147.532,0.071 C65.815,2.465 0.015,74.089 0.015,161.764 L165.659,161.764 C165.649,149.267 170.639,137.359 179.369,129.017 C192.099,141.206 196.469,160.507 190.339,177.546 C184.219,194.584 168.869,205.831 151.757,205.821 L96.543,205.821 L96.543,342.656 L262.189,342.656 L262.189,312.508 C318.639,288.897 358.709,230.256 358.709,161.795 C358.709,72.582 290.659,1.36424205e-12 206.959,1.36424205e-12 Z" id="Path" stroke="#000000" stroke-width="0.751209"></path>
            <polygon id="Path" stroke="#000000" stroke-width="0.751209" points="151.743 374.007 96.529 374.007 96.529 482.035 151.743 482.035 206.959 482.035 262.169 482.035 262.169 374.007 206.959 374.007"></polygon>
            <path d="M423.689,127.462 L425.259,130.885 C425.319,130.995 425.469,130.885 425.419,130.783 L423.839,127.36 C423.789,127.251 423.639,127.36 423.689,127.462 Z" id="Path" fill="#000000" fill-rule="nonzero"></path>
            <path d="M432.819,118.859 C432.859,122.175 433.079,125.485 433.479,128.773 C433.479,128.891 433.679,128.898 433.669,128.773 C433.259,125.485 433.029,122.175 432.989,118.859 C432.979,118.816 432.939,118.785 432.899,118.785 C432.849,118.785 432.819,118.816 432.799,118.859 L432.819,118.859 Z" id="Path" fill="#000000" fill-rule="nonzero"></path>
            <path d="M447.779,121.93 L445.139,129.779 C445.089,129.897 445.279,129.952 445.309,129.834 L447.959,122.024 C447.989,121.906 447.819,121.851 447.779,121.969 L447.779,121.93 Z" id="Path" fill="#000000" fill-rule="nonzero"></path>
            <path d="M453.359,143.521 C456.349,140.215 459.519,137.099 462.849,134.189 C462.939,134.11 462.849,133.977 462.719,134.055 C459.379,136.963 456.219,140.076 453.229,143.38 C453.199,143.421 453.209,143.474 453.239,143.508 C453.269,143.542 453.319,143.548 453.359,143.521 Z" id="Path" fill="#000000" fill-rule="nonzero"></path>
            <path d="M426.909,158.773 C425.849,161.837 425.109,165.017 424.709,168.255 C424.299,170.496 424.069,172.77 424.029,175.052 C423.939,177.348 424.519,179.617 425.679,181.551 C426.909,183.373 428.849,184.507 430.959,184.644 C433.579,184.912 436.199,184.101 438.269,182.376 C438.639,182.054 438.119,181.504 437.749,181.818 C434.619,184.487 428.999,184.958 426.379,181.261 C423.929,177.76 424.759,172.737 425.369,168.742 C425.789,165.409 426.559,162.137 427.659,158.985 C427.839,158.514 427.119,158.31 426.919,158.773 L426.909,158.773 Z" id="Path" fill="#000000" fill-rule="nonzero"></path>
            <path d="M435.169,170.045 C435.189,170.059 435.209,170.078 435.219,170.1 L435.159,170.022 L435.199,170.1 L435.169,170.006 C435.169,170.04 435.169,170.074 435.169,170.108 L435.169,170.006 L435.169,170.108 L435.169,170.006 C435.159,170.052 435.149,170.096 435.129,170.139 L435.169,170.045 L435.089,170.179 L435.149,170.1 C435.129,170.133 435.099,170.162 435.069,170.187 L435.149,170.124 L435.099,170.124 L435.189,170.085 L435.289,170.085 L435.389,170.085 L435.479,170.124 L435.549,170.187 L435.609,170.265 L435.649,170.359 L435.649,170.532 C435.639,170.519 435.639,170.506 435.649,170.493 L435.609,170.587 C435.639,170.53 435.669,170.475 435.699,170.422 L435.819,170.242 C435.859,170.143 435.859,170.034 435.819,169.935 C435.799,169.838 435.739,169.756 435.649,169.708 C435.569,169.661 435.459,169.661 435.369,169.708 C435.279,169.735 435.199,169.8 435.149,169.888 L435.039,170.053 L434.949,170.21 C434.869,170.345 434.859,170.511 434.909,170.658 C434.949,170.747 435.009,170.821 435.089,170.869 L435.199,170.917 L435.299,170.917 C435.379,170.911 435.459,170.887 435.529,170.846 C435.569,170.819 435.619,170.785 435.649,170.744 C435.709,170.684 435.759,170.618 435.799,170.548 C435.839,170.474 435.879,170.395 435.899,170.312 C435.899,170.27 435.899,170.228 435.899,170.187 C435.899,170.148 435.899,170.108 435.899,170.069 C435.889,169.949 435.869,169.83 435.819,169.723 C435.809,169.698 435.789,169.675 435.779,169.653 C435.749,169.601 435.709,169.553 435.669,169.512 C435.599,169.439 435.499,169.397 435.399,169.394 C435.309,169.396 435.209,169.438 435.149,169.512 C435.079,169.585 435.039,169.686 435.039,169.79 C435.039,169.895 435.079,169.995 435.149,170.069 L435.169,170.045 Z" id="Path" fill="#000000" fill-rule="nonzero"></path>
            <path d="M427.719,169.096 L427.769,169.151 L427.709,169.073 L427.749,169.159 L427.719,169.065 C427.719,169.099 427.719,169.133 427.719,169.167 L427.719,169.065 L427.719,169.167 L427.719,169.065 C427.709,169.11 427.699,169.155 427.679,169.198 L427.719,169.104 C427.699,169.149 427.669,169.191 427.639,169.229 L427.699,169.151 C427.679,169.186 427.649,169.218 427.619,169.245 L427.699,169.182 L427.649,169.182 L427.739,169.182 L427.839,169.182 L427.939,169.182 L428.029,169.182 L428.099,169.245 L428.159,169.324 L428.199,169.418 L428.199,169.52 L428.199,169.622 L428.199,169.583 L428.159,169.677 C428.179,169.618 428.219,169.562 428.249,169.512 L428.369,169.332 C428.409,169.233 428.409,169.124 428.369,169.025 C428.349,168.927 428.289,168.843 428.199,168.79 C428.119,168.739 428.019,168.724 427.919,168.751 C427.829,168.78 427.749,168.844 427.699,168.931 L427.589,169.096 C427.559,169.149 427.529,169.204 427.499,169.261 C427.419,169.393 427.409,169.556 427.459,169.7 C427.489,169.793 427.559,169.871 427.639,169.92 C427.669,169.944 427.709,169.96 427.749,169.967 L427.849,169.967 C427.929,169.962 428.009,169.938 428.079,169.897 C428.119,169.87 428.169,169.835 428.199,169.795 C428.259,169.734 428.309,169.669 428.349,169.598 C428.389,169.525 428.419,169.445 428.449,169.363 C428.449,169.321 428.449,169.279 428.449,169.237 C428.449,169.196 428.449,169.154 428.449,169.112 C428.439,168.994 428.409,168.879 428.369,168.774 C428.359,168.746 428.349,168.719 428.329,168.696 L428.219,168.562 C428.149,168.49 428.049,168.448 427.949,168.445 C427.749,168.449 427.589,168.622 427.579,168.837 C427.589,168.941 427.629,169.04 427.699,169.112 L427.719,169.096 Z" id="Path" fill="#000000" fill-rule="nonzero"></path>
            <path d="M442.669,173.351 C444.359,172.962 445.769,171.721 446.449,170.023 C446.829,169.107 446.719,168.037 446.149,167.236 C445.539,166.547 444.619,166.28 443.769,166.546 C442.839,166.849 442.089,167.605 441.749,168.586 C441.699,168.796 441.809,169.012 442.009,169.073 C442.199,169.12 442.399,169 442.459,168.798 C442.749,167.917 443.499,167.301 444.369,167.228 C444.789,167.198 445.209,167.364 445.509,167.682 C445.809,168.001 445.959,168.442 445.939,168.892 C445.829,169.833 445.399,170.698 444.729,171.318 C444.099,171.948 443.319,172.384 442.469,172.582 C442.009,172.691 442.209,173.453 442.669,173.366 L442.669,173.351 Z" id="Path" fill="#000000" fill-rule="nonzero"></path>
            <path d="M444.859,168.735 C444.689,168.551 444.429,168.485 444.199,168.562 C443.939,168.661 443.709,168.852 443.569,169.104 C443.179,169.651 442.919,170.281 442.789,170.948 C442.789,171.066 442.939,171.121 442.959,170.996 C443.079,170.433 443.289,169.9 443.599,169.426 C443.719,169.185 443.909,168.982 444.129,168.837 C444.319,168.707 444.569,168.736 444.729,168.908 C444.809,169.002 444.939,168.861 444.859,168.766 L444.859,168.735 Z" id="Path" fill="#000000" fill-rule="nonzero"></path>
            <path d="M444.059,169.745 C443.999,169.566 443.829,169.456 443.649,169.479 C443.449,169.517 443.279,169.639 443.169,169.816 C443.149,169.846 443.149,169.883 443.169,169.913 C443.179,169.944 443.209,169.963 443.239,169.964 C443.279,169.965 443.309,169.948 443.319,169.918 C443.359,169.858 443.409,169.806 443.459,169.761 C443.519,169.718 443.579,169.689 443.639,169.675 L443.789,169.675 C443.789,169.693 443.789,169.712 443.789,169.73 C443.789,169.848 443.999,169.793 443.959,169.675 L444.059,169.745 Z" id="Path" fill="#000000" fill-rule="nonzero"></path>
            <path d="M442.879,172.728 C442.619,178.615 442.709,184.513 443.159,190.388 C443.199,190.883 443.939,190.891 443.889,190.388 C443.449,184.513 443.359,178.615 443.619,172.728 C443.619,172.511 443.449,172.335 443.249,172.335 C443.049,172.335 442.879,172.511 442.879,172.728 Z" id="Path" fill="#000000" fill-rule="nonzero"></path>
            <path d="M429.469,184.244 C429.569,186.944 429.839,189.668 429.729,192.376 C429.729,192.878 430.469,192.878 430.469,192.376 C430.569,189.668 430.309,186.944 430.209,184.244 C430.209,183.742 429.469,183.734 429.469,184.244 Z" id="Path" fill="#000000" fill-rule="nonzero"></path>
            <path d="M431.129,168.742 C430.679,170.071 430.369,171.443 430.179,172.839 C430.129,173.056 430.249,173.279 430.449,173.338 C430.659,173.396 430.859,173.268 430.919,173.051 C431.099,171.652 431.409,170.277 431.849,168.946 C431.889,168.806 431.849,168.657 431.749,168.555 C431.659,168.454 431.519,168.415 431.389,168.453 C431.249,168.492 431.149,168.602 431.119,168.742 L431.129,168.742 Z" id="Path" fill="#000000" fill-rule="nonzero"></path>
            <path d="M437.689,166.215 C437.189,165.768 436.559,165.514 435.899,165.492 C435.699,165.497 435.539,165.67 435.539,165.885 C435.539,166.102 435.699,166.277 435.899,166.277 L436.109,166.277 L436.209,166.277 C436.339,166.306 436.459,166.342 436.579,166.387 L436.679,166.387 L436.719,166.387 L436.879,166.474 L437.049,166.591 C437.079,166.608 437.109,166.629 437.129,166.654 C437.089,166.615 437.079,166.615 437.129,166.654 C437.279,166.789 437.499,166.781 437.629,166.637 C437.769,166.493 437.779,166.261 437.659,166.105 L437.689,166.215 Z" id="Path" fill="#000000" fill-rule="nonzero"></path>
            <path d="M429.799,165.579 C429.299,165.137 428.669,164.886 428.019,164.864 C427.819,164.864 427.649,165.04 427.649,165.257 C427.649,165.474 427.819,165.649 428.019,165.649 L428.229,165.649 L428.279,165.649 C428.219,165.649 428.209,165.649 428.279,165.649 L428.379,165.649 C428.509,165.674 428.629,165.711 428.749,165.759 L428.839,165.799 L428.899,165.799 L429.049,165.885 L429.219,165.995 L429.309,166.058 C429.369,166.133 429.469,166.176 429.569,166.176 C429.659,166.176 429.759,166.133 429.819,166.058 C429.889,165.984 429.929,165.884 429.929,165.779 C429.929,165.674 429.889,165.574 429.819,165.5 L429.799,165.579 Z" id="Path" fill="#000000" fill-rule="nonzero"></path>
            <path d="M437.979,182.093 C437.979,182.093 434.519,187.996 430.019,190.421 L429.979,187.76 L429.839,184.244 C429.839,184.244 429.439,184.055 430.569,184.299 C433.109,184.879 437.069,183.137 437.979,182.093 Z" id="Path" fill="#000000" fill-rule="nonzero"></path>
            <path d="M431.379,176.575 C431.629,176.387 431.889,176.227 432.159,176.097 L432.219,176.097 L432.319,176.097 L432.539,176.018 C432.689,175.971 432.829,175.94 432.979,175.908 C433.179,175.847 433.289,175.631 433.239,175.422 C433.219,175.302 433.159,175.195 433.069,175.13 C432.969,175.065 432.849,175.048 432.749,175.084 C432.109,175.206 431.519,175.474 430.989,175.869 C430.819,175.986 430.769,176.221 430.859,176.411 C430.969,176.593 431.189,176.655 431.369,176.552 L431.379,176.575 Z" id="Path" fill="#000000" fill-rule="nonzero"></path>
            <path d="M424.709,160.759 C424.539,161.18 424.539,161.657 424.719,162.073 C424.899,162.489 425.229,162.807 425.639,162.949 C428.539,163.938 435.059,165.303 440.169,159.966 C440.419,159.706 440.819,159.706 441.059,159.966 C441.279,160.192 441.319,160.551 441.149,160.822 C440.199,162.329 437.579,167.195 442.099,168.671 C442.099,168.671 443.439,166.622 444.999,166.905 C446.559,167.187 446.139,169.746 446.139,169.746 C446.139,169.746 444.599,172.391 444.209,172.438 C443.819,172.485 442.739,172.093 442.879,173.545 C442.989,174.848 442.369,188.459 442.709,201.229 C442.789,203.843 444.689,205.983 447.129,206.206 C449.669,206.501 452.229,206.28 454.689,205.554 L453.899,198.56 L456.449,204.84 C456.449,204.84 459.009,204.235 462.389,200.868 C462.749,200.519 462.819,199.947 462.559,199.51 C460.589,196.284 452.759,182.744 451.019,168.584 C449.769,158.443 445.349,155.665 443.579,154.95 C443.089,154.754 442.619,154.473 442.209,154.118 C440.829,152.917 437.299,150.39 432.829,151.308 C428.529,152.242 425.809,157.933 424.709,160.759 Z" id="Path" fill="#000000" fill-rule="nonzero"></path>
            <path d="M424.589,178.74 C424.589,178.458 421.189,194.36 423.339,200.624 C424.239,203.281 426.129,205.421 428.559,206.526 C429.179,206.823 429.889,206.753 430.439,206.341 C430.989,205.93 431.299,205.239 431.239,204.525 C430.919,200.396 430.399,192.641 430.509,186.848 C430.569,183.324 430.209,183.874 428.759,183.363 C427.309,182.853 424.549,179.588 424.589,178.74 Z" id="Path" fill="#000000" fill-rule="nonzero"></path>
            <path d="M418.759,216.285 C418.759,216.285 390.609,201.905 382.089,174.684 C375.779,154.48 428.529,143.405 428.759,143.366 C429.919,143.162 430.799,142.275 431.849,141.796 C433.159,141.182 434.579,140.872 436.009,140.884607 C439.849,140.932 443.299,143.397 444.799,147.165" id="Path" stroke="#000000" stroke-width="0.751209"></path>
            <path d="M401.349,173.169 C403.629,176.732 406.429,179.885 409.639,182.51 C411.269,183.858 412.999,185.086 414.789,186.183 C415.739,186.764 416.719,187.313 417.729,187.831 C418.749,188.349 419.689,188.71 420.619,189.244 C422.489,190.193 423.829,192.04 424.209,194.213 C424.259,194.715 424.939,194.503 424.939,194.009 C424.639,192.121 423.639,190.442 422.169,189.346 C421.419,188.779 420.609,188.31 419.749,187.949 C418.739,187.47 417.749,186.968 416.809,186.419 C413.059,184.342 409.609,181.684 406.599,178.53 C404.919,176.776 403.409,174.849 402.099,172.777 C401.839,172.361 401.199,172.777 401.459,173.169 L401.349,173.169 Z" id="Path" fill="#000000" fill-rule="nonzero"></path>
            <path d="M396.669,174.213 C402.059,174.213 406.849,171.544 411.059,168.153 C415.399,164.668 419.239,160.516 423.699,157.211 C426.089,155.36 428.749,153.956 431.579,153.059 C431.789,153.001 431.909,152.777 431.849,152.561 C431.799,152.344 431.589,152.216 431.379,152.274 C426.269,153.781 421.999,157.353 418.009,160.955 C414.029,164.558 409.989,168.64 405.169,171.159 C402.539,172.597 399.629,173.373 396.669,173.428 C396.469,173.428 396.299,173.603 396.299,173.82 C396.299,174.037 396.469,174.213 396.669,174.213 Z" id="Path" fill="#000000" fill-rule="nonzero"></path>
            <path d="M406.679,207.666 C408.839,202.172 411.049,196.583 414.249,191.638 C415.139,190.239 416.129,188.905 417.189,187.643 C417.509,187.266 416.989,186.709 416.669,187.086 C412.789,191.622 410.139,197.109 407.829,202.69 C407.189,204.26 406.549,205.829 405.929,207.454 C405.749,207.917 406.459,208.121 406.659,207.666 L406.679,207.666 Z" id="Path" fill="#000000" fill-rule="nonzero"></path>
            <path d="M437.379,146.521 C437.999,146.613 438.569,146.973 438.939,147.518 C439.429,148.092 439.849,148.724 440.199,149.402 C440.299,149.591 440.529,149.656 440.709,149.547 C440.879,149.439 440.949,149.198 440.839,149.01 C440.439,148.238 439.939,147.524 439.369,146.883 C438.879,146.222 438.159,145.807 437.369,145.737 C437.169,145.737 436.999,145.912 436.999,146.129 C436.999,146.346 437.169,146.521 437.369,146.521 L437.379,146.521 Z" id="Path" fill="#000000" fill-rule="nonzero"></path>
            <path d="M441.789,147.792 C442.269,148.762 442.549,149.833 442.609,150.931 C442.609,151.146 442.779,151.32 442.979,151.324 C443.179,151.324 443.349,151.148 443.349,150.931 C443.279,149.696 442.969,148.49 442.419,147.399 C442.199,146.952 441.559,147.352 441.789,147.792 Z" id="Path" fill="#000000" fill-rule="nonzero"></path>
            <path d="M444.979,149.331 L445.039,149.473 L444.999,149.378 C445.079,149.574 445.129,149.78 445.159,149.991 L445.159,149.889 C445.169,150.037 445.169,150.187 445.159,150.336 C445.159,150.553 445.319,150.728 445.529,150.728 C445.729,150.72 445.889,150.549 445.889,150.336 C445.909,149.851 445.809,149.37 445.609,148.939 C445.559,148.848 445.479,148.782 445.379,148.755 C445.289,148.729 445.189,148.744 445.109,148.798 C444.929,148.907 444.869,149.145 444.969,149.331 L444.979,149.331 Z" id="Path" fill="#000000" fill-rule="nonzero"></path>
            <path d="M440.949,151.167 L440.729,151.347 L440.669,151.395 L440.559,151.489 L440.089,151.842 C439.779,152.062 439.449,152.266 439.109,152.454 C438.939,152.569 438.879,152.806 438.979,152.996 C439.089,153.179 439.309,153.241 439.489,153.137 C440.199,152.731 440.859,152.252 441.479,151.708 C441.619,151.556 441.619,151.312 441.479,151.159 C441.339,151.008 441.109,151.008 440.959,151.159 L440.949,151.167 Z" id="Path" fill="#000000" fill-rule="nonzero"></path>
            <path d="M458.589,195.35 C462.139,193.208 466.349,194.95 469.129,197.666 C472.069,200.523 474.159,204.377 475.859,208.16 C476.759,210.146 477.539,212.203 478.339,214.228 C479.149,216.253 480.009,218.419 480.799,220.507 C482.409,224.63 483.739,228.868 484.789,233.191 C485.849,237.504 486.309,241.961 486.159,246.417 C486.169,247.433 485.909,248.432 485.429,249.306 C484.809,250.118 484.029,250.784 483.159,251.26 C481.409,252.389 479.549,253.307 477.619,254 C473.719,255.343 469.679,256.158 465.589,256.425 C461.149,256.787 456.679,256.73 452.249,256.252 C449.999,256.017 447.769,255.687 445.549,255.263 C444.499,255.067 443.439,254.761 442.379,254.627 C441.569,254.604 440.769,254.659 439.969,254.792 C439.149,254.839 438.319,254.776 437.519,254.604 C436.499,254.384 435.549,253.937 434.569,253.67 C433.369,253.299 432.099,253.269 430.889,253.583 C430.719,253.634 430.549,253.705 430.389,253.795 C429.969,254.039 430.349,254.722 430.759,254.47 L430.819,254.47 C430.959,254.409 431.099,254.359 431.239,254.321 C431.779,254.192 432.339,254.152 432.889,254.204 C433.829,254.298 434.759,254.525 435.649,254.879 C436.579,255.236 437.539,255.471 438.519,255.577 C439.259,255.649 439.999,255.633 440.729,255.53 C441.169,255.448 441.619,255.408 442.069,255.412 C442.679,255.48 443.299,255.596 443.899,255.758 C446.109,256.221 448.349,256.598 450.609,256.88 C455.149,257.466 459.729,257.621 464.299,257.343 C468.549,257.15 472.769,256.413 476.859,255.145 C478.799,254.519 480.669,253.688 482.459,252.665 C484.089,251.708 485.999,250.624 486.599,248.599 C486.839,247.626 486.949,246.622 486.929,245.617 C486.929,244.486 486.929,243.356 486.859,242.234 C486.729,239.957 486.439,237.694 486.009,235.46 C485.099,230.958 483.839,226.547 482.229,222.273 C480.679,218.003 478.989,213.78 477.279,209.589 C475.709,205.505 473.519,201.719 470.809,198.38 C468.269,195.413 464.729,193.129 460.829,193.734 C459.909,193.881 459.029,194.206 458.219,194.691 C458.049,194.799 457.989,195.04 458.089,195.229 C458.189,195.417 458.419,195.482 458.589,195.374 L458.589,195.35 Z" id="Path" fill="#000000" fill-rule="nonzero"></path>
            <path d="M440.029,238.726 C441.159,239.125 442.129,239.915 442.789,240.97 C443.249,241.812 443.889,242.521 444.659,243.035 C445.659,243.553 446.949,243.404 448.039,243.404 C449.389,243.404 450.749,243.349 452.099,243.223 C454.779,242.988 457.439,242.532 460.059,241.857 C462.749,241.115 465.399,240.219 467.999,239.173 C470.699,238.129 473.459,236.936 476.379,237.533 C476.839,237.627 477.039,236.873 476.579,236.748 C474.029,236.222 471.589,236.92 469.219,237.839 C466.689,238.812 464.169,239.801 461.589,240.586 C458.949,241.377 456.249,241.939 453.529,242.266 C452.139,242.423 450.769,242.532 449.379,242.572 C448.699,242.572 448.019,242.572 447.339,242.572 C446.689,242.606 446.039,242.561 445.389,242.438 C444.299,242.124 443.779,240.955 443.129,240.084 C442.399,239.061 441.389,238.304 440.249,237.917 C440.039,237.859 439.829,237.987 439.779,238.204 C439.719,238.42 439.849,238.644 440.049,238.702 L440.029,238.726 Z" id="Path" fill="#000000" fill-rule="nonzero"></path>
            <path d="M430.539,250.577 C430.649,250.491 430.769,250.413 430.899,250.342 L431.099,250.24 C431.099,250.24 431.229,250.169 431.099,250.24 L431.189,250.2 C431.459,250.097 431.739,250.021 432.019,249.973 C432.109,249.946 432.189,249.881 432.239,249.792 C432.309,249.654 432.299,249.481 432.209,249.355 C432.119,249.229 431.959,249.176 431.819,249.219 C431.209,249.316 430.639,249.555 430.129,249.918 C429.959,250.026 429.889,250.267 429.999,250.455 C430.099,250.644 430.319,250.709 430.499,250.601 L430.539,250.577 Z" id="Path" fill="#000000" fill-rule="nonzero"></path>
            <path d="M429.869,247.296 C430.559,246.775 431.409,246.548 432.239,246.661 C432.439,246.707 432.629,246.588 432.689,246.386 C432.719,246.285 432.709,246.177 432.659,246.085 C432.609,245.994 432.529,245.927 432.439,245.899 C431.409,245.733 430.349,245.988 429.489,246.614 C429.319,246.731 429.269,246.965 429.359,247.155 C429.459,247.342 429.689,247.404 429.869,247.296 Z" id="Path" fill="#000000" fill-rule="nonzero"></path>
            <path d="M429.199,243.254 C432.299,242.367 435.619,241.465 438.769,242.752 C439.049,242.862 439.279,242.532 439.219,242.265 L437.749,235.444 L437.019,231.865 C436.959,231.512 436.849,231.169 436.709,230.845 C436.229,229.887 435.239,229.349 434.229,229.495 C432.019,229.808 429.849,230.327 427.669,230.743 L424.429,231.363 C424.039,231.415 423.659,231.546 423.309,231.747 C422.459,232.3 422.009,233.35 422.169,234.4 C422.389,235.821 422.739,237.226 423.029,238.639 L424.839,247.571 L426.449,255.931 L426.929,258.285 C427.039,259.276 427.629,260.132 428.479,260.546 C429.329,260.907 430.329,260.609 431.199,260.475 L435.389,259.832 L439.069,259.259 C439.299,259.259 439.549,259.204 439.809,259.149 C440.799,258.913 441.539,258.046 441.679,256.975 C441.709,256.304 441.609,255.635 441.399,255.004 C441.339,254.788 441.129,254.659 440.929,254.718 C440.719,254.776 440.599,255 440.659,255.216 C440.919,255.864 440.979,256.585 440.839,257.273 C440.579,257.917 440.019,258.362 439.359,258.434 L436.699,258.843 C434.369,259.204 432.059,259.628 429.729,259.926 C428.769,260.081 427.879,259.379 427.719,258.356 L427.369,256.59 L425.849,249.102 L422.899,234.706 C422.899,234.596 422.849,234.479 422.829,234.361 C422.659,233.408 423.209,232.478 424.099,232.242 C424.769,232.061 425.489,231.975 426.169,231.841 L433.659,230.405 C433.849,230.405 434.029,230.327 434.229,230.303 C435.109,230.168 435.949,230.779 436.149,231.708 C436.339,232.493 436.489,233.278 436.659,234.11 L438.359,241.959 L438.479,242.501 L438.939,242.014 C435.699,240.687 432.219,241.606 429.009,242.524 C428.799,242.581 428.679,242.802 428.729,243.019 C428.789,243.235 428.989,243.365 429.199,243.309 L429.199,243.254 Z" id="Path" fill="#000000" fill-rule="nonzero"></path>
            <path d="M463.369,230.954 C464.099,232.175 464.689,233.478 465.139,234.839 L466.789,239.07 C466.979,239.525 467.689,239.329 467.529,238.858 L465.819,234.478 C465.359,233.102 464.759,231.786 464.029,230.553 C463.749,230.145 463.109,230.553 463.389,230.946 L463.369,230.954 Z" id="Path" fill="#000000" fill-rule="nonzero"></path>
            <path d="M465.059,232.548 C470.389,229 475.829,225.484 481.809,223.286 C482.259,223.129 482.069,222.368 481.619,222.501 C475.569,224.683 470.079,228.247 464.689,231.834 C464.289,232.101 464.689,232.784 465.059,232.517 L465.059,232.548 Z" id="Path" fill="#000000" fill-rule="nonzero"></path>
            <path d="M429.059,197.848 C430.349,200.831 433.419,202.401 436.209,203.343 C439.479,204.525 443.019,204.506 446.279,203.288 C446.719,203.107 446.528936,202.346 446.089,202.503 C443.009,203.669 439.659,203.707 436.559,202.613 C433.889,201.757 430.929,200.305 429.699,197.448 C429.499,196.993 428.869,197.393 429.059,197.848 Z" id="Path" fill="#000000" fill-rule="nonzero"></path>
            <path d="M420.969,209.276 C417.979,215.216 416.859,222.026 417.789,228.695 C418.289,232.227 419.529,235.571 420.179,239.072 C420.529,240.849 420.609,242.675 420.419,244.48 C420.199,246.316 419.689,248.106 419.629,249.974 C419.489,252.815 420.929,256.575 424.039,256.575 C424.249,256.575 424.409,256.399 424.409,256.183 C424.409,255.966 424.249,255.79 424.039,255.79 C422.849,255.732 421.759,255.008 421.189,253.883 C420.519,252.648 420.219,251.217 420.359,249.793 C420.469,248.027 420.919,246.324 421.129,244.574 C421.319,242.909 421.269,241.224 420.989,239.574 C420.459,236.207 419.269,233.004 418.669,229.653 C417.479,222.831 418.519,215.781 421.609,209.676 C421.839,209.237 421.199,208.836 420.969,209.284 L420.969,209.276 Z" id="Path" fill="#000000" fill-rule="nonzero"></path>
            <path d="M424.039,256.172 C425.269,257.907 426.249,262.302 425.019,266.086 C421.099,278.283 408.689,313.181 399.429,357.631 C388.499,410.165 388.299,461.844 388.389,470.824 C388.399,471.69 388.009,472.508 387.359,473.021 L382.149,477.127 C381.269,477.827 380.909,479.049 381.249,480.161 C381.589,481.273 382.569,482.027 383.659,482.032 L404.859,482.032 C406.099,482.029 407.159,481.076 407.379,479.772 C408.549,472.37 412.849,448.045 421.659,425.824 C427.159,411.978 429.699,395.44 430.879,382.779 C432.209,368.324 435.639,354.177 441.059,340.849 C446.389,327.757 452.229,312.694 453.059,307.569" id="Path" stroke="#000000" stroke-width="0.751209"></path>
            <path d="M448.659,286.25 C451.049,289.556 452.409,293.578 452.539,297.749 C453.059,314.311 455.249,351.955 469.649,372.198 C487.439,397.206 506.999,373.172 530.559,298.079 C530.679,297.702 530.939,297.401 531.289,297.254 L534.839,295.928 C535.249,295.776 535.559,295.399 535.639,294.94 C535.719,294.481 535.569,294.011 535.239,293.707 C532.419,291.108 526.229,285.904 520.429,284.507 C518.809,284.155 517.179,284.985 516.419,286.54 C514.009,291.422 507.519,303.377 495.299,318.455 C490.349,324.586 487.529,332.347 487.319,340.433" id="Path" stroke="#000000" stroke-width="0.751209"></path>
            <path d="M488.729,331.281 C490.399,317.006 490.249,302.556 488.299,288.323 C485.699,270.693 476.149,261.635 472.699,258.825 C471.869,258.169 471.319,257.199 471.149,256.117" id="Path" stroke="#000000" stroke-width="0.751209"></path>
            <path d="M389.459,445.748 C392.889,445.622 396.339,445.701 399.759,445.983 C401.459,446.124 403.139,446.313 404.809,446.548 L405.689,446.674 C405.869,446.674 406.069,446.674 406.179,446.854 C406.299,447.035 406.249,447.451 406.269,447.639 L406.349,448.22 L406.689,451.116 C406.689,451.203 406.819,451.266 406.859,451.171 L407.829,449.123 C408.159,448.424 408.409,447.49 409.309,447.553 C410.709,447.692 412.089,447.997 413.429,448.463 C413.539,448.463 413.589,448.314 413.469,448.275 C412.679,448.032 411.869,447.828 411.059,447.655 C410.379,447.436 409.669,447.341 408.949,447.372 C408.349,447.49 408.149,448.087 407.899,448.62 L406.719,451.093 L406.899,451.14 L406.369,446.697 C406.369,446.697 406.369,446.603 406.289,446.595 C400.719,445.721 395.089,445.382 389.469,445.583 C389.419,445.595 389.399,445.635 389.399,445.681 C389.399,445.726 389.419,445.766 389.469,445.779 L389.459,445.748 Z" id="Path" fill="#000000" fill-rule="nonzero"></path>
            <path d="M500.779,311.391 C503.029,310.896 504.909,312.333 506.749,313.455 C507.009,313.663 507.339,313.748 507.659,313.688 C507.979,313.628 508.259,313.43 508.429,313.141 C509.169,312.183 509.909,311.218 510.639,310.253 L510.479,310.182 C510.489,311.93 510.129,313.658 509.429,315.237 C509.399,315.285 509.419,315.343 509.459,315.37 C511.629,316.814 513.839,318.204 515.929,319.766 C516.909,320.471 517.829,321.259 518.699,322.12 C519.099,322.537 519.479,322.977 519.839,323.439 C519.919,323.541 521.069,325.189 520.889,325.237 C520.929,325.212 520.939,325.165 520.929,325.122 C520.919,325.078 520.879,325.048 520.839,325.048 L520.789,325.048 C520.749,325.059 520.719,325.098 520.719,325.142 C520.719,325.394 520.979,325.496 521.099,325.252 C521.209,325.009 521.099,324.962 521.009,324.836 C520.819,324.468 520.599,324.119 520.349,323.792 C519.499,322.615 518.509,321.56 517.409,320.653 C514.879,318.667 512.249,316.833 509.529,315.158 L509.569,315.292 C510.279,313.683 510.649,311.923 510.639,310.143 C510.639,310.105 510.619,310.073 510.579,310.058 C510.549,310.044 510.509,310.049 510.489,310.072 L508.469,312.733 C508.339,312.919 508.199,313.094 508.049,313.259 C507.739,313.522 507.309,313.547 506.979,313.322 C506.549,313.094 506.159,312.788 505.749,312.537 C504.219,311.587 502.509,310.778 500.719,311.171 C500.609,311.171 500.649,311.383 500.769,311.359 L500.779,311.391 Z" id="Path" fill="#000000" fill-rule="nonzero"></path>
            <path d="M464.549,266.66 C467.419,269.267 470.909,270.964 474.639,271.557 C474.759,271.557 474.809,271.385 474.689,271.369 C470.999,270.78 467.529,269.1 464.679,266.518 C464.589,266.44 464.459,266.581 464.549,266.66 Z" id="Path" fill="#000000" fill-rule="nonzero"></path>
            <path d="M427.449,277.121 C430.389,275.421 432.629,272.627 433.749,269.272 C433.749,269.147 433.609,269.1 433.579,269.217 C432.469,272.525 430.249,275.279 427.359,276.949 C427.249,277.012 427.359,277.176 427.449,277.121 Z" id="Path" fill="#000000" fill-rule="nonzero"></path>
            <path d="M406.009,358.246 L413.919,358.246 C413.959,358.233 413.989,358.193 413.989,358.148 C413.989,358.102 413.959,358.062 413.919,358.049 L406.009,358.049 C405.969,358.062 405.939,358.102 405.939,358.148 C405.939,358.193 405.969,358.233 406.009,358.246 Z" id="Path" fill="#000000" fill-rule="nonzero"></path>
            <path d="M405.289,353.644 L412.489,353.644 C412.529,353.632 412.559,353.592 412.559,353.546 C412.559,353.5 412.529,353.46 412.489,353.448 L405.289,353.448 C405.239,353.46 405.219,353.5 405.219,353.546 C405.219,353.592 405.239,353.632 405.289,353.644 Z" id="Path" fill="#000000" fill-rule="nonzero"></path>
            <path d="M480.869,366.604 L484.479,363.55 C484.569,363.472 484.479,363.33 484.339,363.409 L480.739,366.47 C480.649,366.549 480.739,366.682 480.869,366.604 Z" id="Path" fill="#000000" fill-rule="nonzero"></path>
            <path d="M482.949,373.472 C483.709,371.183 485.299,369.318 487.369,368.308 C487.479,368.253 487.369,368.08 487.269,368.135 C485.159,369.167 483.519,371.074 482.749,373.417 C482.709,373.535 482.889,373.59 482.919,373.472 L482.949,373.472 Z" id="Path" fill="#000000" fill-rule="nonzero"></path>
            <path d="M408.929,209.951 C408.929,209.951 418.229,212.628 420.929,210.163 C420.929,210.163 419.609,213.303 419.319,214.237 C419.039,215.171 419.269,216.647 417.449,215.571 C415.629,214.496 408.929,209.951 408.929,209.951 L408.929,209.951 Z" id="Path" fill="#000000" fill-rule="nonzero"></path>
            <path d="M445.919,242.963 C445.919,242.963 457.689,241.762 465.119,233.764 L466.529,237.359 C466.529,237.359 468.049,238.811 465.419,239.714 C462.779,240.616 457.939,241.935 457.939,241.935 L450.539,242.995" id="Path" fill="#000000" fill-rule="nonzero"></path>
            <path d="M465.799,231.599 C466.009,231.458 480.189,227.086 484.559,230.767 L482.599,224.41 C482.599,224.41 482.779,222.275 479.699,223.711 C475.779,225.54 465.799,231.599 465.799,231.599 Z" id="Path" fill="#000000" fill-rule="nonzero"></path>
            <path d="M426.919,256.362 C426.919,256.362 426.189,254.666 425.109,254.627 C424.039,254.588 423.209,254.486 424.699,257.429 C426.189,260.373 425.439,264.768 425.439,264.768 C425.439,264.768 452.939,271.346 472.719,258.842 L471.919,257.979 C471.919,257.979 471.449,255.624 469.859,256.354 C468.269,257.084 458.559,256.817 452.739,256.629 C446.919,256.44 443.949,255.357 443.949,255.357 C443.949,255.357 440.619,254.627 441.259,256.048 C441.889,257.469 440.689,258.669 439.049,258.928 C437.409,259.187 430.579,259.855 430.579,259.855 C430.579,259.855 427.389,261.338 426.919,256.362 Z" id="Path" fill="#000000" fill-rule="nonzero"></path>
            <path d="M449.949,288.284 C449.949,288.284 448.579,304.705 447.139,312.758 C446.259,317.319 446.109,322.004 446.669,326.62 L450.769,315.45 C450.769,315.45 453.029,309.375 452.819,304.517 C452.619,299.658 452.239,288.999 449.949,288.284 Z" id="Path" fill="#000000" fill-rule="nonzero"></path>
            <path d="M393.029,455.183 C393.919,454.963 394.849,455.009 395.719,455.316 C395.909,455.367 396.109,455.247 396.169,455.041 C396.219,454.833 396.099,454.622 395.909,454.555 C394.919,454.213 393.859,454.166 392.839,454.421 C392.639,454.485 392.529,454.699 392.579,454.908 C392.629,455.115 392.829,455.238 393.029,455.183 Z" id="Path" fill="#000000" fill-rule="nonzero"></path>
            <path d="M392.929,459.679 L395.099,459.679 C395.299,459.675 395.459,459.501 395.469,459.286 C395.459,459.071 395.299,458.898 395.099,458.894 L392.929,458.894 C392.729,458.898 392.569,459.071 392.559,459.286 C392.569,459.501 392.729,459.675 392.929,459.679 Z" id="Path" fill="#000000" fill-rule="nonzero"></path>
            <path d="M523.849,312.493 C523.929,312.531 523.999,312.576 524.069,312.626 L524.179,312.704 C524.229,312.704 524.139,312.665 524.179,312.704 L524.219,312.704 L524.409,312.901 L524.489,312.995 L524.489,313.042 C524.489,313.042 524.489,312.995 524.489,313.042 C524.539,313.11 524.579,313.184 524.619,313.262 L524.689,313.387 L524.689,313.442 C524.749,313.616 524.789,313.794 524.819,313.976 C524.839,314.078 524.899,314.164 524.989,314.211 C525.069,314.267 525.179,314.282 525.269,314.251 C525.359,314.224 525.439,314.159 525.489,314.07 C525.539,313.979 525.549,313.873 525.529,313.772 C525.399,312.913 524.889,312.171 524.159,311.778 C523.989,311.67 523.759,311.735 523.659,311.923 C523.559,312.112 523.619,312.353 523.799,312.461 L523.849,312.493 Z" id="Path" fill="#000000" fill-rule="nonzero"></path>
            <path d="M525.019,309.139 C525.149,309.213 525.279,309.294 525.409,309.383 L525.499,309.453 C525.549,309.5 525.449,309.414 525.499,309.453 L525.539,309.453 L525.709,309.618 C525.809,309.727 525.909,309.843 526.009,309.963 C526.059,310.026 525.949,309.893 526.009,309.963 L526.039,310.01 C526.069,310.042 526.089,310.076 526.099,310.113 C526.149,310.177 526.189,310.246 526.229,310.317 C526.329,310.502 526.549,310.565 526.729,310.458 C526.899,310.349 526.959,310.111 526.859,309.924 C526.519,309.286 526.009,308.772 525.389,308.449 C525.209,308.341 524.979,308.403 524.879,308.59 C524.779,308.776 524.839,309.014 525.009,309.124 L525.019,309.139 Z" id="Path" fill="#000000" fill-rule="nonzero"></path>
            <path d="M487.499,337.562 C487.499,337.759 489.589,338.732 491.919,332.46 C493.329,328.89 493.839,324.987 493.389,321.142 C493.389,321.142 486.979,331.974 487.499,337.562 Z" id="Path" fill="#000000" fill-rule="nonzero"></path>
            <ellipse id="Oval" fill="#5230A2" fill-rule="nonzero" cx="351.189" cy="139.77" rx="16.5126" ry="17.6057"></ellipse>
            <path d="M406.319,92.337 L406.319,77.8 C406.319,76.742 405.789,75.766 404.929,75.241 L393.149,67.973 C392.299,67.439 391.239,67.439 390.389,67.973 L378.609,75.241 C377.749,75.769 377.219,76.745 377.219,77.8 L377.219,92.337 C377.229,93.391 377.749,94.364 378.609,94.896 L390.389,102.164 C391.239,102.689 392.299,102.689 393.149,102.164 L404.929,94.896 C405.789,94.367 406.319,93.393 406.319,92.337 Z" id="Path" fill="#9FF0DB" fill-rule="nonzero"></path>
            <path d="M497.809,140.665 L480.879,161.356 C480.519,161.78 480.399,162.378 480.579,162.918 C480.749,163.459 481.189,163.855 481.719,163.954 L506.979,169.236 C507.509,169.356 508.049,169.164 508.399,168.733 C508.749,168.302 508.859,167.701 508.679,167.164 L500.329,141.191 C500.169,140.649 499.739,140.246 499.219,140.137 C498.689,140.028 498.149,140.23 497.809,140.665 Z" id="Path" fill="#44E0B7" fill-rule="nonzero"></path>
            <path d="M466.519,65.544 C467.139,64.878 468.149,64.878 468.779,65.544 L483.789,81.548 C484.409,82.214 484.409,83.293 483.789,83.959 L468.779,99.964 C468.149,100.63 467.139,100.63 466.519,99.964 L451.509,83.959 C450.879,83.293 450.879,82.214 451.509,81.548 L466.519,65.544 Z" id="Path" fill="#8F8FEF" fill-rule="nonzero"></path>
            <path d="M363.119,94.943 C369.359,104.708 375.429,114.595 381.319,124.605 C382.969,127.415 384.609,130.233 386.229,133.059 C386.299,133.161 386.449,133.059 386.399,132.957 C380.609,122.894 374.649,112.952 368.509,103.13 C366.779,100.367 365.039,97.609 363.289,94.857 C363.219,94.755 363.059,94.857 363.119,94.959 L363.119,94.943 Z" id="Path" fill="#000000" fill-rule="nonzero"></path>
            <path d="M393.059,130.611 L393.369,131.286 C393.379,131.328 393.419,131.359 393.459,131.364 C393.499,131.369 393.539,131.346 393.549,131.307 C393.569,131.269 393.559,131.222 393.539,131.191 L393.209,130.508 C393.179,130.475 393.119,130.475 393.089,130.508 C393.059,130.549 393.059,130.609 393.089,130.65 L393.059,130.611 Z" id="Path" fill="#000000" fill-rule="nonzero"></path>
            <path d="M425.759,39.489 L427.589,65.273 L429.339,91.097 L430.349,105.555 C430.349,105.681 430.539,105.681 430.539,105.555 L428.739,79.771 L426.949,53.986 L425.939,39.528 C425.939,39.402 425.749,39.402 425.759,39.528 L425.759,39.489 Z" id="Path" fill="#000000" fill-rule="nonzero"></path>
            <path d="M446.059,98.948 C446.099,98.935 446.129,98.895 446.129,98.85 C446.129,98.804 446.099,98.764 446.059,98.752 C446.019,98.764 445.989,98.804 445.989,98.85 C445.989,98.895 446.019,98.935 446.059,98.948 Z" id="Path" fill="#000000" fill-rule="nonzero"></path>
            <path d="M344.829,139.762 L367.959,160.594 L374.499,166.481 C374.589,166.559 374.719,166.418 374.619,166.339 L351.509,145.516 L344.979,139.629 C344.879,139.55 344.759,139.691 344.839,139.77 L344.829,139.762 Z" id="Path" fill="#000000" fill-rule="nonzero"></path>
            <path d="M368.699,143.491 C370.529,145.639 372.499,147.653 374.589,149.519 C374.679,149.606 374.809,149.464 374.719,149.386 C372.629,147.518 370.669,145.504 368.829,143.358 C368.799,143.319 368.739,143.317 368.699,143.354 C368.659,143.391 368.659,143.452 368.699,143.491 Z" id="Path" fill="#000000" fill-rule="nonzero"></path>
            <path d="M476.279,127.587 C476.319,127.575 476.349,127.535 476.349,127.489 C476.349,127.444 476.319,127.404 476.279,127.391 C476.239,127.379 476.199,127.395 476.179,127.43 C476.159,127.466 476.159,127.513 476.179,127.548 C476.199,127.584 476.239,127.599 476.279,127.587 Z" id="Path" fill="#000000" fill-rule="nonzero"></path>
            <path d="M425.749,235.856 C425.659,235.388 425.959,234.924 426.419,234.819 L427.439,234.59 C427.909,234.486 428.359,234.78 428.449,235.248 L429.239,239.213 C429.329,239.681 429.029,240.145 428.559,240.25 L427.549,240.479 C427.079,240.584 426.629,240.289 426.539,239.821 L425.749,235.856 Z" id="Path" fill="#000000" fill-rule="nonzero"></path>
            <path d="M426.899,230.891 C426.219,228.662 426.159,226.072 427.469,224.086 C428.039,223.207 428.859,222.54 429.799,222.178 C430.709,221.857 431.689,221.864 432.529,221.346 C433.259,220.854 433.909,220.23 434.449,219.502 C435.059,218.702 435.739,217.957 436.469,217.273 C438.049,215.835 439.989,214.906 442.039,214.596 C444.109,214.31 446.209,214.772 447.999,215.907 C449.709,217.043 450.979,218.807 451.549,220.868 C451.829,221.831 451.949,222.836 451.919,223.842 C451.859,224.926 451.559,225.97 451.439,227.037 C451.279,228.005 451.469,229.005 451.979,229.823 C452.489,230.464 453.119,230.981 453.839,231.338 C454.709,231.773 455.509,232.353 456.209,233.057 C456.839,233.793 457.309,234.678 457.569,235.64 C457.829,236.6 457.899,237.609 457.769,238.599 C457.699,239.094 457.569,239.578 457.389,240.043 C457.309,240.274 457.199,240.497 457.079,240.71 C457.019,240.828 456.519,241.629 456.439,241.362 C456.439,241.479 456.659,241.432 456.619,241.307 L456.619,241.252 C456.609,241.22 456.579,241.194 456.549,241.181 C456.189,241.103 456.159,241.872 456.689,241.589 C456.999,241.425 457.219,240.899 457.369,240.593 C457.549,240.209 457.699,239.806 457.809,239.392 C458.259,237.607 458.029,235.708 457.169,234.101 C456.759,233.336 456.209,232.672 455.539,232.155 C454.739,231.542 453.799,231.166 452.989,230.585 C451.969,229.84 451.439,228.538 451.619,227.233 C451.739,226.001 452.109,224.816 452.119,223.568 C452.169,218.989 449.019,215.088 444.759,214.47 C442.649,214.149 440.509,214.53 438.609,215.562 C437.669,216.074 436.799,216.715 436.019,217.469 C435.199,218.254 434.549,219.204 433.779,220.059 C433.379,220.521 432.909,220.918 432.409,221.236 C431.759,221.546 431.069,221.752 430.369,221.849 C429.319,222.085 428.369,222.683 427.669,223.552 C425.989,225.616 425.969,228.505 426.729,230.985 C426.729,231.103 426.939,231.048 426.909,230.93 L426.899,230.891 Z" id="Path" fill="#000000" fill-rule="nonzero"></path>
            <path d="M429.509,230.87 C429.179,229.017 429.319,226.945 430.679,225.532 C432.029,224.12 433.749,224.551 435.339,224.174 C438.209,223.507 439.419,219.975 442.359,219.465 C444.109,219.074 445.939,219.534 447.339,220.721 C448.379,221.83 448.989,223.316 449.039,224.881 C449.159,226.67 448.639,228.311 448.299,230.046 C448.029,231.529 447.979,233.24 448.899,234.496 C449.819,235.752 451.549,236.152 452.589,237.377 C453.749,238.788 454.019,240.803 453.259,242.502 C453.209,242.62 453.369,242.722 453.419,242.604 C453.999,241.291 453.999,239.774 453.419,238.46 C452.779,236.89 451.499,236.294 450.219,235.454 C449.429,234.989 448.819,234.237 448.499,233.334 C448.229,232.341 448.199,231.291 448.409,230.281 C448.719,228.46 449.299,226.757 449.149,224.881 C449.079,223.422 448.559,222.028 447.679,220.917 C446.559,219.724 445.029,219.091 443.449,219.175 C441.889,219.154 440.379,219.785 439.249,220.933 C438.109,222.032 437.039,223.421 435.569,223.915 C433.819,224.465 431.829,223.978 430.419,225.485 C429.009,226.992 428.949,229.064 429.249,230.98 C429.249,231.105 429.449,231.05 429.429,230.925 L429.509,230.87 Z" id="Path" fill="#000000" fill-rule="nonzero"></path>
            <path d="M433.079,229.934 C432.969,229.31 433.269,228.687 433.809,228.427 C434.349,228.127 434.949,227.986 435.559,228.018 C436.469,228.097 437.379,227.818 438.119,227.234 C438.859,226.535 439.419,225.664 440.389,225.232 C441.369,224.801 442.479,224.832 443.439,225.318 C444.399,225.83 445.089,226.758 445.359,227.861 C445.679,229.149 445.189,230.263 444.959,231.503 C444.559,233.327 445.129,235.235 446.429,236.488 C447.339,237.273 448.299,237.791 448.799,238.976 C449.039,239.553 449.159,240.18 449.149,240.813 C449.149,241.127 449.109,241.44 449.039,241.747 C449.039,241.888 448.679,242.885 448.489,242.579 C448.429,242.469 448.259,242.579 448.329,242.673 C448.469,242.893 448.679,242.838 448.849,242.673 C449.119,242.295 449.279,241.837 449.289,241.362 C449.439,240.281 449.209,239.182 448.649,238.269 C447.979,237.202 446.819,236.77 446.049,235.828 C445.249,234.785 444.889,233.443 445.029,232.108 C445.139,230.789 445.769,229.588 445.579,228.23 C445.419,227.155 444.879,226.187 444.069,225.522 C443.239,224.879 442.209,224.613 441.199,224.785 C440.149,224.996 439.209,225.597 438.539,226.48 C438.079,227.095 437.449,227.538 436.739,227.744 C435.999,227.901 435.259,227.791 434.529,227.924 C433.619,228.097 432.569,228.905 432.849,230.012 C432.869,230.051 432.919,230.068 432.959,230.056 C432.999,230.043 433.029,230.003 433.029,229.957 L433.079,229.934 Z" id="Path" fill="#000000" fill-rule="nonzero"></path>
            <path d="M436.769,232.335 C437.209,231.99 437.839,232.147 438.239,231.762 C438.379,231.61 438.479,231.427 438.539,231.228 C438.689,230.828 438.969,230.5 439.329,230.31 C440.079,229.962 440.939,230.144 441.509,230.765 C442.089,231.409 442.409,232.273 442.389,233.167 C442.389,233.787 442.139,234.501 442.489,235.051 C442.669,235.282 442.859,235.498 443.069,235.695 C443.289,235.956 443.479,236.252 443.619,236.574 C444.209,237.897 444.089,239.46 443.289,240.655 C443.209,240.757 443.379,240.859 443.439,240.757 C444.029,239.881 444.279,238.795 444.129,237.727 C444.059,237.174 443.889,236.64 443.629,236.158 C443.519,235.956 443.389,235.767 443.239,235.592 C443.039,235.349 442.699,235.122 442.579,234.808 C442.489,234.395 442.489,233.964 442.579,233.552 C442.599,233.222 442.589,232.89 442.539,232.563 C442.479,231.976 442.269,231.417 441.949,230.938 C441.379,230.063 440.329,229.703 439.389,230.059 C438.929,230.257 438.569,230.653 438.389,231.15 C438.239,231.557 437.879,231.832 437.469,231.848 C437.209,231.884 436.959,231.986 436.739,232.147 C436.639,232.217 436.739,232.39 436.819,232.312 L436.769,232.335 Z" id="Path" fill="#000000" fill-rule="nonzero"></path>
            <path d="M437.229,235.138 C437.649,235.406 438.179,235.406 438.599,235.138 C438.869,234.991 439.159,234.893 439.469,234.848 C439.749,234.837 440.019,234.91 440.259,235.06 C441.259,235.753 441.649,237.119 441.169,238.286 C441.119,238.403 441.299,238.45 441.339,238.341 C441.799,237.195 441.499,235.869 440.609,235.067 C440.189,234.713 439.649,234.583 439.139,234.714 C438.579,234.879 437.899,235.436 437.329,234.981 C437.239,234.903 437.149,235.075 437.239,235.146 L437.229,235.138 Z" id="Path" fill="#000000" fill-rule="nonzero"></path>
            <path d="M437.569,237.563 C437.759,237.582 437.939,237.523 438.089,237.399 C438.229,237.32 438.379,237.234 438.519,237.399 C438.649,237.563 438.769,238.042 439.119,238.074 C439.239,238.074 439.239,237.885 439.119,237.877 C438.999,237.87 438.909,237.705 438.859,237.595 C438.789,237.444 438.699,237.31 438.579,237.202 C438.429,237.105 438.249,237.105 438.099,237.202 C437.959,237.281 437.789,237.446 437.619,237.406 C437.449,237.367 437.449,237.571 437.569,237.595 L437.569,237.563 Z" id="Path" fill="#000000" fill-rule="nonzero"></path>
            <ellipse id="Oval" fill="#000000" fill-rule="nonzero" cx="293.759" cy="280.739" rx="68.9327" ry="73.4959"></ellipse>
            <ellipse id="Oval" fill="#FFFFFF" fill-rule="nonzero" cx="294.089" cy="275.073" rx="68.9328" ry="73.4958"></ellipse>
            <path d="M304.669,250.118 L320.699,250.118 C323.819,250.118 325.759,253.708 324.199,256.578 L297.479,305.817 C295.949,308.662 292.099,308.687 290.519,305.867 L282.359,291.284 C281.619,289.942 281.609,288.278 282.339,286.924 L301.179,252.255 C301.899,250.938 303.229,250.118 304.669,250.118 Z" id="Path" fill="#44E0B7" fill-rule="nonzero"></path>
            <path d="M273.019,283.68 C279.019,283.68 283.889,278.491 283.889,272.091 C283.889,265.69 279.019,260.501 273.019,260.501 C267.019,260.501 262.149,265.69 262.149,272.091 C262.149,278.491 267.019,283.68 273.019,283.68 Z" id="Path" fill="#5132A2" fill-rule="nonzero"></path>
        </g>
    </g>
</svg>