<?xml version="1.0" encoding="UTF-8"?>
<svg width="124px" height="94px" viewBox="0 0 124 94" version="1.1" xmlns="http://www.w3.org/2000/svg" xmlns:xlink="http://www.w3.org/1999/xlink">
    <title>v-icon-06</title>
    <g id="Page-3" stroke="none" stroke-width="1" fill="none" fill-rule="evenodd">
        <g id="v-icon-06" transform="translate(0.000000, 0.500000)" fill-rule="nonzero">
            <path d="M118.19,7.75 L116.25,7.75 L116.25,5.812 C116.25,4.271 115.64,2.792 114.55,1.702 C113.46,0.612 111.98,0 110.44,0 C108.9,0 107.42,0.612 106.33,1.702 C105.24,2.792 104.62,4.271 104.62,5.812 L104.62,7.75 L100.75,7.75 L100.75,5.812 C100.75,4.271 100.14,2.792 99.05,1.702 C97.96,0.612 96.48,0 94.94,0 C93.4,0 91.92,0.612 90.83,1.702 C89.74,2.792 89.12,4.271 89.12,5.812 L89.12,7.75 L85.25,7.75 L85.25,5.812 C85.25,4.271 84.64,2.792 83.55,1.702 C82.46,0.612 80.98,0 79.44,0 C77.9,0 76.42,0.612 75.33,1.702 C74.24,2.792 73.62,4.271 73.62,5.812 L73.62,7.75 L50.38,7.75 L50.38,5.812 C50.38,4.271 49.76,2.792 48.67,1.702 C47.58,0.612 46.1,0 44.56,0 C43.02,0 41.54,0.612 40.45,1.702 C39.36,2.792 38.75,4.271 38.75,5.812 L38.75,7.75 L34.88,7.75 L34.88,5.812 C34.88,4.271 34.26,2.792 33.17,1.702 C32.08,0.612 30.6,0 29.06,0 C27.52,0 26.04,0.612 24.95,1.702 C23.86,2.792 23.25,4.271 23.25,5.812 L23.25,7.75 L19.38,7.75 L19.38,5.812 C19.38,4.271 18.76,2.792 17.67,1.702 C16.58,0.612 15.1,0 13.56,0 C12.02,0 10.54,0.612 9.45,1.702 C8.36,2.792 7.75,4.271 7.75,5.812 L7.75,7.75 L5.81,7.75 C4.27,7.75 2.79,8.362 1.7,9.452 C0.61,10.542 0,12.021 0,13.562 L0,25.188 C0,25.701 0.2,26.194 0.57,26.558 C0.93,26.921 1.42,27.125 1.94,27.125 L114.31,27.125 C114.83,27.125 115.32,26.921 115.68,26.558 C116.05,26.194 116.25,25.701 116.25,25.188 C116.25,24.674 116.05,24.181 115.68,23.817 C115.32,23.454 114.83,23.25 114.31,23.25 L3.88,23.25 L3.88,13.562 C3.88,13.049 4.08,12.556 4.44,12.192 C4.81,11.829 5.3,11.625 5.81,11.625 L7.75,11.625 L7.75,13.562 C7.75,15.104 8.36,16.583 9.45,17.673 C10.54,18.763 12.02,19.375 13.56,19.375 C15.1,19.375 16.58,18.763 17.67,17.673 C18.76,16.583 19.38,15.104 19.38,13.562 L19.38,11.625 L23.25,11.625 L23.25,13.562 C23.25,15.104 23.86,16.583 24.95,17.673 C26.04,18.763 27.52,19.375 29.06,19.375 C30.6,19.375 32.08,18.763 33.17,17.673 C34.26,16.583 34.88,15.104 34.88,13.562 L34.88,11.625 L38.75,11.625 L38.75,13.562 C38.75,15.104 39.36,16.583 40.45,17.673 C41.54,18.763 43.02,19.375 44.56,19.375 C46.1,19.375 47.58,18.763 48.67,17.673 C49.76,16.583 50.38,15.104 50.38,13.562 L50.38,11.625 L73.62,11.625 L73.62,13.562 C73.62,15.104 74.24,16.583 75.33,17.673 C76.42,18.763 77.9,19.375 79.44,19.375 C80.98,19.375 82.46,18.763 83.55,17.673 C84.64,16.583 85.25,15.104 85.25,13.562 L85.25,11.625 L89.12,11.625 L89.12,13.562 C89.12,15.104 89.74,16.583 90.83,17.673 C91.92,18.763 93.4,19.375 94.94,19.375 C96.48,19.375 97.96,18.763 99.05,17.673 C100.14,16.583 100.75,15.104 100.75,13.562 L100.75,11.625 L104.62,11.625 L104.62,13.562 C104.62,15.104 105.24,16.583 106.33,17.673 C107.42,18.763 108.9,19.375 110.44,19.375 C111.98,19.375 113.46,18.763 114.55,17.673 C115.64,16.583 116.25,15.104 116.25,13.562 L116.25,11.625 L118.19,11.625 C118.7,11.625 119.19,11.829 119.56,12.192 C119.92,12.556 120.12,13.049 120.12,13.562 L120.12,87.188 C120.12,87.701 119.92,88.194 119.56,88.558 C119.19,88.921 118.7,89.125 118.19,89.125 L5.81,89.125 C5.3,89.125 4.81,88.921 4.44,88.558 C4.08,88.194 3.88,87.701 3.88,87.188 L3.88,32.938 C3.88,32.424 3.67,31.931 3.31,31.567 C2.94,31.204 2.45,31 1.94,31 C1.42,31 0.93,31.204 0.57,31.567 C0.2,31.931 0,32.424 0,32.938 L0,87.188 C0,88.729 0.61,90.207 1.7,91.298 C2.79,92.388 4.27,93 5.81,93 L118.19,93 C119.73,93 121.21,92.388 122.3,91.298 C123.39,90.207 124,88.729 124,87.188 L124,13.562 C124,12.021 123.39,10.542 122.3,9.452 C121.21,8.362 119.73,7.75 118.19,7.75 Z M15.5,13.562 C15.5,14.076 15.3,14.569 14.93,14.933 C14.57,15.296 14.08,15.5 13.56,15.5 C13.05,15.5 12.56,15.296 12.19,14.933 C11.83,14.569 11.62,14.076 11.62,13.562 L11.62,5.812 C11.62,5.299 11.83,4.806 12.19,4.442 C12.56,4.079 13.05,3.875 13.56,3.875 C14.08,3.875 14.57,4.079 14.93,4.442 C15.3,4.806 15.5,5.299 15.5,5.812 L15.5,13.562 Z M31,13.562 C31,14.076 30.8,14.569 30.43,14.933 C30.07,15.296 29.58,15.5 29.06,15.5 C28.55,15.5 28.06,15.296 27.69,14.933 C27.33,14.569 27.12,14.076 27.12,13.562 L27.12,5.812 C27.12,5.299 27.33,4.806 27.69,4.442 C28.06,4.079 28.55,3.875 29.06,3.875 C29.58,3.875 30.07,4.079 30.43,4.442 C30.8,4.806 31,5.299 31,5.812 L31,13.562 Z M46.5,13.562 C46.5,14.076 46.3,14.569 45.93,14.933 C45.57,15.296 45.08,15.5 44.56,15.5 C44.05,15.5 43.56,15.296 43.19,14.933 C42.83,14.569 42.62,14.076 42.62,13.562 L42.62,5.812 C42.62,5.299 42.83,4.806 43.19,4.442 C43.56,4.079 44.05,3.875 44.56,3.875 C45.08,3.875 45.57,4.079 45.93,4.442 C46.3,4.806 46.5,5.299 46.5,5.812 L46.5,13.562 Z M81.38,13.562 C81.38,14.076 81.17,14.569 80.81,14.933 C80.44,15.296 79.95,15.5 79.44,15.5 C78.92,15.5 78.43,15.296 78.07,14.933 C77.7,14.569 77.5,14.076 77.5,13.562 L77.5,5.812 C77.5,5.299 77.7,4.806 78.07,4.442 C78.43,4.079 78.92,3.875 79.44,3.875 C79.95,3.875 80.44,4.079 80.81,4.442 C81.17,4.806 81.38,5.299 81.38,5.812 L81.38,13.562 Z M96.88,13.562 C96.88,14.076 96.67,14.569 96.31,14.933 C95.94,15.296 95.45,15.5 94.94,15.5 C94.42,15.5 93.93,15.296 93.57,14.933 C93.2,14.569 93,14.076 93,13.562 L93,5.812 C93,5.299 93.2,4.806 93.57,4.442 C93.93,4.079 94.42,3.875 94.94,3.875 C95.45,3.875 95.94,4.079 96.31,4.442 C96.67,4.806 96.88,5.299 96.88,5.812 L96.88,13.562 Z M112.38,13.562 C112.38,14.076 112.17,14.569 111.81,14.933 C111.44,15.296 110.95,15.5 110.44,15.5 C109.92,15.5 109.43,15.296 109.07,14.933 C108.7,14.569 108.5,14.076 108.5,13.562 L108.5,5.812 C108.5,5.299 108.7,4.806 109.07,4.442 C109.43,4.079 109.92,3.875 110.44,3.875 C110.95,3.875 111.44,4.079 111.81,4.442 C112.17,4.806 112.38,5.299 112.38,5.812 L112.38,13.562 Z" id="Shape" fill="#200A52"></path>
            <path d="M32.94,83.312 L102.69,83.312 C103.2,83.312 103.69,83.108 104.06,82.745 C104.42,82.382 104.62,81.889 104.62,81.375 L104.62,34.875 C104.62,34.361 104.42,33.868 104.06,33.505 C103.69,33.142 103.2,32.938 102.69,32.938 L21.31,32.938 C20.8,32.938 20.31,33.142 19.94,33.505 C19.58,33.868 19.38,34.361 19.38,34.875 L19.38,81.375 C19.38,81.889 19.58,82.382 19.94,82.745 C20.31,83.108 20.8,83.312 21.31,83.312 L32.94,83.312 Z M84.11,56.188 L89.12,51.177 L89.12,56.188 L84.11,56.188 Z M72.49,56.188 L77.5,51.177 L77.5,56.188 L72.49,56.188 Z M60.86,56.188 L65.88,51.177 L65.88,56.188 L60.86,56.188 Z M49.24,56.188 L54.25,51.177 L54.25,56.188 L49.24,56.188 Z M37.61,56.188 L42.62,51.177 L42.62,56.188 L37.61,56.188 Z M39.89,60.062 L34.88,65.073 L34.88,60.062 L39.89,60.062 Z M31,67.812 L25.99,67.812 L31,62.802 L31,67.812 Z M42.62,62.802 L42.62,67.812 L37.61,67.812 L42.62,62.802 Z M46.5,60.062 L54.25,60.062 L54.25,67.812 L46.5,67.812 L46.5,60.062 Z M58.12,60.062 L65.88,60.062 L65.88,67.812 L58.12,67.812 L58.12,60.062 Z M69.75,60.062 L77.5,60.062 L77.5,67.812 L69.75,67.812 L69.75,60.062 Z M81.38,60.062 L89.12,60.062 L89.12,67.812 L81.38,67.812 L81.38,60.062 Z M93,60.062 L100.75,60.062 L100.75,67.812 L93,67.812 L93,60.062 Z M100.75,56.188 L95.74,56.188 L100.75,51.177 L100.75,56.188 Z M93,53.448 L93,48.438 L98.01,48.438 L93,53.448 Z M81.38,53.448 L81.38,48.438 L86.39,48.438 L81.38,53.448 Z M69.75,53.448 L69.75,48.438 L74.76,48.438 L69.75,53.448 Z M58.12,53.448 L58.12,48.438 L63.14,48.438 L58.12,53.448 Z M46.5,53.448 L46.5,48.438 L51.51,48.438 L46.5,53.448 Z M34.88,53.448 L34.88,48.438 L39.89,48.438 L34.88,53.448 Z M31,56.188 L23.25,56.188 L23.25,48.438 L31,48.438 L31,56.188 Z M23.25,60.062 L28.26,60.062 L23.25,65.073 L23.25,60.062 Z M23.25,71.688 L31,71.688 L31,79.438 L23.25,79.438 L23.25,71.688 Z M34.88,71.688 L42.62,71.688 L42.62,79.438 L34.88,79.438 L34.88,71.688 Z M46.5,71.688 L54.25,71.688 L54.25,79.438 L46.5,79.438 L46.5,71.688 Z M58.12,71.688 L65.88,71.688 L65.88,79.438 L58.12,79.438 L58.12,71.688 Z M69.75,71.688 L77.5,71.688 L77.5,79.438 L69.75,79.438 L69.75,71.688 Z M81.38,71.688 L89.12,71.688 L89.12,79.438 L81.38,79.438 L81.38,71.688 Z M100.75,79.438 L93,79.438 L93,71.688 L100.75,71.688 L100.75,79.438 Z M100.75,44.562 L93,44.562 L93,36.812 L100.75,36.812 L100.75,44.562 Z M89.12,44.562 L81.38,44.562 L81.38,36.812 L89.12,36.812 L89.12,44.562 Z M77.5,44.562 L69.75,44.562 L69.75,36.812 L77.5,36.812 L77.5,44.562 Z M65.88,44.562 L58.12,44.562 L58.12,36.812 L65.88,36.812 L65.88,44.562 Z M54.25,44.562 L46.5,44.562 L46.5,36.812 L54.25,36.812 L54.25,44.562 Z M42.62,44.562 L34.88,44.562 L34.88,36.812 L42.62,36.812 L42.62,44.562 Z M23.25,36.812 L31,36.812 L31,44.562 L23.25,44.562 L23.25,36.812 Z" id="Shape" fill="#44E0B7"></path>
        </g>
    </g>
</svg>