<?xml version="1.0" encoding="UTF-8"?>
<svg width="126px" height="114px" viewBox="0 0 126 114" version="1.1" xmlns="http://www.w3.org/2000/svg" xmlns:xlink="http://www.w3.org/1999/xlink">
    <title>v-icon-02</title>
    <g id="Page-3" stroke="none" stroke-width="1" fill="none" fill-rule="evenodd">
        <g id="v-icon-02" fill-rule="nonzero">
            <g id="Group">
                <path d="M85.622,55.424 L80.573,60.473 C79.811,61.236 79.811,62.472 80.573,63.235 C81.336,63.997 82.572,63.997 83.335,63.235 L88.384,58.186 C89.146,57.423 89.146,56.187 88.384,55.424 C87.621,54.662 86.385,54.662 85.622,55.424 Z" id="Path" fill="#44E0B7"></path>
                <path d="M92.692,61.687 L91.883,60.878 C91.344,60.339 90.47,60.339 89.931,60.878 C89.392,61.417 89.392,62.291 89.931,62.83 L90.74,63.639 C91.279,64.178 92.153,64.178 92.692,63.639 C93.232,63.1 93.232,62.226 92.692,61.687 Z" id="Path" fill="#44E0B7"></path>
                <path d="M95.384,55.424 L94.241,56.567 C93.478,57.33 93.478,58.566 94.241,59.329 C95.003,60.091 96.24,60.091 97.002,59.329 L98.145,58.185 C98.908,57.423 98.908,56.187 98.145,55.424 C97.383,54.662 96.146,54.662 95.384,55.424 Z" id="Path" fill="#44E0B7"></path>
                <path d="M72.761,74.949 C70.83,74.949 68.943,75.522 67.337,76.595 C65.732,77.667 64.481,79.192 63.742,80.976 C63.003,82.76 62.809,84.723 63.186,86.617 C63.563,88.51 64.493,90.25 65.858,91.615 C67.223,92.981 68.963,93.91 70.857,94.287 C72.75,94.664 74.713,94.47 76.497,93.732 C78.281,92.993 79.806,91.741 80.878,90.136 C81.951,88.53 82.524,86.643 82.524,84.712 C82.524,82.123 81.495,79.64 79.664,77.809 C77.834,75.978 75.35,74.949 72.761,74.949 Z M72.761,90.57 C71.603,90.57 70.47,90.226 69.507,89.582 C68.544,88.939 67.793,88.024 67.349,86.954 C66.906,85.883 66.79,84.706 67.016,83.569 C67.242,82.433 67.8,81.389 68.619,80.57 C69.438,79.751 70.482,79.193 71.618,78.967 C72.755,78.741 73.932,78.857 75.003,79.3 C76.073,79.744 76.988,80.495 77.632,81.458 C78.275,82.421 78.619,83.554 78.619,84.712 C78.614,86.264 77.995,87.751 76.898,88.849 C75.8,89.946 74.313,90.565 72.761,90.57 Z" id="Shape" fill="#200A52"></path>
                <path d="M107.907,74.949 C105.976,74.949 104.088,75.522 102.483,76.595 C100.877,77.667 99.626,79.192 98.887,80.976 C98.148,82.76 97.955,84.723 98.332,86.617 C98.708,88.51 99.638,90.25 101.003,91.615 C102.369,92.981 104.108,93.91 106.002,94.287 C107.896,94.664 109.859,94.47 111.643,93.732 C113.427,92.993 114.951,91.741 116.024,90.136 C117.097,88.53 117.669,86.643 117.669,84.712 C117.669,82.123 116.641,79.64 114.81,77.809 C112.979,75.978 110.496,74.949 107.907,74.949 Z M107.907,90.57 C106.748,90.57 105.616,90.226 104.652,89.582 C103.689,88.939 102.938,88.024 102.495,86.954 C102.052,85.883 101.936,84.706 102.162,83.569 C102.388,82.433 102.946,81.389 103.765,80.57 C104.584,79.751 105.628,79.193 106.764,78.967 C107.9,78.741 109.078,78.857 110.148,79.3 C111.219,79.744 112.133,80.495 112.777,81.458 C113.421,82.421 113.764,83.554 113.764,84.712 C113.76,86.264 113.141,87.751 112.043,88.849 C110.946,89.946 109.459,90.565 107.907,90.57 Z" id="Shape" fill="#200A52"></path>
                <path d="M92.287,78.854 L88.381,78.854 C87.303,78.854 86.429,79.729 86.429,80.807 C86.429,81.885 87.303,82.76 88.381,82.76 L92.287,82.76 C93.365,82.76 94.239,81.885 94.239,80.807 C94.239,79.729 93.365,78.854 92.287,78.854 Z" id="Path" fill="#44E0B7"></path>
                <path d="M92.287,86.665 L88.381,86.665 C87.303,86.665 86.429,87.539 86.429,88.617 C86.429,89.696 87.303,90.57 88.381,90.57 L92.287,90.57 C93.365,90.57 94.239,89.696 94.239,88.617 C94.239,87.539 93.365,86.665 92.287,86.665 Z" id="Path" fill="#44E0B7"></path>
                <path d="M117.298,69.853 L117.201,69.092 L119.622,69.092 C121.174,69.087 122.661,68.469 123.759,67.371 C124.856,66.274 125.475,64.787 125.480208,63.234 C125.480208,61.681 124.862,60.191 123.764,59.092 C122.665,57.994 121.175,57.377 119.622,57.377 L115.736,57.377 L115.463,55.21 C114.929,50.96 112.864,47.05 109.654,44.214 C106.444,41.378 102.31,39.81 98.027,39.804 L82.641,39.804 C78.358,39.81 74.224,41.378 71.014,44.214 C67.804,47.05 65.739,50.96 65.205,55.21 L64.932,57.377 L61.046,57.377 C59.913,57.372 58.803,57.697 57.852,58.312 C56.901,58.928 56.15,59.807 55.69,60.842 C55.23,61.878 55.082,63.025 55.263,64.143 C55.445,65.261 55.948,66.302 56.711,67.139 L37.616,67.139 C36.064,67.144 34.576,67.763 33.479,68.86 C32.381,69.958 31.763,71.445 31.758,72.997 L31.758,86.665 L27.853,86.665 L27.853,63.234 L29.806,63.234 C31.358,63.23 32.845,62.611 33.942,61.514 C35.04,60.416 35.659,58.929 35.663,57.377 L35.663,41.757 C35.659,40.205 35.04,38.717 33.942,37.62 C32.845,36.522 31.358,35.904 29.806,35.899 L27.853,35.899 L27.853,30.042 C27.853,29.524 27.647,29.027 27.281,28.661 C26.915,28.295 26.418,28.089 25.901,28.089 L2.47,28.089 C1.953,28.089 1.456,28.295 1.09,28.661 C0.724,29.027 0.518,29.524 0.518,30.042 L0.518,112.048 C0.518,112.565 0.724,113.062 1.09,113.428 C1.456,113.794 1.953,114 2.47,114 L29.806,114 C30.324,114 30.82,113.794 31.186,113.428 C31.552,113.062 31.758,112.565 31.758,112.048 L31.758,104.237 C31.758,103.72 31.552,103.223 31.186,102.857 C30.82,102.491 30.324,102.285 29.806,102.285 L27.853,102.285 L27.853,98.38 L37.616,98.38 C39.168,98.375 40.655,97.757 41.753,96.659 C42.85,95.562 43.469,94.074 43.473,92.522 L43.473,82.76 L45.426,82.76 C45.944,82.76 46.44,82.554 46.807,82.188 C47.173,81.822 47.378,81.325 47.378,80.807 L47.378,76.902 L57.063,76.902 C55.942,79.122 55.308,81.555 55.204,84.04 C55.1,86.525 55.528,89.003 56.46,91.308 C57.392,93.614 58.806,95.694 60.607,97.408 C62.408,99.123 64.555,100.433 66.904,101.25 L66.904,108.142 C66.904,109.696 67.521,111.186 68.619,112.284 C69.718,113.383 71.208,114 72.761,114 C74.315,114 75.805,113.383 76.903,112.284 C78.002,111.186 78.619,109.696 78.619,108.142 L78.619,102.285 L102.049,102.285 L102.049,108.142 C102.049,109.696 102.666,111.186 103.765,112.284 C104.863,113.383 106.353,114 107.907,114 C109.46,114 110.95,113.383 112.049,112.284 C113.147,111.186 113.764,109.696 113.764,108.142 L113.764,101.25 C116.874,100.154 119.612,98.203 121.664,95.623 C123.717,93.042 125.001,89.936 125.37,86.659 C125.739,83.383 125.177,80.068 123.75,77.096 C122.322,74.124 120.086,71.614 117.298,69.853 Z M27.853,39.804 L29.806,39.804 C30.324,39.804 30.82,40.01 31.186,40.376 C31.552,40.742 31.758,41.239 31.758,41.757 L31.758,57.377 C31.758,57.895 31.552,58.391 31.186,58.757 C30.82,59.124 30.324,59.329 29.806,59.329 L27.853,59.329 L27.853,39.804 Z M4.423,31.994 L23.948,31.994 L23.948,86.665 L20.043,86.665 L20.043,72.997 C20.044,71.742 19.632,70.521 18.872,69.522 C18.484,68.984 18.009,68.515 17.466,68.135 C16.583,67.543 15.557,67.201 14.495,67.147 C13.434,67.093 12.378,67.328 11.439,67.827 C10.501,68.326 9.716,69.071 9.168,69.981 C8.62,70.892 8.33,71.934 8.328,72.997 L8.328,92.522 C8.333,94.074 8.951,95.562 10.049,96.659 C11.146,97.757 12.633,98.375 14.185,98.38 L23.948,98.38 L23.948,102.285 L4.423,102.285 L4.423,31.994 Z M27.853,110.095 L4.423,110.095 L4.423,106.19 L27.853,106.19 L27.853,110.095 Z M39.568,92.522 C39.568,93.04 39.363,93.537 38.996,93.903 C38.63,94.269 38.134,94.475 37.616,94.475 L14.185,94.475 C13.668,94.475 13.171,94.269 12.805,93.903 C12.439,93.537 12.233,93.04 12.233,92.522 L12.233,72.997 C12.233,72.479 12.439,71.983 12.805,71.616 C13.171,71.25 13.668,71.0449464 14.185,71.0449464 C14.441,71.043 14.694,71.097 14.927,71.201 C15.173,71.3 15.394,71.453 15.572,71.65 C15.747,71.822 15.887,72.028 15.982,72.255 C16.086,72.488 16.139,72.741 16.138,72.997 L16.138,88.617 C16.138,89.135 16.344,89.632 16.71,89.998 C17.076,90.364 17.573,90.57 18.091,90.57 L33.711,90.57 C34.229,90.57 34.725,90.364 35.091,89.998 C35.458,89.632 35.663,89.135 35.663,88.617 L35.663,82.76 L39.568,82.76 L39.568,92.522 Z M43.473,78.855 L35.663,78.855 L35.663,72.997 C35.663,72.479 35.869,71.983 36.235,71.616 C36.601,71.25 37.098,71.045 37.616,71.045 L43.473,71.045 L43.473,78.855 Z M119.622,61.282 C119.882,61.28 120.141,61.332 120.379,61.437 C120.618,61.541 120.833,61.694 121.008,61.887 C121.191,62.06 121.336,62.269 121.433,62.501 C121.531,62.733 121.579,62.983 121.574,63.234 C121.574,63.752 121.369,64.249 121.002,64.615 C120.636,64.981 120.14,65.187 119.622,65.187 L116.713,65.187 L116.224,61.282 L119.622,61.282 Z M59.699,61.848 C59.872,61.665 60.081,61.521 60.313,61.423 C60.545,61.326 60.794,61.278 61.046,61.282 L64.443,61.282 L63.955,65.187 L61.046,65.187 C60.528,65.187 60.032,64.981 59.665,64.615 C59.299,64.249 59.094,63.752 59.094,63.234 C59.091,62.974 59.144,62.716 59.248,62.477 C59.353,62.238 59.506,62.024 59.699,61.848 Z M47.378,72.997 L47.378,71.045 L61.71,71.045 L61.651,71.103 C60.998,71.643 60.384,72.231 59.816,72.86 C59.777,72.899 59.718,72.938 59.66,72.997 L47.378,72.997 Z M74.714,108.142 C74.714,108.66 74.508,109.157 74.142,109.523 C73.776,109.889 73.279,110.095 72.761,110.095 C72.243,110.095 71.747,109.889 71.381,109.523 C71.014,109.157 70.809,108.66 70.809,108.142 L70.809,102.285 L74.714,102.285 L74.714,108.142 Z M109.859,108.142 C109.859,108.66 109.653,109.157 109.287,109.523 C108.921,109.889 108.424,110.095 107.907,110.095 C107.389,110.095 106.892,109.889 106.526,109.523 C106.16,109.157 105.954,108.66 105.954,108.142 L105.954,102.285 L109.859,102.285 L109.859,108.142 Z M107.907,98.3800119 L72.761,98.3800119 C70.054,98.383 67.407,97.581 65.157,96.076 C62.907,94.572 61.155,92.432 60.123,89.929 C59.091,87.427 58.827,84.674 59.363,82.02 C59.9,79.367 61.213,76.933 63.135,75.028 C63.215,74.945 63.3,74.867 63.389,74.793 C63.701,74.5 64.033,74.208 64.385,73.934 C64.5,73.832 64.624,73.741 64.756,73.661 C65.195,73.322 65.658,73.015 66.142,72.743 C66.279,72.685 66.357,72.548 66.455,72.45 C66.585,72.362 66.703,72.257 66.806,72.138 C66.865,72.04 66.884,71.904 66.943,71.786 C67.021,71.632 67.08,71.468 67.118,71.298 L67.118,71.279 L67.138,71.142 L67.372,69.346 L67.372,69.307 L69.071,55.678 C69.494,52.376 71.105,49.34 73.602,47.138 C76.099,44.935 79.312,43.717 82.641,43.709 L98.027,43.709 C101.356,43.717 104.569,44.935 107.066,47.138 C109.563,49.34 111.174,52.376 111.597,55.678 L113.549,71.279 C113.582,71.583 113.688,71.876 113.858,72.13 C114.028,72.385 114.257,72.596 114.526,72.743 C117.182,74.208 119.276,76.515 120.477,79.3 C121.678,82.086 121.919,85.192 121.16,88.129 C120.402,91.066 118.688,93.668 116.288,95.523 C113.889,97.379 110.94,98.384 107.907,98.3800119 Z" id="Shape" fill="#200A52"></path>
                <path d="M107.708,57.923 C107.122,52.046 102.963,47.614 98.023,47.614 L82.637,47.614 C77.698,47.614 73.539,52.046 72.972,57.748 L70.844,68.721 C70.79,69.003 70.798,69.294 70.869,69.573 C70.94,69.852 71.071,70.111 71.254,70.333 C71.437,70.555 71.666,70.734 71.926,70.857 C72.186,70.98 72.47,71.044 72.758,71.044 L107.903,71.044 C108.191,71.044 108.475,70.98 108.734,70.857 C108.994,70.734 109.224,70.555 109.407,70.333 C109.59,70.111 109.721,69.852 109.792,69.573 C109.863,69.294 109.871,69.003 109.817,68.721 L107.708,57.923 Z M75.12,67.139 L76.838,58.314 C77.229,54.448 79.728,51.519 82.637,51.519 L98.023,51.519 C100.933,51.519 103.432,54.448 103.842,58.49 L105.541,67.139 L75.12,67.139 Z" id="Shape" fill="#200A52"></path>
                <path d="M80.571,3.905 L78.619,3.905 L78.619,1.953 C78.619,0.874 77.745,0 76.666,0 C75.588,0 74.714,0.874 74.714,1.953 L74.714,3.905 L70.809,3.905 L70.809,1.953 C70.809,0.874 69.935,0 68.856,0 C67.778,0 66.904,0.874 66.904,1.953 L66.904,3.905 L59.094,3.905 L59.094,1.953 C59.094,0.874 58.219,0 57.141,0 C56.063,0 55.189,0.874 55.189,1.953 L55.189,3.905 L51.283,3.905 L51.283,1.953 C51.283,0.874 50.409,0 49.331,0 C48.253,0 47.378,0.874 47.378,1.953 L47.378,3.905 L45.426,3.905 C44.908,3.905 44.411,4.111 44.045,4.477 C43.679,4.843 43.473,5.34 43.473,5.858 L43.473,29.288 C43.473,29.806 43.679,30.302 44.045,30.668 C44.411,31.035 44.908,31.24 45.426,31.24 L80.571,31.24 C81.089,31.24 81.586,31.035 81.952,30.668 C82.318,30.302 82.524,29.806 82.524,29.288 L82.524,5.858 C82.524,5.34 82.318,4.843 81.952,4.477 C81.586,4.111 81.089,3.905 80.571,3.905 Z M78.619,27.335 L47.378,27.335 L47.378,7.81 L78.619,7.81 L78.619,27.335 Z" id="Shape" fill="#44E0B7"></path>
                <path d="M64.484,10.446 C64.294,10.243 64.065,10.081 63.809,9.97 C63.554,9.859 63.279,9.802 63,9.802 C62.722,9.802 62.447,9.859 62.192,9.97 C61.936,10.081 61.707,10.243 61.517,10.446 C61.067,10.973 57.143,15.679 57.143,19.525 C57.056,20.316 57.148,21.116 57.411,21.866 C57.675,22.616 58.104,23.298 58.666,23.86 C59.228,24.422 59.91,24.851 60.66,25.115 C61.41,25.378 62.21,25.47 63,25.383 C63.791,25.47 64.591,25.378 65.341,25.115 C66.091,24.851 66.773,24.422 67.335,23.86 C67.897,23.298 68.326,22.616 68.59,21.866 C68.853,21.116 68.945,20.316 68.858,19.525 C68.858,15.679 64.933,10.973 64.484,10.446 Z M63,21.478 C61.438,21.478 61.048,21.244 61.048,19.525 C61.316,17.872 61.987,16.31 63,14.976 C64.008,16.313 64.678,17.874 64.953,19.525 C64.953,21.244 64.563,21.478 63,21.478 Z" id="Shape" fill="#44E0B7"></path>
                <path d="M18.091,59.329 L10.28,59.329 C9.202,59.329 8.328,60.204 8.328,61.282 C8.328,62.36 9.202,63.234 10.28,63.234 L18.09,63.234 C19.169,63.234 20.043,62.36 20.043,61.282 C20.043,60.204 19.169,59.329 18.091,59.329 Z" id="Path" fill="#200A52"></path>
            </g>
        </g>
    </g>
</svg>