<?xml version="1.0" encoding="UTF-8"?>
<svg width="129px" height="96px" viewBox="0 0 129 96" version="1.1" xmlns="http://www.w3.org/2000/svg" xmlns:xlink="http://www.w3.org/1999/xlink">
    <title>v-icon-01</title>
    <g id="Page-3" stroke="none" stroke-width="1" fill="none" fill-rule="evenodd">
        <g id="v-icon-01" transform="translate(0.995000, -0.003000)" fill-rule="nonzero">
            <path d="M64.004,76.005 C62.817,76.005 61.657,76.357 60.67,77.016 C59.684,77.676 58.914,78.613 58.46,79.709 C58.006,80.806 57.887,82.012 58.119,83.176 C58.35,84.34 58.922,85.409 59.761,86.248 C60.6,87.088 61.669,87.659 62.833,87.891 C63.997,88.122 65.204,88.003 66.3,87.549 C67.397,87.095 68.334,86.326 68.993,85.339 C69.652,84.352 70.004,83.192 70.004,82.005 C70.004,80.414 69.372,78.888 68.247,77.763 C67.122,76.637 65.595,76.005 64.004,76.005 Z M64.004,84.006 C63.608,84.006 63.222,83.888 62.893,83.669 C62.564,83.449 62.307,83.136 62.156,82.771 C62.005,82.405 61.965,82.003 62.042,81.615 C62.119,81.227 62.31,80.871 62.59,80.591 C62.869,80.311 63.226,80.121 63.614,80.044 C64.002,79.967 64.404,80.006 64.769,80.158 C65.135,80.309 65.447,80.565 65.667,80.894 C65.887,81.223 66.004,81.61 66.004,82.005 C66.004,82.536 65.793,83.045 65.418,83.42 C65.043,83.795 64.534,84.006 64.004,84.006 Z" id="Shape" fill="#200A52"></path>
            <path d="M15.172,20.002 L6,29.174 C5.219,29.955 5.219,31.221 6,32.002 C6.781,32.783 8.047,32.783 8.828,32.002 L18,22.83 C18.781,22.049 18.781,20.783 18,20.002 C17.219,19.221 15.953,19.221 15.172,20.002 Z" id="Path" fill="#44E0B7"></path>
            <path d="M19.172,28.003 L18.001,29.174 C17.22,29.955 17.22,31.221 18.001,32.002 C18.782,32.783 20.048,32.783 20.829,32.002 L22,30.831 C22.781,30.05 22.781,28.784 22,28.003 C21.219,27.222 19.953,27.222 19.172,28.003 Z" id="Path" fill="#44E0B7"></path>
            <path d="M27.173,20 L24.001,23.172 C23.22,23.954 23.22,25.22 24.001,26.001 C24.782,26.782 26.049,26.782 26.83,26.001 L30.002,22.829 C30.783,22.048 30.783,20.781 30.002,20 C29.221,19.219 27.954,19.219 27.173,20 Z" id="Path" fill="#44E0B7"></path>
            <path d="M10,48.003 L6,48.003 C4.895,48.003 4,48.899 4,50.003 C4,51.108 4.895,52.004 6,52.004 L10,52.004 C11.105,52.004 12,51.108 12,50.003 C12,48.899 11.105,48.003 10,48.003 Z" id="Path" fill="#200A52"></path>
            <path d="M122.965,21.371 C123.644,20.379 124.006,19.204 124.005,18.001 L124.005,6 C124.005,4.409 123.373,2.883 122.248,1.758 C121.122,0.632 119.596,-5.68434189e-14 118.005,-5.68434189e-14 L114.005,-5.68434189e-14 C112.413,-5.68434189e-14 110.887,0.632 109.762,1.758 C108.636,2.883 108.004,4.409 108.004,6 L108.004,8.001 L102.004,8.001 C100.899,8.001 100.004,8.896 100.004,10.001 C100.004,11.105 100.899,12.001 102.004,12.001 L108.004,12.001 L108.004,18.001 C108.003,19.204 108.366,20.379 109.044,21.371 C107.519,22.239 106.249,23.494 105.364,25.009 C104.479,26.525 104.01,28.247 104.004,30.002 L104.004,38.003 L94.217,38.003 C92.771,37.984 91.364,38.475 90.242,39.389 C89.121,40.303 88.357,41.582 88.083,43.003 C87.937,43.864 87.981,44.746 88.212,45.588 C88.442,46.43 88.854,47.211 89.418,47.878 C89.981,48.544 90.684,49.08 91.476,49.447 C92.268,49.814 93.13,50.004 94.003,50.003 L104.004,50.003 L104.004,54.004 C104.004,54.534 104.215,55.043 104.59,55.418 C104.965,55.793 105.474,56.004 106.004,56.004 L108.004,56.004 L108.004,84.374 C106.838,84.786 105.828,85.548 105.112,86.556 C104.396,87.565 104.009,88.769 104.004,90.006 L104.004,94.006 C104.004,94.537 104.215,95.046 104.59,95.421 C104.965,95.796 105.474,96.006 106.004,96.006 L126.005,96.006 C126.536,96.006 127.045,95.796 127.42,95.421 C127.795,95.046 128.005,94.537 128.005,94.006 L128.005,30.002 C128,28.247 127.53,26.525 126.645,25.009 C125.76,23.494 124.491,22.239 122.965,21.371 Z M120.005,56.004 L124.005,56.004 L124.005,84.006 L120.005,84.006 L120.005,56.004 Z M112.004,6 C112.004,5.47 112.215,4.961 112.59,4.586 C112.965,4.211 113.474,4 114.005,4 L118.005,4 C118.535,4 119.044,4.211 119.419,4.586 C119.794,4.961 120.005,5.47 120.005,6 L120.005,8.001 L112.004,8.001 L112.004,6 Z M112.004,18.001 L112.004,12.001 L120.005,12.001 L120.005,18.001 C120.005,18.532 119.794,19.04 119.419,19.416 C119.044,19.791 118.535,20.001 118.005,20.001 L114.005,20.001 C113.474,20.001 112.965,19.791 112.59,19.416 C112.215,19.04 112.004,18.532 112.004,18.001 Z M92.477,45.297 C92.287,45.073 92.148,44.809 92.071,44.525 C91.995,44.24 91.982,43.943 92.033,43.653 C92.152,43.169 92.434,42.74 92.831,42.439 C93.229,42.139 93.719,41.984 94.217,42.003 L112.004,42.003 C112.535,42.003 113.044,41.792 113.419,41.417 C113.794,41.042 114.005,40.533 114.005,40.003 L114.005,34.002 C114.005,33.739 114.057,33.479 114.159,33.236 C114.267,32.989 114.424,32.765 114.619,32.578 C114.793,32.397 115.002,32.254 115.235,32.158 C115.538,32.031 115.869,31.982 116.197,32.013 C116.524,32.045 116.839,32.157 117.113,32.339 C117.387,32.522 117.612,32.769 117.767,33.059 C117.923,33.349 118.005,33.673 118.005,34.002 L118.005,44.003 C118.005,44.533 117.794,45.042 117.419,45.417 C117.044,45.792 116.535,46.003 116.005,46.003 L94.003,46.003 C93.713,46.003 93.426,45.94 93.162,45.818 C92.899,45.696 92.665,45.518 92.477,45.297 Z M116.005,50.003 C117.596,50.003 119.122,49.371 120.248,48.246 C121.373,47.121 122.005,45.594 122.005,44.003 L122.005,34.002 C122.005,32.411 121.373,30.885 120.248,29.759 C119.122,28.634 117.596,28.002 116.005,28.002 C114.767,27.999 113.56,28.386 112.554,29.108 C111.956,29.527 111.439,30.051 111.028,30.654 C110.356,31.641 109.999,32.808 110.004,34.002 L110.004,38.003 L108.004,38.003 L108.004,30.002 C108.004,28.411 108.636,26.884 109.762,25.759 C110.887,24.634 112.413,24.002 114.005,24.002 L118.005,24.002 C119.596,24.002 121.122,24.634 122.248,25.759 C123.373,26.884 124.005,28.411 124.005,30.002 L124.005,52.004 L108.004,52.004 L108.004,50.003 L116.005,50.003 Z M116.005,56.004 L116.005,84.006 L112.004,84.006 L112.004,56.004 L116.005,56.004 Z M108.004,90.006 C108.004,89.476 108.215,88.967 108.59,88.592 C108.965,88.217 109.474,88.006 110.004,88.006 L116.005,88.006 L116.005,92.006 L108.004,92.006 L108.004,90.006 Z M124.005,92.006 L120.005,92.006 L120.005,88.006 L124.005,88.006 L124.005,92.006 Z" id="Shape" fill="#44E0B7"></path>
            <path d="M74.005,40.002 L68.585,40.002 L90.426,17.521 C91.438,16.462 92.002,15.055 92.002,13.591 C92.002,12.127 91.438,10.719 90.426,9.66 C89.389,8.632 87.987,8.055 86.526,8.055 C85.065,8.055 83.663,8.632 82.626,9.66 L54.004,39.122 L54.004,34.002 C53.991,24.988 50.405,16.347 44.031,9.973 C37.657,3.599 29.016,0.013 20.002,-1.13686838e-13 L-2.84217094e-13,-1.13686838e-13 L-2.84217094e-13,4 L20.002,4 C27.956,4.01 35.581,7.174 41.206,12.798 C46.83,18.422 49.994,26.048 50.004,34.002 L50.004,42.003 C50.004,42.533 50.214,43.042 50.59,43.417 C50.965,43.792 51.473,44.003 52.004,44.003 L74.005,44.003 C77.369,44.007 80.619,45.222 83.161,47.425 C85.702,49.629 87.366,52.674 87.846,56.004 L82.006,56.004 C80.414,56.004 78.888,56.636 77.763,57.761 C76.638,58.886 76.005,60.413 76.005,62.004 C76.005,63.595 76.638,65.122 77.763,66.247 C78.888,67.372 80.414,68.004 82.006,68.004 L88.006,68.004 L88.006,72.005 L82.006,72.005 C80.901,72.005 80.006,72.9 80.006,74.005 C80.006,75.109 80.901,76.005 82.006,76.005 L88.006,76.005 L88.006,80.005 L77.866,80.005 C77.846,79.845 77.806,79.705 77.786,79.545 C77.766,79.385 77.706,79.165 77.666,78.985 C77.606,78.725 77.546,78.485 77.466,78.225 C77.428,78.049 77.381,77.876 77.326,77.705 C77.246,77.445 77.145,77.185 77.045,76.925 C76.985,76.785 76.925,76.625 76.865,76.485 C76.745,76.185 76.585,75.885 76.445,75.605 C76.391,75.509 76.344,75.409 76.305,75.305 C76.085,74.925 75.865,74.565 75.625,74.205 C75.583,74.135 75.537,74.068 75.485,74.005 C75.285,73.725 75.065,73.445 74.845,73.165 C74.745,73.045 74.645,72.945 74.545,72.825 C74.365,72.625 74.185,72.405 73.985,72.205 C73.865,72.085 73.745,71.965 73.625,71.865 C73.425,71.685 73.245,71.505 73.045,71.325 C72.905,71.205 72.765,71.105 72.625,71.005 C72.425,70.845 72.225,70.685 72.025,70.545 C71.865,70.445 71.705,70.345 71.565,70.244 C71.345,70.104 71.145,69.964 70.925,69.844 C70.765,69.764 70.605,69.664 70.425,69.584 C70.205,69.464 69.985,69.364 69.745,69.244 C69.585,69.184 69.425,69.104 69.245,69.024 C69.005,68.944 68.765,68.844 68.525,68.764 C68.345,68.704 68.185,68.644 68.005,68.584 C67.745,68.524 67.485,68.444 67.225,68.384 L66.705,68.264 C66.415,68.203 66.121,68.163 65.825,68.144 C65.665,68.124 65.525,68.084 65.385,68.064 C64.925,68.024 64.465,68.004 64.005,68.004 C63.545,68.004 63.085,68.024 62.625,68.064 C62.485,68.084 62.345,68.124 62.185,68.144 C61.889,68.163 61.595,68.203 61.304,68.264 L60.784,68.384 C60.524,68.444 60.264,68.524 60.004,68.584 C59.824,68.644 59.664,68.704 59.484,68.764 C59.244,68.844 59.004,68.944 58.764,69.024 C58.584,69.104 58.424,69.184 58.264,69.244 C58.024,69.364 57.804,69.464 57.584,69.584 C57.412,69.659 57.244,69.746 57.084,69.844 C56.864,69.964 56.664,70.104 56.444,70.244 C56.304,70.345 56.144,70.445 56.004,70.545 C55.789,70.687 55.582,70.84 55.384,71.005 C55.244,71.105 55.104,71.205 54.964,71.325 C54.764,71.505 54.584,71.685 54.384,71.865 C54.264,71.965 54.144,72.085 54.024,72.205 C53.824,72.405 53.644,72.625 53.464,72.825 C53.364,72.945 53.264,73.045 53.164,73.165 C52.944,73.445 52.724,73.725 52.524,74.025 C52.484,74.085 52.424,74.145 52.384,74.205 C52.144,74.565 51.924,74.925 51.704,75.305 C51.665,75.409 51.619,75.509 51.564,75.605 C51.424,75.885 51.264,76.185 51.144,76.485 C51.084,76.625 51.024,76.785 50.964,76.925 C50.864,77.185 50.764,77.445 50.684,77.705 C50.628,77.876 50.581,78.049 50.544,78.225 C50.464,78.485 50.404,78.725 50.344,78.985 C50.304,79.165 50.264,79.365 50.224,79.545 C50.184,79.725 50.164,79.845 50.144,80.005 L-2.84217094e-13,80.005 L-2.84217094e-13,84.005 L50.164,84.005 C50.642,87.335 52.305,90.381 54.847,92.585 C57.389,94.788 60.641,96.001 64.005,96.001 C67.369,96.001 70.62,94.788 73.162,92.585 C75.705,90.381 77.367,87.335 77.846,84.005 L90.006,84.005 C90.537,84.005 91.046,83.795 91.421,83.42 C91.796,83.044 92.006,82.536 92.006,82.005 L92.006,58.004 C91.999,53.232 90.1,48.657 86.726,45.283 C83.352,41.909 78.777,40.01 74.005,40.002 Z M63.005,40.002 L58.744,40.002 L85.486,12.441 C85.621,12.305 85.782,12.197 85.958,12.124 C86.135,12.051 86.325,12.013 86.516,12.013 C86.708,12.013 86.897,12.051 87.074,12.124 C87.251,12.197 87.411,12.305 87.546,12.441 C87.836,12.754 87.996,13.164 87.996,13.591 C87.996,14.017 87.836,14.428 87.546,14.741 L63.005,40.002 Z M64.005,92.006 C62.027,92.006 60.093,91.419 58.449,90.321 C56.804,89.222 55.522,87.66 54.765,85.832 C54.008,84.005 53.81,81.994 54.196,80.054 C54.582,78.114 55.534,76.332 56.933,74.934 C58.332,73.535 60.114,72.583 62.054,72.197 C63.994,71.811 66.004,72.009 67.832,72.766 C69.659,73.523 71.221,74.805 72.32,76.449 C73.419,78.094 74.005,80.027 74.005,82.005 C74.005,84.658 72.952,87.201 71.076,89.077 C69.201,90.952 66.657,92.006 64.005,92.006 Z M88.006,64.004 L82.006,64.004 C81.475,64.004 80.967,63.793 80.592,63.418 C80.216,63.043 80.006,62.534 80.006,62.004 C80.006,61.473 80.216,60.965 80.592,60.59 C80.967,60.215 81.475,60.004 82.006,60.004 L88.006,60.004 L88.006,64.004 Z M48.004,74.005 C48.004,72.9 47.108,72.005 46.003,72.005 L-2.84217094e-13,72.005 L-2.84217094e-13,76.005 L46.003,76.005 C47.108,76.005 48.004,75.109 48.004,74.005 Z M46.003,42.003 L46.003,34.002 C45.997,27.108 43.256,20.498 38.381,15.623 C33.506,10.748 26.896,8.007 20.002,8 L-2.84217094e-13,8 L-2.84217094e-13,12.001 L20.002,12.001 C25.836,12.004 31.43,14.324 35.555,18.449 C39.68,22.574 41.999,28.168 42.003,34.002 L42.003,40.002 L-2.84217094e-13,40.002 L-2.84217094e-13,44.003 L44.003,44.003 C44.534,44.003 45.043,43.792 45.418,43.417 C45.793,43.042 46.003,42.533 46.003,42.003 Z" id="Shape" fill="#200A52"></path>
        </g>
    </g>
</svg>