<?xml version="1.0" encoding="UTF-8"?>
<svg width="211px" height="155px" viewBox="0 0 211 155" version="1.1" xmlns="http://www.w3.org/2000/svg" xmlns:xlink="http://www.w3.org/1999/xlink">
    <title>character-image-pro-01</title>
    <g id="Page-2" stroke="none" stroke-width="1" fill="none" fill-rule="evenodd">
        <g id="character-image-pro-01">
            <polygon id="Path" fill="#FFFFFF" fill-rule="nonzero" points="96 26 100 26 100 31 96 31"></polygon>
            <polygon id="Path" fill="#FFFFFF" fill-rule="nonzero" points="86 10 90 10 90 15 86 15"></polygon>
            <path d="M43.3898699,43 L142.631627,43 C145.614562,43 148.381791,44.5488086 149.935673,47.0968486 L172.368103,83.8885473 L203.281975,93.5810915 C208.059464,95.0799385 211.22515,99.6164489 210.987474,104.622598 L209.584386,134 L0,134 L0,115.164489 C0,98.7471176 5.7122156,82.8393543 16.1579805,70.1691007 L35.503617,46.7171407 C37.44597,44.3589547 40.3380288,43 43.3898699,43 L43.3898699,43 Z" id="Path" fill="#E9E9E9" fill-rule="nonzero"></path>
            <path d="M93.2828493,25.7545486 C90.7746849,25.6450395 88.3592329,25.0775832 86.0345205,24.0621353 L86.0345205,18.2979746 C87.3630685,18.9848953 88.8050411,19.5523515 90.362411,20.020254 C91.9197808,20.4682458 93.2877808,20.6972194 94.4673973,20.6972194 C95.4408767,20.6972194 96.1510137,20.5777549 96.5968219,20.3487813 C97.0554521,20.1098524 97.284274,19.7116375 97.284274,19.1541366 C97.284274,18.7658771 97.1185753,18.4473052 96.7861918,18.1785101 C96.4656438,17.9196704 95.9212055,17.6110539 95.1548493,17.2825266 C94.3983562,16.9440439 93.373589,16.5358737 92.0805479,16.0679712 C90.6257534,15.5204257 89.4520548,14.913148 88.5594521,14.246138 C87.665863,13.5691727 87.0129315,12.802609 86.6016438,11.9763131 C86.2002192,11.1301064 86,10.0847923 86,8.84037075 C86,6.92893924 86.6065753,5.43563337 87.8207123,4.36045314 C89.0348493,3.28527291 90.8545753,2.62821833 93.2828493,2.36937865 L93.2828493,0 L96.8374795,0 L96.8374795,2.33951253 C99.1158356,2.458977 101.411945,3.02643323 103.724822,4.03192585 L101.681205,8.97974597 C99.2884384,7.88465499 97.1294247,7.34706488 95.206137,7.34706488 C94.289863,7.34706488 93.6428493,7.46652935 93.2650959,7.69550292 C92.8991781,7.91452111 92.715726,8.2430484 92.715726,8.68108479 C92.715726,9.05938895 92.8469041,9.37796087 93.1102466,9.63680055 C93.3854247,9.87572949 93.8549041,10.1544799 94.5186849,10.4630965 C95.1834521,10.771713 96.1046575,11.120151 97.284274,11.5283213 C99.6770411,12.3844834 101.395178,13.3601099 102.436712,14.4552008 C103.479233,15.5403364 104,16.9440439 104,18.6663234 C104,20.607621 103.387507,22.1905252 102.161534,23.3951253 C100.948384,24.6096807 99.1730411,25.366289 96.8374795,25.6549949 L96.8374795,29 L93.2828493,29 L93.2828493,25.7545486 Z" id="Path" fill="#44E0B7" fill-rule="nonzero"></path>
            <path d="M204,108.630919 L204,113.369081 C204,115.923398 206.150036,118 208.802455,118 L210.331841,118 L211,104.526462 C211,104.350975 211,104.175487 211,104 L208.791336,104 C206.143971,104.009749 204,106.086351 204,108.630919 L204,108.630919 Z" id="Path" fill="#CCCCCC" fill-rule="nonzero"></path>
            <path d="M204,108 L204,113.057232 C204,115.783559 206.238476,118 209,118" id="Path" stroke="#000000" stroke-width="0.283327"></path>
            <path d="M5,117.31401 L5,110.68599 C5,109.207729 3.68637804,108 2.06758184,108 L0.369588173,108 C0.125659979,110.241546 0.00211193242,112.483092 0,114.753623 L0,120 L2.05279831,120 C2.83315734,120 3.58289335,119.719807 4.13516367,119.217391 C4.68848997,118.714976 5,118.028986 5,117.31401 Z" id="Path" fill="#CCCCCC" fill-rule="nonzero"></path>
            <path d="M173,84 L152.263835,50 L94,50 L94,76.0640047 C93.999003,78.1702877 94.8342374,80.1867293 96.3200964,81.6741045 C97.8059554,83.1614797 99.8226921,84 101.92425,84 L173,84 Z" id="Path" fill="#F4F4F4" fill-rule="nonzero"></path>
            <path d="M170,83.990216 L166.791822,78.7948928 C165.193177,76.2021233 162.779866,74.2061799 159.921113,73.1005839 L157.227669,72.0634761 C156.989109,71.9754197 156.722833,71.9754197 156.488234,72.0732601 C156.253634,72.1808845 156.070507,72.3667812 155.979439,72.6113821 C155.730981,73.129936 155.921036,73.7561143 156.419932,74.0496354 C157.285081,74.6268935 156.760449,75.9379543 156.347672,76.6913251 C156.28036,76.8185176 156.149697,76.9065739 156.005175,76.9065739 C155.861644,76.9163579 155.725041,76.8478697 155.646841,76.7206772 L150.74895,69.1869695 C150.655902,69.0402089 150.478715,68.9717207 150.309446,69.0108568 C150.141168,69.059777 150.017434,69.1967535 150.001596,69.3728662 C149.993677,69.4609225 150.015454,69.5489788 150.061978,69.6174671 L155.256831,77.8654094 C155.34493,78.0023859 155.338991,78.1882826 155.240004,78.3154751 C153.932381,80.0863856 152.826693,81.9942726 151.941747,84 L170,83.990216 Z" id="Path" fill="#CCCCCC" fill-rule="nonzero"></path>
            <path d="M150.168168,70.8142763 L154.446663,77.7838731 C154.53368,77.9226702 154.527814,78.1110377 154.430042,78.2399207 C153.138476,80.0343688 152.046364,81.967614 151.172284,84 L169,84 L165.845881,78.7356246 C164.266866,76.1083939 161.882211,74.085922 159.05856,72.9656312 L156.398189,71.9147389 C156.163536,71.8255122 155.90053,71.8255122 155.668811,71.924653 C155.437092,72.0337079 155.255236,72.2220753 155.166264,72.4699273 C154.919879,72.9953734 155.1076,73.6298744 155.600371,73.9272968 C156.455874,74.5122274 155.936706,75.8407138 155.529975,76.6040978 C155.462512,76.7329808 155.333453,76.8222075 155.191684,76.8222075 C155.048937,76.8321216 154.914012,76.7627231 154.83775,76.6338401 L150,69" id="Path" stroke="#000000" stroke-width="0.283327"></path>
            <path d="M109.223255,74.6911119 C109.368766,71.875148 109.166894,69.8897921 108.885094,68.5324569 C108.562304,67.0535694 107.236303,65.9899859 105.704331,66 L101.840074,66 C100.637041,65.9899859 99.530332,66.6483947 98.9687799,67.7018488 C97.0945484,71.2876447 95.748053,77.4159116 95,81.4271408 C96.5401694,83.0680983 98.706449,84 100.975202,84 L110,84 C109.333925,80.9409312 109.072619,77.8109569 109.223255,74.6911119 Z" id="Path" fill="#CCCCCC" fill-rule="nonzero"></path>
            <path d="M86,76.0640047 L86,50 L32.7373705,50 L15.9093598,70.2941867 C12.418816,74.5067528 9.42964307,79.1086318 7,84 L78.0312119,84 C80.1449914,84 82.1715323,83.1614797 83.6666201,81.6741045 C85.1607052,80.1867293 86,78.1702877 86,76.0640047 Z" id="Path" fill="#F4F4F4" fill-rule="nonzero"></path>
            <path d="M43.5943105,66 L39.9265999,66 C38.7838472,65.9899859 37.7325926,66.6483947 37.2001516,67.7018488 C34.962342,72.1992877 33.5188136,80.7180852 33,84 L45.9732608,84 C46.4696866,80.9206725 46.797717,77.8109569 46.9544318,74.7012413 C47.0916789,71.8852773 46.8999223,69.8999214 46.6322417,68.5425863 C46.3295193,67.04344 45.0592533,65.9899859 43.5943105,66 Z" id="Path" fill="#CCCCCC" fill-rule="nonzero"></path>
            <path d="M109.223255,74.6911119 C109.367741,71.875148 109.16587,69.8897921 108.884069,68.5324569 C108.562304,67.0535694 107.235278,65.9899859 105.703306,66 L101.840074,66 C100.636016,65.9899859 99.530332,66.6483947 98.9687799,67.7018488 C97.0935237,71.2876447 95.748053,77.4159116 95,81.4271408 C96.5401694,83.0680983 98.706449,84 100.974177,84 L110,84 C109.332901,80.9409312 109.071594,77.8109569 109.223255,74.6911119 L109.223255,74.6911119 Z" id="Path" stroke="#000000" stroke-width="0.283327"></path>
            <path d="M43.5943105,66 L39.9265999,66 C38.7838472,65.9899859 37.7325926,66.6483947 37.2001516,67.7018488 C34.962342,72.1992877 33.5188136,80.7180852 33,84 L45.9732608,84 C46.4696866,80.9206725 46.7967436,77.8109569 46.9544318,74.7012413 C47.0916789,71.8852773 46.8999223,69.8999214 46.6322417,68.5425863 C46.3295193,67.04344 45.0592533,65.9899859 43.5943105,66 L43.5943105,66 Z" id="Path" stroke="#000000" stroke-width="0.283327"></path>
            <path d="M173,84 L152.263835,50 L94,50 L94,76.0640047 C93.999003,78.1702877 94.8342374,80.1867293 96.3200964,81.6741045 C97.8059554,83.1614797 99.8226921,84 101.92425,84 L173,84 Z" id="Path" stroke="#000000" stroke-width="0.283327"></path>
            <path d="M0,132 L210,132 L210,136.622283 C210,137.934783 208.880872,139 207.500714,139 L3.67441993,139 C1.65118871,139 0.0110012573,137.440217 0.0110012573,135.519022 L0.0110012573,132 L0,132 Z" id="Path" fill="#F4F4F4" fill-rule="nonzero"></path>
            <path d="M56,134 L47.0836115,134 C46.9702251,125.566225 40.0265599,118.781457 31.5005017,118.781457 C22.9734401,118.781457 16.0297749,125.566225 15.9163885,134 L7,134 C7.14348903,120.708609 18.0707309,110 31.5005017,110 C44.9292691,110 55.856511,120.708609 56,134 Z" id="Path" fill="#F4F4F4" fill-rule="nonzero"></path>
            <circle id="Oval" stroke="#000000" stroke-width="0.283327" fill="#000000" fill-rule="nonzero" cx="32" cy="134" r="20"></circle>
            <circle id="Oval" fill="#CCCCCC" fill-rule="nonzero" cx="32" cy="134" r="10"></circle>
            <circle id="Oval" fill="#E9E9E9" fill-rule="nonzero" cx="32" cy="134" r="7"></circle>
            <path d="M203,134 L194.084432,134 C193.97004,125.566225 187.026233,118.781457 178.5,118.781457 C169.973767,118.781457 163.02996,125.566225 162.915568,134 L154,134 C154.143492,120.708609 165.069954,110 178.5,110 C191.930046,110 202.856508,120.708609 203,134 Z" id="Path" fill="#F4F4F4" fill-rule="nonzero"></path>
            <circle id="Oval" stroke="#000000" stroke-width="0.283327" fill="#000000" fill-rule="nonzero" cx="179" cy="134" r="20"></circle>
            <circle id="Oval" fill="#CCCCCC" fill-rule="nonzero" cx="179" cy="134" r="10"></circle>
            <circle id="Oval" fill="#E9E9E9" fill-rule="nonzero" cx="179" cy="134" r="7"></circle>
            <rect id="Rectangle" fill="#FFFFFF" fill-rule="nonzero" x="47" y="92" width="7" height="2" rx="0.810316"></rect>
            <line x1="53" y1="93.5" x2="48" y2="93.5" id="Path" stroke="#000000" stroke-width="0.283327"></line>
            <rect id="Rectangle" fill="#FFFFFF" fill-rule="nonzero" x="101" y="92" width="7" height="2" rx="0.810316"></rect>
            <line x1="107" y1="93.5" x2="102" y2="93.5" id="Path" stroke="#000000" stroke-width="0.283327"></line>
            <path d="M84.5,51.535 C84.516,51.525 84.526,51.515 84.526,51.495 C84.526,51.485 84.516,51.465 84.5,51.465 C84.485,51.465 84.474,51.485 84.474,51.495 C84.474,51.515 84.485,51.525 84.5,51.535 Z" id="Path" fill="#000000" fill-rule="nonzero"></path>
            <path d="M84.5,51.535 C84.516,51.525 84.526,51.515 84.526,51.495 C84.526,51.485 84.516,51.465 84.5,51.465 C84.485,51.465 84.474,51.485 84.474,51.495 C84.474,51.515 84.485,51.525 84.5,51.535 Z" id="Path" fill="#000000" fill-rule="nonzero"></path>
            <path d="M151.004582,61.7840519 C151.128443,61.2374638 151.670589,60.9034377 152.214766,61.0249017 C152.758943,61.1463657 153.099054,61.6929538 152.974177,62.2294199 L149.996433,75.2159481 C149.871557,75.7625362 149.329411,76.0965623 148.785234,75.9750983 C148.241057,75.8536343 147.900946,75.3070462 148.025823,74.7705801 L151.004582,61.7840519 Z" id="Path" fill="#000000" fill-rule="nonzero"></path>
            <path d="M105.064223,58 L106.240417,58 C106.442165,58 106.634835,58.0806723 106.777068,58.2218487 C106.919301,58.3731092 107,58.5647059 107,58.7663866 L107,63.2436975 C107,63.4453782 106.919301,63.6369748 106.777068,63.7781513 C106.634835,63.9193277 106.442165,64 106.240417,64 L102.935777,64 C101.86651,64 101,63.1327731 101,62.0638655 C101.006052,59.8252101 102.821789,58.010084 105.064223,58 Z" id="Path" fill="#CCCCCC" fill-rule="nonzero"></path>
            <path d="M105.064223,58 L106.240417,58 C106.442165,58 106.634835,58.0806723 106.777068,58.2218487 C106.919301,58.3731092 107,58.5647059 107,58.7663866 L107,63.2436975 C107,63.4453782 106.919301,63.6369748 106.777068,63.7781513 C106.634835,63.9193277 106.442165,64 106.240417,64 L102.935777,64 C101.86651,64 101,63.1327731 101,62.0638655 C101.006052,59.8252101 102.821789,58.010084 105.064223,58 L105.064223,58 Z" id="Path" stroke="#000000" stroke-width="0.283327"></path>
            <line x1="104.5" y1="66" x2="104.5" y2="64" id="Path" stroke="#000000" stroke-width="0.283327"></line>
            <path d="M43.0632464,58 L44.2400336,58 C44.6598823,58 45,58.3428571 45,58.7663866 L45,63.2436975 C45,63.6571429 44.6598823,64 44.2400336,64 L40.9367536,64 C39.866947,64 39,63.1327731 39,62.0638655 C39.0060555,59.8252101 40.8216989,58.010084 43.0632464,58 L43.0632464,58 Z" id="Path" fill="#CCCCCC" fill-rule="nonzero"></path>
            <path d="M43.0632464,58 L44.2400336,58 C44.6598823,58 45,58.3428571 45,58.7663866 L45,63.2436975 C45,63.6571429 44.6598823,64 44.2400336,64 L40.9367536,64 C39.866947,64 39,63.1327731 39,62.0638655 C39.0060555,59.8252101 40.8216989,58.010084 43.0632464,58 L43.0632464,58 Z" id="Path" stroke="#000000" stroke-width="0.283327"></path>
            <line x1="42.5" y1="66" x2="42.5" y2="64" id="Path" stroke="#000000" stroke-width="0.283327"></line>
            <line x1="90.5" y1="91" x2="90.5" y2="139" id="Path" stroke="#000000" stroke-width="0.283327"></line>
            <path d="M82.026104,110.56 L138.973896,110.56 C138.988956,110.56 139,110.53 139,110.5 C139,110.47 138.988956,110.45 138.973896,110.44 L82.026104,110.44 C82.011044,110.45 82,110.47 82,110.5 C82,110.53 82.011044,110.56 82.026104,110.56 Z" id="Path" fill="#000000" fill-rule="nonzero"></path>
            <path d="M74.0452913,121.56 L108.954709,121.56 C108.969558,121.57 108.984408,121.56 108.993318,121.54 C109.002227,121.51 109.002227,121.48 108.993318,121.46 C108.984408,121.44 108.969558,121.43 108.954709,121.44 L74.0452913,121.44 C74.0304417,121.43 74.0146021,121.44 74.0066823,121.46 C73.9977726,121.48 73.9977726,121.51 74.0066823,121.54 C74.0146021,121.56 74.0304417,121.57 74.0452913,121.56 Z" id="Path" fill="#000000" fill-rule="nonzero"></path>
            <path d="M130.205224,15.4169222 C129.539787,15.4169222 129,14.886747 129,14.2265289 C129,13.5563075 129.539787,13.0261323 130.205224,13.0261323 L130.205224,15.4169222 Z" id="Path" fill="#CCCCCC" fill-rule="nonzero"></path>
            <polygon id="Path" fill="#CCCCCC" fill-rule="nonzero" points="183.22803 55 176.087155 43.1060704 190 42.896001"></polygon>
            <path d="M130.205224,13.0261323 C140.980868,13.0261323 149.661696,12.8960893 156.58746,13.2161951 C163.498146,13.5262975 168.842745,14.2865487 172.899695,16.1371601 C177.043091,18.0277848 179.771179,21.0387796 181.508149,25.61029 C183.214963,30.1117772 183.968856,36.1537734 184.266392,44.1664207 L181.857955,44.2464471 C181.561424,36.2838164 180.813562,30.5719292 179.252501,26.4605709 C177.72059,22.4192357 175.413677,19.9284127 171.894504,18.3178806 C168.28788,16.6673353 163.343347,15.9270907 156.476889,15.606985 C149.624504,15.2968825 141.042185,15.4169222 130.205224,15.4169222 L130.205224,13.0261323 Z" id="Path" fill="#CCCCCC" fill-rule="nonzero"></path>
            <path d="M13.3873786,55.8020833 C13.3873786,56.4709201 12.8527571,57 12.1936893,57 C11.5346215,57 11,56.4709201 11,55.8020833 L13.3873786,55.8020833 Z" id="Path" fill="#CCCCCC" fill-rule="nonzero"></path>
            <polygon id="Path" fill="#CCCCCC" fill-rule="nonzero" points="60 18.3072917 47.8410947 24.8159722 48.3010484 11"></polygon>
            <path d="M11,55.8020833 C11,47.0772569 11.3365029,40.2092014 12.3609452,34.8485243 C13.386383,29.4778646 15.1236539,25.4947917 18.0197692,22.6597222 C20.9188711,19.8146701 24.8344508,18.2573785 29.9248039,17.4487847 C35.0002235,16.640191 41.3708806,16.5603299 49.2896501,16.75 L49.231907,19.1458333 C41.3191109,18.9461806 35.140599,19.0460069 30.298143,19.8146701 C25.4696249,20.5833333 22.0976269,22.0108507 19.6883457,24.3667535 C17.2750823,26.7326389 15.6821691,30.1766493 14.7055142,35.2977431 C13.7258726,40.4288194 13.3873786,47.1072049 13.3873786,55.8020833 L11,55.8020833 Z" id="Path" fill="#CCCCCC" fill-rule="nonzero"></path>
        </g>
    </g>
</svg>