<?xml version="1.0" encoding="UTF-8"?>
<svg width="202px" height="148px" viewBox="0 0 202 148" version="1.1" xmlns="http://www.w3.org/2000/svg" xmlns:xlink="http://www.w3.org/1999/xlink">
    <title>icon-02</title>
    <defs>
        <rect id="path-1" x="0.174" y="0.91" width="151" height="136"></rect>
        <path d="M15.671,16.4 C31.001,1.08 55.855,1.08 71.184,16.4 L75.794,21.02 L80.405,16.4 C95.734,1.08 120.588,1.08 135.917,16.4 C151.247,31.73 151.247,56.59 135.917,71.92 L99.36,108.48 L99.337,108.45 L75.771,132.02 L15.671,71.92 C0.342,56.59 0.342,31.73 15.671,16.4 Z" id="path-3"></path>
        <path d="M117.675,9.78 C105.456,-2.44 85.644,-2.44 73.425,9.78 L63.909,19.3 L54.442,9.83 C42.173,-2.44 22.279,-2.44 10.01,9.83 C-2.26,22.1 -2.26,41.99 10.01,54.26 L63.654,107.91 L105.909,65.65 L117.536,54.17 C129.886,41.97 129.949,22.05 117.675,9.78 Z" id="path-5"></path>
    </defs>
    <g id="Page-2" stroke="none" stroke-width="1" fill="none" fill-rule="evenodd">
        <g id="icon-02" transform="translate(0.000000, 2.000000)">
            <path d="M65.1429523,68 L14.8576026,68 C11.0855272,68 7.99955614,71.0836183 7.99955614,74.8635375 C7.99955614,78.6335095 11.0855272,81.7171278 14.8576026,81.7171278 L18.2871251,81.7171278 C20.7998446,81.7171278 22.8571587,83.776189 22.8571587,86.2828722 C22.8571587,88.7995026 20.7998446,90.8585639 18.2861264,90.8585639 L4.57103226,90.8585639 C2.05731406,90.8585639 0,92.9176251 0,95.4342555 C0,97.9409388 2.05731406,100 4.57103226,100 L50.2853497,100 C52.8000666,100 54.8573806,97.9409388 54.8573806,95.4342555 C54.8573806,92.9176251 52.8000666,90.8585639 50.2853497,90.8585639 L43.4273032,90.8585639 C40.9145837,90.8585639 38.8572697,88.7995026 38.8572697,86.2828722 C38.8572697,83.776189 40.9145837,81.7171278 43.4273032,81.7171278 L65.1429523,81.7171278 C68.9140289,81.7171278 72,78.6335095 72,74.8635375 C72,71.0836183 68.9140289,68 65.1429523,68 Z" id="Path" fill="#F3EFF9"></path>
            <path d="M197.500492,47 C195.025123,47 193,44.9727965 193,42.4951034 C193,40.0272035 195.025123,38 197.500492,38 C199.974877,38 202,40.0272035 202,42.4951034 C202,44.9727965 199.974877,47 197.500492,47 Z" id="Path" fill="#F3EFF9"></path>
            <path d="M192.428904,55.6666667 L176.428571,55.6666667 C173.914818,55.6666667 171.857476,53.5643816 171.857476,50.994922 C171.857476,48.4356184 173.914818,46.3333333 176.427573,46.3333333 L177.571096,46.3333333 C180.085847,46.3333333 182.14319,44.2310482 182.14319,41.6615887 C182.14319,39.1022851 180.085847,37 177.571096,37 L159.285714,37 C156.770963,37 154.71362,39.1022851 154.71362,41.6615887 C154.71362,44.2310482 156.770963,46.3333333 159.285714,46.3333333 L160.429237,46.3333333 C162.94299,46.3333333 165.000333,48.4356184 165.000333,50.994922 C165.000333,53.5643816 162.94299,55.6666667 160.428239,55.6666667 L155.856144,55.6666667 L155.857143,55.6666667 L153.571096,55.6666667 C151.057343,55.6666667 149,57.7689518 149,60.3282554 C149,62.8977149 151.057343,65 153.571096,65 L192.428904,65 C194.943656,65 197,62.8977149 197,60.3282554 C197,57.7689518 194.943656,55.6666667 192.428904,55.6666667 Z" id="Path" fill="#F3EFF9"></path>
            <path d="M33.4774671,25.4800566 C48.7817548,10.1733145 73.5940684,10.1733145 88.8973578,25.4800566 L93.4996256,30.0960585 L98.1028918,25.4800566 C113.406181,10.1733145 138.218495,10.1733145 153.521784,25.4800566 C168.826072,40.7967902 168.826072,65.6352765 153.521784,80.9520101 L117.0261,117.480371 L117.003138,117.450397 L93.4766642,141 L33.4774671,80.9520101 C18.1741776,65.6352765 18.1741776,40.7967902 33.4774671,25.4800566 Z" id="Path" fill="#C4B5D9"></path>
            <g id="Clipped" transform="translate(18.000000, 9.000000)">
                <mask id="mask-2" fill="white">
                    <use xlink:href="#path-1"></use>
                </mask>
                <g id="Rectangle"></g>
                <path d="M71.184,16.4 L73.588,14 L71.184,16.4 Z M15.671,16.4 L18.075,18.81 L15.671,16.4 Z M75.794,21.02 L73.39,23.42 L75.794,25.82 L78.198,23.42 L75.794,21.02 Z M80.405,16.4 L82.809,18.81 L82.809,18.81 L80.405,16.4 Z M135.917,16.4 L133.513,18.81 L133.513,18.81 L135.917,16.4 Z M135.917,71.92 L133.513,69.51 L135.917,71.92 Z M99.36,108.48 L96.956,110.88 L99.36,113.28 L101.764,110.88 L99.36,108.48 Z M99.337,108.45 L101.741,106.05 L99.337,103.64 L96.933,106.05 L99.337,108.45 Z M75.771,132.02 L73.367,134.42 L75.771,136.83 L78.175,134.42 L75.771,132.02 Z M15.671,71.92 L13.267,74.32 L15.671,71.92 Z M73.588,14 C56.931,-2.66 29.924,-2.66 13.267,14 L18.075,18.81 C32.077,4.81 54.778,4.81 68.78,18.81 L73.588,14 Z M78.198,18.61 L73.588,14 L68.78,18.81 L73.39,23.42 L78.198,18.61 Z M78.198,23.42 L82.809,18.81 L78,14 L73.39,18.61 L78.198,23.42 Z M82.809,18.81 C96.81,4.81 119.512,4.81 133.513,18.81 L138.322,14 C121.664,-2.66 94.658,-2.66 78,14 L82.809,18.81 Z M133.513,18.81 C147.515,32.81 147.515,55.51 133.513,69.51 L138.322,74.32 C154.979,57.66 154.979,30.66 138.322,14 L133.513,18.81 Z M133.513,69.51 L96.956,106.07 L101.764,110.88 L138.322,74.32 L133.513,69.51 Z M101.764,106.07 L101.741,106.05 L96.933,110.86 L96.956,110.88 L101.764,106.07 Z M78.175,134.42 L101.741,110.86 L96.933,106.05 L73.367,129.61 L78.175,134.42 Z M13.267,74.32 L73.367,134.42 L78.175,129.61 L18.075,69.51 L13.267,74.32 Z M13.267,14 C-3.39,30.66 -3.39,57.66 13.267,74.32 L18.075,69.51 C4.074,55.51 4.074,32.81 18.075,18.81 L13.267,14 Z" id="Shape" fill="#320170" fill-rule="nonzero" mask="url(#mask-2)"></path>
                <mask id="mask-4" fill="white">
                    <use xlink:href="#path-3"></use>
                </mask>
                <g id="Path"></g>
            </g>
            <path d="M147.837683,31.1398015 C135.6218,18.9533995 115.814855,18.9533995 103.598973,31.1398015 L94.0854005,40.6336269 L84.6208159,31.189664 C72.3549462,18.9533995 52.4660218,18.9533995 40.2001521,31.189664 C27.9332826,43.4259285 27.9332826,63.2612424 40.2001521,75.4975069 L93.8304656,129 L136.074685,86.8561909 L147.698718,75.4077543 C160.045567,63.2412974 160.108551,43.376066 147.837683,31.1398015 Z" id="Path" fill="#F7F0FC"></path>
            <g id="Clipped" transform="translate(30.000000, 22.000000)">
                <mask id="mask-6" fill="white">
                    <use xlink:href="#path-5"></use>
                </mask>
                <g id="Path"></g>
                <path d="M73.425,9.78 L71.02,7.38 L73.425,9.78 Z M63.909,19.3 L61.505,21.7 L63.909,24.1 L66.314,21.7 L63.909,19.3 Z M54.442,9.83 L52.038,12.23 L54.442,9.83 Z M10.01,9.83 L12.414,12.23 L10.01,9.83 Z M10.01,54.26 L12.414,51.86 L10.01,54.26 Z M63.654,107.91 L61.25,110.31 L63.654,112.71 L66.058,110.31 L63.654,107.91 Z M105.909,65.65 L103.519,63.23 L103.512,63.24 L103.504,63.25 L105.909,65.65 Z M117.536,54.17 L115.147,51.75 L117.536,54.17 Z M75.829,12.19 C86.72,1.29 104.379,1.29 115.271,12.19 L120.079,7.38 C106.532,-6.17 84.568,-6.17 71.02,7.38 L75.829,12.19 Z M66.314,21.7 L75.829,12.19 L71.02,7.38 L61.505,16.89 L66.314,21.7 Z M66.314,16.89 L56.847,7.43 L52.038,12.23 L61.505,21.7 L66.314,16.89 Z M56.847,7.43 C43.249,-6.17 21.203,-6.17 7.605,7.43 L12.414,12.23 C23.356,1.29 41.096,1.29 52.038,12.23 L56.847,7.43 Z M7.605,7.43 C-5.992,21.02 -5.992,43.07 7.605,56.67 L12.414,51.86 C1.472,40.92 1.472,23.18 12.414,12.23 L7.605,7.43 Z M7.605,56.67 L61.25,110.31 L66.058,105.5 L12.414,51.86 L7.605,56.67 Z M66.058,110.31 L108.313,68.06 L103.504,63.25 L61.25,105.5 L66.058,110.31 Z M115.147,51.75 L103.519,63.23 L108.298,68.07 L119.925,56.59 L115.147,51.75 Z M115.271,12.19 C126.211,23.13 126.155,40.88 115.147,51.75 L119.925,56.59 C133.617,43.07 133.687,20.98 120.079,7.38 L115.271,12.19 Z" id="Shape" fill="#320170" fill-rule="nonzero" mask="url(#mask-6)"></path>
            </g>
            <line x1="24" y1="64" x2="3" y2="59" id="Path" stroke="#44E0B7" stroke-width="3.4" stroke-linecap="round"></line>
            <line x1="41" y1="23" x2="23" y2="3" id="Path" stroke="#44E0B7" stroke-width="3.4" stroke-linecap="round"></line>
            <line x1="177" y1="25" x2="157" y2="35" id="Path" stroke="#44E0B7" stroke-width="3.4" stroke-linecap="round"></line>
            <line x1="186" y1="21" x2="184" y2="22" id="Path" stroke="#44E0B7" stroke-width="3.44665" stroke-linecap="round"></line>
            <line x1="155" y1="0" x2="140" y2="16" id="Path" stroke="#44E0B7" stroke-width="3.4" stroke-linecap="round"></line>
            <line x1="162" y1="70.5" x2="184" y2="70.5" id="Path" stroke="#44E0B7" stroke-width="3.4" stroke-linecap="round"></line>
            <line x1="130" y1="108" x2="148" y2="128" id="Path" stroke="#44E0B7" stroke-width="3.4" stroke-linecap="round"></line>
            <line x1="23" y1="100" x2="43" y2="90" id="Path" stroke="#44E0B7" stroke-width="3.4" stroke-linecap="round"></line>
            <line x1="14" y1="104" x2="16" y2="103" id="Path" stroke="#44E0B7" stroke-width="3.4" stroke-linecap="round"></line>
            <line x1="49" y1="131" x2="64" y2="115" id="Path" stroke="#44E0B7" stroke-width="3.4" stroke-linecap="round"></line>
            <path d="M101.314759,58 L110.645165,58 C112.455644,58 113.588299,59.9925621 112.679621,61.5786812 L97.1309106,88.8103636 C96.2359855,90.3865695 93.9981814,90.3964827 93.0757504,88.8401033 L88.3299947,80.7707224 C87.8957939,80.0272291 87.8889174,79.1052973 88.3162417,78.361804 L99.2803028,59.1895893 C99.7007506,58.4560092 100.473864,58 101.314759,58 Z" id="Path" fill="#44E0B7" fill-rule="nonzero"></path>
            <path d="M83.4994954,77 C87.0893564,77 90,74.0843001 90,70.4949729 C90,66.9056458 87.0893564,64 83.4994954,64 C79.9106436,64 77,66.9056458 77,70.4949729 C77,74.0843001 79.9106436,77 83.4994954,77 Z" id="Path" fill="#320170" fill-rule="nonzero"></path>
        </g>
    </g>
</svg>