<?xml version="1.0" encoding="UTF-8"?>
<svg width="190px" height="128px" viewBox="0 0 190 128" version="1.1" xmlns="http://www.w3.org/2000/svg" xmlns:xlink="http://www.w3.org/1999/xlink">
    <title>icon-01</title>
    <g id="Page-2" stroke="none" stroke-width="1" fill="none" fill-rule="evenodd">
        <g id="icon-01" transform="translate(0.000000, 1.000000)">
            <path d="M46.1416737,102.33663 L43.7140017,102.33663 L43.7159899,102.33663 L38.8566695,102.33663 C36.185435,102.33663 34.0003314,100.160641 34.0003314,97.5 C34.0003314,94.8393588 36.1834467,92.6633697 38.8566695,92.6633697 L40.0724937,92.6633697 C42.7417399,92.6633697 44.9278377,90.4873806 44.9278377,87.8366303 C44.9278377,85.1759891 42.7417399,83 40.0724937,83 L20.6421707,83 C17.9709362,83 15.7858326,85.1759891 15.7858326,87.8366303 C15.7858326,90.4873806 17.9709362,92.6633697 20.6421707,92.6633697 L21.8560067,92.6633697 C24.5292294,92.6633697 26.7143331,94.8393588 26.7143331,97.5 C26.7143331,100.160641 24.5292294,102.33663 21.8560067,102.33663 L4.85633808,102.33663 C2.1851036,102.33663 0,104.502729 0,107.16337 C0,109.824011 2.1851036,112 4.85633808,112 L46.1416737,112 C48.8148964,112 51,109.824011 51,107.16337 C51,104.502729 48.8148964,102.33663 46.1416737,102.33663 Z" id="Path" fill="#F2EFF8"></path>
            <path d="M182.637094,50.4356725 L147.045363,50.4356725 C144.344559,50.4356725 142.13609,48.248538 142.13609,45.574269 C142.13609,42.9 144.344559,40.7128655 147.044358,40.7128655 L154.409274,40.7128655 C157.108068,40.7128655 159.317542,38.525731 159.317542,35.8614035 C159.317542,33.1871345 157.108068,31 154.409274,31 L113.908269,31 C111.20847,31 109,33.1871345 109,35.8614035 C109,38.525731 111.20847,40.7128655 113.908269,40.7128655 L120.045363,40.7128655 C122.743153,40.7128655 124.953632,42.9 124.953632,45.574269 C124.953632,48.248538 122.743153,50.4356725 120.045363,50.4356725 L116.362906,50.4356725 C112.3117,50.4356725 109,53.7064327 109,57.7128655 C109,61.7292398 112.3117,65 116.362906,65 L182.637094,65 C186.687295,65 190,61.7292398 190,57.7128655 C190,53.7064327 186.687295,50.4356725 182.637094,50.4356725 Z" id="Path" fill="#F2EFF8"></path>
            <path d="M152,102.5 C152,114.378675 142.374886,124 130.500502,124 C118.626117,124 109,114.378675 109,102.5 C109,90.6313579 118.626117,81 130.500502,81 C142.374886,81 152,90.6313579 152,102.5 Z" id="Path" stroke="#320170" stroke-width="3.4" fill="#F7F0FC" stroke-linecap="round"></path>
            <path d="M142,103 C142,109.08 136.851,114 130.5,114 C124.149,114 119,109.08 119,103 C119,96.92 124.149,92 130.5,92 C136.851,92 142,96.92 142,103 Z" id="Path" stroke="#320170" stroke-width="3.4" fill="#FFFFFF" stroke-linecap="round"></path>
            <path d="M65,46.5 C65,58.3786748 55.3748863,68 43.5005016,68 C31.626117,68 22,58.3786748 22,46.5 C22,34.6313579 31.626117,25 43.5005016,25 C55.3748863,25 65,34.6313579 65,46.5 Z" id="Path" stroke="#320170" stroke-width="3.4" fill="#F7F0FC" stroke-linecap="round"></path>
            <path d="M55,47 C55,53.08 49.851,58 43.5,58 C37.149,58 32,53.08 32,47 C32,40.92 37.149,36 43.5,36 C49.851,36 55,40.92 55,47 Z" id="Path" stroke="#320170" stroke-width="3.4" fill="#FFFFFF" stroke-linecap="round"></path>
            <path d="M109.170523,25.0641089 C109.742247,24.3915118 110.580777,24 111.465445,24 L142.984527,24 C145.529203,24 146.925415,26.9614352 145.306531,28.9290329 L67.0293985,123.905775 C66.4576738,124.598449 65.6061049,125 64.7083969,125 L31.0147557,125 C28.4520249,125 27.0618312,121.99841 28.7198328,120.040851 L109.170523,25.0641089 Z" id="Path" fill="#C4B5D9" fill-rule="nonzero"></path>
            <path d="M67.2973755,74.5050194 L109.174814,25.0641089 C109.746568,24.3915118 110.58514,24 111.469853,24 L140.984374,24 C143.529179,24 144.925462,26.9614352 143.306496,28.9290329 L65.0254073,123.905775 C64.4536538,124.598449 63.6020419,125 62.7042884,125 L31.0150973,125 C28.4512339,125 27.061973,121.99841 28.7200584,120.040851 L45.9077733,99.7525097 M61.9499749,80.8093629 L56.6025744,87.1237452 L51.2551739,93.4381274" id="Shape" stroke="#320170" stroke-width="3.6" stroke-linecap="round" stroke-linejoin="round"></path>
            <path d="M149,35.5 C149,44.61 141.613,52 132.5,52 C123.387,52 116,44.61 116,35.5 C116,26.39 123.387,19 132.5,19 C141.613,19 149,26.39 149,35.5 Z" id="Path" stroke="#FFFFFF" stroke-width="2.673" fill="#44E0B7" stroke-linecap="round"></path>
            <polyline id="Path" stroke="#FFFFFF" stroke-width="3.30462" stroke-linecap="round" stroke-linejoin="round" points="128 36.0877193 132.31473 41 137 36"></polyline>
            <line x1="132.5" y1="30" x2="132.5" y2="40" id="Path" stroke="#FFFFFF" stroke-width="3.30462" stroke-linecap="round"></line>
            <polyline id="Path" stroke="#A3F0DC" stroke-width="2.64554" stroke-linecap="round" stroke-linejoin="round" points="142 14.0549451 145.356 18 149 14"></polyline>
            <line x1="145.5" y1="9" x2="145.5" y2="17" id="Path" stroke="#A3F0DC" stroke-width="2.64554" stroke-linecap="round"></line>
            <polyline id="Path" stroke="#D9F1EC" stroke-width="1.98645" stroke-linecap="round" stroke-linejoin="round" points="128 3.05474453 130.39726 6 133 3"></polyline>
            <line x1="130.5" y1="0" x2="130.5" y2="6" id="Path" stroke="#D9F1EC" stroke-width="1.98645" stroke-linecap="round"></line>
        </g>
    </g>
</svg>