<svg width="202" height="148" viewBox="0 0 202 148" fill="none" xmlns="http://www.w3.org/2000/svg">
<path fill-rule="evenodd" clip-rule="evenodd" d="M65.228 70.7422H14.8766C11.1002 70.7422 8.01046 73.8442 8.01046 77.6355C8.01046 81.4268 11.1002 84.5288 14.8766 84.5288H18.3108C20.8272 84.5288 22.887 86.5968 22.887 89.1243C22.887 91.6519 20.8272 93.7199 18.3096 93.7199H4.57741C2.05983 93.7199 0 95.7878 0 98.3154C0 100.843 2.05983 102.911 4.57741 102.911H50.3515C52.869 102.911 54.9289 100.843 54.9289 98.3154C54.9289 95.7878 52.869 93.7199 50.3515 93.7199H43.4842C40.9678 93.7199 38.9079 91.6519 38.9079 89.1243C38.9079 86.5968 40.9678 84.5288 43.4842 84.5288H65.228C69.0044 84.5288 72.0941 81.4268 72.0941 77.6355C72.0941 73.8442 69.0044 70.7422 65.228 70.7422Z" fill="#F3EFF9"/>
<path fill-rule="evenodd" clip-rule="evenodd" d="M197.423 49.1481C194.905 49.1481 192.845 47.0801 192.845 44.5526C192.845 42.025 194.905 39.957 197.423 39.957C199.94 39.957 202 42.025 202 44.5526C202 47.0801 199.94 49.1481 197.423 49.1481Z" fill="#F3EFF9"/>
<path fill-rule="evenodd" clip-rule="evenodd" d="M192.845 58.3392H176.824C174.307 58.3392 172.247 56.2712 172.247 53.7436C172.247 51.2161 174.307 49.1481 176.823 49.1481H177.968C180.486 49.1481 182.546 47.0801 182.546 44.5526C182.546 42.025 180.486 39.957 177.968 39.957H159.659C157.141 39.957 155.081 42.025 155.081 44.5526C155.081 47.0801 157.141 49.1481 159.659 49.1481H160.804C163.321 49.1481 165.381 51.2161 165.381 53.7436C165.381 56.2712 163.321 58.3392 160.803 58.3392H156.225H156.226H153.937C151.42 58.3392 149.36 60.4072 149.36 62.9347C149.36 65.4622 151.42 67.5302 153.937 67.5302H192.845C195.363 67.5302 197.422 65.4622 197.422 62.9347C197.422 60.4072 195.363 58.3392 192.845 58.3392Z" fill="#F3EFF9"/>
<mask id="path-4-outside-1" maskUnits="userSpaceOnUse" x="18.1741" y="11.9082" width="151" height="136" fill="black">
<rect fill="white" x="18.1741" y="11.9082" width="151" height="136"/>
<path fill-rule="evenodd" clip-rule="evenodd" d="M33.6712 27.4053C49.0006 12.0759 73.8545 12.0758 89.184 27.4053L93.7943 32.0156L98.4045 27.4053C113.734 12.0759 138.588 12.0759 153.917 27.4053C169.247 42.7347 169.247 67.5887 153.917 82.9181L117.36 119.475L117.337 119.452L93.7713 143.018L33.6712 82.9181C18.3417 67.5887 18.3417 42.7347 33.6712 27.4053Z"/>
</mask>
<path fill-rule="evenodd" clip-rule="evenodd" d="M33.6712 27.4053C49.0006 12.0759 73.8545 12.0758 89.184 27.4053L93.7943 32.0156L98.4045 27.4053C113.734 12.0759 138.588 12.0759 153.917 27.4053C169.247 42.7347 169.247 67.5887 153.917 82.9181L117.36 119.475L117.337 119.452L93.7713 143.018L33.6712 82.9181C18.3417 67.5887 18.3417 42.7347 33.6712 27.4053Z" fill="#C4B5D9"/>
<path d="M89.184 27.4053L91.5881 25.0011L89.184 27.4053ZM33.6712 27.4053L36.0753 29.8095L33.6712 27.4053ZM93.7943 32.0156L91.3901 34.4197L93.7943 36.8239L96.1984 34.4197L93.7943 32.0156ZM98.4045 27.4053L100.809 29.8095V29.8095L98.4045 27.4053ZM153.917 27.4053L151.513 29.8095V29.8095L153.917 27.4053ZM153.917 82.9181L151.513 80.514L153.917 82.9181ZM117.36 119.475L114.956 121.88L117.36 124.284L119.764 121.88L117.36 119.475ZM117.337 119.452L119.741 117.048L117.337 114.644L114.933 117.048L117.337 119.452ZM93.7713 143.018L91.3671 145.422L93.7713 147.827L96.1755 145.422L93.7713 143.018ZM33.6712 82.9181L31.267 85.3223L33.6712 82.9181ZM91.5881 25.0011C74.9309 8.34388 47.9242 8.34391 31.267 25.0011L36.0753 29.8095C50.077 15.8078 72.7782 15.8078 86.7798 29.8094L91.5881 25.0011ZM96.1984 29.6114L91.5881 25.0011L86.7798 29.8094L91.3901 34.4197L96.1984 29.6114ZM96.1984 34.4197L100.809 29.8095L96.0003 25.0012L91.3901 29.6114L96.1984 34.4197ZM100.809 29.8095C114.81 15.8078 137.512 15.8078 151.513 29.8095L156.322 25.0011C139.664 8.3439 112.658 8.34393 96.0003 25.0012L100.809 29.8095ZM151.513 29.8095C165.515 43.8111 165.515 66.5123 151.513 80.514L156.322 85.3223C172.979 68.6651 172.979 41.6584 156.322 25.0011L151.513 29.8095ZM151.513 80.514L114.956 117.071L119.764 121.88L156.322 85.3223L151.513 80.514ZM119.764 117.071L119.741 117.048L114.933 121.857L114.956 121.88L119.764 117.071ZM96.1755 145.422L119.741 121.857L114.933 117.048L91.3671 140.614L96.1755 145.422ZM31.267 85.3223L91.3671 145.422L96.1755 140.614L36.0753 80.514L31.267 85.3223ZM31.267 25.0011C14.6098 41.6584 14.6098 68.6651 31.267 85.3223L36.0753 80.514C22.0737 66.5123 22.0737 43.8111 36.0753 29.8095L31.267 25.0011Z" fill="#320170" mask="url(#path-4-outside-1)"/>
<mask id="path-6-inside-2" fill="white">
<path fill-rule="evenodd" clip-rule="evenodd" d="M147.675 33.7808C135.456 21.5614 115.644 21.5613 103.425 33.7808L93.9095 43.2959L84.4425 33.8289C72.1727 21.5592 52.2794 21.5592 40.0097 33.829C27.7399 46.0988 27.7399 65.992 40.0097 78.2618L93.6542 131.906L135.909 89.6521L147.536 78.1696C159.886 65.9732 159.949 46.0545 147.675 33.7808Z"/>
</mask>
<path fill-rule="evenodd" clip-rule="evenodd" d="M147.675 33.7808C135.456 21.5614 115.644 21.5613 103.425 33.7808L93.9095 43.2959L84.4425 33.8289C72.1727 21.5592 52.2794 21.5592 40.0097 33.829C27.7399 46.0988 27.7399 65.992 40.0097 78.2618L93.6542 131.906L135.909 89.6521L147.536 78.1696C159.886 65.9732 159.949 46.0545 147.675 33.7808Z" fill="#F7F0FC"/>
<path d="M103.425 33.7808L101.02 31.3766L103.425 33.7808ZM93.9095 43.2959L91.5053 45.7001L93.9095 48.1043L96.3137 45.7001L93.9095 43.2959ZM84.4425 33.8289L82.0383 36.2331L84.4425 33.8289ZM40.0097 33.829L42.4138 36.2331L40.0097 33.829ZM40.0097 78.2618L42.4138 75.8577L40.0097 78.2618ZM93.6542 131.906L91.2501 134.311L93.6542 136.715L96.0584 134.311L93.6542 131.906ZM135.909 89.6521L133.519 87.2329L133.512 87.2404L133.504 87.2479L135.909 89.6521ZM147.536 78.1696L145.147 75.7504L147.536 78.1696ZM105.829 36.1849C116.72 25.2933 134.379 25.2933 145.271 36.185L150.079 31.3766C136.532 17.8294 114.568 17.8294 101.02 31.3766L105.829 36.1849ZM96.3137 45.7001L105.829 36.1849L101.02 31.3766L91.5053 40.8918L96.3137 45.7001ZM96.3137 40.8918L86.8467 31.4248L82.0383 36.2331L91.5053 45.7001L96.3137 40.8918ZM86.8467 31.4248C73.2491 17.8272 51.2031 17.8272 37.6055 31.4248L42.4138 36.2331C53.3558 25.2911 71.0963 25.2911 82.0383 36.2331L86.8467 31.4248ZM37.6055 31.4248C24.0079 45.0224 24.0079 67.0684 37.6055 80.666L42.4138 75.8577C31.4718 64.9156 31.4718 47.1751 42.4138 36.2331L37.6055 31.4248ZM37.6055 80.666L91.2501 134.311L96.0584 129.502L42.4138 75.8577L37.6055 80.666ZM96.0584 134.311L138.313 92.0563L133.504 87.2479L91.2501 129.502L96.0584 134.311ZM145.147 75.7504L133.519 87.2329L138.298 92.0713L149.925 80.5888L145.147 75.7504ZM145.271 36.185C156.211 47.1249 156.155 64.8793 145.147 75.7504L149.925 80.5888C163.617 67.0671 163.687 44.984 150.079 31.3766L145.271 36.185Z" fill="#320170" mask="url(#path-6-inside-2)"/>
<path d="M24.3336 65.9751L3.32678 61.3818" stroke="#44E0B7" stroke-width="3.4" stroke-linecap="round"/>
<path d="M41.466 25.6184L23.3555 5.5957" stroke="#44E0B7" stroke-width="3.4" stroke-linecap="round"/>
<path d="M176.623 27.8857L156.813 37.8592" stroke="#44E0B7" stroke-width="3.4" stroke-linecap="round"/>
<path d="M185.866 23.2334L183.577 24.3823" stroke="#44E0B7" stroke-width="3.44665" stroke-linecap="round"/>
<path d="M155.413 2L140.42 18.0867" stroke="#44E0B7" stroke-width="3.4" stroke-linecap="round"/>
<path d="M162.386 73.4436H184.128" stroke="#44E0B7" stroke-width="3.4" stroke-linecap="round"/>
<path d="M130.199 110.377L148.309 130.4" stroke="#44E0B7" stroke-width="3.4" stroke-linecap="round"/>
<path d="M23.3766 102.109L43.1877 92.1357" stroke="#44E0B7" stroke-width="3.4" stroke-linecap="round"/>
<path d="M14.1347 106.762L16.4234 105.613" stroke="#44E0B7" stroke-width="3.4" stroke-linecap="round"/>
<path d="M49.1646 133.739L64.1567 117.652" stroke="#44E0B7" stroke-width="3.4" stroke-linecap="round"/>
<path d="M101.756 60.3838H111.254C113.097 60.3838 114.25 62.3866 113.325 63.9874L97.4972 91.4581C96.5861 93.0451 94.3082 93.0589 93.3694 91.4858L88.5375 83.35C88.0958 82.6015 88.0889 81.6729 88.5237 80.9175L99.6854 61.5758C100.113 60.8412 100.9 60.3838 101.756 60.3838Z" fill="#44E0B7"/>
<path d="M83.0015 79.1082C86.5583 79.1082 89.4417 76.2134 89.4417 72.6425C89.4417 69.0716 86.5583 66.1768 83.0015 66.1768C79.4446 66.1768 76.5613 69.0716 76.5613 72.6425C76.5613 76.2134 79.4446 79.1082 83.0015 79.1082Z" fill="#320170"/>
</svg>
