<?xml version="1.0" encoding="UTF-8"?>
<svg width="207px" height="122px" viewBox="0 0 207 122" version="1.1" xmlns="http://www.w3.org/2000/svg" xmlns:xlink="http://www.w3.org/1999/xlink">
    <title>icon-05</title>
    <g id="Page-2" stroke="none" stroke-width="1" fill="none" fill-rule="evenodd">
        <g id="icon-05">
            <path d="M86.8576681,0 L19.8098899,0 C14.7809556,0 10.667558,4.14700375 10.667558,9.20997191 C10.667558,14.2830056 14.7809556,18.4300094 19.8098899,18.4300094 L24.38256,18.4300094 C27.7338459,18.4300094 30.4764452,21.1879682 30.4764452,24.5699906 C30.4764452,27.9419476 27.7338459,30.7099719 24.3815572,30.7099719 L6.0958907,30.7099719 C2.74360206,30.7099719 0,33.4779963 0,36.8499532 C0,40.2319757 2.74360206,43 6.0958907,43 L67.0477782,43 C70.4000669,43 73.1436689,40.2319757 73.1436689,36.8499532 C73.1436689,33.4779963 70.4000669,30.7099719 67.0477782,30.7099719 L57.9034408,30.7099719 C54.5531577,30.7099719 51.8095556,27.9419476 51.8095556,24.5699906 C51.8095556,21.1879682 54.5531577,18.4300094 57.9034408,18.4300094 L86.8576681,18.4300094 C91.8855997,18.4300094 96,14.2830056 96,9.20997191 C96,4.14700375 91.8855997,0 86.8576681,0 Z" id="Path" fill="#F3EFF9"></path>
            <path d="M169.904141,105.670036 L148.571142,105.670036 C145.218871,105.670036 142.476286,102.89074 142.476286,99.4949467 C142.476286,96.1092598 145.218871,93.3299645 148.570139,93.3299645 L150.095357,93.3299645 C153.447629,93.3299645 156.190214,90.5506692 156.190214,87.1649822 C156.190214,83.7691887 153.447629,81 150.095357,81 L125.713928,81 C122.361656,81 119.619071,83.7691887 119.619071,87.1649822 C119.619071,90.5506692 122.361656,93.3299645 125.713928,93.3299645 L127.239146,93.3299645 C130.590414,93.3299645 133.332999,96.1092598 133.332999,99.4949467 C133.332999,102.89074 130.590414,105.670036 127.238143,105.670036 L121.141281,105.670036 L121.143287,105.670036 L118.094856,105.670036 C114.742585,105.670036 112,108.439224 112,111.835018 C112,115.220705 114.742585,118 118.094856,118 L169.904141,118 C173.256412,118 176,115.220705 176,111.835018 C176,108.439224 173.256412,105.670036 169.904141,105.670036 Z" id="Path" fill="#F3EFF9"></path>
            <path d="M168.332801,32.5248067 C167.608314,30.447608 166.310441,28.5811397 164.524239,27.1662362 L134.815253,3.56444279 C131.641118,1.0356792 127.398264,0.323210099 123.575692,1.6678701 L27.8993283,35.3445788 C21.7471896,37.5120904 18.5100118,44.2654948 20.6694646,50.4368821 L41.892742,111.077034 C44.0521947,117.248422 50.7907279,120.489654 56.9428666,118.332177 L152.61923,84.6554687 C156.441802,83.3108087 159.308731,80.0896455 160.21434,76.1359437 L168.699048,39.0875503 C169.210392,36.8698648 169.058289,34.5919706 168.332801,32.5248067 Z" id="Path" fill="#E1E5EF"></path>
            <path d="M29.279235,70.0165407 C28.9149593,68.9728769 27.7770981,68.4309745 26.7383119,68.7922427 C25.6995257,69.1635462 25.1531122,70.2975272 25.5173879,71.341191 L29.279235,70.0165407 Z M29.1751562,81.7979001 C29.5404327,82.8315287 30.6772931,83.3834664 31.7160793,83.0121629 C32.7548655,82.6508946 33.3012791,81.5068784 32.9370034,80.4732498 L29.1751562,81.7979001 Z M36.127418,89.5852381 C35.7631423,88.5415743 34.6252812,87.9996719 33.586495,88.3609402 C32.5477087,88.7222084 32.0012952,89.8662246 32.3655709,90.9098884 L36.127418,89.5852381 Z M160.220338,77.1315184 L158.277867,76.6899683 L158.277867,76.6899683 L160.220338,77.1315184 Z M168.70576,40.0914866 L166.76329,39.6499365 L166.76329,39.6499365 L168.70576,40.0914866 Z M164.529599,28.1595988 L163.292663,29.7250946 L163.292663,29.7250946 L164.529599,28.1595988 Z M134.819113,4.55673913 L133.581176,6.13227015 L133.581176,6.13227015 L134.819113,4.55673913 Z M20.6627136,51.4413311 L22.5441376,50.7790059 L20.6627136,51.4413311 Z M22.5741603,62.9316688 C22.938436,63.9753326 24.0762972,64.517235 25.1150834,64.1559668 C26.1538696,63.7946985 26.7002831,62.6506823 26.3360074,61.6070185 L22.5741603,62.9316688 Z M25.5173879,71.341191 L29.1751562,81.7979001 L32.9370034,80.4732498 L29.279235,70.0165407 L25.5173879,71.341191 Z M32.3655709,90.9098884 L40.0083553,112.746548 L43.7702025,111.421897 L36.127418,89.5852381 L32.3655709,90.9098884 Z M40.0083553,112.746548 C42.5322655,119.951842 50.4082264,123.745159 57.60067,121.216281 L56.2796702,117.443035 C51.1657998,119.249376 45.5645605,116.5499 43.7702025,111.421897 L40.0083553,112.746548 Z M57.60067,121.216281 L153.283087,87.5480866 L151.963088,83.7748403 L56.2796702,117.443035 L57.60067,121.216281 Z M153.283087,87.5480866 C157.75247,85.9725555 161.103006,82.2093445 162.162808,77.5831037 L158.277867,76.6899683 C157.523296,79.9815236 155.140493,82.6508946 151.963088,83.7748403 L153.283087,87.5480866 Z M162.162808,77.5831037 L170.649231,40.5430719 L166.76329,39.6499365 L158.277867,76.6899683 L162.162808,77.5831037 Z M170.649231,40.5430719 C171.245682,37.9339122 171.067547,35.2846117 170.220906,32.8560861 L166.459059,34.1807364 C167.061515,35.9067959 167.187611,37.793419 166.76329,39.6499365 L170.649231,40.5430719 Z M170.220906,32.8560861 C169.373265,30.4375958 167.856117,28.2499158 165.767536,26.594103 L163.292663,29.7250946 C164.777787,30.9092516 165.855603,32.4647122 166.459059,34.1807364 L170.220906,32.8560861 Z M165.767536,26.594103 L136.05705,2.99124334 L133.581176,6.13227015 L163.292663,29.7250946 L165.767536,26.594103 Z M136.05705,2.99124334 C132.34424,0.0408858817 127.385487,-0.792038161 122.917105,0.78349286 L124.238104,4.55673913 C127.415509,3.44282866 130.941178,4.0349072 133.581176,6.13227015 L136.05705,2.99124334 Z M122.917105,0.78349286 L27.2346876,34.4617228 L28.5546866,38.2349691 L124.238104,4.55673913 L122.917105,0.78349286 Z M27.2346876,34.4617228 C20.0432448,36.9906007 16.2583802,44.8883262 18.7822904,52.093621 L22.5441376,50.7790059 C20.7487788,45.6510037 23.4398155,40.0312752 28.5546866,38.2349691 L27.2346876,34.4617228 Z M18.7822904,52.093621 L22.5741603,62.9316688 L26.3360074,61.6070185 L22.5441376,50.7790059 L18.7822904,52.093621 Z" id="Shape" fill="#320170" fill-rule="nonzero"></path>
            <path d="M151.65204,44.6297209 C148.264564,45.8237612 144.557035,44.0327007 143.368825,40.6561113 C142.179636,37.2599475 143.960972,33.56038 147.348448,32.3663396 C150.733966,31.1820866 154.443453,32.9633598 155.631663,36.3497364 C156.819873,39.736113 155.038536,43.4454678 151.65204,44.6297209 Z" id="Path" fill="#C4B5D9"></path>
            <path d="M156,39.1512448 C155.830201,40.8056757 155.029299,42.4013694 153.634591,43.5369551 C150.844194,45.8081265 146.740553,45.3871766 144.465442,42.6069496 C142.192294,39.8267225 142.609431,35.7249086 145.398846,33.4635267 C146.6797,32.4160467 148.2393,31.9461492 149.769454,32.0048864" id="Path" stroke="#8D72B5" stroke-width="3.9837" stroke-linecap="round"></path>
            <path d="M149,39 C149,39 163.563354,35.0846263 173.519659,22.9439325 C183.47398,10.813356 195.6837,8.29416208 205,13.706888" id="Path" stroke="#8D72B5" stroke-width="3.9837" stroke-linecap="round"></path>
            <path d="M42.2780965,64.2205643 L77.4056671,52.1056507 C78.397915,51.7628681 79.4938753,52.2819388 79.8429072,53.2613174 L79.8927689,53.3984304 C80.2408036,54.3680153 79.7132668,55.4453318 78.7210188,55.7881143 L43.5934483,67.8932341 C42.6012003,68.2360167 41.5062373,67.7267398 41.1582026,66.7473611 L41.1073437,66.6102481 C40.759309,65.6308695 41.2858486,64.5633468 42.2780965,64.2205643 Z" id="Path" fill="#320170"></path>
            <path d="M46.2780965,74.2115745 L81.4056671,62.1057465 C82.397915,61.7629439 83.4938753,62.2820449 83.8429072,63.2516865 L83.8927689,63.3888075 C84.2408036,64.3682435 83.7132668,65.445623 82.7210188,65.7884255 L47.5934483,77.8942535 C46.6012003,78.2370561 45.5062373,77.7179551 45.1582026,76.7483135 L45.1073437,76.6013981 C44.759309,75.6317565 45.2858486,74.554377 46.2780965,74.2115745 Z" id="Path" fill="#320170"></path>
            <path d="M49.2673971,84.2067124 L75.4273851,75.1058822 C76.4113266,74.7626397 77.4991011,75.2824069 77.8442223,76.2532929 L77.8936666,76.3905899 C78.2387877,77.3712828 77.7156671,78.450045 76.7317256,78.7932876 L50.5717377,87.8941178 C49.5877962,88.2373603 48.5019994,87.7175931 48.1568783,86.7467071 L48.1064451,86.6094101 C47.7613239,85.6287172 48.2834557,84.549955 49.2673971,84.2067124 Z" id="Path" fill="#320170"></path>
            <path d="M116.107345,35.4767606 L125.618841,32.1470683 C127.463993,31.499347 129.319277,33.0882883 128.953489,35.0112109 L122.72091,67.9336697 C122.363228,69.836351 120.087441,70.6460026 118.596931,69.4112839 L110.909307,63.0049155 C110.20509,62.4077974 109.873753,61.4868187 110.043981,60.5860813 L114.45066,37.3996831 C114.621902,36.5090664 115.250125,35.7803799 116.107345,35.4767606 Z" id="Path" fill="#44E0B7" fill-rule="nonzero"></path>
            <path d="M103.651914,59.6286229 C107.038057,58.4438377 108.820238,54.7353635 107.631475,51.3447586 C106.442713,47.9637861 102.73385,46.181792 99.347707,47.3665773 C95.9615638,48.5609949 94.1803465,52.269469 95.3681458,55.6504416 C96.5569084,59.0410465 100.265771,60.8230406 103.651914,59.6286229 Z" id="Path" fill="#5132A2" fill-rule="nonzero"></path>
        </g>
    </g>
</svg>