<?xml version="1.0" encoding="UTF-8"?>
<svg width="234px" height="176px" viewBox="0 0 234 176" version="1.1" xmlns="http://www.w3.org/2000/svg" xmlns:xlink="http://www.w3.org/1999/xlink">
    <title>character-image-02</title>
    <g id="Page-2" stroke="none" stroke-width="1" fill="none" fill-rule="evenodd">
        <g id="character-image-02" fill-rule="nonzero">
            <path d="M141.513,46.16 L103.557,46.16 C103.445,46.16 103.337,46.12 103.257,46.04 C103.178,45.96 103.133,45.85 103.133,45.74 C103.133,45.63 103.178,45.52 103.257,45.44 C103.337,45.36 103.445,45.32 103.557,45.32 L141.513,45.32 C141.625,45.32 141.733,45.36 141.812,45.44 C141.892,45.52 141.936,45.63 141.936,45.74 C141.936,45.85 141.892,45.96 141.812,46.04 C141.733,46.12 141.625,46.16 141.513,46.16 Z" id="Path" fill="#3F3F3F"></path>
            <path d="M96.14,46.16 L84.287,46.16 C84.174,46.16 84.067,46.12 83.987,46.04 C83.908,45.96 83.863,45.85 83.863,45.74 C83.863,45.63 83.908,45.52 83.987,45.44 C84.067,45.36 84.174,45.32 84.287,45.32 L96.14,45.32 C96.252,45.32 96.36,45.36 96.439,45.44 C96.519,45.52 96.563,45.63 96.563,45.74 C96.563,45.85 96.519,45.96 96.439,46.04 C96.36,46.12 96.252,46.16 96.14,46.16 Z" id="Path" fill="#3F3F3F"></path>
            <path d="M101.33,46.16 L98.375,46.16 C98.263,46.16 98.155,46.12 98.076,46.04 C97.996,45.96 97.952,45.85 97.952,45.74 C97.954,45.63 97.999,45.52 98.078,45.44 C98.157,45.37 98.264,45.32 98.375,45.32 L101.33,45.32 C101.442,45.32 101.548,45.37 101.627,45.44 C101.706,45.52 101.751,45.63 101.753,45.74 C101.753,45.85 101.709,45.96 101.629,46.04 C101.55,46.12 101.442,46.16 101.33,46.16 Z" id="Path" fill="#3F3F3F"></path>
            <path d="M68.2,75.31 L30.227,75.31 C30.115,75.31 30.007,75.26 29.928,75.18 C29.848,75.1 29.804,75 29.804,74.88 C29.804,74.77 29.848,74.66 29.928,74.58 C30.007,74.5 30.115,74.46 30.227,74.46 L68.2,74.46 C68.312,74.46 68.42,74.5 68.499,74.58 C68.579,74.66 68.623,74.77 68.623,74.88 C68.623,75 68.579,75.1 68.499,75.18 C68.42,75.26 68.312,75.31 68.2,75.31 Z" id="Path" fill="#3F3F3F"></path>
            <path d="M22.827,75.31 L11.016,75.31 C10.904,75.31 10.796,75.26 10.717,75.18 C10.637,75.1 10.593,75 10.593,74.88 C10.593,74.77 10.637,74.66 10.717,74.58 C10.796,74.5 10.904,74.46 11.016,74.46 L22.827,74.46 C22.939,74.46 23.047,74.5 23.126,74.58 C23.206,74.66 23.25,74.77 23.25,74.88 C23.25,75 23.206,75.1 23.126,75.18 C23.047,75.26 22.939,75.31 22.827,75.31 Z" id="Path" fill="#3F3F3F"></path>
            <path d="M28,75.31 L25.02,75.31 C24.908,75.31 24.8,75.26 24.721,75.18 C24.641,75.1 24.597,75 24.597,74.88 C24.597,74.77 24.641,74.66 24.721,74.58 C24.8,74.5 24.908,74.46 25.02,74.46 L27.966,74.46 C28.079,74.46 28.186,74.5 28.266,74.58 C28.345,74.66 28.39,74.77 28.39,74.88 C28.39,75 28.345,75.1 28.266,75.18 C28.186,75.26 28.079,75.31 27.966,75.31 L28,75.31 Z" id="Path" fill="#3F3F3F"></path>
            <path d="M219.525,57.17 L183.965,57.17 C183.853,57.17 183.747,57.12 183.668,57.04 C183.589,56.97 183.544,56.86 183.541,56.75 C183.541,56.64 183.586,56.53 183.665,56.45 C183.745,56.37 183.852,56.32 183.965,56.32 L219.525,56.32 C219.637,56.32 219.745,56.37 219.824,56.45 C219.903,56.53 219.948,56.64 219.948,56.75 C219.948,56.86 219.903,56.97 219.824,57.05 C219.745,57.13 219.637,57.17 219.525,57.17 Z" id="Path" fill="#3F3F3F"></path>
            <path d="M176.573,57.17 L164.83,57.17 C164.718,57.17 164.61,57.13 164.531,57.05 C164.451,56.97 164.407,56.86 164.407,56.75 C164.407,56.64 164.451,56.53 164.531,56.45 C164.61,56.37 164.718,56.32 164.83,56.32 L176.573,56.32 C176.686,56.32 176.793,56.37 176.873,56.45 C176.952,56.53 176.997,56.64 176.997,56.75 C176.997,56.86 176.952,56.97 176.873,57.05 C176.793,57.13 176.686,57.17 176.573,57.17 Z" id="Path" fill="#3F3F3F"></path>
            <path d="M181.738,57.17 L178.792,57.17 C178.679,57.17 178.572,57.13 178.492,57.05 C178.413,56.97 178.368,56.86 178.368,56.75 C178.368,56.64 178.413,56.53 178.492,56.45 C178.572,56.37 178.679,56.32 178.792,56.32 L181.738,56.32 C181.85,56.32 181.958,56.37 182.037,56.45 C182.117,56.53 182.161,56.64 182.161,56.75 C182.161,56.86 182.117,56.97 182.037,57.05 C181.958,57.13 181.85,57.17 181.738,57.17 Z" id="Path" fill="#3F3F3F"></path>
            <path d="M121.887,117.26 L117.163,112.18 L115.69,118.62 C115.69,118.62 111.609,118.21 106.376,114.3 C103.244,111.91 101.044,108.51 100.153,104.67 L101.508,104.27 C105.741,114.58 114.453,115.96 114.453,115.96 L116.147,108.34 L121.65,114.72 C121.65,114.72 122.497,114.09 123.961,111.33 C124.579,110.08 124.92,108.71 124.961,107.32 C125.271,110.91 124.168,114.47 121.887,117.26 Z" id="Path" fill="#E6E2EE"></path>
            <path d="M182.906,156.13 C173.906,163.81 153.273,148.57 148.235,144.63 L146.178,125.75 C146.178,125.75 159.835,147.39 174.118,150.58 C188.401,153.76 188.096,139.87 188.808,129.34 C190.222,138.91 190.416,149.74 182.906,156.13 Z" id="Path" fill="#E6E2EE"></path>
            <path d="M92.228,151.46 C90.213,160.13 85.066,175.04 74.127,173.27 C64.06,171.65 56.237,159.63 54.111,144.11 C51.986,128.58 52.858,124.73 49.878,119.73 C50.09,119.83 53.544,121.63 55.373,130.64 C57.261,139.95 62.146,162.5 72.222,167.17 C73.915,167.95 78.995,167.34 80.18,163 C82.229,155.76 78.326,147.68 78.326,147.68 L88.097,149.83 L87.03,137.55 L92.228,151.46 Z" id="Path" fill="#E6E2EE"></path>
            <path d="M86.928,136.6 C86.928,136.6 100.56,168.77 123.716,174.91 L90.086,174.91 L86.928,136.6 Z" id="Path" fill="#E6E2EE"></path>
            <path d="M119.042,96.45 C116.155,96.45 113.649,95.03 112.896,93.65 C112.869,93.6 112.852,93.54 112.846,93.49 C112.84,93.43 112.845,93.38 112.861,93.32 C112.877,93.27 112.903,93.22 112.938,93.18 C112.973,93.13 113.016,93.1 113.065,93.07 C113.114,93.04 113.167,93.03 113.223,93.02 C113.278,93.01 113.334,93.02 113.388,93.03 C113.441,93.05 113.491,93.08 113.534,93.11 C113.578,93.15 113.614,93.19 113.641,93.24 C114.267,94.38 116.579,95.6 119.042,95.6 C121.007,95.6 123.741,94.86 125.629,91.37 C128.83,85.44 126.417,74.06 126.391,73.94 C126.38,73.89 126.379,73.83 126.39,73.77 C126.4,73.72 126.421,73.67 126.453,73.62 C126.484,73.57 126.524,73.53 126.571,73.5 C126.617,73.47 126.67,73.44 126.726,73.43 C126.781,73.42 126.839,73.42 126.895,73.43 C126.95,73.44 127.004,73.46 127.051,73.49 C127.099,73.52 127.14,73.56 127.172,73.61 C127.204,73.66 127.226,73.71 127.238,73.77 C127.348,74.25 129.778,85.62 126.391,91.77 C125.73,93.15 124.694,94.32 123.401,95.14 C122.108,95.97 120.609,96.41 119.076,96.42 L119.042,96.45 Z" id="Path" fill="#2C0F6B"></path>
            <path d="M120.024,87.65 C119.969,87.65 119.913,87.65 119.86,87.63 C119.807,87.61 119.758,87.58 119.716,87.55 C119.631,87.47 119.579,87.37 119.571,87.26 C119.564,87.14 119.601,87.03 119.675,86.95 C119.748,86.86 119.853,86.81 119.965,86.8 C120.236,86.76 120.295,86.67 120.321,86.63 C120.524,86.33 120.321,85.46 120.084,84.7 L119.931,84.11 C119.696,83.11 119.534,82.1 119.449,81.07 C119.442,80.96 119.479,80.85 119.553,80.76 C119.628,80.67 119.733,80.62 119.847,80.61 C119.96,80.6 120.071,80.64 120.157,80.71 C120.242,80.79 120.295,80.89 120.304,81 C120.383,81.98 120.536,82.95 120.761,83.9 L120.913,84.47 C121.201,85.54 121.447,86.47 121.032,87.09 C120.925,87.25 120.785,87.37 120.623,87.47 C120.46,87.56 120.279,87.62 120.092,87.63 L120.024,87.65 Z" id="Path" fill="#2C0F6B"></path>
            <path d="M112.675,78.91 C112.598,78.91 112.521,78.89 112.455,78.85 C112.408,78.83 112.366,78.79 112.333,78.74 C112.299,78.7 112.275,78.65 112.262,78.6 C112.249,78.54 112.246,78.49 112.255,78.43 C112.263,78.38 112.282,78.33 112.311,78.28 C112.714,77.55 113.349,76.97 114.115,76.64 C114.882,76.31 115.737,76.25 116.545,76.46 C116.598,76.47 116.648,76.5 116.691,76.53 C116.734,76.57 116.771,76.61 116.797,76.66 C116.824,76.71 116.841,76.76 116.847,76.82 C116.853,76.87 116.848,76.93 116.833,76.98 C116.817,77.04 116.791,77.09 116.755,77.13 C116.72,77.18 116.676,77.21 116.626,77.24 C116.577,77.27 116.522,77.28 116.466,77.29 C116.41,77.29 116.353,77.29 116.299,77.27 C115.672,77.11 115.01,77.17 114.418,77.43 C113.826,77.69 113.338,78.14 113.031,78.71 C112.994,78.77 112.942,78.82 112.879,78.86 C112.817,78.89 112.747,78.91 112.675,78.91 Z" id="Path" fill="#2C0F6B"></path>
            <path d="M125.392,77.91 C125.329,77.91 125.266,77.9 125.208,77.87 C125.151,77.84 125.101,77.8 125.062,77.75 C124.77,77.35 124.358,77.05 123.884,76.9 C123.411,76.75 122.901,76.75 122.429,76.91 C122.376,76.93 122.319,76.95 122.261,76.95 C122.203,76.95 122.145,76.94 122.091,76.92 C122.037,76.9 121.988,76.86 121.947,76.82 C121.906,76.78 121.874,76.73 121.853,76.68 C121.831,76.62 121.822,76.56 121.824,76.51 C121.827,76.45 121.841,76.39 121.867,76.34 C121.892,76.29 121.928,76.24 121.973,76.2 C122.017,76.16 122.068,76.14 122.124,76.12 C122.77,75.89 123.473,75.87 124.129,76.07 C124.786,76.27 125.362,76.67 125.773,77.22 C125.842,77.31 125.872,77.42 125.858,77.53 C125.843,77.64 125.786,77.74 125.697,77.81 C125.657,77.85 125.609,77.88 125.556,77.9 C125.503,77.91 125.447,77.92 125.392,77.91 Z" id="Path" fill="#2C0F6B"></path>
            <path d="M115.249,83.32 C115.14,83.32 115.035,83.27 114.956,83.2 C114.877,83.12 114.83,83.02 114.826,82.91 L114.724,80.15 C114.722,80.09 114.731,80.04 114.75,79.99 C114.769,79.93 114.799,79.89 114.836,79.84 C114.874,79.8 114.919,79.77 114.97,79.75 C115.021,79.72 115.075,79.71 115.131,79.71 C115.24,79.71 115.344,79.75 115.422,79.83 C115.501,79.9 115.548,80.01 115.554,80.12 L115.656,82.88 C115.658,82.93 115.649,82.99 115.629,83.04 C115.61,83.09 115.579,83.14 115.541,83.18 C115.502,83.22 115.456,83.26 115.404,83.28 C115.353,83.3 115.297,83.31 115.241,83.32 L115.249,83.32 Z" id="Path" fill="#2C0F6B"></path>
            <path d="M123.36,82.54 C123.251,82.54 123.146,82.49 123.067,82.42 C122.988,82.34 122.941,82.24 122.937,82.13 L122.835,79.51 C122.833,79.46 122.842,79.4 122.861,79.35 C122.88,79.3 122.91,79.25 122.947,79.21 C122.985,79.17 123.031,79.14 123.081,79.11 C123.132,79.09 123.186,79.08 123.242,79.07 C123.298,79.07 123.355,79.07 123.409,79.09 C123.463,79.11 123.513,79.14 123.554,79.18 C123.596,79.22 123.629,79.26 123.651,79.32 C123.673,79.37 123.684,79.42 123.682,79.48 L123.784,82.1 C123.786,82.15 123.777,82.21 123.757,82.26 C123.738,82.31 123.707,82.36 123.669,82.4 C123.63,82.44 123.584,82.48 123.532,82.5 C123.481,82.52 123.425,82.54 123.369,82.54 L123.36,82.54 Z" id="Path" fill="#2C0F6B"></path>
            <path d="M119.237,90.77 C118.577,90.77 117.927,90.6 117.353,90.27 C116.78,89.95 116.302,89.47 115.969,88.9 C115.935,88.86 115.912,88.8 115.899,88.75 C115.887,88.69 115.886,88.63 115.897,88.58 C115.907,88.52 115.929,88.47 115.962,88.42 C115.994,88.37 116.035,88.33 116.084,88.3 C116.132,88.27 116.186,88.25 116.243,88.24 C116.299,88.23 116.357,88.23 116.413,88.25 C116.469,88.26 116.522,88.28 116.567,88.32 C116.613,88.35 116.652,88.4 116.68,88.45 C117.016,89.04 117.547,89.49 118.182,89.73 C118.818,89.97 119.517,89.99 120.16,89.77 C120.265,89.73 120.382,89.73 120.483,89.78 C120.585,89.83 120.664,89.92 120.702,90.02 C120.722,90.07 120.732,90.13 120.73,90.18 C120.729,90.24 120.716,90.29 120.694,90.34 C120.671,90.39 120.638,90.44 120.597,90.48 C120.556,90.52 120.508,90.54 120.456,90.56 C120.064,90.7 119.652,90.77 119.237,90.77 Z" id="Path" fill="#2C0F6B"></path>
            <path d="M107.629,96.19 C104.598,98.52 100.289,97.7 97.723,96.19 C96.332,95.38 95.23,94.16 94.574,92.7 C102.769,93.72 97.825,79.86 102.058,71.36 C104.183,67.13 108.332,63.4 115.385,63.55 C129.228,63.84 127.526,75.69 127.526,75.69 C122.895,75.36 118.518,73.44 115.131,70.27 C115.131,70.27 106.943,73.59 107.147,82.3 C107.435,91.68 107.629,96.19 107.629,96.19 Z" id="Path" fill="#2C0F6B"></path>
            <path d="M120.998,103.7 C120.889,103.7 120.784,103.65 120.705,103.58 C120.626,103.5 120.579,103.4 120.575,103.29 L120.329,96.02 C120.328,95.97 120.338,95.91 120.358,95.86 C120.378,95.81 120.409,95.76 120.447,95.72 C120.486,95.68 120.532,95.65 120.583,95.63 C120.634,95.61 120.689,95.59 120.744,95.59 C120.8,95.59 120.857,95.59 120.91,95.61 C120.964,95.63 121.013,95.66 121.054,95.7 C121.095,95.73 121.127,95.78 121.148,95.83 C121.169,95.89 121.179,95.94 121.176,96 L121.421,103.26 C121.424,103.31 121.415,103.37 121.396,103.42 C121.377,103.47 121.347,103.52 121.31,103.56 C121.272,103.6 121.226,103.63 121.176,103.66 C121.125,103.68 121.071,103.69 121.015,103.7 L120.998,103.7 Z" id="Path" fill="#2C0F6B"></path>
            <path d="M173.102,131.41 C172.996,131.41 172.893,131.37 172.814,131.3 L151.783,112.16 C147.666,108.33 142.807,105.38 137.507,103.5 C132.206,101.62 126.577,100.84 120.964,101.21 C120.852,101.23 120.739,101.2 120.649,101.13 C120.559,101.06 120.501,100.96 120.486,100.85 C120.471,100.73 120.502,100.62 120.571,100.53 C120.64,100.44 120.742,100.38 120.854,100.37 C126.587,99.98 132.339,100.77 137.756,102.69 C143.173,104.6 148.142,107.61 152.359,111.51 L173.381,130.64 C173.444,130.7 173.489,130.78 173.508,130.86 C173.528,130.94 173.523,131.03 173.493,131.11 C173.462,131.19 173.409,131.26 173.339,131.3 C173.27,131.35 173.187,131.38 173.102,131.38 L173.102,131.41 Z" id="Path" fill="#2C0F6B"></path>
            <path d="M75.253,141.21 L75.193,141.21 C75.138,141.21 75.084,141.19 75.036,141.16 C74.987,141.13 74.945,141.1 74.911,141.05 C74.877,141.01 74.852,140.96 74.838,140.9 C74.824,140.85 74.821,140.79 74.829,140.74 C74.939,139.89 77.632,120.42 85.328,112.8 C93.024,105.18 104.801,102.91 107.011,102.55 L106.766,95.78 C106.763,95.72 106.772,95.67 106.791,95.62 C106.811,95.56 106.84,95.52 106.878,95.47 C106.915,95.43 106.961,95.4 107.011,95.38 C107.062,95.35 107.116,95.34 107.172,95.34 C107.229,95.34 107.285,95.34 107.339,95.36 C107.392,95.38 107.441,95.41 107.482,95.45 C107.523,95.49 107.556,95.54 107.579,95.59 C107.601,95.64 107.612,95.7 107.612,95.75 L107.875,102.93 C107.88,103.04 107.844,103.14 107.774,103.22 C107.705,103.3 107.608,103.35 107.502,103.37 C107.375,103.37 94.337,105.13 85.929,113.43 C78.428,120.84 75.693,140.69 75.668,140.9 C75.643,140.99 75.589,141.07 75.514,141.13 C75.439,141.18 75.347,141.21 75.253,141.21 Z" id="Path" fill="#2C0F6B"></path>
            <path d="M104.353,79.83 C104.322,79.84 104.29,79.84 104.26,79.83 C104.192,79.83 97.85,76.53 99.18,70.98 C100.39,65.99 105.953,65.37 105.953,65.37 C105.981,65.36 106.01,65.36 106.037,65.37 C106.065,65.38 106.09,65.39 106.113,65.41 C106.135,65.42 106.153,65.45 106.167,65.47 C106.18,65.5 106.188,65.52 106.19,65.55 C106.192,65.58 106.189,65.61 106.18,65.64 C106.172,65.66 106.158,65.69 106.14,65.71 C106.122,65.73 106.1,65.75 106.075,65.76 C106.05,65.77 106.023,65.78 105.995,65.78 C105.944,65.78 100.712,66.38 99.569,71.08 C98.307,76.31 104.353,79.42 104.412,79.45 C104.438,79.46 104.461,79.48 104.48,79.5 C104.5,79.52 104.515,79.54 104.524,79.57 C104.534,79.6 104.537,79.62 104.536,79.65 C104.534,79.68 104.526,79.71 104.514,79.73 C104.495,79.76 104.471,79.78 104.443,79.8 C104.415,79.81 104.384,79.82 104.353,79.83 Z" id="Path" fill="#74DCB9"></path>
            <path d="M103.84,82.92 C105.569,82.86 106.909,81.1 106.831,79 C106.754,76.9 105.29,75.24 103.561,75.31 C101.832,75.37 100.493,77.13 100.57,79.23 C100.647,81.33 102.111,82.98 103.84,82.92 Z" id="Path" fill="#74DCB9"></path>
            <path d="M109.78,88.52 C109.752,88.53 109.723,88.53 109.695,88.52 C103.768,86.18 103.133,78.96 103.125,78.9 C103.125,78.84 103.147,78.79 103.187,78.75 C103.227,78.71 103.281,78.68 103.337,78.68 C103.393,78.68 103.447,78.71 103.486,78.75 C103.526,78.79 103.548,78.84 103.548,78.9 C103.548,78.96 104.183,85.92 109.856,88.21 C109.9,88.23 109.937,88.26 109.96,88.3 C109.983,88.35 109.99,88.4 109.981,88.44 C109.972,88.49 109.948,88.53 109.911,88.57 C109.874,88.6 109.828,88.61 109.78,88.62 L109.78,88.52 Z" id="Path" fill="#74DCB9"></path>
            <path d="M113.2,89.43 C113.605,88.56 113,87.42 111.85,86.89 C110.7,86.36 109.44,86.63 109.035,87.51 C108.631,88.38 109.235,89.52 110.385,90.05 C111.535,90.59 112.796,90.31 113.2,89.43 Z" id="Path" fill="#74DCB9"></path>
            <path d="M90.408,175.33 C90.303,175.33 90.201,175.29 90.123,175.22 C90.044,175.15 89.995,175.06 89.985,174.95 C87.182,145.51 86.446,135.81 86.437,135.72 C86.433,135.66 86.44,135.6 86.458,135.55 C86.476,135.5 86.504,135.45 86.54,135.41 C86.614,135.32 86.719,135.27 86.831,135.26 C86.943,135.26 87.054,135.29 87.139,135.37 C87.224,135.44 87.276,135.54 87.284,135.66 C87.284,135.75 88.029,145.44 90.831,174.87 C90.841,174.98 90.806,175.09 90.735,175.18 C90.664,175.26 90.562,175.32 90.45,175.33 L90.408,175.33 Z" id="Path" fill="#2C0F6B"></path>
            <path d="M151.36,174.59 C151.257,174.59 151.157,174.55 151.08,174.48 C151.004,174.41 150.955,174.32 150.945,174.21 C150.894,173.75 146.127,128.08 145.348,122.4 C145.336,122.29 145.367,122.18 145.435,122.09 C145.503,122 145.602,121.94 145.712,121.92 C145.768,121.92 145.824,121.92 145.878,121.93 C145.932,121.95 145.983,121.97 146.027,122.01 C146.071,122.04 146.108,122.08 146.136,122.13 C146.163,122.18 146.18,122.23 146.187,122.29 C146.965,127.98 151.732,173.66 151.783,174.12 C151.789,174.18 151.784,174.23 151.768,174.29 C151.752,174.34 151.725,174.39 151.69,174.43 C151.654,174.48 151.611,174.51 151.561,174.54 C151.512,174.57 151.458,174.58 151.402,174.59 L151.36,174.59 Z" id="Path" fill="#2C0F6B"></path>
            <path d="M176.446,158.69 C166.447,158.69 152.74,148.67 147.973,144.96 C147.892,144.89 147.841,144.79 147.83,144.68 C147.82,144.58 147.851,144.47 147.917,144.38 C147.983,144.3 148.079,144.24 148.185,144.23 C148.291,144.21 148.4,144.23 148.489,144.29 C152.638,147.54 173.779,163.35 182.627,155.8 C190.247,149.34 189.705,138.32 188.401,129.43 C188.397,129.4 188.397,129.37 188.401,129.34 C188.029,126.8 187.555,124.26 187.131,122.03 C186.285,117.33 185.54,113.62 186.022,111.48 C187.665,104.16 188.444,95.53 186.632,93.95 C186.508,93.84 186.357,93.77 186.195,93.73 C186.032,93.7 185.865,93.72 185.709,93.77 C185.23,95.56 184.893,97.39 184.701,99.23 C184.74,99.3 184.795,99.36 184.862,99.4 C184.928,99.44 185.004,99.46 185.082,99.46 C185.26,99.46 185.497,99.2 185.65,98.56 C185.946,97.28 186.361,95.3 186.361,95.3 L187.207,95.47 C187.207,95.47 186.784,97.46 186.488,98.75 C186.191,100.05 185.548,100.27 185.184,100.3 C184.922,100.32 184.661,100.25 184.437,100.12 C184.213,99.98 184.036,99.78 183.931,99.54 C183.736,99.12 184.075,97.04 184.938,93.35 C184.953,93.28 184.985,93.22 185.031,93.17 C185.077,93.11 185.135,93.08 185.201,93.05 C185.524,92.9 185.883,92.85 186.236,92.9 C186.588,92.94 186.92,93.09 187.191,93.32 C190.315,96.06 186.987,111.04 186.843,111.68 C186.403,113.64 187.123,117.46 187.961,121.89 C188.384,124.13 188.867,126.68 189.248,129.27 C190.586,138.38 191.102,149.69 183.194,156.43 C181.296,157.98 178.896,158.78 176.446,158.69 Z" id="Path" fill="#2C0F6B"></path>
            <path d="M182.864,99.89 C182.509,99.89 182.168,99.75 181.916,99.5 C181.693,99.26 181.535,98.97 181.458,98.65 C181.38,98.33 181.387,98 181.476,97.68 C181.526,97.48 181.603,97.06 181.696,96.5 C182.348,92.56 182.881,90.37 183.778,90.07 C184.061,89.96 184.367,89.94 184.664,89.99 C184.962,90.04 185.241,90.17 185.472,90.36 C186.064,90.92 186.175,91.94 185.785,93.38 C185.771,93.44 185.747,93.49 185.713,93.53 C185.68,93.58 185.638,93.61 185.59,93.64 C185.542,93.67 185.489,93.69 185.434,93.7 C185.379,93.7 185.323,93.7 185.269,93.69 C185.159,93.66 185.065,93.59 185.008,93.49 C184.951,93.39 184.935,93.27 184.964,93.16 C185.252,92.09 185.226,91.29 184.888,90.97 C184.765,90.89 184.624,90.83 184.476,90.82 C184.328,90.8 184.179,90.82 184.041,90.88 C183.643,91.09 183.127,93.04 182.525,96.64 C182.432,97.22 182.356,97.68 182.297,97.89 C182.246,98.06 182.24,98.24 182.276,98.41 C182.313,98.59 182.393,98.75 182.508,98.89 C182.575,98.95 182.658,99 182.749,99.02 C182.84,99.04 182.935,99.04 183.025,99.01 C183.397,98.91 183.872,97.68 184.066,96.64 C184.087,96.53 184.15,96.44 184.242,96.37 C184.334,96.31 184.447,96.28 184.557,96.3 C184.667,96.32 184.764,96.39 184.828,96.48 C184.891,96.57 184.916,96.68 184.896,96.79 C184.778,97.44 184.303,99.55 183.203,99.83 C183.093,99.86 182.979,99.88 182.864,99.89 Z" id="Path" fill="#2C0F6B"></path>
            <path d="M180.714,99.33 C180.332,99.32 179.967,99.18 179.681,98.93 C178.834,98.2 179.537,94.07 179.774,93 C180.476,89.86 181.281,89.62 181.543,89.62 C181.781,89.54 182.033,89.51 182.282,89.53 C182.532,89.56 182.773,89.64 182.991,89.76 C183.409,90.03 183.711,90.45 183.838,90.93 C183.852,90.98 183.855,91.04 183.847,91.09 C183.839,91.15 183.821,91.2 183.793,91.25 C183.764,91.3 183.727,91.34 183.682,91.37 C183.638,91.41 183.587,91.43 183.533,91.44 C183.424,91.47 183.309,91.45 183.213,91.4 C183.117,91.34 183.046,91.25 183.016,91.14 C182.988,91 182.931,90.87 182.849,90.76 C182.767,90.65 182.662,90.56 182.54,90.49 C182.419,90.42 182.284,90.38 182.146,90.37 C182.008,90.36 181.868,90.38 181.738,90.43 C181.636,90.43 181.357,90.73 181.044,91.59 C180.155,93.99 179.909,97.88 180.197,98.36 C180.277,98.44 180.375,98.49 180.481,98.52 C180.588,98.55 180.7,98.55 180.807,98.52 C180.943,98.48 181.068,98.4 181.171,98.3 C181.273,98.2 181.351,98.07 181.399,97.94 C181.438,97.83 181.516,97.75 181.617,97.7 C181.718,97.65 181.834,97.64 181.941,97.68 C182.047,97.71 182.133,97.79 182.182,97.89 C182.231,97.99 182.239,98.11 182.204,98.22 C182.109,98.48 181.955,98.72 181.752,98.92 C181.549,99.11 181.304,99.26 181.035,99.34 C180.928,99.35 180.82,99.35 180.714,99.33 Z" id="Path" fill="#2C0F6B"></path>
            <path d="M177.098,100.37 L176.997,100.37 C176.943,100.35 176.892,100.33 176.847,100.3 C176.803,100.26 176.765,100.22 176.737,100.17 C176.709,100.12 176.69,100.07 176.682,100.02 C176.675,99.96 176.678,99.91 176.692,99.85 C177.539,96.54 177.318,92.23 177.141,89.09 C177.064,87.9 177.005,86.85 177.022,86.1 C177.022,84.41 177.31,83.56 177.869,83.13 C178.092,83 178.342,82.93 178.599,82.91 C178.856,82.9 179.113,82.94 179.35,83.04 C180.781,83.49 181.044,89.11 181.044,91.5 C181.045,91.56 181.035,91.61 181.015,91.66 C180.994,91.72 180.964,91.76 180.925,91.8 C180.887,91.84 180.841,91.87 180.79,91.89 C180.739,91.92 180.684,91.93 180.629,91.93 C180.517,91.93 180.41,91.88 180.329,91.81 C180.249,91.73 180.201,91.62 180.197,91.51 C180.138,87.68 179.613,84.09 179.079,83.85 C178.546,83.6 178.428,83.76 178.343,83.85 C178.258,83.93 177.886,84.51 177.852,86.14 C177.852,86.86 177.894,87.89 177.962,89.06 C178.148,92.27 178.402,96.68 177.496,100.07 C177.469,100.16 177.417,100.23 177.345,100.28 C177.274,100.34 177.187,100.37 177.098,100.37 Z" id="Path" fill="#2C0F6B"></path>
            <path d="M170.791,143.87 C170.683,143.87 170.58,143.83 170.503,143.75 C170.426,143.68 170.38,143.58 170.376,143.47 C170.079,138.82 171.739,133.59 173.5,128.07 C173.856,126.96 174.211,125.84 174.558,124.68 C176.565,118.11 177.539,109.38 175.777,106.84 C175.303,106.17 174.812,105.56 174.33,104.97 C172.958,103.28 171.79,101.85 172.459,99.97 C172.732,99.06 172.942,98.14 173.085,97.2 C173.508,94.83 173.813,93.36 174.668,93.06 C174.852,93 175.048,93 175.233,93.05 C175.419,93.1 175.587,93.2 175.718,93.34 C177.285,94.7 176.269,97.86 175.845,98.98 L176.76,99.49 C178.072,100.21 179.867,103.3 180.062,103.64 C180.09,103.69 180.109,103.75 180.117,103.8 C180.125,103.85 180.121077,103.91 180.107,103.96 C180.093,104.02 180.068,104.07 180.034,104.11 C180,104.16 179.958,104.19 179.909,104.22 C179.811,104.28 179.695,104.29 179.586,104.26 C179.477,104.23 179.383,104.16 179.325,104.07 C178.817,103.17 177.293,100.74 176.353,100.22 L175.109,99.54 C175.015,99.49 174.944,99.4 174.91,99.3 C174.875,99.2 174.88,99.09 174.922,99 C175.38,97.94 176.311,94.97 175.159,93.98 C175.041,93.87 174.965,93.85 174.948,93.86 C174.516,94.01 174.101,96.1 173.915,97.35 C173.772,98.33 173.551,99.31 173.254,100.26 C172.738,101.68 173.678,102.84 174.948,104.44 C175.43,105.03 175.938,105.66 176.429,106.36 C178.394,109.19 177.386,118.22 175.329,124.93 C174.982,126.06 174.618,127.2 174.27,128.32 C172.535,133.77 170.884,138.92 171.172,143.41 C171.176,143.47 171.17,143.52 171.153,143.58 C171.135,143.63 171.108,143.68 171.071,143.72 C171.035,143.76 170.991,143.79 170.941,143.82 C170.891,143.84 170.837,143.86 170.782,143.86 L170.791,143.87 Z" id="Path" fill="#2C0F6B"></path>
            <path d="M148.159,141.9 C148.078,141.9 147.998,141.87 147.931,141.83 C147.836,141.77 147.77,141.67 147.746,141.56 C147.723,141.45 147.743,141.34 147.804,141.24 L161.333,120.32 C161.362,120.27 161.4,120.23 161.446,120.2 C161.492,120.16 161.544,120.14 161.6,120.12 C161.656,120.11 161.714,120.11 161.771,120.12 C161.827,120.13 161.882,120.15 161.93,120.18 C161.978,120.21 162.02,120.25 162.052,120.3 C162.084,120.34 162.106,120.4 162.117,120.45 C162.128,120.51 162.127,120.57 162.114,120.63 C162.102,120.68 162.078,120.73 162.045,120.78 L148.54,141.7 C148.501,141.77 148.445,141.82 148.377,141.85 C148.31,141.89 148.235,141.9 148.159,141.9 Z" id="Path" fill="#2C0F6B"></path>
            <path d="M75.939,173.84 C75.306,173.84 74.675,173.79 74.05,173.69 C64.068,172.05 55.889,160.19 53.688,144.17 C52.977,139 52.604,135.15 52.3,132.06 C51.715,126.01 51.453,123.23 49.514,119.99 L49.311,119.65 C46.5,114.96 46.204,114.46 45.967,110.83 C45.714,108.91 45.163,107.03 44.332,105.28 C43.664,103.65 43.139,102.37 43.35,101.55 C43.562,100.73 44.011,100.49 44.341,100.46 C45.34,100.36 46.136,101.76 46.441,102.36 C47.237,103.96 49.319,109.02 49.412,109.24 C49.452,109.34 49.451,109.46 49.408,109.56 C49.366,109.66 49.285,109.75 49.184,109.79 C49.079,109.83 48.963,109.83 48.859,109.79 C48.755,109.75 48.672,109.66 48.625,109.56 C48.625,109.5 46.466,104.3 45.687,102.74 C45.12,101.63 44.561,101.28 44.426,101.31 C44.29,101.33 44.248,101.46 44.172,101.76 C44.036,102.31 44.561,103.59 45.111,104.96 C45.978,106.79 46.55,108.76 46.805,110.77 C47.033,114.16 47.262,114.58 50.031,119.24 L50.217,119.54 L50.217,119.59 C52.266,122.97 52.545,125.84 53.146,132.03 C53.443,135.12 53.815,138.96 54.526,144.12 C56.677,159.79 64.576,171.36 74.186,172.91 C84.634,174.6 88.622,160.79 88.664,160.65 C88.694,160.54 88.768,160.44 88.869,160.38 C88.97,160.33 89.089,160.31 89.202,160.34 C89.314,160.37 89.409,160.45 89.467,160.55 C89.525,160.65 89.541,160.77 89.511,160.88 C89.443,160.96 85.709,173.84 75.939,173.84 Z" id="Path" fill="#2C0F6B"></path>
            <path d="M51.351,108.83 C51.268,108.83 51.186,108.81 51.117,108.76 C51.048,108.72 50.994,108.65 50.962,108.57 C50.835,108.28 47.922,101.23 47.457,99.96 C46.712,97.92 45.679,96.21 45.154,96.15 C45.078,96.15 45.001,96.2 44.917,96.33 C44.222,97.34 45.23,100.13 46.017,101.65 C46.048,101.7 46.068,101.75 46.077,101.81 C46.086,101.87 46.082,101.92 46.068,101.98 C46.053,102.04 46.026,102.09 45.99,102.13 C45.954,102.18 45.909,102.22 45.858,102.24 C45.807,102.27 45.75,102.29 45.693,102.29 C45.635,102.3 45.577,102.29 45.522,102.27 C45.467,102.25 45.416,102.22 45.373,102.18 C45.33,102.14 45.296,102.1 45.272,102.04 C45.035,101.6 43.012,97.61 44.214,95.86 C44.315,95.67 44.468,95.52 44.653,95.42 C44.838,95.33 45.047,95.29 45.255,95.3 C46.61,95.48 47.888,98.69 48.244,99.67 C48.71,100.93 51.715,108.17 51.741,108.25 C51.763,108.3 51.774,108.36 51.775,108.41 C51.775,108.47 51.764,108.52 51.743,108.57 C51.722,108.63 51.69,108.67 51.651,108.71 C51.611,108.75 51.564,108.78 51.512,108.8 C51.462,108.82 51.407,108.84 51.351,108.83 Z" id="Path" fill="#2C0F6B"></path>
            <path d="M54.061,107.7 C53.973,107.7 53.887,107.67 53.815,107.62 C53.742,107.57 53.686,107.5 53.654,107.42 C51.961,102.6 48.718,94.72 47.245,94.14 C47.245,94.14 47.177,94.14 47.16,94.14 C46,94.7 47.16,97.21 47.16,97.24 C47.184,97.29 47.198,97.34 47.201,97.39 C47.204,97.45 47.196,97.51 47.177,97.56 C47.158,97.61 47.129,97.66 47.091,97.7 C47.053,97.74 47.008,97.77 46.957,97.79 C46.907,97.82 46.852,97.83 46.796,97.84 C46.74,97.84 46.684,97.83 46.631,97.81 C46.578,97.79 46.53,97.76 46.488,97.73 C46.447,97.69 46.413,97.64 46.39,97.59 C46.331,97.46 44.874,94.31 46.796,93.36 C46.918,93.3 47.051,93.27 47.186,93.27 C47.32,93.27 47.453,93.3 47.575,93.36 C49.878,94.31 54.001,105.83 54.467,107.14 C54.502,107.25 54.495,107.36 54.446,107.47 C54.397,107.57 54.31,107.64 54.205,107.68 C54.158,107.7 54.109,107.7 54.061,107.7 Z" id="Path" fill="#2C0F6B"></path>
            <path d="M57.905,109.39 C57.818,109.39 57.733,109.37 57.661,109.32 C57.59,109.27 57.536,109.2 57.507,109.11 C54.967,102.07 51.639,94.42 50.564,94.33 C50.442,94.35 50.326,94.39 50.225,94.46 C50.123,94.53 50.039,94.62 49.98,94.73 C49.784,95.43 49.844,96.18 50.149,96.85 C50.192,96.95 50.191,97.07 50.147,97.17 C50.104,97.28 50.021,97.36 49.916,97.4 C49.812,97.44 49.695,97.44 49.591,97.4 C49.487,97.36 49.404,97.27 49.362,97.17 C49.285,96.99 48.667,95.4 49.235,94.33 C49.35,94.11 49.517,93.91 49.721,93.77 C49.926,93.62 50.162,93.52 50.412,93.48 C52.452,93.04 56.618,104.06 58.302,108.81 C58.341,108.91 58.335,109.03 58.288,109.13 C58.24,109.23 58.154,109.31 58.048,109.35 L57.905,109.39 Z" id="Path" fill="#2C0F6B"></path>
            <path d="M80.273,154.59 C80.178,154.59 80.087,154.55 80.013,154.49 C79.939,154.43 79.888,154.35 79.867,154.26 C77.005,141.83 68.793,130.48 64.373,124.39 C63.479,123.22 62.651,122 61.892,120.74 C60.639,118.27 60.741,111.43 60.8,107.34 C60.8,106.4 60.8,105.65 60.8,105.2 C60.8,104.1 60.504,103.85 60.428,103.8 C60.386,103.78 60.342,103.78 60.301,103.8 C58.607,104.28 58.548,107.6 58.675,108.88 C58.682,108.98 58.658,109.07 58.607,109.16 C57.908,110.23 57.429,111.43 57.196,112.69 C56.964,113.95 56.983,115.24 57.253,116.5 C57.268,116.55 57.273,116.61 57.266,116.66 C57.259,116.72 57.242,116.77 57.214,116.82 C57.187,116.87 57.15,116.91 57.105,116.95 C57.061,116.98 57.01,117.01 56.956,117.02 C56.848,117.05 56.734,117.04 56.637,116.98 C56.54,116.92 56.47,116.83 56.44,116.73 C56.133,115.38 56.097,113.99 56.334,112.63 C56.571,111.27 57.076,109.97 57.82,108.81 C57.752,107.96 57.557,103.73 60.021,103.04 C60.162,102.990343 60.311,102.98 60.458,103 C60.604,103.02 60.745,103.07 60.868,103.15 C61.35,103.46 61.604,104.14 61.63,105.24 C61.63,105.7 61.63,106.46 61.63,107.42 C61.571,111.16 61.469,118.13 62.629,120.43 C63.367,121.65 64.176,122.83 65.05,123.96 C69.495,130.1 77.75,141.54 80.671,154.13 C80.697,154.24 80.678,154.35 80.619,154.45 C80.561,154.55 80.467,154.61 80.358,154.64 L80.273,154.59 Z" id="Path" fill="#2C0F6B"></path>
            <path d="M88.08,150.27 L87.987,150.27 L78.216,148.12 C78.104,148.1 78.006,148.03 77.944,147.93 C77.882,147.83 77.861,147.72 77.886,147.6 C77.911,147.49 77.979,147.39 78.076,147.33 C78.173,147.27 78.29,147.25 78.402,147.27 L88.173,149.42 C88.285,149.44 88.388,149.49 88.459,149.58 C88.529,149.67 88.562,149.78 88.55,149.89 C88.537,150.01 88.481,150.11 88.393,150.18 C88.305,150.25 88.192,150.28 88.08,150.27 Z" id="Path" fill="#2C0F6B"></path>
            <path d="M120.82,123.18 C120.722,123.18 120.627,123.14 120.552,123.08 C120.476,123.01 120.425,122.93 120.405,122.83 L119.288,117.17 C119.276,117.11 119.274,117.05 119.284,117 C119.294,116.94 119.316,116.89 119.346,116.85 C119.377,116.8 119.417,116.76 119.464,116.73 C119.511,116.7 119.563,116.68 119.618,116.67 C119.673,116.66 119.729,116.65 119.783,116.67 C119.838,116.68 119.89,116.7 119.936,116.73 C119.983,116.76 120.023,116.8 120.054,116.84 C120.085,116.89 120.106,116.94 120.118,117 L121.235,122.67 C121.246,122.72 121.247,122.78 121.236,122.83 C121.225,122.89 121.204,122.94 121.174,122.99 C121.143,123.03 121.103,123.07 121.057,123.1 C121.011,123.14 120.959,123.16 120.905,123.17 L120.82,123.18 Z" id="Path" fill="#2C0F6B"></path>
            <path d="M122.691,132.32 C122.594,132.32 122.499,132.29 122.424,132.23 C122.348,132.16 122.296,132.08 122.277,131.98 L121.159,126.31 C121.148,126.26 121.148,126.2 121.158,126.14 C121.169,126.09 121.19,126.04 121.221,125.99 C121.251,125.95 121.291,125.91 121.337,125.87 C121.383,125.84 121.435,125.82 121.489,125.81 C121.6,125.79 121.715,125.81 121.808,125.88 C121.901,125.94 121.966,126.04 121.989,126.15 L123.106,131.81 C123.119,131.87 123.12,131.92 123.11,131.98 C123.1,132.03 123.079,132.09 123.048,132.13 C123.017,132.18 122.977,132.22 122.93,132.25 C122.884,132.28 122.831,132.3 122.776,132.31 L122.691,132.32 Z" id="Path" fill="#2C0F6B"></path>
            <path d="M124.639,141.41 C124.542,141.42 124.447,141.38 124.373,141.32 C124.298,141.26 124.249,141.17 124.232,141.08 L123.106,135.4 C123.095,135.35 123.095,135.29 123.106,135.24 C123.116,135.19 123.138,135.13 123.168,135.09 C123.199,135.04 123.239,135 123.285,134.97 C123.331,134.94 123.382,134.92 123.437,134.91 C123.491,134.9 123.547,134.9 123.602,134.91 C123.656,134.92 123.708,134.94 123.755,134.97 C123.801,135 123.841,135.04 123.872,135.09 C123.903,135.14 123.925,135.19 123.936,135.24 L125.062,140.91 C125.082,141.03 125.058,141.14 124.995,141.23 C124.931,141.33 124.834,141.39 124.723,141.41 L124.639,141.41 Z" id="Path" fill="#2C0F6B"></path>
            <path d="M60.216,39.41 L14.496,39.41 C12.94,39.41 11.447,40.03 10.347,41.13 C9.247,42.23 8.629,43.72 8.629,45.28 C8.629,46.05 8.781,46.81 9.078,47.53 C9.374,48.24 9.808,48.89 10.356,49.43 C10.904,49.98 11.553,50.41 12.268,50.7 C12.983,51 13.749,51.15 14.521,51.14 L14.86,51.14 C15.668,51.14 16.444,51.46 17.015,52.04 C17.587,52.61 17.908,53.38 17.908,54.19 C17.908,55 17.587,55.77 17.015,56.35 C16.444,56.92 15.668,57.24 14.86,57.24 L3.007,57.24 C2.363,57.24 1.746,57.5 1.291,57.95 C0.836,58.41 0.579,59.02 0.577,59.67 C0.579,60.31 0.836,60.93 1.291,61.38 C1.747,61.84 2.364,62.09 3.007,62.09 L48.388,62.09 C48.761,62.09 49.118,61.94 49.382,61.68 C49.645,61.41 49.793,61.06 49.793,60.68 L49.793,60.06 C49.793,59.69 49.942,59.33 50.205,59.06 C50.469,58.8 50.826,58.65 51.199,58.65 L57.456,58.65 C57.831,58.65 58.19,58.5 58.456,58.24 C58.721,57.97 58.87,57.61 58.87,57.24 L58.87,52.55 C58.87,52.18 59.018,51.82 59.281,51.55 C59.545,51.29 59.902,51.14 60.275,51.14 C60.648,51.14 61.005,50.99 61.269,50.73 C61.533,50.47 61.681,50.11 61.681,49.74 L61.681,40.81 C61.681,40.62 61.643,40.44 61.568,40.26 C61.494,40.09 61.385,39.93 61.248,39.8 C61.111,39.67 60.949,39.56 60.772,39.5 C60.595,39.43 60.405,39.4 60.216,39.41 Z" id="Path" fill="#F2EFF8"></path>
            <path d="M27.247,63.73 L13.09,63.73 C12.118,63.73 11.329,64.52 11.329,65.49 C11.329,66.47 12.118,67.25 13.09,67.25 L27.247,67.25 C28.219,67.25 29.008,66.47 29.008,65.49 C29.008,64.52 28.219,63.73 27.247,63.73 Z" id="Path" fill="#F2EFF8"></path>
            <path d="M66.938,31.53 L55.136,31.53 C54.196,31.53 53.434,32.29 53.434,33.23 C53.434,34.17 54.196,34.93 55.136,34.93 L66.938,34.93 C67.878,34.93 68.64,34.17 68.64,33.23 C68.64,32.29 67.878,31.53 66.938,31.53 Z" id="Path" fill="#F2EFF8"></path>
            <path d="M62.985,37.82 L47.44,37.82 C45.429,37.82 43.799,39.45 43.799,41.46 C43.799,43.47 45.429,45.1 47.44,45.1 L62.985,45.1 C64.995,45.1 66.625,43.47 66.625,41.46 C66.625,39.45 64.995,37.82 62.985,37.82 Z" id="Path" fill="#F2EFF8"></path>
            <path d="M73.576,36.41 L71.587,36.41 C70.647,36.41 69.885,37.17 69.885,38.11 C69.885,39.05 70.647,39.81 71.587,39.81 L73.576,39.81 C74.516,39.81 75.278,39.05 75.278,38.11 C75.278,37.17 74.516,36.41 73.576,36.41 Z" id="Path" fill="#F2EFF8"></path>
            <polygon id="Path" fill="#C2B6D6" points="58.506 49.18 21.879 49.18 21.879 70.46 58.506 70.46"></polygon>
            <polygon id="Path" fill="#FFFFFF" points="26.917 49.28 18.331 49.28 18.331 51.09 26.917 51.09"></polygon>
            <path d="M26.917,51.51 L18.331,51.51 C18.219,51.51 18.111,51.47 18.032,51.39 C17.953,51.31 17.908,51.2 17.908,51.09 L17.908,49.28 C17.908,49.17 17.953,49.06 18.032,48.98 C18.111,48.9 18.219,48.86 18.331,48.86 L26.917,48.86 C27.029,48.86 27.137,48.9 27.216,48.98 C27.295,49.06 27.34,49.17 27.34,49.28 L27.34,51.09 C27.34,51.2 27.295,51.31 27.216,51.39 C27.137,51.47 27.029,51.51 26.917,51.51 Z M18.755,50.67 L26.493,50.67 L26.493,49.7 L18.755,49.7 L18.755,50.67 Z" id="Shape" fill="#2C0F6B"></path>
            <polygon id="Path" fill="#FFFFFF" points="26.917 68.65 18.331 68.65 18.331 70.46 26.917 70.46"></polygon>
            <path d="M26.917,70.89 L18.331,70.89 C18.219,70.89 18.111,70.84 18.032,70.76 C17.953,70.68 17.908,70.58 17.908,70.46 L17.908,68.65 C17.91,68.54 17.955,68.43 18.034,68.35 C18.113,68.28 18.22,68.23 18.331,68.23 L26.917,68.23 C27.029,68.23 27.137,68.27 27.216,68.35 C27.295,68.43 27.34,68.54 27.34,68.65 L27.34,70.45 C27.342,70.5 27.333,70.56 27.313,70.61 C27.292,70.67 27.262,70.72 27.222,70.76 C27.183,70.8 27.135,70.83 27.083,70.85 C27.03,70.88 26.974,70.89 26.917,70.89 Z M18.755,70.04 L26.493,70.04 L26.493,69.07 L18.755,69.07 L18.755,70.04 Z" id="Shape" fill="#2C0F6B"></path>
            <polygon id="Path" fill="#2C0F6B" points="66.303 70.57 14.259 70.57 14.259 72.38 66.303 72.38"></polygon>
            <path d="M66.295,72.8 L14.259,72.8 C14.147,72.8 14.039,72.76 13.96,72.68 C13.88,72.6 13.836,72.49 13.836,72.38 L13.836,70.57 C13.836,70.45 13.88,70.35 13.96,70.27 C14.039,70.19 14.147,70.14 14.259,70.14 L66.295,70.14 C66.407,70.14 66.515,70.19 66.594,70.27 C66.674,70.35 66.718,70.45 66.718,70.57 L66.718,72.38 C66.718,72.49 66.674,72.6 66.594,72.68 C66.515,72.76 66.407,72.8 66.295,72.8 Z M14.648,71.95 L65.872,71.95 L65.872,70.99 L14.682,70.99 L14.648,71.95 Z" id="Shape" fill="#2C0F6B"></path>
            <polygon id="Path" fill="#FFFFFF" points="67.184 47.37 13.37 47.37 13.37 49.18 67.184 49.18"></polygon>
            <path d="M67.184,49.6 L13.37,49.6 C13.258,49.6 13.15,49.56 13.071,49.48 C12.991,49.4 12.947,49.29 12.947,49.18 L12.947,47.37 C12.949,47.25 12.994,47.15 13.073,47.07 C13.152,46.99 13.258,46.95 13.37,46.94 L67.184,46.94 C67.296,46.94 67.404,46.99 67.483,47.07 C67.563,47.15 67.607,47.25 67.607,47.37 L67.607,49.18 C67.607,49.29 67.563,49.4 67.483,49.48 C67.404,49.56 67.296,49.6 67.184,49.6 Z M13.793,48.75 L66.761,48.75 L66.761,47.79 L13.793,47.79 L13.793,48.75 Z" id="Shape" fill="#2C0F6B"></path>
            <polygon id="Path" fill="#FFFFFF" points="65.77 47.27 14.792 47.27 14.792 45.46 40.192 29.59 65.77 45.46"></polygon>
            <path d="M65.77,47.7 L14.792,47.7 C14.68,47.7 14.572,47.65 14.493,47.57 C14.414,47.49 14.369,47.39 14.369,47.27 L14.369,45.46 C14.371,45.39 14.389,45.32 14.423,45.26 C14.457,45.19 14.505,45.14 14.564,45.1 L39.964,29.23 C40.031,29.19 40.109,29.17 40.188,29.17 C40.267,29.17 40.345,29.19 40.412,29.23 L65.99,45.1 C66.052,45.14 66.102,45.19 66.138,45.25 C66.173,45.32 66.192,45.39 66.193,45.46 L66.193,47.27 C66.191,47.38 66.146,47.49 66.067,47.57 C65.988,47.65 65.882,47.69 65.77,47.7 Z M15.216,46.85 L65.347,46.85 L65.347,45.7 L40.192,30.09 L15.216,45.7 L15.216,46.85 Z" id="Shape" fill="#2C0F6B"></path>
            <polygon id="Path" fill="#FFFFFF" points="25.308 51.09 19.948 51.09 19.948 68.65 25.308 68.65"></polygon>
            <path d="M25.299,69.07 L19.94,69.07 C19.828,69.07 19.72,69.03 19.641,68.95 C19.561,68.87 19.517,68.76 19.517,68.65 L19.517,51.09 C19.517,50.98 19.561,50.87 19.641,50.79 C19.72,50.71 19.828,50.67 19.94,50.67 L25.291,50.67 C25.403,50.67 25.511,50.71 25.59,50.79 C25.67,50.87 25.714,50.98 25.714,51.09 L25.714,68.65 C25.714,68.76 25.671,68.87 25.593,68.95 C25.516,69.03 25.41,69.07 25.299,69.07 Z M20.372,68.23 L24.876,68.23 L24.876,51.52 L20.372,51.52 L20.372,68.23 Z" id="Shape" fill="#2C0F6B"></path>
            <polygon id="Path" fill="#FFFFFF" points="38.575 49.28 29.99 49.28 29.99 51.09 38.575 51.09"></polygon>
            <path d="M38.567,51.51 L29.99,51.51 C29.878,51.51 29.77,51.47 29.691,51.39 C29.611,51.31 29.567,51.2 29.567,51.09 L29.567,49.28 C29.567,49.17 29.611,49.06 29.691,48.98 C29.77,48.9 29.878,48.86 29.99,48.86 L38.567,48.86 C38.679,48.86 38.787,48.9 38.866,48.98 C38.945,49.06 38.99,49.17 38.99,49.28 L38.99,51.09 C38.99,51.2 38.945,51.31 38.866,51.39 C38.787,51.47 38.679,51.51 38.567,51.51 Z M30.405,50.67 L38.143,50.67 L38.143,49.7 L30.413,49.7 L30.405,50.67 Z" id="Shape" fill="#2C0F6B"></path>
            <polygon id="Path" fill="#FFFFFF" points="38.575 68.65 29.99 68.65 29.99 70.46 38.575 70.46"></polygon>
            <path d="M38.567,70.89 L29.99,70.89 C29.878,70.89 29.77,70.84 29.691,70.76 C29.611,70.68 29.567,70.58 29.567,70.46 L29.567,68.65 C29.567,68.54 29.611,68.43 29.691,68.35 C29.77,68.27 29.878,68.23 29.99,68.23 L38.567,68.23 C38.679,68.23 38.787,68.27 38.866,68.35 C38.945,68.43 38.99,68.54 38.99,68.65 L38.99,70.45 C38.992,70.5 38.983,70.56 38.963,70.61 C38.943,70.67 38.912,70.72 38.872,70.76 C38.833,70.8 38.785,70.83 38.733,70.85 C38.68,70.88 38.624,70.89 38.567,70.89 Z M30.405,70.04 L38.143,70.04 L38.143,69.07 L30.413,69.07 L30.405,70.04 Z" id="Shape" fill="#2C0F6B"></path>
            <polygon id="Path" fill="#FFFFFF" points="36.966 51.09 31.607 51.09 31.607 68.65 36.966 68.65"></polygon>
            <path d="M36.958,69.07 L31.607,69.07 C31.495,69.07 31.387,69.03 31.308,68.95 C31.228,68.87 31.184,68.76 31.184,68.65 L31.184,51.09 C31.184,50.98 31.228,50.87 31.308,50.79 C31.387,50.71 31.495,50.67 31.607,50.67 L36.958,50.67 C37.07,50.67 37.178,50.71 37.257,50.79 C37.337,50.87 37.381,50.98 37.381,51.09 L37.381,68.65 C37.381,68.76 37.337,68.87 37.257,68.95 C37.178,69.03 37.07,69.07 36.958,69.07 Z M32.03,68.23 L36.535,68.23 L36.535,51.52 L32.03,51.52 L32.03,68.23 Z" id="Shape" fill="#2C0F6B"></path>
            <polygon id="Path" fill="#FFFFFF" points="50.352 49.28 41.767 49.28 41.767 51.09 50.352 51.09"></polygon>
            <path d="M50.352,51.51 L41.767,51.51 C41.655,51.51 41.547,51.47 41.468,51.39 C41.388,51.31 41.344,51.2 41.344,51.09 L41.344,49.28 C41.344,49.17 41.388,49.06 41.468,48.98 C41.547,48.9 41.655,48.86 41.767,48.86 L50.352,48.86 C50.465,48.86 50.572,48.9 50.652,48.98 C50.731,49.06 50.776,49.17 50.776,49.28 L50.776,51.09 C50.776,51.2 50.731,51.31 50.652,51.39 C50.572,51.47 50.465,51.51 50.352,51.51 Z M42.19,50.67 L49.929,50.67 L49.929,49.7 L42.19,49.7 L42.19,50.67 Z" id="Shape" fill="#2C0F6B"></path>
            <polygon id="Path" fill="#FFFFFF" points="50.352 68.65 41.767 68.65 41.767 70.46 50.352 70.46"></polygon>
            <path d="M50.352,70.89 L41.767,70.89 C41.655,70.89 41.547,70.84 41.468,70.76 C41.388,70.68 41.344,70.58 41.344,70.46 L41.344,68.65 C41.344,68.54 41.388,68.43 41.468,68.35 C41.547,68.27 41.655,68.23 41.767,68.23 L50.352,68.23 C50.464,68.23 50.57,68.28 50.649,68.35 C50.728,68.43 50.773,68.54 50.776,68.65 L50.776,70.45 C50.778,70.5 50.769,70.56 50.748,70.61 C50.728,70.67 50.697,70.72 50.658,70.76 C50.618,70.8 50.571,70.83 50.518,70.85 C50.466,70.88 50.409,70.89 50.352,70.89 Z M42.19,70.04 L49.929,70.04 L49.929,69.07 L42.19,69.07 L42.19,70.04 Z" id="Shape" fill="#2C0F6B"></path>
            <polygon id="Path" fill="#FFFFFF" points="48.735 51.09 43.376 51.09 43.376 68.65 48.735 68.65"></polygon>
            <path d="M48.727,69.07 L43.376,69.07 C43.263,69.07 43.156,69.03 43.076,68.95 C42.997,68.87 42.952,68.76 42.952,68.65 L42.952,51.09 C42.952,50.98 42.997,50.87 43.076,50.79 C43.156,50.71 43.263,50.67 43.376,50.67 L48.727,50.67 C48.839,50.67 48.947,50.71 49.026,50.79 C49.105,50.87 49.15,50.98 49.15,51.09 L49.15,68.65 C49.15,68.76 49.105,68.87 49.026,68.95 C48.947,69.03 48.839,69.07 48.727,69.07 Z M43.791,68.23 L48.303,68.23 L48.303,51.52 L43.799,51.52 L43.791,68.23 Z" id="Shape" fill="#2C0F6B"></path>
            <polygon id="Path" fill="#FFFFFF" points="62.358 49.28 53.773 49.28 53.773 51.09 62.358 51.09"></polygon>
            <path d="M62.358,51.51 L53.807,51.51 C53.694,51.51 53.587,51.47 53.507,51.39 C53.428,51.31 53.383,51.2 53.383,51.09 L53.383,49.28 C53.383,49.17 53.428,49.06 53.507,48.98 C53.587,48.9 53.694,48.86 53.807,48.86 L62.358,48.86 C62.47,48.86 62.578,48.9 62.657,48.98 C62.737,49.06 62.781,49.17 62.781,49.28 L62.781,51.09 C62.781,51.2 62.737,51.31 62.657,51.39 C62.578,51.47 62.47,51.51 62.358,51.51 Z M54.196,50.67 L61.935,50.67 L61.935,49.7 L54.196,49.7 L54.196,50.67 Z" id="Shape" fill="#2C0F6B"></path>
            <polygon id="Path" fill="#FFFFFF" points="62.358 68.65 53.773 68.65 53.773 70.46 62.358 70.46"></polygon>
            <path d="M62.358,70.89 L53.807,70.89 C53.694,70.89 53.587,70.84 53.507,70.76 C53.428,70.68 53.383,70.58 53.383,70.46 L53.383,68.65 C53.385,68.54 53.431,68.43 53.51,68.35 C53.589,68.28 53.695,68.23 53.807,68.23 L62.358,68.23 C62.47,68.23 62.578,68.27 62.657,68.35 C62.737,68.43 62.781,68.54 62.781,68.65 L62.781,70.45 C62.784,70.5 62.774,70.56 62.754,70.61 C62.734,70.67 62.703,70.72 62.663,70.76 C62.624,70.8 62.576,70.83 62.524,70.85 C62.471,70.88 62.415,70.89 62.358,70.89 Z M54.196,70.04 L61.935,70.04 L61.935,69.07 L54.196,69.07 L54.196,70.04 Z" id="Shape" fill="#2C0F6B"></path>
            <polygon id="Path" fill="#FFFFFF" points="60.749 51.09 55.39 51.09 55.39 68.65 60.749 68.65"></polygon>
            <path d="M60.749,69.07 L55.39,69.07 C55.278,69.07 55.17,69.03 55.091,68.95 C55.011,68.87 54.967,68.76 54.967,68.65 L54.967,51.09 C54.967,50.98 55.011,50.87 55.091,50.79 C55.17,50.71 55.278,50.67 55.39,50.67 L60.749,50.67 C60.862,50.67 60.969,50.71 61.049,50.79 C61.128,50.87 61.173,50.98 61.173,51.09 L61.173,68.65 C61.173,68.76 61.128,68.87 61.049,68.95 C60.969,69.03 60.862,69.07 60.749,69.07 Z M55.813,68.23 L60.326,68.23 L60.326,51.52 L55.813,51.52 L55.813,68.23 Z" id="Shape" fill="#2C0F6B"></path>
            <path d="M40.226,44.87 C42.704,44.87 44.713,42.86 44.713,40.38 C44.713,37.9 42.704,35.89 40.226,35.89 C37.748,35.89 35.739,37.9 35.739,40.38 C35.739,42.86 37.748,44.87 40.226,44.87 Z" id="Path" fill="#C2B6D6"></path>
            <path d="M40.26,45.29 C39.289,45.29 38.339,45 37.532,44.46 C36.724,43.92 36.095,43.16 35.723,42.26 C35.351,41.36 35.254,40.38 35.444,39.42 C35.633,38.47 36.101,37.6 36.788,36.91 C37.474,36.22 38.349,35.75 39.302,35.57 C40.255,35.38 41.242,35.47 42.139,35.84 C43.037,36.22 43.803,36.85 44.343,37.65 C44.883,38.46 45.171,39.41 45.171,40.38 C45.171,41.68 44.653,42.93 43.732,43.85 C42.811,44.77 41.562,45.29 40.26,45.29 Z M40.26,36.32 C39.456,36.32 38.67,36.56 38.002,37 C37.334,37.45 36.813,38.08 36.505,38.83 C36.198,39.57 36.117,40.39 36.274,41.17 C36.431,41.96 36.818,42.69 37.386,43.26 C37.955,43.82 38.679,44.21 39.467,44.37 C40.255,44.52 41.073,44.44 41.815,44.14 C42.558,43.83 43.193,43.31 43.639,42.64 C44.086,41.97 44.324,41.19 44.324,40.38 C44.324,39.3 43.896,38.27 43.134,37.51 C42.372,36.75 41.338,36.32 40.26,36.32 Z" id="Shape" fill="#2C0F6B"></path>
            <polygon id="Path" fill="#2C0F6B" points="40.98 38.93 39.523 38.93 39.523 41.91 40.98 41.91"></polygon>
            <path d="M40.98,42.34 L39.523,42.34 C39.411,42.34 39.303,42.29 39.224,42.21 C39.145,42.13 39.1,42.03 39.1,41.91 L39.1,38.93 C39.1,38.81 39.145,38.71 39.224,38.63 C39.303,38.55 39.411,38.5 39.523,38.5 L40.98,38.5 C41.092,38.5 41.2,38.55 41.279,38.63 C41.358,38.71 41.403,38.81 41.403,38.93 L41.403,41.91 C41.403,42.03 41.358,42.13 41.279,42.21 C41.2,42.29 41.092,42.34 40.98,42.34 Z M39.947,41.49 L40.556,41.49 L40.556,39.35 L39.947,39.35 L39.947,41.49 Z" id="Shape" fill="#2C0F6B"></path>
            <path d="M133.224,10.45 L87.504,10.45 C85.948,10.45 84.455,11.07 83.355,12.17 C82.255,13.27 81.637,14.76 81.637,16.32 C81.637,17.09 81.789,17.86 82.086,18.57 C82.382,19.28 82.817,19.93 83.364,20.48 C83.912,21.02 84.561,21.45 85.276,21.75 C85.991,22.04 86.757,22.19 87.529,22.19 L87.843,22.19 C88.651,22.19 89.426,22.51 89.998,23.08 C90.57,23.65 90.891,24.43 90.891,25.23 C90.891,26.04 90.57,26.82 89.998,27.39 C89.426,27.96 88.651,28.28 87.843,28.28 L75.989,28.28 C75.671,28.28 75.355,28.35 75.061,28.47 C74.766,28.59 74.499,28.77 74.274,28.99 C74.049,29.22 73.871,29.49 73.75,29.78 C73.629,30.08 73.567,30.39 73.5679881,30.71 C73.5679881,31.35 73.823,31.97 74.277,32.42 C74.731,32.88 75.347,33.13 75.989,33.13 L121.371,33.13 C121.743,33.13 122.101,32.99 122.365,32.72 C122.628,32.46 122.776,32.1 122.776,31.73 L122.776,31.1 C122.776,30.92 122.813,30.73 122.884,30.56 C122.955,30.39 123.059,30.24 123.191,30.11 C123.322,29.97 123.478,29.87 123.65,29.8 C123.821,29.73 124.005,29.7 124.19,29.7 L130.447,29.7 C130.82,29.69 131.178,29.54 131.441,29.28 C131.705,29.01 131.852,28.66 131.852,28.28 L131.852,23.59 C131.852,23.23 131.996,22.87 132.252,22.61 C132.508,22.35 132.857,22.2 133.224,22.19 C133.597,22.19 133.954,22.04 134.218,21.78 C134.481,21.51 134.629079,21.15 134.629079,20.78 L134.629079,11.87 C134.631,11.68 134.595,11.5 134.525,11.33 C134.455,11.15 134.351,11 134.221,10.87 C134.09,10.74 133.935,10.63 133.764,10.56 C133.593,10.49 133.409,10.45 133.224,10.45 Z" id="Path" fill="#F2EFF8"></path>
            <path d="M100.263,34.78 L86.107,34.78 C85.134,34.78 84.346,35.57 84.346,36.54 C84.346,37.51 85.134,38.3 86.107,38.3 L100.263,38.3 C101.236,38.3 102.024,37.51 102.024,36.54 C102.024,35.57 101.236,34.78 100.263,34.78 Z" id="Path" fill="#F2EFF8"></path>
            <path d="M139.955,2.58 L128.152,2.58 C127.213,2.58 126.451,3.34 126.451,4.28 C126.451,5.21 127.213,5.97 128.152,5.97 L139.955,5.97 C140.895,5.97 141.657,5.21 141.657,4.28 C141.657,3.34 140.895,2.58 139.955,2.58 Z" id="Path" fill="#F2EFF8"></path>
            <path d="M135.993,8.86 L120.448,8.86 C118.437,8.86 116.807,10.49 116.807,12.5 C116.807,14.51 118.437,16.14 120.448,16.14 L135.993,16.14 C138.003,16.14 139.633,14.51 139.633,12.5 C139.633,10.49 138.003,8.86 135.993,8.86 Z" id="Path" fill="#F2EFF8"></path>
            <path d="M146.584,7.45 L144.595,7.45 C143.655,7.45 142.893,8.21 142.893,9.15 C142.893,10.09 143.655,10.85 144.595,10.85 L146.584,10.85 C147.524,10.85 148.286,10.09 148.286,9.15 C148.286,8.21 147.524,7.45 146.584,7.45 Z" id="Path" fill="#F2EFF8"></path>
            <polygon id="Path" fill="#C2B6D6" points="131.514 20.22 94.887 20.22 94.887 41.51 131.514 41.51"></polygon>
            <polygon id="Path" fill="#FFFFFF" points="99.925 20.32 91.339 20.32 91.339 22.14 99.925 22.14"></polygon>
            <path d="M99.925,22.56 L91.339,22.56 C91.227,22.56 91.119,22.51 91.04,22.44 C90.961,22.36 90.916,22.25 90.916,22.14 L90.916,20.32 C90.916,20.21 90.961,20.1 91.04,20.02 C91.119,19.95 91.227,19.9 91.339,19.9 L99.925,19.9 C100.037,19.9 100.145,19.95 100.224,20.02 C100.303,20.1 100.348,20.21 100.348,20.32 L100.348,22.14 C100.348,22.25 100.303,22.36 100.224,22.44 C100.145,22.51 100.037,22.56 99.925,22.56 Z M91.763,21.71 L99.527,21.71 L99.527,20.75 L91.788,20.75 L91.763,21.71 Z" id="Shape" fill="#2C0F6B"></path>
            <polygon id="Path" fill="#FFFFFF" points="99.925 39.7 91.339 39.7 91.339 41.51 99.925 41.51"></polygon>
            <path d="M99.925,41.93 L91.339,41.93 C91.227,41.93 91.119,41.89 91.04,41.81 C90.961,41.73 90.916,41.62 90.916,41.51 L90.916,39.7 C90.918,39.58 90.964,39.48 91.042,39.4 C91.121,39.32 91.228,39.27 91.339,39.27 L99.925,39.27 C100.037,39.27 100.145,39.32 100.224,39.4 C100.303,39.48 100.348,39.58 100.348,39.7 L100.348,41.51 C100.348,41.62 100.303,41.73 100.224,41.81 C100.145,41.89 100.037,41.93 99.925,41.93 Z M91.763,41.08 L99.527,41.08 L99.527,40.12 L91.788,40.12 L91.763,41.08 Z" id="Shape" fill="#2C0F6B"></path>
            <polygon id="Path" fill="#2C0F6B" points="139.312 41.61 87.267 41.61 87.267 43.42 139.312 43.42"></polygon>
            <path d="M139.32,43.84 L87.267,43.84 C87.155,43.84 87.047,43.8 86.968,43.72 C86.888,43.64 86.844,43.53 86.844,43.42 L86.844,41.61 C86.844,41.5 86.888,41.39 86.968,41.31 C87.047,41.23 87.155,41.19 87.267,41.19 L139.32,41.19 C139.432,41.19 139.54,41.23 139.619,41.31 C139.699,41.39 139.743,41.5 139.743,41.61 L139.743,43.42 C139.741,43.53 139.696,43.64 139.617,43.72 C139.538,43.8 139.432,43.84 139.32,43.84 Z M87.673,43 L138.871,43 L138.871,42.03 L87.673,42.03 L87.673,43 Z" id="Shape" fill="#2C0F6B"></path>
            <polygon id="Path" fill="#FFFFFF" points="140.192 18.41 86.378 18.41 86.378 20.22 140.192 20.22"></polygon>
            <path d="M140.167,20.65 L86.378,20.65 C86.266,20.65 86.158,20.6 86.079,20.52 C85.999,20.44 85.955,20.33 85.955,20.22 L85.955,18.41 C85.957,18.3 86.002,18.19 86.081,18.11 C86.16,18.03 86.266,17.99 86.378,17.99 L140.167,17.99 C140.279,17.99 140.387,18.03 140.466,18.11 C140.545,18.19 140.59,18.3 140.59,18.41 L140.59,20.22 C140.59,20.33 140.545,20.44 140.466,20.52 C140.387,20.6 140.279,20.65 140.167,20.65 Z M86.776,19.8 L139.743,19.8 L139.743,18.8 L86.827,18.8 L86.776,19.8 Z" id="Shape" fill="#2C0F6B"></path>
            <polygon id="Path" fill="#FFFFFF" points="138.778 18.32 87.8 18.32 87.8 16.51 113.2 0.63 138.778 16.51"></polygon>
            <path d="M138.778,18.74 L87.8,18.74 C87.688,18.74 87.58,18.7 87.501,18.62 C87.422,18.54 87.377,18.43 87.377,18.32 L87.377,16.51 C87.379,16.43 87.397,16.36 87.431,16.3 C87.465,16.24 87.513,16.18 87.572,16.14 L112.972,0.28 C113.039,0.23 113.117,0.21 113.196,0.21 C113.275,0.21 113.353,0.23 113.42,0.28 L138.998,16.14 C139.061,16.18 139.112,16.23 139.148,16.3 C139.183,16.36 139.202,16.43 139.201038,16.51 L139.201038,18.32 C139.199,18.43 139.154,18.54 139.075,18.61 C138.996,18.69 138.89,18.74 138.778,18.74 Z M88.224,17.89 L138.355,17.89 L138.355,16.74 L113.2,1.13 L88.224,16.73 L88.224,17.89 Z" id="Shape" fill="#2C0F6B"></path>
            <polygon id="Path" fill="#FFFFFF" points="98.316 22.14 92.957 22.14 92.957 39.7 98.316 39.7"></polygon>
            <path d="M98.316,40.12 L92.957,40.12 C92.844,40.12 92.737,40.07 92.657,39.99 C92.578,39.92 92.533,39.81 92.533,39.7 L92.533,22.14 C92.533,22.02 92.578,21.92 92.657,21.84 C92.737,21.76 92.844,21.71 92.957,21.71 L98.316,21.71 C98.428,21.71 98.536,21.76 98.615,21.84 C98.695,21.92 98.739,22.02 98.739,22.14 L98.739,39.7 C98.739,39.81 98.695,39.92 98.615,39.99 C98.536,40.07 98.428,40.12 98.316,40.12 Z M93.38,39.27 L97.893,39.27 L97.893,22.56 L93.38,22.56 L93.38,39.27 Z" id="Shape" fill="#2C0F6B"></path>
            <polygon id="Path" fill="#FFFFFF" points="111.583 20.32 102.998 20.32 102.998 22.14 111.583 22.14"></polygon>
            <path d="M111.583,22.56 L102.998,22.56 C102.886,22.56 102.778,22.51 102.699,22.44 C102.619,22.36 102.575,22.25 102.575,22.14 L102.575,20.32 C102.575,20.21 102.619,20.1 102.699,20.02 C102.778,19.95 102.886,19.9 102.998,19.9 L111.583,19.9 C111.696,19.9 111.803,19.95 111.883,20.02 C111.962,20.1 112.007,20.21 112.007,20.32 L112.007,22.14 C112.007,22.25 111.962,22.36 111.883,22.44 C111.803,22.51 111.696,22.56 111.583,22.56 Z M103.421,21.71 L111.16,21.71 L111.16,20.75 L103.421,20.75 L103.421,21.71 Z" id="Shape" fill="#2C0F6B"></path>
            <polygon id="Path" fill="#FFFFFF" points="111.583 39.7 102.998 39.7 102.998 41.51 111.583 41.51"></polygon>
            <path d="M111.583,41.93 L102.998,41.93 C102.886,41.93 102.778,41.89 102.699,41.81 C102.619,41.73 102.575,41.62 102.575,41.51 L102.575,39.7 C102.577,39.58 102.622,39.48 102.701,39.4 C102.78,39.32 102.886,39.27 102.998,39.27 L111.583,39.27 C111.696,39.27 111.803,39.32 111.883,39.4 C111.962,39.48 112.007,39.58 112.007,39.7 L112.007,41.51 C112.007,41.62 111.962,41.73 111.883,41.81 C111.803,41.89 111.696,41.93 111.583,41.93 Z M103.421,41.08 L111.16,41.08 L111.16,40.12 L103.421,40.12 L103.421,41.08 Z" id="Shape" fill="#2C0F6B"></path>
            <polygon id="Path" fill="#FFFFFF" points="109.975 22.14 104.615 22.14 104.615 39.7 109.975 39.7"></polygon>
            <path d="M109.966,40.12 L104.607,40.12 C104.494,40.12 104.387,40.07 104.307,39.99 C104.228,39.92 104.183,39.81 104.183,39.7 L104.183,22.14 C104.183,22.02 104.228,21.92 104.307,21.84 C104.387,21.76 104.494,21.71 104.607,21.71 L109.958,21.71 C110.07,21.71 110.178,21.76 110.257,21.84 C110.336,21.92 110.381,22.02 110.381,22.14 L110.381,39.7 C110.381,39.81 110.338,39.91 110.26,39.99 C110.182,40.07 110.077,40.12 109.966,40.12 Z M105.038,39.27 L109.543,39.27 L109.543,22.56 L105.038,22.56 L105.038,39.27 Z" id="Shape" fill="#2C0F6B"></path>
            <polygon id="Path" fill="#FFFFFF" points="123.36 20.32 114.775 20.32 114.775 22.14 123.36 22.14"></polygon>
            <path d="M123.36,22.56 L114.767,22.56 C114.654,22.56 114.547,22.51 114.467,22.44 C114.388,22.36 114.343,22.25 114.343,22.14 L114.343,20.32 C114.343,20.21 114.388,20.1 114.467,20.02 C114.547,19.95 114.654,19.9 114.767,19.9 L123.352,19.9 C123.464,19.9 123.572,19.95 123.651,20.02 C123.731,20.1 123.775,20.21 123.775,20.32 L123.775,22.14 C123.775,22.25 123.732,22.35 123.654,22.43 C123.577,22.51 123.471,22.56 123.36,22.56 Z M115.198,21.71 L122.937,21.71 L122.937,20.75 L115.198,20.75 L115.198,21.71 Z" id="Shape" fill="#2C0F6B"></path>
            <polygon id="Path" fill="#FFFFFF" points="123.36 39.7 114.775 39.7 114.775 41.51 123.36 41.51"></polygon>
            <path d="M123.36,41.93 L114.767,41.93 C114.654,41.93 114.547,41.89 114.467,41.81 C114.388,41.73 114.343,41.62 114.343,41.51 L114.343,39.7 C114.343,39.58 114.388,39.48 114.467,39.4 C114.547,39.32 114.654,39.27 114.767,39.27 L123.352,39.27 C123.464,39.27 123.572,39.32 123.651,39.4 C123.731,39.48 123.775,39.58 123.775,39.7 L123.775,41.51 C123.775,41.62 123.732,41.72 123.654,41.8 C123.577,41.88 123.471,41.93 123.36,41.93 Z M115.198,41.08 L122.937,41.08 L122.937,40.12 L115.198,40.12 L115.198,41.08 Z" id="Shape" fill="#2C0F6B"></path>
            <polygon id="Path" fill="#FFFFFF" points="121.752 22.14 116.392 22.14 116.392 39.7 121.752 39.7"></polygon>
            <path d="M121.743,40.12 L116.392,40.12 C116.28,40.12 116.172,40.07 116.093,39.99 C116.014,39.92 115.969,39.81 115.969,39.7 L115.969,22.14 C115.969,22.02 116.014,21.92 116.093,21.84 C116.172,21.76 116.28,21.71 116.392,21.71 L121.743,21.71 C121.855,21.71 121.963,21.76 122.043,21.84 C122.122,21.92 122.167,22.02 122.167,22.14 L122.167,39.7 C122.167,39.81 122.122,39.92 122.043,39.99 C121.963,40.07 121.855,40.12 121.743,40.12 Z M116.816,39.27 L121.32,39.27 L121.32,22.56 L116.816,22.56 L116.816,39.27 Z" id="Shape" fill="#2C0F6B"></path>
            <polygon id="Path" fill="#FFFFFF" points="135.375 20.32 126.789 20.32 126.789 22.14 135.375 22.14"></polygon>
            <path d="M135.366,22.56 L126.789,22.56 C126.677,22.56 126.569,22.51 126.49,22.44 C126.411,22.36 126.366,22.25 126.366,22.14 L126.366,20.32 C126.366,20.21 126.411,20.1 126.49,20.02 C126.569,19.95 126.677,19.9 126.789,19.9 L135.366,19.9 C135.478,19.9 135.586,19.95 135.665,20.02 C135.745,20.1 135.789,20.21 135.789,20.32 L135.789,22.14 C135.789,22.25 135.745,22.36 135.665,22.44 C135.586,22.51 135.478,22.56 135.366,22.56 Z M127.213,21.71 L134.943,21.71 L134.943,20.75 L127.213,20.75 L127.213,21.71 Z" id="Shape" fill="#2C0F6B"></path>
            <polygon id="Path" fill="#FFFFFF" points="135.375 39.7 126.789 39.7 126.789 41.51 135.375 41.51"></polygon>
            <path d="M135.366,41.93 L126.789,41.93 C126.677,41.93 126.569,41.89 126.49,41.81 C126.411,41.73 126.366,41.62 126.366,41.51 L126.366,39.7 C126.366,39.58 126.411,39.48 126.49,39.4 C126.569,39.32 126.677,39.27 126.789,39.27 L135.366,39.27 C135.478,39.27 135.586,39.32 135.665,39.4 C135.745,39.48 135.789,39.58 135.789,39.7 L135.789,41.51 C135.789,41.62 135.745,41.73 135.665,41.81 C135.586,41.89 135.478,41.93 135.366,41.93 Z M127.213,41.08 L134.943,41.08 L134.943,40.12 L127.213,40.12 L127.213,41.08 Z" id="Shape" fill="#2C0F6B"></path>
            <polygon id="Path" fill="#FFFFFF" points="133.757 22.14 128.398 22.14 128.398 39.7 133.757 39.7"></polygon>
            <path d="M133.757,40.12 L128.398,40.12 C128.286,40.12 128.178,40.07 128.099,39.99 C128.019,39.92 127.975,39.81 127.975,39.7 L127.975,22.14 C127.975,22.02 128.019,21.92 128.099,21.84 C128.178,21.76 128.286,21.71 128.398,21.71 L133.757,21.71 C133.87,21.71 133.977,21.76 134.057,21.84 C134.136,21.92 134.181,22.02 134.181,22.14 L134.181,39.7 C134.181,39.81 134.136,39.92 134.057,39.99 C133.977,40.07 133.87,40.12 133.757,40.12 Z M128.821,39.27 L133.334,39.27 L133.334,22.56 L128.821,22.56 L128.821,39.27 Z" id="Shape" fill="#2C0F6B"></path>
            <path d="M113.243,15.91 C115.721,15.91 117.73,13.9 117.73,11.43 C117.73,8.95 115.721,6.94 113.243,6.94 C110.764,6.94 108.755,8.95 108.755,11.43 C108.755,13.9 110.764,15.91 113.243,15.91 Z" id="Path" fill="#C2B6D6"></path>
            <path d="M113.243,16.34 C112.271,16.34 111.322,16.05 110.514,15.51 C109.707,14.97 109.078,14.2 108.706,13.3 C108.334,12.41 108.237,11.42 108.426,10.47 C108.616,9.51 109.084,8.64 109.77,7.95 C110.457,7.27 111.332,6.8 112.285,6.61 C113.237,6.42 114.225,6.52 115.122,6.89 C116.019,7.26 116.786,7.89 117.326,8.7 C117.865,9.5 118.153,10.45 118.153,11.43 C118.151,12.73 117.633,13.98 116.713,14.9 C115.792,15.82 114.544,16.33 113.243,16.34 Z M113.243,7.36 C112.439,7.36 111.653,7.6 110.985,8.05 C110.317,8.49 109.796,9.13 109.488,9.87 C109.18,10.61 109.1,11.43 109.257,12.22 C109.414,13.01 109.801,13.73 110.369,14.3 C110.937,14.87 111.662,15.25 112.45,15.41 C113.238,15.57 114.055,15.49 114.798,15.18 C115.541,14.87 116.175,14.35 116.622,13.68 C117.068,13.02 117.307,12.23 117.307,11.43 C117.304,10.35 116.876,9.32 116.114,8.55 C115.352,7.79 114.32,7.36 113.243,7.36 Z" id="Shape" fill="#2C0F6B"></path>
            <polygon id="Path" fill="#2C0F6B" points="113.988 9.97 112.531 9.97 112.531 12.96 113.988 12.96"></polygon>
            <path d="M113.988,13.38 L112.531,13.38 C112.419,13.38 112.312,13.34 112.232,13.26 C112.153,13.18 112.108,13.07 112.108,12.96 L112.108,9.97 C112.108,9.86 112.153,9.75 112.232,9.67 C112.312,9.59 112.419,9.55 112.531,9.55 L113.988,9.55 C114.1,9.55 114.208,9.59 114.287,9.67 C114.366,9.75 114.411,9.86 114.411,9.97 L114.411,12.96 C114.411,13.07 114.366,13.18 114.287,13.26 C114.208,13.34 114.1,13.38 113.988,13.38 Z M112.955,12.53 L113.564,12.53 L113.564,10.39 L112.955,10.39 L112.955,12.53 Z" id="Shape" fill="#2C0F6B"></path>
            <path d="M212.98,21.44 L167.26,21.44 C165.704,21.44 164.212,22.06 163.111,23.16 C162.011,24.26 161.393,25.75 161.393,27.31 C161.39,28.09 161.542,28.85 161.839,29.57 C162.136,30.29 162.573,30.94 163.123,31.49 C163.674,32.03 164.327,32.47 165.046,32.76 C165.765,33.05 166.535,33.2 167.311,33.19 L167.624,33.19 C168.433,33.2 169.209,33.52 169.78,34.09 C170.351,34.66 170.672,35.44 170.672,36.25 C170.672,37.06 170.351,37.83 169.779,38.4 C169.208,38.98 168.432,39.3 167.624,39.3 L155.771,39.3 C155.133,39.29 154.517,39.53 154.057,39.97 C153.598,40.42 153.331,41.02 153.315,41.66 C153.315,42.3 153.57,42.92 154.024,43.38 C154.478,43.83 155.094,44.09 155.737,44.09 L201.127,44.09 C201.502,44.09 201.861,43.94 202.126,43.68 C202.392,43.41 202.541,43.05 202.541,42.68 L202.541,42.08 C202.541,41.71 202.689,41.35 202.952,41.09 C203.216,40.83 203.573,40.68 203.946,40.68 L210.203,40.68 C210.576,40.68 210.933,40.53 211.197,40.27 C211.46,40 211.608,39.64 211.608,39.27 L211.608,34.58 C211.615,34.22 211.761,33.87 212.016,33.61 C212.272,33.35 212.617,33.2 212.98,33.19 C213.165,33.19 213.349,33.16 213.52,33.09 C213.692,33.02 213.848,32.92 213.979,32.78 C214.111,32.65 214.215,32.5 214.286,32.33 C214.357,32.16 214.394,31.97 214.394,31.79 L214.394,22.85 C214.394,22.66 214.357,22.48 214.286,22.31 C214.215,22.14 214.111,21.98 213.979,21.85 C213.848,21.72 213.692,21.62 213.52,21.55 C213.349,21.48 213.165,21.44 212.98,21.44 Z" id="Path" fill="#F2EFF8"></path>
            <path d="M180.045,45.77 L165.888,45.77 C164.916,45.77 164.127,46.55 164.127,47.53 C164.127,48.5 164.916,49.29 165.888,49.29 L180.045,49.29 C181.017,49.29 181.806,48.5 181.806,47.53 C181.806,46.55 181.017,45.77 180.045,45.77 Z" id="Path" fill="#F2EFF8"></path>
            <path d="M219.736,13.57 L207.934,13.57 C206.994,13.57 206.232,14.33 206.232,15.26 C206.232,16.2 206.994,16.96 207.934,16.96 L219.736,16.96 C220.676,16.96 221.438,16.2 221.438,15.26 C221.438,14.33 220.676,13.57 219.736,13.57 Z" id="Path" fill="#F2EFF8"></path>
            <path d="M215.774,19.85 L200.229,19.85 C198.219,19.85 196.589,21.48 196.589,23.49 C196.589,25.5 198.219,27.13 200.229,27.13 L215.774,27.13 C217.785,27.13 219.415,25.5 219.415,23.49 C219.415,21.48 217.785,19.85 215.774,19.85 Z" id="Path" fill="#F2EFF8"></path>
            <path d="M226.374,18.44 L224.385,18.44 C223.445,18.44 222.683,19.2 222.683,20.14 C222.683,21.08 223.445,21.84 224.385,21.84 L226.374,21.84 C227.314,21.84 228.076,21.08 228.076,20.14 C228.076,19.2 227.314,18.44 226.374,18.44 Z" id="Path" fill="#F2EFF8"></path>
            <polygon id="Path" fill="#C2B6D6" points="211.295 31.21 174.668 31.21 174.668 52.5 211.295 52.5"></polygon>
            <polygon id="Path" fill="#FFFFFF" points="179.715 31.31 171.129 31.31 171.129 33.13 179.715 33.13"></polygon>
            <path d="M179.715,33.55 L171.129,33.55 C171.017,33.55 170.909,33.5 170.83,33.42 C170.751,33.35 170.706,33.24 170.706,33.13 L170.706,31.31 C170.706,31.2 170.751,31.09 170.83,31.01 C170.909,30.93 171.017,30.89 171.129,30.89 L179.715,30.89 C179.827,30.89 179.934,30.93 180.014,31.01 C180.093,31.09 180.138,31.2 180.138,31.31 L180.138,33.13 C180.136,33.24 180.09,33.34 180.011,33.42 C179.933,33.5 179.826,33.55 179.715,33.55 Z M171.553,32.7 L179.291,32.7 L179.291,31.74 L171.553,31.74 L171.553,32.7 Z" id="Shape" fill="#2C0F6B"></path>
            <polygon id="Path" fill="#FFFFFF" points="179.715 50.69 171.129 50.69 171.129 52.5 179.715 52.5"></polygon>
            <path d="M179.715,52.92 L171.129,52.92 C171.017,52.92 170.909,52.88 170.83,52.8 C170.751,52.72 170.706,52.61 170.706,52.5 L170.706,50.69 C170.706,50.57 170.751,50.47 170.83,50.39 C170.909,50.31 171.017,50.26 171.129,50.26 L179.715,50.26 C179.827,50.26 179.934,50.31 180.014,50.39 C180.093,50.47 180.138,50.57 180.138,50.69 L180.138,52.5 C180.138,52.61 180.093,52.72 180.014,52.8 C179.934,52.88 179.827,52.92 179.715,52.92 Z M171.553,52.07 L179.291,52.07 L179.291,51.11 L171.553,51.11 L171.553,52.07 Z" id="Shape" fill="#2C0F6B"></path>
            <polygon id="Path" fill="#2C0F6B" points="219.093 52.6 167.048 52.6 167.048 54.41 219.093 54.41"></polygon>
            <path d="M219.093,54.83 L167.048,54.83 C166.937,54.83 166.83,54.79 166.751,54.71 C166.672,54.63 166.627,54.52 166.625,54.41 L166.625,52.6 C166.625,52.49 166.67,52.38 166.749,52.3 C166.828,52.22 166.936,52.18 167.048,52.18 L219.093,52.18 C219.205,52.18 219.313,52.22 219.392,52.3 C219.472,52.38 219.516,52.49 219.516,52.6 L219.516,54.41 C219.514,54.52 219.469,54.63 219.39,54.71 C219.311,54.79 219.205,54.83 219.093,54.83 Z M167.446,53.99 L218.644,53.99 L218.644,53.02 L167.472,53.02 L167.446,53.99 Z" id="Shape" fill="#2C0F6B"></path>
            <polygon id="Path" fill="#FFFFFF" points="219.982 29.4 166.168 29.4 166.168 31.21 219.982 31.21"></polygon>
            <path d="M219.974,31.64 L166.168,31.64 C166.056,31.64 165.948,31.59 165.868,31.51 C165.789,31.43 165.745,31.32 165.745,31.21 L165.745,29.4 C165.745,29.29 165.789,29.18 165.868,29.1 C165.948,29.02 166.056,28.98 166.168,28.98 L219.974,28.98 C220.086,28.98 220.193,29.02 220.273,29.1 C220.352,29.18 220.397,29.29 220.397,29.4 L220.397,31.21 C220.397,31.32 220.352,31.43 220.273,31.51 C220.193,31.59 220.086,31.64 219.974,31.64 Z M166.633,30.79 L219.593,30.79 L219.593,29.81 L166.591,29.81 L166.633,30.79 Z" id="Shape" fill="#2C0F6B"></path>
            <polygon id="Path" fill="#FFFFFF" points="218.56 29.3 167.582 29.3 167.582 27.49 192.982 11.62 218.56 27.49"></polygon>
            <path d="M218.56,29.72 L167.582,29.72 C167.47,29.72 167.362,29.68 167.282,29.6 C167.203,29.52 167.158,29.41 167.158,29.3 L167.158,27.49 C167.159,27.41 167.177,27.34 167.213,27.28 C167.249,27.22 167.3,27.17 167.362,27.13 L192.762,11.26 C192.828,11.22 192.904,11.2 192.982,11.2 C193.06,11.2 193.136,11.22 193.202,11.26 L218.78,27.13 C218.841,27.17 218.893,27.22 218.928,27.28 C218.964,27.34 218.983,27.41 218.983,27.49 L218.983,29.3 C218.983,29.35 218.972,29.41 218.951,29.46 C218.929,29.51 218.898,29.56 218.859,29.6 C218.82,29.64 218.773,29.67 218.722,29.69 C218.67,29.71 218.615,29.72 218.56,29.72 Z M168.005,28.88 L218.136,28.88 L218.136,27.72 L192.982,12.12 L168.005,27.72 L168.005,28.88 Z" id="Shape" fill="#2C0F6B"></path>
            <polygon id="Path" fill="#FFFFFF" points="178.097 33.13 172.738 33.13 172.738 50.69 178.097 50.69"></polygon>
            <path d="M178.097,51.11 L172.738,51.11 C172.626,51.11 172.518,51.06 172.439,50.98 C172.359,50.91 172.315,50.8 172.315,50.69 L172.315,33.13 C172.315,33.01 172.359,32.91 172.439,32.83 C172.518,32.75 172.626,32.7 172.738,32.7 L178.097,32.7 C178.21,32.7 178.317,32.75 178.397,32.83 C178.476,32.91 178.521,33.01 178.521,33.13 L178.521,50.69 C178.521,50.8 178.476,50.91 178.397,50.98 C178.317,51.06 178.21,51.11 178.097,51.11 Z M173.161,50.26 L177.674,50.26 L177.674,33.55 L173.187,33.55 L173.161,50.26 Z" id="Shape" fill="#2C0F6B"></path>
            <polygon id="Path" fill="#FFFFFF" points="191.365 31.31 182.779 31.31 182.779 33.13 191.365 33.13"></polygon>
            <path d="M191.365,33.55 L182.779,33.55 C182.668,33.55 182.561,33.5 182.482,33.42 C182.404,33.34 182.358,33.24 182.356,33.13 L182.356,31.31 C182.356,31.2 182.401,31.09 182.48,31.01 C182.559,30.93 182.667,30.89 182.779,30.89 L191.365,30.89 C191.477,30.89 191.585,30.93 191.664,31.01 C191.743,31.09 191.788,31.2 191.788,31.31 L191.788,33.13 C191.788,33.18 191.777,33.24 191.756,33.29 C191.734,33.34 191.703,33.39 191.664,33.42 C191.625,33.46 191.578,33.5 191.527,33.52 C191.475,33.54 191.42,33.55 191.365,33.55 Z M183.203,32.7 L190.967,32.7 L190.967,31.74 L183.228,31.74 L183.203,32.7 Z" id="Shape" fill="#2C0F6B"></path>
            <polygon id="Path" fill="#FFFFFF" points="191.365 50.69 182.779 50.69 182.779 52.5 191.365 52.5"></polygon>
            <path d="M191.365,52.92 L182.779,52.92 C182.667,52.92 182.559,52.88 182.48,52.8 C182.401,52.72 182.356,52.61 182.356,52.5 L182.356,50.69 C182.356,50.57 182.401,50.47 182.48,50.39 C182.559,50.31 182.667,50.26 182.779,50.26 L191.365,50.26 C191.477,50.26 191.585,50.31 191.664,50.39 C191.743,50.47 191.788,50.57 191.788,50.69 L191.788,52.5 C191.788,52.55 191.777,52.61 191.756,52.66 C191.734,52.71 191.703,52.76 191.664,52.8 C191.625,52.84 191.578,52.87 191.527,52.89 C191.475,52.91 191.42,52.92 191.365,52.92 Z M183.203,52.07 L190.967,52.07 L190.967,51.11 L183.228,51.11 L183.203,52.07 Z" id="Shape" fill="#2C0F6B"></path>
            <polygon id="Path" fill="#FFFFFF" points="189.756 33.13 184.397 33.13 184.397 50.69 189.756 50.69"></polygon>
            <path d="M189.756,51.11 L184.397,51.11 C184.284,51.11 184.177,51.06 184.097,50.98 C184.018,50.91 183.973,50.8 183.973,50.69 L183.973,33.13 C183.973,33.01 184.018,32.91 184.097,32.83 C184.177,32.75 184.284,32.7 184.397,32.7 L189.756,32.7 C189.868,32.7 189.976,32.75 190.055,32.83 C190.135,32.91 190.179,33.01 190.179,33.13 L190.179,50.69 C190.179,50.8 190.135,50.91 190.055,50.98 C189.976,51.06 189.868,51.11 189.756,51.11 Z M184.82,50.26 L189.333,50.26 L189.333,33.55 L184.82,33.55 L184.82,50.26 Z" id="Shape" fill="#2C0F6B"></path>
            <polygon id="Path" fill="#FFFFFF" points="203.142 31.31 194.557 31.31 194.557 33.13 203.142 33.13"></polygon>
            <path d="M203.142,33.55 L194.557,33.55 C194.445,33.55 194.339,33.5 194.26,33.42 C194.181,33.34 194.135,33.24 194.133,33.13 L194.133,31.31 C194.133,31.2 194.178,31.09 194.257,31.01 C194.337,30.93 194.444,30.89 194.557,30.89 L203.142,30.89 C203.254,30.89 203.362,30.93 203.441,31.01 C203.52,31.09 203.565,31.2 203.565,31.31 L203.565,33.13 C203.565,33.24 203.52,33.35 203.441,33.42 C203.362,33.5 203.254,33.55 203.142,33.55 Z M194.98,32.7 L202.718,32.7 L202.718,31.74 L194.98,31.74 L194.98,32.7 Z" id="Shape" fill="#2C0F6B"></path>
            <polygon id="Path" fill="#FFFFFF" points="203.142 50.69 194.557 50.69 194.557 52.5 203.142 52.5"></polygon>
            <path d="M203.142,52.92 L194.557,52.92 C194.444,52.92 194.337,52.88 194.257,52.8 C194.178,52.72 194.133,52.61 194.133,52.5 L194.133,50.69 C194.133,50.57 194.178,50.47 194.257,50.39 C194.337,50.31 194.444,50.26 194.557,50.26 L203.142,50.26 C203.254,50.26 203.362,50.31 203.441,50.39 C203.52,50.47 203.565,50.57 203.565,50.69 L203.565,52.5 C203.565,52.61 203.52,52.72 203.441,52.8 C203.362,52.88 203.254,52.92 203.142,52.92 Z M194.98,52.07 L202.718,52.07 L202.718,51.11 L194.98,51.11 L194.98,52.07 Z" id="Shape" fill="#2C0F6B"></path>
            <polygon id="Path" fill="#FFFFFF" points="201.533 33.13 196.174 33.13 196.174 50.69 201.533 50.69"></polygon>
            <path d="M201.525,51.11 L196.174,51.11 C196.061,51.11 195.954,51.06 195.874,50.98 C195.795,50.91 195.75,50.8 195.75,50.69 L195.75,33.13 C195.75,33.01 195.795,32.91 195.874,32.83 C195.954,32.75 196.061,32.7 196.174,32.7 L201.525,32.7 C201.637,32.7 201.745,32.75 201.824,32.83 C201.903,32.91 201.948,33.01 201.948,33.13 L201.948,50.69 C201.948,50.8 201.903,50.91 201.824,50.98 C201.745,51.06 201.637,51.11 201.525,51.11 Z M196.597,50.26 L201.127,50.26 L201.127,33.55 L196.622,33.55 L196.597,50.26 Z" id="Shape" fill="#2C0F6B"></path>
            <polygon id="Path" fill="#FFFFFF" points="215.156 31.31 206.571 31.31 206.571 33.13 215.156 33.13"></polygon>
            <path d="M215.156,33.55 L206.571,33.55 C206.458,33.55 206.351,33.5 206.271,33.42 C206.192,33.35 206.147,33.24 206.147,33.13 L206.147,31.31 C206.147,31.2 206.192,31.09 206.271,31.01 C206.351,30.93 206.458,30.89 206.571,30.89 L215.156,30.89 C215.268,30.89 215.376,30.93 215.455,31.01 C215.535,31.09 215.579,31.2 215.579,31.31 L215.579,33.13 C215.577,33.24 215.532,33.34 215.453,33.42 C215.374,33.5 215.268,33.55 215.156,33.55 Z M206.994,32.7 L214.733,32.7 L214.733,31.74 L206.994,31.74 L206.994,32.7 Z" id="Shape" fill="#2C0F6B"></path>
            <polygon id="Path" fill="#FFFFFF" points="215.156 50.69 206.571 50.69 206.571 52.5 215.156 52.5"></polygon>
            <path d="M215.156,52.92 L206.571,52.92 C206.458,52.92 206.351,52.88 206.271,52.8 C206.192,52.72 206.147,52.61 206.147,52.5 L206.147,50.69 C206.147,50.57 206.192,50.47 206.271,50.39 C206.351,50.31 206.458,50.26 206.571,50.26 L215.156,50.26 C215.268,50.26 215.376,50.31 215.455,50.39 C215.535,50.47 215.579,50.57 215.579,50.69 L215.579,52.5 C215.579,52.61 215.535,52.72 215.455,52.8 C215.376,52.88 215.268,52.92 215.156,52.92 Z M206.994,52.07 L214.733,52.07 L214.733,51.11 L206.994,51.11 L206.994,52.07 Z" id="Shape" fill="#2C0F6B"></path>
            <polygon id="Path" fill="#FFFFFF" points="213.539 33.13 208.179 33.13 208.179 50.69 213.539 50.69"></polygon>
            <path d="M213.539,51.11 L208.179,51.11 C208.067,51.11 207.959,51.06 207.88,50.98 C207.801,50.91 207.756,50.8 207.756,50.69 L207.756,33.13 C207.756,33.01 207.801,32.91 207.88,32.83 C207.959,32.75 208.067,32.7 208.179,32.7 L213.539,32.7 C213.651,32.7 213.759,32.75 213.838,32.83 C213.918,32.91 213.962,33.01 213.962,33.13 L213.962,50.69 C213.962,50.8 213.918,50.91 213.838,50.98 C213.759,51.06 213.651,51.11 213.539,51.11 Z M208.603,50.26 L213.116,50.26 L213.116,33.55 L208.603,33.55 L208.603,50.26 Z" id="Shape" fill="#2C0F6B"></path>
            <path d="M193.024,26.89 C195.502,26.89 197.511,24.89 197.511,22.41 C197.511,19.93 195.502,17.92 193.024,17.92 C190.546,17.92 188.537,19.93 188.537,22.41 C188.537,24.89 190.546,26.89 193.024,26.89 Z" id="Path" fill="#C2B6D6"></path>
            <path d="M193.024,27.33 C192.051,27.33 191.099,27.04 190.289,26.5 C189.479,25.96 188.847,25.19 188.473,24.3 C188.1,23.4 188.001,22.41 188.19,21.45 C188.379,20.5 188.847,19.62 189.534,18.93 C190.222,18.24 191.098,17.77 192.053,17.58 C193.007,17.39 193.997,17.49 194.896,17.86 C195.795,18.23 196.564,18.86 197.105,19.67 C197.646,20.48 197.935,21.43 197.935,22.41 C197.935,23.71 197.418,24.96 196.497,25.88 C195.576,26.8 194.327,27.32 193.024,27.33 Z M193.024,18.34 C192.218,18.34 191.429,18.58 190.758,19.03 C190.087,19.47 189.564,20.11 189.255,20.85 C188.946,21.6 188.864,22.42 189.021,23.21 C189.178,24 189.566,24.72 190.136,25.29 C190.706,25.86 191.432,26.25 192.223,26.41 C193.014,26.57 193.834,26.49 194.578,26.18 C195.323,25.87 195.958,25.34 196.405,24.67 C196.852,24 197.09,23.21 197.088013,22.41 C197.086,21.33 196.657,20.3 195.895,19.54 C195.134,18.77 194.101,18.34 193.024,18.34 Z" id="Shape" fill="#2C0F6B"></path>
            <polygon id="Path" fill="#2C0F6B" points="193.769 20.95 192.313 20.95 192.313 23.94 193.769 23.94"></polygon>
            <path d="M193.769,24.37 L192.313,24.37 C192.201,24.37 192.093,24.33 192.014,24.25 C191.934,24.17 191.89,24.06 191.89,23.95 L191.89,20.95 C191.89,20.84 191.934,20.73 192.014,20.65 C192.093,20.57 192.201,20.53 192.313,20.53 L193.769,20.53 C193.881,20.53 193.989,20.57 194.069,20.65 C194.148,20.73 194.193,20.84 194.193,20.95 L194.193,23.95 C194.193,24.06 194.148,24.17 194.069,24.25 C193.989,24.33 193.881,24.37 193.769,24.37 Z M192.736,23.52 L193.346,23.52 L193.346,21.34 L192.736,21.34 L192.736,23.52 Z" id="Shape" fill="#2C0F6B"></path>
            <path d="M174.999,15.51 C174.899,15.52 174.802,15.48 174.728,15.41 L161.333,4.17 C161.253,4.09 161.207,3.98 161.207,3.86 C161.207,3.75 161.253,3.64 161.333,3.56 C161.368,3.52 161.412,3.48 161.461,3.46 C161.51,3.43 161.564,3.41 161.619,3.41 C161.674,3.4 161.73,3.41 161.783,3.43 C161.835,3.45 161.884,3.47 161.926,3.51 L175.286,14.76 C175.352,14.82 175.399,14.89 175.421,14.98 C175.443,15.06 175.439,15.15 175.409,15.23 C175.38,15.31 175.326,15.38 175.256,15.43 C175.186,15.48 175.102,15.51 175.015,15.51 L174.999,15.51 Z" id="Path" fill="#74DCB9"></path>
            <path d="M178.622,12.03 C178.531,12.03 178.442,12 178.368,11.94 C178.295,11.89 178.242,11.81 178.216,11.72 L174.922,0.96 C174.905,0.91 174.899,0.85 174.904,0.8 C174.909,0.74 174.925,0.69 174.951,0.64 C174.977,0.59 175.013,0.55 175.056,0.51 C175.099,0.48 175.149,0.45 175.202,0.44 C175.254,0.42 175.31,0.41 175.366,0.42 C175.422,0.42 175.476,0.44 175.525,0.46 C175.574,0.49 175.618,0.52 175.652,0.57 C175.687,0.61 175.712,0.66 175.727,0.72 L179.029,11.48 C179.06,11.58 179.047,11.7 178.993,11.8 C178.939,11.9 178.849,11.97 178.741,12 C178.704,12.02 178.663,12.03 178.622,12.03 Z" id="Path" fill="#74DCB9"></path>
            <path d="M213.471,17.5 C213.383,17.5 213.298,17.47 213.226,17.42 C213.18,17.39 213.141,17.35 213.111,17.3 C213.081,17.25 213.061,17.2 213.051,17.14 C213.042,17.09 213.043,17.03 213.056,16.98 C213.068,16.92 213.091,16.87 213.124,16.83 L217.213,11.04 C217.245,11 217.286,10.96 217.334,10.93 C217.381,10.9 217.433,10.88 217.489,10.87 C217.544,10.86 217.6,10.86 217.655,10.87 C217.709,10.89 217.761,10.91 217.806,10.94 C217.897,11.01 217.958,11.11 217.977,11.22 C217.996,11.33 217.971,11.44 217.908,11.54 L213.827,17.31 C213.788,17.37 213.735,17.42 213.673,17.45 C213.611,17.48 213.541,17.5 213.471,17.5 Z" id="Path" fill="#74DCB9"></path>
            <path d="M217.281,20.8 C217.169,20.82 217.053,20.8 216.958,20.73 C216.864,20.67 216.799,20.57 216.777,20.46 C216.756,20.34 216.78,20.23 216.844,20.13 C216.909,20.04 217.008,19.97 217.12,19.95 L233.054,13.54 C233.159,13.5 233.276,13.5 233.379,13.55 C233.482,13.59 233.563,13.67 233.605,13.78 C233.646,13.88 233.645,14 233.6,14.1 C233.556,14.21 233.472,14.29 233.368,14.33 L217.433,20.74 C217.386,20.77 217.335,20.79 217.281,20.8 Z" id="Path" fill="#74DCB9"></path>
            <path d="M162.053,64.45 C161.965,64.45 161.88,64.43 161.807,64.38 C161.718,64.31 161.659,64.21 161.641,64.1 C161.624,63.99 161.65,63.87 161.714,63.78 L164.314,60.14 C164.379,60.05 164.478,59.99 164.589,59.97 C164.7,59.95 164.814,59.98 164.906,60.04 C164.998,60.11 165.061,60.21 165.08,60.32 C165.099,60.43 165.073,60.54 165.008,60.63 L162.4,64.27 C162.361,64.33 162.309,64.38 162.249,64.41 C162.188,64.44 162.121,64.45 162.053,64.45 Z" id="Path" fill="#74DCB9"></path>
            <path d="M160.537,52.93 L153.095,52.86 C153.04,52.86 152.985,52.85 152.934,52.83 C152.883,52.8 152.837,52.77 152.798,52.73 C152.76,52.69 152.73,52.64 152.709,52.59 C152.689,52.54 152.679,52.49 152.679932,52.43 C152.679932,52.37 152.691,52.32 152.713,52.27 C152.734,52.22 152.765,52.17 152.805,52.13 C152.844,52.09 152.891,52.06 152.942,52.04 C152.994,52.02 153.049,52.01 153.104,52.01 L160.546,52.08 C160.658,52.08 160.766,52.13 160.845,52.21 C160.925,52.29 160.969,52.39 160.969,52.51 C160.969,52.62 160.925,52.73 160.845,52.81 C160.766,52.88 160.658,52.93 160.546,52.93 L160.537,52.93 Z" id="Path" fill="#74DCB9"></path>
            <path d="M149.48,62.5 C149.396,62.5 149.312,62.48 149.242,62.43 C149.172,62.38 149.119,62.31 149.091,62.23 C149.07,62.18 149.06,62.13 149.06,62.07 C149.061,62.02 149.073,61.96 149.095,61.91 C149.117,61.86 149.149,61.81 149.189,61.77 C149.229,61.73 149.276,61.7 149.328,61.68 L161.486,56.9 C161.537,56.88 161.593,56.87 161.648,56.87 C161.704,56.87 161.759,56.88 161.81,56.9 C161.861,56.93 161.907,56.96 161.946,57 C161.985,57.04 162.016,57.09 162.036,57.14 C162.075,57.24 162.073,57.36 162.029,57.46 C161.984,57.56 161.902,57.64 161.799,57.69 L149.624,62.49 C149.577,62.5 149.528,62.5 149.48,62.5 Z" id="Path" fill="#74DCB9"></path>
            <path d="M172.001,19.1 L165.05,18.67 C164.995,18.67 164.94,18.66 164.89,18.63 C164.84,18.61 164.795,18.57 164.758,18.53 C164.721,18.49 164.693,18.44 164.675,18.39 C164.656,18.34 164.649,18.28 164.652,18.22 C164.654,18.17 164.668,18.11 164.692,18.06 C164.716,18.01 164.75,17.97 164.792,17.93 C164.834,17.89 164.883,17.86 164.936,17.85 C164.989,17.83 165.045,17.82 165.101,17.83 L172.061,18.25 C172.173,18.25 172.281,18.29 172.36,18.37 C172.439,18.45 172.484,18.56 172.484,18.67 C172.484,18.79 172.439,18.89 172.36,18.97 C172.281,19.05 172.173,19.1 172.061,19.1 L172.001,19.1 Z" id="Path" fill="#74DCB9"></path>
            <path d="M215.19,59.8 C220.848,59.8 225.434,55.22 225.434,49.56 C225.434,43.9 220.848,39.31 215.19,39.31 C209.532,39.31 204.945,43.9 204.945,49.56 C204.945,55.22 209.532,59.8 215.19,59.8 Z" id="Path" fill="#FFFFFF"></path>
            <path d="M215.19,60.23 C213.08,60.23 211.017,59.6 209.263,58.43 C207.509,57.26 206.141,55.59 205.334,53.64 C204.526,51.69 204.315,49.55 204.727,47.48 C205.138,45.41 206.154,43.51 207.646,42.02 C209.138,40.52 211.039,39.51 213.109,39.1 C215.178,38.68 217.323,38.9 219.272,39.7 C221.222,40.51 222.888,41.88 224.06,43.63 C225.232,45.39 225.858,47.45 225.858,49.56 C225.856,52.39 224.731,55.1 222.731,57.1 C220.731,59.1 218.018,60.23 215.19,60.23 Z M215.19,39.75 C213.247,39.75 211.348,40.32 209.732,41.4 C208.117,42.48 206.858,44.02 206.115,45.81 C205.372,47.61 205.178,49.58 205.558,51.49 C205.937,53.39 206.874,55.14 208.248,56.52 C209.622,57.89 211.373,58.82 213.279,59.2 C215.185,59.58 217.16,59.38 218.954,58.64 C220.749,57.89 222.282,56.63 223.36,55.02 C224.438,53.4 225.013,51.5 225.011005,49.56 C225.009,46.96 223.973,44.46 222.132,42.62 C220.29,40.78 217.793,39.75 215.19,39.75 Z" id="Shape" fill="#2C0F6B"></path>
            <path d="M211.456,50.91 C212.475,50.91 213.302,50.09 213.302,49.07 C213.302,48.05 212.475,47.22 211.456,47.22 C210.437,47.22 209.61,48.05 209.61,49.07 C209.61,50.09 210.437,50.91 211.456,50.91 Z" id="Path" fill="#2C0F6B"></path>
            <path d="M213.107,51.68 L216.494,45.76 C216.557,45.64 216.651,45.54 216.766,45.48 C216.882,45.41 217.013,45.38 217.146,45.39 L219.914,45.39 C220.045,45.39 220.173,45.42 220.286,45.49 C220.399,45.55 220.493,45.65 220.558,45.76 C220.623,45.87 220.658,46 220.657021,46.13 C220.657021,46.26 220.623,46.39 220.558,46.5 L215.842,54.75 C215.776,54.86 215.682,54.96 215.569,55.02 C215.456,55.08 215.328,55.12 215.198,55.12 C215.068,55.12 214.94,55.08 214.827,55.02 C214.714,54.96 214.62,54.86 214.555,54.75 L213.115,52.39 C213.056,52.28 213.025,52.16 213.022974,52.04 C213.022,51.91 213.05,51.79 213.107,51.68 Z" id="Path" fill="#74DCB9"></path>
        </g>
    </g>
</svg>