<?xml version="1.0" encoding="UTF-8"?>
<svg width="269px" height="176px" viewBox="0 0 269 176" version="1.1" xmlns="http://www.w3.org/2000/svg" xmlns:xlink="http://www.w3.org/1999/xlink">
    <title>character-image-01</title>
    <g id="Page-2" stroke="none" stroke-width="1" fill="none" fill-rule="evenodd">
        <g id="home-banner" transform="translate(-266.000000, -1294.000000)" fill-rule="nonzero">
            <g id="Group" transform="translate(263.000000, 1294.000000)">
                <g id="character-image-01" transform="translate(3.000000, 0.000000)">
                    <path d="M132.936,170.03 L130.372,171.16 C130.372,171.16 120.815,160.6 114.989,147.24 C113.85,137.18 109.182,129.97 105.384,126.85 C102.552,124.54 100.342,121.85 99.309,120.51 C99.309,120.51 112.559,128.74 115.591,133.79 C118.49,138.65 124.88,158.97 132.936,170.03 Z" id="Path" fill="#E6E2EE"></path>
                    <path d="M129.013,169.11 L130.62,170.96 C130.62,170.96 138.015,168.13 137.815,167.1 C137.614,166.06 134.763,165.81 134.763,165.81 L129.013,169.11 Z" id="Path" fill="#C2B6D6"></path>
                    <path d="M108.34,169.11 L115.275,169.11 C115.275,169.11 117.074,170.38 117.103,170.89 C117.141,171.39 115.993,171.76 113.563,171.82 C111.133,171.9 108.961,171.65 108.961,171.65 L108.34,169.11 Z" id="Path" fill="#C2B6D6"></path>
                    <polygon id="Path" fill="#C2B6D6" points="202.973 163.11 203.432 161.87 208.292 160.24 209.832 168.7 203.863 171.17 201.184 171.09"></polygon>
                    <path d="M195.119,164.52 L195.071,168.6 C195.071,168.6 193.11,169.31 192.574,170.48 C192.038,171.63 192.622,171.71 192.622,171.71 L200.534,171.71 L203.002,163.56 L194.861,163.73 L195.119,164.52 Z" id="Path" fill="#C2B6D6"></path>
                    <path d="M190.699,18.67 L102.427,18.67 C96.171,18.67 91.101,23.74 91.101,30 C91.101,36.25 96.171,41.33 102.427,41.33 L103.03,41.33 C106.283,41.33 108.923,43.97 108.923,47.22 C108.923,50.47 106.283,53.11 103.03,53.11 L80.07,53.11 C77.487,53.11 75.383,55.21 75.383,57.8 C75.383,60.38 77.478,62.49 80.07,62.49 L167.739,62.49 C169.241,62.49 170.456,61.27 170.456,59.77 L170.456,58.56 C170.456,57.06 171.671,55.85 173.173,55.85 L185.256,55.85 C186.758,55.85 187.973,54.63 187.973,53.13 L187.973,44.07 C187.973,42.57 189.188,41.35 190.69,41.35 C192.192,41.35 193.406061,40.14 193.406061,38.64 L193.406061,21.42 C193.416,19.89 192.201,18.67 190.699,18.67 Z" id="Path" fill="#F2EFF8"></path>
                    <path d="M108.349,72.45 L135.691,72.45 C137.566,72.45 139.087,70.92 139.087,69.05 C139.087,67.17 137.566,65.65 135.691,65.65 L108.349,65.65 C106.474,65.65 104.95296,67.17 104.95296,69.05 C104.944,70.92 106.465,72.45 108.349,72.45 Z" id="Path" fill="#F2EFF8"></path>
                    <path d="M193.521,7.99 L209.287,7.99 C210.54,7.99 211.554,6.98 211.554,5.73 C211.554,4.47 210.54,3.46 209.287,3.46 L193.521,3.46 C192.268,3.46 191.254,4.47 191.254,5.73 C191.254,6.98 192.268,7.99 193.521,7.99 Z" id="Path" fill="#F2EFF8"></path>
                    <path d="M183.247,21.56 L203.997,21.56 C206.685,21.56 208.857,19.39 208.857,16.7 C208.857,14.01 206.685,11.84 203.997,11.84 L183.247,11.84 C180.558,11.84 178.387,14.01 178.387,16.7 C178.387,19.39 180.558,21.56 183.247,21.56 Z" id="Path" fill="#F2EFF8"></path>
                    <path d="M215.477,14.5 L218.146,14.5 C219.399,14.5 220.413,13.49 220.413,12.23 C220.413,10.98 219.399,9.97 218.146,9.97 L215.477,9.97 C214.224,9.97 213.209,10.98 213.209,12.23 C213.209,13.49 214.224,14.5 215.477,14.5 Z" id="Path" fill="#F2EFF8"></path>
                    <path d="M3.613,175.67 L0.542,175.67 C0.275,175.67 0.064,175.46 0.064,175.19 C0.064,174.92 0.275,174.71 0.542,174.71 L3.613,174.71 C3.881,174.71 4.092,174.92 4.092,175.19 C4.092,175.46 3.881,175.67 3.613,175.67 Z" id="Path" fill="#3F3F3F"></path>
                    <path d="M85.944,175.67 L7.66,175.67 C7.392,175.67 7.182,175.46 7.182,175.19 C7.182,174.92 7.392,174.71 7.66,174.71 L85.944,174.71 C86.212,174.71 86.422,174.92 86.422,175.19 C86.422,175.46 86.212,175.67 85.944,175.67 Z" id="Path" fill="#3F3F3F"></path>
                    <path d="M142.856,175.67 L91.914,175.67 C91.646,175.67 91.435,175.46 91.435,175.19 C91.435,174.92 91.646,174.71 91.914,174.71 L142.856,174.71 C143.124,174.71 143.335,174.92 143.335,175.19 C143.335,175.46 143.124,175.67 142.856,175.67 Z" id="Path" fill="#3F3F3F"></path>
                    <path d="M245.602,175.67 L142.856,175.67 C142.588,175.67 142.378,175.46 142.378,175.19 C142.378,174.92 142.588,174.71 142.856,174.71 L245.602,174.71 C245.87,174.71 246.081,174.92 246.081,175.19 C246.081,175.46 245.87,175.67 245.602,175.67 Z" id="Path" fill="#3F3F3F"></path>
                    <path d="M268.132,175.67 L250.606,175.67 C250.338,175.67 250.127,175.46 250.127,175.19 C250.127,174.92 250.338,174.71 250.606,174.71 L268.132,174.71 C268.4,174.71 268.61,174.92 268.61,175.19 C268.61,175.46 268.4,175.67 268.132,175.67 Z" id="Path" fill="#3F3F3F"></path>
                    <path d="M209.976,120.16 C207.058,124.22 198.419,130.8 196.85,136.44 C196.21,138.72 195.798,144.15 195.54,149.9 C195.54,149.9 194.076,147.05 192.622,143.32 C192.22,142.29 191.78,141.19 191.417,139.97 C191.895,136.35 193.005,132.41 195.358,129.45 C198.075,126.06 209.976,120.16 209.976,120.16 Z" id="Path" fill="#E6E2EE"></path>
                    <path d="M226.727,129.63 C225.206,132.26 223.675,135.6 218.251,139.42 C214.348,142.17 211.564,142.65 211.564,142.65 L215.802,166.52 L215.802,171.34 L205.681,171.34 L205.681,170.29 L209.593,168.61 L208.388,161.16 C208.388,161.16 207.747,155.31 207.345,151.64 C206.953,147.97 205.747,144.78 205.747,144.78 C205.738,142.88 205.652,141.62 205.805,140.74 C206.197,138.5 217.007,134.79 221.867,128.22 C223.828,128.31 225.426,128.85 226.727,129.63 Z" id="Path" fill="#E6E2EE"></path>
                    <path d="M169.078,172.11 C168.811,172.11 168.6,171.9 168.6,171.63 L168.6,111.69 C168.6,111.42 168.811,111.21 169.078,111.21 C169.346,111.21 169.557,111.42 169.557,111.69 L169.557,171.63 C169.557,171.9 169.337,172.11 169.078,172.11 Z" id="Path" fill="#2C0F6B"></path>
                    <polygon id="Path" fill="#C2B6D6" points="164.333 109.96 209.832 109.77 209.832 111.31 164.353 111.31"></polygon>
                    <path d="M209.832,111.78 L164.353,111.78 C164.094,111.78 163.874,111.57 163.874,111.31 L163.855,109.97 C163.855,109.84 163.903,109.72 163.989,109.62 C164.075,109.53 164.199,109.48 164.324,109.48 L209.823,109.3 C209.947,109.3 210.072,109.34 210.158,109.44 C210.244,109.53 210.301328,109.65 210.301328,109.77 L210.301328,111.31 C210.311,111.57 210.091,111.78 209.832,111.78 Z M164.821,110.83 L209.345,110.83 L209.345,110.25 L164.812,110.43 L164.821,110.83 Z" id="Shape" fill="#2C0F6B"></path>
                    <path d="M201.031,171.58 C200.782,171.58 200.572,171.38 200.553,171.13 C200.534,170.86 200.735,170.64 201.002,170.62 L204.131,170.44 L209.058,168.31 L207.919,161.22 L206.867,151.68 C206.484,148.11 205.307,144.96 205.298,144.93 C205.202,144.68 205.327,144.41 205.575,144.32 C205.824,144.22 206.101,144.35 206.188,144.6 C206.235,144.73 207.412,147.9 207.814,151.58 L208.857,161.1 L210.052,168.53 C210.091,168.75 209.966,168.96 209.765,169.05 L204.418,171.36 C204.37,171.37 204.312,171.39 204.255,171.39 L201.05,171.58 C201.05,171.58 201.041,171.58 201.031,171.58 Z" id="Path" fill="#2C0F6B"></path>
                    <path d="M200.888,172.19 L192.364,172.19 C192.125,172.19 191.933,172.02 191.895,171.79 C191.895,171.76 191.531,169.29 194.593,168.25 C194.602,166.65 194.669,159.81 194.928,152.83 L195.052,149.87 C195.368,142.89 195.817,138.33 196.382,136.3 C197.444,132.5 201.519,128.39 205.106,124.77 C206.905,122.96 208.598,121.25 209.584,119.88 C209.708,119.7 209.832,119.53 209.928,119.38 C210.072,119.16 210.359,119.08 210.588,119.23 C210.808,119.37 210.885,119.66 210.741,119.89 C210.636,120.06 210.502,120.25 210.359,120.44 C209.335,121.87 207.613,123.61 205.786,125.44 C202.275,128.98 198.305,132.99 197.31,136.56 C196.764,138.49 196.315,143.11 196.009,149.91 L195.884,152.85 C195.588,160.77 195.54,168.51 195.54,168.59 C195.54,168.8 195.396,168.99 195.195,169.05 C193.339,169.57 192.928,170.64 192.842,171.21 L200.505,171.21 L201.481,167.17 C201.643,166.62 201.787,166.11 201.93,165.62 L202.131,164.91 C204.992,154.49 205.288,148.41 205.269,144.75 C205.269,144.24 205.26,143.79 205.25,143.37 C205.231,142.18 205.212,141.32 205.336,140.63 C205.537,139.46 207.489,138.3 210.445,136.54 C213.946,134.46 218.749,131.61 221.494,127.89 C222.566,126.46 223.235,125.03 223.541,123.56 C223.714,122.78 223.819,121.99 223.876,121.15 C224.211,115.73 221.456,112.74 221.427,112.71 C221.245,112.52 221.255,112.21 221.446,112.03 C221.638,111.85 221.944,111.86 222.126,112.05 C222.25,112.19 225.196,115.35 224.833,121.21 C224.776,122.1 224.661,122.93 224.479,123.75 C224.144,125.34 223.398,126.93 222.26,128.46 C219.399,132.31 214.511,135.23 210.933,137.36 C208.704,138.68 206.408,140.04 206.283,140.78 C206.178,141.38 206.188,142.21 206.207,143.34 C206.216,143.77 206.226,144.22 206.226,144.73 C206.245,148.45 205.939,154.61 203.05,165.15 L202.849,165.85 C202.705,166.36 202.562,166.88 202.409,167.39 L201.347,171.78 C201.309,172.03 201.108,172.19 200.888,172.19 Z" id="Path" fill="#2C0F6B"></path>
                    <path d="M195.54,150.38 C195.368,150.38 195.195,150.28 195.109,150.12 C195.09,150.09 193.617,147.21 192.172,143.5 L192.115,143.34 C191.723,142.33 191.311,141.29 190.957,140.1 C190.249,137.71 189.982,135.44 190.125,132.96 C190.69,122.68 203.05,115.91 204.456,115.17 C207.469,113.58 207.804,111.63 207.814,111.55 C207.852,111.3 208.101,111.11 208.359,111.15 C208.617,111.19 208.799,111.43 208.761,111.69 C208.751,111.79 208.378,114.18 204.896,116.02 C203.538,116.74 191.608,123.27 191.072,133.02 C190.938,135.38 191.197,137.55 191.876,139.83 C192.211,140.97 192.612,142 193.005,143 L193.062,143.15 C194.497,146.81 195.951,149.65 195.961,149.68 C196.085,149.92 195.99,150.2 195.75,150.32 C195.683,150.36 195.616,150.38 195.54,150.38 Z" id="Path" fill="#2C0F6B"></path>
                    <path d="M202.964,164.24 L195.128,164.24 C194.861,164.24 194.65,164.03 194.65,163.76 C194.65,163.49 194.861,163.28 195.128,163.28 L202.964,163.28 C203.231,163.28 203.442,163.49 203.442,163.76 C203.442,164.03 203.231,164.24 202.964,164.24 Z" id="Path" fill="#2C0F6B"></path>
                    <path d="M201.385,172.11 C201.117,172.11 200.907,171.9 200.907,171.63 L200.907,111.69 C200.907,111.42 201.117,111.21 201.385,111.21 C201.653,111.21 201.863,111.42 201.863,111.69 L201.863,171.63 C201.863,171.9 201.643,172.11 201.385,172.11 Z" id="Path" fill="#2C0F6B"></path>
                    <path d="M213.755,90.95 C213.123,90.95 212.042,90.74 211.287,89.45 C210.081,87.41 210.751,83.59 210.78,83.43 C210.799,83.29 210.923,83.22 211.057,83.24 C211.191,83.26 211.277,83.38 211.248,83.51 C211.239,83.55 210.588,87.32 211.698,89.2 C212.339,90.28 213.209,90.5 213.841,90.46 C214.692,90.43 215.362,89.98 215.515,89.67 C215.572,89.55 215.716,89.5 215.84,89.56 C215.955,89.62 216.003,89.76 215.946,89.89 C215.697,90.37 214.855,90.91 213.86,90.94 C213.822,90.95 213.793,90.95 213.755,90.95 Z" id="Path" fill="#2C0F6B"></path>
                    <path d="M213.42,88.05 C213.41,88.05 213.401,88.05 213.401,88.05 C213.19,88.03 213.076,87.92 213.009,87.84 C212.836,87.6 212.913,87.25 212.999,86.89 L213.037,86.7 C213.133,86.25 213.152,85.76 213.152,85.75 C213.162,85.62 213.276,85.53 213.401,85.52 C213.535,85.53 213.64,85.64 213.63,85.77 C213.63,85.79 213.611,86.31 213.506,86.8 L213.458,87 C213.42,87.18 213.343,87.49 213.391,87.56 C213.525,87.57 213.64,87.69 213.63,87.83 C213.621,87.95 213.535,88.05 213.42,88.05 Z" id="Path" fill="#2C0F6B"></path>
                    <path d="M215.745,85.06 C215.668,85.06 215.592,85.03 215.544,84.96 C215.151,84.37 214.587,84.56 214.558,84.56 C214.434,84.6 214.3,84.54 214.252,84.4 C214.214,84.28 214.271,84.15 214.405,84.1 C214.731,83.98 215.477,83.96 215.946,84.69 C216.022,84.81 215.984,84.95 215.879,85.03 C215.84,85.05 215.792,85.06 215.745,85.06 Z" id="Path" fill="#2C0F6B"></path>
                    <path d="M211.526,84.89 C211.478,84.89 211.43,84.87 211.382,84.84 C211.277,84.77 211.248,84.61 211.334,84.51 C211.755,83.94 212.358,83.96 212.626,84.06 C212.75,84.11 212.817,84.24 212.769,84.37 C212.731,84.49 212.597,84.56 212.463,84.51 C212.415,84.49 212.014,84.38 211.717,84.8 C211.669,84.86 211.602,84.89 211.526,84.89 Z" id="Path" fill="#2C0F6B"></path>
                    <path d="M214.951,86.56 C214.817,86.56 214.711,86.45 214.711,86.32 L214.711,85.4 C214.711,85.26 214.817,85.16 214.951,85.16 C215.085,85.16 215.19,85.26 215.19,85.4 L215.19,86.32 C215.19,86.45 215.085,86.56 214.951,86.56 Z" id="Path" fill="#2C0F6B"></path>
                    <path d="M212.253,86.39 C212.119,86.39 212.014,86.29 212.014,86.15 L212.014,85.28 C212.014,85.15 212.119,85.04 212.253,85.04 C212.387,85.04 212.492,85.15 212.492,85.28 L212.492,86.15 C212.492,86.29 212.387,86.39 212.253,86.39 Z" id="Path" fill="#2C0F6B"></path>
                    <path d="M213.678,89.06 C213.525,89.06 213.391,89.04 213.286,89.01 C213.162,88.97 213.095,88.83 213.133,88.7 C213.171,88.57 213.305,88.51 213.43,88.55 C213.496,88.57 214.09,88.73 214.453,88.12 C214.52,88 214.664,87.96 214.778,88.03 C214.893,88.1 214.931,88.24 214.865,88.35 C214.549,88.91 214.061,89.06 213.678,89.06 Z" id="Path" fill="#2C0F6B"></path>
                    <path d="M217.486,90.55 C219.916,91.48 221.045,89.55 221.045,89.55 C219.265,89.84 220.212,85.02 218.71,82.26 C217.955,80.87 216.998,79.74 214.664,79.88 C210.091,80.15 210.722,84.04 210.722,84.04 C213.334,83.72 214.539,82.02 214.539,82.02 C214.539,82.02 217.495,82.84 217.495,85.73 C217.505,88.73 217.486,90.55 217.486,90.55 Z" id="Path" fill="#2C0F6B"></path>
                    <path d="M218.758,91.03 C218.356,91.03 217.907,90.96 217.4,90.77 C217.304,90.73 217.247,90.64 217.247,90.54 C217.247,90.54 217.266,88.72 217.266,85.71 C217.266,83.38 215.218,82.49 214.635,82.29 C214.271,82.72 213.028,84 210.76,84.27 C210.636,84.29 210.512,84.19 210.493,84.07 C210.483,84 210.234,82.39 211.258,81.1 C211.975,80.21 213.114,79.72 214.654,79.63 C216.988,79.5 218.05,80.54 218.921,82.14 C219.619,83.42 219.801,85.07 219.964,86.54 C220.097,87.76 220.222,88.91 220.643,89.23 C220.748,89.3 220.863,89.33 221.016,89.3 C221.102,89.28 221.198,89.33 221.255,89.4 C221.303,89.47 221.312,89.57 221.265,89.66 C221.245,89.68 220.432,91.03 218.758,91.03 Z M217.735,90.37 C219.256,90.89 220.184,90.19 220.605,89.74 C220.518,89.71 220.432,89.67 220.356,89.61 C219.772,89.17 219.648,88.03 219.495,86.59 C219.342,85.17 219.16,83.55 218.509,82.36 C217.706,80.87 216.787,79.98 214.692,80.1 C213.296,80.18 212.272,80.62 211.641,81.4 C210.961,82.25 210.923,83.29 210.952,83.75 C213.267,83.39 214.348,81.88 214.367,81.87 C214.424,81.78 214.53,81.74 214.625,81.77 C214.654,81.78 217.754,82.68 217.754,85.71 C217.744,88.19 217.735,89.86 217.735,90.37 Z" id="Shape" fill="#2C0F6B"></path>
                    <path d="M213.296,93.61 C213.028,93.61 212.817,93.4 212.817,93.13 L212.817,90.93 C212.817,90.66 213.028,90.45 213.296,90.45 C213.563,90.45 213.774,90.66 213.774,90.93 L213.774,93.13 C213.774,93.4 213.554,93.61 213.296,93.61 Z" id="Path" fill="#2C0F6B"></path>
                    <path d="M203.997,105.78 C203.748,105.78 203.538,105.58 203.518,105.34 C203.499,105.11 203.078,99.74 204.906,96.2 C206.924,92.29 212.999,91.84 213.257,91.83 C213.516,91.82 213.745,92.01 213.764,92.28 C213.783,92.55 213.583,92.77 213.315,92.78 C213.257,92.78 207.517,93.21 205.747,96.64 C204.045,99.94 204.456,105.21 204.466,105.27 C204.485,105.54 204.293,105.77 204.025,105.79 C204.016,105.78 204.006,105.78 203.997,105.78 Z" id="Path" fill="#2C0F6B"></path>
                    <path d="M213.382,97.55 C213.238,97.55 213.095,97.48 213.009,97.37 L212.358,96.53 C211.688,95.67 210.894,94.07 210.866,94 C210.751,93.76 210.847,93.47 211.086,93.36 C211.325,93.24 211.612,93.34 211.727,93.58 C211.736,93.6 212.511,95.17 213.114,95.95 L213.363,96.27 L214.511,94.6 C214.597,94.47 214.74,94.4 214.912,94.39 C215.075,94.39 215.218,94.48 215.305,94.61 L216.405,96.31 C217.017,95.74 218.175,94.54 218.835,93.12 C218.949,92.88 219.227,92.77 219.466,92.89 C219.705,93 219.81,93.28 219.696,93.52 C218.682,95.69 216.692,97.34 216.606,97.41 C216.5,97.49 216.366,97.53 216.233,97.51 C216.099,97.49 215.974,97.41 215.907,97.3 L214.893,95.73 L213.783,97.35 C213.697,97.47 213.554,97.55 213.401,97.56 C213.391,97.55 213.391,97.55 213.382,97.55 Z" id="Path" fill="#2C0F6B"></path>
                    <path d="M220.968,107.15 C220.958,107.15 220.958,107.15 220.949,107.15 C220.681,107.14 220.48,106.92 220.48,106.67 L220.557,104.24 C220.557,104.11 220.614,103.99 220.71,103.9 C220.805,103.81 220.93,103.76 221.054,103.78 L226.459,103.98 C226.593,102.58 226.823,98.17 224.785,96.3 C221.982,93.73 217.763,93.33 217.725,93.32 C217.476,93.3 217.285,93.09 217.285,92.84 L217.285,90.46 C217.285,90.19 217.495,89.98 217.763,89.98 C218.031,89.98 218.242,90.19 218.242,90.46 L218.242,92.42 C219.457,92.59 222.91,93.28 225.426,95.6 C228.22,98.16 227.387,104.27 227.349,104.54 C227.311,104.78 227.11,104.97 226.861,104.95 L221.494,104.75 L221.437,106.69 C221.437,106.95 221.226,107.15 220.968,107.15 Z" id="Path" fill="#2C0F6B"></path>
                    <path d="M222.48,108.56 C222.307,108.56 222.145,108.46 222.059,108.31 C222.03,108.25 221.37,107.14 218.949,107.02 C217.955,106.97 216.567,106.94 215.104,106.92 C211.841,106.88 209.813,106.83 209.144,106.61 C208.637,106.44 207.881,106.37 207.307,106.68 C206.924,106.9 206.656,107.27 206.532,107.79 C206.465,108.04 206.207,108.2 205.948,108.13 C205.69,108.06 205.537,107.8 205.604,107.55 C205.795,106.77 206.226,106.18 206.848,105.83 C207.91,105.25 209.105,105.58 209.44,105.69 C210.014,105.88 212.846,105.92 215.113,105.96 C216.587,105.98 217.974,106 218.988,106.05 C222.011,106.21 222.853,107.79 222.891,107.85 C223.015,108.09 222.92,108.38 222.69,108.49 C222.633,108.54 222.556,108.56 222.48,108.56 Z" id="Path" fill="#2C0F6B"></path>
                    <path d="M221.159,112.9 C219.504,112.9 217.543,112.6 215.008,111.55 L213.784,111.05 C210.531,109.7 209.182,109.14 207.852,109.55 C207.603,109.62 207.336,109.48 207.259,109.23 C207.183,108.98 207.326,108.71 207.575,108.64 C209.23,108.13 210.77,108.77 214.147,110.17 L215.372,110.67 C219.562,112.4 222.116,111.98 224.355,111.62 C225.761,111.39 226.249,107.31 226.153,104.48 C226.144,104.22 226.354,104 226.612,103.99 C226.871,103.98 227.1,104.19 227.11,104.45 C227.139,105.23 227.301,112.11 224.508,112.57 C223.494,112.72 222.413,112.9 221.159,112.9 Z" id="Path" fill="#2C0F6B"></path>
                    <path d="M208.369,106.46 C208.101,106.46 207.89,106.25 207.89,105.99 L207.89,99.44 C207.89,99.17 208.101,98.96 208.369,98.96 C208.637,98.96 208.847,99.17 208.847,99.44 L208.847,105.99 C208.847,106.25 208.627,106.46 208.369,106.46 Z" id="Path" fill="#2C0F6B"></path>
                    <path d="M208.369,104.29 L203.949,104.29 C203.681,104.29 203.471,104.08 203.471,103.81 C203.471,103.55 203.681,103.34 203.949,103.34 L208.369,103.34 C208.637,103.34 208.847,103.55 208.847,103.81 C208.847,104.08 208.627,104.29 208.369,104.29 Z" id="Path" fill="#2C0F6B"></path>
                    <path d="M199.673,108.05 C199.414,108.05 199.204,107.84 199.194,107.58 C199.175,106.61 199.654,104.73 201.615,104.62 C203.758,104.49 206.618,106.3 206.742,106.38 C206.962,106.52 207.029,106.82 206.886,107.04 C206.742,107.26 206.446,107.33 206.226,107.18 C206.197,107.16 203.518,105.46 201.672,105.57 C200.122,105.66 200.141,107.48 200.151,107.56 C200.161,107.82 199.95,108.03 199.682,108.04 C199.682,108.05 199.673,108.05 199.673,108.05 Z" id="Path" fill="#2C0F6B"></path>
                    <path d="M214.817,99.46 C214.549,99.46 214.338,99.25 214.338,98.98 L214.338,97.71 C214.338,97.44 214.549,97.23 214.817,97.23 C215.085,97.23 215.295,97.44 215.295,97.71 L215.295,98.98 C215.295,99.24 215.085,99.46 214.817,99.46 Z" id="Path" fill="#2C0F6B"></path>
                    <path d="M214.817,102.35 C214.549,102.35 214.338,102.14 214.338,101.87 L214.338,100.6 C214.338,100.33 214.549,100.12 214.817,100.12 C215.085,100.12 215.295,100.33 215.295,100.6 L215.295,101.87 C215.295,102.13 215.085,102.35 214.817,102.35 Z" id="Path" fill="#2C0F6B"></path>
                    <path d="M214.817,105.25 C214.549,105.25 214.338,105.04 214.338,104.77 L214.338,103.5 C214.338,103.23 214.549,103.02 214.817,103.02 C215.085,103.02 215.295,103.23 215.295,103.5 L215.295,104.77 C215.295,105.04 215.085,105.25 214.817,105.25 Z" id="Path" fill="#2C0F6B"></path>
                    <path d="M184.28,110.21 C184.012,110.21 183.802,110 183.802,109.74 L183.802,108.32 C183.802,108.05 184.012,107.84 184.28,107.84 L207.393,107.84 C207.661,107.84 207.871,108.05 207.871,108.32 L207.871,109.42 C207.871,109.69 207.661,109.9 207.393,109.9 C207.125,109.9 206.915,109.69 206.915,109.42 L206.915,108.8 L184.758,108.8 L184.758,109.74 C184.758,109.99 184.548,110.21 184.28,110.21 Z" id="Path" fill="#2C0F6B"></path>
                    <polygon id="Path" fill="#2C0F6B" points="190.69 107.78 183.773 107.78 183.773 109.45 190.69 109.45"></polygon>
                    <polygon id="Path" fill="#2C0F6B" points="188.786 102.84 185.791 102.84 185.791 108.29 188.786 108.29"></polygon>
                    <path d="M198.926,85.76 L175.842,85.76 C175.335,85.76 174.924,86.17 174.924,86.68 L174.924,102.18 C174.924,102.69 175.335,103.1 175.842,103.1 L198.926,103.1 C199.433,103.1 199.845,102.69 199.845,102.18 L199.845,86.68 C199.845,86.17 199.433,85.76 198.926,85.76 Z" id="Path" fill="#C2B6D6"></path>
                    <path d="M198.926,103.58 L175.842,103.58 C175.077,103.58 174.445,102.95 174.445,102.18 L174.445,86.68 C174.445,85.92 175.067,85.28 175.842,85.28 L198.926,85.28 C199.692,85.28 200.323,85.91 200.323,86.68 L200.323,102.18 C200.323,102.94 199.692,103.58 198.926,103.58 Z M175.842,86.24 C175.603,86.24 175.402,86.44 175.402,86.68 L175.402,102.18 C175.402,102.42 175.603,102.62 175.842,102.62 L198.926,102.62 C199.166,102.62 199.367,102.42 199.367,102.18 L199.367,86.68 C199.367,86.44 199.166,86.24 198.926,86.24 L175.842,86.24 Z" id="Shape" fill="#2C0F6B"></path>
                    <path d="M218.375,84.68 C218.299,84.68 218.222,84.64 218.175,84.57 C218.108,84.45 218.136,84.31 218.251,84.24 C218.309,84.2 219.696,83.3 219.351,81.88 C219.045,80.62 217.983,80.47 217.935,80.46 C217.801,80.44 217.715,80.33 217.725,80.19 C217.744,80.06 217.859,79.97 217.993,79.98 C218.05,79.99 219.428,80.17 219.82,81.76 C220.251,83.52 218.586,84.6 218.509,84.64 C218.471,84.66 218.423,84.68 218.375,84.68 Z" id="Path" fill="#74DCB9"></path>
                    <path d="M218.538,85.42 C218.987,85.42 219.351,84.91 219.351,84.28 C219.351,83.65 218.987,83.14 218.538,83.14 C218.089,83.14 217.725,83.65 217.725,84.28 C217.725,84.91 218.089,85.42 218.538,85.42 Z" id="Path" fill="#74DCB9"></path>
                    <path d="M209.88,89.62 C209.823,89.62 209.765,89.6 209.727,89.56 C209.44,89.3 209.278,89 209.268,88.64 C209.239,87.88 209.899,87.19 209.928,87.17 C210.024,87.07 210.167,87.07 210.263,87.17 C210.359,87.26 210.359,87.41 210.263,87.5 C210.253,87.51 209.718,88.08 209.737,88.63 C209.746,88.85 209.842,89.03 210.033,89.21 C210.129,89.29 210.139,89.45 210.052,89.54 C210.014,89.59 209.947,89.62 209.88,89.62 Z" id="Path" fill="#74DCB9"></path>
                    <path d="M210.86,90.02 C211.034,89.75 210.892,89.35 210.543,89.12 C210.194,88.89 209.77,88.92 209.596,89.19 C209.422,89.45 209.564,89.85 209.913,90.08 C210.262,90.31 210.686,90.28 210.86,90.02 Z" id="Path" fill="#74DCB9"></path>
                    <path d="M203.375,162.54 C203.174,162.54 202.983,162.42 202.916,162.22 C202.83,161.97 202.973,161.7 203.222,161.62 L208.158,159.99 C208.407,159.9 208.675,160.05 208.761,160.3 C208.847,160.55 208.704,160.81 208.455,160.9 L203.518,162.53 C203.48,162.53 203.423,162.54 203.375,162.54 Z" id="Path" fill="#2C0F6B"></path>
                    <path d="M232.295,171.82 L205.681,171.82 C205.413,171.82 205.202,171.61 205.202,171.35 L205.202,170.29 C205.202,170.03 205.413,169.81 205.681,169.81 C205.948,169.81 206.159,170.03 206.159,170.29 L206.159,170.87 L231.817,170.87 L231.817,138.22 C231.807,138.22 230.841,132.65 226.478,130.04 C225.11,129.22 223.561,128.76 221.858,128.68 C221.59,128.67 221.389,128.44 221.408,128.17 C221.418,127.9 221.647,127.69 221.915,127.72 C223.771,127.82 225.474,128.32 226.976,129.21 C231.731,132.07 232.735,137.89 232.773,138.14 L232.783,171.35 C232.773,171.61 232.563,171.82 232.295,171.82 Z" id="Path" fill="#2C0F6B"></path>
                    <polygon id="Path" fill="#E6E2EE" points="77.573 171.42 24.536 171.42 24.536 167.49 72.56 167.49 72.56 158.3 77.525 158.3"></polygon>
                    <path d="M103.614,146.21 L103.614,171.42 L98.237,171.42 L98.237,142.89 C98.237,142.89 96.802,142.89 90.153,139.86 C85.781,137.86 82.787,133.38 81.247,130.53 C82.634,129.18 84.49,127.98 86.929,127.4 C89.092,131.16 94.525,134.24 98.62,136.83 C101.538,138.68 103.633,140.88 103.633,140.88 C103.489,142.5 103.499,144.32 103.614,146.21 Z" id="Path" fill="#E6E2EE"></path>
                    <path d="M95.75,90.95 C95.712,90.95 95.683,90.95 95.654,90.95 C94.659,90.91 93.808,90.38 93.569,89.9 C93.511,89.78 93.559,89.64 93.674,89.57 C93.789,89.51 93.932,89.56 93.999,89.68 C94.152,89.99 94.822,90.44 95.673,90.47 C96.295,90.5 97.175,90.29 97.816,89.21 C98.926,87.32 98.276,83.56 98.266,83.52 C98.247,83.39 98.333,83.27 98.457,83.25 C98.582,83.23 98.716,83.31 98.735,83.44 C98.763,83.6 99.424,87.42 98.228,89.46 C97.453,90.74 96.381,90.95 95.75,90.95 Z" id="Path" fill="#2C0F6B"></path>
                    <path d="M96.085,88.05 C95.96,88.05 95.855,87.95 95.846,87.84 C95.836,87.7 95.932,87.59 96.056,87.58 C96.152,87.5 96.075,87.19 96.037,87.01 L95.989,86.8 C95.884,86.31 95.865,85.8 95.865,85.78 C95.865,85.65 95.96,85.54 96.094,85.53 C96.238,85.54 96.334,85.63 96.343,85.76 C96.343,85.76 96.362,86.26 96.458,86.71 L96.496,86.9 C96.582,87.26 96.659,87.61 96.487,87.85 C96.429,87.93 96.314,88.03 96.094,88.06 C96.104,88.05 96.094,88.05 96.085,88.05 Z" id="Path" fill="#2C0F6B"></path>
                    <path d="M94.554,86.56 C94.42,86.56 94.315,86.45 94.315,86.32 L94.315,85.4 C94.315,85.26 94.42,85.16 94.554,85.16 C94.688,85.16 94.793,85.26 94.793,85.4 L94.793,86.32 C94.793,86.45 94.688,86.56 94.554,86.56 Z" id="Path" fill="#2C0F6B"></path>
                    <path d="M97.252,86.39 C97.118,86.39 97.013,86.29 97.013,86.15 L97.013,85.28 C97.013,85.15 97.118,85.04 97.252,85.04 C97.386,85.04 97.491,85.15 97.491,85.28 L97.491,86.15 C97.491,86.29 97.386,86.39 97.252,86.39 Z" id="Path" fill="#2C0F6B"></path>
                    <path d="M93.712,85.06 C93.664,85.06 93.626,85.05 93.578,85.03 C93.464,84.95 93.435,84.81 93.511,84.69 C93.98,83.96 94.726,83.99 95.052,84.1 C95.176,84.14 95.243,84.28 95.205,84.4 C95.166,84.53 95.023,84.6 94.899,84.56 C94.841,84.54 94.286,84.38 93.913,84.96 C93.865,85.03 93.789,85.06 93.712,85.06 Z" id="Path" fill="#2C0F6B"></path>
                    <path d="M97.941,84.89 C97.864,84.89 97.797,84.85 97.749,84.8 C97.443,84.38 97.041,84.5 97.003,84.51 C96.879,84.55 96.745,84.48 96.697,84.36 C96.659,84.23 96.716,84.1 96.841,84.05 C97.108,83.95 97.711,83.94 98.132,84.5 C98.209,84.6 98.189,84.76 98.084,84.83 C98.036,84.87 97.989,84.89 97.941,84.89 Z" id="Path" fill="#2C0F6B"></path>
                    <path d="M95.827,89.06 C95.444,89.06 94.956,88.91 94.631,88.35 C94.564,88.24 94.602,88.1 94.717,88.03 C94.832,87.96 94.975,88 95.042,88.12 C95.406,88.76 96.037,88.56 96.056,88.55 C96.18,88.51 96.314,88.57 96.362,88.7 C96.401,88.82 96.334,88.96 96.209,89.01 C96.113,89.04 95.98,89.06 95.827,89.06 Z" id="Path" fill="#2C0F6B"></path>
                    <path d="M96.209,93.61 C95.941,93.61 95.731,93.4 95.731,93.13 L95.731,91.07 C95.731,90.8 95.941,90.59 96.209,90.59 C96.477,90.59 96.688,90.8 96.688,91.07 L96.688,93.13 C96.688,93.4 96.477,93.61 96.209,93.61 Z" id="Path" fill="#2C0F6B"></path>
                    <path d="M105.489,105.94 C105.479,105.94 105.46,105.94 105.451,105.94 C105.192,105.92 104.991,105.69 105.011,105.42 C105.011,105.36 105.451,99.94 103.748,96.64 C101.978,93.21 96.238,92.78 96.18,92.78 C95.913,92.77 95.721,92.54 95.731,92.28 C95.75,92.01 95.97,91.82 96.238,91.83 C96.496,91.85 102.581,92.29 104.59,96.2 C106.417,99.75 105.977,105.27 105.948,105.51 C105.938,105.75 105.728,105.94 105.489,105.94 Z" id="Path" fill="#2C0F6B"></path>
                    <path d="M87.475,108.56 C87.389,108.56 87.293,108.53 87.217,108.48 C86.996,108.34 86.93,108.04 87.073,107.82 C87.121,107.76 88.202,106.12 91.196,105.97 C92.287,105.91 93.827,105.91 95.319,105.9 C97.491,105.89 99.959,105.88 100.505,105.7 C100.839,105.58 102.035,105.26 103.097,105.84 C103.719,106.19 104.15,106.77 104.341,107.56 C104.408,107.81 104.245,108.07 103.996,108.14 C103.738,108.21 103.48,108.04 103.413,107.79 C103.279,107.28 103.021,106.9 102.638,106.69 C102.064,106.38 101.318,106.45 100.811,106.62 C100.17,106.83 98.304,106.86 95.329,106.87 C93.846,106.88 92.325,106.88 91.254,106.93 C88.785,107.06 87.924,108.3 87.886,108.36 C87.781,108.48 87.628,108.56 87.475,108.56 Z" id="Path" fill="#2C0F6B"></path>
                    <path d="M88.795,112.9 C87.542,112.9 86.461,112.73 85.447,112.56 C82.653,112.11 82.816,105.22 82.845,104.44 C82.854,104.17 83.084,103.97 83.342,103.98 C83.61,103.99 83.811,104.21 83.801,104.47 C83.706,107.31 84.193,111.39 85.6,111.61 C87.848,111.97 90.393,112.39 94.583,110.66 L95.807,110.16 C99.184,108.76 100.725,108.12 102.38,108.63 C102.628,108.7 102.772,108.97 102.695,109.22 C102.619,109.47 102.351,109.61 102.102,109.54 C100.772,109.13 99.433,109.69 96.171,111.04 L94.946,111.54 C92.421,112.6 90.46,112.9 88.795,112.9 Z" id="Path" fill="#2C0F6B"></path>
                    <path d="M101.184,106.46 C100.916,106.46 100.706,106.25 100.706,105.99 L100.706,99.44 C100.706,99.17 100.916,98.96 101.184,98.96 C101.452,98.96 101.662,99.17 101.662,99.44 L101.662,105.99 C101.662,106.25 101.452,106.46 101.184,106.46 Z" id="Path" fill="#2C0F6B"></path>
                    <path d="M105.431,104.29 L101.423,104.29 C101.155,104.29 100.945,104.08 100.945,103.81 C100.945,103.55 101.155,103.34 101.423,103.34 L105.431,103.34 C105.699,103.34 105.91,103.55 105.91,103.81 C105.91,104.08 105.699,104.29 105.431,104.29 Z" id="Path" fill="#2C0F6B"></path>
                    <path d="M110.377,108.2 C110.11,108.2 109.899,107.98 109.899,107.71 C109.899,107.62 109.909,105.66 108.378,105.57 C106.522,105.47 103.853,107.16 103.824,107.18 C103.604,107.33 103.308,107.26 103.164,107.04 C103.021,106.82 103.088,106.52 103.308,106.38 C103.432,106.3 106.273,104.48 108.435,104.62 C110.397,104.73 110.875,106.7 110.856,107.73 C110.856,107.99 110.636,108.2 110.377,108.2 Z" id="Path" fill="#2C0F6B"></path>
                    <path d="M140.761,172.11 C140.493,172.11 140.283,171.9 140.283,171.63 L140.283,111.69 C140.283,111.42 140.493,111.21 140.761,111.21 C141.029,111.21 141.239,111.42 141.239,111.69 L141.239,171.63 C141.239,171.9 141.019,172.11 140.761,172.11 Z" id="Path" fill="#2C0F6B"></path>
                    <polygon id="Path" fill="#C2B6D6" points="145.506 109.96 100.007 109.77 100.007 111.31 145.478 111.31"></polygon>
                    <path d="M145.477,111.78 L99.998,111.78 C99.73,111.78 99.519,111.57 99.519,111.31 L99.519,109.77 C99.519,109.65 99.567,109.53 99.663,109.44 C99.749,109.35 99.883,109.27 99.998,109.3 L145.497,109.48 C145.621,109.48 145.745,109.53 145.831,109.62 C145.918,109.72 145.975,109.83 145.965,109.97 L145.946,111.31 C145.956,111.57 145.745,111.78 145.477,111.78 Z M100.485,110.83 L145.009,110.83 L145.018,110.43 L100.485,110.26 L100.485,110.83 Z" id="Shape" fill="#2C0F6B"></path>
                    <path d="M130.362,171.64 C130.228,171.64 130.104,171.58 130.008,171.49 C129.913,171.38 120.336,160.72 114.539,147.44 C114.434,147.2 114.548,146.91 114.788,146.81 C115.027,146.7 115.314,146.82 115.419,147.06 C120.652,159.05 129.004,168.9 130.487,170.59 L136.303,168.03 C136.667,167.87 137.231,167.54 137.336,167.27 C137.154,166.84 135.949,166.36 134.925,166.13 C134.744,166.09 134.6,165.95 134.562,165.77 C134.533,165.64 131.816,153 127.081,143.34 C122.154,133.3 110.339,122.06 105.106,118.6 C99.156,114.65 100.533,111.39 100.6,111.25 C100.706,111.01 100.992,110.9 101.232,111.01 C101.471,111.11 101.576,111.4 101.471,111.64 C101.461,111.66 100.419,114.35 105.632,117.79 C110.942,121.31 122.938,132.72 127.942,142.91 C132.323,151.85 134.992,163.29 135.433,165.26 C136.169,165.45 137.776,165.95 138.188,166.75 C138.322,167.02 138.331,167.32 138.226,167.6 C137.949,168.33 136.887,168.8 136.676,168.9 L130.544,171.59 C130.496,171.62 130.429,171.64 130.362,171.64 Z" id="Path" fill="#2C0F6B"></path>
                    <path d="M128.698,169.56 C128.525,169.56 128.363,169.47 128.277,169.31 C128.152,169.08 128.238,168.78 128.468,168.66 L134.801,165.24 C135.031,165.12 135.327,165.2 135.452,165.43 C135.576,165.66 135.49,165.96 135.26,166.08 L128.927,169.5 C128.86,169.54 128.774,169.56 128.698,169.56 Z" id="Path" fill="#2C0F6B"></path>
                    <path d="M115.869,172.13 L108.837,172.13 C108.627,172.13 108.445,172 108.378,171.8 C108.359,171.74 106.618,166.24 105.135,159.48 C104.035,154.46 103.365,150.03 103.126,146.31 C103.126,146.3 103.126,146.21 103.126,146.2 C103.011,144.28 103.011,142.54 103.126,141.04 C102.609,140.51 100.753,138.73 98.352,137.22 C97.893,136.93 97.424,136.64 96.936,136.33 C92.976,133.86 88.489,131.06 86.509,127.63 C86.289,127.26 86.097,126.87 85.935,126.44 C84.509,122.74 84.26,119.19 85.169,115.59 C85.341,114.9 85.533,114.31 85.695,113.8 C85.896,113.18 86.097,112.55 86.049,112.34 C85.982,112.08 86.145,111.82 86.394,111.75 C86.652,111.69 86.91,111.85 86.977,112.1 C87.092,112.57 86.901,113.17 86.604,114.08 C86.451,114.57 86.26,115.14 86.097,115.81 C85.236,119.21 85.475,122.57 86.824,126.08 C86.968,126.46 87.13,126.79 87.322,127.12 C89.187,130.36 93.569,133.09 97.434,135.5 C97.922,135.81 98.4,136.1 98.859,136.39 C101.796,138.24 103.872,140.42 103.958,140.51 C104.054,140.61 104.102,140.75 104.092,140.89 C103.958,142.39 103.949,144.16 104.073,146.16 C104.073,146.17 104.073,146.25 104.073,146.26 C104.303,149.91 104.972,154.29 106.063,159.26 C107.326,165.02 108.78,169.87 109.182,171.15 L115.859,171.15 C116.223,171.15 116.653,171.08 116.816,170.99 C116.682,170.71 116.05,170.03 115.371,169.44 C115.256,169.35 115.199,169.21 115.199,169.07 C115.199,169 115.381,162.61 114.998,154.6 C114.893,152.53 114.768,150.51 114.615,148.61 C113.764,137.89 108.923,130.38 105.049,127.2 C102.207,124.88 99.978,122.17 98.897,120.78 C98.476,120.22 98.237,119.89 98.237,119.89 C98.084,119.67 98.142,119.37 98.362,119.22 C98.582,119.06 98.878,119.12 99.031,119.34 C99.031,119.35 99.261,119.67 99.663,120.19 C100.715,121.56 102.896,124.2 105.661,126.46 C109.689,129.76 114.692,137.52 115.572,148.53 C115.725,150.44 115.859,152.47 115.955,154.56 C116.29,161.76 116.184,167.65 116.156,168.87 C116.835,169.46 117.782,170.42 117.782,171.05 C117.811,172.06 116.328,172.13 115.869,172.13 Z" id="Path" fill="#2C0F6B"></path>
                    <path d="M115.696,169.59 L108.043,169.59 C107.775,169.59 107.565,169.37 107.565,169.11 C107.565,168.84 107.775,168.63 108.043,168.63 L115.696,168.63 C115.964,168.63 116.175,168.84 116.175,169.11 C116.175,169.37 115.964,169.59 115.696,169.59 Z" id="Path" fill="#2C0F6B"></path>
                    <path d="M108.454,172.11 C108.187,172.11 107.976,171.9 107.976,171.63 L107.976,111.69 C107.976,111.42 108.187,111.21 108.454,111.21 C108.722,111.21 108.933,111.42 108.933,111.69 L108.933,171.63 C108.933,171.9 108.713,172.11 108.454,172.11 Z" id="Path" fill="#2C0F6B"></path>
                    <path d="M125.56,110.21 C125.292,110.21 125.081,110 125.081,109.74 L125.081,108.88 L102.925,108.88 L102.925,109.62 C102.925,109.89 102.715,110.1 102.447,110.1 C102.179,110.1 101.968,109.89 101.968,109.62 L101.968,108.41 C101.968,108.14 102.179,107.93 102.447,107.93 L125.56,107.93 C125.828,107.93 126.038,108.14 126.038,108.41 L126.038,109.74 C126.038,110 125.818,110.21 125.56,110.21 Z" id="Path" fill="#2C0F6B"></path>
                    <polygon id="Path" fill="#2C0F6B" points="126.067 107.82 119.15 107.82 119.15 109.5 126.067 109.5"></polygon>
                    <polygon id="Path" fill="#2C0F6B" points="124.039 102.9 121.044 102.9 121.044 108.35 124.039 108.35"></polygon>
                    <path d="M110.913,85.81 L133.998,85.81 C134.505,85.81 134.916,86.22 134.916,86.73 L134.916,102.23 C134.916,102.73 134.505,103.14 133.998,103.14 L110.913,103.14 C110.406,103.14 109.995,102.73 109.995,102.23 L109.995,86.73 C109.995,86.22 110.406,85.81 110.913,85.81 Z" id="Path" fill="#C2B6D6"></path>
                    <path d="M133.988,103.62 L110.904,103.62 C110.138,103.62 109.507,103 109.507,102.23 L109.507,86.73 C109.507,85.96 110.129,85.33 110.904,85.33 L133.988,85.33 C134.753,85.33 135.385,85.95 135.385,86.73 L135.385,102.23 C135.385,102.99 134.763,103.62 133.988,103.62 Z M110.913,86.29 C110.674,86.29 110.473,86.49 110.473,86.73 L110.473,102.23 C110.473,102.47 110.674,102.67 110.913,102.67 L133.998,102.67 C134.237,102.67 134.438,102.47 134.438,102.23 L134.438,86.73 C134.438,86.49 134.237,86.29 133.998,86.29 L110.913,86.29 Z" id="Shape" fill="#2C0F6B"></path>
                    <path d="M91.895,92.71 C91.627,92.71 91.416,92.5 91.416,92.23 L91.416,87.97 C91.416,87.7 91.627,87.49 91.895,87.49 C92.162,87.49 92.373,87.7 92.373,87.97 L92.373,92.23 C92.373,92.49 92.153,92.71 91.895,92.71 Z" id="Path" fill="#2C0F6B"></path>
                    <path d="M93.31,83.05 C93.31,83.05 94.803,83.57 96.391,83.7 C97.979,83.82 99.012,83.52 99.012,83.52 C99.012,83.52 99.156,80.25 95.233,79.57 C91.187,78.87 90.153,82.05 90.153,82.05 C90.153,82.05 88.977,84.77 90.297,86.38 C91.875,88.31 91.885,88.91 91.885,88.91 C91.885,88.91 92.344,87.07 91.569,86.64 C90.871,86.26 90.412,85.46 90.823,84.67 C91.081,84.17 91.608,84.09 91.856,84.31 C92.172,84.59 92.115,85.34 92.134,85.06 C92.249,83.52 92.899,82.93 93.31,83.05 Z" id="Path" fill="#2C0F6B"></path>
                    <path d="M91.895,89.16 C91.885,89.16 91.875,89.16 91.866,89.16 C91.742,89.15 91.655,89.04 91.655,88.92 C91.655,88.92 91.569,88.31 90.125,86.54 C88.728,84.83 89.895,82.07 89.943,81.95 C89.943,81.95 91.081,78.61 95.281,79.33 C99.366,80.03 99.261,83.5 99.261,83.52 C99.261,83.63 99.184,83.72 99.089,83.74 C99.041,83.75 97.998,84.04 96.381,83.93 C94.841,83.81 93.406,83.32 93.253,83.27 C93.196,83.26 93.119,83.28 93.033,83.33 C92.909,83.43 92.478,83.82 92.392,85.08 C92.382,85.21 92.277,85.36 92.143,85.36 C92.019,85.36 91.914,85.24 91.904,85.11 C91.875,84.67 91.761,84.53 91.713,84.49 C91.655,84.44 91.56,84.42 91.464,84.44 C91.292,84.47 91.148,84.6 91.043,84.79 C90.699,85.45 91.11,86.12 91.694,86.44 C92.603,86.94 92.172,88.77 92.124,88.98 C92.095,89.08 92,89.16 91.895,89.16 Z M94.143,79.72 C91.206,79.72 90.393,82.1 90.393,82.13 C90.373,82.17 89.283,84.76 90.498,86.23 C91.158,87.03 91.56,87.62 91.789,88.04 C91.818,87.55 91.77,87.03 91.474,86.86 C90.689,86.43 90.144,85.5 90.632,84.57 C90.794,84.25 91.072,84.03 91.388,83.97 C91.636,83.93 91.875,83.98 92.038,84.14 C92.048,84.15 92.057,84.16 92.067,84.16 C92.21,83.59 92.459,83.17 92.765,82.95 C92.966,82.81 93.186,82.76 93.387,82.81 C93.397,82.81 93.397,82.81 93.406,82.82 C93.425,82.83 94.889,83.33 96.429,83.46 C97.577,83.54 98.438,83.41 98.792,83.33 C98.754,82.66 98.4,80.36 95.214,79.81 C94.812,79.74 94.468,79.72 94.143,79.72 Z" id="Shape" fill="#2C0F6B"></path>
                    <path d="M94.325,95.78 C94.191,95.78 94.057,95.72 93.961,95.62 L91.388,92.66 L90.814,93.71 C90.689,93.94 90.393,94.03 90.163,93.9 C89.933,93.78 89.847,93.48 89.972,93.25 L90.871,91.59 C90.948,91.45 91.081,91.36 91.244,91.34 C91.397,91.32 91.55,91.38 91.655,91.5 L94.258,94.5 L95.807,92.05 C95.951,91.83 96.247,91.76 96.467,91.89 C96.688,92.04 96.754,92.33 96.621,92.55 L94.726,95.55 C94.65,95.67 94.506,95.76 94.363,95.77 C94.344,95.78 94.334,95.78 94.325,95.78 Z" id="Path" fill="#2C0F6B"></path>
                    <path d="M82.337,104.66 C82.089,104.66 81.888,104.47 81.859,104.23 C81.84,104.03 81.352,99.23 83.275,96.12 C85.571,92.41 90.651,92.11 90.861,92.09 C91.12,92.07 91.349,92.28 91.368,92.54 C91.388,92.8 91.177,93.02 90.919,93.04 C90.871,93.04 86.126,93.35 84.088,96.62 C82.653,98.94 82.711,102.47 82.778,103.68 L88.9,103.59 C89.178,103.58 89.379,103.81 89.388,104.06 C89.398,104.32 89.178,104.54 88.919,104.55 L82.337,104.66 Z" id="Path" fill="#2C0F6B"></path>
                    <path d="M94.277,98.54 C94.009,98.54 93.798,98.33 93.798,98.07 L93.798,96.81 C93.798,96.54 94.009,96.33 94.277,96.33 C94.545,96.33 94.755,96.54 94.755,96.81 L94.755,98.07 C94.755,98.33 94.535,98.54 94.277,98.54 Z" id="Path" fill="#2C0F6B"></path>
                    <path d="M94.277,101.71 C94.009,101.71 93.798,101.5 93.798,101.23 L93.798,99.98 C93.798,99.71 94.009,99.5 94.277,99.5 C94.545,99.5 94.755,99.71 94.755,99.98 L94.755,101.23 C94.755,101.49 94.535,101.71 94.277,101.71 Z" id="Path" fill="#2C0F6B"></path>
                    <path d="M94.277,105.08 C94.009,105.08 93.798,104.87 93.798,104.6 L93.798,103.35 C93.798,103.08 94.009,102.87 94.277,102.87 C94.545,102.87 94.755,103.08 94.755,103.35 L94.755,104.6 C94.755,104.87 94.535,105.08 94.277,105.08 Z" id="Path" fill="#2C0F6B"></path>
                    <path d="M88.671,107.57 C88.403,107.57 88.192,107.36 88.192,107.1 L88.192,104.08 C88.192,103.81 88.403,103.6 88.671,103.6 C88.939,103.6 89.149,103.81 89.149,104.08 L89.149,107.1 C89.149,107.36 88.929,107.57 88.671,107.57 Z" id="Path" fill="#2C0F6B"></path>
                    <path d="M103.614,171.9 L77.573,171.9 C77.305,171.9 77.095,171.69 77.095,171.42 L77.095,136.39 C77.095,136.34 77.105,136.29 77.114,136.25 C77.152,136.12 78.128,132.9 80.931,130.19 C82.596,128.56 84.586,127.46 86.834,126.93 C87.121,126.86 87.427,127.09 87.427,127.4 C87.427,127.64 87.255,127.84 87.016,127.87 C84.949,128.37 83.122,129.39 81.591,130.88 C79.181,133.2 78.195,136.02 78.052,136.47 L78.052,170.94 L103.135,170.94 L103.135,146.28 C103.135,146.01 103.346,145.76 103.614,145.76 C103.882,145.76 104.092,145.95 104.092,146.2 L104.092,171.41 C104.092,171.68 103.882,171.9 103.614,171.9 Z" id="Path" fill="#2C0F6B"></path>
                    <path d="M26.124,158.3 C26.124,158.3 25.33,156.08 26.947,155.46 C28.563,154.83 30.295,156.49 30.295,156.49 C30.295,156.49 29.788,155.31 30.917,154.63 C32.046,153.95 33.031,155.16 33.031,155.16 C33.031,155.16 32.457,154.44 33.127,154.08 C33.796,153.71 34.303,154.49 34.303,154.49 C34.303,154.49 30.094,149.65 33.127,146.88 C34.456,145.67 36.724,146.45 38.178,147.95 C40.053,149.87 40.99,152.83 40.99,152.83 C40.99,152.83 40.77,151.31 42.119,151.2 C43.487,151.07 43.42,152.86 43.42,152.86 C43.42,152.86 43.803,151.13 45.133,151.29 C46.807,151.5 46.338,153.41 46.338,153.41 C46.338,153.41 47.563,146.84 51.131,146.38 C54.69,145.92 54.958,153.24 54.958,153.24 C54.958,153.24 55.034,151.79 56.737,151.6 C58.45,151.41 58.45,153.24 58.45,153.24 C58.45,153.24 58.784,151.55 60.516,152.01 C62.257,152.47 61.358,154.66 61.358,154.66 C61.358,154.66 61.769,153.55 62.975,153.53 C64.18,153.51 64.343,154.85 64.343,154.85 C64.343,154.85 65.299,149.47 68.82,150.38 C71.996,151.2 69.853,155.14 69.853,155.14 C69.853,155.14 70.695,153.87 71.852,154.35 C73.01,154.82 72.474,156.15 72.474,156.15 C72.474,156.15 73.345,154.9 74.302,155.17 C75.507,155.5 75.268,156.8 75.268,156.8 C75.268,156.8 76.951,156.09 77.095,158.3" id="Path" fill="#C2B6D6"></path>
                    <path d="M77.114,158.78 C76.865,158.78 76.655,158.58 76.636,158.33 C76.607,157.94 76.521,157.45 76.215,157.25 C75.918,157.06 75.469,157.24 75.469,157.24 C75.306,157.31 75.115,157.28 74.981,157.18 C74.847,157.06 74.78,156.89 74.809,156.72 C74.837,156.57 74.923,155.83 74.187,155.63 C73.68,155.49 73.058,156.17 72.876,156.43 C72.742,156.63 72.474,156.69 72.254,156.57 C72.044,156.46 71.948,156.2 72.034,155.97 C72.092,155.83 72.34,155.06 71.671,154.79 C70.896,154.47 70.284,155.37 70.255,155.41 C70.111,155.62 69.824,155.69 69.614,155.55 C69.394,155.42 69.317,155.14 69.442,154.92 C69.729,154.38 70.379,152.78 69.939,151.76 C69.738,151.3 69.336,151.01 68.705,150.84 C68.026,150.66 67.433,150.75 66.897,151.09 C65.338,152.1 64.821,154.91 64.811,154.94 C64.773,155.17 64.563,155.34 64.323,155.33 C64.084,155.32 63.893,155.15 63.864,154.91 C63.855,154.81 63.74,153.97 62.975,154 C62.171,154.02 61.855,154.69 61.807,154.81 C61.798,154.81 61.798,154.82 61.798,154.83 C61.702,155.07 61.425,155.2 61.186,155.1 C60.946,155.01 60.822,154.74 60.908,154.49 C60.908,154.49 60.908,154.48 60.918,154.46 C61.023,154.18 61.243,153.4 60.994,152.91 C60.889,152.69 60.688,152.55 60.392,152.47 C59.999,152.37 59.684,152.39 59.435,152.54 C59.024,152.79 58.909,153.32 58.909,153.33 C58.861,153.57 58.622,153.72 58.392,153.7 C58.153,153.68 57.962,153.48 57.962,153.23 C57.962,153.05 57.885,152.53 57.579,152.25 C57.388,152.09 57.129,152.02 56.785,152.06 C55.493,152.2 55.426,153.2 55.426,153.25 C55.417,153.5 55.206,153.7 54.948,153.7 C54.69,153.7 54.479,153.5 54.47,153.25 C54.47,153.2 54.288,148.72 52.556,147.25 C52.155,146.9 51.705,146.77 51.179,146.84 C48.242,147.21 46.998,152.53 46.816,153.37 C46.807,153.44 46.797,153.48 46.788,153.5 C46.73,153.75 46.472,153.92 46.223,153.86 C45.975,153.8 45.802,153.56 45.85,153.3 C45.85,153.28 45.86,153.25 45.879,153.18 C45.917,152.92 45.946,152.41 45.726,152.1 C45.592,151.91 45.372,151.79 45.066,151.75 C44.167,151.63 43.889,152.93 43.88,152.95 C43.822,153.19 43.602,153.35 43.353,153.32 C43.105,153.29 42.923,153.08 42.932,152.83 C42.942,152.64 42.894,152.05 42.617,151.79 C42.55,151.72 42.416,151.64 42.148,151.66 C41.909,151.68 41.746,151.75 41.631,151.9 C41.421,152.16 41.43,152.6 41.45,152.76 C41.478,153.01 41.325,153.24 41.076,153.28 C40.837,153.34 40.589,153.2 40.522,152.96 C40.512,152.93 39.594,150.08 37.824,148.26 C36.542,146.95 34.552,146.2 33.433,147.22 C31.089,149.36 33.806,153.09 34.495,153.97 C34.571,154.06 34.638,154.14 34.686,154.21 C34.82,154.42 34.772,154.7 34.571,154.85 C34.37,155.01 34.083,154.98 33.921,154.79 C33.901,154.77 33.844,154.7 33.758,154.59 C33.653,154.5 33.49,154.39 33.327,154.48 C33.241,154.6 33.318,154.77 33.375,154.84 C33.538,155.04 33.509,155.35 33.299,155.51 C33.088,155.68 32.792,155.65 32.629,155.45 C32.6,155.41 31.883,154.58 31.127,155.03 C30.362,155.47 30.687,156.25 30.697,156.28 C30.783,156.49 30.716,156.73 30.534,156.86 C30.343,157 30.094,156.97 29.931,156.81 C29.912,156.79 28.401,155.37 27.09,155.88 C25.932,156.33 26.526,158.04 26.545,158.12 C26.631,158.36 26.506,158.64 26.258,158.73 C26.009,158.81 25.741,158.69 25.645,158.44 C25.32,157.52 25.119,155.62 26.746,155 C27.855,154.57 28.965,155.02 29.711,155.47 C29.807,155.02 30.065,154.56 30.649,154.21 C31.28,153.84 31.902,153.9 32.409,154.12 C32.486,153.95 32.629,153.78 32.887,153.65 C32.935,153.62 32.983,153.6 33.031,153.58 C31.902,151.86 30.41,148.69 32.792,146.52 C34.389,145.06 36.934,145.98 38.513,147.6 C39.632,148.75 40.426,150.23 40.904,151.29 C41.182,150.95 41.584,150.75 42.081,150.71 C42.559,150.66 42.98,150.81 43.296,151.1 C43.411,151.22 43.506,151.34 43.583,151.48 C43.946,151.05 44.482,150.73 45.19,150.82 C45.774,150.89 46.147,151.14 46.376,151.39 C47.056,149.3 48.491,146.24 51.064,145.91 C51.858,145.8 52.566,146.01 53.178,146.54 C54.518,147.68 55.063,150.09 55.283,151.69 C55.618,151.42 56.067,151.21 56.68,151.13 C57.464,151.05 57.952,151.31 58.22,151.56 C58.373,151.7 58.488,151.85 58.583,152.01 C58.679,151.92 58.794,151.82 58.918,151.74 C59.397,151.45 59.971,151.38 60.631,151.55 C61.195,151.71 61.616,152.03 61.846,152.49 C61.97,152.74 62.027,153 62.047,153.26 C62.295,153.14 62.592,153.05 62.946,153.05 C63.472,153.05 63.893,153.25 64.19,153.52 C64.544,152.47 65.204,151.04 66.361,150.29 C67.127,149.8 67.988,149.67 68.925,149.92 C69.843,150.16 70.475,150.64 70.8,151.38 C71.135,152.16 71.049,153.07 70.858,153.83 C71.211,153.73 71.604,153.73 72.025,153.92 C72.589,154.15 72.876,154.56 73,155 C73.393,154.74 73.89,154.57 74.426,154.72 C75.325,154.97 75.66,155.64 75.746,156.23 C76.033,156.21 76.377,156.26 76.693,156.46 C77.219,156.78 77.506,157.4 77.564,158.29 C77.583,158.56 77.382,158.78 77.114,158.79 C77.133,158.78 77.124,158.78 77.114,158.78 Z" id="Path" fill="#2C0F6B"></path>
                    <path d="M77.573,171.9 L24.536,171.9 C24.268,171.9 24.057,171.69 24.057,171.42 L24.057,158.3 C24.057,158.03 24.268,157.82 24.536,157.82 L77.525,157.82 C77.793,157.82 78.004,158.03 78.004,158.3 L78.052,171.42 C78.052,171.55 78.004,171.67 77.908,171.76 C77.822,171.84 77.698,171.9 77.573,171.9 Z M25.014,170.94 L77.095,170.94 L77.047,158.78 L25.014,158.78 L25.014,170.94 Z" id="Shape" fill="#2C0F6B"></path>
                    <path d="M111.994,40.88 L111.994,62.74 C111.994,66.08 114.702,68.79 118.04,68.79 L149.429,68.79 L158,68.79 L191.053,68.79 C194.392,68.79 197.099,66.08 197.099,62.74 L197.099,20.43 C197.099,17.09 194.392,14.39 191.053,14.39 L175.612,14.39" id="Path" fill="#F8F8FB"></path>
                    <path d="M177.459,14.4 L118.05,14.4 C114.712,14.4 112.004,17.1 112.004,20.44 L112.004,44.96" id="Path" fill="#F8F8FB"></path>
                    <path d="M111.994,40.88 L111.994,62.74 C111.994,66.08 114.702,68.79 118.04,68.79 L127.416,68.79 L127.234,75.19 L138.561,68.79 L149.429,68.79 L158,68.79 L170.992,68.79 L182.74,75.26 L183.036,68.79 L191.044,68.79 C194.382,68.79 197.09,66.08 197.09,62.74 L197.09,20.43 C197.09,17.09 194.382,14.39 191.044,14.39 L175.603,14.39" id="Path" fill="#FFFFFF"></path>
                    <path d="M111.994,38.73 C111.726,38.73 111.516,38.52 111.516,38.25 L111.516,36.54 C111.516,36.27 111.726,36.06 111.994,36.06 C112.262,36.06 112.472,36.27 112.472,36.54 L112.472,38.25 C112.472,38.51 112.262,38.73 111.994,38.73 Z" id="Path" fill="#2C0F6B"></path>
                    <path d="M111.994,33.55 C111.726,33.55 111.516,33.34 111.516,33.07 L111.516,20.44 C111.516,16.84 114.443,13.92 118.04,13.92 L149.658,13.92 C149.926,13.92 150.136,14.13 150.136,14.4 C150.136,14.66 149.926,14.87 149.658,14.87 L118.04,14.87 C114.969,14.87 112.472,17.37 112.472,20.44 L112.472,33.07 C112.472,33.33 112.262,33.55 111.994,33.55 Z" id="Path" fill="#2C0F6B"></path>
                    <path d="M133.414,34.19 C132.381,34.19 131.481,33.83 131.089,33.38 C131.003,33.29 131.013,33.14 131.108,33.05 C131.204,32.96 131.357,32.97 131.443,33.07 C131.864,33.55 133.108,33.88 134.285,33.61 C135.222,33.4 136.456,32.76 136.982,30.9 C137.891,27.71 135.499,22.48 135.471,22.42 C135.413,22.3 135.471,22.16 135.586,22.11 C135.71,22.05 135.844,22.11 135.901,22.22 C136.006,22.44 138.389,27.67 137.441,31.02 C136.973,32.66 135.892,33.74 134.39,34.08 C134.064,34.15 133.73,34.19 133.414,34.19 Z" id="Path" fill="#2C0F6B"></path>
                    <path d="M133.854,29.73 C133.758,29.73 133.663,29.67 133.634,29.58 C133.586,29.45 133.653,29.32 133.777,29.27 C133.892,29.23 133.911,29.18 133.911,29.17 C133.969,29 133.768,28.62 133.596,28.28 L133.452,28.01 C133.117,27.35 132.897,26.62 132.888,26.59 C132.849,26.47 132.916,26.33 133.05,26.3 C133.175,26.26 133.309,26.32 133.347,26.46 C133.347,26.47 133.567,27.18 133.883,27.8 L134.017,28.06 C134.275,28.54 134.495,28.97 134.361,29.34 C134.294,29.51 134.151,29.63 133.95,29.72 C133.911,29.73 133.883,29.73 133.854,29.73 Z" id="Path" fill="#2C0F6B"></path>
                    <path d="M131.08,28.15 C130.974,28.15 130.879,28.08 130.85,27.97 L130.506,26.65 C130.467,26.53 130.544,26.39 130.678,26.35 C130.802,26.32 130.936,26.39 130.974,26.53 L131.319,27.85 C131.357,27.97 131.281,28.1 131.147,28.14 C131.118,28.15 131.099,28.15 131.08,28.15 Z" id="Path" fill="#2C0F6B"></path>
                    <path d="M134.916,26.9 C134.811,26.9 134.715,26.83 134.686,26.72 L134.361,25.46 C134.323,25.34 134.399,25.21 134.533,25.17 C134.658,25.13 134.792,25.21 134.83,25.34 L135.155,26.59 C135.193,26.72 135.117,26.85 134.983,26.89 C134.954,26.9 134.935,26.9 134.916,26.9 Z" id="Path" fill="#2C0F6B"></path>
                    <path d="M129.3,26.31 C129.272,26.31 129.252,26.31 129.224,26.31 C129.099,26.27 129.032,26.12 129.071,26 C129.453,24.84 130.467,24.61 130.955,24.64 C131.089,24.65 131.185,24.77 131.175,24.9 C131.166,25.03 131.06,25.13 130.917,25.12 C130.879,25.11 129.884,25.07 129.52,26.15 C129.492,26.26 129.396,26.31 129.3,26.31 Z" id="Path" fill="#2C0F6B"></path>
                    <path d="M135.337,24.47 C135.279,24.47 135.212,24.45 135.174,24.4 C134.6,23.85 133.94,24.34 133.911,24.36 C133.806,24.44 133.653,24.43 133.577,24.33 C133.5,24.22 133.519,24.07 133.615,23.99 C133.969,23.72 134.811,23.39 135.499,24.07 C135.595,24.16 135.595,24.31 135.499,24.4 C135.461,24.44 135.394,24.47 135.337,24.47 Z" id="Path" fill="#2C0F6B"></path>
                    <path d="M133.433,31.36 C133.003,31.36 132.505,31.2 132.055,30.75 C131.96,30.66 131.96,30.51 132.055,30.42 C132.151,30.32 132.304,30.32 132.39,30.42 C133.232,31.27 134.141,30.7 134.179,30.68 C134.294,30.6 134.438,30.64 134.514,30.74 C134.591,30.86 134.552,31 134.447,31.08 C134.227,31.21 133.854,31.36 133.433,31.36 Z" id="Path" fill="#2C0F6B"></path>
                    <path d="M133.777,38.14 C133.51,38.14 133.299,37.93 133.299,37.66 L133.299,34.35 C133.299,34.08 133.51,33.87 133.777,33.87 C134.045,33.87 134.256,34.08 134.256,34.35 L134.256,37.66 C134.256,37.92 134.036,38.14 133.777,38.14 Z" id="Path" fill="#2C0F6B"></path>
                    <path d="M146.846,46.25 C146.635,46.25 146.444,46.12 146.386,45.91 C143.822,36.8 134.189,36.9 133.787,36.91 C133.529,36.9 133.309,36.7 133.299,36.44 C133.29,36.17 133.5,35.96 133.768,35.95 C133.873,35.94 144.55,35.81 147.314,45.65 C147.381,45.91 147.238,46.17 146.979,46.24 C146.932,46.24 146.893,46.25 146.846,46.25 Z" id="Path" fill="#2C0F6B"></path>
                    <path d="M140.015,69.26 C139.747,69.26 139.537,69.05 139.537,68.78 L139.537,50.59 C139.537,50.32 139.747,50.11 140.015,50.11 C140.283,50.11 140.493,50.32 140.493,50.59 L140.493,68.78 C140.493,69.04 140.283,69.26 140.015,69.26 Z" id="Path" fill="#2C0F6B"></path>
                    <path d="M128.037,23.66 C128.037,23.66 130.4,23.86 132.735,23.43 C135.069,23 136.466,22.18 136.466,22.18 C136.466,22.18 135.432,17.4 129.501,17.91 C123.388,18.43 123.101,23.42 123.101,23.42 C123.101,23.42 122.431,27.8 124.957,29.62 C127.97,31.81 127.31,32.7 127.31,32.7 C127.31,32.7 128.181,29.85 126.899,29.53 C125.741,29.23 124.775,28.25 125.072,26.96 C125.254,26.14 125.981,25.82 126.43,26.04 C126.985,26.31 127.291,27.26 127.215,26.85 C126.794,24.57 127.406,23.66 128.037,23.66 Z" id="Path" fill="#2C0F6B"></path>
                    <path d="M127.31,32.94 C127.272,32.94 127.234,32.94 127.205,32.92 C127.1,32.86 127.052,32.74 127.081,32.63 C127.1,32.58 127.109,32.51 127.129,32.45 C127.129,32.17 126.909,31.35 124.813,29.83 C122.202,27.93 122.833,23.57 122.862,23.39 C122.862,23.36 123.225,18.22 129.482,17.68 C135.557,17.15 136.686,22.09 136.695,22.13 C136.714,22.24 136.676,22.34 136.58,22.39 C136.523,22.43 135.126,23.22 132.773,23.66 C130.486,24.09 128.219,23.91 128.018,23.89 C127.884,23.89 127.76,23.96 127.645,24.1 C127.473,24.31 127.1,24.99 127.444,26.82 C127.463,26.9 127.502,27.12 127.301,27.19 C127.1,27.26 126.995,27.09 126.928,26.96 C126.822,26.77 126.593,26.39 126.315,26.26 C126.181,26.19 126,26.2 125.837,26.28 C125.569,26.4 125.378,26.67 125.301,27.01 C125.033,28.17 125.933,29.04 126.956,29.3 C127.243,29.37 127.463,29.54 127.607,29.81 C128.037,30.56 127.75,31.95 127.607,32.51 C127.588,32.71 127.521,32.81 127.502,32.84 C127.463,32.91 127.387,32.94 127.31,32.94 Z M130.381,18.12 C130.113,18.12 129.826,18.13 129.53,18.15 C123.685,18.66 123.35,23.4 123.35,23.44 C123.34,23.51 122.728,27.72 125.1,29.44 C126.344,30.34 126.995,31.04 127.32,31.57 C127.396,31.01 127.406,30.4 127.205,30.05 C127.119,29.89 127.004,29.81 126.851,29.77 C125.607,29.45 124.517,28.37 124.852,26.92 C124.967,26.43 125.254,26.05 125.655,25.86 C125.961,25.71 126.287,25.7 126.555,25.84 C126.679,25.89 126.784,25.98 126.88,26.08 C126.784,25.02 126.928,24.24 127.301,23.79 C127.511,23.54 127.789,23.41 128.066,23.42 C128.085,23.42 130.42,23.61 132.706,23.19 C134.533,22.85 135.777,22.28 136.198,22.06 C135.959,21.27 134.753,18.12 130.381,18.12 Z" id="Shape" fill="#2C0F6B"></path>
                    <path d="M127.31,36.79 C127.043,36.79 126.832,36.58 126.832,36.31 L126.832,30.97 C126.832,30.71 127.043,30.5 127.31,30.5 C127.578,30.5 127.789,30.71 127.789,30.97 L127.789,36.31 C127.789,36.57 127.578,36.79 127.31,36.79 Z" id="Path" fill="#2C0F6B"></path>
                    <path d="M130.946,41.37 C130.812,41.37 130.678,41.32 130.582,41.21 L126.516,36.53 L125.493,38.41 C125.368,38.64 125.072,38.72 124.842,38.6 C124.613,38.47 124.526,38.18 124.651,37.95 L126,35.47 C126.076,35.34 126.21,35.24 126.373,35.22 C126.535,35.2 126.679,35.26 126.784,35.38 L130.879,40.1 L133.366,36.17 C133.51,35.95 133.806,35.88 134.026,36.02 C134.246,36.16 134.313,36.46 134.179,36.68 L131.357,41.15 C131.281,41.28 131.137,41.36 130.994,41.37 C130.974,41.37 130.965,41.37 130.946,41.37 Z" id="Path" fill="#2C0F6B"></path>
                    <path d="M113.037,54.65 C112.836,54.65 112.664,54.53 112.587,54.35 C112.482,54.07 110.004,47.47 112.874,42.83 C116.232,37.4 125.387,36.39 125.77,36.35 C126.038,36.32 126.268,36.51 126.296,36.78 C126.325,37.04 126.134,37.28 125.866,37.31 C125.78,37.32 116.797,38.31 113.687,43.33 C111.401,47.03 112.932,52.36 113.372,53.69 L122.374,53.56 L122.374,49.67 C122.374,49.4 122.584,49.19 122.852,49.19 C123.12,49.19 123.331,49.4 123.331,49.67 L123.331,54.03 C123.331,54.29 123.12,54.51 122.862,54.51 L113.037,54.65 Z" id="Path" fill="#2C0F6B"></path>
                    <path d="M130.879,45.52 C130.611,45.52 130.4,45.3 130.4,45.04 L130.4,43.16 C130.4,42.89 130.611,42.68 130.879,42.68 C131.147,42.68 131.357,42.89 131.357,43.16 L131.357,45.04 C131.357,45.3 131.137,45.52 130.879,45.52 Z" id="Path" fill="#2C0F6B"></path>
                    <path d="M130.879,49.24 C130.611,49.24 130.4,49.03 130.4,48.76 L130.4,46.88 C130.4,46.62 130.611,46.41 130.879,46.41 C131.147,46.41 131.357,46.62 131.357,46.88 L131.357,48.76 C131.357,49.02 131.137,49.24 130.879,49.24 Z" id="Path" fill="#2C0F6B"></path>
                    <path d="M177.478,32.91 C176.005,32.91 174.732,32.13 173.9,30.73 C172.121,27.72 173.106,22.06 173.154,21.82 C173.173,21.68 173.297,21.61 173.431,21.63 C173.565,21.65 173.651,21.77 173.623,21.9 C173.613,21.96 172.628,27.64 174.311,30.49 C175.297,32.16 176.646,32.46 177.612,32.44 C178.817,32.4 179.937,31.76 180.224,31.18 C180.281,31.07 180.425,31.02 180.549,31.08 C180.664,31.14 180.712,31.28 180.654,31.4 C180.3,32.11 179.076,32.87 177.631,32.92 C177.583,32.91 177.526,32.91 177.478,32.91 Z" id="Path" fill="#2C0F6B"></path>
                    <path d="M176.98,28.57 C176.971,28.57 176.961,28.57 176.952,28.57 C176.732,28.55 176.56,28.47 176.454,28.31 C176.234,28 176.34,27.53 176.464,26.99 L176.531,26.71 C176.674,26.02 176.703,25.28 176.703,25.27 C176.713,25.14 176.827,25.04 176.952,25.04 C177.086,25.05 177.191,25.16 177.181,25.29 C177.181,25.32 177.153,26.08 177,26.8 L176.933,27.1 C176.847,27.47 176.751,27.9 176.847,28.04 C176.856,28.05 176.885,28.08 177,28.1 C177.134,28.11 177.229,28.24 177.21,28.36 C177.21,28.48 177.105,28.57 176.98,28.57 Z" id="Path" fill="#2C0F6B"></path>
                    <path d="M179.324,26.05 C179.19,26.05 179.085,25.94 179.085,25.81 L179.085,24.44 C179.085,24.31 179.19,24.2 179.324,24.2 C179.458,24.2 179.564,24.31 179.564,24.44 L179.564,25.81 C179.564,25.94 179.458,26.05 179.324,26.05 Z" id="Path" fill="#2C0F6B"></path>
                    <path d="M175.239,26.1 C175.105,26.1 175,26 175,25.87 L175,24.57 C175,24.44 175.105,24.33 175.239,24.33 C175.373,24.33 175.479,24.44 175.479,24.57 L175.479,25.87 C175.479,26 175.373,26.1 175.239,26.1 Z" id="Path" fill="#2C0F6B"></path>
                    <path d="M180.664,23.99 C180.587,23.99 180.511,23.95 180.463,23.89 C179.831,22.92 178.865,23.24 178.856,23.24 C178.731,23.29 178.597,23.22 178.549,23.09 C178.511,22.97 178.569,22.83 178.703,22.78 C179.162,22.62 180.204,22.59 180.865,23.62 C180.941,23.73 180.903,23.88 180.798,23.95 C180.75,23.98 180.702,23.99 180.664,23.99 Z" id="Path" fill="#2C0F6B"></path>
                    <path d="M174.225,23.91 C174.177,23.91 174.13,23.9 174.091,23.88 C173.986,23.8 173.948,23.66 174.024,23.54 C174.57,22.73 175.44,22.77 175.823,22.89 C175.947,22.94 176.014,23.07 175.966,23.2 C175.919,23.32 175.785,23.39 175.66,23.34 C175.632,23.33 174.885,23.09 174.407,23.8 C174.378,23.88 174.302,23.91 174.225,23.91 Z" id="Path" fill="#2C0F6B"></path>
                    <path d="M177.363,30.09 C177.153,30.09 176.961,30.06 176.818,30.02 C176.693,29.98 176.627,29.85 176.665,29.72 C176.703,29.6 176.837,29.53 176.961,29.57 C177.009,29.58 178.033,29.89 178.626,28.87 C178.693,28.75 178.836,28.72 178.951,28.78 C179.066,28.85 179.104,28.99 179.037,29.11 C178.597,29.88 177.899,30.09 177.363,30.09 Z" id="Path" fill="#2C0F6B"></path>
                    <path d="M183.199,32.4 C186.365,34.05 188.384,30.93 188.384,30.93 C185.724,31.36 187.14,24.15 184.892,20.03 C183.763,17.95 182.338,16.33 178.846,16.47 C171.968,16.76 172.953,22.7 172.953,22.7 C176.942,22.73 178.664,19.68 178.664,19.68 C178.664,19.68 182.041,20.43 182.52,24.71 C183.036,29.34 183.199,32.4 183.199,32.4 Z" id="Path" fill="#2C0F6B"></path>
                    <path d="M185.017,33.12 C184.433,33.12 183.782,32.97 183.084,32.61 C183.008,32.57 182.96,32.5 182.96,32.41 C182.96,32.38 182.787,29.3 182.28,24.72 C181.888,21.15 179.439,20.14 178.779,19.93 C178.349,20.58 176.569,22.92 172.963,22.92 C172.848,22.92 172.742,22.83 172.723,22.72 C172.704,22.61 172.322,20.18 173.852,18.3 C174.905,17.01 176.579,16.31 178.836,16.21 C182.28,16.08 183.84,17.58 185.103,19.9 C186.136,21.79 186.404,24.26 186.643,26.43 C186.853,28.36 187.035,30.03 187.695,30.53 C187.867,30.67 188.087,30.72 188.346,30.67 C188.441,30.65 188.537,30.7 188.585,30.77 C188.633,30.85 188.633,30.95 188.585,31.03 C188.575,31.08 187.226,33.12 185.017,33.12 Z M183.438,32.25 C185.696,33.35 187.303,31.88 187.915,31.16 C187.733,31.12 187.561,31.04 187.418,30.93 C186.595,30.29 186.413,28.62 186.174,26.5 C185.944,24.36 185.677,21.94 184.691,20.13 C183.486,17.92 182.08,16.57 178.865,16.7 C176.751,16.79 175.192,17.43 174.225,18.61 C173.068,20.04 173.116,21.85 173.173,22.45 C176.818,22.37 178.444,19.58 178.463,19.55 C178.511,19.46 178.626,19.42 178.722,19.44 C178.76,19.45 182.271,20.28 182.759,24.68 C183.208,28.72 183.4,31.6 183.438,32.25 Z" id="Shape" fill="#2C0F6B"></path>
                    <path d="M176.789,37.25 C176.521,37.25 176.311,37.04 176.311,36.77 L176.311,32.99 C176.311,32.72 176.521,32.51 176.789,32.51 C177.057,32.51 177.268,32.72 177.268,32.99 L177.268,36.77 C177.268,37.04 177.057,37.25 176.789,37.25 Z" id="Path" fill="#2C0F6B"></path>
                    <path d="M162.41,68.43 C162.162,68.43 161.951,68.23 161.932,67.98 C161.884,67.17 160.88,48.17 164.152,41.67 C167.05,35.93 176.33,34.63 176.722,34.57 C176.981,34.53 177.22,34.72 177.258,34.98 C177.296,35.24 177.105,35.49 176.847,35.52 C176.751,35.53 167.672,36.81 165.003,42.1 C161.836,48.37 162.87,67.73 162.879,67.93 C162.898,68.2 162.688,68.42 162.43,68.44 C162.43,68.43 162.42,68.43 162.41,68.43 Z" id="Path" fill="#2C0F6B"></path>
                    <path d="M176.933,42.65 C176.789,42.65 176.646,42.58 176.56,42.46 L175.584,41.22 C174.589,39.96 173.422,37.57 173.374,37.47 C173.259,37.23 173.355,36.94 173.594,36.83 C173.833,36.71 174.12,36.81 174.235,37.05 C174.244,37.07 175.412,39.45 176.34,40.64 L176.914,41.36 L178.808,38.61 C178.894,38.47 179.056,38.39 179.21,38.4 C179.372,38.4 179.516,38.48 179.602,38.62 L181.41,41.39 C182.252,40.62 184.222,38.68 185.303,36.36 C185.418,36.12 185.696,36.02 185.935,36.13 C186.174,36.25 186.279,36.52 186.165,36.76 C184.682,39.96 181.735,42.39 181.611,42.49 C181.506,42.58 181.372,42.62 181.238,42.6 C181.104,42.58 180.979,42.5 180.912,42.39 L179.2,39.75 L177.334,42.45 C177.248,42.58 177.105,42.66 176.952,42.66 C176.942,42.65 176.933,42.65 176.933,42.65 Z" id="Path" fill="#2C0F6B"></path>
                    <path d="M197.176,54.98 L188.288,54.98 C188.02,54.98 187.81,54.77 187.81,54.5 L187.781,47.72 C187.781,47.45 187.992,47.24 188.26,47.24 C188.556,47.24 188.738,47.45 188.738,47.72 L188.767,54.02 L196.822,54.02 C197.338,52.3 199.529,44.29 196.248,41.28 C192,37.37 183.515,36.34 183.428,36.33 C183.189,36.3 183.008,36.1 183.008,35.85 L183.008,32.29 C183.008,32.03 183.218,31.82 183.486,31.82 C183.754,31.82 183.964,32.03 183.964,32.29 L183.964,35.43 C185.791,35.69 192.928,36.92 196.889,40.57 C201.012,44.35 197.759,54.22 197.625,54.64 C197.558,54.84 197.377,54.98 197.176,54.98 Z" id="Path" fill="#2C0F6B"></path>
                    <path d="M169.318,53.05 C169.318,53.05 169.308,53.05 169.318,53.05 C169.05,53.05 168.839,52.83 168.839,52.57 L168.954,45.72 C168.954,45.46 169.174,45.25 169.432,45.25 L169.442,45.25 C169.71,45.25 169.92,45.47 169.911,45.74 L169.796,52.59 C169.796,52.84 169.576,53.05 169.318,53.05 Z" id="Path" fill="#2C0F6B"></path>
                    <path d="M193.234,68.9 C192.976,68.9 192.766,68.69 192.756,68.43 L192.641,63.18 C192.632,62.92 192.842,62.71 193.11,62.7 C193.387,62.71 193.588,62.9 193.598,63.17 L193.713,68.41 C193.722,68.68 193.512,68.89 193.244,68.9 L193.234,68.9 Z" id="Path" fill="#2C0F6B"></path>
                    <path d="M115.783,68.4 C115.524,68.4 115.304,68.19 115.304,67.92 L115.256,60.68 C115.256,60.41 115.467,60.2 115.735,60.2 C115.974,60.16 116.213,60.41 116.213,60.68 L116.261,67.92 C116.261,68.18 116.05,68.4 115.783,68.4 Z" id="Path" fill="#2C0F6B"></path>
                    <path d="M169.432,68.9 C169.165,68.9 168.954,68.69 168.954,68.42 L168.954,55.93 C168.954,55.67 169.165,55.46 169.432,55.46 C169.7,55.46 169.911,55.67 169.911,55.93 L169.911,68.42 C169.911,68.69 169.691,68.9 169.432,68.9 Z" id="Path" fill="#2C0F6B"></path>
                    <path d="M169.432,52.74 L162.831,52.74 C162.564,52.74 162.353,52.53 162.353,52.26 C162.353,51.99 162.564,51.78 162.831,51.78 L169.432,51.78 C169.7,51.78 169.911,51.99 169.911,52.26 C169.911,52.53 169.691,52.74 169.432,52.74 Z" id="Path" fill="#2C0F6B"></path>
                    <path d="M179.066,45.51 C178.798,45.51 178.588,45.3 178.588,45.03 L178.588,43.12 C178.588,42.86 178.798,42.65 179.066,42.65 C179.334,42.65 179.544,42.86 179.544,43.12 L179.544,45.03 C179.544,45.3 179.334,45.51 179.066,45.51 Z" id="Path" fill="#2C0F6B"></path>
                    <path d="M179.066,49.12 C178.798,49.12 178.588,48.91 178.588,48.64 L178.588,46.74 C178.588,46.47 178.798,46.26 179.066,46.26 C179.334,46.26 179.544,46.47 179.544,46.74 L179.544,48.64 C179.544,48.91 179.334,49.12 179.066,49.12 Z" id="Path" fill="#2C0F6B"></path>
                    <path d="M125.081,67.4 C116.089,67.4 112.712,54.82 112.568,54.29 C112.501,54.03 112.654,53.77 112.913,53.7 C113.161,53.64 113.429,53.79 113.496,54.05 C113.525,54.17 116.835,66.45 125.081,66.45 C125.11,66.45 125.139,66.45 125.167,66.45 C130.161,66.4 133.261,59.38 135.117,55.19 C136.102,52.96 136.533,52.04 137.097,51.85 C138.264,51.46 138.484,51.35 138.503,51.34 C138.551,51.3 138.551,51.31 138.609,51.29 C138.924,51.21 139.278,51.06 139.355,50.99 C139.412,50.89 139.422,50.71 139.364,50.6 C139.345,50.58 139.297,50.48 139.058,50.47 C138.79,50.46 138.589,50.24 138.599,49.97 C138.609,49.71 138.867,49.5 139.097,49.51 C139.604,49.53 139.996,49.76 140.206,50.16 C140.426,50.56 140.398,51.11 140.149,51.52 C139.929,51.89 139.288,52.11 138.896,52.22 C138.743,52.29 138.379,52.43 137.394,52.77 C137.154,52.94 136.533,54.35 135.987,55.59 C134.045,59.99 130.783,67.36 125.177,67.41 C125.148,67.4 125.11,67.4 125.081,67.4 Z" id="Path" fill="#2C0F6B"></path>
                    <path d="M137.04,51.17 C136.839,51.17 136.647,51.05 136.58,50.84 C136.494,50.6 136.638,50.33 136.887,50.24 C137.757,49.95 139.135,49.5 139.374,49.39 C139.431,49.37 139.517,49.14 139.45,48.92 C139.403,48.76 139.336,48.77 139.259,48.78 C139.001,48.83 138.752,48.64 138.704,48.39 C138.656,48.13 138.838,47.88 139.097,47.83 C139.69,47.73 140.187,48.05 140.359,48.64 C140.532,49.22 140.34,50 139.737,50.26 C139.384,50.41 137.403,51.06 137.174,51.14 C137.135,51.16 137.088,51.17 137.04,51.17 Z" id="Path" fill="#2C0F6B"></path>
                    <polygon id="Path" fill="#74DCB9" points="140.015 46.58 140.398 40.97 135.528 40.71 135.184 45.77 135.184 47.85"></polygon>
                    <path d="M135.184,48.33 C135.079,48.33 134.973,48.29 134.887,48.23 C134.772,48.15 134.705,48 134.705,47.85 L134.705,45.77 L135.05,40.67 C135.069,40.42 135.299,40.22 135.557,40.23 L140.426,40.48 C140.551,40.49 140.675,40.55 140.761,40.65 C140.847,40.74 140.885,40.87 140.876,41 L140.484,46.61 C140.465,46.81 140.331,46.98 140.13,47.04 L135.299,48.32 C135.27,48.33 135.222,48.33 135.184,48.33 Z M135.978,41.21 L135.662,45.81 L135.662,47.24 L139.565,46.2 L139.9,41.42 L135.978,41.21 Z" id="Shape" fill="#74DCB9"></path>
                    <path d="M119.227,58.61 C119.16,58.61 119.093,58.59 119.026,58.56 C118.786,58.45 118.681,58.17 118.796,57.93 C120.308,54.71 123.618,53.65 126.277,52.81 C126.995,52.58 127.674,52.36 128.248,52.13 C131.596,50.75 132.773,48.72 132.84,48.61 C132.83,48.61 133.117,47.63 133.251,46.34 C133.28,46.05 133.28,45.78 133.28,45.55 C133.28,44.98 133.28,44.19 134.045,44.16 C134.61,44.14 134.964,44.35 135.165,44.54 C135.653,45.01 135.672,45.71 135.672,45.79 L135.672,47.25 L139.163,46.33 C139.967,46.11 140.512,46.51 140.723,46.93 C140.972,47.41 140.876,47.98 140.493,48.29 C140.034,48.66 137.805,49.27 136.867,49.51 C136.609,49.58 136.351,49.43 136.284,49.17 C136.217,48.91 136.37,48.65 136.628,48.59 C138.006,48.22 139.651,47.72 139.9,47.53 C139.91,47.51 139.919,47.41 139.852,47.32 C139.757,47.19 139.565,47.21 139.412,47.25 L135.308,48.33 C135.165,48.37 135.012,48.34 134.897,48.24 C134.782,48.16 134.715,48.01 134.715,47.86 L134.715,45.78 C134.715,45.69 134.677,45.38 134.505,45.23 C134.476,45.2 134.409,45.14 134.246,45.11 C134.237,45.24 134.237,45.41 134.237,45.55 C134.237,45.81 134.237,46.12 134.198,46.43 C134.045,47.87 133.73,48.93 133.72,48.97 C133.634,49.15 132.381,51.46 128.611,53.01 C127.999,53.25 127.31,53.47 126.574,53.71 C123.962,54.55 120.996,55.49 119.667,58.33 C119.581,58.51 119.408,58.61 119.227,58.61 Z" id="Path" fill="#2C0F6B"></path>
                    <path d="M187.332,65.89 C182.347,65.89 178.406,62.1 175.45,59.26 C174.216,58.09 173.154,57.06 172.389,56.71 C171.011,56.07 169.557,55.82 168.399,55.62 C167.299,55.43 166.629,55.31 166.304,54.94 C165.797,54.35 165.826,53.85 165.95,53.54 C166.342,52.52 168.179,52.23 168.543,52.18 L172.14,51.76 L171.91,51.17 C171.738,50.82 171.355,49.89 171.767,49.33 C171.92,49.14 172.207,48.92 172.762,49.03 C172.943,49.05 173.412,49.15 175.354,52.11 C175.364,52.11 176.646,53.4 178.234,53.55 C179.076,53.63 180.042,53.67 181.056,53.7 C184.71,53.84 188.862,54 191.187,56.1 C191.388,56.28 191.397,56.57 191.225,56.78 C191.044,56.98 190.747,56.99 190.546,56.81 C188.47,54.95 184.509,54.79 181.018,54.66 C179.984,54.62 179.009,54.58 178.138,54.51 C176.158,54.33 174.665,52.78 174.598,52.71 C173.804,51.51 172.829,50.19 172.522,49.96 C172.522,50.14 172.628,50.5 172.771,50.79 L173.25,51.99 C173.307,52.13 173.288,52.29 173.211,52.41 C173.135,52.54 173.001,52.62 172.857,52.64 L168.648,53.13 C167.892,53.24 166.955,53.57 166.83,53.89 C166.782,54.01 166.926,54.21 167.022,54.32 C167.165,54.44 167.93,54.57 168.552,54.68 C169.71,54.88 171.288,55.15 172.781,55.84 C173.699,56.26 174.761,57.28 176.1,58.57 C179.19,61.54 183.428,65.61 188.633,64.84 C194.822,63.92 196.238,54.52 196.248,54.42 C196.286,54.16 196.525,53.98 196.793,54.02 C197.051,54.06 197.233,54.3 197.195,54.57 C197.138,54.99 195.655,64.76 188.767,65.79 C188.298,65.86 187.81,65.89 187.332,65.89 Z" id="Path" fill="#2C0F6B"></path>
                    <path d="M140.015,53.47 C139.9,53.47 139.776,53.43 139.69,53.34 C139.498,53.16 139.489,52.85 139.67,52.66 L146.444,45.5 C147.276,43.59 148.07,42.05 148.701,40.81 C149.304,39.63 149.83,38.61 149.849,38.25 C149.897,37.6 152.232,29.87 153.466,29.07 C153.714,28.91 153.934,28.95 154.049,28.98 C154.355,29.09 155.274,29.42 153.877,34.45 C153.81,34.7 153.542,34.85 153.284,34.78 C153.026,34.71 152.882,34.45 152.949,34.19 C153.38,32.63 153.667,31.08 153.676,30.29 C152.748,31.92 150.854,37.5 150.797,38.32 C150.758,38.88 150.299,39.77 149.543,41.25 C148.902,42.49 148.108,44.04 147.276,45.96 C147.257,46 147.219,46.05 147.19,46.09 L140.359,53.32 C140.264,53.43 140.139,53.47 140.015,53.47 Z" id="Path" fill="#2C0F6B"></path>
                    <path d="M154.642,35.24 C154.585,35.24 154.528,35.23 154.47,35.21 C154.221,35.12 154.107,34.84 154.202,34.59 C154.595,33.59 154.489,33.14 154.403,32.95 C154.346,32.84 154.25,32.79 154.25,32.79 C153.992,32.73 153.839,32.48 153.896,32.22 C153.954,31.96 154.212,31.8 154.47,31.86 C154.518,31.87 154.977,32 155.245,32.51 C155.551,33.09 155.494,33.91 155.092,34.94 C155.015,35.13 154.834,35.24 154.642,35.24 Z" id="Path" fill="#2C0F6B"></path>
                    <path d="M146.004,63.54 C143.612,63.54 141.297,61.75 139.594,58.57 C139.47,58.34 139.556,58.05 139.785,57.92 C140.015,57.8 140.311,57.89 140.436,58.11 C142.024,61.08 144.215,62.74 146.329,62.56 C148.692,62.36 150.749,59.97 152.117,55.85 C154.929,47.35 153.437,38.17 153.418,38.08 C153.38,37.86 153.504,37.64 153.705,37.56 C153.705,37.56 154.499,37.14 155.102,35.21 C155.398,34.24 155.274,33.82 155.178,33.64 C155.082,33.49 154.958,33.47 154.948,33.46 C154.7,33.41 154.508,33.18 154.547,32.93 C154.575,32.67 154.795,32.49 155.054,32.51 C155.111,32.52 155.628,32.58 155.963,33.1 C156.326,33.63 156.345,34.45 156.02,35.49 C155.503,37.16 154.824,37.91 154.413,38.23 C154.652,39.94 155.618,48.32 153.026,56.13 C151.533,60.65 149.18,63.26 146.415,63.5 C146.281,63.54 146.138,63.54 146.004,63.54 Z" id="Path" fill="#2C0F6B"></path>
                    <path d="M144.071,53.56 C144.023,53.56 143.975,53.55 143.918,53.54 C143.669,53.46 143.535,53.19 143.612,52.94 C145.592,46.92 146.673,44.97 146.721,44.89 C146.855,44.66 147.142,44.58 147.372,44.71 C147.601,44.85 147.687,45.13 147.553,45.36 C147.544,45.38 146.463,47.34 144.521,53.24 C144.454,53.44 144.272,53.56 144.071,53.56 Z" id="Path" fill="#2C0F6B"></path>
                    <path d="M120.346,21.97 C120.327,21.97 120.317,21.97 120.298,21.97 L111.439,21.17 C111.181,21.15 110.98,20.91 111.009,20.65 C111.037,20.39 111.267,20.19 111.525,20.22 L120.384,21.02 C120.642,21.04 120.843,21.28 120.815,21.54 C120.805,21.78 120.595,21.97 120.346,21.97 Z" id="Path" fill="#74DCB9"></path>
                    <path d="M122.192,17.71 C122.087,17.71 121.982,17.68 121.896,17.61 L105.795,4.85 C105.584,4.68 105.556,4.38 105.718,4.18 C105.881,3.97 106.187,3.94 106.388,4.1 L122.489,16.86 C122.699,17.03 122.728,17.33 122.565,17.53 C122.47,17.65 122.326,17.71 122.192,17.71 Z" id="Path" fill="#74DCB9"></path>
                    <path d="M126.44,13.92 C126.229,13.92 126.038,13.77 125.981,13.56 L122.757,1.26 C122.69,1 122.843,0.74 123.101,0.68 C123.359,0.61 123.618,0.76 123.685,1.02 L126.909,13.32 C126.976,13.58 126.822,13.84 126.564,13.91 C126.526,13.92 126.488,13.92 126.44,13.92 Z" id="Path" fill="#74DCB9"></path>
                    <path d="M131.386,13.23 C131.376,13.23 131.357,13.23 131.348,13.23 C131.089,13.21 130.888,12.97 130.907,12.71 L131.252,8.68 C131.271,8.42 131.51,8.22 131.768,8.24 C132.036,8.26 132.228,8.5 132.209,8.76 L131.864,12.79 C131.845,13.04 131.635,13.23 131.386,13.23 Z" id="Path" fill="#74DCB9"></path>
                    <path d="M220.93,71.87 C222.177,71.87 223.188,70.86 223.188,69.61 C223.188,68.37 222.177,67.36 220.93,67.36 C219.683,67.36 218.672,68.37 218.672,69.61 C218.672,70.86 219.683,71.87 220.93,71.87 Z" id="Path" fill="#2C0F6B"></path>
                    <path d="M222.958,72.82 L227.1,65.61 C227.263,65.32 227.569,65.15 227.904,65.15 L231.29,65.16 C231.989,65.16 232.429,65.92 232.085,66.52 L226.316,76.61 C225.971,77.21 225.101,77.23 224.737,76.63 L222.977,73.75 C222.795,73.46 222.786,73.11 222.958,72.82 Z" id="Path" fill="#74DCB9"></path>
                    <path d="M183.897,25.19 C183.821,25.19 183.744,25.15 183.696,25.07 C183.629,24.96 183.658,24.81 183.773,24.75 C183.802,24.73 186.652,22.88 185.954,20.02 C185.323,17.46 183.103,17.17 183.084,17.17 C182.95,17.15 182.854,17.04 182.874,16.9 C182.893,16.77 183.008,16.68 183.141,16.69 C183.17,16.69 185.715,17.02 186.423,19.91 C187.207,23.11 184.06,25.13 184.031,25.15 C183.993,25.18 183.945,25.19 183.897,25.19 Z" id="Path" fill="#74DCB9"></path>
                    <path d="M184.213,26.81 C185.069,26.81 185.763,25.84 185.763,24.65 C185.763,23.46 185.069,22.49 184.213,22.49 C183.357,22.49 182.663,23.46 182.663,24.65 C182.663,25.84 183.357,26.81 184.213,26.81 Z" id="Path" fill="#74DCB9"></path>
                    <path d="M172.121,31.45 C172.063,31.45 172.006,31.43 171.968,31.39 C171.547,31.03 171.327,30.58 171.307,30.07 C171.269,28.96 172.245,27.93 172.293,27.89 C172.389,27.8 172.532,27.8 172.628,27.89 C172.723,27.99 172.723,28.13 172.628,28.23 C172.618,28.24 171.748,29.15 171.776,30.06 C171.795,30.43 171.958,30.75 172.274,31.03 C172.369,31.12 172.379,31.27 172.293,31.37 C172.255,31.42 172.188,31.45 172.121,31.45 Z" id="Path" fill="#74DCB9"></path>
                    <path d="M173.63,32.2 C173.9,31.79 173.682,31.17 173.143,30.81 C172.605,30.46 171.949,30.5 171.679,30.92 C171.41,31.33 171.628,31.95 172.166,32.3 C172.705,32.65 173.361,32.61 173.63,32.2 Z" id="Path" fill="#74DCB9"></path>
                    <path d="M197.099,41.99 C196.831,41.99 196.621,41.77 196.621,41.51 L196.621,20.43 C196.621,17.36 194.124,14.86 191.053,14.86 L149.658,14.86 C149.39,14.86 149.18,14.65 149.18,14.39 C149.18,14.12 149.39,13.91 149.658,13.91 L191.053,13.91 C194.65,13.91 197.578,16.83 197.578,20.43 L197.578,41.5 C197.578,41.77 197.358,41.99 197.099,41.99 Z" id="Path" fill="#2C0F6B"></path>
                    <path d="M182.749,76.1 C182.673,76.1 182.587,76.08 182.51,76.04 L170.571,69.26 L138.953,69.26 L127.473,75.93 C127.32,76.01 127.138,76.01 126.995,75.93 C126.842,75.84 126.756,75.68 126.756,75.51 L126.794,69.25 L118.04,69.25 C114.443,69.25 111.516,66.32 111.516,62.73 L111.516,40.88 C111.516,40.61 111.726,40.4 111.994,40.4 C112.262,40.4 112.472,40.61 112.472,40.88 L112.472,62.74 C112.472,65.81 114.969,68.3 118.04,68.3 L127.282,68.3 C127.406,68.3 127.53,68.35 127.617,68.45 C127.703,68.53 127.76,68.66 127.76,68.79 L127.722,74.69 L138.589,68.38 C138.666,68.34 138.743,68.31 138.829,68.31 L170.705,68.31 C170.791,68.31 170.867,68.33 170.944,68.37 L182.28,74.8 L182.242,68.89 C182.242,68.63 182.453,68.41 182.711,68.41 L191.063,68.3 C194.134,68.3 196.63,65.81 196.63,62.74 L196.63,54.92 C196.63,54.65 196.841,54.44 197.109,54.44 C197.377,54.44 197.587,54.65 197.587,54.92 L197.587,62.74 C197.587,66.33 194.66,69.26 191.063,69.26 L183.189,69.36 L183.237,75.61 C183.237,75.78 183.151,75.94 182.998,76.02 C182.912,76.07 182.835,76.1 182.749,76.1 Z" id="Path" fill="#2C0F6B"></path>
                </g>
            </g>
        </g>
    </g>
</svg>