<?xml version="1.0" encoding="UTF-8"?>
<svg width="214px" height="146px" viewBox="0 0 214 146" version="1.1" xmlns="http://www.w3.org/2000/svg" xmlns:xlink="http://www.w3.org/1999/xlink">
    <title>character-image-pro-03</title>
    <defs>
        <path d="M3.61,14.92 C3.61,14.92 3.81,14.81 4.18,14.68 C4.55,14.55 5.08,14.4 5.71,14.34 C6.35,14.27 7.11,14.27 7.93,14.44 C8.75,14.59 9.61,15 10.59,15.42 C12.55,16.26 14.91,17.29 17.62,18.52 C18.96,19.14 20.4,19.8 21.91,20.49 C23.41,21.21 24.99,21.96 26.64,22.75 C29.93,24.35 33.48,26.11 37.23,28 C40.97,29.89 44.93,31.87 49.03,33.89 C51.09,34.88 53.18,35.9 55.3,36.92 L55.69,37.11 L55.79,37.16 C55.62,37.1 55.78,37.15 55.75,37.15 L55.8,37.17 L56.01,37.25 L56.82,37.59 C57.27,37.71 57.66,37.9 58.18,37.97 C58.67,38.09 59.18,38.09 59.69,38.13 C60.25,38.14 60.87,38.13 61.46,38.14 C66.25,38.14 71.11,38.14 75.97,38.14 C80.83,38.14 85.69,38.14 90.47,38.14 C92.87,38.14 95.24,38.14 97.58,38.14 C98.76,38.14 99.92,38.14 101.08,38.14 L101.3,38.14 L101.35,38.14 C101.08,38.15 101.31,38.14 101.26,38.14 L101.37,38.13 L101.8,38.1 L102.23,38.07 C102.36,38.06 102.41,38.03 102.5,38.01 C102.67,37.95 102.82,37.96 103.02,37.87 C103.21,37.79 103.41,37.72 103.61,37.65 C104.36,37.28 105.02,36.74 105.53,36.1 C105.64,35.93 105.77,35.77 105.88,35.6 C105.97,35.41 106.07,35.23 106.16,35.05 L106.24,34.91 L106.32,34.72 L106.48,34.33 L106.8,33.57 C107.65,31.55 108.48,29.58 109.29,27.65 C110.91,23.8 112.45,20.16 113.83,16.79 C114.18,15.94 114.52,15.12 114.85,14.31 C115.01,13.91 115.18,13.51 115.34,13.12 C115.42,12.94 115.67,12.26 115.66,12.13 C115.69,12.01 115.71,11.89 115.73,11.73 C115.74,11.58 115.77,11.43 115.76,11.28 C115.77,10.99 115.74,10.7 115.7,10.41 C115.6,9.85 115.4,9.31 115.12,8.85 C114.57,7.92 113.74,7.26 112.87,6.94 C112.76,6.9 112.65,6.86 112.54,6.83 C112.44,6.79 112.26,6.74 112.12,6.7 C111.83,6.62 111.54,6.54 111.25,6.46 C110.69,6.29 110.15,6.14 109.64,5.99 C107.6,5.4 105.98,4.98 104.88,4.67 C103.78,4.38 103.19,4.22 103.19,4.22 L104.31,0.5 C104.31,0.5 104.89,0.7 105.97,1.06 C107.05,1.41 108.64,1.94 110.67,2.58 C111.17,2.74 111.71,2.91 112.27,3.09 C112.55,3.18 112.83,3.27 113.13,3.36 C113.28,3.41 113.4,3.44 113.59,3.51 C113.78,3.58 113.97,3.65 114.16,3.72 C115.67,4.35 117.12,5.51 118.06,7.14 C119.01,8.78 119.41,10.83 118.9,12.97 L118.79,13.4 L118.68,13.7 L118.58,14 L118.49,14.23 L118.43,14.38 C118.27,14.77 118.11,15.17 117.94,15.58 C117.62,16.39 117.28,17.21 116.94,18.06 C115.56,21.43 114.11,25.1 112.57,28.99 C111.8,30.93 111.01,32.93 110.21,34.97 L109.9,35.73 L109.75,36.12 L109.67,36.31 L109.57,36.54 L109.1,37.48 C108.92,37.78 108.71,38.07 108.5,38.36 C107.65,39.48 106.53,40.42 105.24,41.06 L104.23,41.47 C103.91,41.61 103.47,41.67 103.09,41.77 C102.9,41.8 102.67,41.86 102.52,41.87 L102.09,41.91 L101.66,41.95 L101.55,41.95 C101.47,41.96 101.66,41.95 101.35,41.96 L101.3,41.96 L101.08,41.96 C99.92,41.96 98.76,41.96 97.58,41.96 C95.24,41.96 92.87,41.96 90.47,41.96 C85.69,41.96 80.83,41.96 75.97,41.96 C71.11,41.96 66.25,41.96 61.46,41.96 C60.86,41.96 60.26,41.96 59.65,41.96 C58.97,41.94 58.29,41.92 57.61,41.83 C56.95,41.78 56.21,41.62 55.5,41.48 L54.65,41.26 L54.43,41.2 L54.38,41.18 C54.32,41.16 54.44,41.21 54.23,41.14 L54.12,41.1 L53.7,40.97 C51.45,40.28 49.23,39.6 47.05,38.93 C42.67,37.62 38.42,36.38 34.39,35.22 C30.36,34.05 26.56,32.93 23.06,31.86 C21.32,31.31 19.65,30.79 18.06,30.29 C16.48,29.77 14.98,29.28 13.57,28.82 C10.76,27.88 8.32,27.02 6.31,26.31 C5.31,25.95 4.4,25.67 3.69,25.22 C2.98,24.78 2.42,24.27 2,23.79 C1.58,23.3 1.29,22.83 1.11,22.49 C0.93,22.15 0.86,21.92 0.86,21.92 L3.61,14.92 Z" id="path-1"></path>
    </defs>
    <g id="Page-2" stroke="none" stroke-width="1" fill="none" fill-rule="evenodd">
        <g id="character-image-pro-03">
            <path d="M155.588563,65 L150,65 L150,73 L159.5937,71.1499365 C159.60405,71.1296061 159.614399,71.1092757 159.624748,71.0787802 C160.225001,69.7369759 160.100811,68.1918679 159.283225,66.9720457 C158.465639,65.7420584 157.078847,65 155.588563,65 L155.588563,65 Z" id="Path" fill="#000000" fill-rule="nonzero"></path>
            <path d="M162.067899,59.3094812 L166.978217,59.3094812 C167.205914,59.3094812 167.40391,59.1520572 167.463309,58.9355993 C168.502792,54.1341682 167.889002,49.1753131 166.83962,44.3738819 C166.79012,44.157424 166.592124,44 166.364428,44 L159.573141,44 C154.286629,44 150,48.2602862 150,53.5143113 L150,66 L157.444676,64.5438283 C158.533658,62.2119857 156.761587,59.5062612 162.067899,59.3094812 Z" id="Path" fill="#E9E9E9" fill-rule="nonzero"></path>
            <path d="M167.050412,60 L167.867486,60 C168.118056,60 168.335942,59.8354756 168.401308,59.6092545 C169.556107,54.5912596 168.880659,49.4087404 167.72586,44.3907455 C167.660494,44.1645244 167.442607,44 167.192038,44 L164.32683,44 C164.108943,45.5321337 164,47.0642674 164,48.6066838" id="Path" stroke="#000000" stroke-width="0.383505"></path>
            <path d="M162.067899,59.3094812 L166.978217,59.3094812 C167.205914,59.3094812 167.40391,59.1520572 167.463309,58.9355993 C168.502792,54.1341682 167.889002,49.1753131 166.83962,44.3738819 C166.79012,44.157424 166.592124,44 166.364428,44 L159.573141,44 C154.286629,44 150,48.2602862 150,53.5143113 L150,66 L157.444676,64.5438283 C158.533658,62.2119857 156.761587,59.5062612 162.067899,59.3094812 L162.067899,59.3094812 Z" id="Path" stroke="#000000" stroke-width="0.383505"></path>
            <g id="Clipped" transform="translate(22.000000, 84.000000)">
                <mask id="mask-2" fill="white">
                    <use xlink:href="#path-1"></use>
                </mask>
                <g id="Path"></g>
                <path d="M3.61,14.92 C3.61,14.92 3.81,14.81 4.18,14.68 C4.55,14.55 5.08,14.4 5.71,14.34 C6.35,14.27 7.11,14.27 7.93,14.44 C8.75,14.59 9.61,15 10.59,15.42 C12.55,16.26 14.91,17.29 17.62,18.52 C18.96,19.14 20.4,19.8 21.91,20.49 C23.41,21.21 24.99,21.96 26.64,22.75 C29.93,24.35 33.48,26.11 37.23,28 C40.97,29.89 44.93,31.87 49.03,33.89 C51.09,34.88 53.18,35.9 55.3,36.92 L55.69,37.11 L55.79,37.16 C55.62,37.1 55.78,37.15 55.75,37.15 L55.8,37.17 L56.01,37.25 L56.82,37.59 C57.27,37.71 57.66,37.9 58.18,37.97 C58.67,38.09 59.18,38.09 59.69,38.13 C60.25,38.14 60.87,38.13 61.46,38.14 C66.25,38.14 71.11,38.14 75.97,38.14 C80.83,38.14 85.69,38.14 90.47,38.14 C92.87,38.14 95.24,38.14 97.58,38.14 C98.76,38.14 99.92,38.14 101.08,38.14 L101.3,38.14 L101.35,38.14 C101.08,38.15 101.31,38.14 101.26,38.14 L101.37,38.13 L101.8,38.1 L102.23,38.07 C102.36,38.06 102.41,38.03 102.5,38.01 C102.67,37.95 102.82,37.96 103.02,37.87 C103.21,37.79 103.41,37.72 103.61,37.65 C104.36,37.28 105.02,36.74 105.53,36.1 C105.64,35.93 105.77,35.77 105.88,35.6 C105.97,35.41 106.07,35.23 106.16,35.05 L106.24,34.91 L106.32,34.72 L106.48,34.33 L106.8,33.57 C107.65,31.55 108.48,29.58 109.29,27.65 C110.91,23.8 112.45,20.16 113.83,16.79 C114.18,15.94 114.52,15.12 114.85,14.31 C115.01,13.91 115.18,13.51 115.34,13.12 C115.42,12.94 115.67,12.26 115.66,12.13 C115.69,12.01 115.71,11.89 115.73,11.73 C115.74,11.58 115.77,11.43 115.76,11.28 C115.77,10.99 115.74,10.7 115.7,10.41 C115.6,9.85 115.4,9.31 115.12,8.85 C114.57,7.92 113.74,7.26 112.87,6.94 C112.76,6.9 112.65,6.86 112.54,6.83 C112.44,6.79 112.26,6.74 112.12,6.7 C111.83,6.62 111.54,6.54 111.25,6.46 C110.69,6.29 110.15,6.14 109.64,5.99 C107.6,5.4 105.98,4.98 104.88,4.67 C103.78,4.38 103.19,4.22 103.19,4.22 L104.31,0.5 C104.31,0.5 104.89,0.7 105.97,1.06 C107.05,1.41 108.64,1.94 110.67,2.58 C111.17,2.74 111.71,2.91 112.27,3.09 C112.55,3.18 112.83,3.27 113.13,3.36 C113.28,3.41 113.4,3.44 113.59,3.51 C113.78,3.58 113.97,3.65 114.16,3.72 C115.67,4.35 117.12,5.51 118.06,7.14 C119.01,8.78 119.41,10.83 118.9,12.97 L118.79,13.4 L118.68,13.7 L118.58,14 L118.49,14.23 L118.43,14.38 C118.27,14.77 118.11,15.17 117.94,15.58 C117.62,16.39 117.28,17.21 116.94,18.06 C115.56,21.43 114.11,25.1 112.57,28.99 C111.8,30.93 111.01,32.93 110.21,34.97 L109.9,35.73 L109.75,36.12 L109.67,36.31 L109.57,36.54 L109.1,37.48 C108.92,37.78 108.71,38.07 108.5,38.36 C107.65,39.48 106.53,40.42 105.24,41.06 L104.23,41.47 C103.91,41.61 103.47,41.67 103.09,41.77 C102.9,41.8 102.67,41.86 102.52,41.87 L102.09,41.91 L101.66,41.95 L101.55,41.95 C101.47,41.96 101.66,41.95 101.35,41.96 L101.3,41.96 L101.08,41.96 C99.92,41.96 98.76,41.96 97.58,41.96 C95.24,41.96 92.87,41.96 90.47,41.96 C85.69,41.96 80.83,41.96 75.97,41.96 C71.11,41.96 66.25,41.96 61.46,41.96 C60.86,41.96 60.26,41.96 59.65,41.96 C58.97,41.94 58.29,41.92 57.61,41.83 C56.95,41.78 56.21,41.62 55.5,41.48 L54.65,41.26 L54.43,41.2 L54.38,41.18 C54.32,41.16 54.44,41.21 54.23,41.14 L54.12,41.1 L53.7,40.97 C51.45,40.28 49.23,39.6 47.05,38.93 C42.67,37.62 38.42,36.38 34.39,35.22 C30.36,34.05 26.56,32.93 23.06,31.86 C21.32,31.31 19.65,30.79 18.06,30.29 C16.48,29.77 14.98,29.28 13.57,28.82 C10.76,27.88 8.32,27.02 6.31,26.31 C5.31,25.95 4.4,25.67 3.69,25.22 C2.98,24.78 2.42,24.27 2,23.79 C1.58,23.3 1.29,22.83 1.11,22.49 C0.93,22.15 0.86,21.92 0.86,21.92 L3.61,14.92 Z" id="Path" stroke="#000000" stroke-width="0.945271" fill="#B7B7B7" fill-rule="nonzero" mask="url(#mask-2)"></path>
            </g>
            <path d="M181,90.3999392 C193.463993,90.3999392 203.601641,100.539128 203.601641,113.005014 C203.601641,125.460872 193.463993,135.61009 181,135.61009 C168.536007,135.61009 158.398359,125.460872 158.398359,113.005014 C158.398359,100.539128 168.536007,90.3999392 181,90.3999392 Z M181,80 C162.78031,80 148,94.772527 148,113.005014 C148,131.227473 162.78031,146 181,146 C199.21969,146 214,131.227473 214,113.005014 C214,94.772527 199.21969,80 181,80 Z" id="Shape" fill="#000000" fill-rule="nonzero"></path>
            <path d="M180.5,92.6952085 C191.420586,92.6952085 200.294809,101.579414 200.294809,112.5 C200.294809,123.410603 191.420586,132.294809 180.5,132.294809 C169.579414,132.294809 160.705191,123.410603 160.705191,112.5 C160.705191,101.579414 169.579414,92.6952085 180.5,92.6952085 Z M180.5,90 C168.092059,90 158,100.092059 158,112.5 C158,124.897959 168.092059,135 180.5,135 C192.907941,135 203,124.897959 203,112.5 C203,100.092059 192.907941,90 180.5,90 Z" id="Shape" fill="#E3E3E3" fill-rule="nonzero"></path>
            <path d="M186.659098,118.658724 C189.780301,115.537022 189.780301,110.470654 186.659098,107.348953 C183.527662,104.217016 178.462104,104.217016 175.340902,107.348953 C172.219699,110.470654 172.219699,115.537022 175.340902,118.658724 C178.462104,121.780425 183.527662,121.780425 186.659098,118.658724 Z" id="Path" fill="#1A1A1A" fill-rule="nonzero"></path>
            <path d="M153,89.7926635 C153,89.7926635 156.58481,84.7958533 163.663291,81.0637959 C170.741772,77.3317384 177,77 177,77 C177,77 176.716456,78.5135566 175.420253,79.6642743 C174.124051,80.8046252 171.501266,81.0223285 166.589873,83.3963317 C161.678481,85.7703349 157.425316,89.3676236 157.425316,89.3676236 C157.425316,89.3676236 157.921519,89.3261563 155.886076,89.7926635 C153.850633,90.2591707 153,89.7926635 153,89.7926635 Z" id="Path" fill="#CCCCCC" fill-rule="nonzero"></path>
            <polygon id="Path" stroke="#000000" stroke-width="0.472636" fill="#EAEAE8" fill-rule="nonzero" points="149.696036 45.2202234 149.587038 45 149.37895 45.1101117 146.208088 46.7217467 146 46.8218483 146.108998 47.0420717 179.303964 113.779777 179.412962 114 179.62105 113.889888 182.791912 112.278253 183 112.178152 182.891002 111.957928"></polygon>
            <path d="M179.448276,116 C179.448276,116 175.234914,107.496894 171.021552,99.0037807 C168.909914,94.747232 166.80819,90.5006751 165.221983,87.3132595 C165.152586,87.2233324 165.182328,87.0834459 165.142672,86.9835269 C165.08319,86.8935998 164.993966,86.8136646 164.924569,86.7337294 C164.756034,86.573859 164.577586,86.4339725 164.418966,86.2940859 C164.071983,86.0143127 163.824138,85.7045639 163.635776,85.394815 C163.239224,84.7853092 162.921983,84.2457467 162.674138,83.7861194 C162.178448,82.8668647 162,82.2973265 162,82.2973265 L168.493534,79 C168.493534,79 168.840517,79.489603 169.26681,80.4288415 C169.494828,80.8984607 169.742672,81.4879827 169.980603,82.1674318 C170.12931,82.5071564 170.218534,82.8868485 170.238362,83.3364839 C170.248276,83.5563057 170.25819,83.7861194 170.287931,84.0059411 C170.307759,84.115852 170.317672,84.2257629 170.357328,84.3356738 C170.406897,84.4256009 170.535776,84.4855523 170.565517,84.5954631 C172.171552,87.7728868 174.312931,92.0094518 176.444397,96.2460167 C180.727155,104.709155 185,113.182285 185,113.182285 L179.448276,116 Z" id="Path" fill="#1C1C1C" fill-rule="nonzero"></path>
            <path d="M57,73.720664 L79.6793947,122 L124.08358,122 L142,79.991223 C138.794538,75.6950964 137.749498,74.2961267 134.544036,70 L93.9884147,72.0835718 L57,73.720664 Z" id="Path" fill="#E9E9E9" fill-rule="nonzero"></path>
            <path d="M33.5,101.881812 C39.3572888,101.881812 44.118188,106.652589 44.118188,112.5 C44.118188,118.357289 39.3572888,123.118188 33.5,123.118188 C27.6427112,123.118188 22.881812,118.357289 22.881812,112.5 C22.881812,106.652589 27.6427112,101.881812 33.5,101.881812 Z M33.5,98 C25.4993188,98 19,104.509196 19,112.5 C19,120.500681 25.4993188,127 33.5,127 C41.4908038,127 48,120.500681 48,112.5 C48,104.509196 41.4908038,98 33.5,98 Z" id="Shape" fill="#C3C4C0" fill-rule="nonzero"></path>
            <path d="M33,90.3999392 C45.4639927,90.3999392 55.6016408,100.539128 55.6016408,113.005014 C55.6016408,125.460872 45.4639927,135.61009 33,135.61009 C20.5360073,135.61009 10.3983592,125.460872 10.3983592,113.005014 C10.3983592,100.539128 20.5360073,90.3999392 33,90.3999392 Z M33,80 C14.7803099,80 0,94.772527 0,113.005014 C0,131.227473 14.7803099,146 33,146 C51.2297174,146 66,131.227473 66,113.005014 C66,94.772527 51.2297174,80 33,80 Z" id="Shape" fill="#000000" fill-rule="nonzero"></path>
            <path d="M32.5,92.6952085 C43.4205856,92.6952085 52.3047915,101.579414 52.3047915,112.5 C52.3047915,123.410603 43.4205856,132.294809 32.5,132.294809 C21.5794144,132.294809 12.7051908,123.410603 12.7051908,112.5 C12.7051908,101.579414 21.5794144,92.6952085 32.5,92.6952085 Z M32.5,90 C20.0920586,90 10,100.092059 10,112.5 C10,124.897959 20.0920586,135 32.5,135 C44.9079414,135 55,124.897959 55,112.5 C55,100.092059 44.9079414,90 32.5,90 Z" id="Shape" fill="#E3E3E3" fill-rule="nonzero"></path>
            <path d="M32.5,110.282423 C33.7167235,110.282423 34.7175768,111.273464 34.7175768,112.5 C34.7175768,113.716724 33.7167235,114.707765 32.5,114.707765 C31.2832765,114.707765 30.2922355,113.716724 30.2922355,112.5 C30.2922355,111.273464 31.2832765,110.282423 32.5,110.282423 Z M32.5,101 C26.1612628,101 21,106.151451 21,112.5 C21,118.838737 26.1612628,124 32.5,124 C38.8387372,124 44,118.838737 44,112.5 C44,106.151451 38.8387372,101 32.5,101 Z" id="Shape" fill="#CCCCCC" fill-rule="nonzero"></path>
            <path d="M127,98 L106,98 L106,92.8373333 C106,89.6106667 108.610335,87 111.836592,87 L121.163408,87 C124.389665,87 127,89.6106667 127,92.8373333 L127,98 Z" id="Path" fill="#000000" fill-rule="nonzero"></path>
            <path d="M32.5842583,70.1240575 C32.5842583,70.1240575 30.061554,70.2067624 26.4288597,71.0958408 C22.8062563,71.9849192 21,72.9256883 21,72.9256883 C21,72.9256883 22.0090817,74.4350539 23.8355197,74.4350539 C25.6518668,74.4350539 31.827447,73.8561192 35.2280525,74.4350539 C38.6185671,75.0139887 42.3118063,75.6135997 45.4702321,76.7094406 C48.6185671,77.8156195 49.9606458,75.4068373 49.9606458,75.4068373 L51,72.9256883 C51,72.9256883 42.3521695,70.4031867 39.9606458,70.1240575 C37.5590313,69.8449282 32.5842583,70.1240575 32.5842583,70.1240575 Z" id="Path" fill="#CCCCCC" fill-rule="nonzero"></path>
            <path d="M50.6860759,72 L47,76.08308 C47,76.08308 51.4962025,76.6403242 56.4075949,79.6190476 C61.3088608,82.5876393 67,92 67,92 L61.3189873,72.7700101 L50.6860759,72 Z" id="Path" fill="#CCCCCC" fill-rule="nonzero"></path>
            <polygon id="Path" fill="#222222" fill-rule="nonzero" points="140.480339 55.0689655 143.286816 53.8571429 142.304549 51.8571429 151.766384 47 152.898998 49.1280788 147.386276 51.955665 155.505012 69 161.047803 66.4384236 162 68.5566502 152.26754 73 149.962221 68.5566502 136 73 139.307633 57.4433498"></polygon>
            <path d="M90.3416308,67.8357616 L90.3416308,67.8357616 C90.7846805,65.8463492 91.5600174,64.0333379 93.7249194,61.955725 L93.7249194,61.955725 C94.2686622,61.4265217 94.8627516,60.8973184 95.5776727,60.348515 C96.8967525,59.3293086 98.5078424,58.2415019 100.541843,57.0360944 C108.234797,52.488866 119.099584,50.8620559 127.537667,51.0090568 L127.537667,51.0090568 C130.467837,51.0580571 132.884472,51.8714622 134.797641,52.9494689 L134.797641,52.9494689 L134.80771,52.9494689 C135.421938,53.2630709 135.98582,53.6256731 136.499355,54.0078755 L136.499355,54.0078755 L136.509424,54.0078755 C137.758018,54.889881 138.714603,55.8208868 139.34897,56.5264912 C139.661118,56.8890934 139.902782,57.1830953 140.063891,57.3888965 C140.134376,57.4966972 140.194792,57.5750977 140.235069,57.6338981 C140.255208,57.6632983 140.265277,57.6828984 140.275346,57.6926984 L140.295485,57.7710989 C140.305554,57.8494994 140.315624,57.9475 140.335762,58.0847009 C140.386109,58.3689027 140.436455,58.7609051 140.50694,59.2411081 C140.627772,60.2113141 140.788881,61.5343224 140.889574,62.9357311 C140.990267,64.3371398 141.040614,65.8267491 140.96006,67.1399573 C140.889574,68.4531655 140.688188,69.5605724 140.295485,70.2269765 C139.479871,71.589185 138.100375,72.5397909 136.922266,73.1473947 C136.328176,73.4413965 135.784433,73.6569979 135.39173,73.8039988 C135.200413,73.8725992 135.039304,73.9215995 134.928542,73.9509997 C134.878195,73.9705998 134.837918,73.9803999 134.80771,73.9901999 L134.777502,74 L90.3114228,74 C90.3114228,73.9901999 90.3114228,73.9901999 90.3013535,73.9803999 C90.2912842,73.8921993 90.2610763,73.7647985 90.2308683,73.6079976 C90.1704525,73.2747955 90.0999673,72.8043926 90.0496207,72.235989 C89.9589969,71.0795818 89.9589969,69.511572 90.3416308,67.8357616 Z" id="Path" stroke="#000000" stroke-width="0.3" fill="#E9E9E9" fill-rule="nonzero"></path>
            <path d="M117,70 L136.937496,70 C137.230249,70 137.512908,69.8769231 137.714806,69.6615385 C137.916705,69.4461538 138.017654,69.1589744 137.997464,68.8615385 C137.391768,60.4923077 130.446453,54 122.087847,54 L117,70 Z" id="Path" fill="#CCCCCC" fill-rule="nonzero"></path>
            <polygon id="Path" fill="#CCCCCC" fill-rule="nonzero" points="52.7414571 76 38 106.417935 39.2585429 107 54 76.5820654"></polygon>
            <polygon id="Path" fill="#222222" fill-rule="nonzero" points="43.801087 91 38 104.515254 41.198913 106 47 92.4847458"></polygon>
            <path d="M54.407773,78.4151758 C55.197409,77.6354102 55.197409,76.3719926 54.407773,75.592227 C53.6280074,74.802591 52.3645898,74.802591 51.5848242,75.592227 C50.8050586,76.3719926 50.8050586,77.6354102 51.5848242,78.4151758 C52.3645898,79.1949414 53.6280074,79.1949414 54.407773,78.4151758 Z" id="Path" fill="#B0B1AC" fill-rule="nonzero"></path>
            <path d="M39.4155364,108.407773 C40.1948212,107.628007 40.1948212,106.36459 39.4155364,105.584824 C38.6263872,104.805059 37.3637485,104.805059 36.5844636,105.584824 C35.8051788,106.36459 35.8051788,107.628007 36.5844636,108.407773 C37.3637485,109.197409 38.6263872,109.197409 39.4155364,108.407773 Z" id="Path" fill="#B0B1AC" fill-rule="nonzero"></path>
            <polygon id="Path" fill="#222222" fill-rule="nonzero" points="47.5017026 77 46 80.3191489 53.4982974 84 55 80.6914894"></polygon>
            <polygon id="Path" fill="#222222" fill-rule="nonzero" points="37.5017026 99 36 102.308511 43.4982974 106 45 102.680851"></polygon>
            <path d="M44.5393963,102 C44.5086622,102 44.4676834,101.99124 44.4369493,101.99124 L38.3618402,100.782409 C38.1057226,100.729851 37.952052,100.51962 38.0135203,100.309388 C38.0749885,100.090397 38.3208614,99.9590025 38.5667342,100.01156 L44.6418434,101.220392 C44.8877163,101.26419 45.0413868,101.483181 44.9901633,101.693412 C44.9389398,101.877365 44.7442904,102 44.5393963,102 Z" id="Path" fill="#222222" fill-rule="nonzero"></path>
            <polygon id="Path" fill="#CCCCCC" fill-rule="nonzero" points="145.610687 42 140 44.7391304 141.581679 46.7173913 144.969466 49 147 48.0666667 147 44.2826087"></polygon>
            <path d="M145.383852,47 C144.646715,47 143.981245,46.5119787 143.807199,45.7897072 C143.090539,42.7054126 141.667456,39.484472 140.858654,39.0842946 C139.978186,39.0842946 139.486762,39.162378 139.230812,39.2209406 L139.18986,39.299024 L128.286386,44.0718722 C127.477584,44.433008 126.515211,44.0913931 126.146643,43.3203194 C125.778075,42.5394854 126.126167,41.6317657 126.945208,41.27063 L137.070593,36.8393966 C138.155821,36 140.182946,36 140.93032,36 C144.329337,36 146.172178,41.7098492 146.960504,45.1162378 C147.155026,45.945874 146.612412,46.7755102 145.742182,46.9609583 C145.619326,46.9804791 145.49647,47 145.383852,47 Z" id="Path" fill="#1A1A1A" fill-rule="nonzero"></path>
            <path d="M138,41 C139.655914,41 141,39.655914 141,38 C141,36.344086 139.655914,35 138,35 C136.344086,35 135,36.344086 135,38 C135,39.655914 136.344086,41 138,41 Z" id="Path" fill="#231717" fill-rule="nonzero"></path>
            <path d="M125.968585,45 C125.221359,45 124.503246,44.5582742 124.173302,43.8220645 C123.726907,42.8208193 124.173302,41.6428838 125.163134,41.1913418 L136.225963,36.1752997 C137.215795,35.7237578 138.380304,36.1752997 138.826698,37.1765449 C139.273093,38.1777901 138.826698,39.3557256 137.836866,39.8072676 L126.774037,44.8233097 C126.512022,44.9411032 126.240304,45 125.968585,45 Z" id="Path" fill="#000000" fill-rule="nonzero"></path>
            <path d="M125.504732,45 C126.328076,45 127,44.3280757 127,43.5047319 C127,42.6719243 126.328076,42 125.504732,42 C124.671924,42 124,42.6719243 124,43.5047319 C124,44.3280757 124.671924,45 125.504732,45 Z" id="Path" fill="#231717" fill-rule="nonzero"></path>
            <path d="M90,66.9708432 L90,66.8406855 L88.9892649,66.1806 C88.9892649,66.1806 73.2077875,66.8127946 66.9932678,66.8127946 C58.3169578,66.8127946 48.7299854,65.1300413 45.3775473,64.6465984 C42.0251092,64.1538585 41.9650655,63.456585 38.922853,63.1404877 C35.8906477,62.8243904 35.9907205,63.1404877 35.9907205,63.1404877 L35,64.2375313 C52.6928675,69.4624337 71.8167758,70.4107256 90,66.9708432 Z" id="Path" fill="#000000" fill-rule="nonzero"></path>
            <path d="M89.9401073,66.9313974 C71.7252878,70.620571 52.5681496,69.6035555 34.8445387,64 L33,66.1935627 C33,66.1935627 34.473626,68.2575057 38.6438874,69.8129411 C39.2353427,70.1718877 40.0774148,70.5707173 40.7290181,70.849898 C42.5936061,71.6475571 43.9168621,72.1660356 45.9318202,72.4053333 C49.5106262,72.8141336 57.700779,73.9906809 67.8056431,74.3994812 C81.5795352,74.9578426 87.2334473,75.0774915 88.8173447,74.9578426 C90.3912173,74.8481645 89.9401073,73.6117928 89.9401073,73.6117928 L89.9401073,66.9313974 Z" id="Path" fill="#CCCCCC" fill-rule="nonzero"></path>
            <path d="M98,82.7297037 C98,82.7297037 97.7587145,92.9329244 95.808323,94.6135719 C93.847878,96.2942193 92.8023074,95.9759902 92.8023074,95.9759902 L80.7882983,95.9759902 C80.7882983,95.9759902 78.5664606,95.6478165 77.6515863,94.7428524 C76.7367119,93.8378884 75.2990522,90.0887518 74.3841779,88.1495431 C73.4693036,86.2103345 73.0168932,83.6346677 73.0168932,83.6346677 C73.0168932,83.6346677 72.8158219,83.0479328 73.8010712,82.4015299 C74.7762669,81.755127 78.8278533,82.0833008 78.8278533,82.0833008 C78.8278533,82.0833008 85.7447054,82.4015299 86.860651,82.4711425 C87.966543,82.5308105 96.200412,82.7893716 96.8538937,82.5308105 C97.5073754,82.2722493 98,82.3418619 98,82.3418619 L98,82.7297037 L98,82.7297037 Z" id="Path" fill="#E9E9E9" fill-rule="nonzero"></path>
            <path d="M182.96038,112.842801 C183.14821,112.035138 182.65046,111.227475 181.84279,111.039647 C181.03512,110.851818 180.22745,111.349564 180.03962,112.147835 C179.85179,112.955498 180.34954,113.763161 181.15721,113.960381 C181.955488,114.148209 182.763158,113.650463 182.96038,112.842801 Z" id="Path" fill="#EAEBED" fill-rule="nonzero"></path>
            <polygon id="Path" fill="#000000" fill-rule="nonzero" points="106 98 127 98 122.15007 113 107.835905 113"></polygon>
            <path d="M102.278904,25.7545486 C99.7736986,25.6450395 97.3572603,25.0775832 95.029589,24.0621353 L95.029589,18.2979746 C96.3610959,18.9848953 97.8010959,19.5523515 99.3594521,20.020254 C100.917808,20.4682458 102.288767,20.6972194 103.462466,20.6972194 C104.438904,20.6972194 105.149041,20.5777549 105.592877,20.3487813 C106.056438,20.1098524 106.283288,19.7116375 106.283288,19.1541366 C106.283288,18.7658771 106.115616,18.4473052 105.780274,18.1785101 C105.464658,17.9196704 104.922192,17.6110539 104.152877,17.2825266 C103.393425,16.9440439 102.367671,16.5358737 101.075616,16.0679712 C99.6257534,15.5204257 98.4520548,14.913148 97.5545205,14.246138 C96.6668493,13.5691727 96.0158904,12.802609 95.6016438,11.9763131 C95.1972603,11.1301064 95,10.0847923 95,8.84037075 C95,6.92893924 95.6016438,5.43563337 96.8147945,4.36045314 C98.0279452,3.28527291 99.8526027,2.62821833 102.278904,2.36937865 L102.278904,0 L105.839452,0 L105.839452,2.33951253 C108.117808,2.458977 110.406027,3.02643323 112.723836,4.03192585 L110.682192,8.97974597 C108.285479,7.88465499 106.125479,7.34706488 104.202192,7.34706488 C103.284932,7.34706488 102.643836,7.46652935 102.259178,7.69550292 C101.894247,7.91452111 101.716712,8.2430484 101.716712,8.68108479 C101.716712,9.05938895 101.844932,9.37796087 102.111233,9.63680055 C102.387397,9.87572949 102.850959,10.1544799 103.521644,10.4630965 C104.182466,10.771713 105.099726,11.120151 106.283288,11.5283213 C108.68,12.3844834 110.396164,13.3601099 111.431781,14.4552008 C112.47726,15.5403364 113,16.9440439 113,18.6663234 C113,20.607621 112.388493,22.1905252 111.155616,23.3951253 C109.942466,24.6096807 108.167123,25.366289 105.839452,25.6549949 L105.839452,29 L102.278904,29 L102.278904,25.7545486 Z" id="Path" fill="#44E0B7" fill-rule="nonzero"></path>
            <path d="M30.3886256,49.8024495 C30.3886256,50.4611023 29.8511848,51 29.1943128,51 C28.5374408,51 28,50.4611023 28,49.8024495 L30.3886256,49.8024495 Z M70,13.8759356 L58.0867299,20.8217283 L58.0469194,7 L70,13.8759356 Z M28,49.8024495 C28,41.7189839 28,35.3619868 28.4777251,30.4320708 C28.9554502,25.5121343 29.9208531,21.7897482 32.0109005,19.0753005 C34.1308057,16.3109549 37.2658768,14.784078 41.6450237,13.9058743 C45.9943128,13.0376503 51.7369668,12.7881606 59.2412322,12.7083239 L59.27109,15.1034248 C51.7469194,15.1832615 46.2132701,15.4327512 42.1127962,16.2510773 C38.0322275,17.0694035 35.5341232,18.4066682 33.8919431,20.5323203 C32.2298578,22.6978907 31.314218,25.8614198 30.8563981,30.6616013 C30.3886256,35.4518031 30.3886256,41.669086 30.3886256,49.8024495 L28,49.8024495 Z" id="Shape" fill="#CCCCCC" fill-rule="nonzero"></path>
            <path d="M137.196503,17.3833614 C136.538426,17.3833614 136,16.8471051 136,16.1916807 C136,15.5362563 136.538426,15 137.196503,15 L137.196503,17.3833614 Z M194.12011,68 L187.190367,56.1129848 L201,56.0831928 L194.12011,68 Z M137.196503,15 C150.34806,15 160.528302,15 168.375364,15.6454937 C176.192514,16.2909874 181.895843,17.5919056 185.963952,20.3427019 C190.111827,23.1431516 192.395153,27.3239648 193.661451,33.2823684 C194.917779,39.1911186 195.216904,47.0164887 195.296671,57.2748735 L192.903666,57.2947349 C192.823899,47.006558 192.524774,39.4195241 191.3183,33.778902 C190.131769,28.1780026 188.087744,24.6526138 184.627857,22.3189058 C181.088204,19.9256136 175.91333,18.6644182 168.175947,18.0189245 C160.458506,17.3833614 150.387943,17.3833614 137.196503,17.3833614 L137.196503,15 Z" id="Shape" fill="#CCCCCC" fill-rule="nonzero"></path>
        </g>
    </g>
</svg>