<?xml version="1.0" encoding="UTF-8"?>
<svg width="221px" height="163px" viewBox="0 0 221 163" version="1.1" xmlns="http://www.w3.org/2000/svg" xmlns:xlink="http://www.w3.org/1999/xlink">
    <title>character-image-03</title>
    <g id="Page-2" stroke="none" stroke-width="1" fill="none" fill-rule="evenodd">
        <g id="character-image-03" fill-rule="nonzero">
            <path d="M48.6,73.55 C44.73,74.29 41.03,75.73 37.68,77.8 C37.31,78.03 36.95,78.28 36.59,78.58 C35.18,79.59 33.91,80.8 32.83,82.15 C31.88,83.36 31.02,84.64 30.26,85.98 L29.01,85.98 C27.22,86 25.49,85.35 24.15,84.16 C23.51,83.62 22.99,82.94 22.64,82.18 C22.28,81.42 22.09,80.59 22.08,79.75 C22.08,76.33 25.2,73.55 28.96,73.55 L48.6,73.55 Z" id="Path" fill="#F2EFF8"></path>
            <path d="M117.87,74.32 C117.82,76.75 117.69,80.08 117.41,82.96 C117.52,80.15 117.71,76.95 117.87,74.32 Z" id="Path" fill="#F2EFF8"></path>
            <path d="M119.15,90.04 C119.67,90.21 120.12,90.53 120.45,90.97 L113.34,90.97 C113.71,90.62 114.16,90.35 114.64,90.19 C117.9,89.53 116.98,87.53 117.4,83.17 C117.4,83.1 117.4,83.04 117.4,82.98 C117.33,84.62 117.29,86.14 117.29,87.34 C117.26,87.93 117.42,88.52 117.76,89.01 C118.09,89.5 118.58,89.86 119.15,90.04 Z" id="Path" fill="#F2EFF8"></path>
            <path d="M183.06,36.52 L183.06,59.36 C183.05,59.84 182.94,60.32 182.74,60.76 C182.54,61.2 182.25,61.59 181.89,61.91 C181.1,62.6 180.1,62.97 179.05,62.96 L178.86,62.96 C179.02,57.77 179.05,43.74 174.63,41.69 C169.17,39.14 158.74,45.02 158.74,45.02 C158.74,45.02 156.5,53.31 157.18,60.62 C157.37,62.73 158.1,64.75 159.3,66.5 C160.49,68.25 162.12,69.66 164.02,70.6 L163.81,75.76 C163.81,75.76 162.78,75.8 158.66,77.16 C155.9,78.06 152.67,81.06 150.86,82.91 C150.77,82.96 150.69,83.03 150.61,83.1 C150.37,83.3 150.16,83.53 149.98,83.79 L149.56,84.29 L149.42,84.44 C147.77,86.44 146.34,88.62 145.13,90.92 L131.16,90.92 C130.07,90.03 129.23,89.29 128.69,88.75 C122.45,82.46 121.59,76.6 121.19,73.93 C120.77,71.02 120.94,66.47 119.84,66.29 C118.51,66.07 118.28,67.7 118.23,68.93 C118.23,69.3 118.05,71.44 117.87,74.23 C117.92,72.41 117.92,71.11 117.92,70.93 C117.92,69.83 118.29,66.25 116.82,66.39 C115.35,66.53 115.26,71.54 114.87,73.71 C114.6,75.31 112.21,82.04 109.71,84.42 C108.15,85.89 102.17,87.95 94.93,90.93 L91.66,90.93 C89.84,80.66 77.9,75.33 77.44,75.16 L78.29,68.63 C79.33,68.56 80.37,68.44 81.41,68.26 C84.11,67.89 87.4,64.41 87.89,57.75 C88.37,51.08 85.59,43 85.59,43 L70.94,37.68 C70.94,37.68 59.62,48.92 60.02,52.99 C60.42,57.05 65.17,60.58 65.17,60.58 L63.61,72.98 L61.86,70.28 L60.18,72.56 C60.18,72.56 59.62,72.56 58.62,72.56 C58.78,71.98 58.86,71.38 58.86,70.78 C58.86,66.47 54.96,62.98 50.19,62.98 L49.31,62.98 C44.97,63.02 40.78,61.45 37.52,58.58 C36.01,57.25 34.79,55.62 33.95,53.79 C33.11,51.96 32.67,49.98 32.65,47.96 C32.65,39.67 40.11,32.95 49.31,32.95 L179.05,32.95 C180.06,32.9 181.04,33.25 181.79,33.92 C182.54,34.58 182.99,35.52 183.06,36.52 Z" id="Path" fill="#F2EFF8"></path>
            <path d="M117.86,100.59 C117.86,101.78 117.39,102.93 116.55,103.77 C115.7,104.62 114.56,105.09 113.36,105.09 L100.98,105.09 C102.79,102.79 104.48,100.61 106.1,98.67 C106.59,98.08 107.4,97.11 108.33,96.08 L113.34,96.08 C113.93,96.08 114.52,96.2 115.06,96.43 C115.61,96.65 116.11,96.98 116.53,97.4 C116.94,97.82 117.27,98.32 117.5,98.87 C117.73,99.41 117.84,100 117.84,100.59 L117.86,100.59 Z" id="Path" fill="#F2EFF8"></path>
            <path d="M148.14,0.57 L113.76,0.57 C111.03,0.57 108.82,2.79 108.82,5.52 C108.82,8.25 111.03,10.46 113.76,10.46 L148.14,10.46 C150.87,10.46 153.09,8.25 153.09,5.52 C153.09,2.79 150.87,0.57 148.14,0.57 Z" id="Path" fill="#F2EFF8"></path>
            <path d="M179.07,25.81 L151.58,25.81 C148.02,25.81 145.14,28.69 145.14,32.25 L145.14,32.26 C145.14,35.81 148.02,38.69 151.58,38.69 L179.07,38.69 C182.62,38.69 185.51,35.81 185.51,32.26 L185.51,32.25 C185.51,28.69 182.62,25.81 179.07,25.81 Z" id="Path" fill="#F2EFF8"></path>
            <path d="M143.49,14.02 L90.8,14.02 C83.98,14.02 78.46,19.54 78.46,26.36 L78.46,26.37 C78.46,33.18 83.98,38.71 90.8,38.71 L143.49,38.71 C150.31,38.71 155.83,33.18 155.83,26.37 L155.83,26.36 C155.83,19.54 150.31,14.02 143.49,14.02 Z" id="Path" fill="#F2EFF8"></path>
            <path d="M167.15,8.25 L161.24,8.25 C158.47,8.25 156.22,10.5 156.22,13.27 C156.22,16.04 158.47,18.29 161.24,18.29 L167.15,18.29 C169.92,18.29 172.17,16.04 172.17,13.27 C172.17,10.5 169.92,8.25 167.15,8.25 Z" id="Path" fill="#F2EFF8"></path>
            <path d="M65.77,14.08 L57.29,14.08 C53.31,14.08 50.08,17.31 50.08,21.28 C50.08,25.26 53.31,28.49 57.29,28.49 L65.77,28.49 C69.75,28.49 72.97,25.26 72.97,21.28 C72.97,17.31 69.75,14.08 65.77,14.08 Z" id="Path" fill="#F2EFF8"></path>
            <path d="M195.28,55.56 L186.8,55.56 C182.82,55.56 179.59,58.79 179.59,62.76 C179.59,66.74 182.82,69.97 186.8,69.97 L195.28,69.97 C199.26,69.97 202.49,66.74 202.49,62.76 C202.49,58.79 199.26,55.56 195.28,55.56 Z" id="Path" fill="#F2EFF8"></path>
            <path d="M152.83,146.63 L137.29,162.37 L129.28,162.3 C129.28,162.3 144.41,144.55 145.49,139.98 C146.58,135.41 142.82,125.79 142.82,125.79 L153.66,131.82 L153.66,132.02 C153.66,132.02 153,147.71 152.83,146.63 Z" id="Path" fill="#E6E2EE"></path>
            <path d="M174.96,162.41 L156.67,162.41 C155.44,158.37 154.41,154.28 153.6,150.14 C153.4,149.08 152.93,147.41 152.77,146.33 C152.41,144.07 150.87,143.21 150.78,141.28 C150.42,133.23 150.61,131.77 150.61,131.77 L153.66,132.02 L156.27,132.23 C156.27,132.23 158.16,159.71 174.96,162.41 Z" id="Path" fill="#E6E2EE"></path>
            <path d="M190.41,126.29 L187.92,123.61 C182.23,129.08 175.11,132.83 167.37,134.41 C155.21,136.84 142.84,129.33 133.18,113.67 C128.8,106.58 126.22,100.26 123.82,95.9 C129.18,104.12 142.93,120.51 150.9,125.83 C154.49,128.23 161.04,129.21 164.73,128.77 C170.58,127.97 176.16,125.84 181.05,122.53 L174.18,108.82 L188.92,118.64 C188.92,118.64 200.62,108.87 196.61,93.41 C204.02,111.53 190.41,126.29 190.41,126.29 Z" id="Path" fill="#E6E2EE"></path>
            <path d="M89.32,162.41 L73.33,162.41 C76.52,147.93 79.14,125.48 79.14,125.48 C78.54,125.75 77.92,126 77.31,126.22 C77.31,126.22 79.02,125.53 80.72,124.71 L80.81,124.67 C82.27,123.97 83.72,123.19 84.04,122.7 C84.04,122.7 80.4,144.23 84.54,153.7 C87.83,161.22 88.99,162.32 89.32,162.41 Z" id="Path" fill="#E6E2EE"></path>
            <path d="M20.01,128.51 C16.67,161.02 28.71,162.41 28.71,162.41 L1.29,162.41 C1.29,162.41 8.78,142.62 14.78,127.5 C21.18,111.36 25.27,91.55 32.77,82.13 C34.14,80.43 35.78,78.97 37.63,77.81 C37.27,78.14 23.39,95.54 20.01,128.51 Z" id="Path" fill="#E6E2EE"></path>
            <path d="M163.03,92.75 L167.94,87.48 L169.5,94.17 C169.5,94.17 173.74,93.74 179.14,89.69 C182.39,87.2 184.68,83.66 185.6,79.68 L184.2,79.27 C179.76,89.98 170.76,91.41 170.76,91.41 L168.99,83.48 L163.26,90.1 C163.26,90.1 162.34,89.45 160.87,86.62 C160.23,85.32 159.87,83.9 159.83,82.45 C159.51,86.17 160.66,89.87 163.03,92.75 Z" id="Path" fill="#E6E2EE"></path>
            <path d="M165.99,71.1 C162.79,71.1 160.11,69.39 158.43,66.29 C154.96,59.9 157.45,48.14 157.56,47.64 C157.58,47.53 157.64,47.44 157.73,47.38 C157.82,47.33 157.93,47.31 158.03,47.33 C158.13,47.35 158.22,47.41 158.28,47.5 C158.34,47.59 158.36,47.7 158.34,47.8 C158.34,47.93 155.8,59.78 159.12,65.92 C161.08,69.55 163.94,70.32 165.99,70.32 C168.64,70.32 170.99,69.03 171.64,67.85 C171.66,67.8 171.7,67.76 171.74,67.73 C171.77,67.7 171.82,67.67 171.87,67.66 C171.92,67.64 171.97,67.64 172.02,67.64 C172.07,67.65 172.12,67.67 172.17,67.69 C172.21,67.71 172.25,67.75 172.28,67.79 C172.32,67.83 172.34,67.87 172.36,67.92 C172.37,67.97 172.37,68.02 172.37,68.08 C172.36,68.13 172.35,68.18 172.32,68.22 C171.55,69.63 168.97,71.1 165.99,71.1 Z" id="Path" fill="#2C0F6B"></path>
            <path d="M164.97,61.97 L164.91,61.97 C164.73,61.95 164.55,61.89 164.38,61.8 C164.22,61.71 164.08,61.58 163.97,61.43 C163.55,60.8 163.81,59.87 164.1,58.74 C164.16,58.55 164.2,58.35 164.26,58.15 C164.49,57.16 164.65,56.15 164.74,55.13 C164.74,55.08 164.76,55.03 164.78,54.99 C164.8,54.94 164.83,54.9 164.87,54.87 C164.91,54.83 164.96,54.81 165,54.79 C165.05,54.78 165.1,54.77 165.16,54.77 C165.21,54.78 165.26,54.79 165.3,54.82 C165.35,54.84 165.39,54.87 165.42,54.91 C165.46,54.95 165.48,54.99 165.5,55.04 C165.51,55.09 165.52,55.14 165.51,55.19 C165.43,56.25 165.26,57.29 165.02,58.31 C164.96,58.52 164.91,58.73 164.85,58.92 C164.63,59.77 164.39,60.64 164.62,60.97 C164.62,61.01 164.72,61.13 165.02,61.17 C165.13,61.18 165.22,61.23 165.29,61.3 C165.36,61.38 165.39,61.48 165.39,61.59 C165.38,61.69 165.33,61.79 165.25,61.85 C165.17,61.92 165.07,61.96 164.97,61.95 L164.97,61.97 Z" id="Path" fill="#2C0F6B"></path>
            <path d="M172.62,52.88 C172.55,52.88 172.49,52.86 172.43,52.83 C172.37,52.8 172.32,52.75 172.28,52.69 C171.96,52.09 171.45,51.61 170.82,51.33 C170.2,51.04 169.5,50.98 168.83,51.13 C168.73,51.16 168.62,51.15 168.53,51.1 C168.44,51.05 168.37,50.97 168.34,50.87 C168.31,50.77 168.32,50.67 168.37,50.58 C168.42,50.49 168.5,50.42 168.6,50.39 C169.43,50.18 170.31,50.25 171.09,50.59 C171.88,50.92 172.53,51.51 172.96,52.25 C173.01,52.34 173.02,52.45 172.99,52.55 C172.97,52.65 172.9,52.73 172.81,52.78 C172.76,52.83 172.69,52.87 172.62,52.88 Z" id="Path" fill="#2C0F6B"></path>
            <path d="M159.36,51.86 C159.29,51.86 159.21,51.84 159.15,51.8 C159.06,51.75 159,51.66 158.98,51.56 C158.96,51.46 158.97,51.35 159.02,51.26 C159.43,50.69 160,50.26 160.67,50.04 C161.33,49.83 162.05,49.83 162.71,50.05 C162.82,50.08 162.9,50.15 162.96,50.25 C163.01,50.34 163.02,50.45 162.99,50.56 C162.96,50.66 162.89,50.75 162.8,50.8 C162.7,50.85 162.59,50.86 162.49,50.83 C162.41,50.83 160.58,50.28 159.69,51.72 C159.65,51.76 159.6,51.8 159.54,51.83 C159.48,51.85 159.42,51.86 159.36,51.86 Z" id="Path" fill="#2C0F6B"></path>
            <path d="M169.93,57.46 C169.88,57.46 169.83,57.45 169.78,57.43 C169.73,57.41 169.69,57.38 169.66,57.34 C169.62,57.3 169.6,57.26 169.58,57.21 C169.56,57.16 169.55,57.11 169.55,57.06 L169.66,54.2 C169.66,54.14 169.67,54.09 169.69,54.05 C169.71,54 169.74,53.96 169.78,53.92 C169.82,53.88 169.86,53.86 169.91,53.84 C169.96,53.82 170.01,53.82 170.06,53.82 C170.11,53.82 170.16,53.83 170.21,53.86 C170.26,53.88 170.3,53.91 170.34,53.94 C170.37,53.98 170.4,54.03 170.42,54.08 C170.44,54.12 170.45,54.18 170.44,54.23 L170.33,57.09 C170.33,57.14 170.32,57.19 170.3,57.24 C170.28,57.28 170.25,57.33 170.21,57.36 C170.17,57.4 170.13,57.42 170.08,57.44 C170.03,57.46 169.98,57.47 169.93,57.46 Z" id="Path" fill="#2C0F6B"></path>
            <path d="M161.5,56.65 C161.45,56.65 161.4,56.64 161.36,56.62 C161.31,56.6 161.27,56.57 161.23,56.53 C161.2,56.5 161.17,56.45 161.15,56.41 C161.13,56.36 161.12,56.31 161.12,56.26 L161.22,53.53 C161.22,53.48 161.23,53.43 161.26,53.38 C161.28,53.33 161.31,53.29 161.34,53.26 C161.38,53.22 161.43,53.19 161.48,53.18 C161.53,53.16 161.58,53.15 161.63,53.16 C161.68,53.16 161.73,53.17 161.78,53.19 C161.82,53.22 161.87,53.25 161.9,53.28 C161.94,53.32 161.96,53.37 161.98,53.41 C162,53.46 162.01,53.51 162,53.56 L161.9,56.28 C161.9,56.38 161.85,56.48 161.78,56.55 C161.71,56.62 161.61,56.66 161.5,56.65 Z" id="Path" fill="#2C0F6B"></path>
            <path d="M166.69,65.69 C166.62,65.7 166.55,65.68 166.48,65.64 C166.42,65.6 166.37,65.54 166.34,65.48 C166.32,65.43 166.31,65.38 166.3,65.33 C166.3,65.28 166.31,65.22 166.33,65.17 C166.34,65.13 166.37,65.08 166.4,65.04 C166.44,65.01 166.48,64.97 166.53,64.95 C166.83,64.83 167.1,64.64 167.31,64.4 C167.53,64.16 167.69,63.87 167.78,63.56 C167.25,64.01 166.62,64.32 165.95,64.45 C165.27,64.59 164.57,64.55 163.92,64.34 C163.87,64.32 163.82,64.29 163.78,64.26 C163.74,64.23 163.71,64.18 163.69,64.14 C163.66,64.09 163.65,64.04 163.65,63.99 C163.65,63.93 163.65,63.88 163.67,63.83 C163.69,63.78 163.72,63.74 163.75,63.7 C163.79,63.66 163.83,63.63 163.88,63.61 C163.92,63.59 163.98,63.58 164.03,63.58 C164.08,63.58 164.13,63.58 164.18,63.6 C164.86,63.83 165.59,63.81 166.26,63.56 C166.93,63.31 167.49,62.83 167.85,62.21 C167.9,62.15 167.95,62.1 168.02,62.07 C168.09,62.04 168.17,62.02 168.25,62.04 C168.32,62.05 168.39,62.08 168.45,62.14 C168.51,62.19 168.55,62.26 168.56,62.33 C168.71,63 168.62,63.69 168.31,64.29 C167.99,64.9 167.48,65.37 166.86,65.64 C166.81,65.67 166.75,65.69 166.69,65.69 Z" id="Path" fill="#2C0F6B"></path>
            <path d="M177.84,70.88 C180.96,73.3 185.46,72.44 188.12,70.88 C189.56,70.05 190.71,68.79 191.39,67.27 C182.88,68.33 188.02,53.93 183.59,45.1 C181.39,40.67 178.26,36.2 170.93,36.12 C156.7,35.96 157.18,49.58 157.18,49.58 C161.99,49.24 166.53,47.25 170.05,43.95 C170.05,43.95 178.56,47.42 178.31,56.43 C178.08,66.2 177.84,70.88 177.84,70.88 Z" id="Path" fill="#2C0F6B"></path>
            <path d="M163.95,78.63 C163.9,78.62 163.85,78.61 163.8,78.59 C163.76,78.57 163.71,78.54 163.68,78.5 C163.64,78.47 163.61,78.42 163.6,78.37 C163.58,78.32 163.57,78.27 163.57,78.22 L163.83,70.69 C163.83,70.63 163.84,70.58 163.85,70.53 C163.87,70.49 163.9,70.44 163.94,70.41 C163.98,70.37 164.02,70.34 164.07,70.33 C164.12,70.31 164.18,70.31 164.23,70.31 C164.28,70.31 164.33,70.32 164.38,70.34 C164.42,70.36 164.47,70.39 164.5,70.43 C164.54,70.47 164.56,70.51 164.58,70.56 C164.6,70.61 164.61,70.66 164.61,70.71 L164.35,78.25 C164.35,78.35 164.3,78.45 164.23,78.52 C164.16,78.59 164.06,78.63 163.95,78.63 Z" id="Path" fill="#2C0F6B"></path>
            <path d="M141.64,99.51 C141.6,99.52 141.55,99.52 141.51,99.51 C141.42,99.48 141.34,99.41 141.29,99.32 C141.24,99.23 141.23,99.12 141.26,99.02 C142.19,96.19 143.35,93.44 144.74,90.8 C146.08,88.22 147.73,85.81 149.63,83.6 C149.83,83.37 150.02,83.16 150.23,82.94 C157.02,75.64 163.75,75.28 164.04,75.27 C164.09,75.27 164.14,75.28 164.19,75.29 C164.24,75.31 164.28,75.34 164.32,75.37 C164.36,75.4 164.39,75.45 164.41,75.49 C164.43,75.54 164.44,75.59 164.45,75.64 C164.45,75.69 164.44,75.74 164.42,75.79 C164.4,75.84 164.38,75.88 164.34,75.92 C164.31,75.96 164.27,75.99 164.22,76.01 C164.17,76.03 164.12,76.04 164.07,76.04 C164,76.04 157.36,76.42 150.81,83.43 C150.58,83.68 150.38,83.89 150.2,84.11 C148.33,86.27 146.72,88.64 145.4,91.17 C144.03,93.77 142.89,96.47 141.98,99.26 C141.95,99.33 141.91,99.4 141.85,99.44 C141.79,99.48 141.71,99.51 141.64,99.51 Z" id="Path" fill="#2C0F6B"></path>
            <path d="M170.72,91.8 C170.63,91.8 170.54,91.77 170.48,91.71 C170.41,91.66 170.36,91.58 170.34,91.5 L168.72,84.32 L163.51,90.36 C163.45,90.43 163.36,90.47 163.26,90.49 C163.17,90.5 163.07,90.47 162.99,90.42 C162.89,90.35 161.95,89.64 160.47,86.8 C159.8,85.45 159.43,83.98 159.39,82.47 C159.33,81.2 159.43,79.93 159.69,78.69 C159.7,78.64 159.72,78.59 159.75,78.55 C159.78,78.5 159.82,78.47 159.87,78.44 C159.91,78.41 159.96,78.39 160.01,78.38 C160.06,78.37 160.12,78.38 160.17,78.39 C160.22,78.4 160.27,78.42 160.31,78.45 C160.35,78.48 160.39,78.52 160.42,78.57 C160.44,78.61 160.46,78.66 160.47,78.71 C160.48,78.76 160.48,78.82 160.47,78.87 C160.22,80.04 160.13,81.23 160.19,82.42 C160.22,83.82 160.56,85.19 161.18,86.43 C161.71,87.56 162.39,88.61 163.21,89.55 L168.67,83.24 C168.71,83.19 168.77,83.15 168.84,83.12 C168.91,83.1 168.98,83.1 169.06,83.12 C169.13,83.13 169.19,83.17 169.24,83.22 C169.29,83.27 169.33,83.34 169.34,83.41 L171.06,90.95 C172.75,90.54 180.05,88.29 183.84,79.13 C183.86,79.05 183.91,78.99 183.98,78.94 C184.05,78.89 184.13,78.86 184.21,78.86 C184.31,78.86 184.41,78.9 184.49,78.97 C184.56,79.05 184.6,79.15 184.6,79.25 C184.61,79.3 184.61,79.35 184.6,79.4 C180.14,90.18 170.95,91.75 170.86,91.77 L170.72,91.8 Z" id="Path" fill="#2C0F6B"></path>
            <path d="M219.69,162.79 C219.6,162.79 219.52,162.76 219.45,162.71 C219.38,162.66 219.33,162.59 219.31,162.51 C219.15,161.96 203.65,107.99 197.98,91.53 C192.52,75.69 178.2,75.82 178.03,75.83 C177.98,75.83 177.93,75.82 177.88,75.8 C177.83,75.78 177.78,75.75 177.74,75.71 C177.71,75.67 177.68,75.62 177.66,75.57 C177.64,75.52 177.63,75.47 177.64,75.41 L177.91,70.4 C177.91,70.35 177.92,70.3 177.95,70.25 C177.97,70.2 178,70.16 178.04,70.13 C178.08,70.09 178.12,70.07 178.17,70.05 C178.22,70.03 178.27,70.03 178.32,70.03 C178.37,70.03 178.42,70.05 178.47,70.07 C178.52,70.09 178.56,70.12 178.59,70.16 C178.62,70.2 178.65,70.24 178.67,70.29 C178.68,70.34 178.69,70.39 178.69,70.44 L178.44,75.05 C180.91,75.16 193.62,76.42 198.72,91.27 C204.4,107.79 219.9,161.78 220.06,162.32 C220.07,162.37 220.08,162.42 220.07,162.47 C220.07,162.52 220.05,162.57 220.03,162.62 C220,162.66 219.97,162.7 219.93,162.73 C219.89,162.77 219.84,162.79 219.79,162.8 C219.76,162.81 219.72,162.8 219.69,162.79 Z" id="Path" fill="#2C0F6B"></path>
            <path d="M181.24,53.9 C181.2,53.9 181.17,53.89 181.14,53.87 C181.11,53.85 181.08,53.82 181.07,53.79 C181.05,53.77 181.05,53.74 181.04,53.72 C181.04,53.69 181.04,53.66 181.05,53.64 C181.06,53.61 181.07,53.59 181.09,53.57 C181.11,53.55 181.13,53.54 181.15,53.53 C181.22,53.53 187.51,50.26 186.19,44.81 C185.01,39.91 180.12,39.35 180.08,39.35 C180.05,39.34 180.03,39.34 180,39.32 C179.98,39.31 179.96,39.3 179.94,39.28 C179.93,39.26 179.91,39.23 179.91,39.21 C179.9,39.19 179.9,39.16 179.9,39.13 C179.91,39.08 179.93,39.04 179.97,39 C180.01,38.97 180.06,38.95 180.12,38.96 C180.16,38.96 185.32,39.52 186.57,44.69 C187.96,50.44 181.4,53.81 181.32,53.85 C181.3,53.87 181.27,53.89 181.24,53.9 Z" id="Path" fill="#74DCB9"></path>
            <path d="M185.15,53.27 C185.23,51.08 183.84,49.26 182.05,49.19 C180.25,49.13 178.73,50.84 178.65,53.03 C178.57,55.21 179.96,57.03 181.76,57.1 C183.55,57.16 185.07,55.45 185.15,53.27 Z" id="Path" fill="#74DCB9"></path>
            <path d="M175.61,62.9 C175.57,62.9 175.53,62.89 175.5,62.87 C175.47,62.84 175.44,62.81 175.43,62.78 C175.42,62.75 175.41,62.73 175.41,62.7 C175.41,62.67 175.42,62.65 175.43,62.62 C175.44,62.6 175.45,62.58 175.47,62.56 C175.49,62.54 175.51,62.53 175.54,62.52 C181.45,60.18 182.09,52.95 182.1,52.88 C182.1,52.85 182.11,52.83 182.12,52.8 C182.13,52.78 182.15,52.76 182.16,52.74 C182.18,52.73 182.21,52.72 182.23,52.71 C182.26,52.7 182.28,52.7 182.31,52.7 C182.33,52.7 182.36,52.71 182.38,52.72 C182.4,52.73 182.42,52.75 182.44,52.77 C182.46,52.79 182.47,52.81 182.48,52.83 C182.49,52.86 182.49,52.88 182.49,52.91 C182.49,52.98 181.82,60.45 175.68,62.89 L175.61,62.9 Z" id="Path" fill="#74DCB9"></path>
            <path d="M174.97,64.52 C176.17,63.97 176.79,62.79 176.37,61.88 C175.95,60.97 174.65,60.68 173.45,61.24 C172.26,61.79 171.64,62.97 172.05,63.88 C172.47,64.78 173.78,65.07 174.97,64.52 Z" id="Path" fill="#74DCB9"></path>
            <path d="M164.62,96.44 L164.54,96.44 C164.49,96.43 164.44,96.41 164.4,96.38 C164.36,96.35 164.32,96.32 164.29,96.27 C164.26,96.23 164.24,96.18 164.23,96.13 C164.22,96.08 164.22,96.03 164.23,95.98 L164.92,92.49 C164.93,92.44 164.95,92.4 164.98,92.35 C165.01,92.31 165.04,92.27 165.09,92.24 C165.13,92.22 165.18,92.2 165.23,92.19 C165.28,92.18 165.33,92.18 165.38,92.19 C165.43,92.2 165.48,92.22 165.52,92.25 C165.56,92.28 165.6,92.31 165.63,92.36 C165.66,92.4 165.68,92.45 165.69,92.5 C165.7,92.55 165.7,92.6 165.69,92.65 L165,96.13 C164.98,96.22 164.93,96.3 164.86,96.35 C164.79,96.41 164.71,96.44 164.62,96.44 Z" id="Path" fill="#2C0F6B"></path>
            <path d="M163.63,104.17 L163.58,104.17 C163.48,104.16 163.38,104.11 163.32,104.03 C163.26,103.95 163.23,103.84 163.24,103.74 L163.67,100.22 C163.68,100.11 163.73,100.02 163.82,99.96 C163.9,99.89 164,99.86 164.1,99.87 C164.21,99.89 164.3,99.94 164.36,100.02 C164.43,100.1 164.46,100.21 164.45,100.31 L164.04,103.82 C164.03,103.92 163.98,104.01 163.9,104.08 C163.83,104.14 163.73,104.18 163.63,104.17 Z" id="Path" fill="#2C0F6B"></path>
            <path d="M162.82,111.5 L162.77,111.5 C162.72,111.5 162.67,111.48 162.63,111.46 C162.58,111.43 162.54,111.4 162.51,111.36 C162.48,111.32 162.46,111.27 162.44,111.22 C162.43,111.18 162.43,111.12 162.43,111.07 L162.92,107.24 C162.93,107.13 162.98,107.04 163.07,106.98 C163.15,106.91 163.25,106.88 163.35,106.89 C163.46,106.91 163.55,106.96 163.61,107.04 C163.67,107.12 163.7,107.23 163.69,107.33 L163.21,111.17 C163.19,111.26 163.15,111.34 163.08,111.41 C163.01,111.47 162.92,111.5 162.82,111.5 Z" id="Path" fill="#2C0F6B"></path>
            <path d="M78.84,69.07 C76.05,69.07 73.62,67.87 72.77,66.57 C72.72,66.49 72.7,66.38 72.72,66.28 C72.74,66.18 72.8,66.09 72.89,66.03 C72.97,65.98 73.08,65.96 73.18,65.98 C73.28,66 73.37,66.06 73.43,66.15 C74.21,67.34 76.78,68.49 79.57,68.26 C81.71,68.08 84.64,67.04 86.38,63.07 C89.35,56.37 85.71,44.2 85.67,44.08 C85.66,44.03 85.65,43.97 85.66,43.92 C85.67,43.87 85.68,43.82 85.71,43.77 C85.73,43.72 85.77,43.68 85.81,43.65 C85.85,43.62 85.9,43.59 85.95,43.58 C86,43.56 86.06,43.56 86.11,43.56 C86.16,43.57 86.21,43.59 86.26,43.61 C86.31,43.64 86.35,43.67 86.38,43.71 C86.41,43.75 86.44,43.8 86.45,43.85 C86.61,44.36 90.21,56.43 87.13,63.35 C85.64,66.72 82.99,68.73 79.67,69 C79.36,69.06 79.1,69.07 78.84,69.07 Z" id="Path" fill="#2C0F6B"></path>
            <path d="M79.88,59.42 C79.77,59.43 79.67,59.4 79.59,59.34 C79.51,59.27 79.46,59.18 79.45,59.08 C79.43,58.97 79.46,58.87 79.53,58.79 C79.59,58.71 79.69,58.65 79.79,58.64 C80.1,58.57 80.18,58.44 80.21,58.39 C80.42,58.02 80.1,57.12 79.78,56.26 C79.71,56.06 79.64,55.85 79.57,55.64 C79.22,54.58 78.96,53.5 78.79,52.4 C78.78,52.35 78.78,52.3 78.79,52.25 C78.8,52.2 78.82,52.15 78.85,52.11 C78.88,52.07 78.92,52.04 78.96,52.01 C79.01,51.98 79.06,51.97 79.11,51.96 C79.16,51.95 79.21,51.95 79.26,51.96 C79.31,51.97 79.35,51.99 79.4,52.02 C79.44,52.05 79.47,52.09 79.5,52.14 C79.53,52.18 79.54,52.23 79.55,52.28 C79.74,53.33 80,54.38 80.33,55.4 L80.54,56.01 C80.95,57.13 81.32,58.09 80.91,58.78 C80.81,58.95 80.67,59.09 80.51,59.2 C80.35,59.31 80.17,59.38 79.98,59.41 L79.88,59.42 Z" id="Path" fill="#2C0F6B"></path>
            <path d="M74.34,55.15 C74.24,55.15 74.15,55.11 74.08,55.05 C74.01,54.98 73.97,54.89 73.96,54.8 L73.6,51.82 C73.59,51.71 73.62,51.61 73.68,51.53 C73.74,51.45 73.84,51.39 73.94,51.38 C74.05,51.37 74.15,51.4 74.23,51.46 C74.31,51.53 74.37,51.62 74.38,51.72 L74.73,54.71 C74.74,54.81 74.71,54.92 74.65,55 C74.58,55.08 74.49,55.13 74.39,55.14 L74.34,55.15 Z" id="Path" fill="#2C0F6B"></path>
            <path d="M83.03,53.58 C82.93,53.58 82.84,53.54 82.77,53.48 C82.7,53.42 82.66,53.33 82.65,53.24 L82.31,50.41 C82.31,50.36 82.31,50.31 82.32,50.26 C82.34,50.21 82.36,50.16 82.39,50.12 C82.42,50.08 82.46,50.05 82.51,50.02 C82.55,50 82.6,49.98 82.65,49.98 C82.76,49.97 82.86,50 82.94,50.06 C83.02,50.13 83.07,50.22 83.08,50.32 L83.42,53.14 C83.43,53.19 83.42,53.25 83.41,53.3 C83.39,53.35 83.37,53.39 83.34,53.43 C83.31,53.47 83.27,53.51 83.22,53.53 C83.18,53.56 83.13,53.57 83.08,53.58 L83.03,53.58 Z" id="Path" fill="#2C0F6B"></path>
            <path d="M70.99,50.6 C70.93,50.62 70.87,50.62 70.81,50.6 C70.77,50.58 70.73,50.55 70.69,50.51 C70.66,50.47 70.63,50.43 70.62,50.38 C70.6,50.33 70.59,50.28 70.6,50.23 C70.6,50.17 70.61,50.12 70.64,50.08 C71,49.26 71.63,48.59 72.42,48.17 C73.21,47.75 74.11,47.59 75,47.74 C75.1,47.76 75.18,47.82 75.24,47.91 C75.3,48 75.32,48.1 75.3,48.21 C75.28,48.31 75.22,48.39 75.13,48.45 C75.04,48.5 74.94,48.52 74.84,48.5 C74.13,48.38 73.4,48.5 72.76,48.85 C72.13,49.19 71.62,49.74 71.34,50.4 C71.3,50.46 71.25,50.51 71.19,50.55 C71.13,50.58 71.06,50.6 70.99,50.6 Z" id="Path" fill="#2C0F6B"></path>
            <path d="M84.31,48.03 C84.22,48.03 84.13,47.99 84.06,47.93 C83.7,47.65 83.25,47.49 82.79,47.46 C82.33,47.44 81.88,47.55 81.48,47.79 C81.4,47.84 81.3,47.86 81.2,47.83 C81.1,47.81 81.02,47.75 80.96,47.66 C80.91,47.58 80.89,47.48 80.91,47.38 C80.93,47.28 80.98,47.2 81.06,47.14 C81.6,46.8 82.22,46.64 82.85,46.67 C83.48,46.71 84.08,46.94 84.57,47.34 C84.63,47.39 84.67,47.46 84.69,47.54 C84.71,47.62 84.71,47.7 84.68,47.77 C84.65,47.85 84.6,47.91 84.53,47.96 C84.47,48 84.39,48.03 84.31,48.03 Z" id="Path" fill="#2C0F6B"></path>
            <path d="M78.59,63.63 C78.54,63.63 78.49,63.63 78.44,63.63 C77.75,63.37 77.14,62.92 76.69,62.33 C76.25,61.73 75.99,61.02 75.95,60.28 C75.95,60.2 75.98,60.12 76.03,60.05 C76.08,59.98 76.14,59.93 76.22,59.91 C76.3,59.88 76.38,59.88 76.46,59.9 C76.54,59.93 76.61,59.98 76.66,60.05 C77.09,60.67 77.72,61.12 78.44,61.33 C79.17,61.54 79.94,61.49 80.63,61.19 C80.68,61.16 80.73,61.15 80.78,61.15 C80.83,61.15 80.88,61.15 80.93,61.17 C80.98,61.19 81.02,61.21 81.06,61.25 C81.1,61.28 81.13,61.33 81.15,61.37 C81.17,61.42 81.18,61.47 81.19,61.52 C81.19,61.57 81.18,61.62 81.17,61.67 C81.15,61.72 81.12,61.77 81.09,61.8 C81.05,61.84 81.01,61.87 80.96,61.9 C80.34,62.15 79.67,62.25 79.01,62.19 C78.34,62.14 77.7,61.92 77.13,61.57 C77.48,62.18 78.03,62.65 78.69,62.9 C78.74,62.91 78.79,62.93 78.84,62.96 C78.88,62.99 78.92,63.02 78.95,63.07 C78.98,63.11 79,63.16 79.01,63.21 C79.02,63.26 79.02,63.31 79.01,63.36 C79,63.41 78.98,63.46 78.96,63.51 C78.93,63.55 78.89,63.59 78.85,63.62 C78.81,63.65 78.76,63.67 78.71,63.68 C78.66,63.69 78.6,63.69 78.55,63.68 L78.59,63.63 Z" id="Path" fill="#2C0F6B"></path>
            <path d="M77.22,77.17 L77.16,77.17 C77.06,77.15 76.97,77.1 76.91,77.02 C76.85,76.93 76.82,76.83 76.83,76.73 L77.87,68.93 C77.89,68.83 77.94,68.74 78.02,68.68 C78.11,68.61 78.21,68.58 78.31,68.6 C78.41,68.61 78.51,68.66 78.57,68.74 C78.63,68.83 78.66,68.93 78.65,69.03 L77.6,76.83 C77.59,76.93 77.54,77.01 77.47,77.07 C77.4,77.13 77.31,77.17 77.22,77.17 Z" id="Path" fill="#2C0F6B"></path>
            <path d="M91.8,92.33 C91.71,92.33 91.61,92.29 91.54,92.23 C91.47,92.16 91.43,92.08 91.41,91.98 C91.41,91.66 91.33,91.34 91.27,91.03 C89.47,80.89 77.4,75.6 77.27,75.54 C77.22,75.53 77.17,75.5 77.13,75.46 C77.09,75.43 77.06,75.38 77.03,75.33 C77.01,75.28 77,75.23 77,75.18 C77,75.12 77.01,75.07 77.03,75.02 C77.05,74.97 77.09,74.92 77.13,74.88 C77.17,74.85 77.22,74.82 77.27,74.8 C77.32,74.79 77.38,74.78 77.43,74.79 C77.48,74.79 77.54,74.81 77.58,74.84 C77.71,74.88 90.17,80.34 92.05,90.9 C92.1,91.22 92.15,91.56 92.19,91.89 C92.19,91.94 92.19,92 92.18,92.04 C92.16,92.09 92.14,92.14 92.11,92.18 C92.08,92.22 92.04,92.25 91.99,92.28 C91.95,92.3 91.9,92.32 91.85,92.32 L91.8,92.33 Z" id="Path" fill="#2C0F6B"></path>
            <path d="M68.98,44.54 C72.37,45.25 75.82,45.55 79.28,45.46 C82.01,45.43 84.73,44.96 87.31,44.06 C87.31,44.06 86.98,31.92 73.92,31.58 C62.92,31.28 58.74,37.52 57.53,41.28 C56.32,45.04 55.62,51.79 60.46,56.64 C65.31,61.49 64.65,64.04 64.65,64.04 C64.65,64.04 66.99,58.14 64.72,56.97 C62.45,55.81 60.49,53.55 61.52,50.83 C62.18,49.11 63.81,48.81 64.64,49.32 C65.81,50.05 66.27,51.66 66.25,51.27 C66.08,46.19 67.59,44.37 68.98,44.54 Z" id="Path" fill="#2C0F6B"></path>
            <path d="M64.65,64.46 L64.54,64.46 C64.45,64.43 64.37,64.37 64.32,64.29 C64.27,64.2 64.25,64.1 64.27,64.01 C64.27,64.01 64.67,61.41 60.18,56.93 C54.5,51.22 56.4,43.42 57.18,41.16 C57.96,38.74 61.52,30.84 73.95,31.19 C87.21,31.55 87.72,43.95 87.72,44.08 C87.73,44.16 87.71,44.23 87.67,44.3 C87.62,44.37 87.56,44.42 87.49,44.45 C87.37,44.5 84.56,45.66 79.32,45.87 C75.82,45.97 72.31,45.66 68.88,44.95 C68.71,44.93 68.54,44.95 68.38,45.01 C68.22,45.06 68.07,45.15 67.95,45.27 C67.5,45.68 66.47,47.07 66.59,51.29 C66.59,51.38 66.56,51.48 66.51,51.56 C66.46,51.63 66.38,51.7 66.29,51.73 C65.96,51.81 65.83,51.54 65.71,51.32 C65.41,50.67 64.96,50.11 64.39,49.69 C64.2,49.59 64,49.53 63.79,49.52 C63.59,49.51 63.38,49.54 63.19,49.61 C62.88,49.73 62.6,49.91 62.37,50.15 C62.14,50.39 61.96,50.68 61.86,51 C60.89,53.56 62.78,55.6 64.87,56.66 C67.41,57.94 65.24,63.57 64.98,64.21 C64.96,64.28 64.91,64.34 64.85,64.39 C64.8,64.43 64.73,64.46 64.65,64.46 Z M73.14,31.96 C61.86,31.96 58.62,39.15 57.9,41.42 C57.17,43.69 55.36,51.01 60.74,56.39 C63.37,59.02 64.41,61.07 64.82,62.39 C65.35,60.51 65.76,57.99 64.55,57.38 C62.16,56.16 60,53.78 61.17,50.74 C61.31,50.32 61.54,49.93 61.86,49.61 C62.17,49.29 62.55,49.05 62.97,48.89 C63.27,48.78 63.59,48.74 63.92,48.76 C64.24,48.79 64.55,48.89 64.83,49.05 C65.22,49.3 65.56,49.62 65.84,50 C65.92,47.44 66.49,45.58 67.46,44.71 C67.67,44.51 67.91,44.36 68.18,44.27 C68.45,44.18 68.74,44.15 69.02,44.19 C72.37,44.88 75.79,45.19 79.22,45.1 C81.81,45.04 84.38,44.62 86.86,43.83 C86.73,42.01 85.47,32.29 73.86,31.97 L73.14,31.96 Z" id="Shape" fill="#2C0F6B"></path>
            <path d="M63.51,73.24 L63.42,73.24 C63.32,73.23 63.22,73.18 63.16,73.1 C63.1,73.01 63.07,72.91 63.08,72.81 L64.76,60.23 C64.78,60.13 64.83,60.04 64.92,59.98 C65,59.91 65.1,59.88 65.21,59.9 C65.26,59.9 65.31,59.92 65.35,59.95 C65.4,59.97 65.43,60 65.46,60.05 C65.5,60.09 65.52,60.13 65.53,60.18 C65.54,60.23 65.54,60.28 65.53,60.34 L63.89,72.9 C63.88,72.99 63.83,73.08 63.76,73.14 C63.69,73.21 63.6,73.24 63.51,73.24 Z" id="Path" fill="#2C0F6B"></path>
            <path d="M70.08,83.36 C70.02,83.36 69.96,83.34 69.91,83.31 C69.86,83.28 69.81,83.24 69.78,83.19 L61.81,70.96 L58.45,75.51 C58.39,75.59 58.3,75.64 58.2,75.66 C58.09,75.68 57.99,75.65 57.91,75.59 C57.82,75.53 57.77,75.44 57.75,75.33 C57.74,75.23 57.77,75.13 57.83,75.05 L61.52,70.05 C61.55,70 61.6,69.96 61.66,69.93 C61.71,69.9 61.77,69.89 61.84,69.89 C61.9,69.89 61.96,69.9 62.02,69.93 C62.07,69.96 62.12,70.01 62.16,70.06 L70.12,82.32 L77.28,73.84 L77.59,74.08 L77.87,74.34 L70.38,83.22 C70.34,83.26 70.3,83.3 70.24,83.32 C70.19,83.35 70.14,83.36 70.08,83.36 Z" id="Path" fill="#2C0F6B"></path>
            <path d="M1.29,162.79 C1.24,162.8 1.19,162.8 1.14,162.79 C1.1,162.77 1.05,162.74 1.02,162.71 C0.98,162.67 0.95,162.63 0.93,162.59 C0.91,162.54 0.89,162.49 0.89,162.44 C0.89,162.39 0.9,162.34 0.92,162.29 C1,162.09 8.48,142.32 14.41,127.38 C16.59,121.92 18.52,115.94 20.37,110.22 C22.65,103.2 24.8,96.49 27.32,90.86 C28.09,89.12 28.94,87.42 29.88,85.76 C30.65,84.4 31.52,83.09 32.49,81.86 C33.59,80.48 34.88,79.25 36.32,78.22 C36.68,77.96 37.05,77.7 37.43,77.44 C40.83,75.33 44.59,73.88 48.52,73.13 C51.86,72.45 55.26,72.11 58.66,72.1 C59.64,72.1 60.22,72.1 60.22,72.1 C60.32,72.1 60.42,72.15 60.49,72.23 C60.56,72.3 60.59,72.4 60.59,72.5 C60.59,72.55 60.57,72.61 60.55,72.65 C60.53,72.7 60.5,72.74 60.46,72.77 C60.42,72.81 60.38,72.84 60.33,72.85 C60.28,72.87 60.23,72.87 60.18,72.87 C60.18,72.87 59.61,72.87 58.67,72.87 C55.32,72.88 51.99,73.22 48.71,73.88 C44.88,74.61 41.21,76.04 37.89,78.09 C37.51,78.32 37.17,78.56 36.81,78.83 C35.43,79.82 34.19,81 33.12,82.33 C32.18,83.52 31.33,84.78 30.59,86.11 C29.67,87.72 28.83,89.38 28.08,91.08 C25.57,96.68 23.4,103.32 21.16,110.36 C19.3,116.13 17.38,122.06 15.18,127.6 C9.21,142.58 1.72,162.32 1.65,162.54 C1.62,162.61 1.57,162.67 1.51,162.72 C1.44,162.76 1.36,162.79 1.29,162.79 Z" id="Path" fill="#2C0F6B"></path>
            <path d="M68.67,92.34 L68.61,92.34 C68.51,92.32 68.42,92.27 68.36,92.19 C68.29,92.11 68.27,92 68.28,91.9 L68.88,87.83 C68.89,87.73 68.95,87.63 69.03,87.57 C69.11,87.51 69.21,87.48 69.32,87.49 C69.42,87.51 69.51,87.56 69.57,87.64 C69.64,87.73 69.67,87.83 69.65,87.93 L69.08,92 C69.07,92.1 69.02,92.19 68.94,92.25 C68.87,92.31 68.77,92.35 68.67,92.34 Z" id="Path" fill="#2C0F6B"></path>
            <path d="M67.54,100.44 L67.48,100.44 C67.43,100.44 67.38,100.42 67.34,100.39 C67.3,100.37 67.26,100.33 67.23,100.29 C67.2,100.25 67.18,100.21 67.16,100.16 C67.15,100.11 67.15,100.06 67.16,100.01 L67.72,95.93 C67.73,95.83 67.79,95.74 67.87,95.68 C67.95,95.61 68.06,95.59 68.16,95.6 C68.21,95.61 68.26,95.62 68.31,95.65 C68.35,95.68 68.39,95.71 68.42,95.75 C68.45,95.79 68.47,95.84 68.48,95.89 C68.5,95.94 68.5,95.99 68.49,96.04 L67.93,100.12 C67.91,100.21 67.86,100.29 67.79,100.35 C67.72,100.41 67.63,100.44 67.54,100.44 Z" id="Path" fill="#2C0F6B"></path>
            <path d="M162.91,135.24 C152.11,135.24 141.37,127.68 132.84,113.87 C130.37,109.78 128.11,105.56 126.09,101.22 C125.13,99.26 124.31,97.58 123.5,96.08 C122.53,94.37 121.41,92.75 120.16,91.22 C119.57,90.6 119.26,90.44 119.1,90.44 L118.99,90.44 C118.36,90.23 117.81,89.81 117.44,89.26 C117.07,88.7 116.88,88.04 116.92,87.37 C116.92,86.24 116.92,84.76 117.02,82.99 C117.14,80.01 117.34,76.62 117.48,74.34 C117.61,72.23 117.73,70.51 117.79,69.66 L117.84,69.02 C117.92,67.92 118.08,66.81 118.75,66.29 C118.91,66.16 119.09,66.07 119.29,66.03 C119.49,65.98 119.7,65.98 119.9,66.02 C120.91,66.19 121.09,67.94 121.3,71.01 C121.37,72.03 121.44,73.1 121.58,73.99 C121.98,76.73 122.83,82.41 128.96,88.6 C129.5,89.14 130.34,89.88 131.4,90.75 C133.33,92.31 135.97,94.35 139.03,96.7 C145.72,101.85 154.04,108.26 159.66,113.59 C159.74,113.66 159.78,113.76 159.79,113.87 C159.79,113.97 159.75,114.07 159.68,114.15 C159.61,114.22 159.51,114.27 159.41,114.27 C159.3,114.27 159.2,114.23 159.13,114.16 C153.53,108.86 145.23,102.46 138.55,97.32 C135.49,94.98 132.85,92.93 130.91,91.35 C129.84,90.47 128.97,89.71 128.41,89.16 C122.09,82.78 121.23,76.93 120.81,74.12 C120.67,73.19 120.59,72.1 120.52,71.06 C120.41,69.59 120.23,66.87 119.74,66.79 C119.65,66.77 119.56,66.77 119.46,66.79 C119.37,66.8 119.28,66.84 119.21,66.9 C118.72,67.28 118.64,68.46 118.6,69.08 L118.55,69.71 C118.49,70.61 118.37,72.32 118.24,74.39 C118.09,76.73 117.9,80.09 117.78,83.06 C117.71,84.83 117.68,86.29 117.68,87.42 C117.63,87.93 117.76,88.44 118.04,88.86 C118.33,89.29 118.75,89.6 119.24,89.76 C119.82,89.94 120.34,90.31 120.71,90.79 C122,92.36 123.16,94.03 124.16,95.8 C124.99,97.32 125.85,99.1 126.76,100.98 C128.78,105.29 131.02,109.49 133.48,113.56 C143.02,129.01 155.32,136.5 167.27,134.13 C174.94,132.52 182,128.77 187.63,123.32 C187.67,123.28 187.71,123.25 187.76,123.23 C187.81,123.21 187.86,123.2 187.91,123.2 C187.96,123.2 188.01,123.2 188.06,123.22 C188.11,123.24 188.15,123.27 188.19,123.3 C188.23,123.34 188.26,123.38 188.28,123.43 C188.3,123.48 188.31,123.53 188.31,123.58 C188.31,123.63 188.3,123.68 188.29,123.73 C188.27,123.78 188.24,123.82 188.2,123.86 C182.44,129.37 175.25,133.15 167.45,134.78 C165.95,135.08 164.43,135.23 162.91,135.24 Z" id="Path" fill="#2C0F6B"></path>
            <path d="M190.41,126.68 C190.36,126.68 190.3,126.67 190.25,126.65 C190.2,126.62 190.16,126.59 190.12,126.55 L173.88,109.09 L173.84,109.03 L170.58,105.53 L159.66,114.11 C159.57,114.17 159.47,114.2 159.37,114.19 C159.26,114.17 159.17,114.12 159.1,114.04 C159.04,113.96 159.01,113.85 159.02,113.75 C159.04,113.65 159.09,113.56 159.17,113.49 L170.4,104.7 C170.47,104.64 170.56,104.6 170.66,104.6 C170.76,104.6 170.85,104.64 170.92,104.7 L174.46,108.51 L174.51,108.56 L190.42,125.68 C192.3,123.43 202.9,109.76 196.26,93.52 C196.26,93.51 196.26,93.49 196.26,93.47 C195.21,90.93 193.85,88.53 192.24,86.31 C192.18,86.23 192.15,86.12 192.17,86.02 C192.18,85.92 192.24,85.82 192.32,85.76 C192.41,85.7 192.51,85.68 192.61,85.69 C192.72,85.71 192.81,85.77 192.87,85.85 C194.53,88.13 195.91,90.6 196.99,93.2 C197,93.22 197,93.24 196.99,93.26 C204.39,111.39 190.85,126.37 190.72,126.52 C190.68,126.56 190.64,126.59 190.59,126.62 C190.54,126.64 190.48,126.65 190.43,126.65 L190.41,126.68 Z" id="Path" fill="#2C0F6B"></path>
            <path d="M170.62,105.38 C170.57,105.38 170.51,105.37 170.46,105.35 C170.41,105.32 170.36,105.29 170.33,105.25 C170.26,105.17 170.23,105.06 170.24,104.96 C170.25,104.86 170.3,104.76 170.37,104.69 L175.96,99.92 C176,99.89 176.04,99.86 176.09,99.84 C176.14,99.83 176.19,99.82 176.24,99.82 C176.29,99.83 176.34,99.84 176.39,99.86 C176.43,99.89 176.47,99.92 176.5,99.96 C176.58,100.03 176.62,100.13 176.62,100.24 C176.62,100.34 176.58,100.44 176.5,100.51 L170.92,105.29 C170.88,105.32 170.83,105.35 170.78,105.36 C170.73,105.38 170.68,105.38 170.62,105.38 Z" id="Path" fill="#2C0F6B"></path>
            <path d="M106.1,98.67 C103.16,102.2 99.99,106.47 96.31,110.9 C84.13,125.5 74.64,129.72 61.27,126.91 C54.67,125.37 48.6,122.07 43.72,117.36 L41.5,119.79 C41.5,119.79 23.16,103.29 35.63,85.78 C35.52,86.07 32.6,94.19 36.77,101.02 C41.01,107.99 47.9,112.78 47.9,112.78 L55.7,103.31 L55.52,104.43 L53.96,114.3 C53.96,114.3 57.79,120.84 73.65,119.52 C84.85,118.59 98.83,106.01 106.1,98.67 Z" id="Path" fill="#E6E2EE"></path>
            <path d="M68.58,128.120139 C66.09,128.1 63.62,127.82 61.19,127.28 C50.67,125.07 43.51,117.7 43.44,117.63 C43.4,117.59 43.36,117.55 43.34,117.5 C43.32,117.45 43.31,117.4 43.31,117.34 C43.31,117.29 43.32,117.24 43.34,117.19 C43.36,117.14 43.39,117.09 43.43,117.05 C43.47,117.02 43.51,116.99 43.56,116.97 C43.61,116.95 43.67,116.94 43.72,116.95 C43.77,116.95 43.83,116.96 43.87,116.99 C43.92,117.01 43.96,117.05 44,117.09 C44.07,117.16 51.08,124.35 61.35,126.53 C67.37,127.8 72.41,127.58 77.18,125.86 C77.77,125.64 78.38,125.39 78.98,125.12 C79.58,124.85 80.01,124.65 80.54,124.34 L80.66,124.29 C81.73,123.7 82.78,123.06 83.78,122.35 C87.62,119.72 91.58,115.88 95.98,110.65 C97.58,108.74 99.1,106.82 100.66,104.86 L101.66,103.58 C103.1,101.75 104.46,100.01 105.77,98.42 C106.08,98.06 106.9,97.08 108.01,95.83 C109.59,94 111.28,92.28 113.07,90.67 C113.49,90.27 113.99,89.96 114.55,89.78 C116.73,89.34 116.76,88.38 116.83,85.83 C116.83,85.05 116.88,84.15 116.98,83.12 C116.99,83.07 116.99,83.02 116.98,82.97 C117.26,80.01 117.39,76.64 117.44,74.31 C117.49,72.45 117.49,71.15 117.49,70.97 C117.49,70.79 117.49,70.6 117.49,70.37 C117.49,69.41 117.59,67.42 117.06,66.91 C117.03,66.88 116.98,66.85 116.94,66.83 C116.89,66.82 116.84,66.81 116.8,66.82 C115.98,66.89 115.62,70.2 115.42,71.98 C115.35,72.67 115.28,73.31 115.2,73.82 C114.95,75.32 112.54,82.26 109.92,84.74 C108.72,85.87 105.24,87.25 100.39,89.17 C98.73,89.83 96.92,90.54 95.03,91.32 C90.7,93.08 87.01,94.75 83.75,96.43 C80.07,98.26 76.56,100.41 73.26,102.86 C72.16,103.7 71.1,104.59 70.09,105.53 C70.05,105.57 70.01,105.6 69.96,105.62 C69.91,105.64 69.86,105.65 69.8,105.65 C69.75,105.65 69.7,105.64 69.65,105.62 C69.6,105.6 69.56,105.57 69.52,105.53 C69.48,105.49 69.45,105.44 69.44,105.39 C69.42,105.34 69.41,105.29 69.42,105.23 C69.42,105.18 69.43,105.13 69.46,105.08 C69.48,105.03 69.52,104.99 69.56,104.96 C70.59,104 71.67,103.09 72.79,102.24 C76.12,99.76 79.67,97.59 83.39,95.73 C86.68,94.05 90.41,92.37 94.73,90.6 C96.62,89.82 98.44,89.1 100.11,88.45 C104.76,86.66 108.35,85.2 109.44,84.17 C111.78,81.95 114.21,75.37 114.49,73.68 C114.57,73.2 114.63,72.57 114.71,71.89 C115.07,68.53 115.44,66.15 116.8,66.04 C116.95,66.02 117.11,66.04 117.26,66.09 C117.41,66.15 117.55,66.23 117.66,66.34 C118.39,67.04 118.39,68.68 118.33,70.38 C118.33,70.62 118.33,70.81 118.33,70.96 C118.33,71.11 118.33,72.45 118.29,74.28 C118.23,76.66 118.11,80.06 117.82,82.99 C117.83,83.06 117.83,83.13 117.82,83.2 C117.73,84.2 117.71,85.07 117.68,85.85 C117.61,88.42 117.57,89.98 114.77,90.53 C114.34,90.68 113.96,90.93 113.64,91.25 C111.86,92.82 110.2,94.52 108.67,96.32 C107.57,97.56 106.75,98.54 106.44,98.9 C105.13,100.46 103.78,102.21 102.34,104.04 L101.34,105.31 C99.78,107.28 98.26,109.21 96.66,111.14 C92.24,116.44 88.2,120.32 84.31,122.99 C83.25,123.72 82.16,124.39 81.03,125 L80.95,125 C80.41,125.29 79.86,125.55 79.39,125.78 C78.76,126.06 78.13,126.31 77.52,126.56 C74.66,127.6 71.63,128.13 68.58,128.120139 Z" id="Path" fill="#2C0F6B"></path>
            <path d="M41.5,120.2 C41.4,120.2 41.31,120.16 41.24,120.1 C41.06,119.93 22.78,103.16 35.31,85.58 C35.68,85.05 36.09,84.5 36.6,83.9 C36.63,83.85 36.67,83.81 36.71,83.79 C36.76,83.76 36.81,83.74 36.86,83.73 C36.92,83.72 36.97,83.72 37.02,83.74 C37.08,83.75 37.13,83.78 37.17,83.81 C37.21,83.85 37.24,83.89 37.27,83.94 C37.29,83.99 37.31,84.04 37.31,84.09 C37.31,84.15 37.3,84.2 37.28,84.25 C37.27,84.31 37.23,84.35 37.2,84.39 C36.71,84.99 36.29,85.53 35.93,86.04 C24.68,101.85 39.24,117.08 41.48,119.22 L60.69,98.16 C60.76,98.09 60.85,98.05 60.95,98.04 C61.04,98.03 61.14,98.06 61.22,98.12 L72.44,106.94 C72.52,107 72.58,107.1 72.59,107.2 C72.6,107.3 72.57,107.41 72.51,107.49 C72.44,107.57 72.35,107.62 72.25,107.63 C72.15,107.65 72.04,107.62 71.96,107.56 L61.04,98.98 L41.81,120.04 C41.78,120.09 41.73,120.13 41.68,120.15 C41.62,120.18 41.56,120.2 41.5,120.2 Z" id="Path" fill="#2C0F6B"></path>
            <path d="M60.98,98.84 C60.88,98.84 60.79,98.81 60.72,98.75 L55.14,93.97 C55.1,93.93 55.07,93.89 55.05,93.84 C55.03,93.8 55.02,93.75 55.02,93.7 C55.02,93.64 55.03,93.59 55.05,93.55 C55.07,93.5 55.1,93.46 55.14,93.42 C55.2,93.34 55.3,93.3 55.4,93.29 C55.5,93.28 55.6,93.31 55.68,93.38 L61.27,98.16 C61.35,98.23 61.39,98.32 61.4,98.42 C61.41,98.53 61.38,98.63 61.31,98.71 C61.27,98.76 61.22,98.79 61.16,98.82 C61.1,98.84 61.04,98.85 60.98,98.84 Z" id="Path" fill="#2C0F6B"></path>
            <path d="M73.33,162.79 L73.25,162.79 C73.2,162.78 73.15,162.76 73.11,162.73 C73.07,162.7 73.03,162.66 73,162.62 C72.98,162.58 72.96,162.53 72.95,162.48 C72.94,162.43 72.94,162.38 72.95,162.33 C76.07,148.04 78.73,125.67 78.75,125.44 C78.77,125.34 78.82,125.24 78.9,125.18 C78.98,125.11 79.08,125.08 79.19,125.09 C79.29,125.11 79.39,125.16 79.45,125.24 C79.52,125.32 79.55,125.42 79.53,125.53 C79.53,125.75 76.88,148.15 73.72,162.49 C73.7,162.58 73.65,162.65 73.58,162.71 C73.51,162.76 73.42,162.79 73.33,162.79 Z" id="Path" fill="#2C0F6B"></path>
            <path d="M157.02,162.79 C156.94,162.79 156.86,162.76 156.79,162.71 C156.73,162.67 156.68,162.6 156.65,162.52 C153.39,152.43 151.18,142.03 150.05,131.48 C150.04,131.43 150.05,131.38 150.06,131.33 C150.08,131.28 150.11,131.23 150.14,131.19 C150.17,131.15 150.21,131.12 150.26,131.1 C150.3,131.08 150.35,131.06 150.41,131.06 C150.51,131.05 150.61,131.08 150.69,131.15 C150.76,131.21 150.81,131.31 150.83,131.41 C151.95,141.89 154.16,152.24 157.39,162.27 C157.41,162.32 157.42,162.37 157.42,162.43 C157.41,162.48 157.4,162.53 157.37,162.58 C157.35,162.62 157.32,162.66 157.28,162.7 C157.24,162.73 157.19,162.76 157.14,162.77 L157.02,162.79 Z" id="Path" fill="#2C0F6B"></path>
            <path d="M154.06,99.57 C154.73,99.57 155.26,99.03 155.26,98.37 C155.26,97.7 154.73,97.17 154.06,97.17 C153.4,97.17 152.86,97.7 152.86,98.37 C152.86,99.03 153.4,99.57 154.06,99.57 Z" id="Path" fill="#2C0F6B"></path>
            <path d="M154.78,100.25 L157.7,96.93 C157.76,96.87 157.83,96.82 157.91,96.79 C157.99,96.76 158.08,96.76 158.17,96.78 L159.93,97.14 C160.01,97.16 160.08,97.2 160.15,97.26 C160.21,97.31 160.25,97.38 160.28,97.46 C160.31,97.54 160.31,97.62 160.3,97.7 C160.28,97.78 160.25,97.86 160.19,97.92 L156.12,102.56 C156.07,102.62 156,102.66 155.92,102.68 C155.85,102.7 155.77,102.71 155.69,102.69 C155.62,102.68 155.54,102.64 155.48,102.59 C155.42,102.54 155.37,102.48 155.34,102.41 L154.73,100.72 C154.69,100.65 154.68,100.56 154.69,100.48 C154.7,100.4 154.73,100.32 154.78,100.25 Z" id="Path" fill="#74DCB9"></path>
            <path d="M114.49,60.64 C114.44,60.64 114.39,60.63 114.34,60.61 C114.29,60.59 114.24,60.55 114.21,60.51 L106.17,51.61 C106.14,51.58 106.11,51.54 106.09,51.49 C106.07,51.44 106.06,51.39 106.06,51.34 C106.06,51.29 106.07,51.24 106.09,51.19 C106.11,51.15 106.14,51.1 106.17,51.07 C106.21,51.03 106.25,51 106.3,50.98 C106.35,50.96 106.4,50.95 106.45,50.95 C106.5,50.95 106.55,50.96 106.6,50.98 C106.65,51 106.69,51.03 106.73,51.07 L114.76,59.97 C114.8,60 114.82,60.05 114.84,60.09 C114.86,60.14 114.87,60.19 114.87,60.24 C114.87,60.29 114.86,60.34 114.84,60.39 C114.82,60.44 114.8,60.48 114.76,60.51 C114.69,60.59 114.6,60.63 114.49,60.64 Z" id="Path" fill="#74DCB9"></path>
            <path d="M117.72,59.51 C117.63,59.51 117.54,59.48 117.47,59.42 C117.4,59.36 117.36,59.28 117.34,59.19 L112.56,34.15 C112.54,34.05 112.56,33.94 112.62,33.86 C112.68,33.78 112.77,33.72 112.87,33.7 C112.97,33.68 113.08,33.7 113.16,33.76 C113.25,33.82 113.31,33.91 113.32,34.01 L118.07,59.05 C118.09,59.15 118.07,59.25 118.01,59.34 C117.95,59.42 117.86,59.48 117.76,59.5 L117.72,59.51 Z" id="Path" fill="#74DCB9"></path>
            <path d="M120.75,59.75 C120.7,59.76 120.65,59.76 120.6,59.75 C120.55,59.73 120.51,59.7 120.47,59.67 C120.44,59.63 120.41,59.59 120.39,59.54 C120.37,59.49 120.36,59.44 120.36,59.39 C120.36,59.34 120.36,59.29 120.38,59.24 L127.03,42.63 C127.05,42.58 127.08,42.54 127.11,42.5 C127.15,42.46 127.19,42.44 127.24,42.41 C127.28,42.39 127.34,42.38 127.39,42.38 C127.44,42.38 127.49,42.39 127.54,42.41 C127.58,42.43 127.63,42.46 127.66,42.49 C127.7,42.53 127.73,42.57 127.75,42.62 C127.77,42.67 127.78,42.72 127.78,42.77 C127.78,42.82 127.77,42.87 127.75,42.92 L121.14,59.51 C121.11,59.58 121.05,59.65 120.98,59.69 C120.91,59.73 120.83,59.76 120.75,59.75 Z" id="Path" fill="#74DCB9"></path>
            <path d="M124.03,60.97 C123.97,60.97 123.92,60.96 123.87,60.94 C123.82,60.92 123.77,60.88 123.74,60.84 C123.7,60.81 123.67,60.76 123.65,60.72 C123.63,60.67 123.62,60.62 123.62,60.57 C123.62,60.52 123.63,60.47 123.65,60.42 C123.67,60.37 123.7,60.33 123.74,60.3 L127.75,56.62 C127.79,56.59 127.84,56.56 127.89,56.54 C127.93,56.52 127.98,56.52 128.04,56.52 C128.09,56.52 128.14,56.53 128.18,56.56 C128.23,56.58 128.27,56.61 128.31,56.65 C128.34,56.68 128.37,56.73 128.39,56.78 C128.41,56.82 128.41,56.88 128.41,56.93 C128.41,56.98 128.4,57.03 128.38,57.08 C128.35,57.12 128.32,57.16 128.28,57.2 L124.26,60.87 C124.19,60.93 124.11,60.97 124.03,60.97 Z" id="Path" fill="#74DCB9"></path>
            <path d="M97.79,162.79 C97.73,162.8 97.67,162.8 97.61,162.79 C82.68,155.26 88.87,119.69 89.14,118.17 C89.16,118.07 89.22,117.98 89.31,117.92 C89.39,117.86 89.5,117.84 89.6,117.86 C89.65,117.87 89.7,117.89 89.74,117.91 C89.78,117.94 89.82,117.98 89.85,118.02 C89.88,118.06 89.9,118.11 89.91,118.16 C89.92,118.21 89.92,118.26 89.91,118.31 C89.85,118.67 83.55,154.82 97.96,162.09 C98,162.12 98.05,162.15 98.08,162.19 C98.11,162.22 98.14,162.27 98.16,162.32 C98.17,162.37 98.18,162.42 98.18,162.47 C98.17,162.52 98.16,162.57 98.14,162.62 C98.1,162.67 98.05,162.72 97.98,162.75 C97.92,162.78 97.86,162.79 97.79,162.79 Z" id="Path" fill="#2C0F6B"></path>
            <path d="M121.58,162.79 L121.49,162.79 C121.44,162.78 121.39,162.75 121.35,162.72 C121.31,162.69 121.28,162.65 121.25,162.61 C121.23,162.56 121.21,162.52 121.2,162.46 C121.19,162.41 121.2,162.36 121.21,162.31 C123.97,151.24 137.86,131.69 138.99,130.1 L138.99,122.19 C139,122.09 139.04,121.99 139.11,121.92 C139.18,121.84 139.28,121.8 139.38,121.8 C139.49,121.8 139.59,121.84 139.66,121.91 C139.73,121.99 139.77,122.09 139.77,122.19 L139.77,130.22 C139.77,130.3 139.75,130.37 139.7,130.44 C139.56,130.64 124.8,151.16 121.97,162.49 C121.95,162.58 121.9,162.65 121.83,162.71 C121.76,162.76 121.67,162.79 121.58,162.79 Z" id="Path" fill="#2C0F6B"></path>
            <path d="M137.57,162.64 L137.26,162.4 L136.98,162.13 L151.2,147.43 L152.48,146.06 C152.52,146.03 152.56,146 152.61,145.98 C152.65,145.96 152.71,145.95 152.76,145.95 C152.81,145.95 152.86,145.96 152.91,145.98 C152.95,146 153,146.03 153.03,146.06 C153.07,146.1 153.1,146.14 153.12,146.19 C153.14,146.24 153.15,146.29 153.15,146.34 C153.15,146.39 153.14,146.44 153.12,146.49 C153.1,146.54 153.07,146.58 153.03,146.62 L151.75,147.99 L137.57,162.64 Z" id="Path" fill="#2C0F6B"></path>
        </g>
    </g>
</svg>