<?xml version="1.0" encoding="UTF-8"?>
<svg width="190px" height="26px" viewBox="0 0 190 26" version="1.1" xmlns="http://www.w3.org/2000/svg" xmlns:xlink="http://www.w3.org/1999/xlink">
    <title>logo</title>
    <g id="Page-1" stroke="none" stroke-width="1" fill="none" fill-rule="evenodd">
        <g id="logo" fill-rule="nonzero">
            <path d="M47.6511,20.8584 L44.6729,20.8584 L44.6729,19.6388 C43.4424,20.5481 42.0649,21 40.5513,21 C38.5913,21 36.9198,20.2922 35.5314,18.882 C34.1431,17.4773 33.4516,15.7786 33.4516,13.7859 C33.4516,11.7931 34.1431,10.0944 35.5314,8.68972 C36.9198,7.27957 38.5913,6.57178 40.5513,6.57178 C42.0649,6.57178 43.4369,7.02368 44.6729,7.92204 L44.6729,6.71334 L47.6511,6.71334 L47.6511,20.8584 Z M40.5568,18.0218 C41.6838,18.0218 42.6584,17.6134 43.4696,16.7913 C44.2754,15.9637 44.6783,14.9619 44.6783,13.7859 C44.6783,12.6153 44.2754,11.6135 43.4696,10.7804 C42.6584,9.95831 41.6838,9.54997 40.5568,9.54997 C39.4189,9.54997 38.4443,9.95831 37.633,10.7804 C36.8381,11.608 36.4406,12.6098 36.4406,13.7859 C36.4406,14.9565 36.8381,15.9583 37.633,16.7913 C38.4388,17.608 39.4134,18.0218 40.5568,18.0218 Z" id="Shape" fill="#5132A2"></path>
            <path d="M62.1772,20.8582 L59.2644,20.8582 L59.2644,19.8945 C58.2463,20.6241 57.1356,20.9834 55.9269,20.9834 C54.2064,20.9834 52.7363,20.2974 51.5113,18.9199 C50.2972,17.5315 49.6874,15.8655 49.6874,13.9163 L49.6874,6.71313 L52.5893,6.71313 L52.5893,13.9109 C52.5893,15.0597 52.916,16.0343 53.5802,16.851 C54.2281,17.6622 55.0122,18.0706 55.9269,18.0706 C56.8524,18.0706 57.6364,17.6622 58.2898,16.851 C58.9377,16.0452 59.2644,15.0706 59.2644,13.9272 L59.2644,6.71313 L62.1772,6.71313 L62.1772,20.8582 Z" id="Path" fill="#5132A2"></path>
            <polygon id="Path" fill="#5132A2" points="68.2589 6.71316 70.1699 6.71316 70.1699 9.62602 68.2589 9.62602 68.2589 20.8582 65.346 20.8582 65.346 9.62602 63.4459 9.62602 63.4459 6.71316 65.346 6.71316 65.346 2.11792 68.2589 2.11792"></polygon>
            <path d="M78.0863,6.57178 C80.0355,6.57178 81.7125,7.27957 83.1063,8.68972 C84.4947,10.0944 85.1861,11.7931 85.1861,13.7859 C85.1861,15.7786 84.4947,17.4773 83.1063,18.882 C81.7125,20.2922 80.0409,21 78.0863,21 C76.1263,21 74.4548,20.2922 73.0664,18.882 C71.6781,17.4773 70.9866,15.7786 70.9866,13.7859 C70.9866,11.7931 71.6781,10.0944 73.0664,8.68972 C74.4548,7.27957 76.1263,6.57178 78.0863,6.57178 Z M78.0863,18.0218 C79.2134,18.0218 80.188,17.6134 80.9993,16.7913 C81.8051,15.9637 82.2079,14.9619 82.2079,13.7859 C82.2079,12.6153 81.8051,11.6135 80.9993,10.7804 C80.188,9.95831 79.2134,9.54997 78.0863,9.54997 C76.9484,9.54997 75.9738,9.95831 75.1626,10.7804 C74.3677,11.608 73.9703,12.6098 73.9703,13.7859 C73.9703,14.9565 74.3677,15.9583 75.1626,16.7913 C75.9738,17.608 76.9484,18.0218 78.0863,18.0218 Z" id="Shape" fill="#5132A2"></path>
            <path d="M105.489,20.8584 L102.511,20.8584 L102.511,19.6388 C101.28,20.5481 99.9028,21 98.3892,21 C96.4292,21 94.7577,20.2922 93.3693,18.882 C91.981,17.4773 91.2895,15.7786 91.2895,13.7859 C91.2895,11.7931 91.981,10.0944 93.3693,8.68972 C94.7577,7.27957 96.4292,6.57178 98.3892,6.57178 C99.9028,6.57178 101.275,7.02368 102.511,7.92204 L102.511,6.71334 L105.489,6.71334 L105.489,20.8584 Z M98.3947,18.0218 C99.5217,18.0218 100.496,17.6134 101.308,16.7913 C102.113,15.9637 102.516,14.9619 102.516,13.7859 C102.516,12.6153 102.113,11.6135 101.308,10.7804 C100.496,9.95831 99.5217,9.54997 98.3947,9.54997 C97.2568,9.54997 96.2822,9.95831 95.471,10.7804 C94.676,11.608 94.2786,12.6098 94.2786,13.7859 C94.2786,14.9565 94.676,15.9583 95.471,16.7913 C96.2822,17.608 97.2568,18.0218 98.3947,18.0218 Z" id="Shape" fill="#5132A2"></path>
            <path d="M114.625,6.52271 C116.574,6.52271 118.246,7.2305 119.645,8.65154 C121.033,10.0562 121.725,11.7495 121.725,13.7313 C121.725,15.7241 121.033,17.4228 119.645,18.8275 C118.251,20.2376 116.58,20.9454 114.625,20.9454 C113.101,20.9454 111.723,20.4935 110.493,19.5843 L110.493,25.606 L107.525,25.606 L107.525,6.71327 L110.493,6.71327 L110.493,7.86752 C111.723,6.96916 113.101,6.52271 114.625,6.52271 Z M114.625,17.9836 C115.752,17.9836 116.721,17.5698 117.527,16.7368 C118.338,15.9092 118.747,14.9074 118.747,13.7313 C118.747,12.5662 118.338,11.5698 117.527,10.7423 C116.721,9.91469 115.758,9.49545 114.625,9.49545 C113.476,9.49545 112.502,9.90924 111.701,10.7423 C110.895,11.5698 110.493,12.5716 110.493,13.7313 C110.493,14.9019 110.895,15.9037 111.701,16.7368 C112.502,17.5643 113.482,17.9836 114.625,17.9836 Z" id="Shape" fill="#5132A2"></path>
            <path d="M130.54,6.52271 C132.489,6.52271 134.16,7.2305 135.56,8.65154 C136.948,10.0562 137.639,11.7495 137.639,13.7313 C137.639,15.7241 136.948,17.4228 135.56,18.8275 C134.166,20.2376 132.494,20.9454 130.54,20.9454 C129.015,20.9454 127.638,20.4935 126.407,19.5843 L126.407,25.606 L123.44,25.606 L123.44,6.71327 L126.407,6.71327 L126.407,7.86752 C127.638,6.96916 129.015,6.52271 130.54,6.52271 Z M130.54,17.9836 C131.667,17.9836 132.636,17.5698 133.442,16.7368 C134.253,15.9092 134.661,14.9074 134.661,13.7313 C134.661,12.5662 134.253,11.5698 133.442,10.7423 C132.636,9.91469 131.672,9.49545 130.54,9.49545 C129.391,9.49545 128.416,9.90924 127.616,10.7423 C126.81,11.5698 126.407,12.5716 126.407,13.7313 C126.407,14.9019 126.81,15.9037 127.616,16.7368 C128.416,17.5643 129.391,17.9836 130.54,17.9836 Z" id="Shape" fill="#5132A2"></path>
            <path d="M142.267,7.89461 C143.356,7.10515 144.554,6.71313 145.872,6.71313 L147.336,6.71313 L147.336,9.62599 L145.872,9.62599 C144.881,9.62599 144.026,10.0343 143.318,10.8456 C142.616,11.6568 142.267,12.6314 142.267,13.7693 L142.267,20.8527 L139.354,20.8527 L139.354,6.71313 L142.267,6.71313 L142.267,7.89461 Z" id="Path" fill="#5132A2"></path>
            <path d="M154.866,6.57178 C156.815,6.57178 158.492,7.27957 159.886,8.68972 C161.274,10.0944 161.966,11.7931 161.966,13.7859 C161.966,15.7786 161.274,17.4773 159.886,18.882 C158.492,20.2922 156.821,21 154.866,21 C152.906,21 151.234,20.2922 149.846,18.882 C148.458,17.4773 147.766,15.7786 147.766,13.7859 C147.766,11.7931 148.458,10.0944 149.846,8.68972 C151.234,7.27957 152.906,6.57178 154.866,6.57178 Z M154.866,18.0218 C155.993,18.0218 156.968,17.6134 157.779,16.7913 C158.585,15.9637 158.988,14.9619 158.988,13.7859 C158.988,12.6153 158.585,11.6135 157.779,10.7804 C156.968,9.95831 155.993,9.54997 154.866,9.54997 C153.728,9.54997 152.754,9.95831 151.942,10.7804 C151.147,11.608 150.75,12.6098 150.75,13.7859 C150.75,14.9565 151.147,15.9583 151.942,16.7913 C152.754,17.608 153.728,18.0218 154.866,18.0218 Z" id="Shape" fill="#5132A2"></path>
            <polygon id="Path" fill="#5132A2" points="168.134 20.8582 162.075 6.71313 165.243 6.71313 168.886 15.2067 172.517 6.71313 175.686 6.71313 169.643 20.8582"></polygon>
            <path d="M188.791,17.804 C188.203,18.7132 187.43,19.4428 186.483,19.9981 C185.378,20.6678 184.185,21 182.9,21 C180.94,21 179.269,20.2922 177.88,18.882 C176.492,17.4773 175.801,15.7786 175.801,13.7859 C175.801,11.7931 176.492,10.0944 177.88,8.68972 C179.269,7.27957 180.94,6.57178 182.9,6.57178 C184.849,6.57178 186.526,7.27957 187.92,8.68972 C189.309,10.0944 190,11.7931 190,13.7859 L190,15.0055 L179.04,15.0055 C179.28,15.9365 179.775,16.6878 180.526,17.2541 C181.234,17.7659 182.029,18.0218 182.9,18.0218 C184.327,18.0218 185.432,17.4501 186.211,16.3122 L188.791,17.804 Z M186.766,12.294 C186.467,11.4828 185.971,10.824 185.28,10.3177 C184.572,9.80587 183.777,9.54997 182.906,9.54997 C182.035,9.54997 181.24,9.80587 180.532,10.3177 C179.84,10.824 179.345,11.4828 179.045,12.294 L186.766,12.294 Z" id="Shape" fill="#5132A2"></path>
            <path d="M19.8728,0 L27.3645,0 C28.8183,0 29.7275,1.57349 28.9979,2.83119 L16.5134,24.4136 C15.7948,25.6604 13.998,25.6713 13.2576,24.4353 L9.44636,18.0434 C9.09791,17.4554 9.09246,16.7258 9.43546,16.1323 L18.2394,0.93647 C18.577,0.359343 19.1976,0 19.8728,0 Z" id="Path" fill="#44E0B7"></path>
            <path d="M5.07978,14.7114 C7.88528,14.7114 10.1596,12.4371 10.1596,9.63157 C10.1596,6.82607 7.88528,4.55176 5.07978,4.55176 C2.27428,4.55176 0,6.82607 0,9.63157 C0,12.4371 2.27428,14.7114 5.07978,14.7114 Z" id="Path" fill="#5132A2"></path>
        </g>
    </g>
</svg>